<svg width="100%" height="100%" viewBox="0 0 120 120" version="1.1" xmlns="http://www.w3.org/2000/svg" xmlns:xlink="http://www.w3.org/1999/xlink" xml:space="preserve" xmlns:serif="http://www.serif.com/" style="fill-rule:evenodd;clip-rule:evenodd;stroke-linecap:round;stroke-linejoin:round;stroke-miterlimit:1.5;">
    <ellipse id="L_1_origin" cx="63.548" cy="97.018" rx="0.5" ry="0.509" style="fill:none;"/>
    <path id="logo" d="M79.313,38.184C73.135,38.455 66.601,36.448 61.749,32.802C56.897,29.155 54.32,23.714 54.869,17.423M45.516,53.789C46.677,54.276 48.999,55.25 48.601,56.486C43.034,73.768 29.276,73.94 29.3,88.166C29.311,94.882 36.485,101.399 46.085,101.497C54.967,101.589 64.921,99.798 72.656,89.351C79.303,80.373 82.223,69.652 79.313,56.318M59.261,99.322C55.804,89.501 54.276,82.36 52.235,72.299L66.763,69.703L66.763,95.392L59.261,99.322ZM69.118,48.352C62.955,48.568 57.389,47.437 52.927,45.3C48.465,43.163 45.107,40.022 43.357,36.218" style="fill:none;stroke:rgb(255,0,126);stroke-width:8px;"/>
    <circle id="dot1" cx="87.705" cy="97.577" r="5" style="fill:rgb(255,0,126);"/>
    <circle id="dot1_origin" cx="87.705" cy="97.577" r="0.05" style="fill:none;"/>
    <circle id="dot2" cx="99.725" cy="97.527" r="5" style="fill:rgb(255,0,126);"/>
    <circle id="dot2_origin" cx="99.725" cy="97.527" r="0.05" style="fill:none;"/>
    <circle id="dot3" cx="111.835" cy="97.577" r="5" style="fill:rgb(255,0,126);"/>
    <circle id="dot3_origin" cx="111.835" cy="97.577" r="0.05" style="fill:none;"/>
	
<style>	
#logo{
	transform-origin:calc(100% * 63/120) calc(100% * 97/120);
	animation: rotate 1s;
   	animation-iteration-count: infinite;

	animation-timing-function: ease-in-out;
	animation-iteration-count: infinite;
	animation-direction: alternate;
	}
#dot1{
	transform-origin:calc(100% * 88/120) calc(100% * 97/120);
	animation: scale 1s;
   	animation-iteration-count: infinite;
	animation-timing-function: ease-in-out;
	animation-iteration-count: infinite;
	animation-direction: alternate;
	}
#dot2{
	transform-origin:calc(100% * 99/120) calc(100% * 97/120);
	animation: scale 1s;
	animation-delay:.5s;
   	animation-iteration-count: infinite;
	animation-timing-function: ease-in-out;
	animation-iteration-count: infinite;
	animation-direction: alternate;
	}
#dot3{
	transform-origin:calc(100% * 112/120) calc(100% * 97/120);
	animation: scale 1s;
	animation-delay:1s;
   	animation-iteration-count: infinite;
	animation-timing-function: ease-in-out;
	animation-iteration-count: infinite;
	animation-direction: alternate;
	}
@keyframes rotate {
	0% { transform: rotate(0deg); }
	10% { transform: rotate(-6deg); }
	20% { transform: rotate(0deg); }
	30% { transform: rotate(-6deg); }
	50%{ transform: rotate(0deg);}
	100% { transform: rotate(0deg); } 
	}
@keyframes scale {
	0% { transfrm:scale(.5); }
	25% { transfrm:scale(1); }
	50% { transfrm:scale(.5); }
	100% { transform:scale(.5); } 
	}
</style>
</svg>
