<svg width="100%" height="100%" viewBox="0 0 1000 367" version="1.1" xmlns="http://www.w3.org/2000/svg" xmlns:xlink="http://www.w3.org/1999/xlink" xml:space="preserve" xmlns:serif="http://www.serif.com/" style="fill-rule:evenodd;clip-rule:evenodd;stroke-linejoin:round;stroke-miterlimit:2;">
			<style>
#L_1{
	transform-origin:calc(100% * 160/1000) calc(100% * 220/300);
	animation: rotate 1s;
   animation-iteration-count: infinite;
	animation-name: rotate;
	animation-timing-function: ease-in-out;
	animation-iteration-count: infinite;
	animation-direction: alternate;
}
#hair{
	transform-origin:calc(100% * 195/1000) calc(100% * 275/367);
	animation: rotate 2s;
   animation-iteration-count: infinite;
	animation-name: rotate_hair;
	animation-timing-function: ease-in-out;
	animation-iteration-count: infinite;
	animation-direction: alternate;
	animation-duration: 3s;
}

#L_0{
	animation-name: return;
  animation-timing-function: ease-in-out;
  animation-iteration-count: infinite;
  animation-direction: alternate;
  animation-duration: 0.8s;
}
#L_2{
	animation-delay:500ms;
	animation-name: return;
  animation-timing-function: ease-in-out;
  animation-iteration-count: infinite;
  animation-direction: alternate;
  animation-duration: 1.5s;
}

#L_3{
	animation-name: return;
  animation-timing-function: ease-in-out;
  animation-iteration-count: infinite;
  animation-direction: alternate;
  animation-duration: 1s;
}

#L_4{
	animation-name: return;
  animation-timing-function: ease-in-out;
  animation-iteration-count: infinite;
  animation-direction: alternate;
  animation-duration: 1.4s;
}

#L_5{
	animation-name: return;
  animation-timing-function: ease-in-out;
  animation-iteration-count: infinite;
  animation-direction: alternate;
  animation-duration: 1.2s;
}

#w_1{
	animation-name: return;
  animation-timing-function: ease-in-out;
  animation-iteration-count: infinite;
  animation-direction: alternate;
  animation-duration: 2s;
}

#w_2{
	animation-name: return;
  animation-timing-function: ease-in-out;
  animation-iteration-count: infinite;
  animation-direction: alternate;
  animation-duration: 1.6s;
}
#w_3{
	animation-name: return;
  animation-timing-function: ease-in-out;
  animation-iteration-count: infinite;
  animation-direction: alternate;
  animation-duration: 0.8s;
}
#w_4{
	animation-delay:500ms;
	animation-name: return;
  animation-timing-function: ease-in-out;
  animation-iteration-count: infinite;
  animation-direction: alternate;
  animation-duration: 1.5s;
}

@keyframes return {
0% {
        transform: translate(0,0px);
    }
    100% {
        transform: translate(0,5px);
    }
}
@keyframes rotate {
	0% { transform: rotate(0deg); }
	10% { transform: rotate(-6deg); }
	20% { transform: rotate(0deg); }
	30% { transform: rotate(-6deg); }
	50%{ transform: rotate(0deg);}
	100% { transform: rotate(0deg); } 
}
@keyframes rotate_hair{
    0% { transform: rotate(5deg); }
    100% { transform: rotate(-10deg); } 
}
</style>
    <ellipse id="L_1_origin" cx="194.751" cy="275.3" rx="0.306" ry="0.303" style="fill:none;"/>
    <path id="L_5" d="M256.831,195.309C256.167,202.725 251.917,224.626 251.917,224.626C251.917,224.626 206.056,237.696 204.079,245.218C202.081,252.816 198.948,262.945 198.318,269.097C197.679,275.339 196.391,287.426 204.645,282.096C221.26,271.365 261.43,250.96 285.674,244.21C304.518,238.966 327.672,229.549 353.374,224.727C372.834,221.077 396.352,232.061 438.258,226.05C457.417,223.302 473.373,203.324 488.879,203.897C506.235,204.54 525.607,218.799 548.07,218.395C564.94,218.092 593.061,204.217 605.554,204.057C617.278,203.908 646.607,211.414 660.219,210.713C689.395,209.211 701.443,204.785 710.088,205.261C723.257,205.986 736.104,217.147 757.942,217.026C779.062,216.91 787.608,210.749 804.705,210.713C835.612,210.649 851.277,227.291 871.302,229.76C910.865,234.64 972.031,215.19 980.259,219.194C982.466,220.269 989.486,222.872 992.505,222.844C995.95,222.813 1000.7,197.897 999.913,195.545C997.359,187.986 988.557,188.789 980.554,189.423C967.116,190.486 890.901,205.025 870.892,198.396C855.294,193.231 824.481,187.212 803.253,189.423C783.092,191.524 773.397,189.176 758.002,189.423C741.321,189.69 729.462,177.263 711.152,177.637C696.262,177.939 675.457,187.895 660.024,189.423C638.271,191.575 629.098,181.044 604.088,181.533C587.66,181.854 563.941,191.753 547.694,191.469C529.939,191.159 507.994,180.232 487.904,181.046C464.946,181.978 448.954,199.813 434.889,202.65C391.917,211.321 374.828,197.711 352.425,200.627C327.935,203.814 293.88,218.441 279.644,218.599C281.571,207.671 284.098,196.4 285.058,179.111C285.291,174.886 285.524,168.199 281.633,167.534C276.553,166.665 218.603,163.717 212.817,158.485C202.461,149.117 205.216,185.808 212.963,192.632C218.162,197.211 246.739,195.224 256.831,195.309Z" style="fill:rgb(255,213,0);"/>
    <path id="L_4" d="M666.456,254.086C620.592,256.85 564.302,263.337 525.683,273.696C494.525,282.053 485.89,290.397 476.996,297.399C474.09,299.688 470.971,303.235 469.34,306.251C468.362,308.059 475.693,329.88 476.779,329.963C479.585,330.178 484.076,327.173 489.514,323.169C510.898,307.423 524.37,302.425 535.502,298.448C604.17,273.92 698.804,271.139 744.559,264.792C748.793,264.204 731.21,245.548 695.389,250.365C693.712,250.592 691.896,250.831 689.949,251.084C691.449,249.414 692.575,247.681 693.17,246.215C693.852,244.531 693.933,234.728 693.621,233.549C693.126,231.676 677.049,229.898 665.103,228.543C659.296,227.885 621.79,227.682 618.81,227.758C615.843,227.834 574.782,229.645 570.549,230.084C568.005,230.348 554.942,232.485 543.555,234.128C524.853,236.827 515.984,229.955 512.553,237.322C511.321,239.968 515.049,258.16 517.182,260.129C520.219,262.938 524.565,266.377 528.608,264.806C535.686,262.056 589.491,254.4 606.296,253.617C636.416,252.214 653.17,251.647 666.456,254.086Z" style="fill:rgb(255,13,0);"/>
    <path id="L_3" d="M851.425,154.705C849.359,150.443 824.017,160.695 823.137,163.645C818.393,179.54 826.858,243.744 836.259,252.671C840.415,256.621 863.997,239.895 863.801,236.434C863.447,230.446 855.765,163.628 851.425,154.705ZM930.997,163.596C930.178,169.083 920.329,228.953 921.809,236.823C923.471,245.693 942.848,251.18 944.364,250.092C948.569,247.104 963.137,174.994 961.963,169.16C960.667,162.717 931.193,162.259 930.997,163.596ZM878.638,159.193C878.369,159.524 880.097,236.215 883.471,242.205C886.149,246.955 901.307,248.609 903.251,245.562C906.259,240.889 914.433,172.959 911.878,161.628C910.618,156.091 882.098,154.941 878.638,159.193Z" style="fill:rgb(3,255,0);"/>
    <path id="L_2" d="M394.963,155.13C403.981,138.325 424.336,128.734 425.166,128.357C425.531,128.621 436.733,136.827 440.144,140.523C454.36,155.924 464.094,176.295 462.443,204.781C461.431,222.271 455.02,236.501 439.29,256.641C435.07,262.044 427.415,269.657 418.643,275.464C413.166,279.089 407.293,282.034 401.537,283.045C399.352,283.429 395.641,283.222 391.584,282.773C385.044,282.05 377.69,280.577 374.026,278.93C368.244,276.328 365.809,273.544 363.392,272.141C360.757,270.611 348.555,272.303 346.913,273.26C345.168,274.278 342.869,287.036 334.078,299.282C331.121,303.402 326.904,306.953 319.762,307.788C316.387,308.182 313.231,306.699 310.552,304.325C305.716,300.036 302.905,293.935 304.967,285.604C305.663,282.784 307.677,277.759 310.097,274.635C312.172,271.961 282.426,261.205 278.768,265.671C273.438,272.179 267.693,283.097 272.454,302.348C274.892,312.209 290.09,336.583 323.196,334.083C334.305,333.244 347.992,326.464 353.21,320.502C360.265,312.44 362.401,306.923 363.407,303.495C365.44,305.034 368.781,307.051 374.779,309.308C383.965,312.764 396.342,317.284 409.388,315.677C430.462,313.08 443.953,308.03 456.304,298.289C477.179,281.826 497.497,254.262 502.992,217.627C506.595,193.608 504.264,159.145 486.986,137.298C469.37,115.023 452.853,103.8 437.897,101.41C422.69,98.98 407.633,101.954 399.248,105.637C391.978,108.83 381.326,114.959 371.103,125.282C362.852,133.616 356.272,147.095 356.954,155.745C357.102,157.638 383.691,167.876 388.275,165.978C392.319,164.302 392.525,159.673 394.963,155.13ZM363.338,189.038C361.71,186.984 341.171,183.135 338.179,185.535C331.682,190.745 325.174,206.561 322.201,214.439C317.621,226.573 316.189,252.67 321.568,260.374C322.617,261.877 347.515,263.421 349.358,259.775C351.924,254.696 352.718,239.212 356.264,220.018C358.166,209.721 364.238,190.174 363.338,189.038Z" style="fill:rgb(0,204,255);"/>
    <path id="L_1" d="M174.974,280.233C176.26,253.282 174.482,226.594 173.61,212.365C173.471,210.117 171.128,206.848 168.044,206.863C160.421,206.901 95.187,214.617 91.058,218.573C89.782,219.795 94.662,246.611 99.41,268.282C102.65,283.069 108.662,299.095 117.512,321.207C106.559,326.681 99.474,328.524 88.956,330.215C75.36,332.399 61.666,330.031 51.724,323.793C43.353,318.541 38.298,308.7 37.32,299.756C35.63,284.282 43.853,268.09 58.993,250.582C72.925,234.469 83.868,221.481 94.424,202.797C109.243,176.566 113.435,162.748 110.888,158.602C108.887,155.343 103.909,153.055 101.073,151.734C96.089,149.414 77.424,141.923 75.929,145.09C73.734,149.737 68.687,157.152 71.525,158.461C72.877,159.084 79.216,164.1 79.315,166.387C79.467,169.897 76.343,181.232 68.147,192.611C59.079,205.2 51.124,212.919 34.809,229.513C26.788,237.673 0.837,255.075 0.069,286.755C0.281,299.787 2.996,316.706 12.487,329.335C26.112,347.464 48.295,361.167 79.919,359.319C99.185,358.193 124.16,352.546 133.907,348.693C164.976,336.404 201.354,316.022 221.028,260.388C234.531,222.199 231.462,189.913 226.205,170.567C224.465,164.161 222.24,158.168 220.144,155.514C218.509,153.447 191.958,162.254 191.732,164.567C191.346,168.5 193.001,174.203 193.266,175.948C198.403,209.561 195.268,245.083 174.974,280.233ZM139.511,308.553C140.797,307.59 148.425,303.033 148.425,303.033C148.445,293.085 143.992,236.814 144.02,230.912C144.026,229.7 118.783,232.617 119.019,235.006C120.879,253.859 130.814,289.39 139.511,308.553ZM101.614,93.533C91.248,85.793 81.465,70.939 75.001,71.572C70.485,72.013 58.379,87.753 59.266,98.341C59.75,104.111 72.661,118.27 77.699,122.595C92.663,135.44 116.478,146.491 145.958,150.014C166.267,152.441 172.211,152.052 176.449,150.365C185.033,146.952 184.918,120.985 179.585,121.178C174.622,121.357 162.457,120.819 157.145,119.875C122.583,113.733 116.826,104.888 101.614,93.533ZM127.849,7.271C119.474,6.808 100.669,24.865 100.251,31.773C99.702,40.883 101.103,50.243 109.627,64.042C122.216,84.424 135.707,93.126 150.689,100.528C172.326,111.216 204.701,111.11 213.832,108.584C227.165,104.894 226.331,76.353 220.233,75.921C212.112,75.348 168.029,63.795 158.138,51.863C146.635,37.985 137.464,21.591 134.534,14.848C132.914,11.118 130.751,7.431 127.849,7.271Z" style="fill:rgb(255,0,126);"/>
    <path d="M749.909,252.671L741.134,366.748L987.177,362.614L985.909,272.276L749.909,252.671Z" style="fill:rgb(58,53,255);"/>
    <path d="M763.31,338.366C763.191,338.661 763.132,338.898 763.132,339.075L763.132,340.317C763.132,340.553 763.073,340.819 762.955,341.115C762.837,341.588 762.644,341.972 762.378,342.268C762.112,342.564 761.831,342.83 761.536,343.066C761.358,343.185 761.137,343.318 760.871,343.465C760.605,343.613 760.294,343.835 759.939,344.131C759.289,344.012 758.786,343.894 758.432,343.776C758.077,343.658 757.722,343.48 757.367,343.244C756.421,343.244 755.682,342.919 755.15,342.268C754.972,342.15 754.825,342.017 754.706,341.869C754.588,341.721 754.47,341.588 754.352,341.47C754.292,341.352 754.204,341.219 754.085,341.071C753.967,340.923 753.701,340.701 753.287,340.406C753.346,339.873 753.376,339.489 753.376,339.252L753.376,337.7C753.376,337.375 753.435,337.065 753.553,336.769C753.672,336.592 753.775,336.429 753.864,336.281C753.952,336.133 754.056,336 754.174,335.882C754.706,335.409 755.061,335.084 755.238,334.906C755.416,334.729 755.593,334.552 755.771,334.374C756.421,334.315 756.82,334.3 756.968,334.33C757.116,334.359 757.249,334.374 757.367,334.374C758.195,334.493 758.772,334.611 759.097,334.729C759.422,334.847 759.732,334.966 760.028,335.084C760.56,335.261 760.945,335.394 761.181,335.483C761.418,335.572 761.743,335.764 762.157,336.059C762.511,336.71 762.763,337.168 762.911,337.434C763.058,337.7 763.191,338.011 763.31,338.366ZM825.13,295.083C825.071,295.378 825.012,295.644 824.952,295.881C824.893,296.295 824.746,296.768 824.509,297.3C824.154,297.596 823.918,297.862 823.799,298.098C823.74,298.216 823.711,298.305 823.711,298.364L823.179,298.542C823.06,298.601 822.927,298.63 822.779,298.63L822.469,298.63C821.937,298.926 821.538,299.103 821.272,299.163C821.006,299.222 820.754,299.31 820.518,299.429C820.399,299.429 820.296,299.458 820.207,299.517C820.119,299.576 819.926,299.754 819.631,300.049C819.158,300.049 818.862,300.064 818.744,300.094C818.626,300.123 818.507,300.197 818.389,300.316C818.093,300.375 817.857,300.404 817.68,300.404L817.236,300.404C816.586,300.522 816.157,300.596 815.95,300.626C815.743,300.656 815.58,300.729 815.462,300.848C815.167,300.966 814.9,301.055 814.664,301.114C814.427,301.173 814.161,301.202 813.866,301.202C813.274,301.557 812.653,301.794 812.003,301.912C811.53,302.03 811.249,302.089 811.16,302.089C811.072,302.089 810.998,302.119 810.939,302.178C810.761,302.296 810.584,302.385 810.407,302.444C810.229,302.503 810.022,302.592 809.786,302.71C809.549,302.71 809.372,302.725 809.254,302.755C809.135,302.784 809.017,302.799 808.899,302.799C808.78,302.858 808.692,302.888 808.633,302.888C808.396,303.065 808.041,303.272 807.568,303.509C807.273,303.509 806.888,303.538 806.415,303.597C805.942,303.656 805.617,303.686 805.44,303.686C805.026,303.568 804.774,303.494 804.686,303.464C804.597,303.435 804.523,303.42 804.464,303.42C804.405,303.42 804.198,303.361 803.843,303.242C803.666,303.183 803.518,303.154 803.4,303.154L802.069,301.912L801.892,301.025C801.833,300.789 801.788,300.552 801.759,300.316C801.729,300.079 801.744,299.902 801.803,299.783C801.685,299.074 801.833,298.483 802.247,298.009C802.483,297.714 802.631,297.507 802.69,297.389C802.749,297.27 802.838,297.093 802.956,296.856C803.429,296.738 803.74,296.635 803.888,296.546C804.035,296.457 804.227,296.295 804.464,296.058C806.356,296.058 807.598,295.674 808.189,294.905C808.071,294.432 808.027,294.136 808.056,294.018C808.086,293.9 808.13,293.811 808.189,293.752C807.716,293.161 807.391,292.747 807.214,292.51C806.741,292.096 806.386,291.801 806.149,291.623C805.913,291.446 805.706,291.21 805.528,290.914C804.996,290.677 804.671,290.515 804.553,290.426C804.434,290.337 804.346,290.234 804.287,290.116C804.05,290.116 803.858,290.071 803.71,289.983C803.562,289.894 803.429,289.82 803.311,289.761C802.897,289.702 802.587,289.672 802.38,289.672C802.173,289.672 801.981,289.643 801.803,289.583C801.389,289.583 801.079,289.598 800.872,289.628C800.665,289.657 800.473,289.643 800.295,289.583C799.881,289.583 799.556,289.495 799.32,289.317L798.167,289.761C797.694,289.879 797.324,289.938 797.058,289.938L796.215,289.938C795.861,290.057 795.609,290.145 795.462,290.204C795.314,290.263 795.092,290.382 794.796,290.559C794.323,290.559 793.909,290.618 793.555,290.737C793.377,290.796 793.229,290.884 793.111,291.003L792.402,291.357C791.929,291.594 791.662,291.683 791.603,291.623C791.189,291.801 790.864,292.067 790.628,292.422C789.8,292.717 789.268,292.924 789.031,293.043C788.795,293.161 788.617,293.338 788.499,293.575C788.026,293.87 787.671,294.092 787.435,294.24C787.198,294.388 787.021,294.521 786.902,294.639C786.548,294.935 786.222,295.142 785.927,295.26C785.749,295.674 785.454,295.969 785.04,296.147C785.04,296.206 784.922,296.295 784.685,296.413L784.33,296.59L783.621,297.3C783.325,297.714 783.118,297.965 783,298.054C782.882,298.143 782.763,298.246 782.645,298.364C782.468,298.837 782.172,299.222 781.758,299.517C781.581,299.99 781.403,300.345 781.226,300.582L780.783,301.469C780.487,301.942 780.25,302.326 780.073,302.622C779.896,302.917 779.748,303.154 779.63,303.331C779.511,303.509 779.423,303.686 779.363,303.863C779.304,304.041 779.216,304.366 779.097,304.839C778.683,305.194 778.447,305.445 778.388,305.593C778.329,305.741 778.27,305.874 778.21,305.992C777.915,306.702 777.708,307.219 777.59,307.544C777.471,307.869 777.383,308.18 777.323,308.475C777.205,309.303 777.131,309.821 777.102,310.028C777.072,310.235 776.998,310.397 776.88,310.515C776.821,310.87 776.762,311.121 776.703,311.269C776.643,311.417 776.584,311.55 776.525,311.668C776.348,312.437 776.2,312.881 776.082,312.999C776.023,313.295 775.993,313.561 775.993,313.797C775.993,314.034 775.934,314.3 775.816,314.595L775.816,315.438C775.816,315.704 775.786,315.985 775.727,316.281C775.668,316.576 775.653,316.828 775.683,317.034C775.712,317.241 775.786,317.611 775.904,318.143C775.609,318.439 775.476,318.749 775.505,319.074C775.535,319.4 775.579,319.592 775.638,319.651L775.638,322.312C775.638,322.548 775.653,322.74 775.683,322.888C775.712,323.036 775.786,323.258 775.904,323.554C775.963,323.967 775.993,324.219 775.993,324.307C775.993,324.396 776.023,324.5 776.082,324.618C776.2,325.032 776.303,325.313 776.392,325.46C776.481,325.608 776.614,325.771 776.791,325.948C776.791,326.599 776.836,327.027 776.924,327.234C777.013,327.441 777.176,327.604 777.412,327.722C777.53,328.313 777.634,328.713 777.723,328.92C777.811,329.127 777.915,329.348 778.033,329.585C778.27,330.176 778.432,330.59 778.521,330.826C778.61,331.063 778.683,331.27 778.743,331.447C778.861,331.684 778.964,331.92 779.053,332.157C779.142,332.393 779.245,332.63 779.363,332.866C779.6,333.28 779.866,333.546 780.162,333.665C780.221,333.842 780.295,334.019 780.383,334.197C780.472,334.374 780.576,334.522 780.694,334.64C780.812,334.818 780.901,334.936 780.96,334.995L781.315,335.173C781.61,335.35 781.758,335.468 781.758,335.527C781.995,335.646 782.216,335.764 782.423,335.882C782.63,336 782.882,336.148 783.177,336.326C783.296,336.68 783.414,336.917 783.532,337.035C783.65,337.153 783.946,337.212 784.419,337.212C784.833,337.449 785.188,337.671 785.483,337.878C785.779,338.085 786.075,338.247 786.37,338.366C786.843,338.661 787.346,338.809 787.878,338.809C788.115,338.927 788.292,339.001 788.41,339.031C788.529,339.06 788.676,339.105 788.854,339.164C789.445,339.341 789.77,339.43 789.829,339.43C790.657,339.548 791.204,339.622 791.47,339.652C791.736,339.681 791.929,339.726 792.047,339.785C792.638,339.844 793.022,339.888 793.2,339.918C793.377,339.947 793.525,339.992 793.643,340.051C794.057,339.992 794.338,339.962 794.486,339.962L794.974,339.962L797.457,340.317C797.989,340.258 798.374,340.258 798.61,340.317C798.906,340.199 799.142,340.11 799.32,340.051C799.497,339.992 799.645,339.932 799.763,339.873C800.414,339.755 800.813,339.681 800.961,339.652C801.108,339.622 801.241,339.578 801.36,339.519C802.01,339.341 802.454,339.282 802.69,339.341C802.927,339.282 803.163,339.238 803.4,339.208C803.636,339.179 803.814,339.105 803.932,338.986C804.109,338.927 804.257,338.839 804.375,338.72L805.262,338.366C805.854,338.129 806.179,337.981 806.238,337.922C806.474,337.804 806.652,337.7 806.77,337.612C806.888,337.523 807.007,337.449 807.125,337.39C807.716,337.212 808.041,337.094 808.1,337.035C808.751,336.68 809.165,336.473 809.342,336.414C809.52,336.355 809.697,336.119 809.874,335.705C810.466,335.527 810.85,335.35 811.027,335.173C811.146,335.054 811.234,334.936 811.294,334.818C811.412,334.581 811.678,334.256 812.092,333.842C812.506,333.546 812.757,333.354 812.846,333.266C812.934,333.177 813.008,333.103 813.067,333.044C813.245,332.807 813.511,332.541 813.866,332.246C814.102,331.832 814.265,331.566 814.353,331.447C814.442,331.329 814.516,331.211 814.575,331.093C815.048,330.56 815.373,330.235 815.551,330.117C815.728,329.999 815.876,329.94 815.994,329.94C816.29,329.821 816.497,329.747 816.615,329.718C816.733,329.688 816.881,329.614 817.059,329.496C817.532,329.496 817.886,329.54 818.123,329.629C818.36,329.718 818.596,329.851 818.833,330.028C819.069,330.206 819.261,330.339 819.409,330.427C819.557,330.516 819.69,330.62 819.808,330.738C819.926,330.856 820.045,330.945 820.163,331.004C820.222,331.122 820.281,331.27 820.34,331.447C820.399,331.625 820.429,331.832 820.429,332.068C820.547,332.719 820.621,333.147 820.651,333.354C820.68,333.561 820.666,333.753 820.606,333.931L819.542,336.414C819.424,336.828 819.246,337.153 819.01,337.39C818.951,337.508 818.626,338.159 818.566,338.277C818.093,338.868 817.753,339.238 817.546,339.386C817.34,339.533 817.177,339.637 817.059,339.696C816.763,340.11 816.586,340.346 816.526,340.406C816.467,340.465 816.438,340.583 816.438,340.76C816.024,340.938 815.817,341.041 815.817,341.071C815.817,341.1 815.758,341.145 815.64,341.204L814.841,342.002C814.605,342.002 814.368,342.061 814.132,342.179C813.659,342.416 813.393,342.682 813.333,342.978C812.86,342.978 812.58,343.037 812.491,343.155C812.402,343.273 812.358,343.362 812.358,343.421C812.121,343.539 811.914,343.658 811.737,343.776C811.56,343.894 811.412,344.012 811.294,344.131C811.116,344.249 810.939,344.338 810.761,344.397C810.466,344.456 810.2,344.515 809.963,344.574C809.549,344.633 809.194,344.752 808.899,344.929L807.568,345.372C807.391,345.491 807.243,345.594 807.125,345.683C807.007,345.772 806.859,345.875 806.681,345.993C806.327,346.052 806.046,346.082 805.839,346.082L805.262,346.082C804.848,346.378 804.479,346.57 804.154,346.658C803.828,346.747 803.518,346.821 803.222,346.88L802.069,346.88C801.478,347.235 801.094,347.412 800.916,347.412C800.443,347.531 800.133,347.619 799.985,347.678C799.837,347.738 799.704,347.797 799.586,347.856C799.231,347.915 798.935,347.93 798.699,347.9C798.462,347.871 798.285,347.856 798.167,347.856C797.871,347.974 797.649,348.033 797.501,348.033L796.836,348.033L796.304,347.856C795.949,347.738 795.742,347.649 795.683,347.59C794.796,347.767 794.205,347.797 793.909,347.678C793.259,347.619 792.756,347.575 792.402,347.545C792.047,347.516 791.722,347.472 791.426,347.412C791.13,347.294 790.938,347.235 790.849,347.235L790.45,347.235C789.977,347.117 789.593,347.013 789.297,346.925C789.002,346.836 788.706,346.703 788.41,346.525C788.115,346.466 787.893,346.452 787.745,346.481C787.597,346.511 787.435,346.555 787.257,346.614L785.927,345.905C785.454,345.905 785.129,345.816 784.951,345.638C784.656,345.52 784.316,345.372 783.931,345.195C783.547,345.018 783.207,344.84 782.911,344.663C782.675,344.604 782.438,344.545 782.202,344.485C781.965,344.426 781.729,344.279 781.492,344.042C781.256,344.042 781.019,344.012 780.783,343.953L780.073,343.776C779.955,343.717 779.836,343.628 779.718,343.51C779.6,343.392 779.482,343.288 779.363,343.199C779.245,343.111 779.156,343.007 779.097,342.889C778.802,342.83 778.506,342.652 778.21,342.357C778.151,342.357 778.063,342.327 777.944,342.268C777.826,342.209 777.708,342.15 777.59,342.091C777.412,342.032 777.235,341.943 777.057,341.825L776.703,341.292C776.466,340.938 776.259,340.79 776.082,340.849C775.727,340.494 775.49,340.243 775.372,340.095C775.254,339.947 775.136,339.814 775.017,339.696L774.308,338.809C774.13,338.75 773.983,338.602 773.864,338.366L773.687,338.011C773.569,337.952 773.48,337.863 773.421,337.745C773.303,337.449 773.244,337.301 773.244,337.301C772.948,336.828 772.726,336.473 772.578,336.237C772.43,336 772.297,335.764 772.179,335.527C771.765,335.054 771.529,334.67 771.47,334.374C771.41,334.256 771.337,334.123 771.248,333.975C771.159,333.827 771.115,333.635 771.115,333.399C770.997,333.221 770.908,333.059 770.849,332.911C770.79,332.763 770.73,332.63 770.671,332.512L770.228,331.536C769.637,331.004 769.4,330.442 769.518,329.851C769.341,329.2 769.193,328.757 769.075,328.52C768.897,328.166 768.75,327.9 768.631,327.722C768.513,327.545 768.454,327.367 768.454,327.19C768.158,326.599 767.981,326.273 767.922,326.214C767.922,325.682 767.907,325.342 767.877,325.194C767.848,325.047 767.833,324.943 767.833,324.884C767.419,323.701 767.36,322.814 767.656,322.223C767.597,321.868 767.552,321.381 767.523,320.76C767.493,320.139 767.478,319.621 767.478,319.207C767.715,318.439 767.833,317.877 767.833,317.522L767.833,316.724C767.833,316.488 767.892,316.221 768.011,315.926C768.011,315.453 767.996,315.128 767.966,314.95C767.937,314.773 767.922,314.625 767.922,314.507C767.863,314.211 767.848,313.901 767.877,313.575C767.907,313.25 768.011,312.91 768.188,312.555C768.306,312.082 768.365,311.816 768.365,311.757C768.365,311.698 768.395,311.639 768.454,311.58C768.513,310.456 768.557,309.747 768.587,309.451C768.617,309.155 768.691,308.771 768.809,308.298C769.104,307.943 769.282,307.707 769.341,307.588C769.4,307.47 769.43,307.382 769.43,307.322C769.43,306.79 769.489,306.376 769.607,306.081C769.784,305.785 769.947,305.519 770.095,305.282C770.243,305.046 770.405,304.809 770.583,304.573C770.701,303.745 770.997,303.035 771.47,302.444C771.47,301.735 771.588,301.232 771.824,300.936C772.357,300.227 772.726,299.709 772.933,299.384C773.14,299.059 773.332,298.749 773.51,298.453C773.628,298.157 773.761,297.817 773.909,297.433C774.057,297.049 774.219,296.62 774.397,296.147C774.87,295.674 775.136,295.349 775.195,295.171C775.55,294.698 775.786,294.373 775.904,294.196C776.023,294.018 776.141,293.87 776.259,293.752C776.259,293.634 776.377,293.456 776.614,293.22L776.969,292.865C777.028,292.747 777.146,292.599 777.323,292.422C777.442,292.303 777.56,292.2 777.678,292.111C777.796,292.023 777.915,291.919 778.033,291.801C778.506,291.328 778.861,291.062 779.097,291.003C779.334,290.943 779.511,290.855 779.63,290.737C779.984,290.323 780.191,290.071 780.25,289.983C780.31,289.894 780.369,289.82 780.428,289.761C780.96,289.465 781.3,289.258 781.448,289.14C781.596,289.022 781.699,288.933 781.758,288.874C781.936,288.697 782.083,288.549 782.202,288.43C782.32,288.312 782.497,288.194 782.734,288.076C783.207,287.898 783.488,287.765 783.576,287.677C783.665,287.588 783.739,287.484 783.798,287.366L785.04,286.568C785.749,285.977 786.222,285.607 786.459,285.459C786.696,285.311 786.873,285.208 786.991,285.149C787.464,285.03 787.76,284.942 787.878,284.883C787.996,284.824 788.174,284.705 788.41,284.528C788.883,284.41 789.194,284.336 789.342,284.306C789.489,284.277 789.622,284.232 789.741,284.173C789.859,284.114 789.977,284.04 790.095,283.951C790.214,283.863 790.332,283.789 790.45,283.73C790.569,283.671 790.657,283.611 790.716,283.552C790.835,283.493 790.982,283.434 791.16,283.375C791.278,283.316 791.382,283.257 791.47,283.197C791.559,283.138 791.633,283.109 791.692,283.109C792.165,282.991 792.49,282.917 792.668,282.887C792.845,282.857 793.022,282.813 793.2,282.754C794.205,282.281 794.944,282 795.417,281.911C795.89,281.823 796.363,281.897 796.836,282.133C797.368,281.897 797.841,281.778 798.255,281.778L799.054,281.778C799.527,281.778 799.852,281.793 800.029,281.823C800.207,281.852 800.354,281.867 800.473,281.867L801.626,281.867C801.921,281.867 802.306,281.926 802.779,282.044C803.429,282.163 803.828,282.251 803.976,282.311C804.124,282.37 804.257,282.429 804.375,282.488C804.494,282.488 804.73,282.547 805.085,282.665C805.262,282.724 805.41,282.784 805.528,282.843L806.327,283.197C806.445,283.257 806.548,283.301 806.637,283.331C806.726,283.36 806.947,283.345 807.302,283.286C807.598,283.641 807.775,283.833 807.834,283.863C807.894,283.892 807.953,283.937 808.012,283.996C808.307,284.114 808.633,284.291 808.987,284.528C809.224,284.705 809.46,284.824 809.697,284.883C809.934,284.942 810.111,285.001 810.229,285.06C810.407,285.119 810.554,285.149 810.673,285.149C810.791,285.385 810.939,285.622 811.116,285.858L811.648,286.568C812.358,287.218 812.875,287.736 813.2,288.12C813.526,288.504 813.777,288.844 813.954,289.14C814.132,289.436 814.294,289.702 814.442,289.938C814.59,290.175 814.782,290.53 815.019,291.003C815.137,291.357 815.211,291.594 815.24,291.712C815.27,291.83 815.314,291.949 815.373,292.067C815.669,292.363 815.876,292.51 815.994,292.51C816.113,292.51 816.231,292.481 816.349,292.422C817,292.244 817.428,292.126 817.635,292.067C817.842,292.008 818.005,291.949 818.123,291.89C818.773,291.653 819.246,291.49 819.542,291.402C819.838,291.313 820.133,291.21 820.429,291.091C820.725,291.15 820.946,291.18 821.094,291.18C821.242,291.18 821.553,291.121 822.026,291.003C822.558,291.298 822.912,291.535 823.09,291.712C823.149,291.712 823.223,291.742 823.312,291.801C823.4,291.86 823.504,291.919 823.622,291.978C823.74,292.037 823.888,292.096 824.066,292.156C824.125,292.333 824.213,292.51 824.332,292.688C824.568,293.043 824.686,293.22 824.686,293.22C824.686,293.338 824.716,293.486 824.775,293.663C824.834,293.841 824.893,294.048 824.952,294.284C825.012,294.521 825.071,294.787 825.13,295.083ZM890.498,316.458C890.439,316.931 890.409,317.241 890.409,317.389L890.409,320.715C890.232,321.247 890.084,321.676 889.966,322.001C889.847,322.327 889.729,322.607 889.611,322.844C889.552,323.021 889.507,323.184 889.478,323.332C889.448,323.48 889.404,323.701 889.345,323.997C889.227,324.293 889.138,324.514 889.079,324.662C889.02,324.81 888.96,324.943 888.901,325.061C888.901,325.061 888.842,325.239 888.724,325.593C888.665,325.771 888.635,325.919 888.635,326.037C888.517,326.155 888.428,326.273 888.369,326.392C888.31,326.51 888.251,326.613 888.192,326.702C888.133,326.791 888.103,326.865 888.103,326.924C887.926,327.16 887.763,327.367 887.615,327.545C887.467,327.722 887.334,327.9 887.216,328.077C887.098,328.373 886.98,328.639 886.861,328.875C886.743,329.112 886.625,329.319 886.507,329.496C886.388,329.733 886.181,330.146 886.063,330.383C885.827,330.62 885.634,330.782 885.487,330.871C885.339,330.96 885.206,331.063 885.087,331.181C884.851,331.477 884.688,331.758 884.6,332.024C884.511,332.29 884.437,332.512 884.378,332.689C884.319,332.926 884.26,333.103 884.2,333.221C883.964,333.399 883.727,333.606 883.491,333.842C883.314,334.019 883.151,334.182 883.003,334.33C882.855,334.478 882.752,334.552 882.693,334.552C882.397,334.966 882.131,335.232 881.894,335.35C881.599,336 881.407,336.414 881.318,336.592C881.229,336.769 881.126,336.887 881.007,336.946C880.712,337.419 880.52,337.7 880.431,337.789C880.342,337.878 880.239,337.922 880.121,337.922C879.825,338.336 879.574,338.691 879.367,338.986C879.16,339.282 878.879,339.489 878.524,339.607C878.051,340.08 877.741,340.391 877.593,340.539C877.445,340.686 877.341,340.819 877.282,340.938L876.395,341.47C875.627,341.765 875.183,341.913 875.065,341.913C874.592,342.209 874.296,342.401 874.178,342.49C874.06,342.579 873.971,342.623 873.912,342.623L872.315,343.421C871.606,343.717 871.044,343.924 870.63,344.042C869.802,344.338 869.285,344.515 869.078,344.574C868.871,344.633 868.708,344.663 868.59,344.663C868.058,344.84 867.674,344.958 867.437,345.018C867.201,345.077 866.994,345.136 866.816,345.195C866.639,345.254 866.402,345.298 866.107,345.328C865.811,345.358 865.279,345.491 864.51,345.727L863.002,345.727C862.411,345.845 861.968,345.845 861.672,345.727C861.199,345.786 860.726,345.757 860.253,345.638C859.898,345.638 859.632,345.653 859.455,345.683C859.277,345.712 859.1,345.727 858.923,345.727C858.213,345.668 857.755,345.653 857.548,345.683C857.341,345.712 857.089,345.727 856.794,345.727C855.966,345.609 855.419,345.55 855.153,345.55L854.399,345.55C853.69,345.668 853.069,345.609 852.537,345.372C852.241,345.254 851.99,345.195 851.783,345.195L851.206,345.195C850.26,345.195 849.639,345.165 849.343,345.106C849.048,344.929 848.797,344.825 848.59,344.796C848.383,344.766 848.22,344.752 848.102,344.752C847.688,344.692 847.392,344.648 847.215,344.618C847.037,344.589 846.801,344.515 846.505,344.397C845.914,344.279 845.559,344.16 845.441,344.042C845.323,343.924 845.264,343.835 845.264,343.776C844.613,343.48 844.14,343.303 843.844,343.244C843.549,343.185 843.312,343.125 843.135,343.066C842.721,343.007 842.307,342.8 841.893,342.445C841.597,342.386 841.376,342.357 841.228,342.357C841.08,342.357 840.947,342.327 840.829,342.268C840.356,342.268 839.942,342.194 839.587,342.046C839.232,341.899 838.907,341.706 838.611,341.47C837.843,341.352 837.281,341.115 836.926,340.76C836.631,340.524 836.424,340.376 836.305,340.317C836.187,340.258 836.098,340.199 836.039,340.139C835.211,339.371 834.62,338.809 834.265,338.454C833.911,338.099 833.615,337.774 833.378,337.479C833.083,337.183 832.817,336.887 832.58,336.592C832.344,336.296 832.107,335.941 831.871,335.527C831.693,335.113 831.486,334.729 831.25,334.374C831.013,334.019 830.777,333.635 830.54,333.221L829.919,331.625C829.742,331.447 829.624,331.3 829.565,331.181C829.505,331.063 829.446,330.974 829.387,330.915C829.328,330.856 829.299,330.797 829.299,330.738C829.062,330.324 828.885,330.043 828.766,329.895C828.648,329.747 828.5,329.585 828.323,329.407C828.264,328.816 828.175,328.313 828.057,327.9C827.939,327.722 827.879,327.53 827.879,327.323C827.879,327.116 827.85,326.953 827.791,326.835C827.672,326.599 827.584,326.392 827.525,326.214C827.465,326.037 827.406,325.86 827.347,325.682C827.229,325.446 827.111,325.091 826.992,324.618C826.697,323.79 826.519,323.169 826.46,322.755C826.401,322.341 826.401,321.987 826.46,321.691C826.401,321.218 826.342,320.878 826.283,320.671C826.224,320.464 826.165,320.242 826.106,320.006C825.987,319.651 825.913,319.414 825.884,319.296C825.854,319.178 825.81,319.03 825.751,318.853C825.751,318.498 825.766,318.261 825.795,318.143C825.825,318.025 825.839,317.907 825.839,317.788C825.78,317.67 825.514,317.138 825.396,316.901L825.396,315.66C825.396,315.305 825.485,314.921 825.662,314.507C825.603,314.152 825.573,313.901 825.573,313.753L825.573,313.354C825.632,312.999 825.662,312.762 825.662,312.644L825.662,312.289C825.839,311.816 825.958,311.491 826.017,311.314C826.076,311.136 826.106,310.988 826.106,310.87L826.106,309.54C826.401,309.126 826.579,308.83 826.638,308.653C826.697,308.475 826.726,308.239 826.726,307.943C826.845,307.056 826.919,306.495 826.948,306.258C826.978,306.022 827.022,305.844 827.081,305.726C827.318,305.253 827.451,304.942 827.48,304.795C827.51,304.647 827.584,304.336 827.702,303.863C827.998,303.449 828.175,303.124 828.234,302.888C828.293,302.651 828.352,302.444 828.412,302.267C828.53,302.03 828.589,301.838 828.589,301.69C828.589,301.542 828.648,301.291 828.766,300.936L829.565,300.227C829.742,299.517 830.038,299.015 830.452,298.719C830.747,297.95 830.984,297.477 831.161,297.3C831.279,297.004 831.383,296.753 831.472,296.546C831.56,296.339 831.752,296.176 832.048,296.058C832.285,295.703 832.492,295.29 832.669,294.816C833.083,294.521 833.378,294.329 833.556,294.24C833.733,294.151 833.881,294.048 833.999,293.93C834.354,293.043 834.709,292.481 835.064,292.244C835.714,291.417 836.158,290.87 836.394,290.603C836.631,290.337 836.808,290.145 836.926,290.027L838.523,288.43C838.759,288.312 838.996,288.164 839.232,287.987C839.41,287.869 839.602,287.765 839.809,287.677C840.016,287.588 840.178,287.544 840.297,287.544C840.415,287.425 840.563,287.322 840.74,287.233C840.918,287.144 841.065,287.041 841.184,286.923C841.597,286.627 842.1,286.39 842.691,286.213C842.987,285.917 843.371,285.71 843.844,285.592C844.14,285.415 844.332,285.282 844.421,285.193C844.51,285.104 844.702,284.971 844.997,284.794C845.293,284.794 845.618,284.705 845.973,284.528C846.269,284.469 846.505,284.454 846.683,284.484C846.86,284.513 847.008,284.528 847.126,284.528C847.54,284.291 847.865,284.099 848.102,283.951C848.338,283.804 848.516,283.671 848.634,283.552C848.811,283.434 848.93,283.345 848.989,283.286L850.674,282.931L852.537,282.399C852.655,282.458 852.832,282.488 853.069,282.488C853.187,282.488 853.35,282.503 853.556,282.532C853.763,282.562 853.926,282.577 854.044,282.577C854.34,282.517 854.636,282.473 854.931,282.444C855.227,282.414 855.523,282.429 855.818,282.488C856.232,282.429 856.513,282.37 856.661,282.311C856.809,282.251 856.942,282.192 857.06,282.133C857.415,281.956 857.888,281.926 858.479,282.044C859.129,281.926 859.603,281.867 859.898,281.867C860.194,281.867 860.489,281.897 860.785,281.956L861.849,281.956C862.322,282.015 862.677,282.089 862.914,282.177C863.15,282.266 863.328,282.37 863.446,282.488C864.274,282.429 864.821,282.414 865.087,282.444C865.353,282.473 865.545,282.517 865.663,282.577C866.077,282.636 866.388,282.665 866.595,282.665C866.802,282.665 867.053,282.724 867.349,282.843C868.235,283.138 868.93,283.375 869.433,283.552C869.935,283.73 870.335,283.937 870.63,284.173C870.748,284.173 870.882,284.158 871.029,284.129C871.177,284.099 871.369,284.144 871.606,284.262L872.759,284.794C873.173,284.971 873.454,285.075 873.601,285.104C873.749,285.134 873.912,285.149 874.089,285.149C874.385,285.444 874.562,285.637 874.621,285.725C874.681,285.814 874.74,285.858 874.799,285.858C874.917,285.917 875.05,285.977 875.198,286.036C875.346,286.095 875.568,286.213 875.863,286.39C876.041,286.804 876.174,287.056 876.262,287.144C876.351,287.233 876.425,287.307 876.484,287.366C876.957,287.425 877.371,287.603 877.726,287.898C878.081,288.194 878.347,288.49 878.524,288.785C878.642,288.844 878.761,288.889 878.879,288.918C878.997,288.948 879.293,289.022 879.766,289.14C880.061,289.613 880.298,289.938 880.475,290.116C880.653,290.293 880.86,290.5 881.096,290.737C881.214,291.032 881.318,291.254 881.407,291.402C881.495,291.55 881.806,291.683 882.338,291.801C882.515,292.51 882.604,292.836 882.604,292.776C882.841,293.072 883.062,293.368 883.269,293.663C883.476,293.959 883.698,294.136 883.934,294.196C884.112,294.728 884.26,295.068 884.378,295.216C884.496,295.363 884.733,295.556 885.087,295.792L885.087,296.768C885.087,296.886 885.117,296.975 885.176,297.034C885.413,297.27 885.59,297.463 885.708,297.61C885.827,297.758 885.945,297.891 886.063,298.009C886.181,298.305 886.27,298.527 886.329,298.675C886.388,298.823 886.447,298.956 886.507,299.074C886.625,299.31 886.758,299.532 886.906,299.739C887.053,299.946 887.157,300.197 887.216,300.493C887.512,301.084 887.66,301.528 887.66,301.823C887.896,302.356 888.059,302.74 888.147,302.976C888.236,303.213 888.34,303.42 888.458,303.597C888.576,303.893 888.635,304.159 888.635,304.395L888.635,305.016C888.813,305.667 888.901,306.14 888.901,306.435C888.901,306.908 888.931,307.293 888.99,307.588C889.049,307.884 889.108,308.121 889.167,308.298C889.227,308.535 889.315,308.712 889.433,308.83C889.433,309.185 889.463,309.481 889.522,309.717L889.522,310.338C889.522,310.456 889.552,310.575 889.611,310.693C889.847,312.053 889.966,312.969 889.966,313.442C890.143,313.797 890.232,314.122 890.232,314.418C890.291,314.832 890.32,315.083 890.32,315.172L890.32,315.394C890.439,315.689 890.498,315.911 890.498,316.059L890.498,316.458ZM882.87,315.305L882.427,312.733C882.367,312.496 882.338,312.082 882.338,311.491C882.22,311.195 882.146,310.944 882.116,310.737C882.087,310.53 882.042,310.368 881.983,310.249C881.806,309.717 881.717,309.303 881.717,309.008C881.776,308.535 881.776,308.195 881.717,307.988C881.658,307.781 881.599,307.559 881.54,307.322C881.421,306.731 881.362,306.258 881.362,305.903C881.244,305.667 881.155,305.475 881.096,305.327C881.037,305.179 880.978,305.046 880.919,304.928C880.741,304.277 880.608,303.804 880.52,303.509C880.431,303.213 880.357,302.976 880.298,302.799C880.121,302.503 880.002,302.267 879.943,302.089C879.884,301.912 879.825,301.764 879.766,301.646L879.677,301.469C879.441,301.173 879.263,300.951 879.145,300.803C879.027,300.656 878.938,300.434 878.879,300.138C878.701,300.02 878.568,299.887 878.48,299.739C878.391,299.591 878.288,299.458 878.169,299.34C878.051,298.926 877.962,298.675 877.903,298.586C877.844,298.497 877.785,298.394 877.726,298.276C877.43,297.98 877.253,297.773 877.194,297.655C877.134,297.536 877.046,297.418 876.928,297.3C876.277,296.472 875.922,295.969 875.863,295.792C875.39,295.437 875.035,295.112 874.799,294.816C874.562,294.521 874.326,294.225 874.089,293.93C873.735,293.634 873.424,293.383 873.158,293.176C872.892,292.969 872.641,292.806 872.404,292.688C872.227,292.57 872.035,292.466 871.828,292.377C871.621,292.289 871.251,292.185 870.719,292.067C870.423,291.771 870.187,291.623 870.009,291.623C869.832,291.623 869.595,291.683 869.3,291.801C868.945,291.505 868.694,291.313 868.546,291.224C868.398,291.136 868.176,291.091 867.881,291.091C867.171,290.796 866.609,290.441 866.195,290.027C866.018,289.968 865.811,289.879 865.575,289.761C865.456,289.702 865.338,289.672 865.22,289.672L863.889,289.583C863.416,289.465 863.032,289.406 862.736,289.406C862.441,289.406 862.145,289.377 861.849,289.317C861.317,289.317 860.844,289.199 860.43,288.963L858.745,288.963C858.449,289.14 858.198,289.258 857.991,289.317C857.784,289.377 857.563,289.436 857.326,289.495C855.907,289.436 855.02,289.465 854.665,289.583C854.133,289.82 853.66,289.968 853.246,290.027L851.916,290.293C851.443,290.411 851.162,290.5 851.073,290.559C850.984,290.618 850.881,290.707 850.763,290.825C850.171,291.003 849.787,291.121 849.61,291.18C849.137,291.298 848.856,291.372 848.767,291.402C848.678,291.431 848.575,291.476 848.457,291.535C847.924,292.008 847.451,292.333 847.037,292.51C846.624,292.688 846.269,292.836 845.973,292.954C845.559,293.309 845.293,293.516 845.175,293.575C845.057,293.634 844.968,293.693 844.909,293.752C844.317,294.107 843.874,294.403 843.578,294.639C843.283,294.876 843.017,295.112 842.78,295.349C842.662,295.526 842.558,295.718 842.47,295.925C842.381,296.132 842.218,296.295 841.982,296.413C841.686,296.886 841.509,297.167 841.45,297.256C841.391,297.344 841.361,297.418 841.361,297.477L840.385,298.364C839.794,298.956 839.41,299.31 839.232,299.429C838.937,299.961 838.715,300.345 838.567,300.582C838.419,300.818 838.286,300.996 838.168,301.114C837.991,301.469 837.813,301.794 837.636,302.089C837.458,302.385 837.37,302.651 837.37,302.888C836.956,303.361 836.719,303.656 836.66,303.775C836.601,303.893 836.571,304.189 836.571,304.662C836.158,305.135 835.877,305.519 835.729,305.815C835.581,306.11 835.418,306.347 835.241,306.524C835.123,306.82 835.064,307.012 835.064,307.101C835.064,307.189 835.093,307.352 835.152,307.588C834.916,308.002 834.753,308.268 834.665,308.387C834.576,308.505 834.502,308.623 834.443,308.742C834.502,309.333 834.458,309.909 834.31,310.471C834.162,311.033 833.97,311.58 833.733,312.112C833.792,312.526 833.763,312.969 833.645,313.442C833.585,313.62 833.571,313.782 833.6,313.93C833.63,314.078 833.704,314.359 833.822,314.773C833.526,315.187 833.364,315.453 833.334,315.571C833.305,315.689 833.29,315.808 833.29,315.926C833.408,316.34 833.497,316.65 833.556,316.857C833.615,317.064 833.704,317.286 833.822,317.522C833.822,318.173 833.852,318.675 833.911,319.03C833.97,319.385 833.999,319.74 833.999,320.094C834.058,320.331 834.088,320.686 834.088,321.159C834.384,321.868 834.546,322.312 834.576,322.489C834.605,322.667 834.65,322.814 834.709,322.933C834.945,323.583 835.064,323.967 835.064,324.086C835.359,324.854 835.507,325.239 835.507,325.239C835.625,325.593 835.729,325.86 835.818,326.037C835.906,326.214 835.98,326.362 836.039,326.48C836.158,326.658 836.231,326.835 836.261,327.013C836.291,327.19 836.365,327.397 836.483,327.633C836.542,327.929 836.631,328.195 836.749,328.432L836.838,328.609L837.902,330.826C838.257,331.181 838.493,331.566 838.611,331.98C838.907,332.275 839.129,332.512 839.277,332.689C839.424,332.866 839.558,333.044 839.676,333.221C840.208,333.458 840.622,333.872 840.918,334.463C841.213,334.581 841.464,334.655 841.671,334.685C841.878,334.714 842.1,334.788 842.337,334.906C842.869,335.084 843.224,335.202 843.401,335.261C843.578,335.32 843.726,335.35 843.844,335.35C844.672,335.646 845.086,335.793 845.086,335.793C845.737,336.03 846.121,336.163 846.239,336.193C846.357,336.222 846.446,336.266 846.505,336.326C847.156,336.562 847.54,336.739 847.658,336.858C847.895,336.917 848.087,336.976 848.235,337.035C848.383,337.094 848.516,337.153 848.634,337.212C848.811,337.272 848.959,337.286 849.077,337.257C849.196,337.227 849.403,337.183 849.698,337.124C850.112,337.242 850.437,337.346 850.674,337.434C850.91,337.523 851.117,337.597 851.295,337.656C851.709,337.419 852.019,337.36 852.226,337.479C852.433,337.597 852.596,337.715 852.714,337.833C853.187,337.952 853.512,338.026 853.69,338.055C853.867,338.085 854.015,338.099 854.133,338.099C854.37,338.099 854.562,338.085 854.71,338.055C854.857,338.026 854.99,338.011 855.109,338.011C855.523,338.07 855.789,338.099 855.907,338.099C856.025,338.099 856.143,338.07 856.262,338.011C856.735,338.129 857.104,338.188 857.37,338.188L858.612,338.188C858.819,338.188 859.011,338.218 859.189,338.277C859.484,338.159 859.676,338.085 859.765,338.055C859.854,338.026 859.957,337.952 860.076,337.833C860.489,337.952 860.741,338.026 860.829,338.055C860.918,338.085 860.992,338.07 861.051,338.011C861.229,337.952 861.48,337.907 861.805,337.878C862.13,337.848 862.47,337.922 862.825,338.099C863.298,337.981 863.682,337.892 863.978,337.833C864.274,337.774 864.569,337.715 864.865,337.656C865.397,337.538 865.855,337.419 866.24,337.301C866.624,337.183 866.964,337.065 867.26,336.946C867.555,336.828 867.851,336.725 868.147,336.636C868.442,336.547 868.797,336.503 869.211,336.503C869.507,336.326 869.876,336.104 870.32,335.838C870.763,335.572 871.133,335.379 871.428,335.261C871.901,334.847 872.227,334.566 872.404,334.419C872.581,334.271 872.759,334.138 872.936,334.019C873.409,333.724 873.69,333.532 873.779,333.443C873.868,333.354 873.941,333.28 874.001,333.221C874.296,332.807 874.488,332.512 874.577,332.334C874.666,332.157 874.769,331.95 874.888,331.713C875.479,331.122 875.922,330.649 876.218,330.294C876.514,329.94 876.928,329.407 877.46,328.698C877.814,328.225 878.066,327.9 878.214,327.722C878.361,327.545 878.494,327.397 878.613,327.279C878.968,326.806 879.204,326.495 879.322,326.347C879.441,326.2 879.529,326.067 879.588,325.948C879.943,325.416 880.18,325.047 880.298,324.84C880.416,324.633 880.534,324.47 880.653,324.352C880.948,323.879 881.111,323.583 881.141,323.465C881.17,323.347 881.155,323.14 881.096,322.844C881.274,322.548 881.377,322.327 881.407,322.179C881.436,322.031 881.451,321.809 881.451,321.514L882.427,319.74C882.486,319.326 882.515,319.06 882.515,318.941L882.515,318.321C882.693,317.788 882.781,317.389 882.781,317.123L882.781,316.547C882.781,315.955 882.811,315.541 882.87,315.305ZM975.024,287.898L974.669,288.608C974.492,288.963 974.403,289.258 974.403,289.495C974.226,289.731 973.989,289.997 973.693,290.293C973.457,290.411 973.25,290.5 973.073,290.559C972.895,290.618 972.688,290.677 972.452,290.737C972.452,290.796 972.333,290.884 972.097,291.003C971.979,291.062 971.86,291.091 971.742,291.091C971.565,291.15 971.417,291.18 971.299,291.18L970.766,291.18C970.116,291.298 969.569,291.343 969.126,291.313C968.682,291.283 968.283,291.269 967.928,291.269C967.455,291.387 967.071,291.417 966.775,291.357C966.302,291.18 965.918,291.15 965.622,291.269C965.208,291.328 964.927,291.357 964.78,291.357L964.38,291.357C963.73,291.476 963.316,291.535 963.139,291.535L962.695,291.535C962.695,292.008 962.666,292.333 962.607,292.51C962.607,293.102 962.547,293.634 962.429,294.107C962.429,294.58 962.444,294.89 962.473,295.038C962.503,295.186 962.518,295.319 962.518,295.437C962.34,296.147 962.222,296.531 962.163,296.59C962.104,297.123 962.074,297.522 962.074,297.788C962.074,298.054 962.015,298.276 961.897,298.453C961.956,298.808 961.956,299.148 961.897,299.473C961.838,299.798 961.779,300.109 961.72,300.404C961.66,300.7 961.616,300.951 961.587,301.158C961.557,301.365 961.601,301.705 961.72,302.178C961.424,302.71 961.187,303.449 961.01,304.395C960.951,304.632 960.921,304.854 960.921,305.061C960.921,305.268 960.892,305.46 960.833,305.637C960.833,306.82 960.803,307.559 960.744,307.855C960.744,308.209 960.729,308.549 960.7,308.875C960.67,309.2 960.655,309.481 960.655,309.717C960.714,310.013 960.759,310.22 960.788,310.338C960.818,310.456 960.833,310.575 960.833,310.693C960.892,310.929 960.936,311.181 960.966,311.447C960.995,311.713 960.951,311.994 960.833,312.289C960.833,312.94 960.803,313.383 960.744,313.62C960.803,314.625 960.774,315.364 960.655,315.837C960.655,316.488 960.626,316.872 960.567,316.99C960.685,317.7 960.729,318.232 960.7,318.587C960.67,318.941 960.685,319.267 960.744,319.562C960.744,319.799 960.759,320.021 960.788,320.227C960.818,320.434 960.892,320.715 961.01,321.07C960.892,321.543 960.818,321.868 960.788,322.046C960.759,322.223 960.803,322.43 960.921,322.667C960.744,323.199 960.655,323.554 960.655,323.731C960.774,324.795 960.833,325.505 960.833,325.86L960.833,326.569C960.892,327.042 960.951,327.397 961.01,327.633C961.069,327.87 961.099,328.077 961.099,328.254C961.099,328.846 961.069,329.26 961.01,329.496C961.128,330.028 961.202,330.472 961.232,330.826C961.261,331.181 961.217,331.506 961.099,331.802C961.158,332.334 961.187,332.719 961.187,332.955C961.187,333.192 961.158,333.399 961.099,333.576C961.158,334.167 961.173,334.552 961.143,334.729C961.114,334.906 961.099,335.054 961.099,335.173C961.572,335.054 961.912,334.98 962.119,334.951C962.326,334.921 962.518,334.906 962.695,334.906C962.991,334.966 963.213,334.98 963.36,334.951C963.508,334.921 963.641,334.877 963.76,334.818L964.735,334.818C965.445,334.522 965.962,334.345 966.287,334.286C966.613,334.226 966.893,334.226 967.13,334.286C967.84,334.404 968.357,334.507 968.682,334.596C969.007,334.685 969.406,334.759 969.879,334.818C970.116,335.173 970.279,335.424 970.367,335.572C970.456,335.719 970.53,335.853 970.589,335.971C971.417,337.272 971.742,338.366 971.565,339.252C971.506,339.548 971.387,339.799 971.21,340.006C971.033,340.213 970.855,340.376 970.678,340.494C969.791,341.322 969.14,341.765 968.726,341.825C968.135,342.002 967.736,342.105 967.529,342.135C967.322,342.165 967.16,342.179 967.041,342.179C966.45,342.239 966.051,342.268 965.844,342.268L965.356,342.268C965.06,342.268 964.72,342.283 964.336,342.312C963.952,342.342 963.612,342.386 963.316,342.445C962.902,342.682 962.488,342.8 962.074,342.8C961.66,342.919 961.35,342.992 961.143,343.022C960.936,343.052 960.744,343.096 960.567,343.155C959.147,343.332 958.054,343.303 957.285,343.066C956.871,343.125 956.457,343.125 956.043,343.066C955.688,343.007 955.422,342.978 955.245,342.978C955.067,342.978 954.89,342.948 954.713,342.889C954.358,343.007 954.048,343.066 953.781,343.066L952.939,343.066C952.702,343.066 952.481,343.052 952.274,343.022C952.067,342.992 951.786,342.978 951.431,342.978C950.84,343.096 950.411,343.199 950.145,343.288C949.879,343.377 949.628,343.421 949.391,343.421C948.681,343.362 948.223,343.362 948.016,343.421C947.809,343.48 947.617,343.51 947.44,343.51C946.848,343.628 946.449,343.687 946.242,343.687C946.035,343.687 945.873,343.658 945.755,343.599L944.513,343.687C944.335,343.569 944.188,343.421 944.069,343.244C943.951,343.125 943.848,343.007 943.759,342.889C943.67,342.771 943.596,342.682 943.537,342.623C943.005,342.032 942.635,341.559 942.429,341.204C942.222,340.849 942.059,340.435 941.941,339.962C941.763,339.075 941.882,338.366 942.295,337.833C942.946,337.183 943.419,336.799 943.715,336.68C944.01,336.562 944.247,336.503 944.424,336.503C944.72,336.385 945.045,336.326 945.4,336.326C946.05,336.089 946.775,335.941 947.573,335.882C948.371,335.823 949.036,335.853 949.568,335.971C950.337,335.912 950.825,335.882 951.032,335.882L951.52,335.882C951.993,335.764 952.303,335.705 952.451,335.705L952.85,335.705C952.85,334.699 952.88,334.079 952.939,333.842C952.939,333.665 952.968,333.487 953.028,333.31C953.087,333.133 953.146,332.955 953.205,332.778C953.264,332.186 953.264,331.773 953.205,331.536C953.087,331.063 953.057,330.62 953.116,330.206C953.116,329.555 953.087,329.141 953.028,328.964C952.968,328.787 952.968,328.609 953.028,328.432C952.968,327.959 952.939,327.663 952.939,327.545C952.939,327.427 952.909,327.308 952.85,327.19C952.791,326.007 952.806,325.032 952.894,324.263C952.983,323.494 953.028,322.785 953.028,322.134L953.028,321.558C953.028,321.351 952.998,321.188 952.939,321.07C952.761,320.42 952.702,319.947 952.761,319.651C952.643,318.882 952.614,318.439 952.673,318.321C952.614,318.025 952.599,317.744 952.628,317.478C952.658,317.212 952.702,316.931 952.761,316.635C952.821,316.458 952.835,316.295 952.806,316.148C952.776,316 952.702,315.778 952.584,315.482C952.821,315.068 952.954,314.773 952.983,314.595C953.013,314.418 953.028,314.241 953.028,314.063C952.968,313.768 952.924,313.442 952.894,313.088C952.865,312.733 952.88,312.408 952.939,312.112C952.998,311.698 953.028,311.447 953.028,311.358L953.028,311.048C953.087,310.988 953.116,310.841 953.116,310.604C953.116,310.368 953.087,310.161 953.028,309.983C952.85,309.274 952.821,308.712 952.939,308.298C952.88,307.648 952.909,307.115 953.028,306.702C953.087,306.229 953.101,305.903 953.072,305.726C953.042,305.549 953.028,305.312 953.028,305.016C953.205,304.662 953.308,304.44 953.338,304.351C953.368,304.262 953.382,304.159 953.382,304.041C953.382,303.804 953.441,303.449 953.56,302.976C953.323,303.272 953.146,303.538 953.028,303.775C952.909,304.011 952.791,304.248 952.673,304.484C952.495,304.957 952.303,305.386 952.096,305.77C951.889,306.155 951.668,306.495 951.431,306.79C951.194,307.027 951.002,307.234 950.854,307.411C950.707,307.588 950.574,307.736 950.455,307.855C950.219,308.268 950.086,308.535 950.056,308.653C950.027,308.771 949.982,308.86 949.923,308.919C949.687,309.51 949.509,309.895 949.391,310.072C949.273,310.249 949.155,310.368 949.036,310.427L949.036,311.402C948.8,311.521 948.622,311.698 948.504,311.935C948.386,312.171 948.356,312.348 948.415,312.467C948.12,312.762 947.928,312.955 947.839,313.043C947.75,313.132 947.706,313.235 947.706,313.354C947.292,314.063 946.908,314.536 946.553,314.773C946.139,315.423 945.888,315.822 945.799,315.97C945.71,316.118 945.636,316.221 945.577,316.281C945.459,316.576 945.37,316.754 945.311,316.813C945.252,316.872 945.163,316.931 945.045,316.99L944.868,317.345C944.749,317.581 944.631,317.7 944.513,317.7C944.217,318.173 944.025,318.513 943.936,318.72C943.848,318.927 943.744,319.148 943.626,319.385C943.389,319.74 943.182,320.006 943.005,320.183C942.709,320.656 942.532,320.967 942.473,321.114C942.414,321.262 942.325,321.395 942.207,321.514C941.97,321.809 941.749,322.105 941.542,322.4C941.335,322.696 941.172,322.962 941.054,323.199C940.817,323.435 940.64,323.701 940.522,323.997L940.167,324.795C940.049,324.914 939.96,325.032 939.901,325.15C939.782,325.268 939.709,325.372 939.679,325.46C939.649,325.549 939.605,325.623 939.546,325.682C939.428,325.978 939.191,326.244 938.836,326.48C938.659,326.776 938.541,326.968 938.482,327.057C938.422,327.146 938.363,327.249 938.304,327.367C938.186,327.781 937.979,328.136 937.683,328.432C937.506,329.082 937.21,329.673 936.796,330.206C936.56,330.679 936.382,331.004 936.264,331.181C936.087,331.477 935.939,331.743 935.821,331.98C935.702,332.216 935.584,332.423 935.466,332.6C935.348,332.837 935.229,333.014 935.111,333.133L934.756,333.665C934.638,333.783 934.535,333.916 934.446,334.064C934.357,334.212 934.283,334.345 934.224,334.463L932.273,336.769C932.214,337.183 932.036,337.567 931.741,337.922L931.386,338.898C931.327,339.016 931.238,339.164 931.12,339.341L930.765,339.873C930.647,340.11 930.573,340.272 930.543,340.361C930.514,340.45 930.44,340.612 930.322,340.849C929.849,341.204 929.494,341.381 929.257,341.381C928.607,341.618 928.282,341.736 928.282,341.736C927.927,341.972 927.602,342.12 927.306,342.179C926.892,342.12 926.641,342.091 926.552,342.091C926.463,342.091 926.39,342.061 926.33,342.002C926.271,342.002 926.212,342.017 926.153,342.046C926.094,342.076 926.005,342.091 925.887,342.091L925.621,342.091C925.503,342.032 925.384,341.943 925.266,341.825C925.03,341.588 924.911,341.411 924.911,341.292C924.497,341.056 924.172,340.76 923.936,340.406C923.758,340.11 923.64,339.814 923.581,339.519C923.522,339.223 923.463,338.927 923.404,338.632C923.285,338.336 923.123,338.026 922.916,337.7C922.709,337.375 922.487,337.035 922.25,336.68C921.837,336.148 921.63,335.853 921.63,335.793C921.157,335.143 920.876,334.596 920.787,334.153C920.698,333.709 920.595,333.339 920.477,333.044L919.856,332.157C919.737,331.98 919.649,331.802 919.59,331.625C919.531,331.506 919.471,331.373 919.412,331.226C919.353,331.078 919.324,330.974 919.324,330.915L918.259,329.319C918.082,329.141 917.978,328.934 917.949,328.698C917.919,328.461 917.904,328.284 917.904,328.166C917.727,327.929 917.609,327.752 917.55,327.633C917.491,327.515 917.431,327.397 917.372,327.279C917.136,326.628 916.988,326.2 916.929,325.993C916.87,325.786 916.811,325.623 916.751,325.505C916.574,324.677 916.426,324.13 916.308,323.864C916.19,323.598 916.012,323.317 915.776,323.021C915.717,322.43 915.658,322.105 915.598,322.046C915.125,321.218 914.859,320.627 914.8,320.272C914.504,318.971 914.283,318.158 914.135,317.833C913.987,317.508 913.854,317.286 913.736,317.168C913.499,316.281 913.381,315.867 913.381,315.926C913.144,315.63 912.997,315.438 912.938,315.349C912.878,315.261 912.819,315.187 912.76,315.128C912.228,314.418 911.873,313.915 911.696,313.62C911.518,313.324 911.371,313.088 911.252,312.91C911.193,312.851 911.149,312.748 911.119,312.6C911.09,312.452 911.045,312.319 910.986,312.201C910.927,312.023 910.868,311.875 910.809,311.757L910.631,311.225C910.572,311.107 910.513,310.959 910.454,310.781C910.395,310.604 910.336,310.427 910.277,310.249C910.158,309.954 910.055,309.658 909.966,309.362C909.878,309.067 909.774,308.83 909.656,308.653C909.597,308.357 909.567,308.002 909.567,307.588C909.508,307.47 909.464,307.337 909.434,307.189C909.405,307.042 909.36,306.908 909.301,306.79C909.242,306.672 909.212,306.554 909.212,306.435C909.153,306.258 909.094,306.051 909.035,305.815C908.917,305.342 908.858,305.016 908.858,304.839C908.858,305.371 908.828,305.726 908.769,305.903C908.71,306.081 908.68,306.258 908.68,306.435L908.68,306.879C908.68,307.175 908.739,307.382 908.858,307.5C908.562,307.973 908.429,308.313 908.458,308.52C908.488,308.727 908.503,308.86 908.503,308.919C908.503,309.688 908.473,310.19 908.414,310.427L908.414,312.555C908.414,313.088 908.473,313.442 908.592,313.62C908.592,313.856 908.577,314.048 908.547,314.196C908.518,314.344 908.503,314.477 908.503,314.595C908.444,314.714 908.414,314.861 908.414,315.039C908.414,315.216 908.385,315.394 908.325,315.571C908.266,315.867 908.237,316.192 908.237,316.547C908.237,316.724 908.207,316.842 908.148,316.901C908.266,317.256 908.325,317.611 908.325,317.966C908.385,318.616 908.37,319.074 908.281,319.341C908.192,319.607 908.089,319.799 907.971,319.917C908.03,320.272 908.045,320.597 908.015,320.893C907.985,321.188 907.941,321.425 907.882,321.602C908,322.312 908.045,322.785 908.015,323.021C907.985,323.258 907.971,323.435 907.971,323.554C908.03,324.204 908.045,324.633 908.015,324.84C907.985,325.047 907.971,325.209 907.971,325.327L907.971,326.037C907.971,326.214 908,326.333 908.059,326.392L907.882,326.924C907.823,327.042 907.793,327.175 907.793,327.323L907.793,328.52C907.793,328.816 907.734,329.112 907.616,329.407C907.675,329.703 907.705,329.999 907.705,330.294L907.705,331.181C907.705,331.359 907.69,331.551 907.66,331.758C907.631,331.965 907.616,332.157 907.616,332.334L907.616,334.463C907.616,334.64 907.631,334.818 907.66,334.995C907.69,335.173 907.705,335.35 907.705,335.527C907.764,336.178 907.852,336.651 907.971,336.946C908.325,337.242 908.562,337.419 908.68,337.479C908.798,337.538 908.887,337.567 908.946,337.567C909.065,337.508 909.168,337.464 909.257,337.434C909.345,337.405 909.538,337.301 909.833,337.124C910.425,337.242 910.838,337.301 911.075,337.301L911.607,337.301C912.553,337.006 913.381,337.006 914.091,337.301C914.209,337.36 914.327,337.39 914.445,337.39C914.564,337.39 914.682,337.419 914.8,337.479C914.978,337.538 915.125,337.597 915.244,337.656C915.303,337.774 915.391,337.863 915.51,337.922C915.628,337.981 915.717,338.04 915.776,338.099C915.835,338.159 915.894,338.188 915.953,338.188C916.131,338.306 916.338,338.469 916.574,338.676C916.811,338.883 917.077,339.223 917.372,339.696C917.313,340.169 917.298,340.583 917.328,340.938C917.357,341.292 917.431,341.825 917.55,342.534C916.781,343.125 916.249,343.451 915.953,343.51L915.332,344.308C914.8,344.604 914.342,344.766 913.958,344.796C913.573,344.825 913.233,344.84 912.938,344.84L912.051,344.84C911.873,344.899 911.696,344.929 911.518,344.929C911.4,344.988 911.252,345.018 911.075,345.018L910.898,345.018C910.72,345.136 910.543,345.18 910.365,345.151C910.188,345.121 909.892,345.136 909.478,345.195C909.005,345.254 908.665,345.298 908.458,345.328C908.252,345.358 908.089,345.343 907.971,345.284C907.498,345.284 907.054,345.313 906.64,345.372C906.226,345.432 905.812,345.55 905.399,345.727C905.044,345.609 904.807,345.55 904.689,345.55L904.334,345.55C903.861,345.55 903.492,345.535 903.225,345.505C902.959,345.476 902.679,345.402 902.383,345.284C901.732,345.165 901.082,345.136 900.432,345.195C899.781,345.254 899.219,345.343 898.746,345.461C898.155,345.579 897.593,345.727 897.061,345.905C896.588,345.845 896.204,345.816 895.908,345.816C895.139,345.816 894.726,345.786 894.666,345.727L894.179,345.727C893.972,345.727 893.661,345.668 893.247,345.55C893.07,345.372 892.907,345.239 892.76,345.151C892.612,345.062 892.242,344.958 891.651,344.84C891.237,343.953 890.941,343.185 890.764,342.534C890.586,341.884 890.646,341.263 890.941,340.672C891.06,340.494 891.193,340.346 891.34,340.228C891.488,340.11 891.651,339.992 891.828,339.873C891.946,339.755 892.05,339.637 892.139,339.519C892.227,339.4 892.42,339.193 892.715,338.898C893.306,338.779 893.75,338.676 894.046,338.587C894.341,338.499 894.726,338.306 895.199,338.011C895.613,338.129 895.879,338.188 895.997,338.188C896.115,338.188 896.233,338.159 896.352,338.099C896.825,337.981 897.298,337.952 897.771,338.011C897.948,337.892 898.126,337.833 898.303,337.833C898.48,337.833 898.628,337.804 898.746,337.745C899.16,337.626 899.397,337.493 899.456,337.346C899.515,337.198 899.545,337.065 899.545,336.946C899.604,336.71 899.648,336.533 899.678,336.414C899.707,336.296 899.722,336.178 899.722,336.059L899.722,335.882C899.663,335.586 899.619,335.261 899.589,334.906C899.559,334.552 899.545,334.226 899.545,333.931L899.545,331.713C899.545,331.418 899.559,331.122 899.589,330.826C899.619,330.531 899.633,330.324 899.633,330.206C899.515,329.792 899.545,329.348 899.722,328.875C899.545,328.343 899.574,327.781 899.811,327.19C899.811,326.894 899.796,326.628 899.766,326.392C899.737,326.155 899.722,325.919 899.722,325.682C899.722,325.091 899.811,324.529 899.988,323.997L899.988,322.312C899.988,321.721 900.003,321.351 900.032,321.203C900.062,321.055 900.047,320.922 899.988,320.804C899.988,320.094 900.047,319.503 900.166,319.03C900.166,318.971 900.151,318.912 900.121,318.853C900.092,318.794 900.077,318.705 900.077,318.587L900.077,318.232C900.136,318.054 900.166,317.877 900.166,317.7C900.166,317.286 900.195,317.049 900.254,316.99C900.254,316.635 900.343,316.281 900.52,315.926C900.402,315.394 900.402,314.95 900.52,314.595C900.52,314.477 900.535,314.329 900.565,314.152C900.594,313.975 900.579,313.797 900.52,313.62C900.461,313.383 900.402,313.147 900.343,312.91C900.284,312.674 900.313,312.408 900.432,312.112C900.372,311.461 900.343,310.944 900.343,310.56C900.343,310.175 900.402,309.835 900.52,309.54C900.579,309.126 900.609,308.875 900.609,308.786C900.609,308.697 900.639,308.623 900.698,308.564C900.757,308.268 900.786,308.017 900.786,307.81L900.786,307.145C900.786,306.908 900.757,306.672 900.698,306.435C900.757,306.199 900.816,305.962 900.875,305.726C900.934,305.549 900.993,305.356 901.052,305.149C901.112,304.942 901.141,304.78 901.141,304.662C901.141,304.129 901.171,303.775 901.23,303.597C901.171,303.124 901.156,302.799 901.186,302.622C901.215,302.444 901.23,302.296 901.23,302.178C901.23,301.882 901.2,301.616 901.141,301.38C901.082,301.143 901.052,300.848 901.052,300.493C901.171,300.02 901.23,299.68 901.23,299.473L901.23,298.985C901.112,298.689 901.052,298.453 901.052,298.276L901.052,297.832C901.052,297.655 901.067,297.463 901.097,297.256C901.126,297.049 901.141,296.856 901.141,296.679C901.082,296.502 901.038,296.339 901.008,296.191C900.979,296.043 900.964,295.881 900.964,295.703L901.052,294.639C900.934,294.048 900.875,293.634 900.875,293.397L900.875,292.865C900.579,292.983 900.254,293.087 899.899,293.176C899.545,293.264 899.19,293.25 898.835,293.131C898.539,293.19 898.273,293.235 898.037,293.264C897.8,293.294 897.564,293.279 897.327,293.22C896.677,293.456 896.1,293.604 895.598,293.663C895.095,293.723 894.637,293.604 894.223,293.309C893.809,293.19 893.513,293.116 893.336,293.087C893.159,293.057 892.922,293.043 892.626,293.043C891.858,292.274 891.414,291.742 891.296,291.446C890.941,290.973 890.734,290.677 890.675,290.559C890.498,290.382 890.35,290.086 890.232,289.672C890.054,289.258 890.04,288.874 890.187,288.519C890.335,288.164 890.468,287.898 890.586,287.721C890.705,287.544 890.838,287.366 890.986,287.189C891.133,287.011 891.326,286.775 891.562,286.479C892.508,286.184 893.188,286.065 893.602,286.124C894.075,286.065 894.445,286.036 894.711,286.036L895.287,286.036C895.583,285.977 895.79,285.932 895.908,285.903C896.026,285.873 896.145,285.858 896.263,285.858C896.44,285.799 896.795,285.77 897.327,285.77C897.564,285.77 897.845,285.784 898.17,285.814C898.495,285.844 898.806,285.858 899.101,285.858C899.929,285.622 900.476,285.489 900.742,285.459C901.008,285.43 901.2,285.415 901.319,285.415C902.087,285.297 902.885,285.223 903.713,285.193C904.541,285.164 905.192,285.267 905.665,285.504C905.901,285.622 906.123,285.696 906.33,285.725C906.537,285.755 906.877,285.77 907.35,285.77C907.823,286.243 908.207,286.597 908.503,286.834C908.798,287.07 909.242,287.396 909.833,287.81C909.774,288.223 909.759,288.49 909.789,288.608C909.818,288.726 909.863,288.844 909.922,288.963C910.04,289.14 910.144,289.332 910.232,289.539C910.321,289.746 910.395,289.997 910.454,290.293C910.986,290.884 911.282,291.505 911.341,292.156L911.962,293.397C912.258,294.048 912.45,294.476 912.538,294.683C912.627,294.89 912.671,295.023 912.671,295.083L913.381,296.324C913.618,296.797 913.736,297.152 913.736,297.389C913.913,297.862 914.091,298.216 914.268,298.453C914.445,298.689 914.593,298.896 914.711,299.074C914.83,299.251 915.007,299.458 915.244,299.695C915.184,300.168 915.199,300.493 915.288,300.67C915.377,300.848 915.569,301.084 915.864,301.38C915.864,301.971 915.924,302.444 916.042,302.799C916.16,303.154 916.426,303.656 916.84,304.307C916.722,304.602 916.707,304.928 916.796,305.282C916.884,305.637 916.958,305.874 917.017,305.992C917.254,306.524 917.402,306.997 917.461,307.411C917.52,307.588 917.609,307.736 917.727,307.855C917.845,307.973 917.934,308.121 917.993,308.298C918.289,308.416 918.466,308.564 918.525,308.742C918.584,308.86 918.614,308.948 918.614,309.008L919.146,310.161C919.264,310.279 919.368,310.368 919.457,310.427C919.545,310.486 919.619,310.575 919.678,310.693C919.737,310.811 919.737,310.9 919.678,310.959L919.856,311.314C919.974,311.55 920.033,311.757 920.033,311.935C920.27,312.289 920.432,312.555 920.521,312.733C920.61,312.91 920.713,313.117 920.831,313.354C921.009,313.827 921.112,314.108 921.142,314.196C921.171,314.285 921.186,314.359 921.186,314.418C921.364,315.068 921.452,315.601 921.452,316.014C921.57,316.369 921.718,316.68 921.896,316.946C922.073,317.212 922.221,317.463 922.339,317.7C922.517,317.936 922.664,318.143 922.783,318.321L922.96,319.385C923.078,320.035 923.197,320.42 923.315,320.538C923.788,322.075 924.172,323.406 924.468,324.529C924.645,324.825 924.778,325.047 924.867,325.194C924.956,325.342 925.03,325.475 925.089,325.593C925.68,326.126 926.02,326.554 926.109,326.88C926.197,327.205 926.242,327.427 926.242,327.545C926.242,327.781 926.419,328.136 926.774,328.609C926.951,328.846 927.099,329.082 927.217,329.319C927.277,329.496 927.365,329.673 927.483,329.851C927.72,330.206 927.838,330.442 927.838,330.56C927.957,330.442 928.09,330.294 928.237,330.117C928.385,329.94 928.548,329.792 928.725,329.673C929.021,329.2 929.213,328.875 929.302,328.698C929.39,328.52 929.494,328.343 929.612,328.166C929.908,327.633 930.085,327.308 930.144,327.19C930.203,327.072 930.263,326.953 930.322,326.835C930.44,326.717 930.543,326.584 930.632,326.436C930.721,326.288 930.824,326.155 930.943,326.037C931.12,325.209 931.475,324.529 932.007,323.997L932.362,323.11C932.48,322.874 932.628,322.607 932.805,322.312C932.864,322.194 932.953,322.046 933.071,321.868C933.308,321.514 933.485,321.277 933.603,321.159C933.781,320.39 934.136,319.74 934.668,319.207C934.727,319.03 934.801,318.823 934.889,318.587C934.978,318.35 935.17,318.173 935.466,318.054C935.762,317.641 935.924,317.389 935.954,317.301C935.983,317.212 935.998,317.138 935.998,317.079C936.294,316.606 936.486,316.34 936.575,316.281C936.663,316.221 936.708,316.162 936.708,316.103C937.003,315.63 937.196,315.334 937.284,315.216C937.373,315.098 937.447,315.039 937.506,315.039C937.742,314.27 938.038,313.738 938.393,313.442L939.723,311.491C939.901,310.781 940.196,310.279 940.61,309.983C940.788,309.688 940.921,309.436 941.009,309.229C941.098,309.022 941.202,308.86 941.32,308.742C941.556,308.15 941.704,307.81 941.763,307.722C941.822,307.633 941.852,307.559 941.852,307.5C941.97,307.204 942.074,306.997 942.162,306.879C942.251,306.761 942.355,306.642 942.473,306.524C942.769,306.169 943.02,305.741 943.227,305.238C943.434,304.735 943.655,304.159 943.892,303.509C944.365,303.095 944.661,302.799 944.779,302.622C944.897,302.444 944.986,302.296 945.045,302.178L946.553,299.34C947.026,298.867 947.307,298.542 947.395,298.364C947.484,298.187 947.528,297.95 947.528,297.655L948.681,296.147C948.977,295.851 949.169,295.629 949.258,295.482C949.347,295.334 949.45,295.201 949.568,295.083C949.746,294.669 949.849,294.403 949.879,294.284C949.908,294.166 949.923,294.018 949.923,293.841L951.165,292.599C951.401,292.244 951.594,291.919 951.741,291.623C951.889,291.328 952.022,291.091 952.141,290.914C952.614,290.204 952.909,289.746 953.028,289.539C953.146,289.332 953.264,289.17 953.382,289.051C953.855,288.105 954.181,287.366 954.358,286.834C954.476,286.538 954.565,286.243 954.624,285.947L956.043,284.528C956.339,284.528 956.605,284.498 956.841,284.439C957.433,284.321 957.847,284.262 958.083,284.262C958.734,284.38 959.133,284.424 959.28,284.395C959.428,284.365 959.65,284.291 959.946,284.173C960.774,284.055 961.335,283.996 961.631,283.996C961.927,283.996 962.222,283.966 962.518,283.907C962.695,283.907 962.917,283.892 963.183,283.863C963.449,283.833 963.671,283.848 963.848,283.907C964.144,283.907 964.395,283.877 964.602,283.818C964.809,283.759 965.09,283.73 965.445,283.73C965.918,283.848 966.346,283.892 966.731,283.863C967.115,283.833 967.485,283.818 967.84,283.818C968.253,283.818 968.623,283.804 968.948,283.774C969.273,283.744 969.525,283.73 969.702,283.73C970.116,283.73 970.426,283.715 970.633,283.685C970.84,283.656 971.062,283.7 971.299,283.818C971.594,283.937 971.816,284.055 971.964,284.173C972.112,284.291 972.245,284.41 972.363,284.528C972.954,284.824 973.383,285.09 973.649,285.326C973.915,285.563 974.137,285.829 974.314,286.124C974.373,286.243 974.432,286.405 974.492,286.612C974.551,286.819 974.639,287.011 974.758,287.189C974.876,287.425 974.965,287.662 975.024,287.898Z" style="fill:rgb(255,253,249);fill-rule:nonzero;stroke:white;stroke-width:2px;"/>
    <path id="w_1" d="M334.131,100.528C327.026,100.528 321.957,99.072 318.926,96.162C315.895,93.251 314.379,88.755 314.379,82.675L314.379,76.595L329.52,76.595L329.52,82.168C329.52,86.171 330.737,88.171 333.174,88.171C334.306,88.171 335.197,87.782 335.85,87.002C336.503,86.223 336.829,85.196 336.829,83.922C336.829,82.259 336.576,80.856 336.068,79.712C335.56,78.569 334.792,77.485 333.762,76.458C332.733,75.432 331.042,74.009 328.693,72.189L322.211,67.162C316.991,63.135 314.379,58.586 314.379,53.519C314.379,48.01 315.953,43.911 319.101,41.222C322.247,38.532 326.575,37.188 332.087,37.188L334.784,37.188C336.206,37.188 338.033,37.48 340.266,38.065C342.5,38.65 344.486,39.624 346.225,40.988C347.967,42.353 349.272,44.249 350.142,46.679C351.013,49.108 351.448,52.078 351.448,55.585L335.915,55.585L335.828,51.844C335.799,51.141 335.466,50.518 334.828,49.973C334.19,49.426 333.478,49.153 332.696,49.153C331.681,49.153 330.818,49.433 330.108,49.992C329.396,50.551 329.041,51.272 329.041,52.155C329.041,53.922 330.477,55.845 333.349,57.925L342.615,64.628C344.124,65.719 345.437,66.831 346.553,67.962C347.669,69.091 348.554,70.208 349.207,71.314C349.858,72.418 350.388,73.418 350.795,74.315C351.201,75.211 351.483,76.185 351.643,77.238C351.802,78.289 351.896,79.084 351.926,79.616C351.955,80.149 351.97,80.844 351.97,81.701C351.97,83.883 351.81,85.865 351.491,87.645C351.171,89.424 350.605,91.14 349.794,92.79C348.982,94.44 347.916,95.817 346.596,96.921C345.277,98.026 343.565,98.903 341.462,99.552C339.36,100.202 336.917,100.528 334.131,100.528ZM312.766,37.734L312.766,49.777L297.713,49.777L297.713,61.899L312.158,61.899L312.158,73.553L297.713,73.553L297.713,87.704L313.768,87.704L313.768,99.826L282.137,99.826L282.137,39.508L270.475,79.402L270.475,99.826L256.03,99.826L256.03,79.402L243.805,37.734L258.988,37.734L263.253,58.782L267.516,37.734L312.766,37.734ZM353.365,99.787L353.365,88.171L368.94,88.171L368.94,99.787L353.365,99.787ZM371.902,99.787L371.902,88.171L387.478,88.171L387.478,99.787L371.902,99.787ZM353.365,37.734L368.94,37.734L365.894,82.715L356.41,82.715L353.365,37.734ZM371.902,37.734L387.478,37.734L384.432,82.715L374.948,82.715L371.902,37.734Z" style="fill:rgb(141,0,255);fill-rule:nonzero;"/>
    <path id="w_2" d="M518.537,100.528C511.431,100.528 506.362,99.072 503.332,96.162C500.3,93.251 498.784,88.755 498.784,82.675L498.784,76.595L513.924,76.595L513.924,82.168C513.924,86.171 515.143,88.171 517.58,88.171C518.711,88.171 519.603,87.782 520.255,87.002C520.907,86.223 521.234,85.196 521.234,83.922C521.234,82.259 520.981,80.856 520.472,79.712C519.965,78.569 519.197,77.485 518.168,76.458C517.137,75.432 515.448,74.009 513.098,72.189L506.615,67.162C501.395,63.135 498.784,58.586 498.784,53.519C498.784,48.01 500.358,43.911 503.505,41.222C506.652,38.532 510.982,37.188 516.492,37.188L519.19,37.188C520.61,37.188 522.438,37.48 524.67,38.065C526.905,38.65 528.89,39.624 530.632,40.988C532.372,42.353 533.676,44.249 534.548,46.679C535.417,49.108 535.852,52.078 535.852,55.585L520.319,55.585L520.234,51.844C520.204,51.141 519.871,50.518 519.233,49.973C518.594,49.426 517.883,49.153 517.101,49.153C516.086,49.153 515.223,49.433 514.513,49.992C513.801,50.551 513.446,51.272 513.446,52.155C513.446,53.922 514.882,55.845 517.753,57.925L527.021,64.628C528.53,65.719 529.841,66.831 530.957,67.962C532.074,69.091 532.959,70.208 533.612,71.314C534.263,72.418 534.794,73.418 535.2,74.315C535.605,75.211 535.888,76.185 536.048,77.238C536.207,78.289 536.302,79.084 536.33,79.616C536.36,80.149 536.374,80.844 536.374,81.701C536.374,83.883 536.215,85.865 535.895,87.645C535.577,89.424 535.011,91.14 534.198,92.79C533.387,94.44 532.321,95.817 531.002,96.921C529.681,98.026 527.97,98.903 525.867,99.552C523.764,100.202 521.322,100.528 518.537,100.528ZM405.366,37.734L438.865,37.734L438.865,49.699L429.773,49.699L429.773,99.826L414.459,99.826L414.459,49.699L405.366,49.699L405.366,37.734ZM481.682,99.826L481.682,37.734L496.476,37.734L496.476,99.826L481.682,99.826ZM455.228,71.644L455.228,99.826L440.002,99.826L440.002,37.734L455.228,37.734L455.228,59.913L462.449,59.913L462.449,37.734L477.678,37.734L477.678,99.826L462.449,99.826L462.449,71.644L455.228,71.644Z" style="fill:rgb(141,0,255);fill-rule:nonzero;"/>
    <path id="w_3" d="M592.465,100.528C585.358,100.528 580.29,99.072 577.259,96.162C574.228,93.251 572.713,88.755 572.713,82.675L572.713,76.595L587.854,76.595L587.854,82.168C587.854,86.171 589.072,88.171 591.506,88.171C592.638,88.171 593.531,87.782 594.182,87.002C594.835,86.223 595.162,85.196 595.162,83.922C595.162,82.259 594.909,80.856 594.4,79.712C593.894,78.569 593.125,77.485 592.096,76.458C591.065,75.432 589.376,74.009 587.026,72.189L580.544,67.162C575.323,63.135 572.713,58.586 572.713,53.519C572.713,48.01 574.286,43.911 577.433,41.222C580.58,38.532 584.91,37.188 590.42,37.188L593.118,37.188C594.539,37.188 596.366,37.48 598.598,38.065C600.833,38.65 602.819,39.624 604.56,40.988C606.3,42.353 607.604,44.249 608.476,46.679C609.345,49.108 609.78,52.078 609.78,55.585L594.248,55.585L594.162,51.844C594.134,51.141 593.8,50.518 593.16,49.973C592.522,49.426 591.812,49.153 591.03,49.153C590.014,49.153 589.151,49.433 588.44,49.992C587.73,50.551 587.373,51.272 587.373,52.155C587.373,53.922 588.81,55.845 591.681,57.925L600.949,64.628C602.456,65.719 603.769,66.831 604.885,67.962C606.002,69.091 606.887,70.208 607.539,71.314C608.192,72.418 608.723,73.418 609.129,74.315C609.533,75.211 609.817,76.185 609.976,77.238C610.135,78.289 610.229,79.084 610.258,79.616C610.288,80.149 610.302,80.844 610.302,81.701C610.302,83.883 610.143,85.865 609.823,87.645C609.505,89.424 608.939,91.14 608.126,92.79C607.314,94.44 606.248,95.817 604.929,96.921C603.61,98.026 601.898,98.903 599.795,99.552C597.692,100.202 595.25,100.528 592.465,100.528ZM555.61,99.826L555.61,37.734L570.404,37.734L570.404,99.826L555.61,99.826Z" style="fill:rgb(141,0,255);fill-rule:nonzero;"/>
    <path id="w_4" d="M647.594,100.528C640.488,100.528 635.42,99.072 632.389,96.162C629.357,93.251 627.843,88.755 627.843,82.675L627.843,76.595L642.983,76.595L642.983,82.168C642.983,86.171 644.202,88.171 646.638,88.171C647.768,88.171 648.66,87.782 649.312,87.002C649.966,86.223 650.291,85.196 650.291,83.922C650.291,82.259 650.038,80.856 649.53,79.712C649.024,78.569 648.255,77.485 647.225,76.458C646.195,75.432 644.505,74.009 642.156,72.189L635.674,67.162C630.453,63.135 627.843,58.586 627.843,53.519C627.843,48.01 629.416,43.911 632.563,41.222C635.709,38.532 640.039,37.188 645.549,37.188L648.247,37.188C649.669,37.188 651.495,37.48 653.73,38.065C655.962,38.65 657.949,39.624 659.69,40.988C661.429,42.353 662.734,44.249 663.605,46.679C664.475,49.108 664.91,52.078 664.91,55.585L649.378,55.585L649.291,51.844C649.263,51.141 648.929,50.518 648.29,49.973C647.653,49.426 646.942,49.153 646.159,49.153C645.143,49.153 644.28,49.433 643.57,49.992C642.86,50.551 642.505,51.272 642.505,52.155C642.505,53.922 643.939,55.845 646.811,57.925L656.079,64.628C657.587,65.719 658.899,66.831 660.015,67.962C661.132,69.091 662.016,70.208 662.669,71.314C663.323,72.418 663.852,73.418 664.258,74.315C664.663,75.211 664.946,76.185 665.105,77.238C665.266,78.289 665.36,79.084 665.389,79.616C665.417,80.149 665.432,80.844 665.432,81.701C665.432,83.883 665.273,85.865 664.953,87.645C664.635,89.424 664.069,91.14 663.256,92.79C662.444,94.44 661.379,95.817 660.059,96.921C658.74,98.026 657.027,98.903 654.924,99.552C652.822,100.202 650.379,100.528 647.594,100.528ZM828.423,73.086L828.423,84.819C828.423,90.223 826.712,94.193 823.289,96.727C819.866,99.261 815.086,100.528 808.937,100.528C803.484,100.528 799.035,99.13 795.624,96.337C792.201,93.543 790.489,89.574 790.489,84.43L790.489,55.624C790.489,49.466 791.993,44.86 795.025,41.808C798.057,38.754 802.812,37.227 809.279,37.227C811.92,37.227 814.352,37.52 816.59,38.103C818.827,38.688 820.795,39.553 822.531,40.695C824.255,41.839 825.612,43.341 826.59,45.197C827.58,47.056 828.069,49.194 828.069,51.609L828.069,62.563L812.934,62.563L812.934,55.352C812.934,51.635 811.712,49.777 809.279,49.777C807.824,49.777 806.871,50.188 806.406,51.006C805.942,51.825 805.709,52.962 805.709,54.416L805.709,83.767C805.709,85.04 806.039,86.145 806.687,87.08C807.347,88.015 808.203,88.482 809.279,88.482C810.269,88.482 811.125,88.138 811.846,87.449C812.568,86.761 812.934,85.532 812.934,83.767L812.934,73.086L828.423,73.086ZM708.814,83.376L708.814,37.734L723.695,37.734L723.695,82.441C723.695,83.117 723.702,83.649 723.715,84.04C723.731,84.43 723.803,84.962 723.933,85.638C724.065,86.314 724.253,86.845 724.499,87.235C724.746,87.625 725.116,87.97 725.609,88.268C726.102,88.568 726.711,88.717 727.435,88.717C728.046,88.717 728.575,88.627 729.024,88.444C729.473,88.261 729.828,87.984 730.09,87.606C730.35,87.229 730.56,86.866 730.72,86.515C730.88,86.163 730.989,85.696 731.047,85.111C731.105,84.526 731.141,84.079 731.157,83.767C731.17,83.454 731.178,83.013 731.178,82.441L731.178,37.734L746.058,37.734L746.058,83.376C746.058,88.99 744.555,93.251 741.554,96.162C738.552,99.072 733.876,100.514 727.524,100.487C721.055,100.514 716.321,99.072 713.318,96.162C710.316,93.251 708.814,88.99 708.814,83.376ZM872.763,99.826L872.763,37.734L903.387,37.734L903.387,49.777L888.338,49.777L888.338,61.899L902.775,61.899L902.775,73.553L888.338,73.553L888.338,87.704L904.389,87.704L904.389,99.826L872.763,99.826ZM906.7,99.826L906.7,37.734L937.335,37.734L937.335,49.777L922.274,49.777L922.274,61.899L936.724,61.899L936.724,73.553L922.274,73.553L922.274,87.704L938.325,87.704L938.325,99.826L906.7,99.826ZM787.433,37.734L787.433,99.826L772.47,99.826L764.817,68.76L764.817,99.826L749.845,99.826L749.845,37.734L765.599,37.734L772.641,67.435L772.641,37.734L787.433,37.734ZM682.577,71.644L682.577,99.826L667.351,99.826L667.351,37.734L682.577,37.734L682.577,59.913L689.799,59.913L689.799,37.734L705.026,37.734L705.026,99.826L689.799,99.826L689.799,71.644L682.577,71.644ZM846.308,71.644L846.308,99.826L831.076,99.826L831.076,37.734L846.308,37.734L846.308,59.913L853.533,59.913L853.533,37.734L868.753,37.734L868.753,99.826L853.533,99.826L853.533,71.644L846.308,71.644ZM940.123,99.787L940.123,88.171L955.697,88.171L955.697,99.787L940.123,99.787ZM958.656,99.787L958.656,88.171L974.23,88.171L974.23,99.787L958.656,99.787ZM940.123,37.734L955.697,37.734L952.653,82.715L943.167,82.715L940.123,37.734ZM958.656,37.734L974.23,37.734L971.186,82.715L961.7,82.715L958.656,37.734Z" style="fill:rgb(141,0,255);fill-rule:nonzero;"/>
</svg>
