<svg width="100%" height="100%" viewBox="0 0 1000 367" version="1.1" xmlns="http://www.w3.org/2000/svg" xmlns:xlink="http://www.w3.org/1999/xlink" xml:space="preserve" xmlns:serif="http://www.serif.com/" style="fill-rule:evenodd;clip-rule:evenodd;stroke-linejoin:round;stroke-miterlimit:2;">
		<style>
#L_1{
	transform-origin:calc(100% * 160/1000) calc(100% * 220/300);
	animation: rotate 1s;
   animation-iteration-count: infinite;
	animation-name: rotate;
	animation-timing-function: ease-in-out;
	animation-iteration-count: infinite;
	animation-direction: alternate;
}
#hair{
	transform-origin:calc(100% * 195/1000) calc(100% * 275/367);
	animation: rotate 2s;
   animation-iteration-count: infinite;
	animation-name: rotate_hair;
	animation-timing-function: ease-in-out;
	animation-iteration-count: infinite;
	animation-direction: alternate;
	animation-duration: 3s;
}

#L_0{
	animation-name: return;
  animation-timing-function: ease-in-out;
  animation-iteration-count: infinite;
  animation-direction: alternate;
  animation-duration: 0.8s;
}
#L_2{
	animation-delay:500ms;
	animation-name: return;
  animation-timing-function: ease-in-out;
  animation-iteration-count: infinite;
  animation-direction: alternate;
  animation-duration: 1.5s;
}

#L_3{
	animation-name: return;
  animation-timing-function: ease-in-out;
  animation-iteration-count: infinite;
  animation-direction: alternate;
  animation-duration: 1s;
}

#L_4{
	animation-name: return;
  animation-timing-function: ease-in-out;
  animation-iteration-count: infinite;
  animation-direction: alternate;
  animation-duration: 1.4s;
}

#L_5{
	animation-name: return;
  animation-timing-function: ease-in-out;
  animation-iteration-count: infinite;
  animation-direction: alternate;
  animation-duration: 1.2s;
}

#w_1{
	animation-name: return;
  animation-timing-function: ease-in-out;
  animation-iteration-count: infinite;
  animation-direction: alternate;
  animation-duration: 2s;
}

#w_2{
	animation-name: return;
  animation-timing-function: ease-in-out;
  animation-iteration-count: infinite;
  animation-direction: alternate;
  animation-duration: 1.6s;
}
#w_3{
	animation-name: return;
  animation-timing-function: ease-in-out;
  animation-iteration-count: infinite;
  animation-direction: alternate;
  animation-duration: 0.8s;
}
#w_4{
	animation-delay:500ms;
	animation-name: return;
  animation-timing-function: ease-in-out;
  animation-iteration-count: infinite;
  animation-direction: alternate;
  animation-duration: 1.5s;
}

@keyframes return {
0% {
        transform: translate(0,0px);
    }
    100% {
        transform: translate(0,5px);
    }
}
@keyframes rotate {
	0% { transform: rotate(0deg); }
	10% { transform: rotate(-6deg); }
	20% { transform: rotate(0deg); }
	30% { transform: rotate(-6deg); }
	50%{ transform: rotate(0deg);}
	100% { transform: rotate(0deg); } 
}
@keyframes rotate_hair{
    0% { transform: rotate(5deg); }
    100% { transform: rotate(-10deg); } 
}
</style>
    <ellipse id="L_1_origin" cx="194.751" cy="275.3" rx="0.306" ry="0.303" style="fill:none;"/>
    <path id="L_5" d="M256.831,195.309C256.167,202.725 251.917,224.626 251.917,224.626C251.917,224.626 206.056,237.696 204.079,245.218C202.081,252.816 198.948,262.945 198.318,269.097C197.679,275.339 196.391,287.426 204.645,282.096C221.26,271.365 261.43,250.96 285.674,244.21C304.518,238.966 327.672,229.549 353.374,224.727C372.834,221.077 396.352,232.061 438.258,226.05C457.417,223.302 473.373,203.324 488.879,203.897C506.235,204.54 525.607,218.799 548.07,218.395C564.94,218.092 593.061,204.217 605.554,204.057C617.278,203.908 646.607,211.414 660.219,210.713C689.395,209.211 701.443,204.785 710.088,205.261C723.257,205.986 736.104,217.147 757.942,217.026C779.062,216.91 787.608,210.749 804.705,210.713C835.612,210.649 851.277,227.291 871.302,229.76C910.865,234.64 972.031,215.19 980.259,219.194C982.466,220.269 989.486,222.872 992.505,222.844C995.95,222.813 1000.7,197.897 999.913,195.545C997.359,187.986 988.557,188.789 980.554,189.423C967.116,190.486 890.901,205.025 870.892,198.396C855.294,193.231 824.481,187.212 803.253,189.423C783.092,191.524 773.397,189.176 758.002,189.423C741.321,189.69 729.462,177.263 711.152,177.637C696.262,177.939 675.457,187.895 660.024,189.423C638.271,191.575 629.098,181.044 604.088,181.533C587.66,181.854 563.941,191.753 547.694,191.469C529.939,191.159 507.994,180.232 487.904,181.046C464.946,181.978 448.954,199.813 434.889,202.65C391.917,211.321 374.828,197.711 352.425,200.627C327.935,203.814 293.88,218.441 279.644,218.599C281.571,207.671 284.098,196.4 285.058,179.111C285.291,174.886 285.524,168.199 281.633,167.534C276.553,166.665 218.603,163.717 212.817,158.485C202.461,149.117 205.216,185.808 212.963,192.632C218.162,197.211 246.739,195.224 256.831,195.309Z" style="fill:rgb(255,213,0);"/>
    <path id="L_4" d="M666.456,254.086C620.592,256.85 564.302,263.337 525.683,273.696C494.525,282.053 485.89,290.397 476.996,297.399C474.09,299.688 470.971,303.235 469.34,306.251C468.362,308.059 475.693,329.88 476.779,329.963C479.585,330.178 484.076,327.173 489.514,323.169C510.898,307.423 524.37,302.425 535.502,298.448C604.17,273.92 698.804,271.139 744.559,264.792C748.793,264.204 731.21,245.548 695.389,250.365C693.712,250.592 691.896,250.831 689.949,251.084C691.449,249.414 692.575,247.681 693.17,246.215C693.852,244.531 693.933,234.728 693.621,233.549C693.126,231.676 677.049,229.898 665.103,228.543C659.296,227.885 621.79,227.682 618.81,227.758C615.843,227.834 574.782,229.645 570.549,230.084C568.005,230.348 554.942,232.485 543.555,234.128C524.853,236.827 515.984,229.955 512.553,237.322C511.321,239.968 515.049,258.16 517.182,260.129C520.219,262.938 524.565,266.377 528.608,264.806C535.686,262.056 589.491,254.4 606.296,253.617C636.416,252.214 653.17,251.647 666.456,254.086Z" style="fill:rgb(255,13,0);"/>
    <path id="L_3" d="M851.425,154.705C849.359,150.443 824.017,160.695 823.137,163.645C818.393,179.54 826.858,243.744 836.259,252.671C840.415,256.621 863.997,239.895 863.801,236.434C863.447,230.446 855.765,163.628 851.425,154.705ZM930.997,163.596C930.178,169.083 920.329,228.953 921.809,236.823C923.471,245.693 942.848,251.18 944.364,250.092C948.569,247.104 963.137,174.994 961.963,169.16C960.667,162.717 931.193,162.259 930.997,163.596ZM878.638,159.193C878.369,159.524 880.097,236.215 883.471,242.205C886.149,246.955 901.307,248.609 903.251,245.562C906.259,240.889 914.433,172.959 911.878,161.628C910.618,156.091 882.098,154.941 878.638,159.193Z" style="fill:rgb(3,255,0);"/>
    <path id="L_2" d="M394.963,155.13C403.981,138.325 424.336,128.734 425.166,128.357C425.531,128.621 436.733,136.827 440.144,140.523C454.36,155.924 464.094,176.295 462.443,204.781C461.431,222.271 455.02,236.501 439.29,256.641C435.07,262.044 427.415,269.657 418.643,275.464C413.166,279.089 407.293,282.034 401.537,283.045C399.352,283.429 395.641,283.222 391.584,282.773C385.044,282.05 377.69,280.577 374.026,278.93C368.244,276.328 365.809,273.544 363.392,272.141C360.757,270.611 348.555,272.303 346.913,273.26C345.168,274.278 342.869,287.036 334.078,299.282C331.121,303.402 326.904,306.953 319.762,307.788C316.387,308.182 313.231,306.699 310.552,304.325C305.716,300.036 302.905,293.935 304.967,285.604C305.663,282.784 307.677,277.759 310.097,274.635C312.172,271.961 282.426,261.205 278.768,265.671C273.438,272.179 267.693,283.097 272.454,302.348C274.892,312.209 290.09,336.583 323.196,334.083C334.305,333.244 347.992,326.464 353.21,320.502C360.265,312.44 362.401,306.923 363.407,303.495C365.44,305.034 368.781,307.051 374.779,309.308C383.965,312.764 396.342,317.284 409.388,315.677C430.462,313.08 443.953,308.03 456.304,298.289C477.179,281.826 497.497,254.262 502.992,217.627C506.595,193.608 504.264,159.145 486.986,137.298C469.37,115.023 452.853,103.8 437.897,101.41C422.69,98.98 407.633,101.954 399.248,105.637C391.978,108.83 381.326,114.959 371.103,125.282C362.852,133.616 356.272,147.095 356.954,155.745C357.102,157.638 383.691,167.876 388.275,165.978C392.319,164.302 392.525,159.673 394.963,155.13ZM363.338,189.038C361.71,186.984 341.171,183.135 338.179,185.535C331.682,190.745 325.174,206.561 322.201,214.439C317.621,226.573 316.189,252.67 321.568,260.374C322.617,261.877 347.515,263.421 349.358,259.775C351.924,254.696 352.718,239.212 356.264,220.018C358.166,209.721 364.238,190.174 363.338,189.038Z" style="fill:rgb(0,204,255);"/>
    <path id="L_1" d="M174.974,280.233C176.26,253.282 174.482,226.594 173.61,212.365C173.471,210.117 171.128,206.848 168.044,206.863C160.421,206.901 95.187,214.617 91.058,218.573C89.782,219.795 94.662,246.611 99.41,268.282C102.65,283.069 108.662,299.095 117.512,321.207C106.559,326.681 99.474,328.524 88.956,330.215C75.36,332.399 61.666,330.031 51.724,323.793C43.353,318.541 38.298,308.7 37.32,299.756C35.63,284.282 43.853,268.09 58.993,250.582C72.925,234.469 83.868,221.481 94.424,202.797C109.243,176.566 113.435,162.748 110.888,158.602C108.887,155.343 103.909,153.055 101.073,151.734C96.089,149.414 77.424,141.923 75.929,145.09C73.734,149.737 68.687,157.152 71.525,158.461C72.877,159.084 79.216,164.1 79.315,166.387C79.467,169.897 76.343,181.232 68.147,192.611C59.079,205.2 51.124,212.919 34.809,229.513C26.788,237.673 0.837,255.075 0.069,286.755C0.281,299.787 2.996,316.706 12.487,329.335C26.112,347.464 48.295,361.167 79.919,359.319C99.185,358.193 124.16,352.546 133.907,348.693C164.976,336.404 201.354,316.022 221.028,260.388C234.531,222.199 231.462,189.913 226.205,170.567C224.465,164.161 222.24,158.168 220.144,155.514C218.509,153.447 191.958,162.254 191.732,164.567C191.346,168.5 193.001,174.203 193.266,175.948C198.403,209.561 195.268,245.083 174.974,280.233ZM139.511,308.553C140.797,307.59 148.425,303.033 148.425,303.033C148.445,293.085 143.992,236.814 144.02,230.912C144.026,229.7 118.783,232.617 119.019,235.006C120.879,253.859 130.814,289.39 139.511,308.553ZM101.614,93.533C91.248,85.793 81.465,70.939 75.001,71.572C70.485,72.013 58.379,87.753 59.266,98.341C59.75,104.111 72.661,118.27 77.699,122.595C92.663,135.44 116.478,146.491 145.958,150.014C166.267,152.441 172.211,152.052 176.449,150.365C185.033,146.952 184.918,120.985 179.585,121.178C174.622,121.357 162.457,120.819 157.145,119.875C122.583,113.733 116.826,104.888 101.614,93.533ZM127.849,7.271C119.474,6.808 100.669,24.865 100.251,31.773C99.702,40.883 101.103,50.243 109.627,64.042C122.216,84.424 135.707,93.126 150.689,100.528C172.326,111.216 204.701,111.11 213.832,108.584C227.165,104.894 226.331,76.353 220.233,75.921C212.112,75.348 168.029,63.795 158.138,51.863C146.635,37.985 137.464,21.591 134.534,14.848C132.914,11.118 130.751,7.431 127.849,7.271Z" style="fill:rgb(255,0,126);"/>
    <path d="M749.909,252.671L741.134,366.748L987.177,362.614L985.909,272.276L749.909,252.671Z" style="fill:rgb(255,127,0);"/>
    <g transform="matrix(1.08999,0,0,0.838938,-79.9497,54.4228)">
        <path d="M933.056,311.743C933.031,312.037 933.019,312.33 933.019,312.624L933.019,313.885C933.019,314.342 933.076,314.892 933.198,315.533C933.192,315.702 933.178,315.95 933.156,316.277C933.123,316.772 933.109,317.085 933.109,317.217C933.109,317.354 933.131,317.489 933.174,317.619L933.485,318.552C933.526,319.132 933.524,319.664 933.475,320.152C933.471,320.194 933.469,320.237 933.469,320.279L933.469,322.711C933.469,322.886 933.487,323.106 933.531,323.37C933.555,323.515 933.559,323.806 933.559,324.242C933.559,324.676 933.574,325.25 933.605,325.963C933.634,326.636 933.649,327.338 933.649,328.069C933.649,328.802 933.634,329.52 933.605,330.223C933.577,330.89 933.537,331.418 933.482,331.807C933.448,332.046 933.482,332.289 933.582,332.508C933.588,332.546 933.7,333.205 933.742,333.868C933.795,334.731 933.74,335.622 933.578,336.539C933.565,336.612 933.559,336.686 933.559,336.76L933.559,337.571C933.559,337.851 933.588,338.163 933.65,338.506C933.649,338.501 933.649,338.787 933.649,338.787C933.649,338.958 933.676,339.274 933.74,339.735C933.739,339.731 933.739,342.178 933.739,342.178C933.676,342.715 933.663,343.222 933.697,343.696C933.729,344.137 933.776,344.609 933.839,345.114C933.84,345.121 933.841,345.128 933.842,345.136C933.898,345.528 933.94,345.905 933.968,346.269C933.996,346.628 934.009,347.001 934.009,347.388C934.009,347.638 933.982,347.938 933.932,348.288C933.863,348.77 933.878,349.52 934.01,350.538L934.009,351.252C933.786,351.238 933.563,351.283 933.361,351.384C933.184,351.472 933.03,351.54 932.898,351.585C932.735,351.639 932.435,351.719 932.001,351.828C931.777,351.883 931.573,351.999 931.41,352.162C931.133,352.439 930.94,352.652 930.821,352.796C930.579,352.948 930.398,353.176 930.302,353.44C930.187,353.6 929.962,353.929 929.63,354.427C929.497,354.626 929.381,354.808 929.282,354.974C929.138,355.214 929.01,355.522 928.914,355.905C928.888,356.006 928.876,356.11 928.876,356.214L928.876,356.918C928.753,357.323 928.814,357.85 929.383,358.419C929.383,358.419 930.599,359.635 930.599,359.635C930.739,359.774 930.909,359.88 931.096,359.942C931.431,360.054 931.738,360.165 932.017,360.277C932.386,360.424 932.737,360.534 933.069,360.607C933.422,360.686 933.761,360.702 934.086,360.662C934.622,360.766 935.176,360.786 935.745,360.719C936.219,360.663 936.704,360.584 937.202,360.48C937.508,360.527 937.896,360.565 938.363,360.591C938.904,360.621 939.461,360.651 940.033,360.681C940.626,360.712 941.189,360.728 941.721,360.728C942.303,360.728 942.81,360.661 943.243,360.539C943.369,360.531 943.524,360.515 943.702,360.49C943.858,360.468 944.036,360.438 944.238,360.401C944.647,360.495 945.06,360.512 945.472,360.456C945.683,360.452 945.9,360.431 946.117,360.395C946.231,360.376 946.438,360.41 946.741,360.448C947.101,360.493 947.464,360.382 947.737,360.143C948.212,359.727 948.554,359.429 948.763,359.251C949,359.047 949.433,358.578 950.045,357.83C950.127,357.729 950.193,357.617 950.241,357.497C950.365,357.187 950.474,356.908 950.567,356.66C950.66,356.411 950.801,356.006 950.988,355.445C951.12,355.049 951.049,354.614 950.799,354.28C950.457,353.824 950.2,353.468 950.029,353.212C949.83,352.913 949.404,352.395 948.741,351.666C948.727,351.651 948.713,351.636 948.699,351.622C948.443,351.366 948.101,351.156 947.654,351.028C947.414,350.959 946.926,350.88 946.188,350.811C946.083,350.771 945.717,350.628 945.354,350.463C945.023,350.312 944.648,350.312 944.322,350.454C944.231,350.225 944.165,350.031 944.125,349.871C944.067,349.639 944.036,349.389 944.03,349.123C944.152,348.429 944.165,347.704 944.061,346.946C943.975,346.311 943.874,345.508 943.76,344.538C943.765,344.465 943.776,344.381 943.79,344.28C943.824,344.046 943.848,343.461 943.848,342.524L943.848,342.074C943.848,341.874 943.818,341.442 943.752,340.777C943.745,340.715 943.735,340.654 943.72,340.595C943.673,340.407 943.643,340.149 943.62,339.822C943.598,339.526 943.635,339.209 943.72,338.87C943.745,338.769 943.758,338.666 943.758,338.562C943.758,338.242 943.736,337.962 943.696,337.722C943.675,337.598 943.668,337.434 943.668,337.23C943.709,337.091 943.784,336.811 943.89,336.388C943.98,336.102 944.028,335.79 944.028,335.454C944.028,335.256 944.007,334.928 943.96,334.47C944.699,334.664 945.672,334.725 946.874,334.61C946.871,334.61 947.214,334.61 947.214,334.61C947.388,334.61 947.894,334.552 948.729,334.412C948.795,334.401 948.859,334.385 948.922,334.364C948.987,334.343 949.064,334.34 949.151,334.34C949.415,334.34 949.806,334.311 950.325,334.248C950.793,334.24 951.305,334.148 951.846,333.964C952.149,333.931 952.51,333.839 952.919,333.669C952.917,333.67 953.516,333.779 953.516,333.779C953.828,333.835 954.149,333.774 954.418,333.606C954.741,333.404 954.972,333.261 955.133,333.221C955.298,333.18 955.526,333.169 955.815,333.169C956.113,333.169 956.401,333.065 956.629,332.874C956.762,332.764 956.874,332.67 956.984,332.626C957.166,332.618 957.37,332.602 957.594,332.574C957.843,332.543 958.34,332.465 959.086,332.341C959.395,332.289 959.675,332.126 959.87,331.881C960.07,331.632 960.217,331.455 960.317,331.355C960.397,331.276 960.555,331.167 960.782,331.015C960.948,330.925 961.135,330.801 961.338,330.639C961.442,330.555 961.657,330.444 961.972,330.285C962.116,330.239 962.265,330.193 962.424,330.148C962.687,330.073 963.047,329.928 963.499,329.702C963.697,329.603 963.866,329.454 963.988,329.27C964.24,328.893 964.408,328.638 964.511,328.517C964.786,328.294 965.222,327.892 965.811,327.303C965.907,327.206 965.988,327.094 966.049,326.972C966.077,326.916 966.112,326.862 966.154,326.806C966.253,326.674 966.505,326.279 966.903,325.617C966.925,325.58 966.945,325.542 966.963,325.503C967.104,325.326 967.325,325.013 967.611,324.556C967.664,324.47 967.707,324.379 967.739,324.284C967.907,323.78 968.074,323.333 968.242,322.942C968.38,322.619 968.646,322.259 969.014,321.844C969.221,321.612 969.335,321.311 969.335,320.999L969.335,320.489L969.922,319.317C969.963,319.234 969.995,319.146 970.018,319.056C970.235,318.189 970.273,317.357 970.144,316.559C970.142,316.263 970.126,315.946 970.096,315.616C970.066,315.283 969.992,314.731 969.875,313.961C969.873,313.661 969.857,313.29 969.828,312.854C969.793,312.335 969.708,311.798 969.57,311.245C969.455,310.725 969.338,310.168 969.221,309.582C969.204,309.499 969.179,309.417 969.146,309.338L968.425,307.627C968.328,307.397 968.166,307.201 967.959,307.062C967.884,307.013 967.817,306.932 967.743,306.834C967.627,306.672 967.534,306.544 967.534,306.409C967.534,306.072 967.4,305.749 967.162,305.51C966.772,305.121 966.464,304.734 966.245,304.345C966.005,303.918 965.78,303.41 965.566,302.823C965.503,302.648 965.402,302.489 965.27,302.358L964.356,301.443C964.354,301.441 964.353,301.438 964.351,301.434C964.225,301.22 963.87,300.807 963.241,300.241C963.222,300.224 963.203,300.208 963.184,300.193C962.901,299.966 962.498,299.689 961.973,299.365C961.809,299.115 961.617,298.901 961.403,298.723C961.215,298.567 961.028,298.424 960.84,298.295C960.756,298.219 960.65,298.137 960.528,298.056C960.44,297.997 960.172,297.828 959.724,297.547C959.625,297.465 959.485,297.365 959.307,297.258C959.155,297.167 958.81,296.972 958.273,296.674C958.067,296.538 957.856,296.416 957.645,296.311C957.598,296.287 957.556,296.265 957.525,296.234L957.322,296.031C957.299,295.998 957.178,295.821 957.086,295.668C956.856,295.285 956.442,295.051 955.995,295.051C955.904,295.051 955.801,294.983 955.663,294.915C955.476,294.821 955.311,294.728 955.17,294.634C955.012,294.529 954.832,294.46 954.644,294.433C954.39,294.397 954.187,294.357 954.042,294.284C954.011,294.269 953.979,294.254 953.946,294.241C953.623,294.112 953.363,294.015 953.167,293.949C952.887,293.689 952.503,293.568 952.123,293.622C951.981,293.643 951.814,293.658 951.724,293.664L951.534,293.585C951.354,293.525 951.174,293.465 950.994,293.405C950.815,293.345 950.61,293.285 950.38,293.225C950.112,293.111 949.861,293.069 949.646,293.069C949.55,293.069 949.301,293.091 948.901,293.145C948.818,293.123 948.679,293.083 948.562,293.045C948.562,293.045 948.022,292.864 948.022,292.864L948.01,292.937C947.904,292.85 947.752,292.799 947.542,292.799L947.259,292.799C947.111,292.799 946.93,292.812 946.718,292.844C946.488,292.76 946.219,292.709 945.908,292.709C945.715,292.709 945.301,292.737 944.668,292.8C944.675,292.799 944.377,292.799 944.377,292.799C944.292,292.799 944.122,292.769 943.866,292.726C943.797,292.715 943.727,292.709 943.657,292.709C943.504,292.709 943.287,292.695 943.006,292.669C942.696,292.641 942.175,292.623 941.445,292.62L939.289,292.619C939.116,292.619 938.654,292.674 937.907,292.809C937.809,292.817 937.665,292.839 937.494,292.882C937.375,292.912 937.1,293.003 936.672,293.16C936.674,293.159 935.371,293.159 935.371,293.159C935.087,293.159 934.631,293.217 934.006,293.352C933.91,293.361 933.777,293.384 933.622,293.423C933.505,293.452 933.156,293.567 932.576,293.775C931.966,293.759 931.453,293.904 931.03,294.175C930.227,294.259 929.557,294.569 929.012,295.075C928.604,295.454 928.197,295.818 927.789,296.167C927.764,296.189 927.74,296.211 927.717,296.234C927.552,296.399 927.408,296.565 927.284,296.73C927.168,296.884 926.976,297.245 926.749,297.833C926.545,298.185 926.444,298.569 926.444,298.979L926.444,299.969C926.387,300.259 926.354,300.62 926.354,301.051C926.354,301.758 926.604,302.393 927.133,302.941C927.537,303.429 928.011,303.737 928.521,303.89C928.787,303.97 929.037,304.023 929.271,304.052C929.915,304.443 930.598,304.595 931.31,304.527C931.481,304.524 931.667,304.5 931.853,304.456C931.894,304.454 932.111,304.442 932.325,304.44C932.521,304.459 932.754,304.46 933.018,304.438C933.019,304.438 933.019,306.815 933.019,306.815C933.019,308.115 933.049,309.461 933.109,310.851C933.108,311.065 933.098,311.282 933.079,311.498L933.056,311.743ZM784.252,274.972L783.362,275.361C783.362,275.361 781.752,276.434 781.752,276.434C781.752,276.434 780.88,276.989 780.88,276.989C780.88,276.989 779.828,277.393 779.828,277.393C779.662,277.457 779.511,277.555 779.385,277.681C779.103,277.964 778.893,278.195 778.751,278.371C778.631,278.522 778.483,278.734 778.313,279.009C778.22,279.043 778.131,279.088 778.048,279.143C777.922,279.227 777.819,279.292 777.735,279.334C777.402,279.5 777.108,279.705 776.851,279.947C776.449,280.243 776.197,280.498 776.069,280.674C776.022,280.74 775.981,280.804 775.947,280.868L775.679,281.235L775.614,281.34C775.583,281.385 775.55,281.426 775.513,281.464C775.47,281.506 775.431,281.552 775.395,281.6C775.211,281.844 774.997,282.134 774.753,282.47C774.502,282.815 774.157,283.332 773.718,284.022C773.676,284.088 773.639,284.159 773.61,284.232L773.266,285.094C773.189,285.257 773.134,285.427 773.103,285.596C772.916,286.019 772.915,286.379 772.985,286.657L772.98,286.771C772.973,286.802 772.928,286.983 772.878,287.142C772.799,287.344 772.689,287.687 772.566,288.179C772.515,288.383 772.465,288.562 772.414,288.715C772.37,288.845 772.348,288.981 772.348,289.118L772.348,289.658C772.348,289.829 772.298,289.999 772.212,290.17C772.033,290.528 772.033,290.949 772.212,291.308L772.348,291.579L772.348,291.91C772.348,292.224 772.399,292.538 772.504,292.852C772.56,293.021 772.596,293.189 772.611,293.358C772.556,293.596 772.539,293.878 772.586,294.206C772.618,294.431 772.735,294.842 772.959,295.432C772.964,295.676 773.015,295.967 773.142,296.298L773.16,296.366C773.165,296.729 773.24,297.033 773.356,297.286C773.493,297.617 773.64,297.848 773.762,297.999C773.811,298.088 773.865,298.183 773.926,298.283C774.016,298.433 774.151,298.658 774.331,298.958C774.384,299.047 774.449,299.13 774.522,299.203C774.703,299.384 774.838,299.522 774.924,299.619C774.939,299.679 774.964,299.783 774.977,299.864C775.061,300.363 775.432,300.766 775.924,300.889C776.255,300.972 776.537,301.078 776.765,301.223C777.008,301.378 777.282,301.719 777.635,302.204C777.823,302.462 778.101,302.641 778.414,302.703C778.544,302.729 778.705,302.774 778.745,302.785C778.847,302.838 779.054,302.964 779.368,303.16C779.661,303.462 780.075,303.755 780.628,304.014C780.733,304.132 780.851,304.233 780.975,304.316C781.011,304.339 781.049,304.379 781.097,304.427C781.097,304.427 781.457,304.787 781.457,304.787C781.675,305.005 781.937,305.181 782.248,305.307C782.44,305.419 782.695,305.538 783.009,305.653C783.375,305.922 783.733,306.108 784.07,306.22C784.214,306.268 784.363,306.321 784.516,306.378C784.587,306.443 784.667,306.506 784.758,306.567C784.859,306.634 785.168,306.804 785.69,307.066C785.905,307.205 786.146,307.333 786.403,307.443C786.568,307.514 786.743,307.595 786.928,307.686C787.464,308.048 788.034,308.25 788.634,308.3C788.917,308.416 789.205,308.491 789.493,308.527C789.628,308.544 789.777,308.589 789.943,308.653C790.123,308.736 790.371,308.824 790.694,308.904C790.83,308.938 790.992,309.042 791.197,309.179C791.406,309.318 791.652,309.393 791.903,309.393L792.66,309.393C792.685,309.407 792.709,309.421 792.734,309.436C792.912,309.543 793.247,309.707 793.743,309.92C794.053,310.053 794.404,310.057 794.717,309.932L794.735,309.925C794.859,309.993 795.032,310.09 795.191,310.19L795.071,310.095C795.266,310.229 795.682,310.444 796.368,310.615C796.63,310.681 796.869,310.719 797.084,310.735C797.232,310.781 797.402,310.828 797.588,310.876C797.89,310.971 798.174,311.014 798.432,311.014L798.489,311.014C798.879,311.16 799.383,311.277 800.005,311.345C800.354,311.507 800.793,311.634 801.323,311.706C801.655,311.827 802.019,311.922 802.411,311.987C802.563,312.012 802.718,312.01 802.87,311.98C803.077,311.938 803.264,311.914 803.431,311.914C803.703,311.914 803.956,312.018 804.199,312.2C804.419,312.365 804.687,312.455 804.962,312.455C805.072,312.455 805.183,312.464 805.293,312.482C805.462,312.511 805.614,312.528 805.747,312.537C805.991,312.603 806.242,312.635 806.493,312.635L807.033,312.635C807.079,312.635 807.131,312.644 807.189,312.655C807.364,312.69 807.523,312.701 807.669,312.695C807.74,312.719 807.817,312.742 807.9,312.766C808.082,312.818 808.396,312.918 808.841,313.066C809.118,313.217 809.472,313.345 809.913,313.425C810.172,313.472 810.548,313.589 811.043,313.766C811.179,313.86 811.329,313.968 811.494,314.092C811.686,314.236 811.96,314.559 812.344,315.039C812.411,315.123 812.489,315.198 812.574,315.262C812.686,315.346 812.774,315.403 812.815,315.458C812.881,315.545 812.97,315.724 813.1,315.984C813.242,316.268 813.485,316.489 813.782,316.603C813.997,316.686 814.181,316.917 814.404,317.224C814.766,317.72 815.129,318.4 815.505,319.258C815.594,319.462 815.735,319.638 815.913,319.77C815.937,319.803 816.061,319.979 816.135,320.116C816.261,320.35 816.248,320.706 816.212,321.172L816.209,321.493L816.066,322.042C815.992,322.339 815.974,322.72 816.052,323.183C815.987,323.319 815.923,323.463 815.859,323.615C815.86,323.613 815.635,323.838 815.635,323.838C815.477,323.996 815.327,324.183 815.189,324.403C814.825,324.649 814.528,324.965 814.299,325.349C814.223,325.415 814.148,325.475 814.073,325.525C813.947,325.609 813.843,325.674 813.759,325.716C813.561,325.815 813.393,325.964 813.27,326.148C813.193,326.264 813.094,326.379 812.978,326.495C812.925,326.548 812.846,326.596 812.751,326.65C812.526,326.779 812.336,326.91 812.18,327.041C812.018,327.099 811.65,327.227 811.252,327.349C811.243,327.352 811.233,327.355 811.224,327.358C810.88,327.473 810.507,327.587 810.106,327.702C809.957,327.745 809.817,327.814 809.692,327.907C809.534,328.026 809.377,328.128 809.219,328.211C808.767,328.384 808.281,328.464 807.754,328.464C807.465,328.464 807.185,328.562 806.959,328.742C806.882,328.804 806.79,328.87 806.727,328.914L806.448,328.914C806.242,328.914 805.933,328.947 805.523,329.029C805.412,329.051 805.305,329.088 805.203,329.138C805.083,329.198 804.963,329.258 804.843,329.318C804.748,329.366 804.604,329.445 804.41,329.558C804.112,329.581 803.862,329.632 803.659,329.7C803.458,329.767 803.284,329.835 803.138,329.903L802.2,330.216C802.087,330.212 801.863,330.201 801.666,330.181C801.624,330.177 801.582,330.175 801.539,330.175L800.594,330.175C800.182,330.175 799.549,330.254 798.699,330.428C798.667,330.421 798.631,330.412 798.602,330.404C798.485,330.371 798.392,330.342 798.326,330.309C798.243,330.268 798.155,330.235 798.065,330.213L798.035,330.204C797.807,330.011 797.517,329.905 797.216,329.905L796.586,329.905C796.378,329.905 796.169,329.919 795.961,329.948C795.8,329.883 795.627,329.832 795.439,329.794C795.298,329.766 794.933,329.698 794.345,329.591C794.188,329.528 793.987,329.463 793.742,329.402C793.514,329.345 793.106,329.261 792.518,329.153C792.18,328.983 791.669,328.8 790.977,328.638C790.671,328.442 790.359,328.309 790.05,328.231C789.875,328.188 789.686,328.144 789.481,328.1C789.306,327.982 789.106,327.883 788.883,327.808C788.738,327.76 788.453,327.605 788.017,327.363C787.918,327.307 787.811,327.266 787.701,327.239C787.66,327.204 787.619,327.166 787.579,327.125C787.519,327.066 787.454,327.013 787.385,326.966C787.283,326.898 787.196,326.833 787.128,326.765C786.9,326.536 786.667,326.371 786.439,326.257C786.337,326.147 786.215,326.055 786.077,325.986C785.998,325.946 785.891,325.873 785.752,325.774C785.574,325.646 785.285,325.372 784.877,324.963C784.793,324.88 784.698,324.808 784.595,324.751C784.103,324.478 783.719,324.247 783.446,324.055C783.264,323.928 783.109,323.681 782.928,323.354C782.807,323.137 782.629,322.965 782.418,322.852C782.618,322.217 782.727,321.45 782.727,320.549C782.727,320.463 782.719,320.377 782.701,320.293C782.711,320.223 782.74,320.024 782.78,319.867C782.805,319.766 782.818,319.662 782.818,319.559L782.818,319.063C782.818,318.821 782.787,318.423 782.718,317.87C782.694,317.683 782.63,317.503 782.529,317.345C782.041,316.578 781.548,315.972 781.06,315.519C780.578,315.071 779.893,314.598 778.996,314.116C778.665,313.937 778.271,313.915 777.921,314.055C777.698,314.144 777.544,314.204 777.455,314.227C777.437,314.231 777.42,314.234 777.403,314.234C777.292,314.234 777.182,314.225 777.072,314.206C776.822,314.164 776.572,314.144 776.322,314.144C775.845,314.144 775.203,314.277 774.409,314.595C773.578,314.927 772.721,315.902 772.14,317.727C772.06,317.967 772,318.208 771.96,318.449C771.929,318.638 771.881,318.986 771.818,319.491C771.778,319.808 771.86,320.126 772.042,320.383C772.062,320.57 772.074,320.764 772.077,320.968C772.023,321.247 771.969,321.547 771.915,321.871C771.908,321.914 771.903,321.957 771.901,322.001L771.81,323.442C771.809,323.468 771.808,323.495 771.808,323.521C771.808,323.871 771.826,324.203 771.861,324.517C771.869,324.595 771.843,324.674 771.809,324.76C771.789,324.809 771.773,324.86 771.759,324.911L771.222,326.971C771.102,327.396 771.052,327.782 771.059,328.128C770.904,328.462 770.815,328.789 770.78,329.1C770.756,329.317 770.74,329.526 770.733,329.727C770.601,330.063 770.547,330.369 770.547,330.636C770.547,330.682 770.538,330.728 770.522,330.774C770.479,330.904 770.457,331.04 770.457,331.176C770.457,331.447 770.482,331.696 770.527,331.921C770.534,331.955 770.538,331.991 770.542,332.027C770.445,332.457 770.432,332.865 770.494,333.255C770.464,333.348 770.434,333.454 770.405,333.57C770.341,333.824 770.245,334.302 770.117,335.002C770.104,335.077 770.097,335.153 770.097,335.229L770.097,335.95C770.097,336.393 770.237,336.98 770.591,337.689C770.67,337.846 770.78,337.985 770.915,338.098C771.092,338.246 771.29,338.441 771.333,338.483C771.393,338.592 771.46,338.746 771.539,338.944C771.685,339.309 771.992,339.586 772.37,339.694C772.766,339.807 773.048,339.892 773.218,339.948C773.368,339.998 773.641,340.129 774.042,340.33C774.112,340.365 774.186,340.393 774.261,340.415C774.794,340.567 775.346,340.644 775.917,340.644C776.507,340.644 777.243,340.473 778.109,340.08C778.248,340.017 778.374,339.929 778.482,339.821L779.023,339.281C779.034,339.269 779.041,339.255 779.052,339.249C779.25,339.15 779.419,339.001 779.542,338.817C779.713,338.56 779.843,338.301 779.936,338.044C780.017,337.87 780.088,337.653 780.136,337.415C780.142,337.384 780.149,337.354 780.162,337.329C780.188,337.275 780.212,337.22 780.231,337.163C780.3,336.956 780.369,336.714 780.438,336.438C780.499,336.193 780.562,335.864 780.624,335.451C780.689,335.255 780.75,334.982 780.785,334.635L780.834,334.099L780.885,334.14C781.25,334.647 781.769,335.114 782.457,335.517C782.606,335.643 782.844,335.799 783.193,335.943C783.296,335.993 783.424,336.047 783.57,336.101C783.72,336.191 783.904,336.262 784.119,336.297C784.326,336.37 784.536,336.406 784.745,336.41C785.215,336.784 785.718,336.982 786.242,337.029L786.831,337.244C787.095,337.454 787.405,337.623 787.763,337.742L788.525,337.996C788.64,338.069 788.783,338.143 788.954,338.211C789.156,338.292 789.669,338.37 790.496,338.317C791.082,338.494 791.583,338.573 791.993,338.573C792.039,338.573 792.091,338.581 792.149,338.593C792.274,338.618 792.54,338.676 792.947,338.766C793.132,338.874 793.348,338.984 793.593,339.093C793.903,339.231 794.536,339.416 795.498,339.623C795.772,339.691 796.055,339.743 796.338,339.779C796.576,339.808 796.865,339.827 797.204,339.832C797.864,340.022 798.468,340.04 799.009,339.92C799.19,339.914 799.39,339.896 799.603,339.866C799.709,339.85 799.83,339.841 799.967,339.837C800.285,339.947 800.577,340.016 800.841,340.049C801.141,340.086 801.404,340.104 801.629,340.104C801.852,340.104 802.075,340.076 802.298,340.021C802.33,340.013 802.368,340.004 802.413,339.994C802.86,340.176 803.378,340.222 803.974,340.095C804.265,340.071 804.61,339.979 804.99,339.789C805.135,339.717 805.3,339.665 805.481,339.629C805.592,339.606 805.7,339.57 805.801,339.519C805.852,339.493 805.901,339.473 805.952,339.473L806.313,339.473C806.65,339.473 806.973,339.339 807.212,339.101L807.224,339.085C807.259,339.086 807.322,339.089 807.364,339.096C807.721,339.155 808.086,339.06 808.368,338.834C808.489,338.737 808.602,338.662 808.724,338.638C809.003,338.582 809.498,338.5 810.208,338.39C810.659,338.37 811.184,338.224 811.762,337.906C811.993,337.874 812.292,337.815 812.655,337.724C812.655,337.724 813.263,337.572 813.263,337.572C813.446,337.555 813.668,337.51 813.92,337.427C813.977,337.408 814.033,337.384 814.086,337.358C814.11,337.346 814.142,337.345 814.177,337.339C814.521,337.282 814.869,337.148 815.214,336.918C815.256,336.89 815.296,336.859 815.335,336.826C815.489,336.785 815.721,336.72 816.028,336.632C816.339,336.544 816.604,336.34 816.77,336.064C816.829,335.964 816.865,335.877 816.925,335.837C817.031,335.766 817.235,335.723 817.519,335.653C817.592,335.634 817.663,335.609 817.731,335.578C817.947,335.549 818.267,335.488 818.689,335.382C818.913,335.327 819.117,335.211 819.28,335.048C819.58,334.748 819.776,334.553 819.866,334.462C819.94,334.389 820.039,334.277 820.161,334.125C820.717,333.885 821.326,333.505 821.978,332.971C822.159,332.823 822.296,332.628 822.373,332.407C822.49,332.293 822.737,332.069 823.115,331.732C823.345,331.62 823.604,331.445 823.873,331.175C824.067,330.981 824.216,330.784 824.326,330.589C824.322,330.596 824.993,329.673 824.993,329.673C825.151,329.456 825.237,329.194 825.237,328.925C825.237,328.842 825.254,328.748 825.279,328.641C825.327,328.475 825.382,328.312 825.405,328.245C825.426,328.212 825.445,328.178 825.463,328.143C825.523,328.023 825.583,327.903 825.643,327.783C825.696,327.676 825.858,327.412 826.124,326.987C826.195,326.874 826.247,326.751 826.279,326.622C826.349,326.344 826.397,325.942 826.406,325.414C826.589,324.756 826.678,324.123 826.678,323.521C826.678,323.521 826.678,322.622 826.678,322.622C826.86,322.173 826.948,321.721 826.948,321.27C826.948,321.056 826.923,320.843 826.872,320.63C826.87,320.604 826.858,320.423 826.858,320.279C826.858,319.615 826.733,319.099 826.543,318.72C826.532,318.696 826.519,318.673 826.506,318.65C826.481,318.57 826.418,318.363 826.369,318.169C826.3,317.893 826.231,317.652 826.162,317.445C826.162,317.445 825.712,316.094 825.712,316.094C825.583,315.707 825.327,315.092 824.939,314.252C824.877,314.116 824.79,313.992 824.684,313.886L824.619,313.818C824.545,313.704 824.422,313.53 824.242,313.3C824.196,313.105 824.134,312.926 824.058,312.761C823.972,312.521 823.843,312.264 823.672,312.008C823.515,311.773 823.284,311.597 823.016,311.507C822.937,311.481 822.852,311.415 822.747,311.336C822.728,311.322 822.708,311.308 822.689,311.295C822.577,311.221 822.453,311.091 822.304,310.923C822.15,310.75 822.029,310.503 821.913,310.196C821.788,309.861 821.527,309.594 821.195,309.461C821.045,309.401 820.873,309.323 820.826,309.301C820.795,309.277 820.761,309.243 820.721,309.203C820.679,309.16 820.633,309.121 820.585,309.085C820.377,308.929 820.103,308.729 819.763,308.485C819.534,308.159 819.238,307.842 818.871,307.542C818.546,307.275 817.976,306.822 817.161,306.181C817.086,306.103 817.014,306.02 816.942,305.93C816.791,305.741 816.496,305.45 816.043,305.072C815.772,304.847 815.42,304.743 815.071,304.787C814.925,304.805 814.766,304.819 814.658,304.828C814.523,304.729 814.361,304.622 814.172,304.508C813.841,304.31 813.194,304.035 812.223,303.707C812.188,303.685 812.154,303.662 812.119,303.636C811.966,303.521 811.664,303.34 811.204,303.11C810.903,302.96 810.553,302.935 810.233,303.041C810.087,303.09 809.908,303.136 809.841,303.152C809.821,303.148 809.8,303.139 809.777,303.131C809.527,303.048 809.236,302.983 808.902,302.941C808.718,302.918 808.424,302.83 808.017,302.695C807.606,302.534 807.222,302.439 806.858,302.399C806.625,302.373 806.226,302.276 805.657,302.12C805.414,302.054 805.158,302.061 804.92,302.141L804.565,302.259C804.394,302.206 804.189,302.16 803.949,302.13C803.77,302.108 803.5,302.057 803.137,301.978C802.878,301.833 802.543,301.719 802.116,301.677C801.797,301.645 801.314,301.667 800.667,301.767C800.602,301.741 800.534,301.713 800.464,301.683C800.324,301.623 800.127,301.452 799.845,301.211C799.521,300.933 799.079,300.836 798.668,300.954C798.548,300.988 798.419,301.021 798.317,301.045C798.288,301.029 798.258,301.012 798.231,300.996C797.987,300.85 797.701,300.789 797.419,300.824C797.116,300.862 796.851,300.864 796.624,300.808C796.32,300.731 795.771,300.444 794.958,299.987C794.768,299.88 794.553,299.824 794.334,299.824C793.867,299.824 793.529,299.815 793.321,299.789C793.218,299.776 793.115,299.74 793.012,299.688C792.797,299.58 792.505,299.485 792.128,299.431C791.974,299.409 791.738,299.358 791.419,299.281C791.081,299.079 790.742,298.934 790.405,298.841C790.258,298.733 790.078,298.617 789.864,298.498C789.583,298.342 789.291,298.22 788.987,298.132C788.859,298.032 788.704,297.923 788.524,297.811C788.306,297.674 787.96,297.448 787.486,297.133C786.985,296.646 786.51,296.302 786.077,296.086C785.972,296.033 785.828,295.954 785.644,295.849C785.445,295.735 785.069,295.512 784.514,295.179C784.144,294.89 783.796,294.49 783.452,293.985C783.11,293.483 783.041,292.65 783.087,291.51L783.088,291.241C783.099,291.183 783.15,290.929 783.211,290.675C783.389,290.192 783.444,289.73 783.395,289.292C783.378,289.138 783.408,288.898 783.463,288.57C783.464,288.569 784.483,287.258 784.483,287.258C784.725,287.014 784.938,286.784 785.123,286.568C785.281,286.384 785.439,286.212 785.597,286.054C785.765,285.886 785.989,285.677 786.269,285.425C786.528,285.192 786.992,284.878 787.654,284.469C787.659,284.466 788.059,284.266 788.059,284.266C788.285,284.153 788.714,283.849 789.318,283.32C789.339,283.302 789.36,283.282 789.38,283.262C789.402,283.24 789.438,283.233 789.477,283.217C789.704,283.119 790.176,282.879 790.891,282.489C790.924,282.471 790.956,282.451 790.987,282.431C791.053,282.387 791.124,282.353 791.2,282.33C791.08,282.367 791.169,282.339 791.26,282.312L791.265,282.311L791.261,282.311L791.279,282.307C791.509,282.236 791.729,282.142 791.936,282.026C792.3,281.936 792.581,281.818 792.782,281.697C792.897,281.629 793.042,281.55 793.218,281.462C793.45,281.438 793.806,281.375 794.283,281.255C794.314,281.247 794.346,281.238 794.376,281.228L795.261,280.933C795.261,280.933 795.505,280.933 795.505,280.933C795.703,280.933 795.976,280.897 796.32,280.807C796.753,280.897 797.172,280.867 797.574,280.733C797.776,280.665 797.96,280.591 798.127,280.51C798.53,280.535 798.963,280.533 799.422,280.504C799.763,280.618 800.155,280.641 800.599,280.542C800.812,280.495 801.156,280.483 801.629,280.483L801.945,280.483C802.055,280.483 802.306,280.544 802.704,280.633C802.795,280.653 802.888,280.663 802.98,280.663L803.267,280.663C803.328,280.679 803.511,280.728 803.659,280.778C803.789,280.821 803.924,280.843 804.061,280.843C804.406,280.843 804.711,280.809 804.977,280.75C805.265,280.866 805.538,280.947 805.793,280.998C806.146,281.069 806.585,281.074 807.108,280.983C807.107,280.983 807.889,281.284 807.889,281.284C808.085,281.373 808.38,281.46 808.767,281.509C808.921,281.528 809.157,281.627 809.486,281.773C809.699,281.906 809.954,282.041 810.254,282.174C810.465,282.268 810.748,282.428 811.106,282.649C811.229,282.764 811.363,282.88 811.507,282.996C811.618,283.084 811.805,283.241 812.068,283.465C812.227,283.826 812.49,284.215 812.888,284.613C812.965,284.69 813.052,284.757 813.145,284.811C813.163,284.829 813.195,284.863 813.216,284.888C813.346,285.044 813.596,285.331 813.966,285.75C814.039,285.981 814.159,286.236 814.339,286.505C814.347,286.605 814.359,286.712 814.375,286.821C814.394,286.955 814.407,287.06 814.407,287.136C814.407,287.299 814.438,287.458 814.497,287.605L814.497,287.953C814.44,288.191 814.407,288.46 814.407,288.757C814.407,288.919 814.388,289.129 814.354,289.39C814.304,289.509 814.253,289.645 814.202,289.796C814.151,289.951 814.078,290.208 813.985,290.566C813.166,291.527 812.955,292.628 813.339,293.863C813.652,294.871 814.149,295.763 814.829,296.538C814.982,296.775 815.207,297 815.52,297.188C815.675,297.281 816.033,297.484 816.592,297.795C816.609,297.804 816.625,297.812 816.641,297.82C816.858,297.929 817.126,298.018 817.451,298.072C817.681,298.111 818.298,298.093 819.295,297.94L820.777,297.663C820.93,297.634 821.076,297.577 821.209,297.496L822.38,296.775C822.536,296.679 822.67,296.55 822.771,296.398C822.968,296.104 823.119,295.762 823.217,295.37C823.226,295.337 823.232,295.304 823.238,295.271C823.261,295.135 823.266,295.025 823.312,294.957C823.341,294.913 823.368,294.867 823.391,294.82C823.543,294.517 823.655,294.25 823.73,294.023C823.785,293.86 823.866,293.644 823.975,293.373C824.004,293.3 824.026,293.226 824.041,293.15C824.101,292.848 824.222,292.16 824.401,291.087C824.466,290.82 824.515,290.568 824.548,290.333C824.581,290.104 824.601,289.831 824.605,289.515C824.66,289.212 824.696,288.747 824.696,288.127C824.696,287.823 824.676,287.538 824.638,287.272C824.619,287.138 824.606,287.033 824.606,286.956C824.606,286.777 824.65,286.582 824.721,286.368C824.764,286.238 824.786,286.102 824.786,285.965C824.786,285.85 824.798,285.741 824.827,285.639C824.915,285.333 824.966,284.962 824.966,284.524L824.966,283.534C824.966,283.29 825.038,282.991 825.156,282.631C825.291,282.287 825.407,281.938 825.507,281.572C825.591,281.263 825.69,280.94 825.802,280.604C825.843,280.481 825.865,280.353 825.867,280.224C825.906,280.101 825.974,279.869 826.072,279.527C826.223,279.137 826.315,278.762 826.355,278.406C826.39,278.086 826.407,277.784 826.407,277.5L826.407,276.959C826.407,276.748 826.437,276.405 826.49,275.929C826.549,275.399 826.271,274.889 825.794,274.651C825.724,274.615 825.662,274.577 825.617,274.524C825.497,274.38 825.389,274.236 825.293,274.092C825.247,274.023 825.194,273.958 825.134,273.898C825.112,273.876 825.08,273.837 825.07,273.824C824.938,273.459 824.646,273.174 824.277,273.051L821.575,272.15C821.255,272.044 820.906,272.068 820.604,272.219C820.529,272.257 820.433,272.293 820.32,272.33C820.151,272.387 819.964,272.442 819.907,272.459C819.833,272.47 819.761,272.487 819.69,272.51C819.58,272.547 819.451,272.572 819.304,272.59C818.975,272.631 818.471,272.79 817.812,273.12C817.525,273.263 817.303,273.51 817.19,273.811C817.032,274.231 816.917,274.522 816.838,274.679C816.739,274.877 816.655,275.074 816.584,275.272L816.498,275.228C816.335,275.042 816.118,274.835 815.843,274.615C815.814,274.592 815.785,274.57 815.754,274.55C815.652,274.482 815.566,274.417 815.498,274.349C815.401,274.252 815.289,274.172 815.167,274.111C814.992,274.023 814.735,273.927 814.389,273.84C814.097,273.755 813.842,273.654 813.632,273.527C813.604,273.51 813.575,273.495 813.546,273.48C813.399,273.406 813.178,273.312 812.883,273.202C812.678,273.124 812.337,272.991 811.861,272.801C811.587,272.572 811.309,272.421 811.038,272.33C810.925,272.293 810.83,272.257 810.754,272.219C810.577,272.131 810.383,272.085 810.185,272.085L809.51,272.085C809.438,272.085 809.347,272.061 809.233,272.033C809.213,272.028 809.194,272.024 809.174,272.02C808.781,271.941 808.428,271.905 808.114,271.905L807.478,271.905C807.27,271.863 807.024,271.855 806.742,271.91C806.359,271.606 805.829,271.546 805.384,271.769L805.348,271.784L805.339,271.781C805.125,271.628 804.868,271.545 804.601,271.545L802.75,271.545L802.715,271.536C802.483,271.435 802.25,271.381 802.018,271.368L801.942,271.34C801.639,271.239 801.213,271.184 800.659,271.235C800.379,271.26 799.783,271.174 798.866,271.021C798.797,271.01 798.727,271.004 798.657,271.004C798.408,271.004 798.158,271.025 797.908,271.067C797.77,271.09 797.539,271.094 797.216,271.094C797.019,271.094 796.824,271.14 796.648,271.229C796.613,271.246 796.565,271.267 796.533,271.28C796.359,271.292 796.096,271.323 795.746,271.382C795.713,271.387 795.68,271.394 795.647,271.402C795.43,271.457 795.171,271.511 794.872,271.565C794.563,271.621 794.051,271.704 793.338,271.815C793.336,271.815 792.938,271.815 792.938,271.815C792.658,271.815 792.36,271.864 792.049,271.977C791.639,271.973 791.222,272.071 790.807,272.284C790.568,272.307 790.348,272.354 790.15,272.42C789.903,272.503 789.697,272.587 789.533,272.67L789.512,272.681C789.439,272.689 789.206,272.715 789.021,272.715C788.683,272.715 788.36,272.849 788.121,273.088C788.006,273.204 787.847,273.338 787.801,273.377C787.637,273.445 787.433,273.539 787.191,273.66C786.996,273.758 786.75,273.854 786.457,273.951C786.055,274.085 785.416,274.38 784.545,274.849C784.51,274.868 784.476,274.888 784.443,274.91C784.426,274.922 784.412,274.936 784.395,274.94L784.347,274.948L784.348,274.95L784.252,274.972ZM840.296,276.136C840.977,275.953 842.043,275.193 842.922,275.483L843.221,275.584C843.201,275.576 843.18,275.568 843.158,275.561C843.343,275.621 843.472,275.662 843.546,275.68C843.564,275.685 843.581,275.687 843.598,275.687C843.867,275.687 844.213,275.755 844.617,275.957C844.843,276.07 845.069,276.201 845.294,276.351C845.314,276.364 845.333,276.378 845.352,276.392C845.528,276.524 845.703,276.635 845.878,276.722C846.229,276.898 846.48,277.226 846.557,277.61C846.557,277.61 846.731,278.483 846.726,278.462C846.788,278.71 846.85,278.972 846.911,279.25C846.999,279.647 847.032,279.935 847.032,280.111C847.032,280.301 847.033,280.443 847.052,280.537C847.072,280.639 847.13,280.788 847.211,280.99C847.332,281.293 847.332,281.632 847.211,281.935C847.176,282.023 847.139,282.134 847.122,282.187L847.122,282.453C847.122,282.58 847.103,282.706 847.065,282.827C846.853,283.519 846.715,284.076 846.662,284.502C846.658,284.533 846.653,284.563 846.647,284.594C846.603,284.811 846.581,285.028 846.581,285.245C846.581,285.298 846.578,285.35 846.571,285.403L846.391,286.934C846.335,287.388 846.292,287.842 846.264,288.296C846.226,288.903 846.123,289.401 845.975,289.797C845.903,290.063 845.861,290.301 845.861,290.514C845.861,290.928 845.822,291.324 845.748,291.704C845.711,291.938 845.701,292.164 845.72,292.38C845.762,292.837 845.739,293.274 845.656,293.69C845.615,293.893 845.591,294.064 845.591,294.206C845.591,294.206 845.591,294.619 845.59,294.61C845.646,295.112 845.558,295.803 845.244,296.667C845.216,296.743 845.182,296.816 845.14,296.884L845.14,297.231C845.207,297.802 845.214,298.252 845.178,298.579C845.145,298.872 845.098,299.15 845.037,299.415C845.03,299.486 845.025,299.554 845.02,299.62C845.337,299.441 845.559,299.311 845.685,299.227C845.88,299.096 846.05,298.995 846.185,298.922L847.833,297.795C848.045,297.65 848.295,297.572 848.552,297.572C848.769,297.572 849.012,297.56 849.083,297.556C849.107,297.549 849.13,297.538 849.154,297.527L850.277,296.966C851.054,296.613 851.605,296.412 851.923,296.342C852.221,296.276 852.506,296.238 852.772,296.226C853.624,295.99 854.434,295.827 855.2,295.735C855.609,295.686 856.053,295.588 856.132,295.57L856.178,295.545C856.357,295.456 856.622,295.358 856.979,295.269C857.233,295.205 857.488,295.166 857.737,295.15C858.165,294.986 858.526,294.903 858.805,294.881C859.519,294.71 860.096,294.653 860.525,294.677C860.981,294.571 861.306,294.522 861.497,294.512C861.647,294.451 861.808,294.42 861.971,294.42C862.342,294.42 862.657,294.441 862.916,294.478C863.07,294.5 863.236,294.51 863.412,294.51L864.132,294.51C864.47,294.51 864.793,294.644 865.032,294.883C865.1,294.951 865.186,295.016 865.288,295.084C865.358,295.131 865.423,295.184 865.482,295.243C865.504,295.265 865.541,295.272 865.579,295.289C865.72,295.349 865.892,295.395 866.093,295.436C866.119,295.441 866.145,295.447 866.171,295.454L867.522,295.814C867.605,295.836 867.686,295.867 867.763,295.905C867.903,295.975 868.168,296.13 868.553,296.375C868.89,296.59 869.243,296.82 869.611,297.066C869.649,297.091 869.685,297.118 869.72,297.147C870.065,297.435 870.469,297.751 870.93,298.097C871.037,298.178 871.131,298.275 871.208,298.385C871.208,298.385 872.407,300.097 872.405,300.095C872.723,300.417 872.929,300.649 873.03,300.783C873.086,300.858 873.152,300.932 873.227,301.007C873.29,301.07 873.346,301.139 873.394,301.213C873.394,301.213 874.563,303.011 874.563,303.011C874.697,303.213 874.849,303.464 875.016,303.765C875.227,304.145 875.341,304.57 875.337,305.041C875.606,305.564 875.789,306.137 875.882,306.761C875.959,307.272 876.044,307.682 876.146,307.989C876.157,308.02 876.166,308.051 876.174,308.082C876.302,308.598 876.37,309.032 876.387,309.378C876.645,310.366 876.752,311 876.752,311.273C876.752,311.308 876.751,311.343 876.748,311.378C876.692,312.045 876.662,312.475 876.662,312.669C876.662,312.669 876.662,312.882 876.661,312.881C876.883,313.391 876.994,313.854 877.016,314.252C877.147,314.852 877.139,315.39 877.022,315.862C877.022,315.862 877.022,318.867 877.022,318.863C877.082,319.502 877.083,320.203 877.022,320.956C877.018,321.816 876.887,322.479 876.686,322.953C876.632,323.178 876.587,323.388 876.572,323.461C876.697,323.996 876.752,324.437 876.752,324.782C876.752,325.185 876.666,325.591 876.482,325.994C876.482,326.07 876.482,326.137 876.484,326.196L876.783,326.277C876.829,326.293 876.875,326.302 876.921,326.302C877.172,326.302 877.418,326.376 877.627,326.516C877.768,326.61 877.932,326.703 878.12,326.797L878.571,327.067C878.691,327.127 878.811,327.187 878.931,327.247C879.053,327.308 879.165,327.389 879.261,327.485C879.503,327.727 879.683,327.999 879.806,328.3C879.863,328.358 879.915,328.421 879.961,328.49C880.148,328.77 880.286,329.052 880.379,329.333C880.422,329.463 880.445,329.599 880.445,329.735L880.445,330.706C880.503,330.852 880.535,331.01 880.535,331.176C880.535,331.48 880.5,331.842 880.424,332.26C880.319,332.835 879.991,333.385 879.342,333.829C878.714,334.682 878.014,335.304 877.26,335.715C877.208,335.744 877.153,335.769 877.097,335.79C876.677,335.947 876.387,336.063 876.229,336.142C876.068,336.222 875.774,336.399 875.344,336.668C875.141,336.794 874.908,336.861 874.67,336.861C874.273,336.861 873.987,336.869 873.814,336.894C873.486,336.94 873.176,336.928 872.884,336.863C872.67,336.867 872.471,336.878 872.378,336.883C872.291,336.913 872.201,336.933 872.108,336.944C871.503,337.011 871.066,337.042 870.797,337.042C870.797,337.042 870.346,337.042 870.348,337.041C868.906,337.454 867.61,337.735 866.46,337.886C865.161,338.057 864.023,337.94 863.048,337.57C862.931,337.56 862.797,337.546 862.647,337.524C862.382,337.486 862.022,337.398 861.569,337.246C861.288,337.153 861.049,336.965 860.892,336.714C860.666,336.352 860.509,336.107 860.396,335.994C860.246,335.843 860.021,335.618 859.721,335.318C859.482,335.08 859.348,334.756 859.348,334.419C859.348,334.419 859.348,333.056 859.349,333.061C859.285,332.542 859.258,332.199 859.258,332.032C859.258,331.671 859.338,331.347 859.482,331.058C859.543,330.936 859.624,330.824 859.721,330.727C860.261,330.187 860.591,329.857 860.711,329.737C860.888,329.56 861.061,329.439 861.221,329.355C861.451,329.17 861.64,329.016 861.787,328.893C862.008,328.71 862.3,328.505 862.667,328.285C862.785,328.214 862.912,328.163 863.046,328.134C863.641,328.001 864.07,327.921 864.335,327.888C864.562,327.86 864.748,327.843 864.887,327.837C865.176,327.78 865.414,327.733 865.601,327.697C865.633,327.564 865.66,327.446 865.683,327.343C865.756,327.011 865.866,326.66 866.013,326.291C866.113,326.043 866.196,325.568 866.296,324.872C866.392,324.195 866.449,323.668 866.461,323.291C866.39,322.927 866.388,322.604 866.435,322.321C866.451,322.225 866.463,322.145 866.463,322.08C866.463,321.996 866.471,321.913 866.488,321.831C866.587,321.334 866.643,320.937 866.643,320.639L866.643,319.649C866.643,319.151 866.689,318.817 866.733,318.642C866.733,317.696 866.761,317.121 866.795,316.918C866.814,316.807 866.823,316.697 866.823,316.586C866.823,316.233 866.825,316.001 866.803,315.89C866.771,315.729 866.75,315.578 866.742,315.448C866.684,315.228 866.636,314.959 866.604,314.642C866.57,314.3 866.592,313.958 866.673,313.619C866.586,313.324 866.53,313.09 866.499,312.916L866.501,312.932C866.364,312.385 866.282,311.974 866.248,311.701C866.216,311.445 866.198,311.216 866.194,311.022C866.015,309.884 865.912,309.132 865.882,308.767C865.873,308.656 865.825,308.557 865.751,308.465C865.695,308.395 865.647,308.319 865.606,308.239C865.474,307.975 865.359,307.727 865.26,307.496C865.243,307.458 865.236,307.421 865.214,307.399C865.155,307.34 865.102,307.275 865.055,307.205C864.956,307.056 864.873,306.922 864.809,306.809C864.652,306.642 864.496,306.457 864.343,306.256C864.082,305.99 863.899,305.765 863.783,305.591C863.614,305.493 863.476,305.425 863.361,305.4C863.04,305.328 862.773,305.256 862.559,305.184C862.452,305.149 862.35,305.099 862.256,305.036C862.195,304.995 862.129,304.963 862.059,304.94L862.454,305.003C862.454,305.003 861.93,304.901 861.93,304.901C861.93,304.901 862.298,304.956 862.298,304.956L861.902,304.893C861.759,304.846 861.62,304.789 861.485,304.725C861.237,304.748 860.942,304.796 860.599,304.865L859.699,305.045C859.616,305.061 859.533,305.07 859.449,305.07L858.819,305.07C858.687,305.07 858.574,305.072 858.487,305.115C858.386,305.166 858.278,305.203 858.167,305.225C857.94,305.27 857.736,305.326 857.554,305.394C857.26,305.504 856.93,305.598 856.563,305.672C856.043,305.788 855.38,305.961 854.575,306.191C853.756,306.426 852.922,306.689 852.073,306.981C851.238,307.27 850.46,307.572 849.739,307.889C849.074,308.182 848.547,308.435 848.164,308.649C847.491,309.136 846.847,309.564 846.234,309.932C845.821,310.18 845.379,310.457 844.907,310.762C844.918,311.274 844.886,311.637 844.832,311.851C844.829,311.865 844.825,311.879 844.821,311.892C844.757,312.118 844.699,312.389 844.69,312.434L844.69,312.689C844.746,313.04 844.78,313.528 844.78,314.155C844.78,314.939 844.755,315.524 844.717,315.911C844.876,316.405 844.952,316.85 844.959,317.232C845.028,317.94 845.031,318.438 844.995,318.726C844.98,318.852 844.968,318.955 844.963,319.036C845.063,319.736 845.129,320.185 845.161,320.384C845.187,320.43 845.21,320.478 845.229,320.527C845.339,320.801 845.416,321.091 845.46,321.397C845.57,321.492 845.663,321.568 845.706,321.602L845.72,321.606C846.273,321.552 846.729,321.572 847.09,321.644C847.201,321.666 847.308,321.703 847.409,321.753C847.514,321.805 847.602,321.848 847.68,321.861C847.989,321.913 848.246,321.996 848.457,322.098C848.613,322.131 848.763,322.193 848.897,322.283C849.141,322.446 849.387,322.648 849.631,322.892C849.757,323.018 849.905,323.155 849.974,323.217C850.162,323.32 850.324,323.47 850.441,323.658C850.817,324.259 851.076,324.863 851.227,325.464C851.442,326.325 851.287,327.08 850.79,327.734C850.73,327.854 850.673,327.984 850.641,328.062C850.721,328.56 850.602,329.036 850.237,329.473C850.181,329.576 850.118,329.686 850.048,329.804C849.903,330.045 849.734,330.262 849.541,330.455C849.297,330.699 849.051,330.901 848.807,331.064C848.513,331.26 848.172,331.412 847.779,331.51C847.372,331.611 847.06,331.672 846.85,331.702C846.397,331.84 845.943,331.908 845.49,331.908L844.724,331.908C844.385,331.908 844.06,331.854 843.753,331.746C843.03,331.794 842.505,331.797 842.177,331.768C841.955,331.747 841.74,331.735 841.534,331.73C841.142,331.844 840.737,331.917 840.318,331.949C839.964,331.977 839.597,332.017 839.233,332.068C838.853,332.142 838.492,332.178 838.149,332.178L837.384,332.178C837.342,332.178 837.299,332.176 837.257,332.172C836.769,332.123 836.404,332.102 836.16,332.127C835.912,332.152 835.665,332.188 835.429,332.234C834.431,332.494 833.424,332.309 832.426,331.591L831.402,330.909C831.143,330.755 830.856,330.49 830.606,330.051C830.475,329.822 830.343,329.576 830.212,329.314C830.078,329.045 829.943,328.743 829.809,328.407C829.697,328.127 829.688,327.817 829.783,327.532L829.947,326.954C830.166,326.188 830.431,325.793 830.541,325.684C830.564,325.661 830.587,325.639 830.612,325.618C830.905,325.366 831.108,325.193 831.192,325.067C831.364,324.809 831.539,324.595 831.711,324.423C831.791,324.343 831.882,324.274 831.98,324.218C832.359,324.002 832.59,323.868 832.671,323.814C832.706,323.79 832.744,323.75 832.792,323.703C832.945,323.55 833.134,323.438 833.342,323.379L834.603,323.019C834.678,322.997 834.755,322.983 834.833,322.976L834.529,321.758C834.478,321.556 834.478,321.344 834.529,321.141C834.614,320.803 834.671,320.562 834.671,320.414C834.671,320.414 834.671,320.052 834.671,320.053C834.556,319.485 834.532,319.015 834.571,318.65C834.528,318.293 834.504,318.035 834.495,317.877C834.465,317.803 834.441,317.725 834.426,317.646C834.332,317.178 834.322,316.779 834.369,316.452C834.389,316.306 834.401,316.171 834.401,316.046C834.401,315.775 834.425,315.527 834.471,315.301C834.486,315.227 834.491,315.145 834.491,315.055C834.491,314.945 834.482,314.835 834.463,314.724C834.428,314.514 834.408,314.304 834.404,314.106C834.278,313.379 834.339,312.682 834.581,312.018L834.581,310.732C834.581,310.694 834.583,310.656 834.586,310.617C834.586,310.617 834.666,309.741 834.666,309.743C834.608,309.088 834.581,308.667 834.581,308.481C834.581,308.23 834.614,308.006 834.67,307.809C834.668,307.261 834.653,306.758 834.628,306.3C834.597,305.737 834.581,305.143 834.581,304.518L834.581,304.023C834.581,303.753 834.612,303.498 834.671,303.261C834.671,303.261 834.671,302.393 834.672,302.407C834.61,301.327 834.671,300.277 834.853,299.266C834.858,299.056 834.879,298.845 834.914,298.635L834.944,298.225C835.006,297.227 835.115,296.215 835.271,295.186C835.406,294.294 835.504,293.54 835.564,292.926C835.532,292.584 835.551,292.086 835.662,291.438L835.662,290.378C835.662,290.226 835.689,290.075 835.743,289.932C836.035,289.152 836.202,288.524 836.202,288.037C836.202,287.9 836.224,287.764 836.267,287.635C836.39,287.266 836.492,286.981 836.57,286.78C836.225,286.843 835.879,286.911 835.531,286.985C834.309,287.244 833.362,287.265 832.695,287.117C831.94,286.949 831.16,286.484 830.404,285.646C829.69,284.851 829.284,284.117 829.125,283.482C829.1,283.381 829.087,283.278 829.087,283.174C829.087,282.803 829.108,282.488 829.145,282.228C829.175,282.017 829.218,281.794 829.272,281.563C829.304,280.999 829.493,280.393 829.876,279.765C830.005,279.512 830.162,279.229 830.349,278.917C830.446,278.755 830.578,278.617 830.734,278.513C830.85,278.436 830.965,278.337 831.081,278.221C831.448,277.855 831.741,277.631 831.937,277.52C832.085,277.437 832.223,277.385 832.338,277.356C832.63,277.242 832.947,277.128 833.289,277.014C833.419,276.97 833.555,276.948 833.691,276.948C833.691,276.948 834.559,276.948 834.557,276.949C835.202,276.826 835.754,276.768 836.213,276.768C836.558,276.768 836.879,276.745 837.175,276.695L837.543,276.671C837.649,276.612 837.798,276.524 837.99,276.409C838.27,276.241 838.603,276.187 838.921,276.258C839.296,276.342 839.753,276.282 840.296,276.136ZM888.247,301.107C887.834,301.448 888.013,301.47 888.272,301.132L888.26,301.097L888.474,300.923C888.706,300.731 888.938,300.519 889.171,300.287C889.957,299.5 890.486,299.014 890.748,298.817C890.857,298.735 890.979,298.672 891.109,298.628C891.109,298.628 891.977,298.339 891.975,298.341C892.229,298.167 892.536,298.043 892.907,297.99C892.955,297.984 893.028,297.967 893.043,297.963L893.081,297.945C893.451,297.787 893.795,297.615 894.112,297.43C894.493,297.208 894.938,296.97 895.445,296.716C895.468,296.705 895.49,296.694 895.513,296.685C895.957,296.494 896.448,296.304 896.987,296.114C897.55,295.915 898.164,295.748 898.827,295.616L901.718,295.073C902.107,294.996 902.457,294.961 902.769,294.961L903.911,294.961C903.941,294.953 904.087,294.912 904.188,294.871C904.26,294.843 904.334,294.82 904.411,294.805C904.768,294.734 905.286,294.69 905.966,294.69C906.575,294.69 907.215,294.722 907.888,294.786C908.523,294.847 909.127,294.907 909.702,294.968C910.323,295.033 910.797,295.1 911.124,295.165C911.235,295.188 911.342,295.224 911.443,295.275C911.683,295.395 911.893,295.5 912.074,295.59C912.284,295.695 912.469,295.814 912.631,295.943C913.018,296.098 913.262,296.194 913.362,296.231C913.542,296.251 913.715,296.309 913.87,296.403C914.43,296.739 914.822,296.964 915.046,297.076C915.358,297.232 915.603,297.397 915.781,297.551C916.549,298.025 917.099,298.384 917.431,298.626C917.767,298.871 918.058,299.084 918.302,299.268C918.35,299.304 918.396,299.343 918.438,299.386C918.696,299.643 918.953,299.916 919.21,300.206C919.484,300.514 919.73,300.867 919.942,301.263C919.942,301.263 920.614,302.003 920.613,302.002C920.887,302.192 921.211,302.5 921.546,302.968C921.605,303.051 921.654,303.141 921.692,303.235C921.824,303.565 921.922,303.828 921.988,304.026C921.988,304.026 922.028,304.145 922.026,304.144C922.248,304.309 922.494,304.523 922.761,304.79C923,305.028 923.134,305.352 923.134,305.689C923.134,305.818 923.166,306.004 923.173,306.039L923.19,306.064C923.258,306.166 923.324,306.253 923.392,306.321C923.555,306.484 923.67,306.688 923.726,306.912C923.816,307.269 923.854,307.582 923.854,307.85C923.854,307.907 923.856,307.969 923.858,308.021L924.239,309.159C924.25,309.19 924.259,309.222 924.267,309.253C924.454,310.001 924.642,310.952 924.829,312.105C925.016,313.261 925.141,314.478 925.204,315.759C925.267,317.057 925.235,318.308 925.108,319.512C924.968,320.84 924.642,321.955 924.153,322.863C924.153,322.863 923.566,323.952 923.568,323.948C923.401,324.387 923.09,324.899 922.606,325.464C922.443,325.714 922.317,325.943 922.232,326.155C922.168,326.315 922.072,326.46 921.951,326.582C921.613,326.92 921.331,327.142 921.12,327.269C921.062,327.303 921.01,327.344 920.963,327.39C920.859,327.642 920.636,327.987 920.24,328.383C920.032,328.591 919.862,328.773 919.732,328.929C919.542,329.157 919.312,329.36 919.039,329.533C919.004,329.593 918.979,329.653 918.966,329.715C918.88,330.146 918.577,330.502 918.166,330.656C917.814,330.788 917.566,330.886 917.434,330.974C917.254,331.094 917.074,331.214 916.894,331.334C916.809,331.39 916.718,331.436 916.623,331.471C916.001,331.697 915.563,331.865 915.309,331.978C915.057,332.09 914.819,332.202 914.595,332.314C914.045,332.589 913.613,332.775 913.303,332.878C913.055,332.961 912.793,333.058 912.518,333.168C912.367,333.228 912.196,333.306 912.148,333.328C912.117,333.352 912.084,333.387 912.044,333.427C911.922,333.549 911.777,333.644 911.617,333.708C911.122,333.906 910.721,333.979 910.424,333.979C910.424,333.979 910.249,333.979 910.251,333.979C909.861,334.143 909.391,334.286 908.84,334.402C908.243,334.528 907.616,334.638 906.956,334.732C906.265,334.831 905.589,334.88 904.93,334.88C904.269,334.88 903.762,334.842 903.413,334.781C902.878,334.739 902.526,334.71 902.357,334.752C902.025,334.835 901.652,334.88 901.238,334.88C900.929,334.88 900.358,334.865 899.525,334.834C898.668,334.802 898.022,334.715 897.588,334.597C896.579,334.518 895.452,334.268 894.203,333.836C893.775,333.73 893.425,333.649 893.153,333.594C893.133,333.591 893.113,333.586 893.094,333.581C892.522,333.438 892.012,333.202 891.564,332.877C891.076,332.733 890.538,332.517 889.952,332.224C889.249,331.873 888.654,331.483 888.162,331.061C888.137,331.04 888.113,331.018 888.09,330.995C887.808,330.713 887.524,330.366 887.237,329.941C886.868,329.481 886.57,329.121 886.538,329.082C885.884,328.425 885.536,327.9 885.412,327.57C885.352,327.411 885.307,327.265 885.275,327.135C885.049,326.855 884.884,326.636 884.779,326.478C884.711,326.376 884.645,326.29 884.578,326.222C884.368,326.013 884.181,325.755 884.024,325.441C883.957,325.306 883.878,325.172 883.788,325.037C883.739,324.964 883.698,324.886 883.666,324.804C883.536,324.48 883.389,324.059 883.227,323.54C883.085,323.084 882.98,322.701 882.913,322.398C882.746,322.016 882.674,321.653 882.674,321.315C882.674,321.315 882.674,321.053 882.675,321.055C882.624,320.896 882.582,320.713 882.552,320.504C882.533,320.374 882.506,320.252 882.469,320.141C882.459,320.11 882.45,320.079 882.442,320.047C882.42,319.959 882.391,319.88 882.347,319.814C882.285,319.72 882.235,319.618 882.199,319.51C882.094,319.196 882.044,318.882 882.044,318.568C882.044,318.522 882.035,318.47 882.023,318.412C881.991,318.252 881.973,318.12 881.962,318.018C881.915,317.791 881.869,317.595 881.822,317.431C881.731,317.112 881.683,316.771 881.683,316.406C881.683,315.761 881.71,315.332 881.746,315.117C881.762,315.02 881.773,314.94 881.773,314.875C881.773,314.667 881.76,314.421 881.734,314.135C881.7,313.764 881.683,313.411 881.683,313.074C881.683,312.647 881.733,312.148 881.84,311.579C881.972,310.877 882.26,310.264 882.699,309.738C882.756,309.669 882.82,309.607 882.889,309.553L882.912,309.518C883.025,309.338 883.125,309.134 883.215,308.909C883.228,308.876 883.243,308.844 883.259,308.813C883.547,308.236 883.749,307.818 883.864,307.559C883.98,307.299 884.095,307.053 884.208,306.825C884.273,306.638 884.351,306.437 884.443,306.224C884.516,306.053 884.596,305.771 884.693,305.381C884.783,305.02 885.026,304.717 885.358,304.551C885.377,304.542 885.4,304.547 885.409,304.533C885.544,304.331 885.745,304.061 886.015,303.724C886.044,303.687 886.075,303.652 886.109,303.619C886.129,303.598 886.146,303.572 886.162,303.543L886.24,303.394C886.361,303.173 886.497,302.981 886.638,302.825C886.914,302.421 887.16,302.117 887.37,301.908C887.662,301.615 887.955,301.348 888.247,301.107ZM907.394,324.587C907.266,324.621 907.093,324.664 906.873,324.719C906.667,324.77 906.268,324.814 905.676,324.866C905.016,324.923 904.227,324.951 903.309,324.951L900.247,324.951C899.225,324.951 898.232,324.895 897.266,324.782C896.841,324.724 896.258,324.71 895.503,324.75C895.312,324.64 895.071,324.51 894.782,324.365C894.662,324.305 894.512,324.23 894.331,324.14C894.213,324.08 894.002,323.895 893.68,323.607C893.536,323.381 893.332,323.118 893.06,322.828C893.007,322.692 892.944,322.552 892.874,322.412C892.816,322.295 892.752,322.13 892.678,321.918C892.661,321.755 892.629,321.546 892.578,321.29C892.513,320.963 892.344,320.486 892.049,319.868C892.006,319.324 891.847,318.858 891.597,318.465C891.532,318.22 891.488,318.012 891.469,317.842C891.444,317.616 891.432,317.378 891.432,317.127C891.432,317.043 891.424,316.96 891.407,316.877C891.372,316.703 891.363,316.528 891.381,316.353C891.409,316.074 891.409,315.754 891.379,315.394C891.457,315.219 891.523,315.028 891.574,314.824C891.622,314.632 891.779,314.302 892.018,313.823C892.164,313.531 892.293,313.22 892.402,312.891C892.473,312.68 892.62,312.357 892.837,311.917C893.104,311.613 893.282,311.303 893.386,310.995C893.385,310.996 893.823,310.656 893.823,310.656C894.036,310.49 894.191,310.261 894.265,310.001C894.343,309.727 894.433,309.498 894.551,309.322C894.69,309.112 894.879,308.893 895.112,308.66C895.172,308.601 895.225,308.536 895.271,308.466C895.366,308.323 895.486,308.169 895.629,308.003C895.776,307.831 896.003,307.57 896.311,307.217C896.968,306.963 897.844,306.583 898.936,306.077C900.026,305.572 900.957,305.176 901.731,304.89C901.732,304.889 902.409,304.889 902.409,304.889C902.699,304.889 903.013,304.867 903.351,304.821C903.839,304.929 904.293,304.98 904.705,304.98C905.038,304.98 905.383,305.006 905.741,305.057C905.801,305.065 905.861,305.07 905.921,305.07C906.544,305.07 907.12,305.161 907.648,305.353C907.659,305.357 907.669,305.361 907.68,305.365C908.017,305.477 908.452,305.646 908.985,305.871C909.502,306.088 909.992,306.333 910.455,306.605C910.913,306.875 911.332,307.158 911.71,307.455C911.933,307.63 912.105,307.752 912.168,307.879C912.215,307.972 912.271,308.112 912.34,308.297C912.446,308.579 912.693,309.037 913.104,309.659C913.238,309.945 913.361,310.297 913.477,310.713C913.627,311.253 913.777,311.793 913.927,312.334C914.066,312.833 914.177,313.319 914.26,313.79C914.332,314.201 914.376,314.502 914.376,314.695C914.376,314.881 914.361,315.049 914.324,315.197C914.241,315.529 914.196,315.902 914.196,316.316C914.196,316.541 914.213,316.804 914.25,317.104C914.275,317.301 914.31,317.599 914.355,318L914.354,318.001C914.242,318.358 914.082,318.797 913.878,319.32C913.634,319.944 913.265,320.633 912.777,321.392C912.752,321.431 912.729,321.471 912.709,321.511C912.673,321.582 912.635,321.644 912.582,321.689L912.093,322.053C911.882,322.211 911.672,322.356 911.461,322.488C911.227,322.634 910.963,322.795 910.67,322.971C910.581,323.024 910.499,323.089 910.425,323.162C910.356,323.231 910.248,323.302 910.11,323.388C909.937,323.496 909.659,323.605 909.282,323.732C908.828,323.832 908.467,323.988 908.187,324.174C908.066,324.255 907.902,324.331 907.7,324.412C907.589,324.456 907.486,324.516 907.394,324.587ZM956.231,322.208C956.015,322.27 955.679,322.404 955.228,322.621C954.63,322.659 954.073,322.813 953.561,323.076C953.43,323.087 953.301,323.105 953.179,323.13L952.445,323.278C952.348,323.302 952.222,323.327 952.196,323.332C952.03,323.342 951.769,323.392 951.43,323.535C951.359,323.543 951.273,323.554 951.177,323.568C950.965,323.598 950.465,323.674 949.678,323.795C949.547,323.815 949.42,323.856 949.302,323.915C949.279,323.926 949.247,323.927 949.212,323.933C949.053,323.959 948.762,324.018 948.338,324.111C947.896,324.036 947.43,324.057 946.944,324.184C946.781,324.155 946.615,324.141 946.449,324.141C946.421,324.141 946.394,324.137 946.367,324.131C945.915,323.928 945.507,323.878 945.155,323.921C945.106,323.91 944.969,323.879 944.87,323.846C944.64,323.769 944.394,323.76 944.159,323.818C944.038,323.849 943.894,323.846 943.727,323.831C943.618,323.821 943.491,323.771 943.341,323.693C943.319,323.561 943.308,323.444 943.308,323.341L943.308,319.649C943.308,319.219 943.272,318.789 943.2,318.359L943.013,317.148C942.959,316.881 942.919,316.642 942.893,316.429C942.871,316.255 942.86,316.062 942.858,315.849C942.917,315.282 942.861,314.715 942.685,314.148C942.702,313.947 942.741,313.67 942.797,313.317C942.897,312.683 942.895,312.034 942.789,311.37C942.834,311.082 942.84,310.776 942.804,310.457C942.776,310.199 942.733,309.789 942.677,309.228C942.677,309.228 942.677,309.021 942.677,309.021C942.677,308.887 942.649,308.524 942.584,307.932C942.577,307.771 942.547,307.421 942.489,306.899C942.434,306.402 942.407,305.864 942.407,305.284C942.407,304.697 942.435,304.123 942.491,303.564L942.495,303.529L943.169,303.356C943.28,303.349 943.397,303.337 943.519,303.317C943.555,303.329 943.6,303.344 943.635,303.357C943.785,303.418 943.945,303.448 944.107,303.448C944.358,303.448 944.574,303.426 944.755,303.39C944.816,303.393 944.981,303.404 945.16,303.423C945.556,303.556 945.999,303.629 946.494,303.629C946.792,303.629 947.124,303.679 947.491,303.771C947.534,303.781 947.577,303.79 947.62,303.796C948.025,303.854 948.531,303.941 949.138,304.056C949.461,304.118 949.718,304.183 949.872,304.337C950.195,304.66 950.666,304.785 951.106,304.665C951.347,304.599 951.562,304.694 951.77,304.881C952.37,305.417 953.111,306.002 953.995,306.634C954.048,306.671 954.103,306.705 954.161,306.734L954.826,307.399C954.998,307.571 955.212,307.746 955.47,307.918C955.627,308.023 955.906,308.226 956.307,308.526C956.328,308.553 956.35,308.581 956.374,308.614C956.47,308.742 956.678,309 957,309.385C957.024,309.415 957.05,309.443 957.077,309.47C957.062,309.455 957.035,309.441 957.019,309.41C957.084,309.539 957.244,309.83 957.503,310.283C957.536,310.34 957.573,310.395 957.614,310.446C957.818,310.701 958.064,311.14 958.37,311.752C958.694,312.4 958.967,313.023 959.188,313.62C959.238,313.828 959.286,314.074 959.334,314.364C959.393,314.717 959.507,315.294 959.678,316.094C959.677,316.09 959.677,316.807 959.677,316.807L959.58,317.243C959.329,317.655 959.142,318.2 959.063,318.891C959.038,318.939 958.996,319.021 958.957,319.084C958.82,319.313 958.714,319.496 958.639,319.633C958.491,319.805 958.354,320.012 958.235,320.251L958.081,320.558C957.832,320.737 957.617,320.954 957.437,321.206C957.37,321.3 957.306,321.391 957.245,321.479C956.924,321.631 956.581,321.868 956.231,322.208ZM933.056,311.743L933.058,311.725C933.054,311.767 933.05,311.809 933.047,311.852L933.056,311.743Z" style="fill:white;"/>
    </g>
    <path id="w_1" d="M334.131,100.528C327.026,100.528 321.957,99.072 318.926,96.162C315.895,93.251 314.379,88.755 314.379,82.675L314.379,76.595L329.52,76.595L329.52,82.168C329.52,86.171 330.737,88.171 333.174,88.171C334.306,88.171 335.197,87.782 335.85,87.002C336.503,86.223 336.829,85.196 336.829,83.922C336.829,82.259 336.576,80.856 336.068,79.712C335.56,78.569 334.792,77.485 333.762,76.458C332.733,75.432 331.042,74.009 328.693,72.189L322.211,67.162C316.991,63.135 314.379,58.586 314.379,53.519C314.379,48.01 315.953,43.911 319.101,41.222C322.247,38.532 326.575,37.188 332.087,37.188L334.784,37.188C336.206,37.188 338.033,37.48 340.266,38.065C342.5,38.65 344.486,39.624 346.225,40.988C347.967,42.353 349.272,44.249 350.142,46.679C351.013,49.108 351.448,52.078 351.448,55.585L335.915,55.585L335.828,51.844C335.799,51.141 335.466,50.518 334.828,49.973C334.19,49.426 333.478,49.153 332.696,49.153C331.681,49.153 330.818,49.433 330.108,49.992C329.396,50.551 329.041,51.272 329.041,52.155C329.041,53.922 330.477,55.845 333.349,57.925L342.615,64.628C344.124,65.719 345.437,66.831 346.553,67.962C347.669,69.091 348.554,70.208 349.207,71.314C349.858,72.418 350.388,73.418 350.795,74.315C351.201,75.211 351.483,76.185 351.643,77.238C351.802,78.289 351.896,79.084 351.926,79.616C351.955,80.149 351.97,80.844 351.97,81.701C351.97,83.883 351.81,85.865 351.491,87.645C351.171,89.424 350.605,91.14 349.794,92.79C348.982,94.44 347.916,95.817 346.596,96.921C345.277,98.026 343.565,98.903 341.462,99.552C339.36,100.202 336.917,100.528 334.131,100.528ZM312.766,37.734L312.766,49.777L297.713,49.777L297.713,61.899L312.158,61.899L312.158,73.553L297.713,73.553L297.713,87.704L313.768,87.704L313.768,99.826L282.137,99.826L282.137,39.508L270.475,79.402L270.475,99.826L256.03,99.826L256.03,79.402L243.805,37.734L258.988,37.734L263.253,58.782L267.516,37.734L312.766,37.734ZM353.365,99.787L353.365,88.171L368.94,88.171L368.94,99.787L353.365,99.787ZM371.902,99.787L371.902,88.171L387.478,88.171L387.478,99.787L371.902,99.787ZM353.365,37.734L368.94,37.734L365.894,82.715L356.41,82.715L353.365,37.734ZM371.902,37.734L387.478,37.734L384.432,82.715L374.948,82.715L371.902,37.734Z" style="fill:rgb(141,0,255);fill-rule:nonzero;"/>
    <path id="w_2" d="M518.537,100.528C511.431,100.528 506.362,99.072 503.332,96.162C500.3,93.251 498.784,88.755 498.784,82.675L498.784,76.595L513.924,76.595L513.924,82.168C513.924,86.171 515.143,88.171 517.58,88.171C518.711,88.171 519.603,87.782 520.255,87.002C520.907,86.223 521.234,85.196 521.234,83.922C521.234,82.259 520.981,80.856 520.472,79.712C519.965,78.569 519.197,77.485 518.168,76.458C517.137,75.432 515.448,74.009 513.098,72.189L506.615,67.162C501.395,63.135 498.784,58.586 498.784,53.519C498.784,48.01 500.358,43.911 503.505,41.222C506.652,38.532 510.982,37.188 516.492,37.188L519.19,37.188C520.61,37.188 522.438,37.48 524.67,38.065C526.905,38.65 528.89,39.624 530.632,40.988C532.372,42.353 533.676,44.249 534.548,46.679C535.417,49.108 535.852,52.078 535.852,55.585L520.319,55.585L520.234,51.844C520.204,51.141 519.871,50.518 519.233,49.973C518.594,49.426 517.883,49.153 517.101,49.153C516.086,49.153 515.223,49.433 514.513,49.992C513.801,50.551 513.446,51.272 513.446,52.155C513.446,53.922 514.882,55.845 517.753,57.925L527.021,64.628C528.53,65.719 529.841,66.831 530.957,67.962C532.074,69.091 532.959,70.208 533.612,71.314C534.263,72.418 534.794,73.418 535.2,74.315C535.605,75.211 535.888,76.185 536.048,77.238C536.207,78.289 536.302,79.084 536.33,79.616C536.36,80.149 536.374,80.844 536.374,81.701C536.374,83.883 536.215,85.865 535.895,87.645C535.577,89.424 535.011,91.14 534.198,92.79C533.387,94.44 532.321,95.817 531.002,96.921C529.681,98.026 527.97,98.903 525.867,99.552C523.764,100.202 521.322,100.528 518.537,100.528ZM405.366,37.734L438.865,37.734L438.865,49.699L429.773,49.699L429.773,99.826L414.459,99.826L414.459,49.699L405.366,49.699L405.366,37.734ZM481.682,99.826L481.682,37.734L496.476,37.734L496.476,99.826L481.682,99.826ZM455.228,71.644L455.228,99.826L440.002,99.826L440.002,37.734L455.228,37.734L455.228,59.913L462.449,59.913L462.449,37.734L477.678,37.734L477.678,99.826L462.449,99.826L462.449,71.644L455.228,71.644Z" style="fill:rgb(141,0,255);fill-rule:nonzero;"/>
    <path id="w_3" d="M592.465,100.528C585.358,100.528 580.29,99.072 577.259,96.162C574.228,93.251 572.713,88.755 572.713,82.675L572.713,76.595L587.854,76.595L587.854,82.168C587.854,86.171 589.072,88.171 591.506,88.171C592.638,88.171 593.531,87.782 594.182,87.002C594.835,86.223 595.162,85.196 595.162,83.922C595.162,82.259 594.909,80.856 594.4,79.712C593.894,78.569 593.125,77.485 592.096,76.458C591.065,75.432 589.376,74.009 587.026,72.189L580.544,67.162C575.323,63.135 572.713,58.586 572.713,53.519C572.713,48.01 574.286,43.911 577.433,41.222C580.58,38.532 584.91,37.188 590.42,37.188L593.118,37.188C594.539,37.188 596.366,37.48 598.598,38.065C600.833,38.65 602.819,39.624 604.56,40.988C606.3,42.353 607.604,44.249 608.476,46.679C609.345,49.108 609.78,52.078 609.78,55.585L594.248,55.585L594.162,51.844C594.134,51.141 593.8,50.518 593.16,49.973C592.522,49.426 591.812,49.153 591.03,49.153C590.014,49.153 589.151,49.433 588.44,49.992C587.73,50.551 587.373,51.272 587.373,52.155C587.373,53.922 588.81,55.845 591.681,57.925L600.949,64.628C602.456,65.719 603.769,66.831 604.885,67.962C606.002,69.091 606.887,70.208 607.539,71.314C608.192,72.418 608.723,73.418 609.129,74.315C609.533,75.211 609.817,76.185 609.976,77.238C610.135,78.289 610.229,79.084 610.258,79.616C610.288,80.149 610.302,80.844 610.302,81.701C610.302,83.883 610.143,85.865 609.823,87.645C609.505,89.424 608.939,91.14 608.126,92.79C607.314,94.44 606.248,95.817 604.929,96.921C603.61,98.026 601.898,98.903 599.795,99.552C597.692,100.202 595.25,100.528 592.465,100.528ZM555.61,99.826L555.61,37.734L570.404,37.734L570.404,99.826L555.61,99.826Z" style="fill:rgb(141,0,255);fill-rule:nonzero;"/>
    <path id="w_4" d="M647.594,100.528C640.488,100.528 635.42,99.072 632.389,96.162C629.357,93.251 627.843,88.755 627.843,82.675L627.843,76.595L642.983,76.595L642.983,82.168C642.983,86.171 644.202,88.171 646.638,88.171C647.768,88.171 648.66,87.782 649.312,87.002C649.966,86.223 650.291,85.196 650.291,83.922C650.291,82.259 650.038,80.856 649.53,79.712C649.024,78.569 648.255,77.485 647.225,76.458C646.195,75.432 644.505,74.009 642.156,72.189L635.674,67.162C630.453,63.135 627.843,58.586 627.843,53.519C627.843,48.01 629.416,43.911 632.563,41.222C635.709,38.532 640.039,37.188 645.549,37.188L648.247,37.188C649.669,37.188 651.495,37.48 653.73,38.065C655.962,38.65 657.949,39.624 659.69,40.988C661.429,42.353 662.734,44.249 663.605,46.679C664.475,49.108 664.91,52.078 664.91,55.585L649.378,55.585L649.291,51.844C649.263,51.141 648.929,50.518 648.29,49.973C647.653,49.426 646.942,49.153 646.159,49.153C645.143,49.153 644.28,49.433 643.57,49.992C642.86,50.551 642.505,51.272 642.505,52.155C642.505,53.922 643.939,55.845 646.811,57.925L656.079,64.628C657.587,65.719 658.899,66.831 660.015,67.962C661.132,69.091 662.016,70.208 662.669,71.314C663.323,72.418 663.852,73.418 664.258,74.315C664.663,75.211 664.946,76.185 665.105,77.238C665.266,78.289 665.36,79.084 665.389,79.616C665.417,80.149 665.432,80.844 665.432,81.701C665.432,83.883 665.273,85.865 664.953,87.645C664.635,89.424 664.069,91.14 663.256,92.79C662.444,94.44 661.379,95.817 660.059,96.921C658.74,98.026 657.027,98.903 654.924,99.552C652.822,100.202 650.379,100.528 647.594,100.528ZM828.423,73.086L828.423,84.819C828.423,90.223 826.712,94.193 823.289,96.727C819.866,99.261 815.086,100.528 808.937,100.528C803.484,100.528 799.035,99.13 795.624,96.337C792.201,93.543 790.489,89.574 790.489,84.43L790.489,55.624C790.489,49.466 791.993,44.86 795.025,41.808C798.057,38.754 802.812,37.227 809.279,37.227C811.92,37.227 814.352,37.52 816.59,38.103C818.827,38.688 820.795,39.553 822.531,40.695C824.255,41.839 825.612,43.341 826.59,45.197C827.58,47.056 828.069,49.194 828.069,51.609L828.069,62.563L812.934,62.563L812.934,55.352C812.934,51.635 811.712,49.777 809.279,49.777C807.824,49.777 806.871,50.188 806.406,51.006C805.942,51.825 805.709,52.962 805.709,54.416L805.709,83.767C805.709,85.04 806.039,86.145 806.687,87.08C807.347,88.015 808.203,88.482 809.279,88.482C810.269,88.482 811.125,88.138 811.846,87.449C812.568,86.761 812.934,85.532 812.934,83.767L812.934,73.086L828.423,73.086ZM708.814,83.376L708.814,37.734L723.695,37.734L723.695,82.441C723.695,83.117 723.702,83.649 723.715,84.04C723.731,84.43 723.803,84.962 723.933,85.638C724.065,86.314 724.253,86.845 724.499,87.235C724.746,87.625 725.116,87.97 725.609,88.268C726.102,88.568 726.711,88.717 727.435,88.717C728.046,88.717 728.575,88.627 729.024,88.444C729.473,88.261 729.828,87.984 730.09,87.606C730.35,87.229 730.56,86.866 730.72,86.515C730.88,86.163 730.989,85.696 731.047,85.111C731.105,84.526 731.141,84.079 731.157,83.767C731.17,83.454 731.178,83.013 731.178,82.441L731.178,37.734L746.058,37.734L746.058,83.376C746.058,88.99 744.555,93.251 741.554,96.162C738.552,99.072 733.876,100.514 727.524,100.487C721.055,100.514 716.321,99.072 713.318,96.162C710.316,93.251 708.814,88.99 708.814,83.376ZM872.763,99.826L872.763,37.734L903.387,37.734L903.387,49.777L888.338,49.777L888.338,61.899L902.775,61.899L902.775,73.553L888.338,73.553L888.338,87.704L904.389,87.704L904.389,99.826L872.763,99.826ZM906.7,99.826L906.7,37.734L937.335,37.734L937.335,49.777L922.274,49.777L922.274,61.899L936.724,61.899L936.724,73.553L922.274,73.553L922.274,87.704L938.325,87.704L938.325,99.826L906.7,99.826ZM787.433,37.734L787.433,99.826L772.47,99.826L764.817,68.76L764.817,99.826L749.845,99.826L749.845,37.734L765.599,37.734L772.641,67.435L772.641,37.734L787.433,37.734ZM682.577,71.644L682.577,99.826L667.351,99.826L667.351,37.734L682.577,37.734L682.577,59.913L689.799,59.913L689.799,37.734L705.026,37.734L705.026,99.826L689.799,99.826L689.799,71.644L682.577,71.644ZM846.308,71.644L846.308,99.826L831.076,99.826L831.076,37.734L846.308,37.734L846.308,59.913L853.533,59.913L853.533,37.734L868.753,37.734L868.753,99.826L853.533,99.826L853.533,71.644L846.308,71.644ZM940.123,99.787L940.123,88.171L955.697,88.171L955.697,99.787L940.123,99.787ZM958.656,99.787L958.656,88.171L974.23,88.171L974.23,99.787L958.656,99.787ZM940.123,37.734L955.697,37.734L952.653,82.715L943.167,82.715L940.123,37.734ZM958.656,37.734L974.23,37.734L971.186,82.715L961.7,82.715L958.656,37.734Z" style="fill:rgb(141,0,255);fill-rule:nonzero;"/>
</svg>
