<svg width="100%" height="100%" viewBox="0 0 1200 300" version="1.1" xmlns="http://www.w3.org/2000/svg" xmlns:xlink="http://www.w3.org/1999/xlink" xml:space="preserve" xmlns:serif="http://www.serif.com/" style="fill-rule:evenodd;clip-rule:evenodd;stroke-linejoin:round;stroke-miterlimit:2;">
    <ellipse id="L_1_origin" cx="160.25" cy="220.248" rx="0.25" ry="0.248" style="fill:none;"/>
    <path id="L_5" d="M213.706,156.709C213.183,162.775 209.836,180.69 209.836,180.69C209.836,180.69 174.246,188.488 172.689,194.641C171.116,200.856 168.649,209.141 168.153,214.174C167.65,219.28 166.635,229.167 173.135,224.807C186.219,216.029 221.507,202.977 240.599,197.456C255.438,193.166 288.266,181.823 308.505,177.879C323.829,174.893 331.612,184.878 364.61,179.961C379.697,177.713 393.883,168.531 406.092,169C419.76,169.526 421.324,180.587 439.013,180.257C452.298,180.009 468.063,167.065 477.9,166.934C487.132,166.812 515.217,179.394 525.936,178.821C548.911,177.592 557.669,167.611 564.477,168C574.847,168.593 585.267,176.639 602.464,176.54C619.094,176.445 628.706,159.029 642.169,159C666.506,158.948 678.034,174.976 693.802,176.996C724.956,180.988 772.048,171.078 778.528,174.353C780.265,175.232 785.793,177.362 788.171,177.339C790.883,177.313 794.626,156.932 794.004,155.008C791.992,148.825 785.062,149.482 778.759,150C768.178,150.87 708.162,162.763 692.406,157.34C680.123,153.115 656.294,133.435 639.578,135.243C623.701,136.962 615.633,149.798 603.51,150C590.375,150.219 580.27,140.461 565.852,140.767C554.126,141.014 538.374,154.083 526.165,154.387C515.766,154.647 492.077,136.502 481.546,136.802C468.613,137.17 450.696,151.906 437.902,151.674C423.92,151.42 419.714,148.647 403.894,149.313C385.816,150.075 373.033,158.499 361.958,160.82C328.119,167.913 325.4,155.78 307.759,158.165C288.473,160.772 247.06,176.377 235.851,176.506C237.368,167.567 239.358,158.347 240.113,144.205C240.297,140.749 240.481,135.279 237.416,134.735C233.416,134.024 184.126,127.973 179.57,123.693C171.415,116.03 173.585,146.043 179.685,151.625C183.779,155.371 205.759,156.639 213.706,156.709Z" style="fill:rgb(255,213,0);"/>
    <path id="L_4" d="M542.681,216.518C509.176,220.389 458.44,226.497 427.572,233.989C402.668,240.033 376.044,252.502 368.935,257.566C366.612,259.222 364.119,261.787 362.816,263.968C362.034,265.276 366.224,278.85 367.092,278.91C369.335,279.065 372.925,276.892 377.271,273.996C394.363,262.608 440.054,251.403 449.326,249.758C512.394,238.572 559.231,231.462 595.803,226.872C599.187,226.447 635.531,222.298 641.757,224.99C644.571,226.208 658.185,236.702 659.322,236.276C662.085,235.245 666.088,234.81 668.312,232.84C669.208,232.049 666.654,206.942 660.256,206.608C651.398,206.147 648.047,206.06 636.993,206.2C622.573,206.385 594.438,210.343 565.806,213.827C564.466,213.991 563.014,214.164 561.458,214.347C562.657,213.139 563.557,211.886 564.032,210.826C564.578,209.608 564.643,202.518 564.393,201.665C563.997,200.311 551.147,199.025 541.599,198.045C536.958,197.569 506.98,197.422 504.598,197.477C502.226,197.532 469.407,198.842 466.024,199.159C463.99,199.35 453.549,200.896 444.447,202.084C429.499,204.036 422.41,199.066 419.668,204.394C418.683,206.308 421.85,221.772 423.555,223.196C425.983,225.228 429.456,227.715 432.688,226.579C438.345,224.59 481.163,216.745 494.595,216.179C518.67,215.164 532.062,214.754 542.681,216.518Z" style="fill:rgb(255,13,0);"/>
    <path id="L_3" d="M678.47,117.185C676.78,113.699 656.05,122.085 655.33,124.498C651.45,137.5 659.83,201.858 667.52,209.16C670.92,212.391 690.21,198.709 690.05,195.878C689.76,190.98 682.02,124.484 678.47,117.185ZM743.56,124.458C742.89,128.946 736.29,189.759 737.5,196.196C738.86,203.452 754.71,207.94 755.95,207.05C759.39,204.606 769.85,133.781 768.89,129.009C767.83,123.739 743.72,123.364 743.56,124.458ZM700.73,120.856C700.51,121.127 703.38,195.699 706.14,200.599C708.33,204.484 720.73,205.837 722.32,203.345C724.78,199.522 730.01,132.117 727.92,122.848C726.89,118.319 703.56,117.378 700.73,120.856Z" style="fill:rgb(3,255,0);"/>
    <path id="L_2" d="M324.023,121.949C331.4,108.202 348.05,100.357 348.729,100.048C349.028,100.264 358.191,106.977 360.981,110C372.61,122.598 380.572,139.262 379.222,162.563C378.394,176.87 373.15,188.51 360.283,204.985C356.831,209.404 350.569,215.632 343.393,220.382C338.913,223.347 334.109,225.756 329.401,226.583C327.613,226.897 324.578,226.728 321.259,226.361C315.909,225.769 309.894,224.564 306.897,223.217C302.167,221.089 300.175,218.811 298.198,217.664C296.043,216.412 286.061,217.796 284.718,218.579C283.291,219.412 281.41,229.848 274.219,239.865C271.8,243.235 268.351,246.14 262.509,246.823C259.748,247.145 257.166,245.932 254.975,243.99C251.019,240.482 248.72,235.491 250.406,228.676C250.976,226.37 252.623,222.259 254.603,219.704C256.3,217.516 231.968,208.718 228.976,212.371C224.616,217.695 219.916,226.626 223.811,242.373C225.805,250.439 238.237,270.377 265.318,268.332C274.405,267.646 285.601,262.1 289.869,257.223C295.64,250.628 297.387,246.115 298.21,243.311C299.873,244.57 302.606,246.22 307.513,248.066C315.027,250.893 325.151,254.591 335.823,253.276C353.061,251.152 364.097,247.021 374.2,239.053C391.276,225.586 407.896,203.039 412.391,173.071C415.338,153.424 413.431,125.233 399.298,107.362C384.888,89.141 371.377,79.961 359.143,78.006C346.704,76.018 334.387,78.451 327.528,81.463C321.581,84.075 312.868,89.089 304.506,97.533C297.756,104.35 292.374,115.376 292.932,122.452C293.053,124 314.803,132.375 318.552,130.822C321.86,129.451 322.029,125.665 324.023,121.949ZM298.154,149.685C296.822,148.005 280.021,144.857 277.574,146.82C272.259,151.082 266.936,164.019 264.504,170.463C260.757,180.389 259.586,201.736 263.986,208.038C264.844,209.268 285.211,210.531 286.718,207.548C288.817,203.394 289.467,190.728 292.367,175.027C293.923,166.604 298.89,150.615 298.154,149.685Z" style="fill:rgb(0,204,255);"/>
    <path id="L_1" d="M144.072,224.283C145.124,202.237 143.67,180.406 142.956,168.767C142.843,166.928 140.926,164.254 138.403,164.266C132.168,164.297 78.806,170.609 75.429,173.845C74.385,174.845 78.377,196.78 82.261,214.507C84.911,226.603 89.829,239.712 97.068,257.8C88.109,262.277 82.313,263.785 73.709,265.168C62.588,266.955 51.386,265.018 43.254,259.915C36.406,255.619 32.271,247.569 31.471,240.253C30.089,227.595 36.815,214.35 49.2,200.028C60.596,186.848 69.547,176.224 78.182,160.94C90.304,139.483 93.733,128.18 91.65,124.789C90.013,122.123 85.941,120.251 83.621,119.171C79.544,117.273 64.276,111.145 63.053,113.736C61.258,117.537 57.129,123.603 59.451,124.673C60.557,125.183 65.742,129.286 65.823,131.157C65.947,134.028 63.392,143.3 56.688,152.608C49.27,162.906 42.763,169.22 29.417,182.794C22.856,189.469 1.628,203.704 1,229.618C1.173,240.278 3.394,254.118 11.158,264.448C22.303,279.278 40.449,290.487 66.317,288.975C82.077,288.054 102.506,283.435 110.479,280.283C135.894,270.231 165.651,253.558 181.744,208.05C192.79,176.811 190.279,150.401 185.979,134.576C184.556,129.336 182.736,124.434 181.021,122.263C179.684,120.572 157.965,127.776 157.78,129.668C157.464,132.885 158.818,137.55 159.035,138.978C163.237,166.473 160.673,195.53 144.072,224.283ZM115.063,247.449C116.115,246.661 122.355,242.933 122.355,242.933C122.371,234.796 118.729,188.766 118.752,183.938C118.757,182.947 98.108,185.333 98.301,187.287C99.822,202.709 107.949,231.773 115.063,247.449ZM84.064,71.562C75.584,65.231 67.582,53.08 62.294,53.598C58.6,53.959 48.697,66.834 49.423,75.495C49.819,80.215 60.38,91.797 64.501,95.335C76.742,105.842 96.222,114.882 120.337,117.764C136.95,119.749 141.812,119.431 145.279,118.051C152.3,115.259 152.206,94.018 147.844,94.176C143.784,94.322 133.833,93.882 129.488,93.11C101.216,88.086 96.507,80.851 84.064,71.562ZM105.524,1C98.673,0.621 83.291,15.392 82.949,21.043C82.5,28.495 83.646,36.151 90.618,47.439C100.916,64.111 111.952,71.229 124.207,77.284C141.906,86.027 168.389,85.94 175.858,83.874C186.764,80.856 186.082,57.509 181.094,57.156C174.451,56.687 138.391,47.237 130.3,37.476C120.891,26.124 113.389,12.714 110.992,7.198C109.667,4.147 107.898,1.131 105.524,1Z" style="fill:rgb(255,0,126);"/>
    <path id="w_1" d="M650.349,79.603C644.537,79.603 640.391,78.412 637.911,76.032C635.432,73.651 634.192,69.973 634.192,65L634.192,60.026L646.577,60.026L646.577,64.585C646.577,67.859 647.573,69.495 649.566,69.495C650.492,69.495 651.221,69.177 651.755,68.539C652.289,67.902 652.556,67.062 652.556,66.02C652.556,64.659 652.349,63.512 651.933,62.576C651.518,61.641 650.89,60.754 650.047,59.914C649.205,59.075 647.822,57.911 645.901,56.422L640.598,52.31C636.328,49.016 634.192,45.295 634.192,41.15C634.192,36.644 635.479,33.291 638.054,31.091C640.628,28.891 644.168,27.791 648.677,27.791L650.883,27.791C652.046,27.791 653.541,28.03 655.367,28.509C657.195,28.987 658.819,29.784 660.242,30.9C661.667,32.016 662.734,33.567 663.446,35.555C664.158,37.542 664.514,39.971 664.514,42.84L651.808,42.84L651.737,39.78C651.713,39.205 651.441,38.695 650.919,38.249C650.397,37.802 649.815,37.579 649.175,37.579C648.345,37.579 647.639,37.808 647.058,38.265C646.476,38.722 646.185,39.312 646.185,40.034C646.185,41.48 647.36,43.053 649.709,44.754L657.289,50.237C658.523,51.13 659.597,52.039 660.51,52.964C661.423,53.888 662.147,54.802 662.681,55.706C663.214,56.609 663.647,57.427 663.98,58.161C664.312,58.894 664.543,59.691 664.674,60.552C664.804,61.412 664.881,62.062 664.905,62.497C664.929,62.933 664.941,63.502 664.941,64.203C664.941,65.988 664.81,67.609 664.549,69.065C664.288,70.52 663.825,71.924 663.161,73.274C662.497,74.623 661.625,75.75 660.545,76.653C659.466,77.557 658.066,78.274 656.346,78.805C654.626,79.337 652.628,79.603 650.349,79.603ZM632.872,28.238L632.872,38.089L620.559,38.089L620.559,48.005L632.375,48.005L632.375,57.538L620.559,57.538L620.559,69.113L633.692,69.113L633.692,79.029L607.818,79.029L607.818,29.689L598.278,62.322L598.278,79.029L586.462,79.029L586.462,62.322L576.462,28.238L588.882,28.238L592.371,45.455L595.858,28.238L632.872,28.238ZM666.082,78.997L666.082,69.495L678.823,69.495L678.823,78.997L666.082,78.997ZM681.246,78.997L681.246,69.495L693.987,69.495L693.987,78.997L681.246,78.997ZM666.082,28.238L678.823,28.238L676.331,65.032L668.573,65.032L666.082,28.238ZM681.246,28.238L693.987,28.238L691.495,65.032L683.737,65.032L681.246,28.238Z" style="fill:rgb(141,0,255);fill-rule:nonzero;"/>
    <path id="w_2" d="M801.193,79.603C795.38,79.603 791.234,78.412 788.755,76.032C786.275,73.651 785.035,69.973 785.035,65L785.035,60.026L797.42,60.026L797.42,64.585C797.42,67.859 798.417,69.495 800.41,69.495C801.335,69.495 802.065,69.177 802.598,68.539C803.132,67.902 803.399,67.062 803.399,66.02C803.399,64.659 803.192,63.512 802.776,62.576C802.361,61.641 801.733,60.754 800.891,59.914C800.048,59.075 798.666,57.911 796.744,56.422L791.441,52.31C787.171,49.016 785.035,45.295 785.035,41.15C785.035,36.644 786.323,33.291 788.897,31.091C791.471,28.891 795.013,27.791 799.52,27.791L801.727,27.791C802.889,27.791 804.384,28.03 806.21,28.509C808.038,28.987 809.662,29.784 811.087,30.9C812.51,32.016 813.577,33.567 814.29,35.555C815.001,37.542 815.357,39.971 815.357,42.84L802.651,42.84L802.581,39.78C802.557,39.205 802.284,38.695 801.762,38.249C801.24,37.802 800.658,37.579 800.018,37.579C799.188,37.579 798.482,37.808 797.901,38.265C797.319,38.722 797.029,39.312 797.029,40.034C797.029,41.48 798.203,43.053 800.552,44.754L808.133,50.237C809.367,51.13 810.44,52.039 811.353,52.964C812.266,53.888 812.99,54.802 813.524,55.706C814.057,56.609 814.491,57.427 814.823,58.161C815.155,58.894 815.386,59.691 815.517,60.552C815.647,61.412 815.725,62.062 815.748,62.497C815.772,62.933 815.784,63.502 815.784,64.203C815.784,65.988 815.654,67.609 815.392,69.065C815.132,70.52 814.669,71.924 814.004,73.274C813.34,74.623 812.468,75.75 811.389,76.653C810.309,77.557 808.909,78.274 807.189,78.805C805.469,79.337 803.471,79.603 801.193,79.603ZM708.619,28.238L736.021,28.238L736.021,38.025L728.584,38.025L728.584,79.029L716.057,79.029L716.057,38.025L708.619,38.025L708.619,28.238ZM771.046,79.029L771.046,28.238L783.147,28.238L783.147,79.029L771.046,79.029ZM749.406,55.976L749.406,79.029L736.951,79.029L736.951,28.238L749.406,28.238L749.406,46.38L755.313,46.38L755.313,28.238L767.77,28.238L767.77,79.029L755.313,79.029L755.313,55.976L749.406,55.976Z" style="fill:rgb(141,0,255);fill-rule:nonzero;"/>
    <path id="w_3" d="M861.666,79.603C855.853,79.603 851.707,78.412 849.228,76.032C846.748,73.651 845.509,69.973 845.509,65L845.509,60.026L857.894,60.026L857.894,64.585C857.894,67.859 858.891,69.495 860.882,69.495C861.808,69.495 862.538,69.177 863.071,68.539C863.605,67.902 863.872,67.062 863.872,66.02C863.872,64.659 863.665,63.512 863.249,62.576C862.835,61.641 862.206,60.754 861.364,59.914C860.521,59.075 859.139,57.911 857.217,56.422L851.915,52.31C847.644,49.016 845.509,45.295 845.509,41.15C845.509,36.644 846.796,33.291 849.37,31.091C851.944,28.891 855.486,27.791 859.993,27.791L862.2,27.791C863.363,27.791 864.857,28.03 866.683,28.509C868.511,28.987 870.136,29.784 871.56,30.9C872.983,32.016 874.05,33.567 874.763,35.555C875.474,37.542 875.83,39.971 875.83,42.84L863.125,42.84L863.054,39.78C863.031,39.205 862.758,38.695 862.235,38.249C861.713,37.802 861.132,37.579 860.492,37.579C859.661,37.579 858.955,37.808 858.374,38.265C857.793,38.722 857.501,39.312 857.501,40.034C857.501,41.48 858.676,43.053 861.025,44.754L868.606,50.237C869.839,51.13 870.913,52.039 871.826,52.964C872.739,53.888 873.463,54.802 873.997,55.706C874.531,56.609 874.965,57.427 875.297,58.161C875.628,58.894 875.86,59.691 875.99,60.552C876.12,61.412 876.197,62.062 876.221,62.497C876.245,62.933 876.257,63.502 876.257,64.203C876.257,65.988 876.127,67.609 875.865,69.065C875.605,70.52 875.142,71.924 874.477,73.274C873.813,74.623 872.941,75.75 871.862,76.653C870.783,77.557 869.382,78.274 867.662,78.805C865.942,79.337 863.944,79.603 861.666,79.603ZM831.519,79.029L831.519,28.238L843.62,28.238L843.62,79.029L831.519,79.029Z" style="fill:rgb(141,0,255);fill-rule:nonzero;"/>
    <path id="w_4" d="M906.762,79.603C900.949,79.603 896.803,78.412 894.324,76.032C891.844,73.651 890.605,69.973 890.605,65L890.605,60.026L902.99,60.026L902.99,64.585C902.99,67.859 903.987,69.495 905.98,69.495C906.904,69.495 907.634,69.177 908.167,68.539C908.702,67.902 908.968,67.062 908.968,66.02C908.968,64.659 908.761,63.512 908.345,62.576C907.931,61.641 907.302,60.754 906.46,59.914C905.617,59.075 904.235,57.911 902.313,56.422L897.011,52.31C892.74,49.016 890.605,45.295 890.605,41.15C890.605,36.644 891.892,33.291 894.466,31.091C897.04,28.891 900.582,27.791 905.089,27.791L907.296,27.791C908.459,27.791 909.953,28.03 911.781,28.509C913.607,28.987 915.232,29.784 916.656,30.9C918.079,32.016 919.146,33.567 919.859,35.555C920.57,37.542 920.926,39.971 920.926,42.84L908.221,42.84L908.15,39.78C908.127,39.205 907.854,38.695 907.331,38.249C906.81,37.802 906.228,37.579 905.588,37.579C904.757,37.579 904.051,37.808 903.47,38.265C902.889,38.722 902.599,39.312 902.599,40.034C902.599,41.48 903.772,43.053 906.121,44.754L913.702,50.237C914.936,51.13 916.009,52.039 916.922,52.964C917.836,53.888 918.559,54.802 919.093,55.706C919.628,56.609 920.061,57.427 920.393,58.161C920.724,58.894 920.956,59.691 921.086,60.552C921.217,61.412 921.294,62.062 921.318,62.497C921.341,62.933 921.353,63.502 921.353,64.203C921.353,65.988 921.223,67.609 920.961,69.065C920.701,70.52 920.238,71.924 919.573,73.274C918.909,74.623 918.038,75.75 916.958,76.653C915.879,77.557 914.478,78.274 912.758,78.805C911.038,79.337 909.04,79.603 906.762,79.603ZM1054.68,57.156L1054.68,66.753C1054.68,71.174 1053.28,74.421 1050.48,76.494C1047.68,78.567 1043.77,79.603 1038.74,79.603C1034.28,79.603 1030.64,78.46 1027.85,76.175C1025.05,73.89 1023.65,70.643 1023.65,66.435L1023.65,42.872C1023.65,37.835 1024.88,34.067 1027.36,31.57C1029.84,29.072 1033.73,27.823 1039.02,27.823C1041.18,27.823 1043.17,28.063 1045,28.54C1046.83,29.018 1048.44,29.726 1049.86,30.66C1051.27,31.596 1052.38,32.824 1053.18,34.343C1053.99,35.863 1054.39,37.612 1054.39,39.588L1054.39,48.548L1042.01,48.548L1042.01,42.649C1042.01,39.609 1041.01,38.089 1039.02,38.089C1037.83,38.089 1037.05,38.425 1036.67,39.094C1036.29,39.764 1036.1,40.694 1036.1,41.884L1036.1,65.893C1036.1,66.934 1036.37,67.838 1036.9,68.603C1037.44,69.368 1038.14,69.75 1039.02,69.75C1039.83,69.75 1040.53,69.468 1041.12,68.905C1041.71,68.342 1042.01,67.337 1042.01,65.893L1042.01,57.156L1054.68,57.156ZM956.84,65.573L956.84,28.238L969.012,28.238L969.012,64.808C969.012,65.361 969.018,65.796 969.029,66.116C969.042,66.435 969.101,66.87 969.207,67.423C969.315,67.976 969.469,68.411 969.67,68.73C969.872,69.049 970.175,69.331 970.578,69.575C970.981,69.82 971.479,69.942 972.072,69.942C972.571,69.942 973.004,69.868 973.371,69.719C973.739,69.569 974.029,69.342 974.243,69.033C974.456,68.725 974.628,68.428 974.759,68.141C974.89,67.853 974.979,67.471 975.026,66.992C975.074,66.514 975.103,66.148 975.116,65.893C975.127,65.637 975.133,65.276 975.133,64.808L975.133,28.238L987.305,28.238L987.305,65.573C987.305,70.165 986.076,73.651 983.621,76.032C981.165,78.412 977.34,79.592 972.144,79.57C966.853,79.592 962.98,78.412 960.524,76.032C958.068,73.651 956.84,70.165 956.84,65.573ZM1090.95,79.029L1090.95,28.238L1116,28.238L1116,38.089L1103.69,38.089L1103.69,48.005L1115.5,48.005L1115.5,57.538L1103.69,57.538L1103.69,69.113L1116.82,69.113L1116.82,79.029L1090.95,79.029ZM1118.71,79.029L1118.71,28.238L1143.77,28.238L1143.77,38.089L1131.45,38.089L1131.45,48.005L1143.27,48.005L1143.27,57.538L1131.45,57.538L1131.45,69.113L1144.58,69.113L1144.58,79.029L1118.71,79.029ZM1021.15,28.238L1021.15,79.029L1008.91,79.029L1002.65,53.617L1002.65,79.029L990.403,79.029L990.403,28.238L1003.29,28.238L1009.05,52.533L1009.05,28.238L1021.15,28.238ZM935.378,55.976L935.378,79.029L922.923,79.029L922.923,28.238L935.378,28.238L935.378,46.38L941.285,46.38L941.285,28.238L953.741,28.238L953.741,79.029L941.285,79.029L941.285,55.976L935.378,55.976ZM1069.31,55.976L1069.31,79.029L1056.85,79.029L1056.85,28.238L1069.31,28.238L1069.31,46.38L1075.22,46.38L1075.22,28.238L1087.67,28.238L1087.67,79.029L1075.22,79.029L1075.22,55.976L1069.31,55.976ZM1146.05,78.997L1146.05,69.495L1158.79,69.495L1158.79,78.997L1146.05,78.997ZM1161.21,78.997L1161.21,69.495L1173.95,69.495L1173.95,78.997L1161.21,78.997ZM1146.05,28.238L1158.79,28.238L1156.3,65.032L1148.54,65.032L1146.05,28.238ZM1161.21,28.238L1173.95,28.238L1171.46,65.032L1163.7,65.032L1161.21,28.238Z" style="fill:rgb(141,0,255);fill-rule:nonzero;"/>
    <g transform="matrix(1,0,0,0.894273,0,10.2555)">
        <path d="M826,107.064L811,324L1174,290.453L1170,127L826,107.064Z" style="fill:rgb(255,245,0);"/>
    </g>
    <g id="shop" transform="matrix(1.0475,0,1.78408e-17,0.685014,837.644,235.951)">
        <path d="M57.429,-112.927C57.429,-110.46 56.651,-108.315 55.096,-106.492C53.541,-104.669 51.691,-103.168 49.546,-101.988C47.616,-100.808 45.632,-99.548 43.594,-98.208C41.557,-96.867 39.68,-95.366 37.964,-93.703C36.248,-92.041 34.854,-90.191 33.781,-88.154C32.709,-86.116 32.173,-83.81 32.173,-81.236C32.173,-78.984 32.709,-76.947 33.781,-75.124C34.854,-73.3 36.168,-71.504 37.723,-69.735C39.278,-67.965 40.994,-66.142 42.87,-64.265C44.747,-62.389 46.463,-60.297 48.018,-57.992C49.573,-55.686 50.887,-53.085 51.959,-50.19C53.032,-47.294 53.568,-43.916 53.568,-40.055C53.568,-37.374 53.005,-34.345 51.879,-30.966C50.753,-27.588 49.224,-24.183 47.294,-20.751C45.364,-17.32 43.085,-13.995 40.457,-10.778C37.83,-7.561 35.042,-4.692 32.092,-2.172C29.143,0.349 26.06,2.386 22.843,3.941C19.625,5.496 16.515,6.274 13.513,6.274C10.188,6.274 7.239,5.362 4.665,3.539C2.091,1.716 0.804,-1.019 0.804,-4.665C0.804,-7.132 1.394,-9.411 2.574,-11.502C3.753,-13.593 5.201,-15.604 6.917,-17.534C8.633,-19.465 10.537,-21.341 12.628,-23.164C14.719,-24.988 16.623,-26.811 18.339,-28.634C20.054,-30.457 21.502,-32.361 22.682,-34.345C23.862,-36.329 24.451,-38.447 24.451,-40.699C24.451,-43.809 23.352,-46.999 21.154,-50.27C18.955,-53.541 16.515,-56.919 13.834,-60.405C11.153,-63.89 8.713,-67.456 6.515,-71.102C4.317,-74.748 3.217,-78.448 3.217,-82.202C3.217,-86.813 4.451,-91.666 6.917,-96.76C9.384,-101.854 12.547,-106.519 16.408,-110.755C20.269,-114.991 24.612,-118.503 29.438,-121.292C34.264,-124.08 39.036,-125.474 43.755,-125.474C47.509,-125.474 50.726,-124.348 53.407,-122.096C56.088,-119.844 57.429,-116.787 57.429,-112.927Z" style="fill:rgb(255,0,126);fill-rule:nonzero;"/>
        <path d="M136.091,-41.664C136.091,-39.841 136.064,-37.133 136.011,-33.54C135.957,-29.948 135.796,-26.194 135.528,-22.28C135.26,-18.365 134.911,-14.665 134.483,-11.18C134.054,-7.695 133.517,-5.148 132.874,-3.539C132.016,-1.501 130.89,0.268 129.496,1.77C128.102,3.271 126.225,4.022 123.865,4.022C120.219,4.022 117.592,2.574 115.983,-0.322C114.374,-3.217 113.302,-6.81 112.766,-11.1C112.23,-15.389 112.015,-20.054 112.122,-25.095C112.23,-30.135 112.176,-34.8 111.962,-39.09C111.747,-43.38 111.157,-46.972 110.192,-49.868C109.227,-52.763 107.457,-54.211 104.883,-54.211C101.344,-54.211 98.637,-53.648 96.76,-52.522C94.883,-51.396 93.543,-49.922 92.738,-48.098C91.934,-46.275 91.451,-44.184 91.29,-41.825C91.13,-39.465 90.942,-36.999 90.727,-34.425C90.513,-31.958 90.352,-28.634 90.245,-24.451C90.138,-20.269 89.655,-16.14 88.797,-12.065C87.939,-7.99 86.518,-4.477 84.534,-1.528C82.55,1.421 79.628,2.896 75.767,2.896C73.408,2.896 71.504,1.984 70.056,0.161C68.609,-1.662 67.456,-4.022 66.598,-6.917C65.74,-9.813 65.123,-13.03 64.748,-16.569C64.373,-20.108 64.158,-23.567 64.104,-26.945C64.051,-30.323 64.051,-33.406 64.104,-36.194C64.158,-38.983 64.185,-41.074 64.185,-42.468C64.185,-44.613 64.265,-48.152 64.426,-53.085C64.587,-58.018 64.936,-63.515 65.472,-69.574C66.008,-75.633 66.705,-81.88 67.563,-88.314C68.421,-94.749 69.547,-100.621 70.941,-105.929C72.335,-111.238 74.024,-115.554 76.008,-118.879C77.992,-122.203 80.325,-123.812 83.006,-123.705C84.722,-123.597 86.196,-122.847 87.43,-121.453C88.663,-120.058 89.682,-118.262 90.486,-116.064C91.29,-113.865 91.961,-111.479 92.497,-108.905C93.033,-106.331 93.435,-103.784 93.703,-101.264C93.972,-98.744 94.132,-96.411 94.186,-94.266C94.24,-92.122 94.266,-90.459 94.266,-89.28C94.266,-86.491 94.213,-83.703 94.106,-80.915C93.998,-78.126 93.837,-75.338 93.623,-72.55C96.09,-75.874 99.387,-78.609 103.516,-80.754C107.645,-82.899 111.801,-83.971 115.983,-83.971C121.345,-83.971 125.394,-82.497 128.128,-79.547C130.863,-76.598 132.82,-72.952 134,-68.609C135.18,-64.265 135.823,-59.654 135.93,-54.774C136.038,-49.895 136.091,-45.525 136.091,-41.664Z" style="fill:rgb(255,0,126);fill-rule:nonzero;"/>
        <path d="M178.077,4.665C172.607,4.665 167.835,3.217 163.76,0.322C159.685,-2.574 156.253,-6.274 153.465,-10.778C150.676,-15.282 148.585,-20.296 147.191,-25.819C145.797,-31.342 145.1,-36.784 145.1,-42.146C145.1,-47.83 145.797,-53.702 147.191,-59.761C148.585,-65.82 150.73,-71.343 153.625,-76.33C156.521,-81.317 160.221,-85.392 164.725,-88.556C169.229,-91.719 174.591,-93.301 180.811,-93.301C186.817,-93.301 191.938,-91.666 196.174,-88.395C200.41,-85.124 203.815,-81.049 206.389,-76.169C208.963,-71.29 210.786,-65.954 211.858,-60.163C212.931,-54.372 213.306,-48.903 212.984,-43.755C212.663,-38.071 211.778,-32.334 210.33,-26.543C208.882,-20.751 206.764,-15.55 203.976,-10.939C201.188,-6.327 197.649,-2.574 193.359,0.322C189.069,3.217 183.975,4.665 178.077,4.665ZM179.685,-68.046C178.077,-68.046 176.656,-67.188 175.422,-65.472C174.189,-63.756 173.17,-61.665 172.366,-59.198C171.562,-56.731 170.945,-54.131 170.516,-51.396C170.087,-48.661 169.873,-46.275 169.873,-44.238C169.873,-41.664 170.114,-38.876 170.597,-35.873C171.079,-32.87 171.749,-30.108 172.607,-27.588C173.465,-25.068 174.511,-22.977 175.744,-21.315C176.977,-19.652 178.398,-18.821 180.007,-18.821C181.723,-18.821 183.198,-19.625 184.431,-21.234C185.664,-22.843 186.656,-24.88 187.407,-27.347C188.158,-29.814 188.694,-32.521 189.016,-35.471C189.337,-38.42 189.498,-41.181 189.498,-43.755C189.498,-46.114 189.284,-48.715 188.855,-51.557C188.426,-54.399 187.809,-57.053 187.005,-59.52C186.2,-61.986 185.182,-64.024 183.948,-65.633C182.715,-67.241 181.294,-68.046 179.685,-68.046Z" style="fill:rgb(255,0,126);fill-rule:nonzero;"/>
        <path d="M294.864,-47.938C294.864,-43.219 294.355,-38.044 293.336,-32.414C292.317,-26.784 290.601,-21.556 288.188,-16.73C285.775,-11.904 282.612,-7.882 278.697,-4.665C274.783,-1.448 269.877,0.161 263.978,0.161C262.477,0.161 260.922,0.054 259.313,-0.161C257.705,-0.375 256.176,-0.751 254.729,-1.287C253.281,-1.823 251.967,-2.547 250.787,-3.459C249.608,-4.37 248.696,-5.577 248.053,-7.078L246.605,16.086C246.498,18.553 246.417,21.502 246.364,24.934C246.31,28.366 245.881,31.637 245.077,34.747C244.272,37.857 242.932,40.511 241.055,42.709C239.178,44.908 236.47,46.007 232.931,46.007C230.894,46.007 229.178,44.962 227.784,42.87C226.39,40.779 225.29,38.125 224.486,34.908C223.682,31.69 223.065,28.098 222.636,24.13C222.207,20.162 221.939,16.355 221.832,12.708C221.725,9.062 221.671,5.737 221.671,2.735L221.671,-3.861C221.671,-11.046 221.617,-18.204 221.51,-25.336C221.403,-32.468 221.349,-39.626 221.349,-46.811L221.349,-52.844C221.349,-55.579 221.456,-58.555 221.671,-61.772C221.885,-64.989 222.234,-68.314 222.717,-71.745C223.199,-75.177 223.923,-78.314 224.888,-81.156C225.853,-83.998 227.087,-86.304 228.588,-88.073C230.09,-89.843 231.913,-90.727 234.057,-90.727C235.452,-90.727 236.712,-90.325 237.838,-89.521C238.964,-88.717 239.929,-87.698 240.733,-86.465C241.538,-85.231 242.208,-83.918 242.744,-82.523C243.28,-81.129 243.709,-79.842 244.031,-78.663C247.356,-82.416 251.19,-85.258 255.533,-87.188C259.876,-89.119 264.514,-90.084 269.448,-90.084C274.595,-90.084 278.805,-88.636 282.075,-85.741C285.346,-82.845 287.92,-79.252 289.797,-74.963C291.674,-70.673 292.987,-66.088 293.738,-61.209C294.489,-56.329 294.864,-51.906 294.864,-47.938ZM271.861,-49.224C271.861,-50.833 271.727,-52.469 271.458,-54.131C271.19,-55.793 270.708,-57.348 270.011,-58.796C269.314,-60.244 268.322,-61.423 267.035,-62.335C265.748,-63.246 264.139,-63.702 262.209,-63.702C259.635,-63.702 256.927,-62.871 254.085,-61.209C251.243,-59.547 249.125,-57.643 247.731,-55.498C247.195,-54.64 246.873,-53.246 246.766,-51.316C246.659,-49.385 246.605,-47.938 246.605,-46.972C246.605,-46.222 246.632,-45.23 246.685,-43.996C246.739,-42.763 246.819,-41.503 246.927,-40.216C247.034,-38.929 247.168,-37.696 247.329,-36.516C247.49,-35.337 247.731,-34.425 248.053,-33.781C248.374,-32.816 249.071,-31.932 250.144,-31.127C251.216,-30.323 252.396,-29.599 253.683,-28.956C254.97,-28.312 256.284,-27.83 257.624,-27.508C258.965,-27.186 260.118,-27.025 261.083,-27.025C263.335,-27.025 265.158,-27.883 266.552,-29.599C267.946,-31.315 269.045,-33.353 269.85,-35.712C270.654,-38.071 271.19,-40.511 271.458,-43.031C271.727,-45.551 271.861,-47.616 271.861,-49.224Z" style="fill:rgb(255,0,126);fill-rule:nonzero;"/>
    </g>
		<style>
#L_1{
	transform-origin:calc(100% * 160/1000) calc(100% * 220/300);
	animation: rotate 1s;
   animation-iteration-count: infinite;
	animation-name: rotate;
	animation-timing-function: ease-in-out;
	animation-iteration-count: infinite;
	animation-direction: alternate;
}
#hair{
	transform-origin:calc(100% * 85/545) calc(100% * 85/171);
	animation: rotate 2s;
   animation-iteration-count: infinite;
	animation-name: rotate_hair;
	animation-timing-function: ease-in-out;
	animation-iteration-count: infinite;
	animation-direction: alternate;
	animation-duration: 3s;
}

#L_0{
	animation-name: return;
  animation-timing-function: ease-in-out;
  animation-iteration-count: infinite;
  animation-direction: alternate;
  animation-duration: 0.8s;
}
#L_2{
	animation-delay:500ms;
	animation-name: return;
  animation-timing-function: ease-in-out;
  animation-iteration-count: infinite;
  animation-direction: alternate;
  animation-duration: 1.5s;
}

#L_3{
	animation-name: return;
  animation-timing-function: ease-in-out;
  animation-iteration-count: infinite;
  animation-direction: alternate;
  animation-duration: 1s;
}

#L_4{
	animation-name: return;
  animation-timing-function: ease-in-out;
  animation-iteration-count: infinite;
  animation-direction: alternate;
  animation-duration: 1.4s;
}

#L_5{
	animation-name: return;
  animation-timing-function: ease-in-out;
  animation-iteration-count: infinite;
  animation-direction: alternate;
  animation-duration: 1.2s;
}

#w_1{
	animation-name: return;
  animation-timing-function: ease-in-out;
  animation-iteration-count: infinite;
  animation-direction: alternate;
  animation-duration: 2s;
}

#w_2{
	animation-name: return;
  animation-timing-function: ease-in-out;
  animation-iteration-count: infinite;
  animation-direction: alternate;
  animation-duration: 1.6s;
}
#w_3{
	animation-name: return;
  animation-timing-function: ease-in-out;
  animation-iteration-count: infinite;
  animation-direction: alternate;
  animation-duration: 0.8s;
}
#w_4{
	animation-delay:500ms;
	animation-name: return;
  animation-timing-function: ease-in-out;
  animation-iteration-count: infinite;
  animation-direction: alternate;
  animation-duration: 1.5s;
}

@keyframes return {
0% {
        transform: translate(0,0px);
    }
    100% {
        transform: translate(0,5px);
    }
}
@keyframes rotate {
	0% { transform: rotate(0deg); }
	10% { transform: rotate(-6deg); }
	20% { transform: rotate(0deg); }
	30% { transform: rotate(-6deg); }
	50%{ transform: rotate(0deg);}
	100% { transform: rotate(0deg); } 
}
@keyframes rotate_hair{
    0% { transform: rotate(5deg); }
    100% { transform: rotate(-10deg); } 
}
</style>
</svg>
