<svg width="100%" height="100%" viewBox="0 0 1200 300" version="1.1" xmlns="http://www.w3.org/2000/svg" xmlns:xlink="http://www.w3.org/1999/xlink" xml:space="preserve" xmlns:serif="http://www.serif.com/" style="fill-rule:evenodd;clip-rule:evenodd;stroke-linejoin:round;stroke-miterlimit:2;">
<style>
#L_1{
	transform-origin:calc(100% * 160/1000) calc(100% * 220/300);
	animation: rotate 1s;
   animation-iteration-count: infinite;
	animation-name: rotate;
	animation-timing-function: ease-in-out;
	animation-iteration-count: infinite;
	animation-direction: alternate;
}
#hair{
	transform-origin:calc(100% * 85/545) calc(100% * 85/171);
	animation: rotate 2s;
   animation-iteration-count: infinite;
	animation-name: rotate_hair;
	animation-timing-function: ease-in-out;
	animation-iteration-count: infinite;
	animation-direction: alternate;
	animation-duration: 3s;
}

#L_0{
	animation-name: return;
  animation-timing-function: ease-in-out;
  animation-iteration-count: infinite;
  animation-direction: alternate;
  animation-duration: 0.8s;
}
#L_2{
	animation-delay:500ms;
	animation-name: return;
  animation-timing-function: ease-in-out;
  animation-iteration-count: infinite;
  animation-direction: alternate;
  animation-duration: 1.5s;
}

#L_3{
	animation-name: return;
  animation-timing-function: ease-in-out;
  animation-iteration-count: infinite;
  animation-direction: alternate;
  animation-duration: 1s;
}

#L_4{
	animation-name: return;
  animation-timing-function: ease-in-out;
  animation-iteration-count: infinite;
  animation-direction: alternate;
  animation-duration: 1.4s;
}

#L_5{
	animation-name: return;
  animation-timing-function: ease-in-out;
  animation-iteration-count: infinite;
  animation-direction: alternate;
  animation-duration: 1.2s;
}

#w_1{
	animation-name: return;
  animation-timing-function: ease-in-out;
  animation-iteration-count: infinite;
  animation-direction: alternate;
  animation-duration: 2s;
}

#w_2{
	animation-name: return;
  animation-timing-function: ease-in-out;
  animation-iteration-count: infinite;
  animation-direction: alternate;
  animation-duration: 1.6s;
}
#w_3{
	animation-name: return;
  animation-timing-function: ease-in-out;
  animation-iteration-count: infinite;
  animation-direction: alternate;
  animation-duration: 0.8s;
}
#w_4{
	animation-delay:500ms;
	animation-name: return;
  animation-timing-function: ease-in-out;
  animation-iteration-count: infinite;
  animation-direction: alternate;
  animation-duration: 1.5s;
}

@keyframes return {
0% {
        transform: translate(0,0px);
    }
    100% {
        transform: translate(0,5px);
    }
}
@keyframes rotate {
	0% { transform: rotate(0deg); }
	10% { transform: rotate(-6deg); }
	20% { transform: rotate(0deg); }
	30% { transform: rotate(-6deg); }
	50%{ transform: rotate(0deg);}
	100% { transform: rotate(0deg); } 
}
@keyframes rotate_hair{
    0% { transform: rotate(5deg); }
    100% { transform: rotate(-10deg); } 
}
</style>
    <ellipse id="L_1_origin" cx="160.25" cy="220.248" rx="0.25" ry="0.248" style="fill:none;"/>
    <path id="L_5" d="M225.797,156.709C224.94,162.775 219.449,180.69 219.449,180.69C219.449,180.69 173.391,189.488 170.837,195.641C168.256,201.856 164.208,210.141 163.394,215.174C162.569,220.28 160.905,230.167 171.568,225.807C193.033,217.029 220.981,203.977 252.302,198.456C276.646,194.166 330.504,182.823 363.708,178.879C388.848,175.893 419.231,184.878 473.368,179.961C498.119,177.713 519.63,149.531 539.661,150C562.083,150.526 587.55,180.587 616.57,180.257C638.364,180.009 671.274,156.065 687.413,155.934C702.559,155.812 741.588,179.394 759.174,178.821C796.865,177.592 816.519,149.611 827.687,150C844.7,150.593 856.511,176.639 884.723,176.54C912.007,176.445 929.537,150.029 951.624,150C991.552,149.948 1006.94,180.976 1032.81,182.996C1083.92,186.988 1162.94,171.078 1173.57,174.353C1176.42,175.232 1185.49,177.362 1189.39,177.339C1193.84,177.313 1199.98,156.932 1198.96,155.008C1195.66,148.825 1184.29,149.482 1173.95,150C1156.59,150.87 1058.13,162.763 1032.28,157.34C1012.13,153.115 978.32,122.435 950.896,124.243C924.85,125.962 906.328,149.798 886.44,150C864.89,150.219 850.074,120.461 826.42,120.767C807.183,121.014 779.579,154.083 759.55,154.387C742.489,154.647 707.148,128.502 689.872,128.802C668.653,129.17 635.736,151.906 614.747,151.674C591.809,151.42 565.531,125.647 539.578,126.313C509.919,127.075 487.186,158.499 469.016,160.82C413.501,167.913 391.425,156.78 362.483,159.165C330.844,161.772 262.902,177.377 244.512,177.506C247.001,168.567 250.266,159.347 251.505,145.205C251.807,141.749 252.108,136.279 247.081,135.735C240.518,135.024 189.6,128.973 182.126,124.693C168.747,117.03 172.306,147.043 182.314,152.625C189.031,156.371 212.76,156.639 225.797,156.709Z" style="fill:rgb(255,213,0);"/>
    <path id="L_4" d="M819.409,215.215C758.401,219.086 666.016,225.194 609.809,232.686C564.461,238.73 515.982,251.199 503.037,256.263C498.808,257.919 494.268,260.484 491.895,262.665C490.471,263.973 498.102,277.547 499.682,277.607C503.767,277.762 510.303,275.589 518.217,272.693C549.34,261.305 632.537,250.1 649.421,248.455C764.26,237.269 849.546,230.159 916.138,225.569C922.3,225.144 988.478,220.995 999.816,223.687C1004.94,224.905 1029.73,235.399 1031.8,234.973C1036.83,233.942 1044.12,233.507 1048.17,231.537C1049.8,230.746 1045.15,205.639 1033.5,205.305C1017.37,204.844 1011.27,204.757 991.141,204.897C964.884,205.082 913.653,209.04 861.518,212.524C859.077,212.688 856.434,212.861 853.601,213.044C855.784,211.836 857.423,210.583 858.288,209.523C859.282,208.305 859.399,201.215 858.945,200.362C858.224,199.008 834.826,197.722 817.44,196.742C808.988,196.266 754.402,196.119 750.065,196.174C745.746,196.229 685.985,197.539 679.825,197.856C676.123,198.047 657.111,199.593 640.537,200.781C613.318,202.733 600.41,197.763 595.417,203.091C593.624,205.005 599.39,220.469 602.494,221.893C606.915,223.925 613.24,226.412 619.124,225.276C629.425,223.287 707.393,215.442 731.851,214.876C775.689,213.861 800.073,213.451 819.409,215.215Z" style="fill:rgb(255,13,0);"/>
    <path id="L_3" d="M1083.47,118.601C1081.78,115.115 1061.05,123.501 1060.33,125.914C1056.45,138.916 1064.83,203.274 1072.52,210.576C1075.92,213.807 1095.21,200.125 1095.05,197.294C1094.76,192.396 1087.02,125.9 1083.47,118.601ZM1148.56,125.874C1147.89,130.362 1141.29,191.175 1142.5,197.612C1143.86,204.868 1159.71,209.356 1160.95,208.466C1164.39,206.022 1174.85,135.197 1173.89,130.425C1172.83,125.155 1148.72,124.78 1148.56,125.874ZM1105.73,122.272C1105.51,122.543 1108.38,197.115 1111.14,202.015C1113.33,205.9 1125.73,207.253 1127.32,204.761C1129.78,200.938 1135.01,133.533 1132.92,124.264C1131.89,119.735 1108.56,118.794 1105.73,122.272Z" style="fill:rgb(3,255,0);"/>
    <path id="L_2" d="M324.023,121.949C331.4,108.202 348.05,100.357 348.729,100.048C349.028,100.264 358.191,106.977 360.981,110C372.61,122.598 380.572,139.262 379.222,162.563C378.394,176.87 373.15,188.51 360.283,204.985C356.831,209.404 350.569,215.632 343.393,220.382C338.913,223.347 334.109,225.756 329.401,226.583C327.613,226.897 324.578,226.728 321.259,226.361C315.909,225.769 309.894,224.564 306.897,223.217C302.167,221.089 300.175,218.811 298.198,217.664C296.043,216.412 286.061,217.796 284.718,218.579C283.291,219.412 281.41,229.848 274.219,239.865C271.8,243.235 268.351,246.14 262.509,246.823C259.748,247.145 257.166,245.932 254.975,243.99C251.019,240.482 248.72,235.491 250.406,228.676C250.976,226.37 252.623,222.259 254.603,219.704C256.3,217.516 231.968,208.718 228.976,212.371C224.616,217.695 219.916,226.626 223.811,242.373C225.805,250.439 238.237,270.377 265.318,268.332C274.405,267.646 285.601,262.1 289.869,257.223C295.64,250.628 297.387,246.115 298.21,243.311C299.873,244.57 302.606,246.22 307.513,248.066C315.027,250.893 325.151,254.591 335.823,253.276C353.061,251.152 364.097,247.021 374.2,239.053C391.276,225.586 407.896,203.039 412.391,173.071C415.338,153.424 413.431,125.233 399.298,107.362C384.888,89.141 371.377,79.961 359.143,78.006C346.704,76.018 334.387,78.451 327.528,81.463C321.581,84.075 312.868,89.089 304.506,97.533C297.756,104.35 292.374,115.376 292.932,122.452C293.053,124 314.803,132.375 318.552,130.822C321.86,129.451 322.029,125.665 324.023,121.949ZM298.154,149.685C296.822,148.005 280.021,144.857 277.574,146.82C272.259,151.082 266.936,164.019 264.504,170.463C260.757,180.389 259.586,201.736 263.986,208.038C264.844,209.268 285.211,210.531 286.718,207.548C288.817,203.394 289.467,190.728 292.367,175.027C293.923,166.604 298.89,150.615 298.154,149.685Z" style="fill:rgb(0,204,255);"/>
    <path id="L_1" d="M144.072,224.283C145.124,202.237 143.67,180.406 142.956,168.767C142.843,166.928 140.926,164.254 138.403,164.266C132.168,164.297 78.806,170.609 75.429,173.845C74.385,174.845 78.377,196.78 82.261,214.507C84.911,226.603 89.829,239.712 97.068,257.8C88.109,262.277 82.313,263.785 73.709,265.168C62.588,266.955 51.386,265.018 43.254,259.915C36.406,255.619 32.271,247.569 31.471,240.253C30.089,227.595 36.815,214.35 49.2,200.028C60.596,186.848 69.547,176.224 78.182,160.94C90.304,139.483 93.733,128.18 91.65,124.789C90.013,122.123 85.941,120.251 83.621,119.171C79.544,117.273 64.276,111.145 63.053,113.736C61.258,117.537 57.129,123.603 59.451,124.673C60.557,125.183 65.742,129.286 65.823,131.157C65.947,134.028 63.392,143.3 56.688,152.608C49.27,162.906 42.763,169.22 29.417,182.794C22.856,189.469 1.628,203.704 1,229.618C1.173,240.278 3.394,254.118 11.158,264.448C22.303,279.278 40.449,290.487 66.317,288.975C82.077,288.054 102.506,283.435 110.479,280.283C135.894,270.231 165.651,253.558 181.744,208.05C192.79,176.811 190.279,150.401 185.979,134.576C184.556,129.336 182.736,124.434 181.021,122.263C179.684,120.572 157.965,127.776 157.78,129.668C157.464,132.885 158.818,137.55 159.035,138.978C163.237,166.473 160.673,195.53 144.072,224.283ZM115.063,247.449C116.115,246.661 122.355,242.933 122.355,242.933C122.371,234.796 118.729,188.766 118.752,183.938C118.757,182.947 98.108,185.333 98.301,187.287C99.822,202.709 107.949,231.773 115.063,247.449ZM84.064,71.562C75.584,65.231 67.582,53.08 62.294,53.598C58.6,53.959 48.697,66.834 49.423,75.495C49.819,80.215 60.38,91.797 64.501,95.335C76.742,105.842 96.222,114.882 120.337,117.764C136.95,119.749 141.812,119.431 145.279,118.051C152.3,115.259 152.206,94.018 147.844,94.176C143.784,94.322 133.833,93.882 129.488,93.11C101.216,88.086 96.507,80.851 84.064,71.562ZM105.524,1C98.673,0.621 83.291,15.392 82.949,21.043C82.5,28.495 83.646,36.151 90.618,47.439C100.916,64.111 111.952,71.229 124.207,77.284C141.906,86.027 168.389,85.94 175.858,83.874C186.764,80.856 186.082,57.509 181.094,57.156C174.451,56.687 138.391,47.237 130.3,37.476C120.891,26.124 113.389,12.714 110.992,7.198C109.667,4.147 107.898,1.131 105.524,1Z" style="fill:rgb(255,0,126);"/>
    <path id="w_1" d="M650.349,79.603C644.537,79.603 640.391,78.412 637.911,76.032C635.432,73.651 634.192,69.973 634.192,65L634.192,60.026L646.577,60.026L646.577,64.585C646.577,67.859 647.573,69.495 649.566,69.495C650.492,69.495 651.221,69.177 651.755,68.539C652.289,67.902 652.556,67.062 652.556,66.02C652.556,64.659 652.349,63.512 651.933,62.576C651.518,61.641 650.89,60.754 650.047,59.914C649.205,59.075 647.822,57.911 645.901,56.422L640.598,52.31C636.328,49.016 634.192,45.295 634.192,41.15C634.192,36.644 635.479,33.291 638.054,31.091C640.628,28.891 644.168,27.791 648.677,27.791L650.883,27.791C652.046,27.791 653.541,28.03 655.367,28.509C657.195,28.987 658.819,29.784 660.242,30.9C661.667,32.016 662.734,33.567 663.446,35.555C664.158,37.542 664.514,39.971 664.514,42.84L651.808,42.84L651.737,39.78C651.713,39.205 651.441,38.695 650.919,38.249C650.397,37.802 649.815,37.579 649.175,37.579C648.345,37.579 647.639,37.808 647.058,38.265C646.476,38.722 646.185,39.312 646.185,40.034C646.185,41.48 647.36,43.053 649.709,44.754L657.289,50.237C658.523,51.13 659.597,52.039 660.51,52.964C661.423,53.888 662.147,54.802 662.681,55.706C663.214,56.609 663.647,57.427 663.98,58.161C664.312,58.894 664.543,59.691 664.674,60.552C664.804,61.412 664.881,62.062 664.905,62.497C664.929,62.933 664.941,63.502 664.941,64.203C664.941,65.988 664.81,67.609 664.549,69.065C664.288,70.52 663.825,71.924 663.161,73.274C662.497,74.623 661.625,75.75 660.545,76.653C659.466,77.557 658.066,78.274 656.346,78.805C654.626,79.337 652.628,79.603 650.349,79.603ZM632.872,28.238L632.872,38.089L620.559,38.089L620.559,48.005L632.375,48.005L632.375,57.538L620.559,57.538L620.559,69.113L633.692,69.113L633.692,79.029L607.818,79.029L607.818,29.689L598.278,62.322L598.278,79.029L586.462,79.029L586.462,62.322L576.462,28.238L588.882,28.238L592.371,45.455L595.858,28.238L632.872,28.238ZM666.082,78.997L666.082,69.495L678.823,69.495L678.823,78.997L666.082,78.997ZM681.246,78.997L681.246,69.495L693.987,69.495L693.987,78.997L681.246,78.997ZM666.082,28.238L678.823,28.238L676.331,65.032L668.573,65.032L666.082,28.238ZM681.246,28.238L693.987,28.238L691.495,65.032L683.737,65.032L681.246,28.238Z" style="fill:rgb(141,0,255);fill-rule:nonzero;"/>
    <path id="w_2" d="M801.193,79.603C795.38,79.603 791.234,78.412 788.755,76.032C786.275,73.651 785.035,69.973 785.035,65L785.035,60.026L797.42,60.026L797.42,64.585C797.42,67.859 798.417,69.495 800.41,69.495C801.335,69.495 802.065,69.177 802.598,68.539C803.132,67.902 803.399,67.062 803.399,66.02C803.399,64.659 803.192,63.512 802.776,62.576C802.361,61.641 801.733,60.754 800.891,59.914C800.048,59.075 798.666,57.911 796.744,56.422L791.441,52.31C787.171,49.016 785.035,45.295 785.035,41.15C785.035,36.644 786.323,33.291 788.897,31.091C791.471,28.891 795.013,27.791 799.52,27.791L801.727,27.791C802.889,27.791 804.384,28.03 806.21,28.509C808.038,28.987 809.662,29.784 811.087,30.9C812.51,32.016 813.577,33.567 814.29,35.555C815.001,37.542 815.357,39.971 815.357,42.84L802.651,42.84L802.581,39.78C802.557,39.205 802.284,38.695 801.762,38.249C801.24,37.802 800.658,37.579 800.018,37.579C799.188,37.579 798.482,37.808 797.901,38.265C797.319,38.722 797.029,39.312 797.029,40.034C797.029,41.48 798.203,43.053 800.552,44.754L808.133,50.237C809.367,51.13 810.44,52.039 811.353,52.964C812.266,53.888 812.99,54.802 813.524,55.706C814.057,56.609 814.491,57.427 814.823,58.161C815.155,58.894 815.386,59.691 815.517,60.552C815.647,61.412 815.725,62.062 815.748,62.497C815.772,62.933 815.784,63.502 815.784,64.203C815.784,65.988 815.654,67.609 815.392,69.065C815.132,70.52 814.669,71.924 814.004,73.274C813.34,74.623 812.468,75.75 811.389,76.653C810.309,77.557 808.909,78.274 807.189,78.805C805.469,79.337 803.471,79.603 801.193,79.603ZM708.619,28.238L736.021,28.238L736.021,38.025L728.584,38.025L728.584,79.029L716.057,79.029L716.057,38.025L708.619,38.025L708.619,28.238ZM771.046,79.029L771.046,28.238L783.147,28.238L783.147,79.029L771.046,79.029ZM749.406,55.976L749.406,79.029L736.951,79.029L736.951,28.238L749.406,28.238L749.406,46.38L755.313,46.38L755.313,28.238L767.77,28.238L767.77,79.029L755.313,79.029L755.313,55.976L749.406,55.976Z" style="fill:rgb(141,0,255);fill-rule:nonzero;"/>
    <path id="w_3" d="M861.666,79.603C855.853,79.603 851.707,78.412 849.228,76.032C846.748,73.651 845.509,69.973 845.509,65L845.509,60.026L857.894,60.026L857.894,64.585C857.894,67.859 858.891,69.495 860.882,69.495C861.808,69.495 862.538,69.177 863.071,68.539C863.605,67.902 863.872,67.062 863.872,66.02C863.872,64.659 863.665,63.512 863.249,62.576C862.835,61.641 862.206,60.754 861.364,59.914C860.521,59.075 859.139,57.911 857.217,56.422L851.915,52.31C847.644,49.016 845.509,45.295 845.509,41.15C845.509,36.644 846.796,33.291 849.37,31.091C851.944,28.891 855.486,27.791 859.993,27.791L862.2,27.791C863.363,27.791 864.857,28.03 866.683,28.509C868.511,28.987 870.136,29.784 871.56,30.9C872.983,32.016 874.05,33.567 874.763,35.555C875.474,37.542 875.83,39.971 875.83,42.84L863.125,42.84L863.054,39.78C863.031,39.205 862.758,38.695 862.235,38.249C861.713,37.802 861.132,37.579 860.492,37.579C859.661,37.579 858.955,37.808 858.374,38.265C857.793,38.722 857.501,39.312 857.501,40.034C857.501,41.48 858.676,43.053 861.025,44.754L868.606,50.237C869.839,51.13 870.913,52.039 871.826,52.964C872.739,53.888 873.463,54.802 873.997,55.706C874.531,56.609 874.965,57.427 875.297,58.161C875.628,58.894 875.86,59.691 875.99,60.552C876.12,61.412 876.197,62.062 876.221,62.497C876.245,62.933 876.257,63.502 876.257,64.203C876.257,65.988 876.127,67.609 875.865,69.065C875.605,70.52 875.142,71.924 874.477,73.274C873.813,74.623 872.941,75.75 871.862,76.653C870.783,77.557 869.382,78.274 867.662,78.805C865.942,79.337 863.944,79.603 861.666,79.603ZM831.519,79.029L831.519,28.238L843.62,28.238L843.62,79.029L831.519,79.029Z" style="fill:rgb(141,0,255);fill-rule:nonzero;"/>
    <path id="w_4" d="M906.762,79.603C900.949,79.603 896.803,78.412 894.324,76.032C891.844,73.651 890.605,69.973 890.605,65L890.605,60.026L902.99,60.026L902.99,64.585C902.99,67.859 903.987,69.495 905.98,69.495C906.904,69.495 907.634,69.177 908.167,68.539C908.702,67.902 908.968,67.062 908.968,66.02C908.968,64.659 908.761,63.512 908.345,62.576C907.931,61.641 907.302,60.754 906.46,59.914C905.617,59.075 904.235,57.911 902.313,56.422L897.011,52.31C892.74,49.016 890.605,45.295 890.605,41.15C890.605,36.644 891.892,33.291 894.466,31.091C897.04,28.891 900.582,27.791 905.089,27.791L907.296,27.791C908.459,27.791 909.953,28.03 911.781,28.509C913.607,28.987 915.232,29.784 916.656,30.9C918.079,32.016 919.146,33.567 919.859,35.555C920.57,37.542 920.926,39.971 920.926,42.84L908.221,42.84L908.15,39.78C908.127,39.205 907.854,38.695 907.331,38.249C906.81,37.802 906.228,37.579 905.588,37.579C904.757,37.579 904.051,37.808 903.47,38.265C902.889,38.722 902.599,39.312 902.599,40.034C902.599,41.48 903.772,43.053 906.121,44.754L913.702,50.237C914.936,51.13 916.009,52.039 916.922,52.964C917.836,53.888 918.559,54.802 919.093,55.706C919.628,56.609 920.061,57.427 920.393,58.161C920.724,58.894 920.956,59.691 921.086,60.552C921.217,61.412 921.294,62.062 921.318,62.497C921.341,62.933 921.353,63.502 921.353,64.203C921.353,65.988 921.223,67.609 920.961,69.065C920.701,70.52 920.238,71.924 919.573,73.274C918.909,74.623 918.038,75.75 916.958,76.653C915.879,77.557 914.478,78.274 912.758,78.805C911.038,79.337 909.04,79.603 906.762,79.603ZM1054.68,57.156L1054.68,66.753C1054.68,71.174 1053.28,74.421 1050.48,76.494C1047.68,78.567 1043.77,79.603 1038.74,79.603C1034.28,79.603 1030.64,78.46 1027.85,76.175C1025.05,73.89 1023.65,70.643 1023.65,66.435L1023.65,42.872C1023.65,37.835 1024.88,34.067 1027.36,31.57C1029.84,29.072 1033.73,27.823 1039.02,27.823C1041.18,27.823 1043.17,28.063 1045,28.54C1046.83,29.018 1048.44,29.726 1049.86,30.66C1051.27,31.596 1052.38,32.824 1053.18,34.343C1053.99,35.863 1054.39,37.612 1054.39,39.588L1054.39,48.548L1042.01,48.548L1042.01,42.649C1042.01,39.609 1041.01,38.089 1039.02,38.089C1037.83,38.089 1037.05,38.425 1036.67,39.094C1036.29,39.764 1036.1,40.694 1036.1,41.884L1036.1,65.893C1036.1,66.934 1036.37,67.838 1036.9,68.603C1037.44,69.368 1038.14,69.75 1039.02,69.75C1039.83,69.75 1040.53,69.468 1041.12,68.905C1041.71,68.342 1042.01,67.337 1042.01,65.893L1042.01,57.156L1054.68,57.156ZM956.84,65.573L956.84,28.238L969.012,28.238L969.012,64.808C969.012,65.361 969.018,65.796 969.029,66.116C969.042,66.435 969.101,66.87 969.207,67.423C969.315,67.976 969.469,68.411 969.67,68.73C969.872,69.049 970.175,69.331 970.578,69.575C970.981,69.82 971.479,69.942 972.072,69.942C972.571,69.942 973.004,69.868 973.371,69.719C973.739,69.569 974.029,69.342 974.243,69.033C974.456,68.725 974.628,68.428 974.759,68.141C974.89,67.853 974.979,67.471 975.026,66.992C975.074,66.514 975.103,66.148 975.116,65.893C975.127,65.637 975.133,65.276 975.133,64.808L975.133,28.238L987.305,28.238L987.305,65.573C987.305,70.165 986.076,73.651 983.621,76.032C981.165,78.412 977.34,79.592 972.144,79.57C966.853,79.592 962.98,78.412 960.524,76.032C958.068,73.651 956.84,70.165 956.84,65.573ZM1090.95,79.029L1090.95,28.238L1116,28.238L1116,38.089L1103.69,38.089L1103.69,48.005L1115.5,48.005L1115.5,57.538L1103.69,57.538L1103.69,69.113L1116.82,69.113L1116.82,79.029L1090.95,79.029ZM1118.71,79.029L1118.71,28.238L1143.77,28.238L1143.77,38.089L1131.45,38.089L1131.45,48.005L1143.27,48.005L1143.27,57.538L1131.45,57.538L1131.45,69.113L1144.58,69.113L1144.58,79.029L1118.71,79.029ZM1021.15,28.238L1021.15,79.029L1008.91,79.029L1002.65,53.617L1002.65,79.029L990.403,79.029L990.403,28.238L1003.29,28.238L1009.05,52.533L1009.05,28.238L1021.15,28.238ZM935.378,55.976L935.378,79.029L922.923,79.029L922.923,28.238L935.378,28.238L935.378,46.38L941.285,46.38L941.285,28.238L953.741,28.238L953.741,79.029L941.285,79.029L941.285,55.976L935.378,55.976ZM1069.31,55.976L1069.31,79.029L1056.85,79.029L1056.85,28.238L1069.31,28.238L1069.31,46.38L1075.22,46.38L1075.22,28.238L1087.67,28.238L1087.67,79.029L1075.22,79.029L1075.22,55.976L1069.31,55.976ZM1146.05,78.997L1146.05,69.495L1158.79,69.495L1158.79,78.997L1146.05,78.997ZM1161.21,78.997L1161.21,69.495L1173.95,69.495L1173.95,78.997L1161.21,78.997ZM1146.05,28.238L1158.79,28.238L1156.3,65.032L1148.54,65.032L1146.05,28.238ZM1161.21,28.238L1173.95,28.238L1171.46,65.032L1163.7,65.032L1161.21,28.238Z" style="fill:rgb(141,0,255);fill-rule:nonzero;"/>
</svg>
