<svg width="100%" height="100%" viewBox="0 0 1000 367" version="1.1" xmlns="http://www.w3.org/2000/svg" xmlns:xlink="http://www.w3.org/1999/xlink" xml:space="preserve" xmlns:serif="http://www.serif.com/" style="fill-rule:evenodd;clip-rule:evenodd;stroke-linejoin:round;stroke-miterlimit:2;">
	<style>
#L_1{
	transform-origin:calc(100% * 160/1000) calc(100% * 220/300);
	animation: rotate 1s;
   animation-iteration-count: infinite;
	animation-name: rotate;
	animation-timing-function: ease-in-out;
	animation-iteration-count: infinite;
	animation-direction: alternate;
}
#hair{
	transform-origin:calc(100% * 195/1000) calc(100% * 275/367);
	animation: rotate 2s;
   animation-iteration-count: infinite;
	animation-name: rotate_hair;
	animation-timing-function: ease-in-out;
	animation-iteration-count: infinite;
	animation-direction: alternate;
	animation-duration: 3s;
}

#L_0{
	animation-name: return;
  animation-timing-function: ease-in-out;
  animation-iteration-count: infinite;
  animation-direction: alternate;
  animation-duration: 0.8s;
}
#L_2{
	animation-delay:500ms;
	animation-name: return;
  animation-timing-function: ease-in-out;
  animation-iteration-count: infinite;
  animation-direction: alternate;
  animation-duration: 1.5s;
}

#L_3{
	animation-name: return;
  animation-timing-function: ease-in-out;
  animation-iteration-count: infinite;
  animation-direction: alternate;
  animation-duration: 1s;
}

#L_4{
	animation-name: return;
  animation-timing-function: ease-in-out;
  animation-iteration-count: infinite;
  animation-direction: alternate;
  animation-duration: 1.4s;
}

#L_5{
	animation-name: return;
  animation-timing-function: ease-in-out;
  animation-iteration-count: infinite;
  animation-direction: alternate;
  animation-duration: 1.2s;
}

#w_1{
	animation-name: return;
  animation-timing-function: ease-in-out;
  animation-iteration-count: infinite;
  animation-direction: alternate;
  animation-duration: 2s;
}

#w_2{
	animation-name: return;
  animation-timing-function: ease-in-out;
  animation-iteration-count: infinite;
  animation-direction: alternate;
  animation-duration: 1.6s;
}
#w_3{
	animation-name: return;
  animation-timing-function: ease-in-out;
  animation-iteration-count: infinite;
  animation-direction: alternate;
  animation-duration: 0.8s;
}
#w_4{
	animation-delay:500ms;
	animation-name: return;
  animation-timing-function: ease-in-out;
  animation-iteration-count: infinite;
  animation-direction: alternate;
  animation-duration: 1.5s;
}

@keyframes return {
0% {
        transform: translate(0,0px);
    }
    100% {
        transform: translate(0,5px);
    }
}
@keyframes rotate {
	0% { transform: rotate(0deg); }
	10% { transform: rotate(-6deg); }
	20% { transform: rotate(0deg); }
	30% { transform: rotate(-6deg); }
	50%{ transform: rotate(0deg);}
	100% { transform: rotate(0deg); } 
}
@keyframes rotate_hair{
    0% { transform: rotate(5deg); }
    100% { transform: rotate(-10deg); } 
}
</style>
    <ellipse id="L_1_origin" cx="194.751" cy="275.3" rx="0.306" ry="0.303" style="fill:none;"/>
    <path id="L_5" d="M256.831,195.309C256.167,202.725 251.917,224.626 251.917,224.626C251.917,224.626 206.056,237.696 204.079,245.218C202.081,252.816 198.948,262.945 198.318,269.097C197.679,275.339 196.391,287.426 204.645,282.096C221.26,271.365 261.43,250.96 285.674,244.21C304.518,238.966 327.672,229.549 353.374,224.727C372.834,221.077 396.352,232.061 438.258,226.05C457.417,223.302 473.373,203.324 488.879,203.897C506.235,204.54 525.607,218.799 548.07,218.395C564.94,218.092 593.061,204.217 605.554,204.057C617.278,203.908 646.607,211.414 660.219,210.713C689.395,209.211 701.443,204.785 710.088,205.261C723.257,205.986 736.104,217.147 757.942,217.026C779.062,216.91 787.608,210.749 804.705,210.713C835.612,210.649 851.277,227.291 871.302,229.76C910.865,234.64 972.031,215.19 980.259,219.194C982.466,220.269 989.486,222.872 992.505,222.844C995.95,222.813 1000.7,197.897 999.913,195.545C997.359,187.986 988.557,188.789 980.554,189.423C967.116,190.486 890.901,205.025 870.892,198.396C855.294,193.231 824.481,187.212 803.253,189.423C783.092,191.524 773.397,189.176 758.002,189.423C741.321,189.69 729.462,177.263 711.152,177.637C696.262,177.939 675.457,187.895 660.024,189.423C638.271,191.575 629.098,181.044 604.088,181.533C587.66,181.854 563.941,191.753 547.694,191.469C529.939,191.159 507.994,180.232 487.904,181.046C464.946,181.978 448.954,199.813 434.889,202.65C391.917,211.321 374.828,197.711 352.425,200.627C327.935,203.814 293.88,218.441 279.644,218.599C281.571,207.671 284.098,196.4 285.058,179.111C285.291,174.886 285.524,168.199 281.633,167.534C276.553,166.665 218.603,163.717 212.817,158.485C202.461,149.117 205.216,185.808 212.963,192.632C218.162,197.211 246.739,195.224 256.831,195.309Z" style="fill:rgb(255,213,0);"/>
    <path id="L_4" d="M666.456,254.086C620.592,256.85 564.302,263.337 525.683,273.696C494.525,282.053 485.89,290.397 476.996,297.399C474.09,299.688 470.971,303.235 469.34,306.251C468.362,308.059 475.693,329.88 476.779,329.963C479.585,330.178 484.076,327.173 489.514,323.169C510.898,307.423 524.37,302.425 535.502,298.448C604.17,273.92 698.804,271.139 744.559,264.792C748.793,264.204 782.622,262.078 790.412,265.8C793.933,267.484 810.252,273.37 811.675,272.781C815.131,271.355 820.14,270.754 822.922,268.03C824.042,266.936 821.561,240.845 813.556,240.383C802.473,239.746 798.282,239.626 784.452,239.819C766.411,240.075 731.21,245.548 695.389,250.365C693.712,250.592 691.896,250.831 689.949,251.084C691.449,249.414 692.575,247.681 693.17,246.215C693.852,244.531 693.933,234.728 693.621,233.549C693.126,231.676 677.049,229.898 665.103,228.543C659.296,227.885 621.79,227.682 618.81,227.758C615.843,227.834 574.782,229.645 570.549,230.084C568.005,230.348 554.942,232.485 543.555,234.128C524.853,236.827 515.984,229.955 512.553,237.322C511.321,239.968 515.049,258.16 517.182,260.129C520.219,262.938 524.565,266.377 528.608,264.806C535.686,262.056 589.491,254.4 606.296,253.617C636.416,252.214 653.17,251.647 666.456,254.086Z" style="fill:rgb(255,13,0);"/>
    <path id="L_3" d="M851.425,154.705C849.359,150.443 824.017,160.695 823.137,163.645C818.393,179.54 828.638,258.217 838.039,267.144C842.195,271.094 865.777,254.368 865.582,250.907C865.227,244.919 855.765,163.628 851.425,154.705ZM930.997,163.596C930.178,169.083 922.11,243.426 923.589,251.295C925.252,260.166 944.628,265.652 946.144,264.564C950.349,261.577 963.137,174.994 961.963,169.16C960.667,162.717 931.193,162.259 930.997,163.596ZM878.638,159.193C878.369,159.524 881.878,250.688 885.252,256.678C887.929,261.427 903.088,263.082 905.032,260.035C908.039,255.361 914.433,172.959 911.878,161.628C910.618,156.091 882.098,154.941 878.638,159.193Z" style="fill:rgb(3,255,0);"/>
    <path id="L_2" d="M394.963,155.13C403.981,138.325 424.336,128.734 425.166,128.357C425.531,128.621 436.733,136.827 440.144,140.523C454.36,155.924 464.094,176.295 462.443,204.781C461.431,222.271 455.02,236.501 439.29,256.641C435.07,262.044 427.415,269.657 418.643,275.464C413.166,279.089 407.293,282.034 401.537,283.045C399.352,283.429 395.641,283.222 391.584,282.773C385.044,282.05 377.69,280.577 374.026,278.93C368.244,276.328 365.809,273.544 363.392,272.141C360.757,270.611 348.555,272.303 346.913,273.26C345.168,274.278 342.869,287.036 334.078,299.282C331.121,303.402 326.904,306.953 319.762,307.788C316.387,308.182 313.231,306.699 310.552,304.325C305.716,300.036 302.905,293.935 304.967,285.604C305.663,282.784 307.677,277.759 310.097,274.635C312.172,271.961 282.426,261.205 278.768,265.671C273.438,272.179 267.693,283.097 272.454,302.348C274.892,312.209 290.09,336.583 323.196,334.083C334.305,333.244 347.992,326.464 353.21,320.502C360.265,312.44 362.401,306.923 363.407,303.495C365.44,305.034 368.781,307.051 374.779,309.308C383.965,312.764 396.342,317.284 409.388,315.677C430.462,313.08 443.953,308.03 456.304,298.289C477.179,281.826 497.497,254.262 502.992,217.627C506.595,193.608 504.264,159.145 486.986,137.298C469.37,115.023 452.853,103.8 437.897,101.41C422.69,98.98 407.633,101.954 399.248,105.637C391.978,108.83 381.326,114.959 371.103,125.282C362.852,133.616 356.272,147.095 356.954,155.745C357.102,157.638 383.691,167.876 388.275,165.978C392.319,164.302 392.525,159.673 394.963,155.13ZM363.338,189.038C361.71,186.984 341.171,183.135 338.179,185.535C331.682,190.745 325.174,206.561 322.201,214.439C317.621,226.573 316.189,252.67 321.568,260.374C322.617,261.877 347.515,263.421 349.358,259.775C351.924,254.696 352.718,239.212 356.264,220.018C358.166,209.721 364.238,190.174 363.338,189.038Z" style="fill:rgb(0,204,255);"/>
    <path id="L_1" d="M174.974,280.233C176.26,253.282 174.482,226.594 173.61,212.365C173.471,210.117 171.128,206.848 168.044,206.863C160.421,206.901 95.187,214.617 91.058,218.573C89.782,219.795 94.662,246.611 99.41,268.282C102.65,283.069 108.662,299.095 117.512,321.207C106.559,326.681 99.474,328.524 88.956,330.215C75.36,332.399 61.666,330.031 51.724,323.793C43.353,318.541 38.298,308.7 37.32,299.756C35.63,284.282 43.853,268.09 58.993,250.582C72.925,234.469 83.868,221.481 94.424,202.797C109.243,176.566 113.435,162.748 110.888,158.602C108.887,155.343 103.909,153.055 101.073,151.734C96.089,149.414 77.424,141.923 75.929,145.09C73.734,149.737 68.687,157.152 71.525,158.461C72.877,159.084 79.216,164.1 79.315,166.387C79.467,169.897 76.343,181.232 68.147,192.611C59.079,205.2 51.124,212.919 34.809,229.513C26.788,237.673 0.837,255.075 0.069,286.755C0.281,299.787 2.996,316.706 12.487,329.335C26.112,347.464 48.295,361.167 79.919,359.319C99.185,358.193 124.16,352.546 133.907,348.693C164.976,336.404 201.354,316.022 221.028,260.388C234.531,222.199 231.462,189.913 226.205,170.567C224.465,164.161 222.24,158.168 220.144,155.514C218.509,153.447 191.958,162.254 191.732,164.567C191.346,168.5 193.001,174.203 193.266,175.948C198.403,209.561 195.268,245.083 174.974,280.233ZM139.511,308.553C140.797,307.59 148.425,303.033 148.425,303.033C148.445,293.085 143.992,236.814 144.02,230.912C144.026,229.7 118.783,232.617 119.019,235.006C120.879,253.859 130.814,289.39 139.511,308.553ZM101.614,93.533C91.248,85.793 81.465,70.939 75.001,71.572C70.485,72.013 58.379,87.753 59.266,98.341C59.75,104.111 72.661,118.27 77.699,122.595C92.663,135.44 116.478,146.491 145.958,150.014C166.267,152.441 172.211,152.052 176.449,150.365C185.033,146.952 184.918,120.985 179.585,121.178C174.622,121.357 162.457,120.819 157.145,119.875C122.583,113.733 116.826,104.888 101.614,93.533ZM127.849,7.271C119.474,6.808 100.669,24.865 100.251,31.773C99.702,40.883 101.103,50.243 109.627,64.042C122.216,84.424 135.707,93.126 150.689,100.528C172.326,111.216 204.701,111.11 213.832,108.584C227.165,104.894 226.331,76.353 220.233,75.921C212.112,75.348 168.029,63.795 158.138,51.863C146.635,37.985 137.464,21.591 134.534,14.848C132.914,11.118 130.751,7.431 127.849,7.271Z" style="fill:rgb(255,0,126);"/>
    <path id="w_1" d="M334.131,100.528C327.026,100.528 321.957,99.072 318.926,96.162C315.895,93.251 314.379,88.755 314.379,82.675L314.379,76.595L329.52,76.595L329.52,82.168C329.52,86.171 330.737,88.171 333.174,88.171C334.306,88.171 335.197,87.782 335.85,87.002C336.503,86.223 336.829,85.196 336.829,83.922C336.829,82.259 336.576,80.856 336.068,79.712C335.56,78.569 334.792,77.485 333.762,76.458C332.733,75.432 331.042,74.009 328.693,72.189L322.211,67.162C316.991,63.135 314.379,58.586 314.379,53.519C314.379,48.01 315.953,43.911 319.101,41.222C322.247,38.532 326.575,37.188 332.087,37.188L334.784,37.188C336.206,37.188 338.033,37.48 340.266,38.065C342.5,38.65 344.486,39.624 346.225,40.988C347.967,42.353 349.272,44.249 350.142,46.679C351.013,49.108 351.448,52.078 351.448,55.585L335.915,55.585L335.828,51.844C335.799,51.141 335.466,50.518 334.828,49.973C334.19,49.426 333.478,49.153 332.696,49.153C331.681,49.153 330.818,49.433 330.108,49.992C329.396,50.551 329.041,51.272 329.041,52.155C329.041,53.922 330.477,55.845 333.349,57.925L342.615,64.628C344.124,65.719 345.437,66.831 346.553,67.962C347.669,69.091 348.554,70.208 349.207,71.314C349.858,72.418 350.388,73.418 350.795,74.315C351.201,75.211 351.483,76.185 351.643,77.238C351.802,78.289 351.896,79.084 351.926,79.616C351.955,80.149 351.97,80.844 351.97,81.701C351.97,83.883 351.81,85.865 351.491,87.645C351.171,89.424 350.605,91.14 349.794,92.79C348.982,94.44 347.916,95.817 346.596,96.921C345.277,98.026 343.565,98.903 341.462,99.552C339.36,100.202 336.917,100.528 334.131,100.528ZM312.766,37.734L312.766,49.777L297.713,49.777L297.713,61.899L312.158,61.899L312.158,73.553L297.713,73.553L297.713,87.704L313.768,87.704L313.768,99.826L282.137,99.826L282.137,39.508L270.475,79.402L270.475,99.826L256.03,99.826L256.03,79.402L243.805,37.734L258.988,37.734L263.253,58.782L267.516,37.734L312.766,37.734ZM353.365,99.787L353.365,88.171L368.94,88.171L368.94,99.787L353.365,99.787ZM371.902,99.787L371.902,88.171L387.478,88.171L387.478,99.787L371.902,99.787ZM353.365,37.734L368.94,37.734L365.894,82.715L356.41,82.715L353.365,37.734ZM371.902,37.734L387.478,37.734L384.432,82.715L374.948,82.715L371.902,37.734Z" style="fill:rgb(141,0,255);fill-rule:nonzero;"/>
    <path id="w_2" d="M518.537,100.528C511.431,100.528 506.362,99.072 503.332,96.162C500.3,93.251 498.784,88.755 498.784,82.675L498.784,76.595L513.924,76.595L513.924,82.168C513.924,86.171 515.143,88.171 517.58,88.171C518.711,88.171 519.603,87.782 520.255,87.002C520.907,86.223 521.234,85.196 521.234,83.922C521.234,82.259 520.981,80.856 520.472,79.712C519.965,78.569 519.197,77.485 518.168,76.458C517.137,75.432 515.448,74.009 513.098,72.189L506.615,67.162C501.395,63.135 498.784,58.586 498.784,53.519C498.784,48.01 500.358,43.911 503.505,41.222C506.652,38.532 510.982,37.188 516.492,37.188L519.19,37.188C520.61,37.188 522.438,37.48 524.67,38.065C526.905,38.65 528.89,39.624 530.632,40.988C532.372,42.353 533.676,44.249 534.548,46.679C535.417,49.108 535.852,52.078 535.852,55.585L520.319,55.585L520.234,51.844C520.204,51.141 519.871,50.518 519.233,49.973C518.594,49.426 517.883,49.153 517.101,49.153C516.086,49.153 515.223,49.433 514.513,49.992C513.801,50.551 513.446,51.272 513.446,52.155C513.446,53.922 514.882,55.845 517.753,57.925L527.021,64.628C528.53,65.719 529.841,66.831 530.957,67.962C532.074,69.091 532.959,70.208 533.612,71.314C534.263,72.418 534.794,73.418 535.2,74.315C535.605,75.211 535.888,76.185 536.048,77.238C536.207,78.289 536.302,79.084 536.33,79.616C536.36,80.149 536.374,80.844 536.374,81.701C536.374,83.883 536.215,85.865 535.895,87.645C535.577,89.424 535.011,91.14 534.198,92.79C533.387,94.44 532.321,95.817 531.002,96.921C529.681,98.026 527.97,98.903 525.867,99.552C523.764,100.202 521.322,100.528 518.537,100.528ZM405.366,37.734L438.865,37.734L438.865,49.699L429.773,49.699L429.773,99.826L414.459,99.826L414.459,49.699L405.366,49.699L405.366,37.734ZM481.682,99.826L481.682,37.734L496.476,37.734L496.476,99.826L481.682,99.826ZM455.228,71.644L455.228,99.826L440.002,99.826L440.002,37.734L455.228,37.734L455.228,59.913L462.449,59.913L462.449,37.734L477.678,37.734L477.678,99.826L462.449,99.826L462.449,71.644L455.228,71.644Z" style="fill:rgb(141,0,255);fill-rule:nonzero;"/>
    <path id="w_3" d="M592.465,100.528C585.358,100.528 580.29,99.072 577.259,96.162C574.228,93.251 572.713,88.755 572.713,82.675L572.713,76.595L587.854,76.595L587.854,82.168C587.854,86.171 589.072,88.171 591.506,88.171C592.638,88.171 593.531,87.782 594.182,87.002C594.835,86.223 595.162,85.196 595.162,83.922C595.162,82.259 594.909,80.856 594.4,79.712C593.894,78.569 593.125,77.485 592.096,76.458C591.065,75.432 589.376,74.009 587.026,72.189L580.544,67.162C575.323,63.135 572.713,58.586 572.713,53.519C572.713,48.01 574.286,43.911 577.433,41.222C580.58,38.532 584.91,37.188 590.42,37.188L593.118,37.188C594.539,37.188 596.366,37.48 598.598,38.065C600.833,38.65 602.819,39.624 604.56,40.988C606.3,42.353 607.604,44.249 608.476,46.679C609.345,49.108 609.78,52.078 609.78,55.585L594.248,55.585L594.162,51.844C594.134,51.141 593.8,50.518 593.16,49.973C592.522,49.426 591.812,49.153 591.03,49.153C590.014,49.153 589.151,49.433 588.44,49.992C587.73,50.551 587.373,51.272 587.373,52.155C587.373,53.922 588.81,55.845 591.681,57.925L600.949,64.628C602.456,65.719 603.769,66.831 604.885,67.962C606.002,69.091 606.887,70.208 607.539,71.314C608.192,72.418 608.723,73.418 609.129,74.315C609.533,75.211 609.817,76.185 609.976,77.238C610.135,78.289 610.229,79.084 610.258,79.616C610.288,80.149 610.302,80.844 610.302,81.701C610.302,83.883 610.143,85.865 609.823,87.645C609.505,89.424 608.939,91.14 608.126,92.79C607.314,94.44 606.248,95.817 604.929,96.921C603.61,98.026 601.898,98.903 599.795,99.552C597.692,100.202 595.25,100.528 592.465,100.528ZM555.61,99.826L555.61,37.734L570.404,37.734L570.404,99.826L555.61,99.826Z" style="fill:rgb(141,0,255);fill-rule:nonzero;"/>
    <path id="w_4" d="M647.594,100.528C640.488,100.528 635.42,99.072 632.389,96.162C629.357,93.251 627.843,88.755 627.843,82.675L627.843,76.595L642.983,76.595L642.983,82.168C642.983,86.171 644.202,88.171 646.638,88.171C647.768,88.171 648.66,87.782 649.312,87.002C649.966,86.223 650.291,85.196 650.291,83.922C650.291,82.259 650.038,80.856 649.53,79.712C649.024,78.569 648.255,77.485 647.225,76.458C646.195,75.432 644.505,74.009 642.156,72.189L635.674,67.162C630.453,63.135 627.843,58.586 627.843,53.519C627.843,48.01 629.416,43.911 632.563,41.222C635.709,38.532 640.039,37.188 645.549,37.188L648.247,37.188C649.669,37.188 651.495,37.48 653.73,38.065C655.962,38.65 657.949,39.624 659.69,40.988C661.429,42.353 662.734,44.249 663.605,46.679C664.475,49.108 664.91,52.078 664.91,55.585L649.378,55.585L649.291,51.844C649.263,51.141 648.929,50.518 648.29,49.973C647.653,49.426 646.942,49.153 646.159,49.153C645.143,49.153 644.28,49.433 643.57,49.992C642.86,50.551 642.505,51.272 642.505,52.155C642.505,53.922 643.939,55.845 646.811,57.925L656.079,64.628C657.587,65.719 658.899,66.831 660.015,67.962C661.132,69.091 662.016,70.208 662.669,71.314C663.323,72.418 663.852,73.418 664.258,74.315C664.663,75.211 664.946,76.185 665.105,77.238C665.266,78.289 665.36,79.084 665.389,79.616C665.417,80.149 665.432,80.844 665.432,81.701C665.432,83.883 665.273,85.865 664.953,87.645C664.635,89.424 664.069,91.14 663.256,92.79C662.444,94.44 661.379,95.817 660.059,96.921C658.74,98.026 657.027,98.903 654.924,99.552C652.822,100.202 650.379,100.528 647.594,100.528ZM828.423,73.086L828.423,84.819C828.423,90.223 826.712,94.193 823.289,96.727C819.866,99.261 815.086,100.528 808.937,100.528C803.484,100.528 799.035,99.13 795.624,96.337C792.201,93.543 790.489,89.574 790.489,84.43L790.489,55.624C790.489,49.466 791.993,44.86 795.025,41.808C798.057,38.754 802.812,37.227 809.279,37.227C811.92,37.227 814.352,37.52 816.59,38.103C818.827,38.688 820.795,39.553 822.531,40.695C824.255,41.839 825.612,43.341 826.59,45.197C827.58,47.056 828.069,49.194 828.069,51.609L828.069,62.563L812.934,62.563L812.934,55.352C812.934,51.635 811.712,49.777 809.279,49.777C807.824,49.777 806.871,50.188 806.406,51.006C805.942,51.825 805.709,52.962 805.709,54.416L805.709,83.767C805.709,85.04 806.039,86.145 806.687,87.08C807.347,88.015 808.203,88.482 809.279,88.482C810.269,88.482 811.125,88.138 811.846,87.449C812.568,86.761 812.934,85.532 812.934,83.767L812.934,73.086L828.423,73.086ZM708.814,83.376L708.814,37.734L723.695,37.734L723.695,82.441C723.695,83.117 723.702,83.649 723.715,84.04C723.731,84.43 723.803,84.962 723.933,85.638C724.065,86.314 724.253,86.845 724.499,87.235C724.746,87.625 725.116,87.97 725.609,88.268C726.102,88.568 726.711,88.717 727.435,88.717C728.046,88.717 728.575,88.627 729.024,88.444C729.473,88.261 729.828,87.984 730.09,87.606C730.35,87.229 730.56,86.866 730.72,86.515C730.88,86.163 730.989,85.696 731.047,85.111C731.105,84.526 731.141,84.079 731.157,83.767C731.17,83.454 731.178,83.013 731.178,82.441L731.178,37.734L746.058,37.734L746.058,83.376C746.058,88.99 744.555,93.251 741.554,96.162C738.552,99.072 733.876,100.514 727.524,100.487C721.055,100.514 716.321,99.072 713.318,96.162C710.316,93.251 708.814,88.99 708.814,83.376ZM872.763,99.826L872.763,37.734L903.387,37.734L903.387,49.777L888.338,49.777L888.338,61.899L902.775,61.899L902.775,73.553L888.338,73.553L888.338,87.704L904.389,87.704L904.389,99.826L872.763,99.826ZM906.7,99.826L906.7,37.734L937.335,37.734L937.335,49.777L922.274,49.777L922.274,61.899L936.724,61.899L936.724,73.553L922.274,73.553L922.274,87.704L938.325,87.704L938.325,99.826L906.7,99.826ZM787.433,37.734L787.433,99.826L772.47,99.826L764.817,68.76L764.817,99.826L749.845,99.826L749.845,37.734L765.599,37.734L772.641,67.435L772.641,37.734L787.433,37.734ZM682.577,71.644L682.577,99.826L667.351,99.826L667.351,37.734L682.577,37.734L682.577,59.913L689.799,59.913L689.799,37.734L705.026,37.734L705.026,99.826L689.799,99.826L689.799,71.644L682.577,71.644ZM846.308,71.644L846.308,99.826L831.076,99.826L831.076,37.734L846.308,37.734L846.308,59.913L853.533,59.913L853.533,37.734L868.753,37.734L868.753,99.826L853.533,99.826L853.533,71.644L846.308,71.644ZM940.123,99.787L940.123,88.171L955.697,88.171L955.697,99.787L940.123,99.787ZM958.656,99.787L958.656,88.171L974.23,88.171L974.23,99.787L958.656,99.787ZM940.123,37.734L955.697,37.734L952.653,82.715L943.167,82.715L940.123,37.734ZM958.656,37.734L974.23,37.734L971.186,82.715L961.7,82.715L958.656,37.734Z" style="fill:rgb(141,0,255);fill-rule:nonzero;"/>
</svg>
