<svg width="100%" height="100%" viewBox="0 0 192 192" version="1.1" xmlns="http://www.w3.org/2000/svg" xmlns:xlink="http://www.w3.org/1999/xlink" xml:space="preserve" xmlns:serif="http://www.serif.com/" style="fill-rule:evenodd;clip-rule:evenodd;stroke-linecap:round;stroke-linejoin:round;stroke-miterlimit:1.5;">
    <g transform="matrix(0.192,0,0,0.192,0,0)">
        <path d="M1000,170.248C1000,76.286 923.714,0 829.752,0L170.248,0C76.286,0 0,76.286 0,170.248L0,829.752C0,923.714 76.286,1000 170.248,1000L829.752,1000C923.714,1000 1000,923.714 1000,829.752L1000,170.248Z" style="fill:rgb(255,233,0);"/>
        <clipPath id="_clip1">
            <path d="M1000,170.248C1000,76.286 923.714,0 829.752,0L170.248,0C76.286,0 0,76.286 0,170.248L0,829.752C0,923.714 76.286,1000 170.248,1000L829.752,1000C923.714,1000 1000,923.714 1000,829.752L1000,170.248Z"/>
        </clipPath>
        <g clip-path="url(#_clip1)">
            <circle cx="83" cy="111" r="221" style="fill:white;stroke:rgb(26,16,4);stroke-width:93.09px;"/>
            <path d="M0,1000C0,1000 115.34,485.19 500,500C874.433,514.417 1000,0 1000,0L1000,1000L0,1000Z" style="fill:rgb(255,9,0);stroke:rgb(26,16,4);stroke-width:1px;"/>
            <g transform="matrix(1.24736,-0.380541,0.380541,1.24736,-4442.9,-291.872)">
                <path d="M3523.21,1518.74C3335.55,1605.15 3151.8,1645.98 2951,1634C2897.82,1782.85 2914.89,2010.2 2966,2085C3035.51,2186.73 3276.75,2208.28 3440,2089C3556.84,2003.63 3699,1774 3699,1774L3523.21,1518.74Z" style="fill:rgb(250,218,183);"/>
                <path d="M3357,1678L3495,1825C3350.33,1935.3 3203.91,2044.75 3055,2153L2959,2091C3088.33,1950.91 3220.94,1813.2 3357,1678Z" style="fill:rgb(239,119,123);"/>
                <path d="M4181,1278C4066.7,1220.35 3951.46,1185.1 3789,1179L3543,1401C3518.7,1509.45 3502.83,1640.5 3555,1707C3607.17,1773.5 3741.59,1804.28 3856,1800L3969,1642C3964.17,1569.58 3967.84,1509.41 3985,1426C4048.43,1370.48 4106.34,1314.39 4181,1278Z" style="fill:rgb(131,182,227);"/>
                <path d="M4096.02,1194.03L3783,1144L3542.46,1402.78C3542.46,1402.78 3514.68,1485.18 3516.55,1527.65C3518.75,1577.69 3555.66,1703.06 3555.66,1703.06L3819,1518.74L3749,1440L4096.02,1194.03Z" style="fill:white;"/>
                <g transform="matrix(0.854635,0.260729,-0.260729,0.854635,3149.03,1148.62)">
                    <path d="M960.004,-252.832C875.993,-252.093 787.284,-240.275 685.246,-213.288C675.656,-210.752 667.434,-204.574 662.33,-196.068L471.495,121.911C467.438,128.672 465.579,136.525 466.175,144.387C469.019,181.899 473.376,221.267 480.057,259.663C316.956,401.367 143.503,497.611 -62.396,547.233C-78.854,551.2 -90.718,565.555 -91.514,582.466C-96.755,693.845 -64.269,828.417 -19.158,932.568C12.506,1005.67 51.048,1063.82 86.063,1091.86C135.865,1131.74 214.377,1147.69 301.278,1136.28C422.897,1120.3 561.095,1051.69 649.035,934.478C727.496,829.903 793.807,622.785 818.96,537.562C873.961,532.583 930.738,520.139 981.972,502.39C993.112,498.53 1001.84,489.729 1005.6,478.556L1074.96,272.52C1077.77,264.167 1077.6,255.097 1074.47,246.856C1048.16,177.533 1033.31,117.186 1024.62,32.998C1069.77,-40.439 1110.46,-112.519 1172.88,-170.639C1183.48,-180.499 1187.56,-195.508 1183.43,-209.377C1179.31,-223.245 1167.67,-233.576 1153.42,-236.039C1121.99,-241.468 1090.86,-245.738 1059.55,-248.619C1072.96,-262.811 1086.55,-276.95 1100.33,-291.059C1114.97,-306.053 1114.69,-330.113 1099.69,-344.754C1084.7,-359.395 1060.64,-359.109 1046,-344.116C1016.47,-313.881 987.765,-283.5 960.004,-252.832ZM215.654,1062.42C194.522,1060.15 175.134,1055.29 158.364,1047.52C238.561,882.606 323.891,713.933 410.582,551.324L410.582,551.324C410.582,551.324 487.953,595.712 535.656,623.079C431.553,767.488 323.816,918.424 215.654,1062.42ZM499.339,343.199C343.209,472.641 176.995,563.031 -15.877,614.035C-14.591,708.608 13.677,816.742 50.734,902.296C66.043,937.641 82.588,969.15 99.468,993.61C183.444,821.44 270.883,650.477 361.946,480.763C366.81,471.697 375.135,464.986 385.025,462.155C394.916,459.325 405.531,460.616 414.454,465.735L610.184,578.026C619.533,583.39 626.171,592.463 628.453,602.996C630.734,613.53 628.446,624.537 622.155,633.288C520.274,775.015 416.811,916.497 311.201,1057.64C409.872,1039.57 517.84,982.425 588.111,888.767C655.318,799.192 712.238,629.096 739.282,539.193C738.625,539.155 737.966,539.115 737.308,539.074C681.038,535.579 631.137,521.519 595.125,496.376C558.503,470.808 530.612,428.721 510.867,377.177C506.684,366.256 502.85,354.895 499.339,343.199ZM993.38,-176.252C915.54,-88.043 846,2.958 788.197,100.576L848.444,133.652C858.062,138.932 864.926,148.114 867.267,158.833C869.609,169.553 867.199,180.761 860.659,189.57L668.062,449.003C689.628,457.068 714.919,461.371 742.03,463.055C804.282,466.922 875.726,456.103 939.493,436.195C939.493,436.195 998.468,261.017 998.468,261.018C971.453,187.183 956.284,120.97 947.54,27.471C946.766,19.196 948.72,10.895 953.104,3.835C991.004,-57.199 1025.76,-117.367 1069.5,-171.034L1069.5,-171.034C1044.29,-173.763 1019.02,-175.548 993.38,-176.252ZM890.741,-173.188C837.344,-168.554 781.056,-159.012 719.612,-143.503C719.612,-143.503 543.08,150.645 543.08,150.646C548.728,218.171 559.468,291.129 581.993,349.931C589.408,369.287 597.958,387.08 608.267,402.145L773.727,179.266L717.73,148.523C708.871,143.66 702.317,135.466 699.518,125.756C696.719,116.045 697.906,105.62 702.816,96.787C755.716,1.638 819.258,-87.353 890.741,-173.188Z"/>
                </g>
            </g>
        </g>
    </g>
</svg>
