<?xml version="1.0" standalone="no"?>
<!DOCTYPE svg PUBLIC "-//W3C//DTD SVG 20010904//EN"
 "http://www.w3.org/TR/2001/REC-SVG-20010904/DTD/svg10.dtd">
<svg version="1.0" xmlns="http://www.w3.org/2000/svg"
 width="700.000000pt" height="700.000000pt" viewBox="0 0 700.000000 700.000000"
 preserveAspectRatio="xMidYMid meet">
<metadata>
Created by potrace 1.14, written by Peter Selinger 2001-2017
</metadata>
<g transform="translate(0.000000,700.000000) scale(0.100000,-0.100000)"
fill="#000000" stroke="none">
<path d="M986 6984 c-430 -78 -787 -387 -926 -803 -62 -183 -58 -22 -59 -2676
0 -1504 4 -2453 10 -2490 62 -392 317 -732 672 -900 103 -49 232 -89 334 -104
43 -6 962 -10 2493 -9 2648 0 2488 -4 2671 58 430 144 747 522 808 964 15 108
15 4844 0 4952 -70 505 -471 918 -979 1008 -124 22 -4902 22 -5024 0z"/>
</g>
</svg>
