<svg width="100%" height="100%" viewBox="0 0 2000 2000" version="1.1" xmlns="http://www.w3.org/2000/svg" xmlns:xlink="http://www.w3.org/1999/xlink" xml:space="preserve" xmlns:serif="http://www.serif.com/" style="fill-rule:evenodd;clip-rule:evenodd;stroke-linejoin:round;stroke-miterlimit:2;">
    <g id="face">
        <path d="M688.434,661.303C663.544,1000.92 515.071,1574.96 565.987,1798.07C601.76,1954.83 851.335,1999 993.933,1999.98C1136.53,2000.95 1385.12,1959.61 1421.57,1803.95C1473.78,1581.03 1304.05,1032.79 1307.16,662.417C1308.57,495.608 700.663,494.467 688.434,661.303Z" style="fill:rgb(255,192,0);"/>
        <path d="M831.453,1107.77C831.453,1107.77 913.844,1756.31 947.909,1885.56C963.804,1945.87 1022.38,1944.74 1038.51,1882.52C1072.26,1752.36 1157.82,1106.65 1157.82,1106.65C1050.72,1097.55 942.016,1097.42 831.453,1107.77Z" style="fill:rgb(255,0,0);"/>
        <path d="M1182.21,9.674C1182.21,9.674 817.574,-62.99 648.305,189.978C515.719,388.124 549.406,600.029 607.037,727.117C664.67,854.206 810.436,955.139 994.097,952.512C1129.63,950.572 1420.02,904.863 1414.57,628.334C1410.18,405.545 1205.56,355.878 1157.82,256.081C1077.92,89.043 1145.27,58.857 1182.21,9.674Z" style="fill:rgb(124,0,255);"/>
        <clipPath id="_clip1">
            <path d="M1182.21,9.674C1182.21,9.674 817.574,-62.99 648.305,189.978C515.719,388.124 549.406,600.029 607.037,727.117C664.67,854.206 810.436,955.139 994.097,952.512C1129.63,950.572 1420.02,904.863 1414.57,628.334C1410.18,405.545 1205.56,355.878 1157.82,256.081C1077.92,89.043 1145.27,58.857 1182.21,9.674Z"/>
        </clipPath>
        <g clip-path="url(#_clip1)">
            <path d="M1180.74,11.083C1150.33,-155.452 580.72,-189.275 468.442,355.434C363.138,866.31 864.548,938.291 864.548,938.291C715.936,570.315 757.701,101.04 1180.74,11.083Z" style="fill:rgb(0,192,255);"/>
        </g>
    </g>
	<style>
		@media (prefers-color-scheme: dark){
		
		}
	</style>
</svg>
