<?xml version="1.0" encoding="UTF-8" standalone="no"?>
<!DOCTYPE svg PUBLIC "-//W3C//DTD SVG 1.1//EN" "http://www.w3.org/Graphics/SVG/1.1/DTD/svg11.dtd">
<svg width="100%" height="100%" viewBox="0 0 2000 2000" version="1.1" xmlns="http://www.w3.org/2000/svg" xmlns:xlink="http://www.w3.org/1999/xlink" xml:space="preserve" xmlns:serif="http://www.serif.com/" style="fill-rule:evenodd;clip-rule:evenodd;stroke-linejoin:round;stroke-miterlimit:2;">
    <g transform="matrix(2.13334,0,0,2.18712,-156.13,-306.067)">
        <g transform="matrix(0.881032,-0.012859,0.0130748,0.843276,50.8306,111.844)">
            <path d="M33.968,605.324L65.602,621.018L37.153,640.858L37.151,640.81L36.896,637.519C36.896,637.519 36.924,636.282 36.924,636.282C36.927,636.183 36.924,636.083 36.916,635.984C36.626,632.222 35.392,629.748 33.709,628.364C32.341,627.239 30.618,626.679 28.496,626.843C25.854,627.047 24,628.108 22.799,629.757C21.726,631.229 21.142,633.314 21.355,636.078C21.471,637.571 21.753,639.352 22.213,641.42C22.214,641.422 22.214,641.424 22.215,641.426C23.437,646.861 24.165,650.951 24.377,653.699C24.663,657.399 24.613,661.39 24.235,665.673C24.021,668.101 23.984,670.115 24.107,671.714C24.319,674.459 25.245,676.41 26.586,677.687C28.033,679.065 30.043,679.801 32.707,679.595C34.825,679.431 36.441,678.662 37.625,677.451C39.177,675.864 40.076,673.317 39.794,669.672C39.769,669.343 39.688,668.816 39.533,668.094C39.535,668.1 39.455,667.068 39.455,667.068C39.442,666.904 39.416,666.74 39.376,666.58C39.269,666.144 39.194,665.484 39.126,664.602C39.035,663.425 39.344,662.399 40.084,661.535C40.46,661.096 41.839,660.048 44.161,658.313C44.161,658.313 83.657,628.868 83.657,628.868C84.507,628.785 85.481,628.667 86.577,628.514C86.573,628.514 89.095,628.32 89.095,628.32C95.934,627.792 99.835,627.519 100.801,627.528C103.813,627.821 105.643,628.846 105.826,631.216C105.874,631.842 105.835,632.769 105.733,633.997C105.596,635.648 105.572,636.894 105.637,637.736C105.826,640.182 106.746,641.902 108.102,643.028C109.425,644.126 111.278,644.739 113.74,644.548C115.847,644.386 117.456,643.631 118.636,642.449C120.206,640.879 121.115,638.364 120.837,634.763C120.823,634.579 120.798,634.258 120.763,633.8C120.744,633.555 120.695,633.314 120.618,633.081C120.591,633 120.557,632.883 120.546,632.842C120.536,632.754 120.521,632.667 120.502,632.58L118.997,625.636C118.453,623.132 118.074,620.484 117.858,617.692C117.655,615.065 117.625,612.382 117.765,609.641L118.145,601.994C118.151,601.867 118.149,601.741 118.139,601.614C118.134,601.546 118.153,601.466 118.169,601.373C118.21,601.131 118.221,600.885 118.202,600.641C118.167,600.182 118.146,599.907 118.139,599.815C117.86,596.2 116.547,593.849 114.7,592.537C113.34,591.571 111.616,591.081 109.485,591.246C107.07,591.432 105.367,592.307 104.249,593.571C103.103,594.867 102.466,596.672 102.652,599.073C102.716,599.904 102.932,601.169 103.324,602.863C103.625,604.16 103.811,605.125 103.86,605.762C103.978,607.293 103.778,608.417 102.682,608.887C100.572,609.79 95.086,610.489 86.248,611.172C86.248,611.172 81.342,611.551 81.342,611.551C81.342,611.551 37.519,588.148 37.519,588.148C37.519,588.148 34.225,586.345 34.225,586.345C32.897,585.597 32.117,584.583 32.011,583.213C31.975,582.749 31.995,581.91 32.051,580.695C32.18,579.793 32.205,578.553 32.083,576.978C31.883,574.392 31.026,572.552 29.808,571.345C28.447,569.997 26.563,569.275 24.065,569.467C21.457,569.669 19.623,570.672 18.429,572.188C17.304,573.616 16.687,575.624 16.893,578.29C17.002,579.696 17.278,581.392 17.734,583.377C17.735,583.381 17.736,583.384 17.737,583.388C18.801,587.937 19.483,592.115 19.777,595.922C20.058,599.564 20.031,603.899 19.704,608.928C19.567,611.042 19.561,612.845 19.677,614.339C19.888,617.069 20.791,619.013 22.091,620.286C23.523,621.687 25.509,622.434 28.139,622.23C30.781,622.026 32.635,620.965 33.836,619.316C34.909,617.844 35.493,615.759 35.28,612.995C35.21,612.09 35.015,610.79 34.682,609.098C34.682,609.098 34.01,605.64 34.01,605.64L33.968,605.324Z" style="fill:rgb(161,0,255);fill-rule:nonzero;"/>
        </g>
        <g transform="matrix(0.881131,0,0,0.843371,58.3759,130.05)">
            <path d="M83.739,546.583L86.028,502.877C86.225,499.122 85.013,497.011 83.725,496.159C82.785,495.538 80.19,494.868 75.855,494.641C66.094,494.13 57.898,496.821 51.237,502.627C44.539,508.466 40.909,516.126 40.411,525.638C39.852,536.31 43.252,545.16 50.556,552.206C57.707,559.104 67.267,562.937 79.292,563.567C91.066,564.184 100.576,561.517 107.873,555.748C115.318,549.862 119.374,541.646 119.929,531.047C120.369,522.649 118.234,515.02 113.531,508.158C108.585,500.939 102.608,497.286 95.773,496.928C93.075,496.787 91.062,497.494 89.644,498.737C88.199,500.004 87.256,501.914 87.116,504.592C86.911,508.499 88.625,511.048 92.169,512.294C92.164,512.292 96.075,513.734 96.075,513.734C96.086,513.738 96.097,513.742 96.109,513.746C98.81,514.706 100.949,516.621 102.587,519.421C104.315,522.375 105.087,525.573 104.907,529.016C104.631,534.284 102.433,538.583 98.316,541.915C94.288,545.176 89.421,546.708 83.739,546.583ZM70.305,511.589L68.588,544.373C65.249,543.883 62.317,541.917 59.707,538.62C56.697,534.818 55.274,530.715 55.506,526.29C55.724,522.128 57.431,518.59 60.599,515.664C63.459,513.022 66.69,511.651 70.305,511.589Z" style="fill:rgb(161,0,255);fill-rule:nonzero;"/>
        </g>
        <g transform="matrix(0.881131,0,0,0.843371,58.3759,130.05)">
            <path d="M114.811,491.661L114.287,491.478C114.287,491.478 111.637,490.671 107.595,489.519C107.556,489.507 107.518,489.496 107.479,489.483C106.379,489.12 105.265,488.839 104.136,488.637C102.159,488.285 100.276,488.117 98.487,488.138C96.279,488.164 94.566,488.054 93.345,487.836C90.853,487.392 89.161,486.346 88.117,484.985C86.999,483.526 86.502,481.604 86.938,479.162C87.539,475.786 89.164,474.086 90.929,473.488C92.114,473.087 95.046,473.045 99.707,473.765C102.642,474.217 105.238,472.981 107.607,470.317C110.439,467.131 112.29,462.749 113.275,457.221C113.934,453.524 113.597,450.292 112.141,447.541C110.865,445.13 108.995,443.667 106.482,443.219C101.629,442.354 98.704,446.28 96.546,453.848C96.544,453.853 96.543,453.858 96.541,453.863C93.744,463.493 90.426,470.607 86.697,475.253C82.481,480.506 76.437,482.58 68.463,481.16C61.182,479.862 55.777,476.044 52.235,469.725C48.838,463.666 47.818,456.408 49.329,447.93L49.329,447.93C50.216,442.95 51.976,438.752 54.571,435.317C54.072,434.957 53.651,434.555 53.299,434.121C52.093,432.634 51.56,430.688 52,428.221C52.433,425.79 53.49,424.15 54.885,423.144C56.315,422.114 58.21,421.654 60.626,422.085C61.202,422.187 62.627,422.534 64.897,423.137C65.007,423.166 65.116,423.202 65.222,423.243C66.783,423.855 68.373,424.306 69.991,424.595C70.977,424.77 72.44,424.872 74.38,424.921C76.72,424.98 78.482,425.126 79.671,425.338C82.272,425.802 84.051,426.856 85.151,428.217C86.372,429.73 86.909,431.711 86.462,434.221C86.039,436.596 84.994,438.217 83.588,439.23C82.183,440.242 80.315,440.721 77.928,440.372L73.425,439.71C71.58,439.445 69.903,440.405 68.224,442.219C66.11,444.503 64.771,447.389 64.154,450.852C63.54,454.302 63.853,457.352 65.201,459.991C66.354,462.247 68.009,463.63 70.253,464.03C74.643,464.812 77.429,461.837 79.327,455.947L81.819,448.259C87.264,431.312 96.416,424.397 108.471,426.545C115.941,427.876 121.469,431.814 125.069,438.343C128.514,444.59 129.529,452.122 127.955,460.959C126.844,467.192 124.493,472.552 120.92,477.051C122.082,477.6 122.967,478.34 123.608,479.205C124.717,480.702 125.206,482.681 124.757,485.199C124.28,487.874 123.047,489.667 121.327,490.74C119.727,491.739 117.568,492.152 114.811,491.661Z" style="fill:rgb(161,0,255);fill-rule:nonzero;"/>
        </g>
        <g transform="matrix(0.881131,0,0,0.843371,58.3759,130.05)">
            <path d="M119.695,395.975C118.996,398.802 119.356,401.515 120.771,404.114C122.293,406.91 124.584,408.786 127.647,409.736C130.711,410.686 133.661,410.435 136.498,408.99C139.364,407.531 141.28,405.256 142.239,402.162C143.192,399.089 142.917,396.119 141.408,393.254C139.9,390.389 137.607,388.482 134.533,387.529C131.46,386.576 128.49,386.851 125.625,388.36C123.087,389.697 121.301,391.649 120.264,394.215C120.422,393.617 120.529,393.086 120.593,392.622C120.594,392.613 120.595,392.603 120.596,392.594C120.931,389.954 119.617,387.338 115.677,385.471C115.661,385.463 115.645,385.456 115.63,385.449C114.911,385.124 112.923,384.44 109.654,383.427C109.654,383.427 84.914,375.755 84.914,375.755L70.83,370.956C64.416,368.796 59.753,367.129 59.753,367.129C59.753,367.129 59.815,367.163 59.829,367.171C59.753,367.13 59.675,367.092 59.596,367.057C58.74,366.684 57.772,366.328 56.689,365.992C52.578,364.717 49.422,365.011 47.21,366.33C45.526,367.335 44.253,368.945 43.533,371.266C42.831,373.531 42.942,375.521 43.685,377.241C44.687,379.559 46.987,381.547 50.911,382.763C51.96,383.089 52.888,383.323 53.693,383.473C58.219,384.69 62.256,385.848 65.796,386.946C65.814,386.951 65.831,386.956 65.849,386.961L80.403,391.186L108.189,399.802C111.864,400.941 114.679,400.675 116.642,399.543C117.97,398.777 119.017,397.61 119.695,395.975Z" style="fill:rgb(161,0,255);fill-rule:nonzero;"/>
        </g>
        <g transform="matrix(0.881131,0,0,0.843371,51.5133,143.545)">
            <path d="M141.013,339.634C139.96,342.349 139.973,345.086 141.047,347.844C142.202,350.811 144.236,352.962 147.154,354.293C150.072,355.624 153.03,355.75 156.028,354.677C159.056,353.593 161.245,351.58 162.589,348.632C163.924,345.705 164.028,342.724 162.895,339.691C161.762,336.657 159.73,334.475 156.802,333.14C153.875,331.805 150.894,331.7 147.861,332.833C145.173,333.837 143.154,335.547 141.8,337.961C142.032,337.388 142.207,336.874 142.328,336.422C142.331,336.413 142.333,336.404 142.336,336.395C143.002,333.819 142.031,331.057 138.36,328.705C138.345,328.695 138.33,328.686 138.315,328.677C137.644,328.263 135.758,327.333 132.645,325.913C132.645,325.913 109.078,315.164 109.078,315.164L95.717,308.616C89.629,305.66 85.215,303.414 85.215,303.414C85.215,303.414 85.272,303.457 85.286,303.466C85.216,303.416 85.143,303.368 85.069,303.323C84.268,302.845 83.352,302.369 82.321,301.898C78.404,300.112 75.236,300.003 72.875,301.031C71.077,301.813 69.61,303.249 68.602,305.46C67.618,307.617 67.475,309.606 67.994,311.406C68.694,313.833 70.723,316.096 74.461,317.801C75.46,318.256 76.35,318.607 77.13,318.858C81.465,320.639 85.323,322.3 88.695,323.838C88.712,323.845 88.728,323.853 88.745,323.86L102.646,329.898L129.113,341.97C132.614,343.567 135.441,343.66 137.531,342.786C138.945,342.195 140.132,341.17 141.013,339.634Z" style="fill:rgb(161,0,255);fill-rule:nonzero;"/>
        </g>
        <g transform="matrix(0.881131,0,0,0.843371,58.3759,130.05)">
            <path d="M226.533,245.741C226.461,245.825 226.384,245.904 226.302,245.979C226.302,245.979 221.279,250.608 221.279,250.608C219.459,252.285 217.583,254.312 215.647,256.685C213.535,259.273 211.807,261.664 210.467,263.861L206.856,269.814C206.784,269.933 206.703,270.047 206.615,270.155C206.572,270.208 206.542,270.285 206.502,270.37C206.398,270.592 206.267,270.801 206.112,270.991C205.821,271.347 205.617,271.597 205.501,271.739C203.245,274.504 200.866,275.666 198.644,275.695C196.998,275.717 195.328,275.147 193.699,273.818C191.809,272.276 190.916,270.563 190.743,268.847C190.569,267.131 191.1,265.273 192.641,263.384C193.171,262.734 194.06,261.833 195.323,260.7C196.277,259.843 196.963,259.178 197.364,258.688C199.309,256.304 197.71,253.937 194.134,251.019L186.623,244.891C186.623,244.891 177.314,237.117 177.314,237.117C177.314,237.117 168.246,229.718 168.246,229.718L150.723,215.599C148.951,214.152 147.308,213.372 145.678,213.56C144.01,213.753 142.506,214.917 140.984,216.782C140.984,216.782 138.279,220.097 138.279,220.097C136.787,221.926 135.961,223.6 136.104,225.24C136.243,226.842 137.318,228.264 139.055,229.681C140.711,231.032 141.859,231.925 142.509,232.345C142.512,232.347 142.514,232.348 142.517,232.35C142.517,232.35 146.822,235.15 146.814,235.146C147.581,235.641 148.593,236.395 149.843,237.415C156.162,242.571 156.796,247.39 153.604,251.302C152.232,252.984 150.666,253.912 149.006,254.239C146.741,254.685 144.091,254.002 141.237,251.673C140.282,250.894 138.688,249.475 136.459,247.411C133.284,244.472 131.245,242.63 130.339,241.891C128.613,240.482 126.76,239.086 124.783,237.703C122.596,236.178 120.757,234.924 120.094,234.475C119.866,234.37 119.647,234.236 119.444,234.07C117.237,232.269 116.124,230.331 115.836,228.433C115.526,226.398 116.095,224.261 117.841,222.121C118.667,221.109 120.684,218.852 123.886,215.369C124.354,214.807 126.805,211.948 131.242,206.79C131.242,206.79 141.375,194.806 141.387,194.792C142.564,193.346 145.581,189.504 150.438,183.264C150.452,183.245 150.466,183.228 150.481,183.21C151.561,181.886 153.301,179.535 155.706,176.162C157.927,172.993 159.724,170.571 161.093,168.893C163.568,165.861 166.184,164.582 168.666,164.587C170.451,164.59 172.272,165.236 174.061,166.696L174.376,166.958C174.343,166.928 174.309,166.899 174.274,166.87C175.026,167.484 176.343,168.707 178.219,170.551C179.971,172.272 181.846,174.124 183.846,176.105C183.846,176.105 184.91,176.974 184.91,176.974C185.933,177.808 187.622,179.01 189.972,180.586C193.324,182.828 195.366,184.258 196.106,184.862C198.297,186.65 199.378,188.599 199.623,190.535C199.877,192.539 199.276,194.673 197.516,196.83C196.103,198.562 194.47,199.499 192.711,199.795C190.392,200.184 187.637,199.409 184.633,196.959C183.306,195.876 181.422,194.159 178.986,191.803C176.71,189.602 174.955,187.994 173.716,186.982C172.053,185.626 170.468,184.939 168.859,185.212C167.067,185.517 165.398,186.86 163.667,188.982C163.667,188.982 161.224,191.976 161.224,191.976C159.704,193.839 158.799,195.4 158.922,196.843C159.046,198.293 160.144,199.703 161.88,201.289C161.88,201.289 169.042,207.663 169.042,207.663L205.258,237.391C208.839,240.312 211.516,241.342 213.503,238.907C213.904,238.416 214.418,237.611 215.065,236.504C215.922,235.039 216.626,233.988 217.156,233.338C218.428,231.78 220.09,230.883 222.157,230.673C224.225,230.464 226.033,231.009 227.591,232.281C229.228,233.617 230.119,235.155 230.414,236.799C230.807,238.984 230.119,241.568 227.835,244.367C227.719,244.509 227.544,244.723 227.312,245.008C227.187,245.161 227.047,245.302 226.895,245.427C226.753,245.544 226.574,245.704 226.533,245.741ZM226.533,245.741L226.524,245.749C226.524,245.749 226.576,245.692 226.594,245.669L226.533,245.741Z" style="fill:rgb(161,0,255);fill-rule:nonzero;"/>
        </g>
        <g transform="matrix(0.881131,0,0,0.843371,53.791,133.35)">
            <path d="M210.542,132.366L210.537,132.359C208.745,130.088 206.867,129.095 205.201,128.936C203.777,128.8 202.364,129.186 201.011,130.253C200.447,130.699 199.576,131.505 198.413,132.684C197.483,133.627 196.733,134.332 196.153,134.789C194.652,135.973 193.2,137.009 191.797,137.895C191.795,137.896 191.794,137.897 191.792,137.898C189.378,139.428 187.985,140.355 187.6,140.658C185.78,142.094 184.676,143.871 184.236,145.956C183.735,148.328 184.221,150.354 185.567,152.06C187.095,153.997 188.84,154.907 190.633,155.064C192.344,155.213 194.236,154.666 196.199,153.118C196.896,152.568 197.765,151.694 198.779,150.47C199.417,149.699 199.917,149.14 200.309,148.822C200.38,148.837 200.505,148.867 200.586,148.898C200.756,148.964 200.93,149.053 201.111,149.159C201.654,149.478 202.228,149.935 202.847,150.514C205.485,152.981 210.987,159.549 219.384,170.193C219.384,170.193 234.566,189.658 234.566,189.658C239.693,196.302 242.925,200.832 244.226,203.274C244.529,203.844 244.761,204.558 244.875,204.944C244.44,205.228 243.822,205.578 243.027,206.008C242.307,206.31 241.353,206.881 240.207,207.784C237.669,209.787 236.599,211.935 236.532,213.938C236.482,215.447 236.967,216.987 238.157,218.496C239.819,220.602 241.743,221.576 243.773,221.683C245.625,221.78 247.702,221.115 249.89,219.389C250.718,218.736 252.525,217.077 255.299,214.4C257.203,212.562 258.738,211.178 259.909,210.254C261.791,208.769 264.168,207.124 267.036,205.313C269.348,203.86 271.034,202.708 272.1,201.866C274.901,199.657 276.102,197.296 276.168,195.076C276.216,193.43 275.675,191.751 274.372,190.1C272.881,188.21 271.189,187.314 269.467,187.139C267.789,186.968 265.945,187.479 264.042,188.98C263.418,189.473 262.559,190.365 261.511,191.698C260.888,192.492 260.376,193.083 259.941,193.442C259.806,193.401 259.486,193.298 259.278,193.184C258.455,192.737 257.56,191.973 256.556,190.937C256.55,190.93 256.543,190.924 256.537,190.917C255.973,190.346 254.137,188.068 251.007,184.101L249.448,182.125C248.7,181.026 248.145,180.25 247.786,179.795C247.797,179.81 241.762,171.937 241.762,171.937C241.76,171.936 241.759,171.934 241.758,171.933C237.627,166.563 235.29,162.105 235.018,158.426C235.017,158.42 235.017,158.414 235.016,158.408C234.616,153.415 236.942,149.098 241.728,145.322C245.989,141.961 250.126,140.953 254.213,142.652C254.223,142.656 254.232,142.66 254.242,142.664C257.406,143.941 261.54,148.096 266.887,154.874C266.887,154.874 271.481,160.697 271.481,160.697C271.481,160.697 275.023,165.407 275.023,165.407C276.96,168.013 278.277,169.756 278.971,170.636C280.186,172.228 281.045,173.611 281.488,174.804C281.621,175.161 281.712,175.488 281.739,175.789C281.751,175.924 281.771,176.048 281.673,176.125C281.328,176.397 280.905,176.609 280.415,176.786C278.687,177.409 277.334,178.142 276.331,178.933C274.735,180.192 273.748,181.809 273.36,183.779C272.932,185.957 273.398,187.858 274.691,189.497C276.166,191.366 278.089,192.36 280.459,192.48C282.629,192.591 284.692,191.932 286.618,190.413C287.382,189.809 289.203,188.024 292.053,185.031C292.881,184.162 294.168,183.05 295.901,181.682C297.708,180.257 300.211,178.57 303.404,176.615C305.513,175.326 307.066,174.28 308.069,173.488C310.984,171.189 312.331,168.828 312.548,166.705C312.727,164.962 312.245,163.243 310.946,161.597C309.374,159.604 307.557,158.685 305.654,158.57C303.908,158.464 301.953,159.07 299.903,160.687C299.02,161.384 298.354,161.994 297.893,162.501C297.829,162.571 297.768,162.645 297.711,162.721C297.176,163.437 296.729,163.99 296.342,164.354C296.191,164.293 295.979,164.2 295.823,164.106C295.002,163.607 294.096,162.787 293.073,161.683C293.014,161.62 292.954,161.56 292.891,161.503C292.499,161.147 290.741,158.935 287.564,154.908C287.564,154.908 273.289,136.815 273.289,136.815C268.166,130.321 261.896,126.801 254.537,126.153C247.272,125.514 240.168,127.836 233.276,133.274C229.66,136.127 227.007,139.201 225.275,142.458C224.351,144.195 223.551,146.27 222.889,148.685C222.888,148.686 210.755,132.637 210.755,132.637L210.793,132.689L210.542,132.366Z" style="fill:rgb(161,0,255);fill-rule:nonzero;"/>
        </g>
        <g transform="matrix(0.881131,0,0,0.843371,58.3759,130.05)">
            <path d="M295.351,111.182C295.563,111.301 296.038,111.584 296.362,111.874C297.293,112.707 298.289,113.949 299.381,115.575C299.384,115.58 305.181,125.956 305.181,125.956L316.498,146.212C317.336,148.044 317.895,149.581 318.139,150.835C318.221,151.254 318.23,151.781 318.228,152.048C317.701,152.302 316.962,152.575 316.017,152.886C314.396,153.42 313.215,153.915 312.46,154.336C310.264,155.563 309.035,157.126 308.532,158.805C308.018,160.524 308.21,162.501 309.429,164.683C310.7,166.957 312.415,168.172 314.388,168.561C316.141,168.908 318.241,168.57 320.619,167.242C321.718,166.628 323.803,165.2 326.862,162.937C329.141,161.262 331.275,159.866 333.265,158.754C334.471,158.08 336.398,157.237 339.038,156.208C342.023,155.043 344.193,154.071 345.557,153.309C347.747,152.086 349.197,150.454 349.994,148.496C350.935,146.183 350.79,144.076 349.725,142.169C348.481,139.943 346.811,138.75 344.908,138.354C343.195,137.996 341.151,138.307 338.843,139.596C337.734,140.216 336.96,140.838 336.465,141.388C335.591,142.21 335,142.772 334.653,143.026C334.537,142.965 334.36,142.866 334.239,142.774C333.566,142.263 332.873,141.46 332.119,140.403C331.654,139.753 330.357,137.495 328.205,133.643C328.205,133.643 319.454,117.981 319.454,117.981C317.537,114.55 315.704,111.175 313.956,107.859C313.953,107.853 313.95,107.848 313.948,107.843C311.692,103.624 310.418,101.188 310.15,100.527C310.103,100.411 310.05,100.299 309.989,100.19C309.85,99.941 309.679,99.547 309.463,99.014C309.122,98.172 308.834,97.558 308.614,97.164C307.025,94.32 305.096,92.886 303.191,92.457C301.687,92.118 300.084,92.329 298.413,93.262C297.686,93.669 296.628,94.395 295.254,95.461C294.202,96.278 293.404,96.851 292.847,97.163C292.171,97.54 290.544,98.238 287.974,99.279C287.218,99.586 285.997,100.2 284.318,101.137C281.216,102.871 279.651,104.984 279.214,107.116C278.883,108.73 279.136,110.462 280.15,112.277C281.366,114.454 282.99,115.625 284.822,116.029C286.497,116.398 288.486,116.115 290.723,114.865C291.418,114.477 292.407,113.731 293.651,112.58C294.33,111.952 294.889,111.478 295.351,111.182ZM294.399,94C296.965,92.567 298.659,90.42 299.471,87.552C300.283,84.683 299.965,81.967 298.532,79.402C297.087,76.815 294.934,75.141 292.073,74.378C289.247,73.625 286.557,73.962 284.002,75.389C281.447,76.817 279.749,78.932 278.91,81.733C278.059,84.569 278.356,87.28 279.801,89.867C281.235,92.432 283.381,94.126 286.25,94.938C289.118,95.75 291.834,95.433 294.399,94Z" style="fill:rgb(161,0,255);fill-rule:nonzero;"/>
        </g>
        <g transform="matrix(0.881131,0,0,0.843371,58.3759,130.05)">
            <path d="M366.996,62.17C362.708,61.785 358.214,62.513 353.519,64.394L353.519,64.394C345.525,67.597 339.905,72.302 336.56,78.389C333.071,84.738 332.69,91.344 335.44,98.209C338.453,105.728 343.411,109.76 350.098,110.56C356.014,111.266 363.806,110.319 373.459,107.599C373.463,107.597 373.468,107.596 373.473,107.595C381.037,105.423 385.916,105.828 387.75,110.404C388.699,112.774 388.446,115.134 387.075,117.493C385.511,120.184 382.946,122.179 379.46,123.576C374.247,125.664 369.55,126.411 365.348,125.693C361.834,125.092 359.412,123.543 358.243,120.812C356.388,116.477 354.802,114.011 353.835,113.217C352.394,112.035 350.091,111.556 346.909,112.831C344.606,113.754 343.238,115.192 342.591,116.913C341.987,118.518 341.995,120.507 342.937,122.857C343.398,124.008 344.21,125.521 345.401,127.381C346.365,128.888 347.218,130.574 347.965,132.439C348.391,133.503 348.741,134.598 349.016,135.723C349.025,135.763 349.036,135.802 349.047,135.841C349.981,139.091 350.627,141.459 350.844,142.26C350.869,142.541 350.936,142.822 351.046,143.097C352.088,145.697 353.58,147.31 355.274,148.14C357.095,149.032 359.268,149.13 361.79,148.12C364.165,147.168 365.586,145.707 366.27,143.974C366.665,142.972 366.825,141.83 366.676,140.553C372.384,141.206 378.177,140.365 384.054,138.011C392.385,134.672 398.24,129.826 401.72,123.598C405.355,117.09 405.773,110.315 402.952,103.272C398.398,91.906 387.688,87.797 370.426,92.14L362.583,94.093C356.581,95.597 352.582,94.807 350.924,90.668C350.076,88.552 350.374,86.416 351.679,84.244C353.206,81.704 355.629,79.824 358.881,78.521C362.147,77.213 365.304,76.822 368.36,77.408C370.788,77.874 372.49,78.789 373.241,80.494L375.061,84.666C376.027,86.876 377.422,88.209 379.024,88.865C380.627,89.522 382.556,89.552 384.795,88.655C387.162,87.706 388.559,86.203 389.196,84.366C389.77,82.713 389.724,80.646 388.741,78.192C388.292,77.072 387.484,75.499 386.297,73.482C385.312,71.81 384.624,70.514 384.252,69.585C383.64,68.059 383.182,66.471 382.876,64.823C382.855,64.711 382.828,64.6 382.794,64.49C382.105,62.245 381.645,60.853 381.427,60.31C380.515,58.032 379.122,56.667 377.492,55.998C375.9,55.346 373.95,55.317 371.657,56.235C369.331,57.167 367.961,58.648 367.337,60.459C367.155,60.986 367.037,61.557 366.996,62.17Z" style="fill:rgb(161,0,255);fill-rule:nonzero;"/>
        </g>
        <g transform="matrix(0.881131,0,0,0.843371,58.3759,130.05)">
            <path d="M448.417,53.47C448.577,53.652 448.935,54.073 449.147,54.453C449.756,55.544 450.293,57.043 450.797,58.936C450.799,58.941 452.903,70.639 452.903,70.639L457.012,93.475C457.208,95.48 457.237,97.115 457.059,98.38C457,98.803 456.837,99.304 456.748,99.556C456.167,99.625 455.379,99.642 454.385,99.629C452.679,99.606 451.401,99.69 450.55,99.843C448.074,100.288 446.403,101.366 445.381,102.79C444.336,104.248 443.874,106.18 444.317,108.64C444.778,111.203 446.005,112.911 447.743,113.921C449.289,114.819 451.384,115.184 454.064,114.701C455.303,114.478 457.74,113.807 461.369,112.662C464.069,111.82 466.54,111.195 468.784,110.791C470.144,110.546 472.241,110.376 475.072,110.262C478.273,110.132 480.641,109.919 482.179,109.643C484.648,109.198 486.55,108.128 487.941,106.536C489.584,104.655 490.132,102.616 489.745,100.466C489.294,97.956 488.103,96.285 486.433,95.29C484.929,94.395 482.895,94.023 480.294,94.491C479.043,94.716 478.108,95.053 477.461,95.412C476.368,95.904 475.626,96.244 475.216,96.371C475.125,96.276 474.991,96.124 474.906,95.998C474.436,95.296 474.042,94.311 473.673,93.066C473.445,92.3 472.953,89.743 472.172,85.4C472.172,85.4 468.995,67.743 468.995,67.743C468.299,63.874 467.664,60.087 467.09,56.382C467.089,56.376 467.088,56.371 467.087,56.365C466.327,51.641 465.916,48.924 465.877,48.211C465.871,48.086 465.856,47.963 465.834,47.84C465.784,47.559 465.751,47.131 465.72,46.556C465.671,45.65 465.599,44.975 465.52,44.532C464.943,41.325 463.585,39.341 461.924,38.316C460.612,37.506 459.027,37.183 457.144,37.522C456.323,37.67 455.087,38.013 453.441,38.573C452.18,39.003 451.239,39.286 450.611,39.399C449.849,39.536 448.083,39.666 445.315,39.814C444.5,39.858 443.145,40.041 441.253,40.381C437.756,41.011 435.588,42.5 434.481,44.373C433.642,45.792 433.318,47.512 433.687,49.558C434.128,52.013 435.282,53.648 436.883,54.627C438.346,55.521 440.319,55.9 442.842,55.446C443.625,55.305 444.803,54.922 446.354,54.238C447.2,53.866 447.884,53.599 448.417,53.47ZM453.108,36.913C456,36.393 458.301,34.915 460.002,32.467C461.703,30.019 462.287,27.347 461.767,24.455C461.242,21.539 459.751,19.255 457.294,17.603C454.867,15.971 452.214,15.414 449.333,15.932C446.453,16.45 444.16,17.898 442.454,20.273C440.727,22.678 440.125,25.339 440.65,28.255C441.17,31.147 442.649,33.447 445.097,35.148C447.545,36.85 450.216,37.434 453.108,36.913Z" style="fill:rgb(161,0,255);fill-rule:nonzero;"/>
        </g>
        <g transform="matrix(0.881131,0,0,0.843371,58.3759,130.05)">
            <path d="M531.6,30.116C527.657,28.388 523.165,27.651 518.115,27.943L518.115,27.943C509.518,28.441 502.694,31.117 497.589,35.827C492.264,40.738 489.804,46.881 490.231,54.264C490.699,62.351 494.12,67.749 500.207,70.631C505.592,73.18 513.281,74.757 523.298,75.244C523.303,75.244 523.308,75.244 523.313,75.245C531.175,75.588 535.673,77.522 535.958,82.443C536.105,84.992 535.115,87.15 533.066,88.951C530.728,91.006 527.662,92.083 523.913,92.3C518.307,92.624 513.616,91.841 509.86,89.825C506.719,88.139 504.914,85.9 504.673,82.94C504.291,78.24 503.571,75.398 502.906,74.338C501.915,72.76 499.884,71.574 496.461,71.772C493.984,71.915 492.23,72.844 491.07,74.271C489.988,75.601 489.364,77.49 489.51,80.017C489.581,81.255 489.871,82.947 490.409,85.089C490.845,86.824 491.118,88.694 491.234,90.699C491.3,91.844 491.284,92.993 491.187,94.148C491.184,94.188 491.181,94.228 491.179,94.269C491.032,97.648 490.893,100.098 490.844,100.927C490.779,101.201 490.753,101.489 490.77,101.785C490.931,104.581 491.834,106.584 493.177,107.909C494.62,109.334 496.65,110.117 499.362,109.96C501.916,109.812 503.728,108.878 504.927,107.452C505.62,106.628 506.134,105.595 506.399,104.337C511.603,106.769 517.363,107.812 523.684,107.446C532.644,106.928 539.735,104.193 545.013,99.392C550.528,94.376 553.076,88.085 552.638,80.51C551.93,68.286 543.081,60.988 525.333,59.623L517.276,58.983C511.107,58.503 507.566,56.484 507.309,52.032C507.177,49.756 508.138,47.825 510.065,46.181C512.319,44.257 515.214,43.245 518.712,43.042C522.224,42.839 525.342,43.471 528.053,44.997C530.208,46.21 531.531,47.618 531.701,49.475L532.102,54.008C532.316,56.411 533.215,58.117 534.526,59.249C535.837,60.381 537.657,61.022 540.065,60.882C542.61,60.735 544.412,59.753 545.6,58.214C546.67,56.828 547.282,54.854 547.13,52.215C547.06,51.011 546.793,49.262 546.308,46.973C545.906,45.074 545.665,43.627 545.607,42.627C545.512,40.986 545.582,39.336 545.815,37.675C545.831,37.562 545.84,37.448 545.843,37.334C545.903,34.986 545.909,33.52 545.876,32.936C545.734,30.486 544.847,28.749 543.513,27.598C542.211,26.474 540.371,25.826 537.906,25.969C535.404,26.113 533.635,27.083 532.468,28.601C532.128,29.044 531.834,29.548 531.6,30.116Z" style="fill:rgb(161,0,255);fill-rule:nonzero;"/>
        </g>
        <g transform="matrix(0.881131,0,0,0.843371,58.3759,130.05)">
            <path d="M660.667,51.751L660.618,51.974C660.618,51.974 660.568,52.238 660.493,52.645C659.982,55.392 660.429,57.554 661.513,59.177C662.616,60.828 664.449,62.048 667.175,62.555C669.329,62.955 671.144,62.628 672.645,61.751C674.636,60.586 676.214,58.285 676.904,54.576C677.08,53.629 677.162,52.86 677.172,52.271C677.172,52.274 677.757,46.928 677.757,46.928C678.017,44.577 678.181,43.186 678.261,42.756C678.894,39.351 679.567,36.449 680.284,34.053C681.083,31.38 681.487,29.942 681.523,29.747C681.523,29.747 681.674,28.933 681.674,28.933C682.316,25.483 681.677,22.959 680.297,21.274C679.268,20.018 677.78,19.122 675.746,18.743C673.823,18.386 672.207,18.673 670.873,19.426C669.937,19.955 669.098,20.753 668.426,21.859C663.737,17.081 657.631,13.97 650.085,12.566C640.063,10.702 631.414,11.959 624.12,16.193C616.629,20.543 612.037,27.144 610.385,36.025C609.418,41.224 609.865,46.127 611.697,50.739C613.549,55.404 616.514,59.125 620.583,61.909C620.594,61.917 620.606,61.924 620.617,61.932C624.673,64.626 630.545,67.434 638.249,70.322L645.734,73.119C654.486,76.385 658.519,81.364 657.187,88.526C656.326,93.155 654.003,96.526 650.144,98.589C646,100.804 640.873,101.249 634.781,100.116C628.215,98.894 623.291,96.249 620.103,92.011C616.993,87.877 616.056,82.865 617.146,77.007C617.369,75.809 617.573,74.897 617.772,74.273C617.809,74.155 617.84,74.034 617.862,73.912L618.317,71.47C618.859,68.556 618.476,66.271 617.484,64.579C616.393,62.717 614.539,61.399 611.76,60.882C609.016,60.371 606.836,60.947 605.162,62.316C603.667,63.539 602.511,65.529 601.971,68.429C601.619,70.319 601.321,73.197 601.09,77.066C600.879,80.601 600.621,83.234 600.299,84.962C600.12,85.924 599.578,88.084 598.681,91.445C598.681,91.445 596.897,98.132 596.897,98.132C596.716,98.545 596.553,99.061 596.438,99.684C595.917,102.484 596.319,104.682 597.326,106.318C598.404,108.071 600.219,109.334 602.934,109.839C605.493,110.316 607.512,109.838 609.043,108.723C610.211,107.872 611.158,106.589 611.739,104.793C617.282,110.175 624.343,113.682 632.943,115.281C643.423,117.231 652.497,115.862 660.183,111.313C668.044,106.661 672.872,99.642 674.624,90.226C676.33,81.054 674.226,73.362 668.431,67.116C664.797,63.167 657.509,59.104 646.439,55.16C639.858,52.795 635.302,50.727 632.815,48.863C629.123,45.935 627.686,42.229 628.526,37.715C629.257,33.788 631.201,30.896 634.434,29.09C637.907,27.149 642.193,26.746 647.272,27.691C652.875,28.733 657.076,30.796 659.773,34.074C662.31,37.157 663.091,40.941 662.262,45.395C662.137,46.067 661.922,46.983 661.619,48.143C661.619,48.143 660.667,51.751 660.667,51.751Z" style="fill:rgb(161,0,255);fill-rule:nonzero;"/>
        </g>
        <g transform="matrix(0.881131,0,0,0.843371,58.3759,130.05)">
            <path d="M716.442,44.408C716.465,44.477 716.502,44.6 716.515,44.686C716.543,44.866 716.553,45.061 716.551,45.271C716.547,45.901 716.437,46.627 716.245,47.452C715.425,50.969 712.484,59.017 707.459,71.608C707.459,71.608 698.181,94.484 698.181,94.484C694.987,102.245 692.677,107.307 691.211,109.655C690.869,110.202 690.367,110.759 690.089,111.051C689.626,110.816 689.013,110.455 688.244,109.981C687.623,109.509 686.652,108.967 685.297,108.426C682.294,107.228 679.898,107.374 678.13,108.317C676.798,109.027 675.706,110.216 674.993,112.002C673.999,114.494 674.116,116.646 675.038,118.459C675.879,120.111 677.493,121.579 680.081,122.611C681.061,123.002 683.4,123.739 687.105,124.804C689.648,125.536 691.614,126.174 693,126.727C695.226,127.616 697.839,128.853 700.84,130.433C703.254,131.71 705.094,132.594 706.356,133.098C709.669,134.42 712.314,134.282 714.27,133.229C715.72,132.45 716.904,131.141 717.684,129.188C718.576,126.952 718.507,125.039 717.799,123.46C717.109,121.921 715.744,120.578 713.494,119.68C712.755,119.385 711.553,119.087 709.874,118.846C708.876,118.702 708.107,118.554 707.58,118.357C707.547,118.218 707.477,117.891 707.471,117.653C707.447,116.717 707.663,115.56 708.059,114.172C708.061,114.164 708.064,114.155 708.066,114.146C708.279,113.373 709.335,110.644 711.208,105.951L712.141,103.613C712.719,102.416 713.114,101.547 713.329,101.009C713.322,101.026 717.127,91.865 717.127,91.865C717.127,91.863 717.128,91.862 717.129,91.86C719.717,85.599 722.411,81.347 725.462,79.273C725.467,79.27 725.472,79.266 725.477,79.263C729.602,76.422 734.504,76.28 740.166,78.54C745.206,80.552 748.146,83.632 748.716,88.022C748.717,88.032 748.719,88.043 748.72,88.053C749.194,91.432 747.66,97.088 744.46,105.106C744.46,105.106 741.711,111.995 741.711,111.995C741.711,111.995 739.399,117.416 739.399,117.416C738.11,120.396 737.258,122.407 736.842,123.449C736.07,125.296 735.302,126.731 734.489,127.711C734.246,128.004 734.009,128.247 733.761,128.421C733.651,128.499 733.553,128.577 733.438,128.531C733.03,128.368 732.634,128.108 732.236,127.772C730.833,126.586 729.523,125.78 728.336,125.306C726.448,124.553 724.554,124.505 722.654,125.154C720.553,125.871 719.139,127.225 718.366,129.163C717.483,131.375 717.583,133.537 718.663,135.65C719.651,137.585 721.252,139.043 723.53,139.952C724.435,140.314 726.891,140.999 730.907,141.973C732.074,142.256 733.68,142.815 735.731,143.633C737.869,144.486 740.58,145.812 743.869,147.601C746.039,148.785 747.721,149.607 748.908,150.081C752.356,151.457 755.074,151.444 757.021,150.572C758.62,149.856 759.869,148.579 760.646,146.632C761.587,144.275 761.476,142.242 760.625,140.536C759.844,138.971 758.342,137.58 755.918,136.612C754.872,136.194 754.012,135.922 753.343,135.777C753.249,135.756 753.155,135.74 753.06,135.729C752.173,135.623 751.471,135.512 750.962,135.359C750.939,135.198 750.914,134.967 750.918,134.785C750.94,133.824 751.198,132.63 751.643,131.192C751.668,131.11 751.69,131.028 751.708,130.944C751.82,130.428 752.858,127.799 754.76,123.035C754.76,123.035 763.302,101.631 763.302,101.631C766.368,93.949 766.286,86.759 763.17,80.06C760.095,73.447 754.534,68.453 746.381,65.2C742.103,63.492 738.115,62.73 734.428,62.856C732.461,62.923 730.265,63.267 727.841,63.9C727.841,63.9 735.688,45.358 735.688,45.358C735.688,45.358 735.811,45.052 735.811,45.052C735.811,45.052 735.813,45.044 735.813,45.044C736.886,42.358 736.808,40.234 736.113,38.711C735.52,37.41 734.479,36.379 732.879,35.74C732.211,35.473 731.078,35.122 729.475,34.703C728.194,34.369 727.209,34.071 726.523,33.797C724.747,33.089 723.125,32.349 721.656,31.575C721.654,31.575 721.652,31.574 721.651,31.573C719.119,30.246 717.621,29.502 717.166,29.32C715.012,28.461 712.921,28.392 710.896,29.052C708.591,29.803 707.079,31.236 706.273,33.255C705.359,35.547 705.442,37.513 706.202,39.144C706.927,40.701 708.346,42.067 710.668,42.994C711.493,43.323 712.684,43.639 714.25,43.906C715.237,44.074 715.972,44.227 716.442,44.408Z" style="fill:rgb(161,0,255);fill-rule:nonzero;"/>
        </g>
        <g transform="matrix(0.881131,0,0,0.843371,55.3937,127.544)">
            <path d="M796.354,106.646C796.255,107.178 796.046,108.16 795.726,108.975C794.6,111.841 792.361,115.779 789.045,120.81C789.045,120.81 782.742,130.373 782.742,130.373C779.311,135.578 777.098,139.024 776.099,140.708C773.791,144.592 772.614,148.521 772.518,152.48C772.518,152.484 772.518,152.487 772.518,152.491C772.337,161.353 777.098,169.252 787.219,175.924C793.698,180.194 800.118,181.995 806.471,181.401C806.22,182.351 806.198,183.253 806.356,184.093C806.656,185.7 807.626,187.225 809.522,188.476C810.345,189.018 811.379,189.527 812.634,189.982C813.839,190.598 814.546,190.961 814.741,191.089C815.164,191.368 816.178,192.203 817.799,193.575C817.801,193.576 817.802,193.578 817.804,193.579C819.126,194.693 820.171,195.494 820.929,195.994C823.823,197.902 826.375,198.268 828.459,197.625C829.987,197.154 831.375,196.13 832.507,194.413C833.882,192.326 834.219,190.369 833.831,188.617C833.453,186.905 832.342,185.257 830.242,183.872C829.594,183.445 828.6,182.936 827.244,182.375C826.488,182.061 825.893,181.79 825.469,181.543C825.474,181.351 825.492,181.009 825.547,180.757C825.771,179.742 826.287,178.526 827.05,177.091C827.072,177.048 827.094,177.006 827.114,176.962C827.379,176.401 829.006,173.896 831.955,169.422C831.955,169.422 843.65,151.678 843.65,151.678C847.246,146.222 850.156,142.188 852.392,139.585C853.054,138.948 853.811,138.018 854.634,136.77C855.958,134.76 856.324,132.9 856.044,131.275C855.749,129.562 854.739,127.957 852.754,126.648C852.087,126.209 851.048,125.609 849.633,124.855C848.439,124.219 847.558,123.719 846.995,123.349C846.362,122.932 845.446,122.219 844.238,121.222C842.806,120.039 841.712,119.205 840.962,118.711C838.702,117.222 836.629,116.766 834.832,117.035C832.886,117.327 831.1,118.442 829.654,120.635C828.306,122.68 828.024,124.627 828.505,126.41C828.942,128.032 830.086,129.637 832.186,131.021C832.186,131.021 833.569,131.933 833.569,131.933C833.802,132.086 834.055,132.206 834.321,132.29C834.67,132.4 835.058,132.603 835.497,132.88C835.489,133.034 835.472,133.252 835.437,133.419C835.255,134.291 834.831,135.328 834.207,136.546C834.204,136.552 829.355,143.908 829.355,143.908C829.355,143.908 825.178,150.245 825.178,150.245C819.97,158.147 815.932,163.193 812.908,165.256C812.906,165.258 812.903,165.26 812.9,165.262C810.808,166.699 808.348,167.316 805.535,167.178C802.527,167.03 799.621,166.004 796.801,164.145C791.425,160.601 789.034,156.558 790.179,151.728C790.18,151.725 790.18,151.722 790.181,151.72C790.978,148.312 793.507,143.5 797.645,137.221C797.645,137.221 802.548,129.783 802.548,129.783C802.548,129.783 808.478,121.533 808.478,121.533C808.493,121.513 808.507,121.492 808.521,121.472L813.573,114.058L815.194,111.6C816.982,108.887 817.303,106.489 816.691,104.529C816.241,103.092 815.276,101.781 813.654,100.711C813.474,100.593 812.662,100.162 811.198,99.455C811.195,99.453 811.192,99.452 811.19,99.451C809.522,98.651 808.369,98.055 807.743,97.642C807.033,97.174 806.035,96.408 804.743,95.353C803.242,94.126 802.075,93.245 801.249,92.7C798.344,90.786 795.814,90.357 793.797,90.888C792.221,91.304 790.822,92.286 789.708,93.976C788.326,96.074 788.001,98.051 788.422,99.833C788.825,101.536 789.962,103.19 792.089,104.592C792.737,105.019 793.731,105.528 795.086,106.09C795.593,106.299 796.016,106.482 796.354,106.646Z" style="fill:rgb(161,0,255);fill-rule:nonzero;"/>
        </g>
        <g transform="matrix(0.881131,0,0,0.843371,60.1156,129.098)">
            <path d="M877.332,231.232C877.048,230.864 876.606,230.166 875.972,229.164C875.966,229.155 875.961,229.147 875.955,229.138C875.325,228.165 874.687,227.356 874.052,226.704C872.32,224.923 870.538,224.125 868.861,224.025C867.056,223.917 865.218,224.568 863.472,226.267C861.581,228.107 860.828,230.09 860.935,232.091C861.031,233.908 861.892,235.871 863.802,237.833C864.004,238.041 865.981,239.685 869.757,242.736C870.907,243.67 872.264,244.946 873.833,246.558C875.549,248.321 877.26,250.334 878.969,252.594C880.863,255.099 882.292,256.834 883.243,257.811C884.86,259.473 886.742,260.387 888.861,260.608C891.241,260.858 893.246,260.158 894.893,258.556C896.365,257.123 897.09,255.375 897.062,253.308C897.035,251.305 896.325,249.591 894.937,248.165C894.483,247.698 893.622,246.982 892.33,246.043C891.406,245.372 890.695,244.795 890.208,244.295C890.059,244.142 890.212,243.954 890.309,243.723C890.495,243.28 890.791,242.812 891.174,242.307C891.646,241.727 893.213,240.165 895.862,237.587C895.862,237.587 914.653,219.301 914.653,219.301C918.619,215.442 921.299,211.787 922.769,208.392C922.77,208.39 922.77,208.387 922.771,208.385C924.624,204.076 924.895,199.094 923.44,193.433C922.039,187.982 919.419,183.29 915.587,179.353C910.228,173.845 904.095,170.717 897.191,169.951C897.596,169.11 897.792,168.27 897.817,167.45C897.868,165.783 897.233,164.053 895.617,162.393C895.549,162.323 894.565,161.44 892.654,159.756C892.588,159.698 892.519,159.642 892.448,159.59C891.695,159.037 890.896,158.324 890.045,157.457C890.038,157.451 887.081,153.672 887.081,153.672C886.8,153.228 886.411,152.734 885.899,152.209C883.401,149.642 880.963,148.635 878.834,148.708C877.159,148.764 875.544,149.435 874.062,150.876C872.275,152.615 871.566,154.487 871.65,156.362C871.728,158.075 872.517,159.922 874.304,161.759C874.84,162.309 875.712,163.032 876.942,163.902C877.774,164.492 878.382,164.96 878.745,165.333C878.877,165.468 879.028,165.568 878.976,165.726C878.647,166.721 877.538,168.089 875.83,169.96C875.83,169.96 872.621,173.461 872.621,173.461C872.621,173.461 860.734,185.027 860.734,185.027L849.582,195.496C848.323,196.68 847.212,197.528 846.207,197.982C845.738,198.194 845.358,198.404 845.067,198.105C844.381,197.401 843.766,196.602 843.216,195.712C842.379,194.356 841.732,193.49 841.33,193.077C839.629,191.33 837.844,190.59 836.119,190.566C834.395,190.543 832.591,191.234 830.843,192.935C829.368,194.369 828.624,195.924 828.448,197.514C828.208,199.681 829.047,202.119 831.465,204.603C831.868,205.018 833.714,206.59 837.021,209.296C837.022,209.296 837.022,209.297 837.023,209.297C839.422,211.258 841.268,212.896 842.556,214.22C844.185,215.894 845.572,217.501 846.713,219.045C849.277,222.516 850.845,224.518 851.387,225.075C853.275,227.016 855.168,227.947 856.913,228.138C858.921,228.358 860.9,227.706 862.743,225.913C864.523,224.181 865.321,222.399 865.421,220.721C865.529,218.917 864.879,217.079 863.179,215.333C862.453,214.586 861.375,213.771 859.913,212.933C859.064,212.446 858.432,212.037 858.057,211.652C857.963,211.555 858.024,211.438 858.086,211.307C858.67,210.067 860.292,208.272 862.821,205.811C862.821,205.811 875.975,193.01 875.975,193.01C881.632,187.505 886.248,184.201 890.001,183.361C890.002,183.361 890.003,183.361 890.004,183.361C895.017,182.234 899.616,184.01 903.902,188.414C906.148,190.722 907.533,193.393 908.034,196.436C908.456,199.033 907.888,201.51 906.382,203.878C906.375,203.888 906.369,203.899 906.362,203.91C905.437,205.406 903.324,207.704 900.083,210.858C900.083,210.858 892.584,218.155 892.584,218.155C892.584,218.155 886.497,223.887 886.497,223.887L881.28,228.58C880.034,229.708 878.951,230.526 877.999,230.992C877.794,231.093 877.513,231.181 877.332,231.232Z" style="fill:rgb(161,0,255);fill-rule:nonzero;"/>
        </g>
        <g transform="matrix(0.881131,0,0,0.843371,59.9235,129.357)">
            <path d="M950.653,270.68C948.223,272.269 946.77,274.511 946.304,277.417C945.865,280.162 946.451,282.85 948.157,285.459C950.276,288.7 953.234,290.557 957.022,291.044C960.576,291.501 964.125,290.639 967.64,288.341C973.582,284.457 976.957,278.91 977.742,271.688C978.495,264.761 976.7,257.88 972.252,251.075C966.344,242.04 958.439,236.894 948.587,235.561C938.95,234.256 928.987,236.866 918.744,243.562C909.047,249.902 902.97,257.663 900.39,266.745C897.751,276.03 899.219,285.001 904.87,293.644C910.094,301.634 917.046,306.352 925.678,307.87C928.853,308.459 932.37,308.477 936.23,307.893C940.251,307.284 943.349,306.201 945.561,304.755C947.594,303.426 948.804,301.649 949.259,299.474C949.714,297.298 949.319,295.185 947.99,293.152C946.313,290.587 943.845,289.363 940.524,289.617C940.402,289.626 940.281,289.643 940.161,289.667C939.649,289.77 937.706,290.333 934.337,291.377C934.326,291.381 934.314,291.385 934.303,291.388C930.984,292.461 927.845,292.515 924.885,291.481C921.943,290.453 919.572,288.522 917.742,285.723C914.784,281.2 914.165,276.535 915.954,271.722C917.895,266.497 922.242,261.799 928.837,257.487C935.203,253.325 941.244,251.372 947.012,251.794C952.374,252.187 956.522,254.625 959.455,259.112C961.332,261.982 962.295,264.72 962.208,267.371C962.162,268.76 961.814,270.011 961.165,271.128C959.507,269.868 957.823,269.231 956.174,269.117C954.351,268.99 952.5,269.473 950.653,270.68Z" style="fill:rgb(161,0,255);fill-rule:nonzero;"/>
        </g>
        <g transform="matrix(0.881131,0,0,0.843371,59.6409,128.428)">
            <path d="M1009.51,298.365C1009.47,298.429 1009.41,298.542 1009.36,298.611C1009.25,298.756 1009.12,298.9 1008.96,299.045C1008.51,299.48 1007.91,299.908 1007.19,300.345C1004.09,302.209 996.272,305.709 983.74,310.882C983.74,310.882 960.87,320.172 960.87,320.172C953.079,323.291 947.838,325.163 945.133,325.748C944.503,325.885 943.753,325.913 943.349,325.917C943.196,325.421 943.027,324.73 942.831,323.849C942.737,323.073 942.448,321.999 941.892,320.651C940.658,317.662 938.884,316.046 936.975,315.435C935.537,314.975 933.923,315.021 932.147,315.754C929.667,316.778 928.205,318.363 927.548,320.287C926.948,322.042 927.021,324.222 928.085,326.798C928.487,327.773 929.59,329.964 931.408,333.363C932.656,335.696 933.568,337.551 934.137,338.93C935.052,341.146 935.986,343.881 936.945,347.135C937.712,349.756 938.36,351.692 938.878,352.948C940.239,356.246 942.182,358.045 944.3,358.715C945.87,359.211 947.633,359.148 949.577,358.346C951.803,357.427 953.126,356.044 953.765,354.436C954.388,352.868 954.399,350.954 953.475,348.714C953.171,347.979 952.547,346.909 951.551,345.537C950.957,344.721 950.528,344.067 950.302,343.551C950.378,343.431 950.565,343.153 950.731,342.983C951.386,342.313 952.365,341.661 953.636,340.978C953.644,340.974 953.652,340.97 953.66,340.965C954.363,340.579 957.056,339.434 961.727,337.506L964.053,336.546C965.315,336.126 966.213,335.804 966.749,335.583C966.731,335.59 975.953,331.933 975.953,331.933C975.955,331.932 975.956,331.931 975.958,331.931C982.251,329.422 987.178,328.391 990.792,329.134C990.798,329.135 990.804,329.136 990.81,329.137C995.722,330.115 999.24,333.531 1001.57,339.166C1003.64,344.183 1003.48,348.438 1000.73,351.906C1000.72,351.914 1000.71,351.923 1000.71,351.931C998.614,354.626 993.489,357.468 985.509,360.762C985.509,360.762 978.652,363.592 978.652,363.592C978.652,363.592 973.154,365.713 973.154,365.713C970.119,366.866 968.083,367.656 967.046,368.084C965.183,368.818 963.618,369.267 962.349,369.367C961.97,369.397 961.63,369.396 961.333,369.34C961.2,369.315 961.076,369.3 961.028,369.185C960.861,368.779 960.772,368.314 960.736,367.794C960.608,365.961 960.273,364.46 959.785,363.279C959.009,361.4 957.724,360.009 955.934,359.098C953.955,358.091 951.999,358.021 950.07,358.818C947.869,359.726 946.388,361.305 945.625,363.552C944.927,365.609 944.997,367.774 945.933,370.041C946.305,370.941 947.525,373.18 949.626,376.739C950.237,377.773 950.955,379.314 951.797,381.355C952.676,383.483 953.615,386.351 954.624,389.957C955.288,392.337 955.871,394.117 956.358,395.298C957.774,398.73 959.678,400.67 961.661,401.459C963.289,402.106 965.074,402.112 967.012,401.312C969.358,400.344 970.739,398.847 971.369,397.047C971.947,395.397 971.898,393.35 970.902,390.937C970.473,389.896 970.068,389.09 969.706,388.508C969.656,388.427 969.602,388.349 969.544,388.273C969.002,387.563 968.592,386.982 968.347,386.51C968.447,386.382 968.595,386.202 968.728,386.079C969.431,385.425 970.468,384.777 971.809,384.094C971.885,384.055 971.96,384.013 972.032,383.968C972.481,383.689 975.089,382.601 979.831,380.644C979.831,380.644 1001.13,371.851 1001.13,371.851C1008.78,368.696 1013.88,363.625 1016.51,356.722C1019.11,349.908 1018.81,342.439 1015.46,334.325C1013.71,330.068 1011.47,326.676 1008.81,324.12C1007.39,322.757 1005.62,321.422 1003.47,320.125C1003.47,320.124 1022.24,312.828 1022.24,312.828L1021.15,313.032L1021.64,312.917C1021.95,312.893 1022.25,312.821 1022.54,312.703L1022.54,312.703L1022.54,312.703L1022.55,312.7C1025.23,311.596 1026.69,310.06 1027.3,308.5C1027.82,307.168 1027.84,305.703 1027.18,304.111C1026.9,303.446 1026.37,302.388 1025.55,300.947C1024.9,299.795 1024.42,298.881 1024.14,298.198C1023.41,296.431 1022.81,294.752 1022.34,293.159C1022.34,293.158 1022.34,293.156 1022.34,293.154C1021.53,290.414 1021.02,288.821 1020.83,288.368C1019.95,286.225 1018.54,284.678 1016.65,283.685C1014.51,282.556 1012.43,282.47 1010.42,283.299C1008.14,284.241 1006.78,285.671 1006.14,287.353C1005.53,288.958 1005.54,290.928 1006.5,293.239C1006.84,294.06 1007.44,295.134 1008.34,296.443C1008.91,297.268 1009.31,297.902 1009.51,298.365Z" style="fill:rgb(161,0,255);fill-rule:nonzero;"/>
        </g>
        <g transform="matrix(0.881131,0,0,0.843371,61.1298,128.881)">
            <path d="M995.105,412.948L1004.72,455.646C1005.55,459.314 1007.28,461.019 1008.75,461.49C1009.83,461.834 1012.5,461.778 1016.74,460.824C1026.28,458.677 1033.44,453.87 1038.28,446.479C1043.15,439.047 1044.57,430.69 1042.48,421.398C1040.13,410.972 1034.47,403.372 1025.53,398.563C1016.78,393.855 1006.54,392.75 994.793,395.395C983.291,397.985 974.856,403.124 969.392,410.65C963.816,418.331 962.132,427.337 964.464,437.692C966.311,445.896 970.429,452.663 976.812,457.999C983.527,463.61 990.269,465.511 996.946,464.008C999.581,463.414 1001.33,462.189 1002.36,460.609C1003.41,458.998 1003.8,456.905 1003.21,454.289C1002.35,450.472 1000.01,448.482 996.26,448.24C996.265,448.24 992.111,447.91 992.111,447.91C992.099,447.909 992.087,447.908 992.075,447.907C989.215,447.714 986.638,446.449 984.304,444.196C981.841,441.819 980.233,438.948 979.476,435.585C978.317,430.439 979.271,425.706 982.333,421.385C985.33,417.156 989.601,414.365 995.105,412.948ZM1017.5,443.006L1010.29,410.979C1013.64,410.548 1016.99,411.648 1020.39,414.117C1024.32,416.964 1026.8,420.529 1027.77,424.852C1028.69,428.918 1028,432.785 1025.74,436.459C1023.7,439.776 1020.96,441.969 1017.5,443.006Z" style="fill:rgb(161,0,255);fill-rule:nonzero;"/>
        </g>
        <g transform="matrix(0.881131,0,0,0.843371,60.3367,129.789)">
            <path d="M1009.05,488.577L1012.82,532.181C1013.14,535.927 1014.63,537.851 1016.02,538.517C1017.04,539.002 1019.7,539.308 1024.03,538.935C1033.77,538.095 1041.51,534.298 1047.31,527.629C1053.14,520.922 1055.68,512.835 1054.86,503.345C1053.94,492.697 1049.35,484.402 1041.14,478.431C1033.11,472.585 1023.11,470.107 1011.12,471.142C999.369,472.155 990.318,476.108 983.887,482.828C977.325,489.685 974.441,498.382 975.353,508.957C976.076,517.335 979.243,524.597 984.847,530.745C990.742,537.212 997.166,540.005 1003.99,539.417C1006.68,539.185 1008.57,538.206 1009.81,536.78C1011.06,535.326 1011.73,533.304 1011.5,530.632C1011.17,526.734 1009.12,524.447 1005.43,523.701C1005.44,523.702 1001.37,522.813 1001.37,522.813C1001.36,522.811 1001.34,522.808 1001.33,522.806C998.525,522.228 996.142,520.627 994.133,518.08C992.014,515.392 990.808,512.331 990.512,508.896C990.058,503.641 991.643,499.079 995.26,495.211C998.8,491.426 1003.41,489.237 1009.05,488.577ZM1024.37,488.675C1027.74,488.7 1030.91,490.243 1033.95,493.148C1037.46,496.499 1039.44,500.366 1039.82,504.781C1040.17,508.934 1038.97,512.673 1036.24,516.008C1033.77,519.02 1030.76,520.823 1027.19,521.383L1024.37,488.675Z" style="fill:rgb(161,0,255);fill-rule:nonzero;"/>
        </g>
        <g transform="matrix(0.881131,0,0,0.843371,58.3759,130.05)">
            <path d="M1000.73,574.576C1000.75,575.194 1000.79,575.735 1000.86,576.198C1000.86,576.207 1000.87,576.217 1000.87,576.226C1001.28,578.854 1003.27,581.002 1007.57,581.7C1007.59,581.703 1007.61,581.706 1007.62,581.708C1008.4,581.821 1010.5,581.924 1013.93,581.988C1013.93,581.988 1039.82,582.478 1039.82,582.478L1054.69,583.172C1061.45,583.463 1066.39,583.768 1066.39,583.768C1066.39,583.768 1066.32,583.752 1066.31,583.748C1066.39,583.767 1066.48,583.782 1066.56,583.793C1067.49,583.913 1068.52,583.986 1069.65,584.008C1073.95,584.089 1076.9,582.929 1078.66,581.047C1080,579.614 1080.78,577.713 1080.82,575.283C1080.87,572.913 1080.2,571.031 1079.01,569.586C1077.41,567.638 1074.64,566.369 1070.54,566.291C1069.44,566.271 1068.48,566.303 1067.67,566.383C1062.98,566.473 1058.78,566.483 1055.08,566.413C1055.06,566.413 1055.04,566.413 1055.02,566.413L1039.87,566.402L1010.78,565.852C1006.93,565.779 1004.3,566.818 1002.73,568.451C1001.67,569.556 1000.99,570.969 1000.79,572.728C1000.68,569.818 999.577,567.312 997.495,565.209C995.255,562.946 992.533,561.781 989.326,561.72C986.12,561.659 983.355,562.721 981.032,564.898C978.685,567.097 977.477,569.814 977.416,573.053C977.355,576.27 978.445,579.046 980.691,581.379C982.937,583.711 985.67,584.905 988.887,584.966C992.104,585.027 994.88,583.937 997.213,581.691C999.279,579.701 1000.45,577.329 1000.73,574.576Z" style="fill:rgb(161,0,255);fill-rule:nonzero;"/>
        </g>
        <g transform="matrix(0.884602,0,0,0.843371,58.1017,120.798)">
            <path d="M997.071,633.682C997.036,634.299 997.036,634.841 997.066,635.309C997.067,635.318 997.068,635.328 997.068,635.337C997.266,637.99 999.074,640.293 1003.31,641.339C1003.32,641.343 1003.34,641.347 1003.36,641.351C1004.13,641.527 1006.21,641.801 1009.62,642.144C1009.62,642.144 1035.39,644.74 1035.39,644.74L1050.14,646.642C1056.86,647.483 1061.76,648.189 1061.76,648.189C1061.76,648.189 1061.69,648.168 1061.68,648.163C1061.76,648.188 1061.85,648.21 1061.93,648.228C1062.84,648.424 1063.86,648.58 1064.99,648.694C1069.27,649.125 1072.31,648.209 1074.21,646.477C1075.66,645.157 1076.59,643.326 1076.83,640.908C1077.07,638.549 1076.57,636.62 1075.5,635.082C1074.05,633.01 1071.4,631.52 1067.32,631.108C1066.22,630.998 1065.27,630.953 1064.45,630.966C1059.77,630.674 1055.59,630.342 1051.9,629.971C1051.88,629.969 1051.86,629.967 1051.84,629.966L1036.74,628.721L1007.79,625.805C1003.97,625.419 1001.26,626.24 999.562,627.74C998.412,628.754 997.618,630.107 997.279,631.844C997.402,628.935 996.509,626.348 994.606,624.082C992.558,621.644 989.94,620.261 986.748,619.94C983.557,619.618 980.716,620.451 978.223,622.431C975.704,624.432 974.28,627.042 973.955,630.265C973.632,633.467 974.492,636.322 976.541,638.83C978.59,641.337 981.216,642.75 984.418,643.072C987.619,643.395 990.475,642.535 992.982,640.486C995.204,638.671 996.566,636.403 997.071,633.682Z" style="fill:rgb(161,0,255);fill-rule:nonzero;"/>
        </g>
    </g>
    <g transform="matrix(2.00556,0,0,1.84455,-36.832,-21.6312)">
        <path d="M329.744,926.078C170.73,926.078 41.63,959.073 41.63,999.714C41.63,1040.36 170.73,1073.35 329.744,1073.35C388.703,1073.35 448.508,1078.31 464.362,1073.35C485.328,1066.79 454.527,1063.75 440.312,1044.31C424.418,1022.57 423.537,983.975 423.537,970.476C423.537,960.696 450.494,926.078 329.744,926.078ZM793.679,1081.88C822.747,1081.83 881.71,1077.35 882.011,1055.94C882.332,1033.05 799.64,1021.03 771.83,1021.21C739.556,1021.41 588.111,1036.82 587.754,1059.57C587.419,1080.84 762.665,1081.94 793.679,1081.88Z"/>
    </g>
    <g transform="matrix(4.00107,-1.30761,1.56259,4.6039,-930.165,-3449.64)">
        <path d="M173.467,1215.21L187.948,1188.26C187.948,1188.26 180.129,1181.7 180.144,1178.32C180.328,1137.41 163.674,1140.26 163.674,1140.26C164.409,1132.36 166.358,1124.32 169.143,1116.92C175.764,1114.4 192.631,1127.36 192.764,1135.52C203.354,1139.83 197.389,1156.39 197.389,1156.39L203.683,1152.03C206.929,1139.32 203.253,1134.81 197.435,1132.33C197.435,1132.33 210.184,1118.5 216.35,1109.47C232.141,1086.35 235.2,1079.74 235.2,1079.74L251.072,1092.65C238.635,1112.6 229.97,1121.67 229.97,1121.67L232.755,1124.03C239.632,1116.58 246.235,1109.47 255.367,1096.48L269.912,1111.34C257.404,1129.47 243.413,1135.48 243.413,1135.48L246.604,1138.24C246.604,1138.24 261.663,1132.62 272.209,1118.01L284.488,1133.88C273.613,1146.28 248.224,1164.53 248.224,1164.53C248.224,1164.53 235.941,1181.22 214.384,1190.4C208.465,1192.92 198.954,1196.74 198.954,1196.74L189.591,1220.71C186.46,1223.02 174.982,1219.6 173.467,1215.21Z" style="fill:rgb(255,18,0);"/>
    </g>
    <g transform="matrix(1.57809,0,0,1.61787,166.065,226.796)">
        <path d="M363.882,395.649C350.532,573.323 270.898,873.644 298.207,990.369C317.394,1072.38 451.255,1095.49 527.738,1096C604.221,1096.51 737.553,1074.88 757.105,993.446C785.106,876.818 694.071,590 695.741,396.232C696.493,308.963 370.441,308.366 363.882,395.649ZM440.591,629.223C440.591,629.223 484.782,968.518 503.053,1036.14C511.578,1067.69 542.993,1067.1 551.646,1034.55C569.747,966.454 615.641,628.639 615.641,628.639C558.194,623.881 499.892,623.813 440.591,629.223Z" style="fill:rgb(255,244,0);"/>
        <path d="M440.591,629.223C440.591,629.223 484.782,968.518 503.053,1036.14C511.578,1067.69 542.993,1067.1 551.646,1034.55C569.747,966.454 615.641,628.639 615.641,628.639C558.194,623.881 499.892,623.813 440.591,629.223Z" style="fill:rgb(255,0,214);"/>
        <g transform="matrix(1.0969,0,0,1.0969,-73.3642,-26.2504)">
            <path d="M640.064,73.834C640.064,73.834 461.766,39.177 378.998,159.83C314.167,254.336 330.639,355.404 358.819,416.019C387,476.634 458.276,524.774 548.081,523.521C614.352,522.596 756.346,500.795 753.68,368.904C751.533,262.645 651.479,238.956 628.138,191.358C589.069,111.689 621.999,97.292 640.064,73.834Z" style="fill:rgb(0,255,224);"/>
        </g>
    </g>
</svg>
