<?xml version="1.0" encoding="UTF-8" standalone="no"?>
<!DOCTYPE svg PUBLIC "-//W3C//DTD SVG 1.1//EN" "http://www.w3.org/Graphics/SVG/1.1/DTD/svg11.dtd">
<svg width="100%" height="100%" viewBox="0 0 512 512" version="1.1" xmlns="http://www.w3.org/2000/svg" xmlns:xlink="http://www.w3.org/1999/xlink" xml:space="preserve" xmlns:serif="http://www.serif.com/" style="fill-rule:evenodd;clip-rule:evenodd;stroke-linejoin:round;stroke-miterlimit:2;">
    <rect id="bg" x="0" y="0" width="512" height="512" style="fill:none;"/>
    <path d="M164.673,169.294C176.222,323.235 112.773,403.191 128.016,460.307C138.726,500.438 213.442,511.746 256.132,511.996C298.822,512.245 373.243,501.661 384.156,461.813C399.785,404.744 338.973,352.395 349.905,169.579C352.454,126.95 161.467,126.547 164.673,169.294Z" style="fill:rgb(250,192,20);"/>
    <path d="M207.49,283.588C207.49,283.588 232.155,449.615 242.354,482.705C247.112,498.143 264.647,497.854 269.476,481.926C279.58,448.605 305.196,283.303 305.196,283.303C273.131,280.974 240.589,280.941 207.49,283.588Z" style="fill:rgb(223,55,44);"/>
    <path d="M312.497,2.477C312.497,2.477 203.335,-16.125 152.66,48.634C112.967,99.36 123.052,153.608 140.305,186.142C157.559,218.677 201.198,244.516 256.181,243.844C296.755,243.347 383.691,231.646 382.059,160.854C380.744,103.82 319.486,91.105 305.196,65.557C281.276,22.795 301.437,15.067 312.497,2.477Z" style="fill:rgb(46,174,199);"/>
</svg>
