<svg width="100%" height="100%" viewBox="0 0 500 500" version="1.1" xmlns="http://www.w3.org/2000/svg" xmlns:xlink="http://www.w3.org/1999/xlink" xml:space="preserve" xmlns:serif="http://www.serif.com/" style="fill-rule:evenodd;clip-rule:evenodd;stroke-linejoin:round;stroke-miterlimit:2;">

<style>

#hand{
	animation: rotate 2s;
   animation-iteration-count: infinite;
	animation-name: rotate;
	animation-timing-function: ease-in-out;
	animation-iteration-count: infinite;
	animation-direction: alternate;
	animation-duration: 3s;
}

#mouth{
	animation-name: return;
  animation-timing-function: ease-in-out;
  animation-iteration-count: infinite;
  animation-direction: alternate;
  animation-duration: 1.8s;
}

#star01{
	animation-name: return;
	animation-timing-function: ease-in-out;
	animation-iteration-count: infinite;
	animation-direction: alternate;
	animation-duration: 1.2s;
}



@keyframes return {
0% {
        transform: translate(0,0px);
    }

    100% {
        transform: translate(0,30px);
    }
}

@keyframes rotate {
    0% { transform: rotate(-2deg); }
    100% { transform: rotate(0deg); } 
}
</style>

    <path id="Words" d="M8.259,263.505L23.233,270.519L10.004,279.867L9.86,278.329C9.86,278.329 9.864,277.759 9.864,277.759C9.865,277.713 9.863,277.667 9.859,277.621C9.696,275.888 9.099,274.757 8.299,274.13C7.648,273.621 6.834,273.375 5.838,273.465C4.598,273.578 3.734,274.08 3.181,274.849C2.688,275.536 2.428,276.501 2.547,277.774C2.612,278.462 2.757,279.281 2.988,280.231C2.988,280.232 2.988,280.233 2.988,280.234C3.601,282.731 3.971,284.612 4.09,285.878C4.25,287.582 4.255,289.422 4.107,291.399C4.023,292.521 4.02,293.449 4.089,294.186C4.208,295.45 4.656,296.343 5.296,296.923C5.985,297.548 6.935,297.873 8.185,297.759C9.179,297.669 9.933,297.303 10.481,296.736C11.199,295.993 11.604,294.813 11.446,293.134C11.432,292.983 11.39,292.74 11.312,292.408C11.313,292.411 11.268,291.936 11.268,291.936C11.261,291.86 11.248,291.785 11.228,291.711C11.174,291.511 11.135,291.207 11.096,290.801C11.046,290.259 11.183,289.784 11.525,289.38C11.699,289.175 12.339,288.682 13.418,287.866C13.418,287.866 31.772,274.011 31.772,274.011C32.171,273.967 32.627,273.906 33.141,273.828C33.139,273.828 34.323,273.72 34.323,273.72C37.533,273.429 39.364,273.276 39.818,273.273C41.235,273.387 42.102,273.847 42.205,274.938C42.232,275.227 42.22,275.654 42.181,276.221C42.128,276.983 42.125,277.558 42.162,277.946C42.268,279.072 42.712,279.859 43.357,280.368C43.986,280.866 44.861,281.135 46.016,281.03C47.005,280.94 47.756,280.581 48.303,280.028C49.029,279.293 49.439,278.127 49.283,276.468C49.275,276.384 49.261,276.236 49.242,276.025C49.231,275.912 49.206,275.801 49.168,275.694C49.155,275.657 49.139,275.603 49.133,275.584C49.128,275.544 49.12,275.504 49.111,275.464L48.355,272.273C48.082,271.122 47.885,269.904 47.764,268.618C47.651,267.408 47.618,266.171 47.665,264.906L47.789,261.378C47.792,261.319 47.79,261.261 47.784,261.203C47.781,261.171 47.79,261.134 47.797,261.091C47.814,260.979 47.818,260.866 47.807,260.753C47.787,260.542 47.776,260.415 47.772,260.373C47.615,258.708 46.982,257.633 46.105,257.041C45.459,256.605 44.646,256.392 43.646,256.483C42.512,256.586 41.718,257.001 41.202,257.591C40.672,258.197 40.385,259.034 40.489,260.14C40.525,260.523 40.636,261.104 40.832,261.883C40.982,262.479 41.076,262.922 41.104,263.215C41.17,263.92 41.083,264.44 40.572,264.664C39.587,265.096 37.014,265.457 32.866,265.834C32.866,265.834 30.563,266.043 30.563,266.043C30.563,266.043 9.808,255.56 9.808,255.56C9.808,255.56 8.248,254.752 8.248,254.752C7.619,254.417 7.245,253.955 7.186,253.323C7.166,253.11 7.169,252.723 7.187,252.162C7.241,251.745 7.244,251.174 7.176,250.448C7.064,249.257 6.649,248.415 6.068,247.867C5.419,247.255 4.529,246.935 3.356,247.042C2.132,247.153 1.277,247.628 0.727,248.336C0.208,249.002 -0.068,249.932 0.048,251.16C0.108,251.807 0.25,252.588 0.478,253.5C0.479,253.501 0.479,253.503 0.48,253.505C1.011,255.595 1.361,257.516 1.526,259.27C1.683,260.947 1.701,262.946 1.582,265.267C1.533,266.243 1.542,267.074 1.607,267.762C1.725,269.019 2.163,269.909 2.783,270.487C3.465,271.123 4.404,271.453 5.638,271.341C6.878,271.229 7.742,270.726 8.295,269.958C8.789,269.271 9.049,268.306 8.929,267.033C8.89,266.616 8.789,266.018 8.621,265.24C8.621,265.24 8.281,263.65 8.281,263.65L8.259,263.505ZM462.363,281.748C462.346,282.033 462.346,282.283 462.361,282.498C462.361,282.503 462.361,282.507 462.362,282.511C462.455,283.735 463.308,284.797 465.305,285.279C465.313,285.281 465.321,285.283 465.329,285.285C465.691,285.366 466.675,285.492 468.281,285.65C468.281,285.65 480.44,286.848 480.44,286.848L487.402,287.725C490.571,288.112 492.883,288.438 492.883,288.438C492.883,288.438 492.851,288.428 492.844,288.426C492.883,288.438 492.923,288.448 492.963,288.456C493.393,288.546 493.874,288.618 494.406,288.671C496.427,288.87 497.859,288.447 498.758,287.648C499.442,287.04 499.879,286.195 499.994,285.08C500.106,283.992 499.868,283.103 499.363,282.394C498.683,281.438 497.433,280.751 495.504,280.561C494.989,280.511 494.538,280.49 494.151,280.496C491.944,280.361 489.969,280.208 488.229,280.037L481.078,279.46L467.422,278.116C465.616,277.938 464.339,278.316 463.538,279.008C462.996,279.476 462.621,280.1 462.461,280.901C462.519,279.559 462.098,278.366 461.2,277.321C460.234,276.197 458.998,275.559 457.493,275.411C455.987,275.263 454.647,275.647 453.47,276.56C452.282,277.483 451.61,278.686 451.457,280.173C451.305,281.649 451.711,282.966 452.677,284.122C453.644,285.278 454.883,285.93 456.393,286.079C457.904,286.227 459.251,285.831 460.434,284.886C461.482,284.049 462.125,283.003 462.363,281.748ZM462.385,259.551C462.392,259.836 462.413,260.086 462.445,260.299C462.446,260.304 462.446,260.308 462.447,260.312C462.641,261.524 463.576,262.515 465.598,262.837C465.606,262.838 465.615,262.839 465.623,262.84C465.989,262.892 466.976,262.94 468.584,262.969C468.584,262.969 480.755,263.195 480.755,263.195L487.739,263.515C490.917,263.649 493.24,263.79 493.24,263.79C493.24,263.79 493.207,263.783 493.2,263.781C493.239,263.79 493.28,263.796 493.32,263.802C493.755,263.857 494.238,263.891 494.771,263.901C496.794,263.938 498.18,263.403 499.006,262.535C499.635,261.875 499.999,260.998 500.021,259.877C500.042,258.784 499.732,257.917 499.171,257.25C498.416,256.352 497.118,255.767 495.188,255.731C494.672,255.721 494.222,255.736 493.839,255.773C491.637,255.815 489.663,255.819 487.922,255.787L480.774,255.782L467.106,255.528C465.298,255.495 464.062,255.974 463.324,256.727C462.825,257.236 462.504,257.888 462.412,258.699C462.358,257.357 461.841,256.202 460.863,255.232C459.81,254.188 458.531,253.651 457.024,253.623C455.517,253.595 454.218,254.084 453.126,255.088C452.023,256.102 451.456,257.355 451.427,258.849C451.398,260.333 451.911,261.613 452.966,262.688C454.021,263.764 455.306,264.314 456.818,264.342C458.33,264.371 459.634,263.868 460.73,262.832C461.701,261.915 462.252,260.821 462.385,259.551ZM31.453,246.643L32.529,226.488C32.622,224.757 32.052,223.783 31.447,223.39C31.005,223.104 29.786,222.795 27.749,222.69C23.162,222.455 19.31,223.696 16.18,226.373C13.032,229.065 11.326,232.598 11.092,236.984C10.829,241.906 12.427,245.986 15.86,249.236C19.22,252.416 23.713,254.184 29.364,254.475C34.897,254.759 39.366,253.529 42.795,250.869C46.294,248.155 48.2,244.366 48.461,239.478C48.667,235.606 47.664,232.088 45.454,228.923C43.129,225.595 40.321,223.91 37.109,223.745C35.841,223.68 34.895,224.006 34.228,224.579C33.549,225.163 33.106,226.044 33.041,227.279C32.944,229.081 33.75,230.256 35.415,230.831C35.413,230.83 37.251,231.495 37.251,231.495C37.256,231.497 37.261,231.499 37.266,231.5C38.536,231.943 39.541,232.826 40.311,234.117C41.123,235.479 41.486,236.954 41.401,238.542C41.271,240.971 40.238,242.953 38.304,244.49C36.411,245.994 34.124,246.7 31.453,246.643ZM25.14,230.506L24.333,245.624C22.764,245.398 21.386,244.491 20.16,242.971C18.746,241.217 18.077,239.325 18.186,237.285C18.288,235.365 19.09,233.734 20.579,232.385C21.923,231.166 23.442,230.534 25.14,230.506ZM467.341,219.751L469.108,239.859C469.26,241.586 469.961,242.473 470.616,242.78C471.094,243.004 472.345,243.145 474.377,242.973C478.953,242.586 482.594,240.835 485.318,237.76C488.057,234.667 489.25,230.937 488.865,226.561C488.433,221.651 486.277,217.826 482.421,215.072C478.646,212.377 473.947,211.234 468.309,211.711C462.789,212.178 458.536,214.001 455.513,217.1C452.43,220.262 451.074,224.273 451.503,229.149C451.843,233.013 453.331,236.361 455.965,239.196C458.735,242.179 461.754,243.467 464.958,243.196C466.223,243.088 467.115,242.637 467.694,241.979C468.284,241.309 468.599,240.377 468.491,239.145C468.333,237.347 467.37,236.292 465.64,235.948C465.642,235.949 463.728,235.539 463.728,235.539C463.723,235.538 463.717,235.537 463.712,235.536C462.392,235.269 461.273,234.531 460.329,233.356C459.333,232.117 458.766,230.705 458.627,229.121C458.414,226.698 459.158,224.594 460.858,222.811C462.522,221.065 464.688,220.056 467.341,219.751ZM474.536,219.797C476.122,219.808 477.614,220.52 479.042,221.859C480.69,223.405 481.618,225.188 481.797,227.224C481.965,229.139 481.4,230.863 480.116,232.401C478.955,233.79 477.54,234.621 475.862,234.879L474.536,219.797ZM46.056,221.316L45.809,221.232C45.809,221.232 44.564,220.859 42.665,220.328C42.646,220.323 42.628,220.317 42.61,220.312C42.093,220.144 41.569,220.014 41.039,219.922C40.11,219.759 39.225,219.682 38.384,219.691C37.347,219.703 36.541,219.652 35.968,219.552C34.797,219.347 34.001,218.865 33.511,218.237C32.986,217.564 32.752,216.678 32.957,215.552C33.239,213.995 34.003,213.211 34.832,212.936C35.389,212.751 36.767,212.732 38.957,213.063C40.337,213.272 41.557,212.702 42.67,211.474C44.001,210.004 44.871,207.984 45.334,205.435C45.643,203.73 45.485,202.239 44.801,200.971C44.201,199.859 43.322,199.184 42.141,198.977C39.861,198.579 38.486,200.389 37.472,203.879C37.471,203.881 37.471,203.884 37.47,203.886C36.155,208.327 34.596,211.607 32.844,213.75C30.863,216.172 28.022,217.129 24.275,216.473C20.853,215.875 18.313,214.114 16.649,211.2C15.052,208.406 14.573,205.059 15.283,201.15L15.283,201.15C15.7,198.853 16.527,196.918 17.746,195.333C17.512,195.168 17.314,194.982 17.149,194.782C16.582,194.096 16.332,193.199 16.538,192.061C16.742,190.94 17.238,190.184 17.894,189.72C18.566,189.245 19.457,189.033 20.592,189.232C20.863,189.279 21.532,189.439 22.599,189.717C22.651,189.73 22.702,189.747 22.752,189.766C23.485,190.048 24.232,190.256 24.993,190.389C25.456,190.47 26.144,190.517 27.056,190.54C28.155,190.567 28.983,190.634 29.542,190.732C30.764,190.946 31.6,191.432 32.117,192.06C32.691,192.757 32.943,193.671 32.733,194.828C32.534,195.923 32.043,196.671 31.383,197.138C30.722,197.605 29.844,197.826 28.723,197.665L26.607,197.359C25.739,197.237 24.952,197.68 24.162,198.516C23.169,199.569 22.54,200.9 22.25,202.497C21.961,204.088 22.108,205.495 22.742,206.712C23.284,207.752 24.061,208.39 25.116,208.574C27.179,208.935 28.488,207.563 29.38,204.847L30.551,201.302C33.11,193.487 37.411,190.298 43.076,191.289C46.586,191.902 49.184,193.718 50.876,196.729C52.495,199.61 52.972,203.083 52.232,207.158C51.71,210.032 50.606,212.504 48.926,214.579C49.473,214.832 49.888,215.173 50.19,215.572C50.711,216.262 50.94,217.175 50.729,218.336C50.505,219.57 49.926,220.397 49.118,220.891C48.366,221.352 47.351,221.543 46.056,221.316ZM461.208,184.379L465.726,204.069C466.114,205.76 466.931,206.546 467.622,206.764C468.126,206.922 469.385,206.896 471.375,206.456C475.856,205.466 479.223,203.249 481.499,199.841C483.787,196.414 484.456,192.561 483.473,188.276C482.369,183.468 479.707,179.963 475.507,177.745C471.395,175.575 466.583,175.065 461.062,176.284C455.657,177.479 451.693,179.849 449.125,183.319C446.504,186.861 445.713,191.014 446.809,195.789C447.677,199.572 449.612,202.693 452.612,205.154C455.767,207.741 458.936,208.618 462.073,207.925C463.312,207.651 464.133,207.086 464.616,206.357C465.109,205.615 465.293,204.649 465.016,203.443C464.612,201.682 463.513,200.765 461.751,200.653C461.754,200.654 459.801,200.501 459.801,200.501C459.796,200.501 459.79,200.5 459.784,200.5C458.44,200.411 457.229,199.827 456.132,198.788C454.975,197.692 454.219,196.369 453.864,194.818C453.319,192.445 453.767,190.262 455.206,188.269C456.615,186.319 458.622,185.032 461.208,184.379ZM471.733,198.24L468.344,183.471C469.917,183.272 471.493,183.78 473.093,184.918C474.938,186.231 476.103,187.875 476.561,189.868C476.991,191.743 476.668,193.527 475.607,195.221C474.648,196.75 473.361,197.762 471.733,198.24ZM48.351,177.191C48.022,178.495 48.192,179.746 48.856,180.945C49.572,182.234 50.648,183.099 52.088,183.537C53.527,183.975 54.914,183.86 56.247,183.193C57.594,182.52 58.494,181.472 58.945,180.045C59.393,178.627 59.264,177.258 58.555,175.937C57.846,174.616 56.768,173.736 55.324,173.297C53.879,172.857 52.484,172.984 51.138,173.68C49.945,174.296 49.105,175.197 48.618,176.38C48.692,176.104 48.743,175.859 48.773,175.645C48.773,175.641 48.774,175.637 48.774,175.632C48.931,174.415 48.314,173.208 46.463,172.348C46.455,172.344 46.448,172.341 46.44,172.337C46.103,172.187 45.168,171.872 43.632,171.405C43.632,171.405 32.006,167.868 32.006,167.868L25.387,165.654C22.373,164.658 20.182,163.889 20.182,163.889C20.182,163.889 20.211,163.905 20.218,163.909C20.182,163.89 20.145,163.872 20.108,163.856C19.706,163.684 19.251,163.52 18.742,163.365C16.81,162.777 15.327,162.913 14.287,163.521C13.496,163.984 12.898,164.727 12.559,165.797C12.229,166.842 12.281,167.76 12.631,168.553C13.101,169.622 14.182,170.538 16.026,171.099C16.519,171.249 16.955,171.357 17.334,171.426C19.461,171.988 21.358,172.521 23.022,173.028L29.886,174.983L42.943,178.956C44.671,179.482 45.994,179.359 46.916,178.837C47.54,178.484 48.032,177.945 48.351,177.191ZM467.182,131.293C467.166,131.323 467.137,131.375 467.112,131.407C467.061,131.473 466.998,131.54 466.927,131.607C466.713,131.807 466.433,132.005 466.092,132.206C464.638,133.066 460.963,134.68 455.073,137.065C455.073,137.065 444.326,141.349 444.326,141.349C440.665,142.787 438.202,143.651 436.931,143.921C436.634,143.983 436.282,143.996 436.092,143.998C436.02,143.769 435.941,143.451 435.849,143.044C435.805,142.687 435.669,142.192 435.407,141.57C434.828,140.192 433.994,139.447 433.097,139.165C432.421,138.952 431.663,138.974 430.828,139.312C429.662,139.784 428.975,140.515 428.667,141.402C428.385,142.211 428.419,143.217 428.919,144.404C429.108,144.854 429.626,145.864 430.48,147.432C431.067,148.508 431.496,149.363 431.763,149.999C432.193,151.021 432.632,152.282 433.083,153.783C433.443,154.991 433.748,155.884 433.991,156.463C434.631,157.984 435.544,158.814 436.539,159.123C437.277,159.351 438.106,159.323 439.019,158.953C440.065,158.529 440.687,157.891 440.987,157.149C441.28,156.427 441.285,155.544 440.851,154.511C440.708,154.172 440.415,153.679 439.946,153.046C439.668,152.67 439.466,152.368 439.36,152.13C439.396,152.075 439.483,151.946 439.561,151.868C439.869,151.559 440.329,151.258 440.926,150.944C440.93,150.942 440.934,150.94 440.938,150.938C441.268,150.76 442.534,150.232 444.729,149.343L445.822,148.9C446.415,148.706 446.837,148.557 447.089,148.456C447.08,148.459 451.414,146.772 451.414,146.772C451.415,146.772 451.415,146.772 451.416,146.772C454.374,145.615 456.689,145.139 458.387,145.482C458.39,145.482 458.393,145.483 458.396,145.483C460.704,145.934 462.357,147.509 463.45,150.108C464.424,152.421 464.348,154.384 463.056,155.983C463.053,155.987 463.05,155.991 463.047,155.994C462.063,157.237 459.655,158.548 455.905,160.067C455.905,160.067 452.683,161.372 452.683,161.372C452.683,161.372 450.099,162.35 450.099,162.35C448.672,162.881 447.715,163.246 447.228,163.443C446.353,163.782 445.618,163.989 445.021,164.035C444.843,164.049 444.683,164.048 444.543,164.022C444.481,164.011 444.423,164.004 444.4,163.951C444.322,163.764 444.28,163.549 444.263,163.309C444.203,162.464 444.045,161.772 443.816,161.227C443.452,160.361 442.847,159.719 442.007,159.299C441.077,158.835 440.157,158.803 439.251,159.17C438.216,159.589 437.521,160.317 437.162,161.353C436.834,162.302 436.867,163.3 437.307,164.346C437.481,164.761 438.055,165.793 439.042,167.434C439.329,167.911 439.667,168.622 440.062,169.563C440.475,170.544 440.916,171.867 441.391,173.53C441.703,174.627 441.977,175.448 442.206,175.993C442.871,177.575 443.766,178.47 444.697,178.834C445.463,179.132 446.302,179.135 447.212,178.766C448.315,178.319 448.964,177.629 449.26,176.799C449.532,176.038 449.509,175.094 449.041,173.982C448.839,173.502 448.649,173.13 448.479,172.862C448.455,172.824 448.429,172.788 448.402,172.753C448.147,172.426 447.955,172.158 447.84,171.94C447.886,171.881 447.956,171.798 448.019,171.741C448.349,171.44 448.836,171.141 449.467,170.826C449.502,170.808 449.537,170.789 449.571,170.768C449.782,170.639 451.008,170.138 453.236,169.235C453.236,169.235 463.247,165.18 463.247,165.18C466.84,163.725 469.236,161.387 470.473,158.204C471.694,155.061 471.556,151.617 469.982,147.876C469.156,145.912 468.107,144.348 466.856,143.17C466.19,142.541 465.354,141.925 464.347,141.327C464.347,141.327 473.166,137.962 473.166,137.962L472.655,138.056L472.884,138.003C473.029,137.993 473.173,137.959 473.308,137.905L473.312,137.903C474.569,137.394 475.259,136.686 475.545,135.967C475.789,135.352 475.796,134.677 475.487,133.943C475.358,133.636 475.105,133.148 474.721,132.484C474.414,131.953 474.192,131.531 474.059,131.216C473.717,130.401 473.435,129.627 473.214,128.893C473.214,128.892 473.214,128.891 473.213,128.89C472.831,127.627 472.591,126.892 472.504,126.683C472.088,125.695 471.426,124.981 470.54,124.524C469.532,124.003 468.554,123.963 467.61,124.346C466.538,124.78 465.903,125.439 465.602,126.215C465.315,126.955 465.319,127.863 465.768,128.929C465.927,129.308 466.21,129.803 466.633,130.407C466.9,130.787 467.089,131.079 467.182,131.293ZM54.709,158.589C54.214,159.841 54.22,161.103 54.725,162.375C55.267,163.743 56.223,164.735 57.595,165.349C58.966,165.963 60.356,166.021 61.765,165.526C63.188,165.026 64.216,164.098 64.848,162.739C65.476,161.388 65.525,160.014 64.992,158.615C64.46,157.217 63.505,156.21 62.129,155.594C60.753,154.979 59.352,154.931 57.927,155.453C56.664,155.916 55.715,156.705 55.079,157.818C55.188,157.553 55.27,157.316 55.327,157.108C55.328,157.104 55.329,157.1 55.33,157.095C55.644,155.907 55.187,154.634 53.462,153.549C53.455,153.545 53.448,153.541 53.441,153.536C53.126,153.346 52.239,152.917 50.776,152.262C50.776,152.262 39.701,147.305 39.701,147.305L33.423,144.286C30.562,142.923 28.487,141.887 28.487,141.887C28.487,141.887 28.514,141.906 28.52,141.911C28.487,141.887 28.453,141.865 28.418,141.845C28.042,141.624 27.612,141.405 27.127,141.188C25.286,140.364 23.798,140.314 22.688,140.788C21.843,141.148 21.154,141.811 20.68,142.83C20.218,143.825 20.15,144.742 20.394,145.572C20.723,146.691 21.677,147.735 23.433,148.521C23.903,148.731 24.321,148.893 24.688,149.008C26.725,149.83 28.538,150.596 30.123,151.305L36.678,154.099L49.117,159.666C50.762,160.403 52.09,160.446 53.072,160.043C53.737,159.77 54.295,159.297 54.709,158.589ZM439.675,119.034C438.533,119.767 437.85,120.801 437.632,122.141C437.425,123.407 437.701,124.646 438.502,125.849C439.498,127.344 440.888,128.2 442.668,128.425C444.338,128.636 446.006,128.238 447.658,127.179C450.451,125.387 452.037,122.83 452.406,119.499C452.759,116.305 451.916,113.132 449.825,109.994C447.049,105.827 443.334,103.454 438.704,102.839C434.176,102.238 429.494,103.441 424.68,106.529C420.123,109.453 417.267,113.032 416.055,117.22C414.815,121.501 415.505,125.638 418.16,129.624C420.615,133.308 423.882,135.484 427.939,136.184C429.431,136.456 431.083,136.464 432.897,136.195C434.787,135.914 436.243,135.414 437.282,134.748C438.238,134.135 438.806,133.315 439.02,132.312C439.234,131.309 439.048,130.335 438.424,129.397C437.636,128.214 436.476,127.65 434.915,127.767C434.858,127.771 434.801,127.779 434.745,127.79C434.504,127.837 433.591,128.097 432.008,128.579C432.002,128.58 431.997,128.582 431.992,128.584C430.432,129.079 428.957,129.103 427.566,128.626C426.183,128.153 425.069,127.262 424.209,125.971C422.819,123.885 422.528,121.734 423.369,119.515C424.281,117.105 426.324,114.939 429.423,112.951C432.415,111.031 435.254,110.13 437.964,110.325C440.484,110.506 442.433,111.631 443.812,113.7C444.694,115.023 445.146,116.286 445.105,117.509C445.084,118.149 444.92,118.726 444.615,119.241C443.836,118.66 443.045,118.366 442.27,118.313C441.413,118.255 440.543,118.478 439.675,119.034ZM98.558,107.913C98.524,107.952 98.488,107.988 98.45,108.023C98.45,108.023 96.089,110.157 96.089,110.157C95.234,110.93 94.352,111.865 93.442,112.96C92.45,114.153 91.637,115.255 91.008,116.269L89.311,119.014C89.277,119.069 89.239,119.121 89.198,119.171C89.177,119.196 89.164,119.231 89.145,119.27C89.096,119.373 89.034,119.469 88.961,119.556C88.825,119.721 88.729,119.836 88.674,119.902C87.614,121.176 86.496,121.712 85.452,121.726C84.678,121.736 83.894,121.473 83.128,120.86C82.24,120.149 81.82,119.359 81.739,118.568C81.657,117.777 81.906,116.92 82.631,116.049C82.88,115.749 83.297,115.334 83.891,114.811C84.34,114.416 84.662,114.109 84.85,113.883C85.764,112.784 85.013,111.692 83.333,110.347L79.803,107.521C79.803,107.521 75.428,103.936 75.428,103.936C75.428,103.936 71.167,100.524 71.167,100.524L62.932,94.013C62.099,93.346 61.327,92.986 60.561,93.073C59.777,93.162 59.07,93.699 58.355,94.559C58.355,94.559 57.084,96.087 57.084,96.087C56.383,96.931 55.995,97.703 56.062,98.459C56.127,99.198 56.632,99.853 57.449,100.507C58.227,101.13 58.766,101.542 59.072,101.736C59.073,101.736 59.074,101.737 59.075,101.738C59.075,101.738 61.099,103.029 61.095,103.027C61.455,103.255 61.931,103.603 62.518,104.073C65.488,106.451 65.786,108.673 64.286,110.477C63.641,111.253 62.905,111.681 62.125,111.832C61.061,112.037 59.815,111.722 58.474,110.648C58.025,110.289 57.276,109.635 56.228,108.683C54.736,107.327 53.779,106.478 53.353,106.137C52.541,105.488 51.671,104.844 50.742,104.206C49.714,103.503 48.85,102.925 48.538,102.717C48.431,102.669 48.328,102.607 48.233,102.531C47.196,101.7 46.673,100.807 46.537,99.931C46.391,98.993 46.659,98.008 47.479,97.021C47.867,96.554 48.815,95.513 50.32,93.907C50.54,93.648 51.692,92.329 53.777,89.951C53.777,89.951 58.539,84.425 58.544,84.418C59.098,83.752 60.515,81.98 62.798,79.102C62.804,79.094 62.811,79.085 62.818,79.077C63.326,78.467 64.144,77.383 65.274,75.827C66.317,74.366 67.162,73.249 67.805,72.475C68.968,71.077 70.198,70.487 71.364,70.489C72.203,70.491 73.058,70.789 73.899,71.462L74.047,71.583C74.032,71.569 74.016,71.556 74,71.543C74.353,71.825 74.972,72.39 75.853,73.24C76.676,74.034 77.558,74.887 78.498,75.801C78.498,75.801 78.998,76.202 78.998,76.202C79.479,76.586 80.272,77.141 81.376,77.867C82.952,78.901 83.911,79.561 84.259,79.839C85.289,80.664 85.797,81.562 85.912,82.455C86.031,83.379 85.749,84.363 84.922,85.358C84.258,86.157 83.49,86.589 82.664,86.725C81.574,86.905 80.279,86.548 78.868,85.418C78.244,84.918 77.359,84.127 76.214,83.04C75.144,82.025 74.32,81.283 73.737,80.817C72.956,80.191 72.211,79.875 71.455,80.001C70.613,80.141 69.828,80.761 69.015,81.739C69.015,81.739 67.867,83.12 67.867,83.12C67.152,83.979 66.727,84.699 66.785,85.364C66.843,86.033 67.359,86.683 68.175,87.414C68.175,87.414 71.541,90.354 71.541,90.354L88.56,104.062C90.243,105.409 91.501,105.884 92.435,104.761C92.623,104.535 92.864,104.164 93.169,103.653C93.572,102.978 93.902,102.493 94.152,102.193C94.749,101.475 95.53,101.061 96.502,100.964C97.473,100.868 98.323,101.12 99.055,101.706C99.825,102.322 100.243,103.031 100.382,103.789C100.566,104.797 100.243,105.989 99.17,107.279C99.115,107.345 99.033,107.443 98.924,107.575C98.865,107.645 98.8,107.71 98.728,107.768C98.661,107.822 98.577,107.896 98.558,107.913ZM405.322,100.702C405.188,100.532 404.98,100.21 404.682,99.748C404.68,99.744 404.677,99.74 404.674,99.736C404.378,99.287 404.078,98.914 403.78,98.613C402.966,97.792 402.129,97.424 401.34,97.378C400.492,97.328 399.628,97.628 398.808,98.412C397.919,99.26 397.566,100.175 397.616,101.098C397.661,101.935 398.066,102.841 398.963,103.746C399.058,103.841 399.987,104.599 401.762,106.006C402.302,106.437 402.94,107.025 403.677,107.769C404.483,108.582 405.287,109.51 406.091,110.552C406.981,111.708 407.653,112.508 408.099,112.958C408.859,113.725 409.744,114.146 410.739,114.248C411.858,114.363 412.8,114.04 413.574,113.301C414.266,112.641 414.606,111.835 414.593,110.882C414.581,109.958 414.247,109.168 413.595,108.51C413.381,108.295 412.977,107.964 412.37,107.532C411.936,107.222 411.601,106.956 411.372,106.725C411.302,106.655 411.374,106.568 411.42,106.462C411.507,106.257 411.646,106.042 411.826,105.808C412.048,105.541 412.784,104.821 414.029,103.632C414.029,103.632 422.86,95.2 422.86,95.2C424.724,93.42 425.983,91.735 426.674,90.169C426.674,90.168 426.675,90.167 426.675,90.166C427.546,88.179 427.673,85.882 426.989,83.271C426.331,80.757 425.1,78.594 423.299,76.778C420.781,74.238 417.898,72.796 414.654,72.442C414.844,72.055 414.936,71.667 414.948,71.289C414.972,70.521 414.674,69.723 413.914,68.957C413.882,68.925 413.42,68.518 412.522,67.741C412.491,67.714 412.458,67.689 412.425,67.665C412.071,67.41 411.696,67.081 411.296,66.681C411.293,66.678 409.903,64.936 409.903,64.936C409.771,64.731 409.588,64.503 409.347,64.261C408.174,63.077 407.028,62.613 406.027,62.646C405.24,62.673 404.481,62.982 403.785,63.646C402.945,64.448 402.612,65.311 402.651,66.176C402.688,66.966 403.059,67.818 403.899,68.665C404.15,68.919 404.56,69.252 405.138,69.653C405.529,69.925 405.815,70.141 405.985,70.313C406.047,70.375 406.119,70.421 406.094,70.494C405.939,70.953 405.418,71.584 404.615,72.447C404.615,72.447 403.107,74.061 403.107,74.061C403.107,74.061 397.522,79.395 397.522,79.395L392.281,84.222C391.689,84.768 391.167,85.159 390.695,85.369C390.474,85.466 390.296,85.563 390.159,85.426C389.837,85.101 389.547,84.732 389.289,84.322C388.896,83.696 388.591,83.297 388.403,83.107C387.603,82.301 386.764,81.96 385.954,81.949C385.144,81.938 384.296,82.257 383.474,83.041C382.781,83.703 382.431,84.42 382.349,85.153C382.236,86.152 382.631,87.276 383.767,88.422C383.956,88.613 384.824,89.338 386.378,90.586C386.378,90.586 386.378,90.586 386.379,90.587C387.506,91.491 388.374,92.246 388.979,92.857C389.744,93.628 390.396,94.37 390.932,95.082C392.137,96.682 392.874,97.605 393.129,97.862C394.016,98.757 394.906,99.187 395.726,99.275C396.67,99.376 397.599,99.076 398.465,98.249C399.302,97.45 399.677,96.628 399.724,95.855C399.775,95.022 399.469,94.175 398.671,93.37C398.329,93.025 397.822,92.65 397.135,92.263C396.736,92.038 396.44,91.85 396.263,91.672C396.219,91.628 396.248,91.574 396.277,91.513C396.552,90.942 397.314,90.114 398.502,88.979C398.502,88.979 404.684,83.076 404.684,83.076C407.342,80.537 409.512,79.014 411.275,78.626C411.276,78.626 411.276,78.626 411.277,78.626C413.632,78.107 415.794,78.926 417.807,80.956C418.863,82.021 419.514,83.252 419.75,84.656C419.948,85.854 419.681,86.996 418.973,88.088C418.97,88.092 418.967,88.097 418.964,88.102C418.529,88.792 417.536,89.852 416.013,91.306C416.013,91.306 412.489,94.671 412.489,94.671C412.489,94.671 409.629,97.314 409.629,97.314L407.177,99.479C406.591,99.999 406.082,100.376 405.635,100.591C405.539,100.637 405.406,100.678 405.322,100.702ZM98.558,107.913L98.554,107.917C98.554,107.917 98.578,107.89 98.587,107.88L98.558,107.913ZM88.598,57.436L88.596,57.433C87.754,56.385 86.871,55.927 86.088,55.854C85.419,55.791 84.755,55.969 84.119,56.461C83.854,56.667 83.445,57.039 82.898,57.583C82.461,58.017 82.108,58.342 81.836,58.553C81.131,59.099 80.448,59.577 79.789,59.986C79.788,59.986 79.787,59.987 79.787,59.987C78.652,60.693 77.997,61.12 77.817,61.26C76.961,61.922 76.442,62.741 76.236,63.703C76,64.797 76.229,65.731 76.861,66.517C77.579,67.411 78.399,67.83 79.242,67.903C80.046,67.972 80.935,67.719 81.858,67.005C82.185,66.752 82.594,66.349 83.07,65.784C83.37,65.429 83.605,65.171 83.789,65.024C83.822,65.031 83.881,65.045 83.919,65.06C83.999,65.09 84.081,65.131 84.166,65.18C84.421,65.327 84.691,65.537 84.982,65.804C86.221,66.942 88.807,69.971 92.753,74.879C92.753,74.879 99.888,83.855 99.888,83.855C102.297,86.919 103.816,89.008 104.427,90.134C104.57,90.397 104.679,90.726 104.732,90.905C104.528,91.035 104.237,91.197 103.864,91.395C103.526,91.534 103.077,91.797 102.539,92.214C101.346,93.138 100.843,94.128 100.812,95.052C100.788,95.748 101.016,96.458 101.575,97.154C102.356,98.125 103.26,98.574 104.215,98.623C105.085,98.668 106.061,98.361 107.089,97.565C107.478,97.264 108.327,96.499 109.631,95.265C110.526,94.417 111.247,93.779 111.797,93.353C112.682,92.668 113.799,91.909 115.147,91.074C116.233,90.404 117.025,89.873 117.526,89.485C118.843,88.466 119.407,87.378 119.438,86.354C119.461,85.595 119.206,84.82 118.594,84.059C117.893,83.187 117.098,82.774 116.289,82.694C115.501,82.615 114.634,82.85 113.74,83.543C113.446,83.77 113.043,84.181 112.55,84.796C112.257,85.162 112.017,85.435 111.813,85.6C111.749,85.581 111.599,85.534 111.501,85.482C111.114,85.275 110.693,84.923 110.222,84.445C110.219,84.442 110.216,84.439 110.213,84.436C109.948,84.173 109.085,83.122 107.614,81.293L106.881,80.382C106.53,79.875 106.269,79.517 106.1,79.307C106.106,79.314 103.269,75.684 103.269,75.684C103.269,75.683 103.268,75.682 103.268,75.682C101.326,73.205 100.228,71.15 100.1,69.453C100.1,69.45 100.1,69.447 100.099,69.445C99.911,67.143 101.004,65.152 103.253,63.411C105.256,61.86 107.2,61.395 109.121,62.179C109.125,62.181 109.13,62.183 109.134,62.185C110.621,62.774 112.564,64.69 115.077,67.815C115.077,67.815 117.235,70.5 117.235,70.5C117.235,70.5 118.9,72.672 118.9,72.672C119.81,73.874 120.429,74.678 120.755,75.084C121.326,75.818 121.73,76.455 121.938,77.006C122,77.17 122.043,77.321 122.056,77.46C122.062,77.522 122.071,77.579 122.025,77.615C121.863,77.74 121.664,77.838 121.434,77.92C120.622,78.207 119.986,78.545 119.515,78.91C118.765,79.49 118.301,80.236 118.119,81.144C117.917,82.149 118.137,83.025 118.744,83.781C119.437,84.643 120.341,85.101 121.455,85.157C122.474,85.208 123.444,84.904 124.349,84.203C124.708,83.925 125.564,83.102 126.903,81.722C127.292,81.321 127.897,80.808 128.712,80.177C129.561,79.52 130.737,78.742 132.238,77.841C133.229,77.246 133.958,76.764 134.43,76.399C135.8,75.338 136.433,74.25 136.535,73.271C136.619,72.467 136.392,71.674 135.782,70.915C135.043,69.996 134.189,69.572 133.295,69.519C132.474,69.471 131.555,69.75 130.592,70.496C130.177,70.817 129.864,71.098 129.648,71.332C129.618,71.365 129.589,71.399 129.562,71.434C129.311,71.764 129.101,72.019 128.919,72.187C128.848,72.159 128.748,72.116 128.675,72.072C128.289,71.842 127.863,71.464 127.382,70.955C127.355,70.926 127.326,70.898 127.297,70.872C127.113,70.708 126.286,69.688 124.793,67.831C124.793,67.831 118.085,59.487 118.085,59.487C115.678,56.493 112.731,54.869 109.273,54.571C105.859,54.276 102.52,55.347 99.282,57.854C97.582,59.17 96.336,60.587 95.521,62.09C95.087,62.891 94.712,63.847 94.4,64.961C94.4,64.961 88.698,57.561 88.698,57.561L88.716,57.585L88.598,57.436ZM364.748,42.401C364.702,42.646 364.603,43.099 364.453,43.474C363.924,44.796 362.872,46.612 361.314,48.932C361.314,48.932 358.351,53.342 358.351,53.342C356.739,55.742 355.699,57.331 355.23,58.108C354.145,59.899 353.592,61.711 353.547,63.536C353.547,63.538 353.547,63.54 353.547,63.541C353.462,67.628 355.699,71.271 360.455,74.347C363.5,76.316 366.517,77.147 369.503,76.873C369.385,77.311 369.375,77.727 369.448,78.114C369.59,78.855 370.045,79.559 370.937,80.135C371.323,80.385 371.809,80.62 372.399,80.83C372.965,81.114 373.298,81.281 373.389,81.341C373.588,81.469 374.064,81.854 374.826,82.487C374.827,82.487 374.828,82.488 374.829,82.489C375.45,83.002 375.941,83.372 376.297,83.603C377.657,84.482 378.856,84.651 379.836,84.355C380.554,84.137 381.206,83.665 381.738,82.873C382.384,81.911 382.542,81.008 382.36,80.201C382.183,79.411 381.661,78.651 380.673,78.013C380.369,77.816 379.902,77.581 379.265,77.322C378.909,77.177 378.63,77.052 378.43,76.938C378.433,76.85 378.442,76.692 378.468,76.576C378.572,76.108 378.815,75.547 379.173,74.885C379.184,74.866 379.194,74.846 379.204,74.826C379.328,74.567 380.093,73.412 381.479,71.349C381.479,71.349 386.975,63.167 386.975,63.167C388.665,60.651 390.032,58.791 391.083,57.59C391.394,57.296 391.75,56.867 392.136,56.292C392.759,55.365 392.93,54.508 392.799,53.758C392.661,52.968 392.186,52.228 391.253,51.624C390.94,51.422 390.451,51.145 389.786,50.798C389.225,50.504 388.811,50.274 388.547,50.103C388.249,49.911 387.819,49.582 387.251,49.122C386.578,48.577 386.064,48.192 385.711,47.964C384.649,47.277 383.675,47.067 382.83,47.192C381.916,47.326 381.077,47.84 380.397,48.852C379.764,49.795 379.631,50.692 379.857,51.515C380.063,52.263 380.6,53.003 381.587,53.641C381.587,53.641 382.237,54.061 382.237,54.061C382.346,54.132 382.465,54.187 382.59,54.226C382.755,54.277 382.937,54.371 383.143,54.498C383.139,54.569 383.131,54.669 383.115,54.746C383.029,55.149 382.83,55.627 382.537,56.189C382.535,56.191 380.257,59.584 380.257,59.584C380.257,59.584 378.294,62.506 378.294,62.506C375.846,66.15 373.949,68.477 372.528,69.428C372.527,69.429 372.525,69.43 372.524,69.431C371.541,70.093 370.385,70.378 369.063,70.314C367.649,70.246 366.284,69.773 364.958,68.915C362.432,67.281 361.309,65.417 361.847,63.19C361.847,63.188 361.847,63.187 361.847,63.186C362.222,61.614 363.41,59.395 365.355,56.5C365.355,56.5 367.659,53.07 367.659,53.07C367.659,53.07 370.446,49.266 370.446,49.266L372.84,45.819L373.602,44.685C374.442,43.434 374.593,42.328 374.305,41.424C374.094,40.762 373.641,40.157 372.878,39.664C372.794,39.609 372.412,39.411 371.724,39.084C371.723,39.084 371.721,39.083 371.72,39.083C370.936,38.714 370.395,38.439 370.101,38.249C369.767,38.033 369.298,37.68 368.691,37.193C367.985,36.627 367.437,36.221 367.049,35.97C365.684,35.087 364.495,34.889 363.547,35.134C362.806,35.326 362.149,35.779 361.625,36.558C360.976,37.525 360.823,38.437 361.021,39.259C361.21,40.044 361.745,40.807 362.744,41.453C363.048,41.65 363.516,41.885 364.152,42.144C364.391,42.241 364.59,42.325 364.748,42.401ZM130.898,45.862C130.998,45.918 131.221,46.048 131.373,46.182C131.811,46.566 132.279,47.139 132.792,47.888C132.794,47.891 135.518,52.675 135.518,52.675L140.836,62.016C141.23,62.861 141.493,63.57 141.607,64.148C141.646,64.341 141.65,64.584 141.649,64.707C141.401,64.825 141.054,64.95 140.61,65.094C139.848,65.34 139.293,65.568 138.938,65.763C137.906,66.328 137.329,67.049 137.093,67.823C136.851,68.616 136.941,69.528 137.514,70.534C138.111,71.582 138.917,72.143 139.844,72.322C140.668,72.482 141.655,72.326 142.773,71.714C143.289,71.431 144.269,70.772 145.707,69.728C146.778,68.956 147.78,68.313 148.716,67.8C149.282,67.489 150.188,67.1 151.428,66.625C152.831,66.089 153.851,65.64 154.492,65.289C155.521,64.725 156.203,63.972 156.577,63.07C157.019,62.003 156.951,61.031 156.451,60.152C155.866,59.126 155.081,58.575 154.187,58.392C153.382,58.228 152.421,58.371 151.337,58.965C150.815,59.251 150.452,59.538 150.219,59.792C149.808,60.171 149.531,60.43 149.368,60.547C149.313,60.519 149.23,60.473 149.173,60.431C148.857,60.195 148.531,59.825 148.177,59.337C147.958,59.038 147.349,57.996 146.337,56.22C146.337,56.22 142.225,48.998 142.225,48.998C141.324,47.415 140.463,45.859 139.641,44.33C139.64,44.328 139.639,44.325 139.638,44.323C138.577,42.377 137.979,41.254 137.853,40.949C137.831,40.896 137.806,40.844 137.777,40.794C137.712,40.679 137.632,40.497 137.53,40.251C137.37,39.863 137.234,39.58 137.131,39.398C136.384,38.087 135.478,37.425 134.583,37.228C133.876,37.071 133.122,37.169 132.337,37.599C131.995,37.786 131.498,38.121 130.853,38.613C130.358,38.99 129.983,39.254 129.721,39.398C129.404,39.572 128.639,39.893 127.432,40.374C127.076,40.515 126.502,40.798 125.713,41.231C124.256,42.03 123.52,43.004 123.315,43.987C123.159,44.732 123.278,45.53 123.755,46.368C124.326,47.371 125.089,47.911 125.95,48.098C126.737,48.268 127.672,48.137 128.723,47.561C129.05,47.382 129.515,47.038 130.1,46.507C130.418,46.218 130.681,45.999 130.898,45.862ZM328.785,15.071C328.796,15.102 328.813,15.159 328.819,15.199C328.832,15.282 328.837,15.372 328.837,15.468C328.834,15.759 328.783,16.094 328.693,16.474C328.307,18.096 326.925,21.807 324.564,27.614C324.564,27.614 320.203,38.162 320.203,38.162C318.703,41.741 317.617,44.076 316.928,45.158C316.768,45.411 316.531,45.668 316.401,45.802C316.183,45.694 315.895,45.527 315.534,45.309C315.242,45.091 314.785,44.841 314.149,44.592C312.738,44.039 311.612,44.106 310.781,44.541C310.155,44.869 309.642,45.417 309.307,46.24C308.839,47.39 308.895,48.382 309.328,49.218C309.723,49.98 310.481,50.657 311.698,51.133C312.158,51.313 313.258,51.653 314.998,52.144C316.194,52.482 317.117,52.776 317.769,53.031C318.815,53.441 320.043,54.011 321.453,54.74C322.588,55.329 323.452,55.737 324.045,55.969C325.602,56.579 326.845,56.515 327.765,56.029C328.446,55.67 329.002,55.066 329.369,54.166C329.788,53.135 329.755,52.252 329.423,51.524C329.098,50.815 328.457,50.195 327.4,49.781C327.052,49.645 326.487,49.508 325.699,49.396C325.229,49.33 324.868,49.262 324.62,49.171C324.605,49.107 324.572,48.956 324.569,48.847C324.558,48.415 324.659,47.881 324.845,47.241C324.847,47.238 324.848,47.234 324.849,47.23C324.949,46.873 325.445,45.614 326.326,43.45L326.764,42.372C327.036,41.82 327.221,41.42 327.322,41.171C327.319,41.179 329.107,36.955 329.107,36.955C329.107,36.954 329.108,36.953 329.108,36.952C330.324,34.065 331.59,32.104 333.024,31.148C333.026,31.147 333.029,31.145 333.031,31.143C334.97,29.834 337.273,29.768 339.934,30.81C342.303,31.738 343.684,33.158 343.952,35.182C343.952,35.187 343.953,35.192 343.954,35.197C344.177,36.755 343.456,39.363 341.952,43.061C341.952,43.061 340.66,46.237 340.66,46.237C340.66,46.237 339.574,48.737 339.574,48.737C338.968,50.112 338.567,51.039 338.372,51.519C338.009,52.371 337.648,53.033 337.266,53.485C337.152,53.62 337.04,53.732 336.924,53.812C336.872,53.848 336.826,53.884 336.772,53.863C336.58,53.788 336.394,53.668 336.207,53.513C335.548,52.966 334.932,52.594 334.374,52.376C333.487,52.028 332.597,52.006 331.704,52.305C330.717,52.636 330.053,53.26 329.689,54.154C329.274,55.174 329.321,56.171 329.829,57.146C330.293,58.038 331.046,58.71 332.116,59.13C332.541,59.296 333.695,59.612 335.583,60.061C336.131,60.192 336.886,60.45 337.85,60.827C338.854,61.22 340.129,61.832 341.674,62.657C342.694,63.202 343.484,63.582 344.042,63.8C345.663,64.435 346.94,64.429 347.855,64.027C348.606,63.697 349.193,63.108 349.558,62.21C350.001,61.123 349.948,60.185 349.548,59.399C349.181,58.677 348.476,58.035 347.336,57.589C346.845,57.397 346.441,57.271 346.126,57.204C346.082,57.195 346.038,57.187 345.994,57.182C345.577,57.133 345.247,57.082 345.007,57.011C344.997,56.937 344.985,56.831 344.987,56.747C344.997,56.304 345.118,55.753 345.327,55.09C345.339,55.052 345.349,55.014 345.358,54.976C345.411,54.737 345.899,53.525 346.792,51.329C346.792,51.329 350.807,41.458 350.807,41.458C352.248,37.916 352.209,34.6 350.745,31.511C349.299,28.462 346.686,26.159 342.855,24.658C340.844,23.871 338.97,23.519 337.237,23.578C336.313,23.609 335.281,23.767 334.142,24.059C334.142,24.059 337.829,15.509 337.829,15.509L337.889,15.364C338.392,14.125 338.356,13.146 338.03,12.443C337.751,11.843 337.261,11.368 336.51,11.073C336.196,10.95 335.663,10.788 334.91,10.595C334.308,10.441 333.845,10.304 333.522,10.177C332.688,9.851 331.926,9.509 331.235,9.153C331.234,9.152 331.234,9.152 331.233,9.152C330.043,8.54 329.339,8.197 329.125,8.113C328.113,7.716 327.131,7.685 326.179,7.989C325.095,8.336 324.385,8.997 324.006,9.927C323.577,10.984 323.616,11.891 323.973,12.643C324.314,13.361 324.981,13.991 326.072,14.418C326.459,14.57 327.019,14.716 327.755,14.839C328.219,14.916 328.564,14.987 328.785,15.071ZM164.567,23.261C162.552,23.084 160.44,23.419 158.233,24.287L158.233,24.287C154.477,25.764 151.836,27.933 150.264,30.741C148.624,33.668 148.445,36.715 149.738,39.88C151.153,43.348 153.483,45.207 156.626,45.575C159.406,45.901 163.068,45.464 167.604,44.21C167.606,44.209 167.608,44.209 167.611,44.208C171.165,43.207 173.458,43.393 174.32,45.504C174.766,46.597 174.647,47.685 174.003,48.773C173.268,50.014 172.062,50.934 170.424,51.578C167.975,52.541 165.767,52.885 163.792,52.554C162.141,52.277 161.003,51.563 160.454,50.303C159.582,48.304 158.837,47.167 158.382,46.801C157.705,46.256 156.623,46.035 155.127,46.623C154.045,47.048 153.402,47.712 153.098,48.505C152.814,49.246 152.818,50.163 153.261,51.246C153.477,51.777 153.859,52.475 154.419,53.332C154.872,54.027 155.272,54.805 155.623,55.665C155.824,56.156 155.988,56.66 156.117,57.179C156.122,57.198 156.127,57.216 156.132,57.234C156.571,58.733 156.875,59.825 156.976,60.194C156.988,60.323 157.02,60.453 157.071,60.58C157.561,61.779 158.262,62.523 159.058,62.905C159.914,63.317 160.935,63.362 162.121,62.896C163.237,62.457 163.905,61.783 164.226,60.984C164.412,60.522 164.486,59.996 164.417,59.407C167.099,59.708 169.821,59.32 172.583,58.234C176.498,56.695 179.25,54.46 180.885,51.588C182.594,48.587 182.79,45.463 181.464,42.215C179.324,36.973 174.291,35.079 166.179,37.082L162.493,37.982C159.673,38.676 157.793,38.311 157.014,36.403C156.616,35.427 156.756,34.442 157.369,33.44C158.086,32.269 159.225,31.402 160.754,30.801C162.288,30.198 163.772,30.018 165.208,30.288C166.349,30.503 167.149,30.925 167.502,31.711L168.357,33.635C168.811,34.654 169.467,35.269 170.22,35.571C170.973,35.874 171.879,35.888 172.931,35.474C174.044,35.037 174.7,34.344 175,33.497C175.269,32.734 175.248,31.781 174.786,30.65C174.575,30.133 174.195,29.408 173.637,28.478C173.174,27.706 172.851,27.109 172.676,26.68C172.389,25.977 172.173,25.245 172.029,24.485C172.02,24.433 172.007,24.382 171.991,24.331C171.667,23.296 171.451,22.654 171.349,22.403C170.92,21.353 170.266,20.723 169.499,20.415C168.751,20.114 167.835,20.101 166.757,20.524C165.664,20.954 165.021,21.637 164.727,22.472C164.642,22.715 164.586,22.979 164.567,23.261ZM302.574,18.456L302.492,18.869C302.252,20.136 302.463,21.133 302.972,21.881C303.49,22.642 304.352,23.205 305.633,23.439C306.645,23.623 307.498,23.472 308.203,23.068C309.139,22.531 309.881,21.47 310.205,19.759C310.288,19.323 310.326,18.968 310.331,18.696C310.331,18.698 310.606,16.232 310.606,16.232C310.728,15.148 310.805,14.507 310.842,14.309C311.14,12.738 311.456,11.4 311.793,10.295C312.169,9.063 312.358,8.4 312.375,8.31C312.375,8.31 312.447,7.934 312.447,7.934C312.748,6.343 312.448,5.179 311.799,4.403C311.316,3.823 310.616,3.41 309.661,3.235C308.757,3.071 307.997,3.203 307.371,3.55C306.931,3.794 306.536,4.162 306.221,4.672C304.017,2.469 301.148,1.034 297.601,0.387C292.891,-0.473 288.827,0.107 285.4,2.06C281.879,4.065 279.721,7.109 278.945,11.205C278.49,13.602 278.701,15.863 279.561,17.99C280.432,20.141 281.825,21.857 283.737,23.141C283.743,23.144 283.748,23.148 283.753,23.151C285.659,24.394 288.419,25.689 292.039,27.02L295.557,28.31C299.67,29.816 301.565,32.112 300.939,35.415C300.534,37.549 299.443,39.104 297.629,40.055C295.682,41.077 293.272,41.282 290.41,40.759C287.324,40.196 285.01,38.977 283.512,37.022C282.05,35.116 281.61,32.805 282.122,30.103C282.227,29.551 282.323,29.13 282.416,28.842C282.434,28.788 282.448,28.732 282.459,28.676L282.672,27.55C282.927,26.206 282.747,25.152 282.281,24.372C281.768,23.513 280.897,22.906 279.591,22.667C278.301,22.432 277.277,22.697 276.49,23.329C275.788,23.892 275.244,24.81 274.991,26.147C274.826,27.019 274.685,28.346 274.577,30.13C274.478,31.761 274.356,32.975 274.205,33.771C274.121,34.215 273.866,35.211 273.445,36.761C273.445,36.761 272.606,39.845 272.606,39.845C272.521,40.035 272.445,40.273 272.39,40.56C272.146,41.852 272.335,42.865 272.808,43.62C273.315,44.428 274.167,45.01 275.443,45.243C276.646,45.463 277.595,45.243 278.314,44.729C278.863,44.336 279.308,43.744 279.581,42.916C282.186,45.398 285.504,47.015 289.546,47.753C294.471,48.652 298.735,48.021 302.347,45.923C306.041,43.778 308.31,40.541 309.133,36.199C309.935,31.969 308.946,28.422 306.223,25.542C304.515,23.721 301.09,21.848 295.888,20.029C292.795,18.938 290.654,17.985 289.486,17.125C287.75,15.775 287.075,14.066 287.47,11.984C287.813,10.173 288.727,8.839 290.246,8.006C291.878,7.112 293.893,6.926 296.279,7.361C298.913,7.842 300.887,8.794 302.154,10.305C303.346,11.727 303.713,13.472 303.324,15.526C303.265,15.835 303.164,16.258 303.022,16.793C303.022,16.793 302.574,18.456 302.574,18.456ZM202.83,19.249C202.905,19.333 203.073,19.527 203.173,19.703C203.459,20.206 203.712,20.897 203.948,21.77C203.949,21.772 204.938,27.166 204.938,27.166L206.869,37.697C206.961,38.622 206.974,39.376 206.891,39.959C206.863,40.154 206.787,40.385 206.745,40.501C206.472,40.533 206.102,40.541 205.635,40.535C204.833,40.525 204.232,40.563 203.832,40.634C202.668,40.839 201.884,41.336 201.403,41.993C200.912,42.665 200.695,43.556 200.903,44.69C201.12,45.872 201.696,46.66 202.513,47.126C203.239,47.54 204.224,47.708 205.484,47.485C206.066,47.383 207.211,47.073 208.917,46.545C210.185,46.157 211.347,45.868 212.401,45.682C213.04,45.569 214.025,45.491 215.356,45.438C216.86,45.378 217.973,45.28 218.696,45.153C219.856,44.948 220.75,44.454 221.404,43.72C222.176,42.853 222.433,41.912 222.252,40.921C222.039,39.764 221.48,38.993 220.695,38.534C219.988,38.121 219.032,37.95 217.81,38.166C217.222,38.269 216.783,38.425 216.479,38.59C215.965,38.817 215.616,38.974 215.424,39.033C215.381,38.989 215.318,38.919 215.278,38.861C215.057,38.537 214.872,38.083 214.698,37.508C214.591,37.155 214.36,35.976 213.993,33.973C213.993,33.973 212.5,25.831 212.5,25.831C212.173,24.047 211.875,22.301 211.605,20.592C211.605,20.59 211.604,20.587 211.604,20.584C211.247,18.406 211.053,17.153 211.035,16.824C211.032,16.767 211.025,16.71 211.015,16.653C210.991,16.524 210.976,16.326 210.961,16.061C210.938,15.643 210.904,15.332 210.867,15.128C210.596,13.649 209.958,12.734 209.177,12.261C208.561,11.888 207.816,11.739 206.931,11.895C206.545,11.963 205.964,12.121 205.191,12.38C204.598,12.578 204.156,12.708 203.861,12.76C203.503,12.824 202.673,12.884 201.372,12.952C200.989,12.972 200.353,13.057 199.463,13.214C197.82,13.504 196.801,14.191 196.281,15.054C195.887,15.709 195.734,16.502 195.907,17.445C196.115,18.577 196.657,19.331 197.41,19.783C198.097,20.195 199.024,20.37 200.21,20.161C200.578,20.096 201.131,19.919 201.861,19.604C202.258,19.432 202.579,19.309 202.83,19.249ZM241.921,8.48C240.068,7.683 237.957,7.343 235.584,7.478L235.583,7.478C231.544,7.707 228.337,8.941 225.938,11.113C223.435,13.378 222.279,16.211 222.48,19.616C222.7,23.345 224.307,25.834 227.168,27.163C229.698,28.339 233.312,29.065 238.019,29.29C238.022,29.29 238.024,29.29 238.026,29.29C241.721,29.449 243.835,30.341 243.969,32.61C244.038,33.785 243.573,34.781 242.61,35.611C241.511,36.559 240.07,37.055 238.308,37.155C235.674,37.305 233.469,36.943 231.704,36.014C230.228,35.236 229.38,34.204 229.267,32.839C229.087,30.672 228.749,29.361 228.436,28.872C227.971,28.145 227.016,27.598 225.408,27.689C224.244,27.755 223.419,28.184 222.874,28.841C222.366,29.455 222.072,30.326 222.141,31.491C222.175,32.062 222.311,32.842 222.564,33.83C222.768,34.63 222.897,35.493 222.951,36.417C222.982,36.945 222.975,37.475 222.929,38.007C222.928,38.026 222.926,38.045 222.926,38.063C222.856,39.621 222.791,40.751 222.768,41.133C222.737,41.26 222.725,41.393 222.733,41.529C222.809,42.818 223.233,43.742 223.864,44.353C224.542,45.01 225.496,45.371 226.771,45.299C227.971,45.231 228.823,44.8 229.386,44.142C229.712,43.762 229.953,43.286 230.078,42.706C232.524,43.828 235.23,44.309 238.201,44.14C242.411,43.901 245.744,42.639 248.224,40.426C250.816,38.112 252.013,35.211 251.807,31.719C251.475,26.081 247.316,22.716 238.976,22.087L235.189,21.792C232.29,21.57 230.626,20.639 230.505,18.586C230.443,17.537 230.895,16.646 231.801,15.888C232.86,15.001 234.22,14.534 235.864,14.441C237.515,14.347 238.98,14.638 240.254,15.342C241.266,15.902 241.888,16.551 241.968,17.407L242.156,19.498C242.257,20.606 242.68,21.392 243.296,21.914C243.912,22.436 244.767,22.732 245.899,22.667C247.095,22.599 247.942,22.147 248.5,21.437C249.003,20.798 249.291,19.887 249.219,18.671C249.186,18.115 249.061,17.309 248.833,16.253C248.644,15.378 248.53,14.71 248.503,14.249C248.459,13.493 248.491,12.731 248.601,11.966C248.608,11.914 248.613,11.861 248.614,11.808C248.642,10.726 248.645,10.05 248.629,9.78C248.563,8.651 248.146,7.85 247.519,7.319C246.907,6.8 246.043,6.502 244.884,6.567C243.709,6.634 242.877,7.081 242.329,7.781C242.169,7.985 242.031,8.218 241.921,8.48ZM130.451,37.939C131.656,37.278 132.453,36.288 132.834,34.966C133.216,33.643 133.067,32.39 132.393,31.207C131.714,30.015 130.702,29.243 129.358,28.891C128.03,28.544 126.765,28.699 125.565,29.357C124.364,30.015 123.566,30.991 123.172,32.282C122.772,33.59 122.912,34.841 123.591,36.033C124.264,37.216 125.273,37.997 126.621,38.372C127.969,38.746 129.246,38.6 130.451,37.939ZM205.034,11.614C206.393,11.374 207.475,10.693 208.274,9.564C209.074,8.435 209.348,7.203 209.103,5.869C208.857,4.525 208.156,3.472 207.002,2.71C205.861,1.957 204.614,1.7 203.26,1.939C201.907,2.178 200.829,2.846 200.027,3.941C199.216,5.05 198.933,6.277 199.18,7.621C199.424,8.955 200.119,10.016 201.27,10.8C202.42,11.585 203.675,11.854 205.034,11.614Z" style="fill:rgb(161,0,255);fill-rule:nonzero;"/>
    <g id="Shadow" transform="matrix(0.501391,0,0,0.461139,-9.20801,-5.40781)">
        <path d="M329.744,926.078C170.73,926.078 41.63,959.073 41.63,999.714C41.63,1040.36 170.73,1073.35 329.744,1073.35C388.703,1073.35 448.508,1078.31 464.362,1073.35C485.328,1066.79 454.527,1063.75 440.312,1044.31C424.418,1022.57 423.537,983.975 423.537,970.476C423.537,960.696 450.494,926.078 329.744,926.078ZM793.679,1081.88C822.747,1081.83 881.71,1077.35 882.011,1055.94C882.332,1033.05 799.64,1021.03 771.83,1021.21C739.556,1021.41 588.111,1036.82 587.754,1059.57C587.419,1080.84 762.665,1081.94 793.679,1081.88Z"/>
    </g>
    <path id="hand" d="M401.669,479.364L405.627,443.617C405.627,443.617 395.241,438.616 393.935,434.721C378.14,387.582 362.594,396.3 362.594,396.3C360.242,386.964 359.05,377.073 358.946,367.647C364.586,362.588 386.522,371.993 389.84,381.333C402.116,382.831 402.621,403.848 402.621,403.848L407.21,396.763C405.493,381.077 400.056,377.093 393.268,376.142C393.268,376.142 400.616,356.049 403.256,343.643C410.02,311.87 410.497,303.263 410.497,303.263L431.418,312.937C426.77,339.961 421.646,353.232 421.646,353.232L425.352,355.035C429.322,344.214 433.147,333.869 437.208,315.931L457.563,328.285C452.132,353.237 440.487,364.732 440.487,364.732L444.757,366.865C444.757,366.865 457.625,355.475 462.466,335.212L480.948,349.463C474.916,367.296 456.646,396.592 456.646,396.592C456.646,396.592 450.883,419.825 432.906,437.437C427.97,442.273 419.947,449.775 419.947,449.775L419.947,480.43C417.718,484.109 404.901,483.926 401.669,479.364Z" style="fill:rgb(255,18,0);"/>
    <g id="head" transform="matrix(0.394523,0,0,0.404468,41.5161,56.699)">
        <path id="face" d="M363.882,395.649C350.532,573.323 270.898,873.644 298.207,990.369C317.394,1072.38 451.255,1095.49 527.738,1096C604.221,1096.51 737.553,1074.88 757.105,993.446C785.106,876.818 694.071,590 695.741,396.232C696.493,308.963 370.441,308.366 363.882,395.649Z" style="fill:rgb(255,244,0);"/>
        <path id="mouth" d="M440.591,629.223C440.591,629.223 484.782,968.518 503.053,1036.14C511.578,1067.69 542.993,1067.1 551.646,1034.55C569.747,966.454 615.641,628.639 615.641,628.639C558.194,623.881 499.892,623.813 440.591,629.223Z" style="fill:rgb(255,0,214);"/>
        <g id="hair" transform="matrix(1.0969,0,0,1.0969,-73.3642,-26.2504)">
            <path d="M640.064,73.834C640.064,73.834 461.766,39.177 378.998,159.83C314.167,254.336 330.639,355.404 358.819,416.019C387,476.634 458.276,524.774 548.081,523.521C614.352,522.596 756.346,500.795 753.68,368.904C751.533,262.645 651.479,238.956 628.138,191.358C589.069,111.689 621.999,97.292 640.064,73.834Z" style="fill:rgb(0,255,224);"/>
        </g>
    </g>
</svg>
