<?xml version="1.0" standalone="no"?>
<!DOCTYPE svg PUBLIC "-//W3C//DTD SVG 20010904//EN"
 "http://www.w3.org/TR/2001/REC-SVG-20010904/DTD/svg10.dtd">
<svg version="1.0" xmlns="http://www.w3.org/2000/svg"
 width="700.000000pt" height="700.000000pt" viewBox="0 0 700.000000 700.000000"
 preserveAspectRatio="xMidYMid meet">
<metadata>
Created by potrace 1.14, written by Peter Selinger 2001-2017
</metadata>
<g transform="translate(0.000000,700.000000) scale(0.100000,-0.100000)"
fill="#000000" stroke="none">
<path d="M3608 6995 c-1 -1 -43 -6 -93 -10 -93 -7 -107 -8 -190 -19 -448 -60
-828 -204 -1110 -420 -170 -131 -353 -357 -463 -571 -64 -125 -129 -317 -146
-430 -2 -16 -7 -49 -11 -73 -21 -133 -8 -396 25 -522 5 -19 11 -47 14 -62 10
-57 80 -247 122 -331 75 -149 139 -239 239 -339 l57 -57 -1 -113 c-1 -62 -4
-140 -6 -173 -2 -33 -7 -98 -10 -145 -3 -47 -8 -98 -10 -115 -6 -39 -15 -119
-21 -175 -9 -94 -78 -468 -110 -600 -58 -242 -128 -478 -261 -890 -117 -363
-179 -578 -198 -693 -3 -17 -11 -59 -17 -92 -6 -33 -10 -121 -10 -195 0 -220
46 -350 166 -471 113 -116 298 -219 531 -297 104 -35 274 -81 355 -96 14 -3
61 -11 105 -20 117 -22 237 -39 355 -51 36 -3 81 -8 100 -11 207 -24 831 -25
1015 0 17 3 62 7 100 11 39 4 77 9 86 10 9 2 40 6 69 10 29 4 62 9 74 11 12 3
39 7 61 10 90 13 286 58 395 90 217 66 400 150 515 237 111 84 211 224 230
322 5 22 10 47 12 55 10 47 18 133 17 185 -1 65 -13 196 -19 205 -2 3 -6 21
-9 40 -12 77 -52 210 -156 522 -100 300 -202 624 -214 680 -3 13 -14 57 -24
98 -40 156 -64 267 -97 455 -5 33 -33 221 -40 270 -7 52 -14 118 -21 190 -3
39 -7 86 -9 105 -5 49 -16 255 -19 377 l-3 102 73 56 c193 148 315 344 349
558 15 93 11 251 -10 352 -51 254 -247 491 -595 717 -30 19 -115 75 -189 122
-154 101 -254 179 -302 237 -50 61 -146 243 -175 334 -31 99 -38 198 -17 268
24 82 73 144 196 252 31 27 57 53 57 56 0 4 -26 10 -57 14 -32 3 -76 8 -98 11
-46 5 -601 14 -607 9z"/>
<path d="M5695 6985 c-298 -66 -519 -308 -552 -605 -39 -352 182 -670 528
-759 108 -28 277 -23 376 12 110 39 187 84 262 153 361 334 275 929 -164 1139
-49 23 -112 48 -140 55 -72 18 -239 21 -310 5z"/>
<path d="M520 4174 c-150 -44 -277 -128 -366 -244 -159 -205 -193 -460 -93
-702 37 -90 79 -150 158 -228 245 -240 631 -265 906 -58 264 200 351 554 211
858 -78 170 -235 307 -421 367 -118 38 -278 41 -395 7z"/>
<path d="M6131 3479 c-198 -50 -361 -181 -454 -364 -59 -117 -72 -177 -71
-330 1 -152 39 -272 125 -391 183 -252 490 -351 795 -256 162 50 334 204 406
362 50 109 62 163 62 290 0 138 -14 205 -64 312 -79 173 -241 311 -432 369
-100 30 -264 34 -367 8z"/>
</g>
</svg>
