<svg width="100%" height="100%" viewBox="0 0 100 100" version="1.1" xmlns="http://www.w3.org/2000/svg" xmlns:xlink="http://www.w3.org/1999/xlink" xml:space="preserve" xmlns:serif="http://www.serif.com/" style="fill-rule:evenodd;clip-rule:evenodd;stroke-linejoin:round;stroke-miterlimit:2;">
    <g transform="matrix(1,0,0,1,-3,-1.56319e-13)">
        <g id="ico_shop" transform="matrix(0.833333,0,0,0.833333,-280.333,1.56319e-13)">
            <rect x="340" y="0" width="120" height="120" style="fill:none;"/>
            <clipPath id="_clip1">
                <rect x="340" y="0" width="120" height="120"/>
            </clipPath>
            <g clip-path="url(#_clip1)">
                <g transform="matrix(1.98957,0,0,2.03341,301.903,-47.4772)">
                    <path d="M73.296,53.028C73.357,52.965 73.417,52.9 73.477,52.835C75.335,50.793 76.594,47.584 76.594,44.225L76.594,44.201L76.59,44.081L76.583,44.002L76.581,43.978L76.58,43.972L76.579,43.96L76.572,43.909L76.566,43.857L76.564,43.845L76.563,43.84L76.558,43.815L76.544,43.737L76.517,43.62L76.511,43.597L72.182,27.473C72.051,26.261 71.023,25.317 69.777,25.317L30.203,25.317L30.191,25.317L30.132,25.318L30.091,25.32L30.078,25.32L30.062,25.321L30.014,25.324L29.976,25.328L29.955,25.329L29.931,25.333L29.897,25.336L29.866,25.341L29.834,25.345L29.802,25.351L29.782,25.354L29.759,25.358L29.715,25.366L29.677,25.375L29.667,25.377L29.655,25.38L29.598,25.393L29.551,25.407C29.364,25.458 29.186,25.533 29.02,25.626L28.948,25.667L28.925,25.682L28.918,25.686L28.9,25.699L28.85,25.73L28.833,25.743L28.821,25.75L28.788,25.774L28.755,25.798L28.744,25.807L28.727,25.819L28.681,25.856L28.664,25.87L28.658,25.875L28.636,25.892L28.581,25.942L28.574,25.947C28.434,26.075 28.307,26.221 28.198,26.382L28.171,26.422L28.14,26.472L28.134,26.482L28.128,26.491L28.108,26.525L28.086,26.564L28.075,26.584L28.066,26.602L28.05,26.631L28.036,26.66L28.022,26.688L28.008,26.719L27.997,26.741L27.989,26.76L27.973,26.795L27.956,26.839L27.95,26.854L27.945,26.866L27.93,26.905L27.911,26.96L27.907,26.971L22.411,43.46L22.408,43.467L22.395,43.506L22.378,43.566L22.374,43.579L22.372,43.587L22.363,43.62L22.35,43.677L22.344,43.698L22.342,43.711L22.336,43.737L22.327,43.784L22.321,43.818L22.318,43.837L22.315,43.857C22.315,43.857 22.31,43.891 22.31,43.891L22.303,43.938L22.301,43.965L22.299,43.978C22.299,43.978 22.297,44 22.297,44L22.292,44.057L22.29,44.092L22.29,44.1C22.29,44.1 22.289,44.114 22.289,44.114L22.287,44.176L22.287,44.217L22.287,44.225C22.287,44.225 22.287,44.261 22.287,44.261L22.287,44.295L22.287,44.3C22.305,47.63 23.544,50.803 25.373,52.828C25.443,52.905 25.513,52.981 25.584,53.054L25.584,77.201C25.584,78.538 26.668,79.621 28.004,79.621L70.876,79.621C72.212,79.621 73.296,78.538 73.296,77.201L73.296,53.028Z" style="fill:rgb(255,129,197);"/>
                </g>
                <g transform="matrix(3.81849,0,0,2.95973,211.717,-106.91)">
                    <path d="M47.511,74.782L45.402,61.374C45.402,61.374 53.529,61.464 53.529,61.464C53.529,61.464 51.158,74.782 51.158,74.782L47.511,74.782Z" style="fill:rgb(255,30,0);"/>
                </g>
                <g transform="matrix(5.70435,0,0.167827,14.7046,285.405,-52.9247)">
                    <g transform="matrix(0.210366,0,-0.00240096,0.0816074,-88.8399,-1.37884)">
                        <path d="M494.507,95.343L499.536,65.512L482.499,65.512L472.413,95.343C472.868,96.962 473.899,111.893 483.62,111.893C492.341,111.893 494.089,96.962 494.507,95.343Z" style="fill:white;"/>
                    </g>
                    <g transform="matrix(0.210366,0,-0.00240096,0.0816074,-88.8399,-1.37884)">
                        <path d="M499.818,65.512L494.536,95.343C494.164,99.423 497.31,111.895 505.57,111.895C514.68,111.895 517.2,100.114 518,95.743L518.02,65.512L499.818,65.512Z" style="fill:rgb(255,138,0);"/>
                    </g>
                    <g transform="matrix(0.210366,0,-0.00240096,0.0816074,-88.8399,-1.37884)">
                        <path d="M518,65.512L518,96.343C518.71,101.46 522.827,112.062 530.269,111.893C538.645,111.703 542.598,99.53 542.341,95.392L537.206,65.512L518,65.512Z" style="fill:white;"/>
                    </g>
                    <g transform="matrix(0.210366,0,-0.00240096,0.0816074,-88.8399,-1.37884)">
                        <path d="M563.58,95.343L555.419,65.512L536.491,65.512L541.466,95.207C541.466,95.207 543.728,111.893 552.299,111.893C563.003,111.893 563.58,95.343 563.58,95.343Z" style="fill:rgb(255,138,0);"/>
                    </g>
                </g>
                <g transform="matrix(1.18859,0,0,1.18805,-215.665,0.60129)">
                    <path d="M562.367,51.04C562.481,50.923 562.593,50.802 562.704,50.68C566.159,46.882 568.5,40.914 568.5,34.667L568.501,34.622L568.493,34.399L568.48,34.253L568.477,34.207L568.475,34.197L568.474,34.175L568.46,34.078L568.448,33.982L568.444,33.96L568.443,33.95L568.434,33.905L568.409,33.76L568.358,33.543L568.346,33.5L560.295,3.51C560.051,1.256 558.14,-0.5 555.822,-0.5L482.222,-0.5L482.2,-0.499L482.092,-0.499L482.014,-0.495L481.991,-0.494L481.96,-0.492L481.872,-0.487L481.801,-0.48L481.762,-0.477L481.718,-0.471L481.655,-0.465L481.597,-0.456L481.537,-0.448L481.478,-0.437L481.439,-0.432L481.398,-0.423L481.316,-0.409L481.245,-0.392L481.226,-0.388L481.203,-0.382L481.098,-0.358L481.01,-0.333C480.662,-0.237 480.331,-0.099 480.023,0.075L480.019,0.077L480.009,0.083L479.89,0.152L479.846,0.18L479.833,0.187L479.799,0.21L479.707,0.269L479.675,0.292L479.653,0.306L479.592,0.351L479.531,0.394L479.51,0.411L479.478,0.434L479.393,0.503L479.36,0.528L479.349,0.538L479.309,0.57L479.206,0.662L479.197,0.67L479.194,0.673C478.932,0.91 478.697,1.181 478.495,1.48L478.443,1.555L478.387,1.647L478.374,1.667L478.365,1.684L478.327,1.746L478.287,1.819L478.266,1.856L478.248,1.891L478.219,1.944L478.193,1.998L478.166,2.05L478.14,2.107L478.121,2.148L478.105,2.184L478.076,2.249L478.044,2.331L478.032,2.359L478.024,2.381L477.995,2.453L477.961,2.556L477.953,2.577L467.731,33.244L467.727,33.258L467.702,33.329L467.671,33.441L467.663,33.465L467.659,33.481L467.642,33.543L467.618,33.647L467.608,33.687L467.603,33.711L467.591,33.76L467.576,33.847L467.564,33.91L467.558,33.946L467.552,33.982C467.552,33.982 467.544,34.045 467.544,34.045L467.531,34.132L467.526,34.183L467.523,34.207C467.523,34.207 467.52,34.248 467.52,34.248L467.51,34.355L467.507,34.419L467.506,34.435C467.506,34.435 467.505,34.461 467.505,34.461L467.5,34.577L467.5,34.652L467.5,34.667C467.5,34.667 467.501,34.734 467.501,34.734L467.501,34.797L467.502,34.807C467.535,40.999 469.838,46.901 473.24,50.668C473.369,50.811 473.5,50.951 473.633,51.088L473.633,96C473.633,98.485 475.648,100.5 478.133,100.5L557.867,100.5C560.352,100.5 562.367,98.485 562.367,96L562.367,51.04ZM517.832,48.259C517.2,49.12 516.519,49.923 515.799,50.651C512.781,53.709 509.105,55.46 505.548,55.46C501.847,55.46 498.328,53.628 495.554,50.448C495.166,50.003 494.792,49.531 494.436,49.033C494.022,49.614 493.583,50.16 493.125,50.668C490.359,53.731 486.872,55.46 483.183,55.46C482.999,55.46 482.816,55.456 482.633,55.446L482.633,91.5L506.395,91.5L500.556,62.9C500.284,61.568 500.63,60.183 501.496,59.135C502.362,58.086 503.655,57.485 505.015,57.5L531.015,57.789C532.338,57.804 533.587,58.4 534.431,59.418C535.275,60.437 535.628,61.775 535.396,63.077L530.337,91.5L553.367,91.5L553.367,55.443C553.162,55.455 552.955,55.46 552.748,55.46C548.924,55.46 545.567,53.654 543.004,50.479C542.639,50.027 542.291,49.544 541.961,49.032C541.432,49.692 540.872,50.309 540.289,50.877C537.271,53.815 533.621,55.46 530.081,55.46C526.496,55.46 522.898,53.79 519.96,50.814C519.202,50.046 518.488,49.189 517.832,48.259ZM515.581,91.5L510.49,66.562C510.49,66.562 525.604,66.73 525.604,66.73C525.604,66.73 521.196,91.5 521.196,91.5L515.581,91.5ZM489.265,39.167L477.1,39.167C477.53,40.76 478.184,42.23 479.015,43.469C480.126,45.126 481.489,46.46 483.183,46.46C484.876,46.46 486.239,45.126 487.35,43.469C488.181,42.23 488.835,40.76 489.265,39.167ZM537.305,39.167L523.219,39.167C523.894,41.25 525.002,43.111 526.365,44.491C527.474,45.615 528.727,46.46 530.081,46.46C531.48,46.46 532.817,45.59 534.011,44.428C535.414,43.061 536.584,41.225 537.305,39.167ZM558.899,39.167L547.552,39.167C547.909,40.848 548.475,42.399 549.237,43.7C550.123,45.212 551.203,46.46 552.748,46.46C554.006,46.46 555.096,45.669 556.046,44.625C557.329,43.214 558.315,41.304 558.899,39.167ZM512.645,39.167L499.521,39.167C500.116,41.214 501.091,43.104 502.336,44.532C503.266,45.597 504.308,46.46 505.548,46.46C506.93,46.46 508.222,45.516 509.395,44.328C510.759,42.947 511.912,41.135 512.645,39.167ZM485.466,8.5L478.243,30.167L490.582,30.167L494.36,8.5L485.466,8.5ZM503.496,8.5L499.718,30.167L513.5,30.167L513.5,8.5L503.496,8.5ZM522.5,8.5L522.5,30.167L537.225,30.167L533.405,8.5L522.5,8.5ZM542.544,8.5L546.364,30.167L558.133,30.167L552.316,8.5L542.544,8.5Z" style="fill:rgb(0,4,255);"/>
                </g>
            </g>
        </g>
    </g>
</svg>
