<svg width="100%" height="100%" viewBox="0 0 100 100" version="1.1" xmlns="http://www.w3.org/2000/svg" xmlns:xlink="http://www.w3.org/1999/xlink" xml:space="preserve" xmlns:serif="http://www.serif.com/" style="fill-rule:evenodd;clip-rule:evenodd;stroke-linejoin:round;stroke-miterlimit:2;">
    <g transform="matrix(1,0,0,1,-227.28,-266.333)">
        <g id="ico_twitter_ori" transform="matrix(1,0,0,1,-111.72,118.333)">
            <rect x="339" y="148" width="100" height="100" style="fill:none;"/>
            <clipPath id="_clip1">
                <rect x="339" y="148" width="100" height="100"/>
            </clipPath>
            <g clip-path="url(#_clip1)">
                <g transform="matrix(1,0,0,1,-148.28,-131)">
                    <path d="M587,304C587,290.202 575.798,279 562,279L512,279C498.202,279 487,290.202 487,304L487,354C487,367.798 498.202,379 512,379L562,379C575.798,379 587,367.798 587,354L587,304Z" style="fill:rgb(0,138,255);"/>
                </g>
                <g transform="matrix(0.300969,0,0,0.300969,328.806,137.8)">
                    <path d="M153.62,301.59C247.96,301.59 299.56,223.43 299.56,155.65C299.56,153.43 299.56,151.22 299.41,149.02C309.448,141.759 318.114,132.769 325,122.47C315.639,126.618 305.708,129.338 295.54,130.54C306.245,124.132 314.262,114.045 318.09,102.17C308.022,108.144 297.006,112.355 285.52,114.62C275.822,104.307 262.277,98.452 248.121,98.452C219.956,98.452 196.781,121.628 196.781,149.792C196.781,153.699 197.227,157.594 198.11,161.4C156.89,159.334 118.432,139.837 92.4,107.81C78.863,131.114 85.867,161.314 108.28,176.28C100.118,176.038 92.132,173.836 85,169.86L85,170.51C85.007,194.833 102.308,215.974 126.15,220.79C118.599,222.849 110.675,223.15 102.99,221.67C109.693,242.512 129.021,256.879 150.91,257.29C132.751,271.561 110.306,279.313 87.21,279.29C83.129,279.282 79.052,279.035 75,278.55C98.454,293.601 125.752,301.587 153.62,301.55" style="fill:white;fill-rule:nonzero;"/>
                </g>
            </g>
        </g>
    </g>
</svg>
