<svg width="100%" height="100%" viewBox="0 0 100 100" version="1.1" xmlns="http://www.w3.org/2000/svg" xmlns:xlink="http://www.w3.org/1999/xlink" xml:space="preserve" xmlns:serif="http://www.serif.com/" style="fill-rule:evenodd;clip-rule:evenodd;stroke-linejoin:round;stroke-miterlimit:2;">
    <g transform="matrix(1,0,0,1,-115.28,-266.333)">
        <g id="ico_insta_ori" transform="matrix(0.625,0,0,0.625,115.28,266.333)">
            <rect x="0" y="0" width="160" height="160" style="fill:none;"/>
            <g transform="matrix(1.6,0,0,1.6,-779.2,-446.4)">
                <path d="M587,304C587,290.202 575.798,279 562,279L512,279C498.202,279 487,290.202 487,304L487,354C487,367.798 498.202,379 512,379L562,379C575.798,379 587,367.798 587,354L587,304Z" style="fill:url(#_Linear1);"/>
            </g>
            <g transform="matrix(1.152,0,0,1.152,22.4,22.4)">
                <path d="M50,-0C36.417,0 34.721,0.063 29.388,0.3C24.063,0.55 20.438,1.388 17.25,2.625C13.963,3.9 11.171,5.613 8.392,8.392C5.613,11.171 3.896,13.958 2.625,17.25C1.388,20.438 0.546,24.063 0.3,29.388C0.05,34.721 -0,36.417 -0,50C-0,63.583 0.063,65.279 0.3,70.612C0.55,75.933 1.388,79.563 2.625,82.75C3.9,86.033 5.613,88.829 8.392,91.608C11.171,94.383 13.958,96.104 17.25,97.375C20.442,98.608 24.067,99.454 29.388,99.7C34.721,99.95 36.417,100 50,100C63.583,100 65.279,99.937 70.612,99.7C75.933,99.45 79.563,98.608 82.75,97.375C86.033,96.1 88.829,94.383 91.608,91.608C94.383,88.829 96.104,86.046 97.375,82.75C98.608,79.562 99.454,75.933 99.7,70.612C99.95,65.279 100,63.583 100,50C100,36.417 99.937,34.721 99.7,29.388C99.45,24.067 98.608,20.433 97.375,17.25C96.1,13.963 94.383,11.171 91.608,8.392C88.829,5.613 86.046,3.896 82.75,2.625C79.562,1.388 75.933,0.546 70.612,0.3C65.279,0.05 63.583,-0 50,-0ZM50,8.875C63.346,8.875 64.938,9.067 70.208,9.296C75.083,9.525 77.729,10.333 79.488,11.025C81.829,11.929 83.487,13.013 85.246,14.758C86.992,16.508 88.075,18.171 88.979,20.513C89.662,22.271 90.479,24.917 90.7,29.792C90.937,35.067 90.992,36.65 90.992,50C90.992,63.35 90.929,64.938 90.683,70.208C90.429,75.083 89.617,77.729 88.929,79.488C87.996,81.829 86.933,83.487 85.183,85.246C83.437,86.992 81.75,88.075 79.433,88.979C77.683,89.662 74.996,90.479 70.121,90.7C64.812,90.937 63.25,90.992 49.875,90.992C36.496,90.992 34.933,90.929 29.629,90.683C24.75,90.429 22.062,89.617 20.312,88.929C17.942,87.996 16.312,86.933 14.567,85.183C12.812,83.437 11.692,81.75 10.817,79.433C10.129,77.683 9.321,74.996 9.067,70.121C8.879,64.871 8.812,63.25 8.812,49.937C8.812,36.621 8.879,34.996 9.067,29.683C9.321,24.808 10.129,22.125 10.817,20.375C11.692,18 12.812,16.375 14.567,14.621C16.312,12.875 17.942,11.75 20.312,10.879C22.062,10.187 24.692,9.375 29.567,9.125C34.879,8.937 36.442,8.875 49.812,8.875L50,8.875ZM50,24.325C35.812,24.325 24.325,35.825 24.325,50C24.325,64.187 35.825,75.675 50,75.675C64.187,75.675 75.675,64.175 75.675,50C75.675,35.812 64.175,24.325 50,24.325ZM50,66.667C40.792,66.667 33.333,59.208 33.333,50C33.333,40.792 40.792,33.333 50,33.333C59.208,33.333 66.667,40.792 66.667,50C66.667,59.208 59.208,66.667 50,66.667ZM82.692,23.312C82.692,26.625 80,29.312 76.692,29.312C73.379,29.312 70.692,26.621 70.692,23.312C70.692,20.004 73.383,17.317 76.692,17.317C79.996,17.312 82.692,20.004 82.692,23.312Z" style="fill:rgb(255,251,255);fill-rule:nonzero;"/>
            </g>
        </g>
    </g>
    <defs>
        <linearGradient id="_Linear1" x1="0" y1="0" x2="1" y2="0" gradientUnits="userSpaceOnUse" gradientTransform="matrix(-100,100,-100,-100,587,279)"><stop offset="0" style="stop-color:rgb(191,1,161);stop-opacity:1"/><stop offset="0.5" style="stop-color:rgb(245,0,0);stop-opacity:1"/><stop offset="1" style="stop-color:rgb(247,204,85);stop-opacity:1"/></linearGradient>
    </defs>
</svg>
