<svg width="100%" height="100%" viewBox="0 0 100 100" version="1.1" xmlns="http://www.w3.org/2000/svg" xmlns:xlink="http://www.w3.org/1999/xlink" xml:space="preserve" xmlns:serif="http://www.serif.com/" style="fill-rule:evenodd;clip-rule:evenodd;stroke-linecap:round;stroke-linejoin:round;stroke-miterlimit:1.5;">
    <g transform="matrix(1,0,0,1,-122.728,-146.977)">
        <g id="ico_new" transform="matrix(0.833333,0,0,0.833333,-160.606,146.977)">
            <rect x="340" y="0" width="120" height="120" style="fill:none;"/>
            <g transform="matrix(1.2,0,0,1.2,192.326,-169.478)">
                <path d="M195.824,149C195.824,149 192.25,162.862 188.868,167.092C185.509,171.295 175.536,174.383 175.536,174.383C175.536,174.383 185.487,177.756 188.868,181.692C192.25,185.628 195.824,198 195.824,198C195.824,198 199.005,185.838 202.201,181.692C205.397,177.546 215,173.126 215,173.126C215,173.126 205.33,171.198 202.201,167.261C199.005,163.24 195.824,149 195.824,149Z" style="fill:rgb(255,254,0);stroke:rgb(0,4,255);stroke-width:8px;"/>
            </g>
            <g transform="matrix(1.2,0,0,1.2,196.975,-173.753)">
                <path d="M152.228,172.219C152.228,172.219 147.699,191.334 143.161,197.096C138.64,202.838 125,206.795 125,206.795C125,206.795 138.623,211.384 143.161,216.752C147.699,222.119 152.228,239 152.228,239C152.228,239 156.901,222.405 161.323,216.752C165.744,211.099 178.758,205.083 178.758,205.083C178.758,205.083 165.621,202.42 161.323,197.096C156.901,191.619 152.228,172.219 152.228,172.219Z" style="fill:rgb(255,254,0);stroke:rgb(0,4,255);stroke-width:8px;"/>
            </g>
        </g>
    </g>
</svg>
