<svg width="100%" height="100%" viewBox="0 0 100 100" version="1.1" xmlns="http://www.w3.org/2000/svg" xmlns:xlink="http://www.w3.org/1999/xlink" xml:space="preserve" xmlns:serif="http://www.serif.com/" style="fill-rule:evenodd;clip-rule:evenodd;stroke-linejoin:round;stroke-miterlimit:2;">
    <g transform="matrix(1,0,0,1,-609,-279)">
        <g id="ico_nft_sea" transform="matrix(0.625,0,0,0.625,609,279)">
            <rect x="0" y="0" width="160" height="160" style="fill:none;"/>
            <g transform="matrix(1.6,0,0,1.6,-974.4,-446.4)">
                <path d="M709,304C709,290.202 697.798,279 684,279L634,279C620.202,279 609,290.202 609,304L609,354C609,367.798 620.202,379 634,379L684,379C697.798,379 709,367.798 709,354L709,304Z" style="fill:rgb(32,129,226);"/>
            </g>
            <g transform="matrix(0.135652,0,0,0.135652,17.6,126.626)">
                <path d="M72.5,0C112.514,0 145,31.366 145,70C145,108.634 112.514,140 72.5,140C32.486,140 0,108.634 0,70C0,31.366 32.486,0 72.5,0ZM72,30C92.973,30 110,47.923 110,70C110,92.077 92.973,110 72,110C51.027,110 34,92.077 34,70C34,47.923 51.027,30 72,30Z" style="fill:white;"/>
                <path d="M163,30L165,170L199,170L199,124C199,124 208.776,139.958 233,140C271.78,140.067 283.164,104.074 283,85.729C282.667,48.396 258.333,28.982 237,29C206.744,29.026 199,45 199,45L199,30L163,30ZM223,57C236.798,57 248,69.546 248,85C248,100.454 236.798,113 223,113C209.202,113 198,100.454 198,85C198,69.546 209.202,57 223,57Z" style="fill:white;"/>
                <path d="M404.26,103C397.665,123.796 379.297,140 350.5,140C315.765,140 294,117.631 294,84C294,52.369 314.765,29 350.5,29C386.235,29 407,51.369 407,85C407,87.353 406.866,89.692 406.601,92L328,92C328,92 327.556,112.85 349,113.5C362.791,113.918 367,103 367,103L404.26,103ZM328,74L371,74C371,74 371.167,55 350,55C328.833,55 328,74 328,74Z" style="fill:white;"/>
                <path d="M624,41L661.5,41C661.5,41 660.785,1.056 610,1C574.217,0.96 556.037,19.451 556,40C555.952,66.583 578.167,75 600,82C610.3,85.302 626.333,87.667 627,100C627.302,105.58 621.758,114.122 610,114C594.247,113.837 592.5,98 592.5,98L556.5,98C556.5,98 555.249,139.865 610,140C653.753,140.108 663.08,112.668 663,100C662.819,71.212 642.646,63.728 615,56.5C601.292,52.916 593.371,48.173 593,39C592.687,31.269 600.824,26.899 606,27C623.167,27.333 624,41 624,41Z" style="fill:white;"/>
                <path d="M425,30L424.5,139L459,139L459,73C459,73 464.833,56.5 480,56.5C497.167,56.5 502,73 502,73L502,139L536,139L536,73C536,73 537.709,29.696 494,30C468.234,30.179 459,44 459,44L459,30L425,30Z" style="fill:white;"/>
                <g transform="matrix(1,0,0,1,383.5,1.42109e-14)">
                    <path d="M404.26,103C397.665,123.796 379.297,140 350.5,140C315.765,140 294,117.631 294,84C294,52.369 314.765,29 350.5,29C386.235,29 407,51.369 407,85C407,87.353 406.866,89.692 406.601,92L328,92C328,92 327.556,112.85 349,113.5C362.791,113.918 367,103 367,103L404.26,103ZM328,74L371,74C371,74 371.167,55 350,55C328.833,55 328,74 328,74Z" style="fill:white;"/>
                </g>
                <path d="M886,123C877.201,134.53 864.329,140 850,140C821.508,140 802,117.132 802,84.5C802,51.869 821.508,29 850,29C864.329,29 877.201,34.47 886,46L886,30L920,30L920,139L886,139L886,123ZM886,85C886,99.902 874.798,112 861,112C847.202,112 836,99.902 836,85C836,70.098 847.202,58 861,58C874.798,58 886,70.098 886,85Z" style="fill:white;"/>
            </g>
            <g transform="matrix(1.75484,0,0,1.75484,-1079.95,-499.768)">
                <path d="M658,304.967L658,301L658,300.981C658.01,299.334 659.351,298 661,298C662.656,298 664,299.344 664,301L664,307.271C670.225,310.225 676.021,315.098 676,323C675.978,331.176 669,337 669,337L664,337L664,343L671,343C671,343 671.352,340.916 675,339C679.558,336.607 683.117,335.297 692,334L692,338C692,338 689.374,337.626 687,341C684.694,344.277 681.469,351.159 675,355L645,355C635.157,352.008 630.004,346.103 630,337L646,337C646.372,340.993 646.72,341.978 649,343L658,343L658,337L649,337C649,337 655.971,332.61 656,323C656.035,311.39 649,303 649,303C649,303 653.042,303.441 658,304.967ZM647,309L633,331L647,331C647,331 650.83,329.685 651,323C651.196,315.316 647,309 647,309Z" style="fill:white;"/>
            </g>
        </g>
    </g>
</svg>
