<svg width="100%" height="100%" viewBox="0 0 100 71" version="1.1" xmlns="http://www.w3.org/2000/svg" xmlns:xlink="http://www.w3.org/1999/xlink" xml:space="preserve" xmlns:serif="http://www.serif.com/" style="fill-rule:evenodd;clip-rule:evenodd;stroke-linejoin:round;stroke-miterlimit:2;">
    <g transform="matrix(1,0,0,1,-400.28,-301.667)">
        <g id="icoo_youtube" transform="matrix(0.862069,0,0,0.862069,386.486,-54.3678)">
            <rect x="16" y="413" width="116" height="81.973" style="fill:none;"/>
            <clipPath id="_clip1">
                <rect x="16" y="413" width="116" height="81.973"/>
            </clipPath>
            <g clip-path="url(#_clip1)">
                <g id="ico_youtube.svg" transform="matrix(0.773333,0,0,0.773333,74,453.987)">
                    <g transform="matrix(1,0,0,1,-75,-53)">
                        <clipPath id="_clip2">
                            <rect x="0" y="0" width="150" height="106"/>
                        </clipPath>
                        <g clip-path="url(#_clip2)">
                            <path d="M146.865,16.613C145.14,10.074 140.057,4.924 133.604,3.176C121.907,0 75,0 75,0C75,0 28.093,0 16.395,3.176C9.942,4.924 4.859,10.074 3.134,16.613C0,28.465 0,53.193 0,53.193C0,53.193 0,77.922 3.134,89.774C4.859,96.313 9.942,101.463 16.395,103.211C28.093,106.386 75,106.386 75,106.386C75,106.386 121.907,106.386 133.604,103.211C140.057,101.463 145.14,96.313 146.865,89.774C150,77.922 150,53.193 150,53.193C150,53.193 150,28.465 146.865,16.613ZM59.659,75.645L59.659,30.742L98.864,53.194L59.659,75.645Z" style="fill:rgb(0,4,255);fill-rule:nonzero;"/>
                        </g>
                    </g>
                </g>
            </g>
        </g>
    </g>
</svg>
