<svg width="100%" height="100%" viewBox="0 0 100 100" version="1.1" xmlns="http://www.w3.org/2000/svg" xmlns:xlink="http://www.w3.org/1999/xlink" xml:space="preserve" xmlns:serif="http://www.serif.com/" style="fill-rule:evenodd;clip-rule:evenodd;stroke-linejoin:round;stroke-miterlimit:2;">
    <g transform="matrix(1,0,0,1,-265,-5.68434e-14)">
        <g id="ico_music" transform="matrix(0.833333,0,0,0.833333,-18.3333,5.68434e-14)">
            <rect x="340" y="0" width="120" height="120" style="fill:none;"/>
            <g transform="matrix(1.99495,0,0,1.9902,306.583,-380.619)">
                <path d="M44.211,204.638L69.899,214.181L63.761,237.621L54.347,232.227C53.724,231.931 53.011,231.933 52.39,232.232C51.768,232.531 51.298,233.099 51.099,233.79L48.523,243.292C48.321,243.995 48.418,244.755 48.788,245.376C49.159,245.996 49.767,246.414 50.452,246.52L60.783,248.501C61.981,248.687 63.119,247.891 63.428,246.65L73.329,206.862C73.643,205.6 72.996,204.293 71.838,203.85L47.186,194.411C46.543,194.165 45.83,194.224 45.23,194.574C44.631,194.924 44.203,195.53 44.055,196.238L37.527,228.349L28.363,221.589C27.726,221.131 26.918,221.028 26.196,221.313C25.474,221.599 24.927,222.237 24.729,223.026L22.367,234.209C22.04,235.51 22.737,236.853 23.949,237.259L33.836,240.37C34.473,240.583 35.164,240.503 35.742,240.149C36.321,239.796 36.732,239.201 36.875,238.51L44.211,204.638Z" style="fill:rgb(211,184,254);"/>
            </g>
            <g transform="matrix(1.2,0,0,1.2,-221.6,-174)">
                <path d="M515.522,174.431L551.775,188.375L544.897,216.013L528.659,208.295C527.511,207.749 526.198,207.753 525.052,208.304C523.907,208.855 523.04,209.901 522.673,211.176L515.71,235.352C515.337,236.646 515.515,238.048 516.199,239.191C516.882,240.334 518.001,241.104 519.265,241.301L542.735,244.95C544.942,245.294 547.041,243.826 547.61,241.54L565.854,168.22C566.433,165.895 565.241,163.487 563.106,162.67L517.68,145.276C516.494,144.822 515.18,144.932 514.076,145.576C512.971,146.221 512.182,147.339 511.911,148.644L500.99,201.149L485.211,189.803C484.036,188.958 482.548,188.769 481.217,189.295C479.887,189.821 478.88,190.997 478.514,192.451L471.945,218.613C471.343,221.011 472.626,223.486 474.859,224.234L498.621,232.19C499.794,232.582 501.069,232.435 502.134,231.783C503.2,231.131 503.957,230.034 504.222,228.762L515.522,174.431ZM542.633,225.113L529.606,218.922C529.606,218.922 525.581,232.898 525.581,232.898C525.581,232.898 540.132,235.161 540.132,235.161L542.633,225.113ZM498.959,210.911L485.398,201.159C485.398,201.159 481.491,216.716 481.491,216.716C481.491,216.716 496.693,221.806 496.693,221.806L498.959,210.911ZM517.586,164.51L554.208,178.596L556.357,169.959C556.357,169.959 519.396,155.807 519.396,155.807L517.586,164.51Z" style="fill:rgb(0,4,255);"/>
            </g>
        </g>
    </g>
</svg>
