<svg width="100%" height="100%" viewBox="0 0 100 100" version="1.1" xmlns="http://www.w3.org/2000/svg" xmlns:xlink="http://www.w3.org/1999/xlink" xml:space="preserve" xmlns:serif="http://www.serif.com/" style="fill-rule:evenodd;clip-rule:evenodd;stroke-linejoin:round;stroke-miterlimit:2;">
    <g transform="matrix(1,0,0,1,-132.639,-5.68434e-14)">
        <g id="ico_nft" transform="matrix(0.625,0,0,0.625,132.639,5.68434e-14)">
            <rect x="0" y="0" width="160" height="160" style="fill:none;"/>
            <g id="レイヤー1" transform="matrix(1.6,0,0,1.6,-929.6,-292.8)">
                <g transform="matrix(1,0,0,1,-2,-23)">
                    <path d="M649.12,295.51L649.12,299.255L621.098,299.255L621.098,295.51L614.092,295.51L614.092,291.765L610.59,291.765L610.59,288.02L607.087,288.02L607.087,272.295L613.092,272.295L613.092,256L617.595,256L617.595,241.079L614.092,236.079L614.092,228.099L617.595,228.099L617.595,220.609L621.098,220.609L621.098,216.864L624.601,216.864L624.601,213.119L628.103,213.119L628.103,209.864L644.617,209.864L644.617,220.609L656.125,220.609L656.125,228.099L659.628,228.099L659.628,259L669.633,259L669.136,274.04L659.628,273.53L659.623,295.51L649.12,295.51ZM659.628,261.804L659.628,269.295L663.131,269.295L663.131,261.804L659.628,261.804Z" style="fill:rgb(255,191,0);"/>
                </g>
                <g transform="matrix(1.9175,0,0,2.00249,534.977,-40.4347)">
                    <path d="M43.298,118.621L45.855,118.621L45.855,116.065L48.412,116.065L48.412,113.508L54.569,113.508L54.569,118.621L56.082,118.621L56.082,120.679L61.196,120.679L61.196,122.736L63.753,122.736L63.753,126.352L65.788,126.352L65.788,132.464L41.784,132.344L41.784,120.179L43.298,120.179L43.298,118.621Z" style="fill:rgb(68,236,255);"/>
                </g>
                <g transform="matrix(1.36995,0,0,1.46472,563.284,27.6068)">
                    <rect x="43.298" y="128.849" width="2.557" height="10.227" style="fill:white;"/>
                </g>
                <g transform="matrix(1,0,0,1,-2,-23)">
                    <path d="M651,298L651,302L639,302L639,306L655,306L655,298L651,298Z" style="fill:rgb(208,121,255);"/>
                </g>
                <g transform="matrix(1,0,0,1,-2,-23)">
                    <rect x="663" y="290" width="4" height="8" style="fill:rgb(68,236,255);"/>
                </g>
                <g transform="matrix(1,0,0,1,-2,-23)">
                    <rect x="623" y="238" width="4" height="16" style="fill:white;"/>
                </g>
                <g transform="matrix(1,0,0,1,2,38)">
                    <path d="M623,233L635,233L635,213L639,213L639,201L623,201L623,233Z" style="fill:rgb(255,31,0);"/>
                </g>
                <g transform="matrix(1,0,0,1,2,38)">
                    <path d="M647,237L647,241L635,241L635,245L627,245L627,241L615,241L615,237L607,237L607,233L603,233L603,229L599,229L599,209L607,209L607,193L611,193L611,181L607,181L607,165L611,165L611,157L615,157L615,153L619,153L619,149L623,149L623,145L647,145L647,153L643,153L643,157L655,157L655,165L659,165L659,173L663,173L663,189L659,189L659,193L667,193L667,197L671,197L671,213L667,213L667,217L659,217L659,221L675,221L675,229L671,229L671,237L663,237L663,229L659,229L659,237L663,237L663,241L659,241L659,245L651,245L651,237L647,237ZM647,229L643,229L643,233L615,233L615,229L611,229L611,225L607,225L607,213L611,213L611,209L615,209L615,193L619,193L619,197L631,197L631,189L635,189L635,197L647,197L647,193L651,193L651,225L647,225L647,229ZM659,201L659,209L663,209L663,201L659,201ZM591,205L591,209L583,209L583,201L587,201L587,197L591,197L591,193L599,193L599,201L595,201L595,205L591,205ZM619,161L623,161L623,157L627,157L627,153L635,153L635,161L639,161L639,165L647,165L647,169L651,169L651,177L655,177L655,185L651,185L651,181L647,181L647,173L635,173L635,181L631,181L631,173L619,173L619,177L623,177L623,193L619,193L619,177L615,177L615,165L619,165L619,161ZM583,173L583,181L599,181L599,173L583,173ZM591,149L591,145L583,145L583,153L587,153L587,157L591,157L591,161L599,161L599,153L595,153L595,149L591,149Z" style="fill:rgb(0,4,255);"/>
                </g>
            </g>
        </g>
    </g>
</svg>
