<svg width="100%" height="100%" viewBox="0 0 100 100" version="1.1" xmlns="http://www.w3.org/2000/svg" xmlns:xlink="http://www.w3.org/1999/xlink" xml:space="preserve" xmlns:serif="http://www.serif.com/" style="fill-rule:evenodd;clip-rule:evenodd;stroke-linejoin:round;stroke-miterlimit:2;">
    <g transform="matrix(1,0,0,1,-392,-1.56319e-13)">
        <g id="ico_bio" transform="matrix(0.625,0,0,0.625,392,1.56319e-13)">
            <rect x="0" y="0" width="160" height="160" style="fill:none;"/>
            <g transform="matrix(2.5971,0,0,2.53225,-49.543,-693.085)">
                <path d="M73.408,290.286C73.408,282.927 67.657,276.953 60.574,276.953L39.621,276.953C32.537,276.953 26.787,282.927 26.787,290.286L26.787,319.673C26.787,327.032 32.537,333.006 39.621,333.006C39.621,333.006 60.574,333.006 60.574,333.006C67.657,333.006 73.408,327.032 73.408,319.673C73.408,319.673 73.408,290.286 73.408,290.286Z" style="fill:rgb(255,180,0);"/>
            </g>
            <g transform="matrix(3.62703,0,0,3.70216,-101.354,-1044.72)">
                <path d="M51.399,289.635L50.801,294.621L56.99,296.716C56.99,296.716 58.406,303.111 58.406,303.111C58.406,303.111 52.198,306.296 52.198,306.296C52.198,306.296 46.384,305.848 46.384,305.848C46.384,305.848 41.595,302.675 41.595,302.675C41.595,302.675 42.99,292.584 42.99,292.584L51.399,289.635Z" style="fill:rgb(136,60,255);"/>
            </g>
            <g transform="matrix(1.50686,0,0,1.50686,-777.401,-397.677)">
                <path d="M613.5,290.004C613.5,276.482 602.522,265.504 589,265.504L549,265.504C535.478,265.504 524.5,276.482 524.5,290.004L524.5,344C524.5,357.522 535.478,368.5 549,368.5C549,368.5 589,368.5 589,368.5C602.522,368.5 613.5,357.522 613.5,344C613.5,344 613.5,290.004 613.5,290.004ZM604.5,290.004L604.5,344C604.5,352.555 597.555,359.5 589,359.5L549,359.5C540.445,359.5 533.5,352.555 533.5,344C533.5,344 533.5,290.004 533.5,290.004C533.5,281.449 540.445,274.504 549,274.504C549,274.504 589,274.504 589,274.504C597.555,274.504 604.5,281.449 604.5,290.004ZM543,353.5L593,353.5C595.484,353.5 597.5,351.484 597.5,349C597.5,346.516 595.484,344.5 593,344.5L543,344.5C540.516,344.5 538.5,346.516 538.5,349C538.5,351.484 540.516,353.5 543,353.5ZM543,340.5L593,340.5C595.484,340.5 597.5,338.484 597.5,336C597.5,333.516 595.484,331.5 593,331.5L543,331.5C540.516,331.5 538.5,333.516 538.5,336C538.5,338.484 540.516,340.5 543,340.5ZM577.276,283.059C577.676,281.408 577.112,279.674 575.819,278.573C574.526,277.473 572.724,277.194 571.158,277.852L549.597,286.916C548.14,287.529 547.111,288.86 546.887,290.425L543.448,314.36C543.197,316.109 543.993,317.844 545.482,318.794L558.027,326.796C558.655,327.196 559.372,327.435 560.114,327.49L573.57,328.488C574.371,328.547 575.174,328.391 575.895,328.035L592.09,320.037C593.984,319.102 594.973,316.975 594.467,314.924L590.271,297.922C589.885,296.355 588.688,295.115 587.136,294.672L575.283,291.293C575.283,291.293 577.276,283.059 577.276,283.059ZM566.432,289.601L565.519,293.377C564.95,295.724 566.336,298.101 568.658,298.763L582.159,302.612C582.159,302.612 584.862,313.569 584.862,313.569C584.862,313.569 573.011,319.422 573.011,319.422C573.011,319.422 561.911,318.598 561.911,318.598C561.911,318.598 552.769,312.767 552.769,312.767C552.769,312.767 555.433,294.226 555.433,294.226L566.432,289.601Z"/>
            </g>
            <g transform="matrix(1.50686,0,0,1.50686,-777.401,-397.677)">
                <path d="M613.5,290.004C613.5,276.482 602.522,265.504 589,265.504L549,265.504C535.478,265.504 524.5,276.482 524.5,290.004L524.5,344C524.5,357.522 535.478,368.5 549,368.5C549,368.5 589,368.5 589,368.5C602.522,368.5 613.5,357.522 613.5,344C613.5,344 613.5,290.004 613.5,290.004ZM604.5,290.004L604.5,344C604.5,352.555 597.555,359.5 589,359.5L549,359.5C540.445,359.5 533.5,352.555 533.5,344C533.5,344 533.5,290.004 533.5,290.004C533.5,281.449 540.445,274.504 549,274.504C549,274.504 589,274.504 589,274.504C597.555,274.504 604.5,281.449 604.5,290.004ZM543,353.5L593,353.5C595.484,353.5 597.5,351.484 597.5,349C597.5,346.516 595.484,344.5 593,344.5L543,344.5C540.516,344.5 538.5,346.516 538.5,349C538.5,351.484 540.516,353.5 543,353.5ZM543,340.5L593,340.5C595.484,340.5 597.5,338.484 597.5,336C597.5,333.516 595.484,331.5 593,331.5L543,331.5C540.516,331.5 538.5,333.516 538.5,336C538.5,338.484 540.516,340.5 543,340.5ZM577.276,283.059C577.676,281.408 577.112,279.674 575.819,278.573C574.526,277.473 572.724,277.194 571.158,277.852L549.597,286.916C548.14,287.529 547.111,288.86 546.887,290.425L543.448,314.36C543.197,316.109 543.993,317.844 545.482,318.794L558.027,326.796C558.655,327.196 559.372,327.435 560.114,327.49L573.57,328.488C574.371,328.547 575.174,328.391 575.895,328.035L592.09,320.037C593.984,319.102 594.973,316.975 594.467,314.924L590.271,297.922C589.885,296.355 588.688,295.115 587.136,294.672L575.283,291.293C575.283,291.293 577.276,283.059 577.276,283.059ZM566.432,289.601L565.519,293.377C564.95,295.724 566.336,298.101 568.658,298.763L582.159,302.612C582.159,302.612 584.862,313.569 584.862,313.569C584.862,313.569 573.011,319.422 573.011,319.422C573.011,319.422 561.911,318.598 561.911,318.598C561.911,318.598 552.769,312.767 552.769,312.767C552.769,312.767 555.433,294.226 555.433,294.226L566.432,289.601Z" style="fill:rgb(0,4,255);"/>
            </g>
        </g>
    </g>
</svg>
