<?xml version="1.0" encoding="UTF-8" standalone="no"?>
<!DOCTYPE svg PUBLIC "-//W3C//DTD SVG 1.1//EN" "http://www.w3.org/Graphics/SVG/1.1/DTD/svg11.dtd">
<svg width="100%" height="100%" viewBox="0 0 100 100" version="1.1" xmlns="http://www.w3.org/2000/svg" xmlns:xlink="http://www.w3.org/1999/xlink" xml:space="preserve" xmlns:serif="http://www.serif.com/" style="fill-rule:evenodd;clip-rule:evenodd;stroke-linecap:round;stroke-linejoin:round;stroke-miterlimit:1.5;">
    <g transform="matrix(1,0,0,1,-627.728,-146.977)">
        <g id="ico_daily" transform="matrix(0.625,0,0,0.625,627.728,146.977)">
            <rect x="0" y="0" width="160" height="160" style="fill:none;"/>
            <clipPath id="_clip1">
                <rect x="0" y="0" width="160" height="160"/>
            </clipPath>
            <g clip-path="url(#_clip1)">
                <g transform="matrix(1.63001,0,0,1.66297,-798.824,-259.577)">
                    <path d="M555.82,204.199L552.6,165.655C543.4,160.902 529.282,162.145 522.355,168.105C513.994,164.666 498.977,165.501 494,174.219L497.13,213.738C504.145,208.347 515.623,205.753 525.629,209.499C534.466,203.648 543.924,203.473 555.82,204.199Z" style="fill:white;stroke:rgb(0,4,255);stroke-width:7.77px;"/>
                </g>
                <g transform="matrix(1.6,0,0,1.6,-1000,-230.4)">
                    <path d="M657.931,157.309L661.223,198.585" style="fill:none;stroke:rgb(0,4,255);stroke-width:8px;"/>
                </g>
                <g transform="matrix(1.6,0,0,1.6,-1000,-229.172)">
                    <path d="M662.959,227.813L703.707,239.233L721,179.369L679.525,167.061L662.959,227.813Z" style="fill:rgb(255,0,145);stroke:rgb(0,4,255);stroke-width:8px;"/>
                </g>
                <g transform="matrix(2.10841,0.961178,-0.942127,2.15104,-872.018,-869.346)">
                    <circle cx="547.5" cy="191.5" r="2.5" style="fill:white;"/>
                    <path d="M547.541,186.274C544.624,186.274 542.238,188.624 542.238,191.541C542.238,194.412 544.587,196.726 547.459,196.726C550.376,196.726 552.762,194.376 552.762,191.459C552.762,188.588 550.413,186.274 547.541,186.274ZM547.5,189C548.88,189 550,190.12 550,191.5C550,192.88 548.88,194 547.5,194C546.12,194 545,192.88 545,191.5C545,190.12 546.12,189 547.5,189Z" style="fill:rgb(0,4,255);"/>
                </g>
            </g>
        </g>
    </g>
</svg>
