<svg width="100%" height="100%" viewBox="0 0 100 100" version="1.1" xmlns="http://www.w3.org/2000/svg" xmlns:xlink="http://www.w3.org/1999/xlink" xml:space="preserve" xmlns:serif="http://www.serif.com/" style="fill-rule:evenodd;clip-rule:evenodd;stroke-linejoin:round;stroke-miterlimit:1.5;">
    <g transform="matrix(1,0,0,1,-468,-145)">
        <g id="ico_music" transform="matrix(0.833333,0,0,0.833333,184.667,145)">
            <rect x="340" y="0" width="120" height="120" style="fill:none;"/>
            <g transform="matrix(1.16868,0,0,1.23805,-206.825,-180.723)">
                <path d="M501.772,200.396L485.57,189.399C484.364,188.581 482.836,188.397 481.47,188.907C480.104,189.417 479.069,190.557 478.694,191.966L471.949,217.324C471.33,219.648 472.648,222.047 474.941,222.772L499.34,230.483C500.544,230.864 501.854,230.721 502.947,230.089C504.041,229.457 504.819,228.394 505.091,227.161L520.672,156.448C520.671,156.448 558.623,170.165 558.623,170.165L546.856,214.803L530.183,207.323C529.004,206.794 527.655,206.797 526.479,207.332C525.303,207.866 524.414,208.88 524.037,210.115L516.886,233.549C516.504,234.803 516.687,236.161 517.388,237.269C518.09,238.377 519.24,239.124 520.537,239.314L544.636,242.852C546.903,243.184 549.057,241.761 549.641,239.546L554.192,222.283L554.194,222.277L554.198,222.258L568.375,168.48C568.969,166.226 567.745,163.892 565.553,163.1L518.91,146.242C517.692,145.801 516.343,145.907 515.209,146.532C514.074,147.157 513.264,148.241 512.985,149.505L501.772,200.396ZM544.531,223.624L531.155,217.624C531.155,217.624 527.022,231.17 527.022,231.17C527.022,231.17 541.964,233.363 541.964,233.363L544.531,223.624ZM499.687,209.859L485.762,200.407C485.762,200.407 481.751,215.485 481.751,215.485C481.751,215.485 497.36,220.419 497.36,220.419L499.687,209.859Z"/>
            </g>
            <g transform="matrix(1.15415,-0.0176354,-0.0176354,1.19322,-195.089,-163.803)">
                <path d="M513.477,168.287L559.075,185.826" style="fill:none;stroke:black;stroke-width:10.38px;"/>
            </g>
        </g>
    </g>
</svg>
