<svg width="100%" height="100%" viewBox="0 0 357 706" version="1.1" xmlns="http://www.w3.org/2000/svg" xmlns:xlink="http://www.w3.org/1999/xlink" xml:space="preserve" xmlns:serif="http://www.serif.com/" style="fill-rule:evenodd;clip-rule:evenodd;stroke-linecap:round;stroke-linejoin:round;stroke-miterlimit:1.5;">
    <g transform="matrix(1,0,0,1,0.143697,-498.604)">
        <g transform="matrix(0.644457,0,0,0.562339,152.598,70.1668)">
            <g transform="matrix(1.4427,0,0,1.58739,-1264.42,89.0839)">
                <path d="M1083.92,454.918C1083.92,454.918 824.026,361.803 756.38,560.974C729.738,639.417 695.532,726.531 760.206,856.691C804.676,946.19 672.625,976.934 741.651,1146.06C768.297,1211.34 953.923,1214.21 1009.32,1194.12C1064.71,1174.02 1110.57,1139.71 1074.01,1025.46C1045.25,935.598 1028.7,847.534 1065.46,692.617C1087.88,598.173 989.772,539.075 1083.92,454.918Z" style="fill:rgb(255,0,0);"/>
                <clipPath id="_clip1">
                    <path d="M1083.92,454.918C1083.92,454.918 824.026,361.803 756.38,560.974C729.738,639.417 695.532,726.531 760.206,856.691C804.676,946.19 672.625,976.934 741.651,1146.06C768.297,1211.34 953.923,1214.21 1009.32,1194.12C1064.71,1174.02 1110.57,1139.71 1074.01,1025.46C1045.25,935.598 1028.7,847.534 1065.46,692.617C1087.88,598.173 989.772,539.075 1083.92,454.918Z"/>
                </clipPath>
                <g clip-path="url(#_clip1)">
                    <g transform="matrix(0.693144,0,0,0.721959,779.395,-116.059)">
                        <path d="M90.987,793.007C90.987,793.007 54.452,762.826 46.708,929.471C38.964,1096.12 8.746,1147.16 56.389,1259.07C104.032,1370.97 141.947,1440.31 132.525,1505.49C123.103,1570.66 84.624,1650.47 112.681,1718.23C159.409,1831.08 132.525,1903.88 132.525,1903.88L-42.902,1825.56L-101.401,1501.63L-139.422,1080.71L-62.535,806.399L90.987,793.007Z" style="fill:rgb(133,127,255);"/>
                        <path d="M75.92,794.321C84.232,787.426 90.987,793.007 90.987,793.007L75.92,794.321C64.89,803.444 51.122,834.483 46.708,929.471C38.964,1096.12 8.746,1147.16 56.389,1259.07C104.032,1370.97 141.947,1440.31 132.525,1505.49C123.103,1570.66 84.624,1650.47 112.681,1718.23C159.409,1831.08 132.525,1903.88 132.525,1903.88L-42.902,1825.56L-101.401,1501.63L-139.422,1080.71L-62.535,806.399L75.92,794.321ZM46.485,813.619C39.269,835.451 32.739,871.036 30.059,928.697C22.143,1099.05 -7.649,1151.2 41.054,1265.6C64.73,1321.2 86.011,1366.23 100.181,1405.46C113.361,1441.95 120.385,1472.97 116.03,1503.1C111.357,1535.42 99.434,1571.36 92.203,1607.63C84.257,1647.49 81.992,1687.68 97.282,1724.61C127.824,1798.37 125.252,1853.78 120.934,1880.45C120.934,1880.45 -28.066,1813.93 -28.066,1813.93C-28.066,1813.93 -84.869,1499.39 -84.869,1499.39C-86.54,1480.89 -119.205,1119.26 -122.548,1082.26C-122.548,1082.26 -49.599,822 -49.599,822L46.485,813.619Z" style="fill:rgb(133,127,255);"/>
                    </g>
                    <g transform="matrix(-1,0,0,1,2804.38,47.0544)">
                        <path d="M1718.5,658.763C1718.5,658.763 1774.87,610.509 1838.18,627.967C1884.21,640.661 1918.19,673.016 1973.08,693.611C2026.73,713.738 2121.63,683.28 2121.63,683.28" style="fill:none;stroke:rgb(107,1,133);stroke-width:11.79px;"/>
                    </g>
                    <path d="M682.755,1006.53C682.755,1006.53 753.412,1031.45 844.403,974.854C884.636,949.83 899.293,911.108 976.936,906.384C1041.08,902.481 1065.46,925.432 1065.46,925.432" style="fill:none;stroke:rgb(107,1,133);stroke-width:11.79px;"/>
                </g>
            </g>
            <g transform="matrix(1.4427,0,0,1.58739,-1264.42,89.0839)">
                <path d="M1089.76,462.003C1092.19,459.823 1093.33,456.452 1092.72,453.165C1092.12,449.878 1089.87,447.179 1086.84,446.091C1086.84,446.091 1020.4,422.27 945.328,423.923C868.582,425.614 783.281,453.777 747.931,557.86C720.621,638.269 685.951,727.561 752.246,860.982C768.391,893.476 758.216,917.376 745.025,944.255C722.356,990.451 690.333,1044.18 733.402,1149.71C742.223,1171.32 766.283,1187.54 798.064,1197.93C867.081,1220.5 972.443,1217.38 1012.26,1202.93C1042.09,1192.11 1069.06,1177.02 1083.94,1149.7C1098.63,1122.73 1101.95,1083.24 1082.51,1022.51C1054.2,934.048 1037.98,847.356 1074.17,694.857C1083.59,655.152 1073.11,621.347 1063.04,589.466C1054.99,563.974 1046.99,539.9 1053.67,514.482C1058.08,497.751 1068.92,480.626 1089.76,462.003ZM1066.36,459.167C1048.79,477.646 1039.7,495.158 1035.76,512.08C1031,532.524 1033.76,552.305 1039.16,572.423C1048.74,608.115 1067.54,644.947 1056.76,690.377C1019.43,847.711 1036.3,937.148 1065.51,1028.41C1082.64,1081.94 1081.3,1116.72 1068.35,1140.49C1055.59,1163.91 1031.93,1176.02 1006.37,1185.3C974.001,1197.04 895.974,1200.46 833.129,1187.8C808.545,1182.85 786.293,1175.47 770.267,1164.88C760.754,1158.59 753.514,1151.26 749.899,1142.4C710.138,1044.98 740.059,995.401 760.987,952.753C776.862,920.402 787.598,891.508 768.166,852.4C705.112,725.502 738.855,640.565 764.83,564.087C797.126,468.999 875.594,444.135 945.707,442.59C996.695,441.467 1043.51,452.615 1066.36,459.167L1066.36,459.167Z" style="fill:rgb(107,1,133);"/>
            </g>
            <g transform="matrix(1.24214,0,0,1.58739,-1022.57,111.302)">
                <path d="M871.253,1009.02L1001.25,987.041L1008.69,1042.98L875.42,1059.6L871.253,1009.02Z" style="fill:rgb(192,192,192);stroke:rgb(107,1,133);stroke-width:19.66px;"/>
            </g>
            <g transform="matrix(-1.41591,-0.317171,-0.265711,1.55791,2994.52,801.053)">
                <path d="M1836.78,695.348L1833.61,736.544L1943.68,777.419L1952.93,721.118L1836.78,695.348Z" style="fill:rgb(192,192,192);stroke:rgb(107,1,133);stroke-width:18.29px;"/>
            </g>
            <g transform="matrix(-1.43529,-0.167408,-0.140246,1.57923,2970.67,490.443)">
                <path d="M1881.61,479.68L1872.29,542.688L1993.16,562.158L2009.58,509.05C2009.58,509.05 1970.04,494.775 1943.3,489.243C1904.23,481.162 1881.61,479.68 1881.61,479.68Z" style="fill:rgb(192,192,192);stroke:rgb(107,1,133);stroke-width:18.29px;"/>
            </g>
        </g>
    </g>
</svg>
