<svg width="100%" height="100%" viewBox="0 0 1000 1000" version="1.1" xmlns="http://www.w3.org/2000/svg" xmlns:xlink="http://www.w3.org/1999/xlink" xml:space="preserve" xmlns:serif="http://www.serif.com/" style="fill-rule:evenodd;clip-rule:evenodd;stroke-linecap:round;stroke-linejoin:round;stroke-miterlimit:1.5;">
    <circle id="hand_origin" cx="426.687" cy="488.5" r="0.5" style="fill:rgb(235,235,235);"/>
    <path d="M496.276,384.912L512.239,430.066L570.186,411.413C560.68,447.695 548.428,472.755 524.729,485.521C501.029,498.287 459.192,507.149 434.181,490L496.276,384.912Z" style="fill:rgb(196,123,255);stroke:black;stroke-width:18.67px;"/>
    <g id="hand_L">
        <path d="M434.181,487.702C434.181,487.702 539.699,482.767 627.16,461.977C688.194,447.47 717.778,425.421 717.778,425.421L740.789,461.977C740.789,461.977 690.643,483.74 621.677,497.304C511.97,518.881 434.181,511.534 434.181,511.534L434.181,487.702Z" style="fill:rgb(253,241,255);"/>
        <path d="M608.144,583.793L736.789,513.256L628.039,384.912L608.144,583.793ZM634.319,540.476L640.68,433.387C641.516,434.587 701.637,503.998 701.637,503.998L634.319,540.476Z" style="fill:rgb(255,132,123);"/>
        <path d="M437.359,487.47C437.359,487.47 521.208,485.555 609.738,465.96C679.142,450.598 719.172,425.421 719.172,425.421L740.789,461.977C740.789,461.977 689.712,483.256 609.738,500C509.83,520.917 434.181,506.993 434.181,506.993L437.359,487.47Z" style="fill:none;stroke:black;stroke-width:18.67px;"/>
        <path d="M717.778,427.275C717.778,427.275 741.205,404.066 743.032,386.52C744.859,368.975 725.647,348.29 725.647,348.29L754.728,321.872C765.658,334.956 776.752,350.423 780.698,367.069L831.137,322.926L849.456,346.298L813.133,376.867L853.908,354.425L870.478,380.341L828.019,402.686L873.569,394.644L878.729,425.031C878.729,425.031 811.565,442.32 790.281,448.987C768.997,455.655 737.565,461.977 737.565,461.977L717.778,427.275Z" style="fill:rgb(255,242,218);stroke:black;stroke-width:18.67px;"/>
        <path d="M780.698,367.069C781.303,376.091 781.655,382.552 780.512,389.723C779.369,396.894 776.731,404.775 771.357,416.635" style="fill:rgb(255,242,218);stroke:black;stroke-width:18.67px;"/>
    </g>
    <g id="hand_R">
        <path d="M288.158,282.292C288.158,282.292 307.627,359.63 342.97,401.396C371.053,434.582 425.21,491.996 430.155,492.28C435.101,492.563 416.259,515.532 416.259,515.532C416.259,515.532 347.983,464.011 324.859,425.532C293.257,372.946 270.123,345.577 250.402,305.68L288.158,282.292Z" style="fill:rgb(253,241,255);"/>
        <path id="about_back_pink" d="M317.351,432.57L333.99,265.627L234.401,363.494L317.351,432.57ZM297.892,391.279L264.639,360.116C264.639,360.116 314.027,303.89 314.027,303.89L297.892,391.279Z" style="fill:rgb(255,101,175);"/>
        <path d="M288.158,282.292C288.158,282.292 321.21,371.781 346.692,404.912C375.672,442.59 430.293,482.265 430.293,482.265L416.259,508.532C416.259,508.532 348.344,466.862 320.646,431.532C288.045,389.946 270.123,345.577 250.402,305.68L288.158,282.292Z" style="fill:none;stroke:black;stroke-width:18.67px;"/>
        <path d="M287.621,281.046C287.621,281.046 276.535,256.445 285.561,242.097C294.587,227.75 323.018,211.097 323.018,211.097L303.003,179.817L269.371,204.026L246.422,114.02L218.385,127.323L230.349,173.888L204.403,131.757L178.91,150.463L200.021,195.456L165.694,158.165L138.549,187.256C138.549,187.256 181.295,232.493 195.448,249.192C215.158,272.449 246.33,304.2 248.834,305.623C251.338,307.046 287.621,281.046 287.621,281.046Z" style="fill:rgb(255,242,218);stroke:black;stroke-width:18.67px;"/>
        <path d="M269.371,204.026C269.371,204.026 265.028,207.621 260.25,214.153C255.472,220.685 250.26,230.152 248.521,241.896" style="fill:rgb(255,242,218);stroke:black;stroke-width:18.67px;"/>
    </g>
    <g id="torso">
        <path d="M449.715,409.532C449.715,409.532 362.417,530.184 357.877,647.669C353.176,769.338 362.175,815 362.175,815L500,779C500,779 489.316,744.167 480.229,662.438C466.853,542.146 500,420.165 500,420.165L449.715,409.532Z" style="fill:rgb(253,241,255);"/>
        <path d="M405.181,1000C389.365,962.848 362.175,814.489 362.175,814.489L420.923,808.205L504.786,782.839C522.048,825.101 540.341,888.304 609.738,1000L405.181,1000Z" style="fill:rgb(136,234,250);stroke:black;stroke-width:23.53px;"/>
        <path d="M456.448,928C465.705,952.232 475.714,976.163 485.956,1000" style="fill:none;stroke:black;stroke-width:18.67px;"/>
        <path d="M405.27,857.404L377.885,889.92L405.27,857.404ZM460.13,840.779L535.568,857.404L460.13,840.779Z" style="fill:none;stroke:black;stroke-width:20px;"/>
        <path d="M551.005,708.13L500.975,736.675L500.613,683.438L459.601,703.065L446.895,639.368L429.088,658.332L450.216,730.09L483.946,705.638L486.579,769.649L561.094,738.753L551.005,708.13Z" style="fill:rgb(96,101,255);"/>
        <path d="M401.577,620.422L459.769,644.73L467.179,576.887L512.272,570.97L506.835,535.684L454.029,557.347C454.029,557.347 442.569,612.289 442.569,612.289C442.569,612.289 415.554,600.81 415.554,600.81L401.577,620.422Z" style="fill:rgb(130,255,123);"/>
        <path d="M364.516,685.317L317.842,689.292L384.219,766.471L316.888,781.342L333.64,808.205L413.827,773.483L364.516,706.315L405.256,693.34L319.037,605.593L310.522,639.15L364.516,685.317Z" style="fill:rgb(255,132,123);"/>
        <path d="M349.968,528.371L336.646,587.098L430.155,579.413L429.954,546.185L349.968,528.371Z" style="fill:rgb(255,222,0);"/>
        <path id="torso1" serif:id="torso" d="M505.272,782.839C505.272,782.839 494.543,735.337 485.956,681.094C460.346,519.311 500,409.532 500,409.532L449.715,409.532C449.715,409.532 365.258,488.651 356.583,665.669C351.775,763.798 362.175,815 362.175,815L422.013,808.205L505.272,782.839Z" style="fill:none;stroke:black;stroke-width:18.67px;"/>
        <path d="M435.146,492.28L439.019,557.735L477.751,549.461" style="fill:none;stroke:black;stroke-width:18.67px;"/>
        <path id="torso2" serif:id="torso" d="M373.885,553.525C373.885,553.525 391.252,556.283 403.406,557.735L416.259,500" style="fill:none;stroke:black;stroke-width:18.67px;"/>
        <path d="M394.985,806.048L403.27,857.404L459.209,843.428L450.158,794.381L394.985,806.048Z" style="fill:rgb(255,247,0);stroke:black;stroke-width:18.67px;"/>
    </g>
    <g id="head">
        <path d="M572.477,314.954L607.041,331.98L593.493,388.565L551.878,382.344L572.477,314.954Z" style="fill:rgb(255,242,218);stroke:black;stroke-width:18.67px;"/>
        <path d="M489.879,245.093C489.879,245.093 436.6,300.406 389.583,328.967C351.548,352.073 301.45,352.495 301.45,352.495C301.45,352.495 287.279,436.612 331.012,487.498C383.803,548.922 460.088,514.348 513.372,458.865C548.529,422.256 600.173,291.645 600.173,291.645C600.173,291.645 559.926,287.709 534.303,275.685C520.086,269.014 489.879,245.093 489.879,245.093Z" style="fill:rgb(255,242,218);stroke:black;stroke-width:18.67px;"/>
        <path d="M460.736,310.553C441.939,380.719 375.87,448.865 324.439,500L352.477,520.061C409.255,479.847 493.407,404.217 527.936,335.449L460.736,310.553Z" style="fill:rgb(229,112,118);stroke:black;stroke-width:18.67px;"/>
        <path d="M642.803,91.299C642.803,91.299 505.187,104.929 504.381,109.154C503.125,115.735 477.849,254.781 477.849,254.781L527.187,278.806L594.102,306.174L662.504,230.822L604.456,154.795L642.803,91.299Z" style="fill:rgb(189,189,189);"/>
        <path d="M596.755,103.208L523.942,198.736L552.869,236.513L523.942,278.898L621.201,319.462L697.819,220.382L630.803,154.668L596.755,103.208Z" style="fill:rgb(196,123,255);"/>
        <path d="M642.803,91.299C642.803,91.299 505.187,103.929 504.381,109.154C503.359,115.775 477.849,254.781 477.849,254.781L527.187,278.806L594.102,306.174L662.504,230.822L604.456,154.795L642.803,91.299Z" style="fill:none;stroke:black;stroke-width:18.67px;"/>
        <path d="M642.803,91.299L538.113,177.836L574.001,221.145L551.878,283.299" style="fill:none;stroke:black;stroke-width:18.67px;"/>
    </g>
	<style>
	#hand_L{
	transform-origin:calc(100% * 423/1000) calc(100% * 488/1000);
	animation: rotateL .6s;
	animation-direction: alternate;
	animation-timing-function: ease-in-out;
	animation-iteration-count: infinite;
	}
	#hand_R{
	transform-origin:calc(100% * 423/1000) calc(100% * 488/1000);
	animation: rotateR .6s;
	animation-direction: alternate;
	animation-timing-function: ease-in-out;
	animation-iteration-count: infinite;
	}
		
	@keyframes rotateL {
		0% { transform: rotate(-15deg); }
		100% { transform: rotate(60deg); } 
	}
	@keyframes rotateR {
		0% { transform: rotate(30deg); }
		100% { transform: rotate(-90deg); } 
		}
	</style>
</svg>
