<svg width="100%" height="100%" viewBox="0 0 1200 1200" version="1.1" xmlns="http://www.w3.org/2000/svg" xmlns:xlink="http://www.w3.org/1999/xlink" xml:space="preserve" xmlns:serif="http://www.serif.com/" style="fill-rule:evenodd;clip-rule:evenodd;stroke-linejoin:round;stroke-miterlimit:2;">
    <g id="T09" transform="matrix(0.60344,0,0,1.19727,-164.242,-1814.65)">
        <path d="M786.689,1389.2C823.119,1372.36 848.666,1345.26 848.41,1367.24C848.187,1386.38 761.868,1412.54 799.651,1421.07C837.433,1429.6 914.185,1442.43 856.861,1442.32C799.537,1442.22 843.91,1446.63 790.954,1459.58C750.531,1469.46 708.22,1501.34 700.459,1490.16C693.917,1480.75 737.251,1464.86 740.14,1448.64C741.087,1443.33 723.44,1443.25 710.646,1448.28C650.986,1471.75 592.178,1507.41 628.359,1502.66C664.539,1497.92 628.228,1536.95 658.448,1538.14C688.668,1539.34 685.067,1560.49 709.913,1534.67C720.786,1523.38 734.91,1531.02 743.61,1523.55C754.79,1513.94 751.399,1496.81 761.125,1498.83C778.748,1502.47 749.878,1552.67 792.703,1516.82C809.559,1502.7 816.031,1496.8 841.95,1490.18C870.508,1482.89 880.111,1491.71 891.56,1479.84C903.008,1467.98 926.948,1467.67 954.596,1457.36C979.337,1448.14 998.795,1454.57 1023.52,1446.08C1110.79,1416.14 1193.38,1404.05 1122.88,1428.77C1106.27,1434.6 1097.44,1442.84 1086.54,1446.15C1060.48,1454.06 1040.51,1448.84 1032.52,1458.35C1025.62,1466.56 1011.15,1475.23 995.549,1481.51C986.553,1485.14 960.226,1491.33 949.105,1496.47C933.492,1503.68 917.387,1505.2 900.058,1512.31C895.179,1514.32 872.609,1527.58 865.71,1528.92C855.034,1530.98 857.192,1518.36 849.89,1516.74C840.101,1514.56 822.227,1523.24 818.834,1528.36C811.94,1538.77 804.609,1529.18 789.089,1534.4C779.918,1537.48 790.558,1558.81 773.566,1564.82C761.244,1569.18 722.433,1565.24 702.054,1570.15C672.334,1577.31 685.39,1594.53 696.994,1601.56C744.547,1630.38 750.578,1641.74 782.298,1611.03C814.017,1580.32 823.503,1610.53 849.324,1582.17C853.186,1577.93 829.708,1568.94 832.323,1566.4C847.197,1551.93 872.171,1566.92 895.467,1558.2C915.271,1550.79 944.751,1534.01 950.088,1542.01C957.116,1552.55 934.347,1555.78 910.95,1565.53C892.918,1573.05 872.999,1587.86 875.415,1591.69C890.573,1615.71 907.717,1595.45 933.771,1588.64C946.836,1585.23 970.659,1585.17 968.99,1588.68C966.169,1594.61 922.584,1650.34 833.406,1653.79C822.543,1654.21 795.364,1649.08 791.21,1653.96C783.976,1662.47 804.113,1682.6 796.998,1680.59C791.383,1679 777.171,1671.38 768.466,1673.79C759.623,1676.23 756.281,1688.68 749.793,1684.58C737.258,1676.64 734.953,1645.05 717.141,1654.83C662.925,1684.61 632.183,1689.01 648.775,1701.25C665.367,1713.49 784.876,1678.19 683.834,1720.78C582.793,1763.37 599.649,1751.82 567.983,1780.49C536.317,1809.16 531.08,1812.08 522.736,1802.84C512.692,1791.73 535.409,1747.34 550.572,1730.45C564.511,1714.91 556.492,1692.97 521.48,1711.54C486.468,1730.11 522.029,1732.27 471.759,1744.01C421.489,1755.76 389.942,1765.05 425.517,1763.91C461.092,1762.77 520.488,1762.55 495.384,1784.7C470.28,1806.86 502.279,1813.29 452.377,1816.11C402.474,1818.93 414.712,1840.41 374.808,1836.28C334.904,1832.14 345.948,1859.98 325.577,1820.57C305.207,1781.16 327.947,1795.03 298.72,1782.48C269.493,1769.93 245.515,1823.17 249.741,1785.04C253.967,1746.91 307.588,1736.8 247.745,1737.77C187.902,1738.74 169.488,1757.8 151.776,1747.79C134.065,1737.78 121.112,1723.78 163.954,1710.82C206.795,1697.86 252.211,1718.22 262.406,1685.77C272.602,1653.31 263.606,1640.93 285.521,1633.47C307.436,1626.01 342.641,1622.29 327.291,1637.81C311.941,1653.34 300.855,1710.02 340.226,1683.86C379.598,1657.7 401.744,1663.92 394.917,1635.44C388.091,1606.95 377.251,1600.3 395.655,1577.28C414.058,1554.26 437.69,1584.47 431.453,1552.77C428.472,1537.61 401.697,1538.85 441.643,1525.01C481.589,1511.16 499.97,1520.34 497.333,1507.27C493.996,1490.74 489.477,1476.04 470.228,1479.16C435.342,1484.81 425.663,1498.35 396.864,1517.33C363.739,1539.15 349.18,1557.98 352.634,1523.98C356.088,1489.99 373.933,1491.38 393.9,1477.69C413.866,1464 443.808,1497.02 461.027,1467.02C474.913,1442.84 481.717,1403.61 520.443,1426.74C559.169,1449.86 555.276,1466.58 571.913,1451.5C588.55,1436.42 634.25,1459.75 618.402,1421.63C602.553,1383.51 587.986,1401.3 625.357,1382.36C662.729,1363.41 653.448,1408.26 676.827,1407.12C700.206,1405.98 703.06,1421.91 725.06,1406.26C747.061,1390.6 750.258,1406.05 786.689,1389.2ZM626.909,1788.38C656.292,1780.49 660.77,1798.36 674.893,1783.38C689.016,1768.39 708.604,1760.01 682.846,1760.67C657.087,1761.34 654.856,1756.88 638.093,1763.08C621.331,1769.27 620.031,1790.23 626.909,1788.38ZM635.31,1435.15C639.605,1426.22 640.127,1423.04 634.563,1422.72C628.999,1422.4 627.554,1422.4 627.353,1429.62C627.153,1436.84 631.016,1444.09 635.31,1435.15ZM959.513,1388.88C958.691,1370.89 941.62,1366.19 925.449,1371.81C909.278,1377.42 884.103,1370.84 904.101,1382.45C924.099,1394.06 913.294,1383.8 932.122,1394.83C950.95,1405.86 959.656,1392.01 959.513,1388.88ZM1493.79,1229.75C1400.49,1259.62 1450.34,1243.98 1384.4,1270.13C1318.46,1296.29 1140.9,1367.87 1212.36,1325.18C1283.81,1282.49 1420.57,1223.44 1289.92,1262.66C1159.27,1301.88 1058.49,1336.58 1104.95,1328.12C1151.41,1319.67 1181.26,1345.16 1137.03,1354.4C1092.8,1363.64 1087.07,1405.2 1036.09,1380.37C985.108,1355.55 948.964,1370.56 972.933,1344.39C996.902,1318.22 1021.23,1306.07 1067.4,1295.4C1113.57,1284.72 1154.91,1284.7 1150.44,1267.56C1145.97,1250.43 1170.77,1243.57 1193.2,1232.01C1215.63,1220.46 1248.67,1217.19 1271.76,1214.3C1294.85,1211.42 1306.13,1207.49 1347.59,1207.49C1389.05,1207.48 1376.09,1209.5 1436.6,1194.39C1497.11,1179.28 1587.09,1199.88 1493.79,1229.75ZM779.097,1336.6C789.391,1313.38 747.426,1337.02 754.534,1344.67C761.643,1352.31 759.483,1361.43 770.61,1355.8C781.736,1350.18 777.768,1339.6 779.097,1336.6ZM919.716,1276.51C909.448,1272.86 902.255,1271.75 901.319,1280.48C900.382,1289.2 894.191,1293.75 908.779,1291.84C923.367,1289.93 933.775,1291.46 929.414,1282.81C925.053,1274.16 924.592,1278.24 919.716,1276.51ZM803.165,1262.48C793.763,1261.98 780.489,1263.98 772.677,1266.67C764.865,1269.36 762.515,1272.74 774.961,1275C799.854,1279.52 821.97,1263.49 803.165,1262.48Z"/>
    </g>
    <g id="T01" transform="matrix(0.60344,0,0,1.19727,-199.957,-1774.21)">
        <path d="M697.293,1445.91L697.292,1445.91C698.468,1447.71 699.608,1447.95 693.834,1442.49C680.438,1429.82 705.032,1407.44 681.931,1419.36C658.83,1431.29 662.482,1436.8 628.266,1439.85C594.049,1442.9 605.118,1446.59 579.577,1449.22C554.035,1451.84 555.461,1468.1 548.646,1448.73C541.832,1429.36 529.158,1426.5 554.892,1424.82C580.626,1423.14 634.129,1428.58 594.506,1415.85C554.884,1403.11 563.886,1416.26 542.989,1401.7C522.092,1387.13 547.372,1382.17 507.181,1372.33C466.99,1362.48 435.481,1338.12 403.756,1334.95C372.032,1331.78 364.093,1317.2 328.334,1314.56C292.574,1311.91 288.547,1312.05 266.083,1304.5C243.62,1296.96 277.214,1294.87 214.566,1290.35C151.917,1285.84 105.68,1264.57 134.167,1281.08C162.653,1297.6 139.324,1269.19 182.366,1302.65C225.409,1336.11 205.327,1320.55 233.005,1338.65C260.683,1356.76 287.26,1369.3 261.397,1364.71C235.534,1360.11 237.872,1351.64 226.759,1362.56C215.647,1373.47 201.377,1382.87 202.365,1387.24C206.683,1406.36 334.97,1462.98 400.921,1480.53C466.872,1498.08 576.475,1548.61 600.746,1561.03C625.016,1573.46 684.951,1580.5 700.463,1596.75C715.975,1613 720.056,1618.29 732.563,1624.46C745.07,1630.64 758.317,1619.57 763.883,1634.02C769.45,1648.48 838.538,1659.85 794.325,1665.44C750.112,1671.04 713.998,1643.2 691.29,1637.14C668.581,1631.09 645.51,1637.4 627.38,1630.8C609.25,1624.19 585.639,1607.96 566.398,1607.97C547.158,1607.97 543.319,1624.28 524.735,1611.57C506.151,1598.87 471.968,1594.78 466.582,1612.25C461.196,1629.73 502.55,1644.87 504.439,1646.99C524.054,1669.03 554.141,1639.86 562.103,1677.24C570.064,1714.62 578.427,1717.07 560.345,1720.95C542.262,1724.83 528.638,1713.4 499.753,1707.19C470.868,1700.98 459.79,1697.05 428.428,1697.53C397.066,1698.01 398.985,1694.23 382.667,1690.41C366.349,1686.58 380.351,1694.56 379.739,1706.9C378.925,1723.33 411.335,1749.07 420.035,1756.07C428.734,1763.08 415.226,1760.87 430.279,1782.91C438.217,1794.53 453.578,1801.1 457.302,1810.2C460.64,1818.35 452.518,1829.34 456.133,1834.52C463.783,1845.49 465.704,1847.99 482.477,1855.21C499.25,1862.43 485.17,1860.06 521.603,1877.16C558.036,1894.27 596.797,1908.68 621.71,1921.95C646.623,1935.23 659.867,1920.06 675.666,1950.54C691.465,1981.03 701.641,1996.11 702.79,1989.38C703.938,1982.65 714.798,1967.38 718.889,1983.23C722.981,1999.09 755.28,2006.57 734.5,2008.02C713.719,2009.46 713.292,2004.59 722.108,2015.82C730.924,2027.06 726.815,2031.72 745.134,2043.92C763.453,2056.13 789.184,2063.88 788.357,2076.61C787.53,2089.34 766.665,2075.19 765.622,2097.59C765.107,2108.66 760.698,2116.05 759.486,2118.61C757.211,2117.05 753.932,2116.9 749.296,2121.43C741.14,2129.42 740.494,2137.73 749.033,2134.67C757.572,2131.6 764.76,2126.32 763.084,2123.15C762.465,2121.98 761.535,2120.35 760.197,2119.17C761.854,2118.12 765.751,2115.14 773.427,2109.98C799.266,2092.61 822.201,2072.43 841.143,2077.98C860.086,2083.53 866.901,2078.41 903.394,2088.03C939.888,2097.66 917.725,2080.55 947.496,2098.86C977.267,2117.18 969.879,2123.45 988.281,2117.11C1006.68,2110.77 996.237,2096.85 1013.46,2110.57C1030.67,2124.3 1016.62,2132.34 1041.46,2127.55C1066.29,2122.77 1068.46,2110.85 1070.34,2122.68C1072.22,2134.51 1063.2,2151.78 1082.24,2145.8C1101.28,2139.82 1106.56,2155.14 1100,2135.95C1093.44,2116.75 1077.05,2109.5 1102.54,2110.38C1128.03,2111.27 1142.13,2107.54 1135.52,2116.24C1128.9,2124.93 1104.44,2141.8 1123.9,2142.19C1143.37,2142.58 1138.05,2131.39 1156.1,2129.9C1174.16,2128.41 1158.25,2142.7 1183.72,2137.8C1209.18,2132.9 1193.03,2114.46 1210.55,2127.56C1228.07,2140.66 1247.24,2144.64 1236.89,2148.25C1226.55,2151.86 1232.05,2147.88 1217.09,2152.73C1201.33,2157.85 1190.04,2163.06 1207.44,2174.29C1224.84,2185.53 1240.5,2178.35 1267.02,2190.32C1283.92,2197.95 1309.97,2206.08 1310.44,2199.32C1310.7,2195.47 1281.26,2174.19 1290.85,2176.84C1317.25,2184.12 1336.59,2205.37 1377.01,2193.14C1401.91,2185.6 1403.84,2185.8 1438.87,2194.11C1473.89,2202.43 1447.66,2191.01 1478.87,2194.21C1492.07,2195.57 1500.1,2186.95 1511.55,2184.18C1525.83,2180.72 1542.24,2182.45 1543.66,2178.7C1550.56,2160.41 1536.87,2163.98 1533.02,2142.79C1530.85,2130.85 1508.46,2114.95 1522.78,2115.96C1551.62,2118.01 1573,2109.99 1586.3,2113.23C1600.84,2116.77 1644.26,2105.39 1571.57,2066.59C1541.17,2050.37 1504.21,2041.41 1494.35,2051.66C1487.39,2058.9 1506.12,2083.41 1496.69,2087.94C1492,2090.2 1482.86,2070.48 1469.7,2062.87C1457.25,2055.66 1436.5,2060.61 1438.77,2065.03C1455.99,2098.41 1434.7,2080.87 1421.4,2083.95C1418.6,2084.6 1403.33,2079.23 1394.49,2085.48C1388.62,2089.63 1387.92,2100.46 1381.82,2101.85C1374.86,2103.43 1367.17,2098.71 1365.05,2097.36C1363.3,2096.24 1358.12,2085.7 1363.83,2083.28C1370.3,2080.54 1388.07,2085.75 1391.5,2081.75C1396.75,2075.65 1383.33,2071.05 1381.23,2070.36C1371.87,2067.22 1354.42,2068.77 1343.95,2059.91C1319.54,2039.24 1312.53,2052.47 1311.34,2061.41C1307.47,2090.57 1336.15,2103.14 1299.34,2078.29C1262.53,2053.44 1274.36,2028.35 1250.75,2047.65C1227.14,2066.95 1230.43,2072.02 1206.16,2067.75C1181.89,2063.47 1212.24,2043.8 1167.04,2045.79C1121.84,2047.78 1068.82,2040.24 1102.35,2021.3C1135.87,2002.36 1149.94,2015.7 1164.31,1982.27C1178.68,1948.85 1200.15,1875.84 1168.99,1922.07C1137.83,1968.31 1125.67,2015.84 1129.28,1971.05C1132.88,1926.27 1158.62,1892.37 1126.16,1898.46C1093.7,1904.54 1150.74,1914.82 1084.88,1911.14C1019.03,1907.47 1047.83,1916.07 1012.78,1883.33C977.727,1850.59 995.088,1852.38 969.167,1841.57C945.525,1831.7 997.002,1846.98 971.315,1806.93C945.628,1766.88 939.348,1740.61 913.36,1727.6C887.372,1714.6 902.866,1706.89 888.285,1694.13C873.705,1681.38 841.761,1646.83 872.285,1660.28C902.809,1673.72 931.957,1702.17 927.9,1685.16C923.843,1668.15 916.208,1670.62 917.266,1649.25C918.324,1627.88 981.574,1646.16 930.537,1619.59C903.644,1605.59 891.356,1591.1 890.242,1570.41C889.783,1561.89 900.557,1545.86 868.095,1520.45C841.184,1499.39 826.487,1495.43 829.848,1476.64C833.209,1457.85 839.131,1450.61 827.898,1431.27C816.665,1411.94 807.376,1357.66 806.531,1399.46C805.686,1441.26 814.6,1444.1 805.943,1470.4C797.286,1496.7 807.665,1528.91 791.403,1512.84C775.142,1496.78 777.036,1481.34 755.985,1492.54C734.934,1503.75 727.354,1519.33 721.347,1490.4C715.341,1461.46 733.142,1442.91 708.275,1440.05C694.125,1438.42 695.74,1443.54 697.292,1445.91L697.293,1445.91ZM1151.91,2159.17C1168.83,2171.18 1200.66,2172.41 1190.25,2162.98C1179.85,2153.55 1173.2,2144.97 1165.96,2147.66C1158.72,2150.35 1134.98,2147.16 1151.91,2159.17ZM684.635,2159.25C698.33,2170.38 690.262,2164.27 706.491,2160.13C722.72,2155.99 743.523,2151.37 736.641,2142.47C729.759,2133.57 708.95,2132.13 702.003,2140.32C695.057,2148.51 670.939,2148.12 684.635,2159.25ZM1677.24,2029.32C1677.27,2051.1 1701.19,2050.98 1713.53,2037.73C1725.87,2024.47 1728.08,2013.38 1740.37,2017.52C1752.66,2021.66 1752.96,2040.8 1770.03,2030.79C1787.1,2020.78 1776.79,2009.15 1792.77,2009.81C1808.74,2010.48 1826.7,2034.33 1824.97,1997.52C1823.23,1960.71 1814.21,1957.86 1828.38,1950.1C1842.56,1942.34 1864.47,1935.81 1851.12,1929.12C1837.77,1922.43 1814.86,1922.22 1805.75,1931.07C1796.63,1939.93 1815.52,1941.46 1802.82,1947.56C1790.12,1953.66 1784.76,1928.12 1779.3,1950.39C1773.85,1972.66 1785.84,1965.37 1763.98,1974.69C1742.12,1984 1741.52,1977.41 1738.52,1991.81C1735.52,2006.21 1743.99,2001.6 1724.6,2003.05C1705.2,2004.49 1693.24,2008.14 1697.16,2014.64C1701.08,2021.15 1677.24,2025.58 1677.24,2029.32ZM1253.29,2022.09C1246.67,2022.1 1255.59,2021.53 1271.83,2030.38C1288.07,2039.23 1310.58,2045.87 1295.73,2036.63C1280.89,2027.38 1271.6,2024.3 1282.56,2026.28C1293.53,2028.27 1315.61,2035.01 1308.12,2028.82C1300.64,2022.63 1285.11,2012.17 1280.04,2012.03C1274.97,2011.88 1284.51,2019.89 1273.1,2017.6C1261.69,2015.31 1267.73,2019.65 1267.73,2019.65C1267.73,2019.65 1254.35,2022.08 1253.29,2022.09ZM1198.55,1975.35C1210.08,1981.72 1219.32,1982 1220.41,1976.23C1221.5,1970.46 1224.12,1957.21 1215.92,1956.42C1207.73,1955.63 1197.55,1955.08 1196.12,1960.91C1194.68,1966.73 1196.27,1974.08 1198.55,1975.35ZM1397.32,1650.44C1390.36,1661.25 1396.83,1654.9 1422.01,1674.83C1447.18,1694.77 1443.6,1708.27 1467.67,1721.96C1491.74,1735.66 1501.99,1726.32 1506.79,1743.92C1511.6,1761.52 1491.86,1759.09 1510.03,1776.48C1528.19,1793.87 1538.91,1794.86 1558.99,1816.22C1579.07,1837.58 1587.02,1849.55 1600.94,1861.69C1614.87,1873.83 1642.54,1896.06 1649.14,1883.26C1655.76,1870.45 1649.28,1846.49 1632.38,1831.22C1615.48,1815.95 1592.62,1792.62 1585.04,1787.83C1577.46,1783.04 1573.46,1796.55 1564.85,1783.24C1556.24,1769.93 1532.13,1736.38 1529.53,1722.94C1526.92,1709.5 1524.03,1705.24 1537.82,1704.4C1551.61,1703.57 1561.26,1696.54 1553.53,1689.18C1545.81,1681.82 1548.34,1661.77 1534.6,1671.81C1520.87,1681.86 1503.94,1685.55 1498.7,1682.45C1493.45,1679.35 1501.19,1671.57 1490.89,1670.06C1480.59,1668.54 1481.47,1676.21 1471.04,1670.07C1460.62,1663.94 1451.14,1657.72 1446.69,1654.73C1442.23,1651.74 1415.28,1640.46 1409.71,1642.63C1404.15,1644.81 1398.58,1648.49 1397.32,1650.44ZM1188.9,1877.58C1187.17,1887.29 1197.67,1888.43 1200.15,1882.62C1202.64,1876.81 1203.73,1863.74 1197.58,1868.12C1191.43,1872.49 1189.25,1875.58 1188.9,1877.58ZM1000.98,1820.2C1001.15,1838.79 1003.2,1843.95 1022.34,1852.01C1041.49,1860.07 1024.18,1858.6 1047.91,1854.55C1071.63,1850.5 1083.25,1861.49 1085.86,1849.28C1088.47,1837.07 1096.04,1846.29 1077.67,1827.81C1059.3,1809.34 1068.63,1793.35 1049.28,1801.76C1029.92,1810.17 1037.87,1810.29 1024.1,1808.3C1010.34,1806.3 1000.93,1814.85 1000.98,1820.2ZM1122.75,1776.79C1124.89,1791.46 1143.26,1803.16 1143.34,1790.45C1143.41,1777.73 1144.91,1762.88 1136.8,1765.27C1128.68,1767.67 1122.23,1773.27 1122.75,1776.79ZM1235.35,1773.77C1228.91,1788.17 1252.56,1803.3 1254.27,1791.13C1255.99,1778.97 1261.91,1770.54 1255,1769.62C1248.09,1768.71 1236.3,1771.64 1235.35,1773.77ZM271.908,1748.99C260.133,1765.69 284.546,1763.13 302.46,1770.22C320.374,1777.3 335.771,1791.66 334.939,1777.19C334.107,1762.72 331.733,1763.15 314.382,1753.52C297.03,1743.88 273.53,1746.69 271.908,1748.99ZM1167.27,1738.86C1172.64,1751.88 1174.78,1760.38 1183.83,1759.62C1192.88,1758.85 1198.67,1773.19 1194.56,1755.52C1190.46,1737.84 1194.23,1725.09 1184.32,1728.68C1174.41,1732.28 1166.7,1737.48 1167.27,1738.86ZM1204.62,1752.94C1210,1766.42 1222.46,1759.85 1221.78,1754.35C1221.11,1748.85 1213.14,1737.74 1210.27,1740.3C1207.4,1742.85 1203.59,1750.38 1204.62,1752.94ZM105.173,1664.15C93.726,1667.22 119.195,1683.07 133.934,1685.92C148.673,1688.77 182.266,1707.9 171.911,1694.01C161.556,1680.11 162.999,1667.74 143.887,1663.67C124.776,1659.6 106.712,1663.74 105.173,1664.15ZM340.802,1680.58C347.279,1687.97 358.306,1704.53 362.86,1694.89C367.414,1685.26 371.081,1680.5 362.08,1676.75C353.079,1672.99 334.325,1673.18 340.802,1680.58ZM1177.3,1565.35C1184.75,1564.31 1189.08,1578.73 1205.23,1591.19C1221.38,1603.66 1248.79,1618.22 1269.11,1628.68C1289.43,1639.14 1318.22,1663.77 1337.43,1664.94C1356.65,1666.12 1369.88,1670.07 1361.54,1661.13C1353.2,1652.2 1324.82,1621.25 1310,1606.92C1295.17,1592.59 1279.82,1588.35 1258.42,1579.39C1237.02,1570.43 1185.98,1555.88 1185.98,1555.88C1185.98,1555.88 1174.71,1565.71 1177.3,1565.35ZM219.106,1499.01C225.496,1519.67 224.735,1551.81 252.707,1543.26C280.678,1534.71 273.218,1560.92 297.357,1542.92C321.495,1524.93 338.428,1525.45 324.131,1512.92C300.174,1491.93 320.997,1464.31 291.251,1467.06C261.505,1469.82 247.249,1458.91 235.146,1473.11C223.043,1487.3 217.796,1494.78 219.106,1499.01ZM699.987,1289.5C693.474,1305.51 708.862,1301.66 724.671,1313.89C740.481,1326.12 748.995,1333.53 762.528,1348.63C776.061,1363.73 811.994,1384.82 812.777,1375.56C813.56,1366.29 800.804,1376.36 790.141,1356.53C779.478,1336.7 797.608,1336.35 774.14,1322.67C750.673,1309 733.76,1292.15 721.843,1290.37C709.925,1288.6 701.381,1286.07 699.987,1289.5ZM387.422,1260.9C388.413,1264.92 388.984,1268.17 391.562,1262.75C394.141,1257.33 388.502,1250.03 387.465,1252.02C386.428,1254 386.432,1256.87 387.422,1260.9ZM435.764,1233.58C439.713,1248.52 455.771,1260.44 455.117,1251.13C454.464,1241.83 453.68,1223.37 453.68,1223.37C453.68,1223.37 431.814,1218.63 435.764,1233.58Z" style="fill:rgb(0,205,243);"/>
    </g>
    <g id="T07" transform="matrix(0.60344,0,0,1.19727,272.824,-880.208)">
        <path d="M1638.52,1486.89C1638.94,1485.8 1642.95,1485.28 1620.77,1497.45C1582.4,1518.48 1596.42,1542.96 1566.12,1531.6C1535.82,1520.24 1527.7,1523.3 1499.52,1555.51C1471.35,1587.72 1500.09,1566.39 1453.41,1613.57C1406.74,1660.74 1382.9,1673.17 1371.45,1687C1360,1700.82 1375.2,1689.52 1350.95,1721.15C1326.71,1752.78 1353.44,1733.12 1316.8,1760.43C1280.16,1787.73 1301.22,1805.03 1255.33,1789.46C1209.44,1773.88 1237.65,1753.79 1183.6,1777.5C1129.56,1801.22 1136.77,1805.9 1106.76,1809.95C1076.75,1814 1093.09,1806.3 1048.7,1804.83C1004.31,1803.35 1023.12,1807.96 987.223,1804.83C951.327,1801.69 970.15,1772.73 942.824,1809.95C915.499,1847.16 951.907,1831.14 905.256,1846.23C858.604,1861.32 844.066,1882.51 845.487,1862.88C846.909,1843.26 841.305,1841.26 843.78,1813.36C846.255,1785.47 837.265,1795.41 823.288,1779.21C809.311,1763.01 825.49,1781.68 807.919,1745.06C790.348,1708.43 805.024,1697.24 768.643,1692.12C732.261,1687 754.949,1686.22 727.659,1678.46C700.368,1670.69 693.397,1666.4 705.459,1692.12C717.521,1717.84 704.873,1710.97 731.074,1736.52C757.275,1762.07 741.96,1779.15 765.227,1786.04C788.495,1792.93 798.284,1776.16 804.504,1801.41C810.723,1826.65 816.454,1815.74 797.673,1846.23C778.892,1876.72 827.459,1877.07 789.135,1886.79C750.811,1896.52 738.35,1949.32 720.828,1900.45C703.306,1851.59 715.988,1840.52 691.798,1846.23C667.608,1851.95 689.429,1834.27 657.645,1846.23C625.861,1858.19 612.69,1855.25 611.538,1846.23C610.386,1837.21 641.722,1842.87 618.369,1816.78C595.015,1790.68 602.3,1794.19 579.092,1782.62C555.885,1771.06 551.227,1794.39 544.939,1762.13C538.652,1729.88 558.949,1729.62 522.74,1739.93C486.53,1750.25 505.347,1748.4 476.633,1753.6C447.918,1758.78 452.88,1760.06 433.941,1777.5C415.003,1794.95 425.869,1781.3 404.911,1799.7C383.953,1818.11 381.684,1828.69 363.927,1811.65C346.17,1794.62 311.34,1809.44 350.266,1792.87C389.191,1776.3 408.029,1774.83 391.25,1757.01C374.471,1739.19 378.901,1727.95 355.389,1741.64C331.877,1755.33 314.174,1758.85 310.99,1779.21C307.805,1799.57 298.271,1807.97 316.113,1811.65C333.954,1815.34 335.646,1813.11 338.312,1830.44C340.979,1847.77 344.699,1817.53 350.266,1846.23C355.833,1874.93 333.297,1869.3 331.481,1883.38C329.666,1897.45 343.097,1908.2 326.358,1915.82C309.62,1923.44 325.059,1935.42 293.913,1907.28C262.767,1879.14 269.793,1894.49 240.975,1874.84C212.158,1855.19 191.104,1837.61 172.669,1825.32C154.233,1813.03 155.791,1804.76 169.254,1792.87C182.717,1780.98 206.796,1770.94 211.945,1755.3C217.094,1739.66 216.147,1721.71 240.975,1702.37C265.804,1683.02 277.254,1663.01 290.498,1671.63C303.741,1680.25 286.909,1698.85 304.159,1705.78C321.409,1712.72 328.77,1714.6 357.096,1700.66C385.423,1686.72 399.902,1692.08 410.034,1692.12C420.166,1692.16 430.051,1672.68 451.018,1671.63C471.984,1670.58 468.793,1684.23 483.463,1685.29C498.133,1686.35 510.477,1695.33 519.324,1683.58C528.171,1671.83 525.768,1656.39 509.078,1640.89C492.388,1625.39 460.798,1631.13 457.848,1620.4C454.899,1609.66 448.649,1598.52 473.217,1599.9C497.786,1601.29 498.769,1613.57 515.909,1620.4C533.049,1627.23 532.76,1636.68 550.062,1635.77C567.365,1634.85 596.555,1623.85 620.076,1616.98C643.597,1610.12 662.834,1627.06 678.137,1622.11C693.439,1617.15 716.574,1625.51 715.705,1613.57C714.836,1601.62 710.31,1590.69 707.167,1576C704.024,1561.31 694.733,1549.54 695.213,1540.14C695.694,1530.73 694.727,1525.4 683.26,1512.82C671.792,1500.23 676.899,1498.04 678.137,1488.91C679.375,1479.77 692.952,1457.29 700.336,1463.29C707.72,1469.3 700.752,1471.9 702.044,1483.78C703.336,1495.67 684.023,1500.82 705.459,1500.86C726.895,1500.9 719.731,1524.24 731.074,1499.15C742.417,1474.07 743.812,1465.56 763.52,1458.17C783.228,1450.78 777.806,1450.57 794.258,1449.63C810.71,1448.69 847.648,1452.08 854.026,1441.09C860.404,1430.1 866.167,1393.23 879.641,1376.2C893.114,1359.18 910.636,1331.99 925.748,1324.97C940.859,1317.95 969.824,1308.12 982.1,1304.48C994.377,1300.84 1023.04,1286.14 1033.33,1280.57C1043.62,1275.01 1046.54,1265.68 1064.07,1270.33C1081.59,1274.97 1080.37,1287.63 1103.34,1294.23C1126.32,1300.84 1127.9,1314.56 1144.33,1314.73C1160.75,1314.9 1176.31,1306.62 1171.65,1319.85C1167,1333.08 1141.37,1346.44 1149.45,1354C1157.53,1361.57 1149.2,1365.98 1169.94,1376.2C1190.68,1386.42 1186.66,1405.07 1202.39,1410.36C1218.12,1415.64 1233.08,1429 1243.37,1415.48C1253.66,1401.95 1258.69,1400 1236.54,1389.86C1214.39,1379.72 1183.2,1387.71 1202.39,1372.79C1221.58,1357.86 1186.13,1333.23 1217.76,1336.93C1249.38,1340.62 1258.74,1369.37 1258.74,1369.37C1258.74,1369.37 1263.81,1385.18 1282.65,1386.45C1301.49,1387.71 1306.68,1393.02 1325.34,1381.33C1344,1369.63 1355.72,1383.52 1379.99,1354C1404.25,1324.48 1392.86,1330.62 1414.14,1309.6C1435.42,1288.59 1432.74,1288.34 1450,1282.28C1467.26,1276.22 1477.16,1274.16 1484.15,1254.96C1491.14,1235.76 1494.77,1215.39 1484.15,1225.93C1473.53,1236.46 1455.46,1243.32 1465.37,1234.47C1475.28,1225.61 1477.56,1220.29 1492.69,1208.85C1507.83,1197.41 1514.26,1198.3 1521.72,1181.53C1529.18,1164.76 1540.85,1169.37 1537.09,1154.21C1533.33,1139.04 1521.07,1125.13 1506.35,1104.68C1491.64,1084.24 1479.19,1067.9 1485.86,1055.16C1492.53,1042.43 1485.04,1026.94 1501.23,1024.42C1517.42,1021.9 1545.64,1015.8 1555.88,1026.13C1566.11,1036.46 1574.89,1060.28 1583.2,1070.53C1591.51,1080.78 1590.84,1086.45 1600.27,1075.65C1609.71,1064.86 1616.5,1058.73 1629.3,1065.41C1642.11,1072.08 1644.04,1085.53 1641.26,1101.27C1638.47,1117.01 1634.23,1124.25 1649.8,1130.3C1665.36,1136.35 1679.37,1132.89 1687.36,1145.67C1695.36,1158.44 1684.36,1180.78 1702.73,1176.4C1721.11,1172.03 1733.45,1167.22 1738.59,1149.08C1743.74,1130.95 1723.59,1122.21 1743.72,1111.51C1763.84,1100.82 1764.58,1104.53 1767.62,1091.02C1770.67,1077.51 1766.63,1068.51 1781.29,1068.82C1795.94,1069.13 1795.16,1066.95 1798.36,1051.75C1801.57,1036.54 1804.35,1031.65 1806.9,1015.88C1809.45,1000.12 1806.27,997.532 1818.85,983.44C1831.44,969.347 1848.54,951.751 1839.35,950.994C1830.15,950.237 1827.9,955.609 1820.56,954.409C1813.23,953.21 1812.79,955.599 1813.73,935.625C1814.67,915.651 1810.16,928.611 1805.19,913.426C1800.23,898.241 1803.23,901.564 1803.49,886.103C1803.74,870.642 1809.69,855.43 1800.07,858.78C1790.45,862.131 1791.56,866.932 1788.12,874.149C1784.67,881.367 1771.74,890.151 1776.16,877.565C1780.59,864.978 1794.25,855.325 1786.41,855.365C1778.57,855.405 1777.97,850.925 1769.33,857.073C1760.69,863.221 1750.08,867.098 1759.09,858.78C1768.09,850.463 1775.95,838.627 1786.41,841.704C1796.86,844.78 1794.35,844.781 1801.78,833.165C1809.2,821.55 1807.42,819.043 1812.02,810.966C1816.63,802.888 1814.77,794.913 1823.98,799.012C1833.18,803.111 1821.95,822.477 1832.52,816.089C1843.08,809.7 1844.78,813.229 1839.35,797.305C1833.91,781.38 1823.45,789.788 1829.1,775.105C1834.75,760.422 1847.12,766.71 1837.64,756.321C1828.16,745.932 1805.45,754.585 1825.68,727.291C1845.92,699.996 1890.83,669.596 1909.36,658.984C1927.89,648.372 1940.61,648.796 1957.17,624.831C1973.74,600.866 1929.6,589.093 1991.33,590.678C2053.06,592.263 2052.16,582.519 2088.66,597.508C2125.16,612.497 2126.07,623.041 2148.43,641.907C2170.8,660.773 2221.62,735.382 2225.28,745.21C2245.79,800.368 2232.41,842.09 2172.34,875.857C2112.28,909.624 2125.3,941.147 2088.66,945.871C2052.03,950.595 2009.41,954.922 2030.6,974.901C2051.8,994.881 2069.8,1010.9 2064.76,1050.04C2059.72,1089.18 2089.27,1113.22 2056.22,1150.79C2023.17,1188.36 2054.69,1184.04 2015.24,1203.73C1975.78,1223.42 1966.65,1212.78 1943.51,1227.63C1920.37,1242.49 1968.04,1264.37 1902.53,1263.5C1837.02,1262.62 1858.67,1255.01 1808.61,1251.54C1758.54,1248.07 1724.82,1269.83 1738.59,1297.65C1752.37,1325.47 1744.38,1312.29 1740.3,1342.05C1736.23,1371.81 1782.39,1355.36 1747.13,1381.33C1711.87,1407.29 1742.98,1403.68 1706.15,1412.06C1669.32,1420.45 1683.77,1439.36 1649.8,1417.19C1615.82,1395.02 1563.11,1390.59 1595.15,1413.77C1627.19,1436.95 1608.33,1440.31 1648.09,1442.8C1687.84,1445.29 1690.65,1441.16 1682.24,1458.17C1673.83,1475.18 1690.68,1477.68 1654.92,1485.49C1639.84,1488.79 1638.22,1487.69 1638.52,1486.89ZM1803.49,710.214C1820.2,705.308 1802.3,729.102 1786.41,735.829C1770.52,742.556 1752.18,750.267 1762.5,734.121C1772.83,717.975 1763.38,719.071 1777.87,711.922C1792.36,704.772 1798.59,711.651 1803.49,710.214Z" style="fill:rgb(255,188,0);"/>
    </g>
    <g id="T03" transform="matrix(0.60344,-0.00314491,0,1.19727,-266.616,-1260.5)">
        <path d="M977.845,2000.34C971.536,2001.76 970.747,2012.51 968.382,2018.2C966.197,2023.46 962.7,2028.94 963.65,2034.48C965.227,2043.68 973.113,2063.38 977.845,2073.4C981.432,2081 990.463,2098.88 992.04,2094.64C993.618,2090.39 984.943,2062.08 987.309,2047.93C989.613,2034.14 1007.81,2017.64 1006.24,2009.71C1004.66,2001.78 984.154,1998.93 977.845,2000.34ZM762.881,1617.22C766.035,1618.64 768.991,1646.25 774.38,1625.72C780.624,1601.92 769.855,1591.98 774.38,1589.32C786.175,1582.39 784.834,1585.03 793.307,1593.57L793.447,1593.71C782.17,1614.35 786.23,1635.32 788.575,1644.53C792.421,1659.62 759.491,1664.09 768.278,1674.43C782.549,1691.23 787.381,1708.34 760.185,1703.97C736.613,1700.19 729.289,1741.47 745.99,1750.68C793.27,1776.78 780.506,1775.2 807.502,1771.91C834.498,1768.63 814.657,1728.22 840.624,1754.93C866.592,1781.64 882.373,1748.56 859.551,1788.9C836.73,1829.24 806.337,1803.89 831.161,1835.61C855.985,1867.33 898.447,1819.56 873.747,1878.07C849.046,1936.58 851.757,1946.9 847.115,1962.22C837.433,1994.16 815.916,2092.04 854.82,1992.72C893.723,1893.41 890.282,1855.15 916.332,1861.09C942.383,1867.02 949.351,1848.41 954.186,1835.61C959.048,1822.74 957.438,1802.44 949.455,1784.65C945.587,1776.04 946.348,1760.99 954.186,1759.18C966.464,1756.34 973.593,1746.94 977.845,1750.68C983.38,1755.55 982.209,1755.21 983.787,1757.34C985.2,1759.24 984.027,1762.15 987.309,1763.42C991.942,1765.22 991.019,1768.33 987.309,1776.99C985.56,1781.06 982.084,1792.8 982.084,1800.93C982.084,1811.41 976.68,1826.68 987.309,1839.86C997.005,1851.88 1012.83,1852.84 1024.43,1839.93C1037.01,1825.92 1056.25,1808.62 1056.12,1788.9C1055.86,1747.92 1057.83,1727.85 1067.75,1729.45C1079.93,1731.42 1078.02,1758.17 1067.89,1771.91C1046.27,1801.24 1067.9,1834.08 1098.69,1788.9C1129.49,1743.72 1116.61,1722.3 1141.17,1729.45C1165.74,1736.6 1171.12,1687.39 1174.56,1699.73C1178,1712.07 1206.7,1808.42 1208.73,1746.44C1210.76,1684.45 1213.91,1686 1190.77,1648.77C1167.63,1611.54 1142.74,1572.51 1141.17,1606.31C1139.61,1640.11 1152.69,1681.03 1132.19,1644.53C1111.7,1608.02 1133.03,1578.71 1111.63,1555.35C1090.24,1532 1060.72,1555.59 1058.29,1538.37C1055.85,1521.15 1126.28,1508.69 1058.29,1487.41C990.289,1466.14 958.201,1476.5 935.259,1453.44C912.317,1430.39 906.864,1427.37 906.869,1415.23C906.874,1403.08 903.054,1378.47 887.942,1402.49C872.829,1426.5 882.79,1437.41 883.21,1457.69C883.63,1477.96 842.663,1485.96 840.624,1453.44C838.586,1420.92 853.222,1409.26 831.161,1402.49C809.1,1395.72 791.51,1410.21 802.771,1385.5C814.031,1360.79 833.045,1297.52 812.234,1313.31C791.423,1329.11 765.988,1330.46 769.648,1364.27C773.309,1398.08 784.455,1376.5 783.844,1432.21C783.426,1470.23 767.591,1480.09 760.185,1474.67C743.575,1462.53 752.474,1425.53 741.258,1423.72C714.889,1419.46 690.84,1427.2 660.818,1461.93C630.797,1496.67 633.304,1492.05 627.696,1474.67C622.087,1457.3 603.45,1469.98 613.501,1436.46C623.552,1402.93 658.082,1337.06 622.964,1372.76C587.846,1408.46 604.801,1424.09 575.647,1444.95C546.492,1465.81 542.152,1465.29 514.134,1466.18C486.116,1467.07 472.117,1509.37 476.28,1461.93C477.437,1448.75 496.511,1450.38 496.019,1441.04C495.764,1436.2 478.525,1433.29 475.497,1422.67C472.767,1413.1 484.245,1395.67 483.595,1392.79C481.351,1382.81 468.931,1389.33 466.817,1385.5C463.074,1378.73 456.745,1369.55 450.511,1369.79C444.924,1370 439.415,1379.45 435.914,1377.43C421.288,1369 414.287,1357.9 391.109,1368.52C356.192,1384.51 357.744,1356.17 334.328,1402.49C310.912,1448.8 291.028,1453.69 272.815,1453.44C237.485,1452.96 230.053,1414.21 216.034,1432.21C202.015,1450.21 197.481,1437.67 211.302,1470.43C225.123,1503.18 225.973,1493.39 225.498,1521.38C225.022,1549.38 232.011,1547.42 201.839,1551.11C171.667,1554.8 145.549,1577.75 173.448,1576.59C201.348,1575.42 217.713,1539.15 216.034,1572.34C214.355,1605.53 243.831,1588.26 216.034,1614.8C188.237,1641.35 168.615,1651.34 192.375,1648.77C216.135,1646.21 220.19,1610.54 230.229,1648.77C240.268,1687.01 222.666,1681.36 244.424,1712.47C266.183,1743.57 239.361,1746.55 287.01,1746.44C334.659,1746.33 331.469,1746.88 353.255,1729.45C375.04,1712.02 383.902,1678.78 391.109,1712.47C398.315,1746.15 371.881,1763.95 405.304,1763.42C438.727,1762.9 417.811,1767.51 466.817,1750.68C515.822,1733.86 490.226,1746.77 514.134,1737.94C538.042,1729.12 511.513,1719.06 542.524,1716.71C573.536,1714.37 570.81,1716.92 561.451,1737.94C552.093,1758.97 536.831,1778.37 566.183,1767.67C595.536,1756.97 576.581,1751.67 608.769,1746.44C640.957,1741.21 625.645,1768.88 632.428,1733.7C639.211,1698.52 669.132,1669.74 660.818,1712.47C652.504,1755.2 667.092,1724.96 656.086,1754.93C652.88,1763.66 665.162,1766.69 664.345,1778.76C662.357,1808.12 652.661,1849.2 660.818,1852.6C679.85,1860.52 664.667,1837.65 675.013,1793.15C682.505,1760.93 684.081,1766.54 693.94,1729.45C700.523,1704.69 702.392,1694.25 703.242,1687.92C704.251,1680.42 703.83,1678.7 708.136,1665.76C714.768,1645.82 713.245,1674.9 722.914,1674.43C729.112,1674.13 736.021,1658.48 741.258,1653.02C756.038,1637.6 746.625,1628.24 755.453,1621.47C759.474,1618.38 760.193,1616.02 762.881,1617.22ZM632.428,1916.29C594.609,1923.72 639.391,1921.04 632.428,1950.64C625.464,1980.24 619.994,1977.98 632.428,1996.97C644.862,2015.97 648.239,2033.68 665.55,1996.97C682.861,1960.26 705.74,1960.83 684.477,1933.28C663.214,1905.73 643.34,1914.15 632.428,1916.29ZM1152.92,1929.79C1138.54,1915.66 1128.15,1936.46 1119.8,1948.87C1111.45,1961.28 1108.26,1967.91 1115.07,1971.49C1121.88,1975.08 1130.03,1976.94 1124.53,1985.93C1119.03,1994.92 1125.3,2011.07 1135.63,1985.93C1145.97,1960.79 1148.24,1962.94 1152.92,1948.87C1157.6,1934.8 1158.06,1934.85 1152.92,1929.79ZM1309.07,1919.64C1264.64,1921.67 1249.28,1921.19 1251.38,1948.87C1253.48,1976.55 1239.96,2022.22 1283.38,1985.93C1326.79,1949.64 1320.21,1919.13 1309.07,1919.64ZM925.796,1920.54C920.276,1922.66 913.178,1943.89 911.601,1954.51C910.127,1964.43 910.812,1986.35 916.332,1984.23C921.853,1982.11 943.146,1952.38 944.723,1941.77C946.058,1932.78 931.316,1918.41 925.796,1920.54ZM476.28,1861.09C443.535,1874.75 449.139,1881.43 452.621,1907.8C456.104,1934.16 458.412,1966.58 471.548,1941.77C484.685,1916.95 489.274,1945.01 504.671,1903.55C520.067,1862.1 489.941,1855.39 476.28,1861.09ZM1019.7,1848.42C1016.12,1852.16 1016.99,1859.64 1018.33,1863.16C1019.6,1866.51 1029,1860.4 1027.73,1869.58C1020.69,1920.62 1016.98,1896.18 1032.46,1920.54C1047.95,1944.9 1053.63,1962.65 1058.29,1937.52C1061.62,1919.48 1066.23,1908.37 1068.44,1891.1C1069.31,1884.32 1065.81,1872.99 1067.75,1865.33C1070.98,1852.59 1082.26,1854.7 1079.47,1849.21C1077.27,1844.87 1056.23,1841.09 1054.95,1839.32C1052.59,1836.07 1049.96,1834.07 1046.72,1833.44C1039.5,1832.04 1024.43,1843.47 1019.7,1848.42ZM1219.39,1878.07C1200.2,1873.15 1206.82,1887.58 1195.51,1891.37C1184.19,1895.17 1183.52,1890.56 1186.04,1899.31C1188.57,1908.06 1182.78,1913.97 1204.97,1919.64C1227.16,1925.31 1235.61,1939.34 1228.63,1919.64C1221.65,1899.94 1222.57,1898.38 1228.63,1891.37C1234.68,1884.37 1223.19,1879.05 1219.39,1878.07ZM1238.09,1852.6C1255.18,1868.24 1241.74,1858.37 1250.96,1873.83C1260.18,1889.28 1266,1899.76 1266.48,1882.32C1266.97,1864.88 1277.52,1869.11 1266.48,1856.84C1255.45,1844.58 1236.52,1851.16 1238.09,1852.6ZM1228.63,1788.9C1213.58,1833.46 1217.03,1845 1238.09,1827.12C1259.16,1809.24 1293.23,1818.08 1280.68,1797.39C1268.13,1776.7 1230.99,1781.9 1228.63,1788.9ZM192.375,1701.32C177.756,1687.92 188.407,1707.08 168.717,1728.43C149.026,1749.79 159.788,1741.63 145.058,1754.93C130.328,1768.23 129.147,1771.4 120.138,1780.41C111.129,1789.42 100.58,1813.18 120.138,1797.39C139.695,1781.6 152.161,1779.83 168.717,1754.93C185.272,1730.03 194.995,1703.72 192.375,1701.32ZM159.253,1674.25C136.884,1673.45 123.765,1691.24 111.936,1699.73C102.316,1706.63 85.122,1723.79 88.277,1725.21C91.431,1726.62 119.033,1716.71 130.863,1708.22C142.692,1699.73 166.307,1674.5 159.253,1674.25ZM1305.66,1661.51C1287.33,1656.78 1293.61,1694.23 1305.66,1686.99C1317.7,1679.75 1322.43,1673.9 1319.84,1665.76C1317.24,1657.61 1309.43,1662.49 1305.66,1661.51ZM769.648,1644.53C763.302,1645.83 762.247,1654.17 750.721,1660.94C738.983,1667.83 739.674,1687.28 750.721,1682.74C754.726,1681.1 755.819,1668.59 769.648,1657.27C776.307,1651.81 773.1,1643.82 769.648,1644.53ZM120.138,1627.54C117.296,1628.25 112.026,1638.86 109.082,1644.53C106.256,1649.96 99.631,1662.22 102.472,1661.51C105.314,1660.8 123.187,1645.94 126.131,1640.28C128.303,1636.1 122.979,1626.83 120.138,1627.54ZM1361.12,1585.08C1327.88,1573.54 1309.4,1603.6 1330.78,1610.56C1352.15,1617.51 1347.43,1619.19 1365.85,1614.8C1384.27,1610.41 1374.57,1608.61 1398.97,1610.56C1423.37,1612.5 1450.44,1604.86 1427.36,1597.82C1404.28,1590.78 1366.36,1586.9 1361.12,1585.08ZM1143.46,1521.38C1122.5,1522.67 1127.33,1543.94 1138.72,1546.86C1150.12,1549.78 1149.16,1556.62 1152.92,1542.61C1156.67,1528.61 1146.29,1521.21 1143.46,1521.38ZM182.912,1436.46C148.204,1422.05 164.479,1413.52 145.058,1415.23C125.637,1416.93 105.275,1412.24 130.863,1427.96C156.45,1443.69 153.949,1440.29 168.717,1444.95C183.484,1449.61 190.175,1439.47 182.912,1436.46ZM13.24,1424.76C8.182,1423.98 -0.14,1429 -0.14,1431.59C-0.14,1434.19 7.898,1439.1 13.24,1440.33C19.549,1441.79 30.48,1440.33 37.714,1440.33C44.023,1440.33 60.72,1442.92 56.641,1440.33C52.562,1437.73 22.703,1426.21 13.24,1424.76ZM118.854,1402.49C92.353,1377.36 81.635,1367.09 83.545,1377.01C85.455,1386.93 78.55,1388.43 88.277,1393.99C98.004,1399.56 92.295,1398.95 102.472,1402.49C112.65,1406.02 122.445,1405.89 118.854,1402.49ZM-1.626,1355.78C-15.261,1354.6 -29.568,1357.21 -15.822,1364.27C-2.075,1371.33 -3.764,1366.86 7.837,1373.27C19.439,1379.68 18.209,1376.6 36.228,1385.5C54.246,1394.4 82.03,1415.56 64.618,1398.24C47.206,1380.92 47.454,1375.57 31.496,1368.35C15.538,1361.12 2.265,1356.11 -1.626,1355.78ZM55.155,1347.28C37.103,1338.76 18.941,1325.86 17.301,1334.55C15.66,1343.23 15.479,1348.37 26.764,1351.53C38.05,1354.69 36.418,1344.33 50.423,1355.78C64.428,1367.22 83.248,1372.67 74.082,1364.27C64.915,1355.87 73.207,1355.81 55.155,1347.28ZM-96.261,1292.08C-101.873,1299.32 -85.039,1307.45 -77.334,1313.31C-68.659,1319.91 -50.521,1330.25 -44.212,1331.66C-40.345,1332.53 -37.349,1324.83 -39.48,1321.81C-42.635,1317.33 -54.415,1309.39 -63.139,1304.82C-72.602,1299.87 -94.638,1289.99 -96.261,1292.08ZM-153.042,1283.59C-149.099,1287.84 -129.383,1299.16 -124.652,1300.57C-121.655,1301.47 -122.63,1294.25 -124.652,1292.07C-128.595,1287.83 -143.579,1276.51 -148.31,1275.1C-151.657,1274.1 -155.3,1281.16 -153.042,1283.59Z" style="fill:rgb(170,0,255);"/>
    </g>
    <g id="T04" transform="matrix(0.60344,0,0,1.19727,91.6906,-1501.21)">
        <path d="M1766.31,2045.17C1717.53,2090.95 1785.16,2088.75 1789.03,2128.29C1792.89,2167.84 1800.26,2205.62 1810.67,2172C1821.07,2138.37 1853.94,2131.5 1825.69,2091.58C1797.44,2051.66 1775.4,2036.64 1766.31,2045.17ZM1872,2068.48C1884.61,2109.66 1897.87,2122.41 1909.97,2106.13C1922.07,2089.85 1940.92,2107.24 1919.41,2073.65C1897.9,2040.07 1868.79,2057.99 1872,2068.48ZM1621.87,2056.6C1601.79,2064.27 1626.28,2075.13 1634.06,2081.8C1641.85,2088.46 1657.98,2106.51 1647.83,2084.58C1637.67,2062.65 1625.38,2055.26 1621.87,2056.6ZM1585.2,2011.73C1571.65,2019.4 1597.45,2042.64 1601.13,2032.14C1604.81,2021.64 1610.53,2030.89 1603.92,2018.38C1597.31,2005.86 1587.88,2010.21 1585.2,2011.73ZM1400.12,1779.39C1361.3,1788.99 1379.48,1816.39 1397.79,1833.37C1416.1,1850.34 1402.51,1829.81 1427.48,1856.57C1452.45,1883.33 1445.72,1864.07 1459.33,1897.41C1472.95,1930.75 1510.51,1996.55 1492.27,1947.06C1474.02,1897.57 1481.37,1909.14 1480.58,1880.42C1479.78,1851.71 1499.16,1842.98 1482.08,1827.51C1465.01,1812.04 1453.84,1790.39 1459.5,1825.8C1465.16,1861.21 1479.59,1877.01 1465.73,1868.82C1451.87,1860.64 1452.09,1850.58 1438,1832.91C1423.91,1815.24 1437.16,1805.88 1423.78,1789.91C1410.4,1773.94 1404.82,1778.23 1400.12,1779.39ZM1878.06,1862.88C1842.39,1889.3 1806.01,1885.22 1855.88,1920.37C1905.74,1955.53 1958.35,1982.08 1971.36,1935.8C1984.36,1889.52 2041.41,1880.88 1983.79,1868.9C1926.17,1856.91 1884.96,1857.78 1878.06,1862.88ZM344.198,1624.46C302.701,1683.34 304.662,1725.77 366.127,1763.05C422.257,1797.1 462.73,1781.83 487.578,1736.52C528.454,1661.99 524.739,1659.54 471.27,1611.41C417.8,1563.28 353.831,1610.79 344.198,1624.46ZM535.619,1693.59C522.999,1738.5 556.045,1780.08 605.465,1755.87C644.491,1736.76 674.852,1697.69 666.37,1677.94C648.545,1636.44 634.984,1612.91 584.41,1629.83C549.547,1641.49 540.834,1675.02 535.619,1693.59ZM1098.9,1512.08C1117.75,1562.88 1102.53,1607.61 1190.59,1639.54C1278.64,1671.47 1274.79,1619.39 1291.88,1662.91C1308.98,1706.44 1331.4,1801.78 1323.11,1735.14C1314.82,1668.51 1328.48,1694.06 1351.26,1709.32C1365.27,1718.71 1369.21,1698.83 1379.57,1709.09C1428.5,1757.59 1457.96,1745.83 1400.91,1676.39C1388.66,1661.48 1414.68,1665.68 1408,1647.12C1403.58,1634.81 1391.14,1635.74 1393.46,1626.7C1397.27,1611.8 1433.12,1609.08 1432.18,1602.18C1428.85,1577.56 1406.79,1587.36 1383,1566.73C1368.95,1554.56 1394.39,1547.17 1406.06,1547.42C1432.21,1547.96 1395.32,1519.83 1418.88,1531.01C1442.45,1542.19 1521.33,1546.46 1447.04,1505.19C1372.74,1463.92 1385.25,1480.9 1353.02,1431.71C1320.78,1382.52 1343.76,1339.46 1280.5,1351.12C1217.23,1362.78 1186.33,1379.5 1203.94,1347.08C1212.49,1331.35 1208.93,1325.67 1197.41,1324.84C1185.89,1324.02 1191.27,1314.34 1195.69,1306.65C1209.63,1282.37 1229.69,1278.63 1216.79,1269.44C1206.83,1262.34 1194.42,1288.82 1185.79,1298.91C1169.01,1318.56 1168.4,1311.47 1166.06,1293.56C1163.72,1275.65 1148.79,1281.13 1160.02,1270.7C1180.38,1251.77 1200.02,1271.66 1197,1253.98C1195.77,1246.78 1191.88,1240.2 1180.95,1240.16C1174.61,1240.14 1156.9,1253.83 1152.43,1249.8C1149.67,1247.32 1157.52,1221.3 1155.02,1219.2C1144.71,1210.57 1137.28,1206.36 1138.7,1216.38C1141.99,1239.61 1126.19,1252.83 1137.45,1279.17C1148.71,1305.51 1150.66,1296.91 1145.64,1309.49C1140.62,1322.07 1135.68,1333.36 1141.15,1345.83C1152.26,1371.16 1152.5,1353.08 1136.66,1382.18C1120.82,1411.27 1112.07,1435.84 1105.09,1453.16C1098.12,1470.48 1096.81,1506.45 1098.9,1512.08ZM1507.16,1703.63C1488.44,1708.98 1505.95,1731.46 1515.35,1733.94C1524.75,1736.43 1537.74,1736.6 1536.85,1726.83C1535.96,1717.06 1551.35,1718.57 1534.54,1709.39C1517.74,1700.21 1512.14,1702.21 1507.16,1703.63ZM1775.21,1554.43C1766.06,1623.16 1696.74,1501.5 1642.53,1546.38C1606.33,1576.35 1584.82,1618.89 1623.47,1667C1662.63,1715.74 1639.18,1729.11 1710.88,1711.4C1782.59,1693.69 1767.24,1669.58 1779.37,1661.3C1791.5,1653.03 1815.31,1652.59 1826.69,1682.35C1852.4,1749.57 1915.07,1726.75 1937.88,1713.45C1985.97,1685.43 2025.68,1628.96 2022.97,1604.59C2011.99,1506.06 1959.9,1436.4 1904.88,1432.59C1877.8,1430.71 1863.3,1446.83 1841.87,1444.58C1819.75,1442.25 1811.43,1406.08 1805.24,1434.42C1800.53,1455.99 1831.5,1482.6 1826.61,1501.89C1818.84,1532.55 1780.43,1515.25 1775.21,1554.43ZM1647.35,1350.88C1640.39,1377.17 1672.58,1383.88 1692.08,1401.78C1711.58,1419.68 1756.3,1487.4 1739.06,1438.5C1721.83,1389.6 1719.05,1374.85 1697.46,1358.16C1675.87,1341.46 1669.34,1320.92 1658.95,1336.03C1648.57,1351.14 1648.82,1345.31 1647.35,1350.88ZM1753.82,1418.15C1755.95,1423.07 1763.98,1435.79 1766.73,1436.21C1774.41,1437.37 1779.5,1427.08 1778.99,1417.02C1778.52,1407.82 1772.85,1400.38 1763.91,1405.24C1754.98,1410.09 1752.74,1415.65 1753.82,1418.15ZM1324.67,1325.2C1325.3,1336.41 1334.84,1351.44 1343.16,1359.06C1351.48,1366.67 1358.59,1366.87 1354.36,1348.4C1345.89,1311.47 1324.53,1322.71 1324.67,1325.2ZM960.055,1291.98C970.797,1333.56 972.515,1336.75 978.142,1330.03C983.77,1323.3 1002.04,1325.82 988.664,1306.36C975.286,1286.91 949.312,1250.4 960.055,1291.98ZM997.648,1233.68C985.816,1255.25 1007.9,1247.12 1010.79,1267.86C1013.67,1288.6 1010.04,1317.28 1023.93,1302.04C1037.82,1286.8 1062.17,1295.54 1043.26,1277.3C1024.36,1259.06 1000.92,1233.01 1021.31,1244.2C1041.7,1255.38 1059.13,1281.17 1061.99,1268.02C1064.84,1254.87 1073.44,1252.79 1061.52,1243.74C1049.6,1234.69 1062.36,1226.81 1045.59,1223.32C1028.83,1219.83 1000.17,1229.08 997.648,1233.68ZM1121.53,1258.76C1112.66,1238.64 1100.8,1215.04 1101.67,1233.17C1102.54,1251.3 1102.63,1241.43 1107.76,1255.97C1112.89,1270.51 1116.43,1299.67 1119.93,1281.2C1123.42,1262.72 1123.21,1262.59 1121.53,1258.76ZM1036.3,1184.17C999.795,1204.6 1062.72,1226.72 1075.91,1215.13C1089.1,1203.55 1088.56,1194.16 1081.24,1187.41C1073.92,1180.66 1055.71,1149.98 1047.9,1169.33C1040.09,1188.67 1044.12,1179.8 1036.3,1184.17ZM972.052,1189.76C957.575,1202.03 986.607,1202.44 990.981,1196.58C995.355,1190.72 999.402,1185.52 990.542,1180.3C981.681,1175.07 972.627,1189.27 972.052,1189.76ZM1182.16,1166.45C1182.27,1167.74 1182.54,1169.33 1182.97,1171.27C1188.2,1194.88 1190.12,1195.52 1180.62,1193.35C1171.12,1191.17 1168.06,1188.12 1158.04,1191.64C1148.02,1195.16 1147.14,1173.64 1147.86,1167.74C1150.3,1147.59 1150.4,1153.17 1167.48,1159.16C1175.34,1161.92 1179.39,1165.02 1182.16,1166.45ZM1013.75,1150.61C992.089,1140.97 1027.61,1183.52 1030.29,1171.51C1032.98,1159.5 1044.87,1165.71 1036.95,1152.8C1029.03,1139.88 1015.17,1151.24 1013.75,1150.61ZM1300.8,1151.77C1307.8,1154.32 1331.27,1151.91 1319.51,1158.42C1307.75,1164.92 1310.51,1173 1304.01,1168.05C1297.51,1163.1 1293.8,1149.21 1300.8,1151.77ZM1189.83,1162.75C1190.11,1162.33 1190.4,1161.87 1190.71,1161.38C1197.78,1150 1180.21,1127.76 1202.31,1146.53C1224.41,1165.3 1255.35,1154.11 1225.82,1164.91C1210.04,1170.68 1197.38,1165.35 1189.83,1162.75ZM1182.16,1166.45C1183.65,1167.22 1184.77,1167.51 1185.91,1167C1187.06,1166.49 1188.23,1165.17 1189.83,1162.75C1184.41,1160.89 1181.62,1160.42 1182.16,1166.45ZM1091.07,1093.74C1076.61,1114.72 1076.2,1122.34 1096.5,1127.6C1116.79,1132.86 1121.73,1109.4 1127.64,1128.03C1133.56,1146.66 1113.23,1158.76 1130.74,1146.39C1148.26,1134.03 1144.26,1141.98 1146.21,1126.6C1148.17,1111.22 1163.38,1109.88 1143.12,1108.24C1122.85,1106.59 1116.77,1118.92 1110.86,1109.21C1104.96,1099.5 1094.65,1088.55 1091.07,1093.74ZM1193.47,1115.71C1217.12,1099.52 1206.98,1142.2 1223.16,1138.91C1239.34,1135.62 1249.81,1155.41 1239.71,1127.93C1229.61,1100.46 1232.05,1078.54 1216.67,1086.02C1201.3,1093.49 1187.3,1119.93 1193.47,1115.71ZM1047.64,1057.53C1022.84,1061.61 1018.1,1065.15 1028.3,1082.27C1038.5,1099.39 1036.69,1102.37 1043.42,1102.06C1050.14,1101.75 1065.52,1116.49 1056.91,1096.66C1048.3,1076.83 1051.24,1056.94 1047.64,1057.53ZM1260.32,1072.31C1277.81,1074.06 1281.74,1051.07 1286.12,1068.56C1290.49,1086.04 1276.03,1089.52 1292.78,1089.7C1309.53,1089.89 1279.74,1068.02 1304.38,1074.86C1329.02,1081.7 1323.9,1078.32 1333.44,1089.6C1342.98,1100.87 1345.12,1114.89 1343.34,1097.33C1341.55,1079.78 1356.4,1077.94 1335.15,1067.02C1313.89,1056.1 1285.58,1052 1272.14,1057.63C1258.69,1063.25 1242.83,1070.55 1260.32,1072.31ZM1130.9,1058.84C1136.42,1079.77 1127.37,1079.75 1143.77,1086.05C1160.16,1092.35 1152.8,1111.08 1157.03,1090.43C1161.26,1069.78 1134.37,1054.93 1160.81,1064.24C1187.25,1073.56 1193.88,1072.82 1196.81,1070.49C1199.74,1068.16 1194.43,1068.39 1185.31,1054.25C1176.19,1040.11 1183.78,1008.15 1163.92,1020.88C1144.07,1033.6 1129.42,1053.24 1130.9,1058.84ZM1102.24,1028.46C1090.95,1033.37 1106.75,1047.55 1109.35,1049.96C1111.94,1052.37 1118.54,1059.44 1118.16,1048.88C1117.79,1038.33 1121.74,1034.91 1116,1031.25C1110.27,1027.59 1105.01,1027.26 1102.24,1028.46ZM1123.81,1000.32C1110.57,997.737 1139.03,1008.74 1140.25,1002.63C1141.47,996.518 1146.97,994.297 1139.25,991.31C1131.52,988.323 1125.26,1000.6 1123.81,1000.32ZM1315.59,987.968C1304.99,985.011 1326.16,1012.5 1331.45,1000.36C1336.74,988.219 1339.64,980.357 1333.15,977.779C1326.67,975.201 1316.67,988.268 1315.59,987.968ZM1069.93,947.415C1056.6,945.111 1066.82,959.767 1074.1,958.643C1081.38,957.518 1083,957.304 1081.83,948.746C1080.66,940.188 1073.21,947.982 1069.93,947.415ZM1212.06,938.932C1207.39,940.253 1208.87,942.827 1208.19,943.88C1207.51,944.934 1208.39,950.818 1213.33,947.898C1218.27,944.978 1225.28,938.878 1221.07,938.001C1216.85,937.124 1216.72,937.611 1212.06,938.932ZM1101.17,924.004C1088.05,928.696 1099.11,949.75 1106.62,944.212C1114.14,938.673 1124.85,938.815 1118.23,929.366C1111.6,919.918 1106.25,922.186 1101.17,924.004ZM1171.73,908.95C1160.47,907.423 1182.28,930.227 1182.79,923.737C1183.3,917.247 1194.27,919.806 1186.4,910.581C1178.52,901.356 1175.12,909.411 1171.73,908.95ZM1162.2,896.496L1162.2,896.496C1161.86,895.219 1161.46,893.367 1161.03,890.754C1158.08,872.794 1154.42,860.72 1149.15,866.451C1143.88,872.181 1139.9,870.181 1141.86,875.774C1147.9,892.96 1147.07,902.997 1156.26,896.858C1159.28,894.839 1161.15,895.431 1162.2,896.496Z" style="fill:rgb(255,0,155);"/>
    </g>
    <g id="T06" transform="matrix(0.60344,0,0,1.19727,190.221,-963.84)">
        <path d="M1353.75,1682.84C1354.4,1682.2 1350.59,1682.63 1349.96,1682.59C1350.44,1682.31 1351.85,1681.47 1352.8,1680.93C1355.28,1679.52 1361.82,1675.14 1364.88,1674.1C1366.85,1673.43 1369.22,1675.52 1371.13,1674.71C1375.88,1672.68 1387.41,1664.35 1393.36,1661.96C1397.54,1660.28 1403.15,1660.91 1406.84,1660.36C1409.76,1659.92 1412.86,1659.9 1415.52,1658.65C1418.74,1657.15 1422.11,1653.28 1426.16,1651.32C1430.21,1649.37 1435.9,1648.5 1437.26,1647.31C1438.62,1646.12 1441.24,1649.34 1440.63,1646.91C1440.02,1644.48 1444.82,1642.6 1444,1646.51C1443.18,1650.42 1440.61,1651.84 1439.12,1655.85C1437.62,1659.87 1434.93,1668.76 1440.03,1662.49C1445.13,1656.21 1447.62,1656.54 1448.77,1651.34C1449.93,1646.14 1448.21,1645.6 1454.11,1645.31C1460.01,1645.03 1456.45,1647.14 1463.24,1646.92C1470.03,1646.71 1472.55,1649.82 1474.8,1646.23C1477.04,1642.64 1476.94,1641.19 1482.07,1639.3C1487.19,1637.4 1486.82,1637.45 1490.74,1637.59C1494.66,1637.73 1496.29,1643.57 1498.43,1638.7C1500.57,1633.84 1501.54,1634.97 1502.82,1630.77C1504.1,1626.56 1507.91,1628.99 1509.56,1629.97C1511.22,1630.94 1510.78,1630.07 1514.41,1625.35C1518.04,1620.62 1519.49,1621.6 1525.51,1621.33C1531.53,1621.07 1533.68,1620.04 1538.99,1619.73C1544.3,1619.42 1543.56,1619.69 1546.22,1617.52C1548.88,1615.36 1551.44,1612.45 1552.97,1616.72C1554.5,1621 1553.6,1617.86 1549.07,1623.25C1544.53,1628.64 1540.57,1624.65 1541.31,1631.59C1542.04,1638.54 1536.66,1639.62 1540.74,1642.44C1544.83,1645.27 1541.64,1643.89 1546.99,1643.05C1552.35,1642.21 1555.56,1652.77 1556.62,1643.26C1557.67,1633.74 1552.91,1639.09 1553.81,1632.8C1554.7,1626.52 1554.34,1625.52 1557.71,1626.27C1561.08,1627.02 1562.19,1625.78 1562.97,1629.69C1563.76,1633.61 1565.18,1633.48 1563.89,1636.33C1562.59,1639.18 1562.82,1640.23 1567.22,1640.65C1569.87,1640.91 1572.51,1640.29 1573.54,1640.54L1573.54,1640.54C1569.47,1635.99 1567.73,1636.24 1566.8,1632.61C1565.88,1628.98 1560.84,1625.97 1566.84,1627.89C1572.83,1629.81 1577.39,1634.39 1582.67,1633.42C1587.95,1632.46 1588.85,1631.26 1591.8,1635.04C1594.76,1638.82 1592.19,1636.1 1595.14,1639.36C1598.09,1642.62 1598.11,1642.69 1599.95,1639.46C1601.79,1636.23 1603.54,1633.65 1608.66,1633.04C1613.78,1632.42 1617.17,1634.11 1620.21,1632.34C1623.26,1630.57 1623.4,1632.37 1626.57,1629.82C1629.73,1627.28 1640.11,1627.3 1669.87,1619.7C1699.62,1612.11 1720.79,1594.44 1703.27,1593.49C1685.74,1592.55 1706.11,1599.56 1663.76,1600.2C1621.41,1600.85 1564.68,1607.98 1606.03,1598.97C1647.38,1589.95 1580.87,1607.76 1670.12,1586.64C1759.37,1565.52 1778.92,1569.48 1761.7,1564.98C1744.48,1560.49 1732.88,1563.21 1711.66,1564.86C1690.44,1566.51 1679.7,1568.18 1692.91,1563.04C1706.12,1557.9 1692.29,1557.89 1759.04,1535.64C1825.79,1513.38 1801.16,1515.13 1818.98,1498.18C1836.8,1481.24 1855.05,1461.32 1840.48,1455.18C1825.91,1449.05 1809.25,1460.76 1817.9,1450.45C1826.55,1440.14 1812.12,1427.13 1832.65,1408.25C1853.18,1389.36 1863.76,1370.85 1858.47,1366.76C1853.17,1362.66 1865.19,1363.2 1844.6,1355.59C1824,1347.98 1803.68,1346.6 1812.5,1336.48C1821.32,1326.36 1844.95,1304.49 1822.86,1302.22C1800.78,1299.94 1795.45,1301.03 1796.49,1289.84C1797.53,1278.65 1788.27,1272.37 1782.69,1269.23C1777.12,1266.09 1754.42,1272.61 1751.37,1275.64C1722.1,1304.8 1750.4,1253.17 1694.51,1285.76C1638.85,1318.23 1653.4,1317.96 1631.41,1331.58C1609.43,1345.19 1637.39,1346.59 1562.54,1367.5C1487.69,1388.4 1540.72,1379.74 1461.79,1392.26C1382.86,1404.78 1425.35,1386.93 1367.82,1411.5C1335.91,1425.13 1351.45,1425.15 1334.78,1429.41C1333.46,1429.75 1311.14,1417.67 1308.44,1423.79C1307.4,1426.15 1321.98,1432.42 1316.17,1434.65C1313.3,1435.76 1309.66,1436.15 1305.55,1437.1C1301.58,1438.01 1293.37,1429.02 1290.6,1430.11C1284.87,1432.36 1288.26,1436.41 1286.66,1439.41C1284.67,1443.13 1277.14,1441.61 1270.59,1445.73C1263.02,1450.5 1254.67,1461.02 1224.01,1467C1193.14,1473.01 1184.61,1479.65 1174.08,1481.33C1160.91,1483.44 1157.96,1487.28 1145.92,1492.87C1141.14,1495.08 1131.7,1497.29 1124.63,1501.71C1113.58,1508.62 1110.35,1506.19 1108.76,1507.89C1103.45,1513.59 1098.58,1519.93 1076.34,1524.3C1070.46,1525.45 1051.02,1532.82 1044.04,1535.31C1040.8,1536.46 1037.84,1540.18 1034.5,1539.21C1028.7,1537.54 1015.91,1526.17 1009.24,1525.24C1003.59,1524.44 993.687,1532.59 994.518,1533.58C995.349,1534.58 1009.41,1529.97 1014.23,1531.19C1018.59,1532.3 1026.58,1537.81 1023.47,1540.93C1018.05,1546.38 996.363,1557.6 981.736,1563.84C957.087,1574.37 915.85,1583.19 875.576,1604.08C814.875,1635.57 793.278,1652.36 780.961,1663.3C773.57,1669.86 773.206,1675.6 759.42,1677.54C750.377,1678.81 745.394,1681.33 740.792,1682.88C731.085,1686.15 724.629,1686.45 720.73,1691.16C714.657,1698.5 708.767,1699.71 702.758,1700.97C693.046,1703.02 690.614,1705.46 683.39,1710.16C678.813,1713.13 678.25,1716.34 678.196,1720.39C678.158,1723.28 672.174,1720.04 666.379,1717.23C663.176,1715.67 661.017,1715.67 659.369,1716.7C657.224,1718.04 665.632,1723.72 663.256,1725.08C661.291,1726.21 651.681,1719.56 648.083,1718.72C636.013,1715.9 641.138,1723.69 649.943,1727.27C658.749,1730.84 658.235,1732 655.175,1735.41C650.867,1740.21 643.464,1742.8 640.819,1747.94C638.025,1753.37 639.929,1761.26 632.839,1762.33C619.035,1764.42 620.373,1774.48 617.914,1763.43C617.123,1759.87 615.931,1755.93 603.517,1758.39C584.466,1762.17 582.466,1761.53 583.254,1765.52C584.683,1772.76 586.325,1779.41 590.838,1780.8C595.713,1782.29 582.876,1804.58 580.162,1792.85C578.853,1787.2 574.09,1779.99 565.835,1778.37C548.186,1774.92 552.076,1786.04 563.341,1790.13C574.606,1794.22 576.861,1794.68 564.71,1800.08C546.631,1808.11 551.626,1816.77 544.447,1807.2C537.268,1797.64 530.191,1803.03 529.558,1803.58C524.695,1807.75 509.649,1799.04 515.09,1807.99C515.959,1809.42 524.341,1807.74 528.32,1809.33C533.366,1811.34 533.979,1816.66 532.331,1818.75C524.045,1829.29 511.998,1830.17 502.585,1830.26C500.816,1830.28 502.541,1825.33 497.636,1825.57C493.254,1825.78 488.367,1837 486.378,1837.2C481.992,1837.67 481.656,1823.42 480.058,1824.39C478.135,1825.57 475.196,1829.34 473.912,1833.06C473.161,1835.24 474.87,1838.05 472.661,1838.57C471.644,1838.8 468.97,1840.43 466.25,1841.87C464.066,1843.02 460.977,1832.7 457.602,1838.41C456.652,1840.02 456.819,1844.16 455.323,1844.46C449.318,1845.66 439.027,1854.33 428.103,1858.09C411.438,1863.83 375.99,1895.82 406.258,1883.61C425.41,1875.88 435.824,1867.35 458.864,1862.53C480.391,1858.03 464.619,1871.61 484.494,1865.14C494.222,1861.97 507.163,1858.22 526.815,1848.4C558.606,1832.51 589.863,1811.97 638.876,1791.28C687.889,1770.58 714.484,1762.47 739.733,1752.34C764.982,1742.21 783.862,1742.81 793.46,1732.68C803.058,1722.56 825.671,1710.7 844.364,1707.23C863.057,1703.76 872.972,1701.7 863.697,1712.01C854.422,1722.32 846.463,1727.31 834.138,1736.49C820.65,1746.53 821.055,1752.75 842.776,1739.5C864.497,1726.26 865.568,1725.91 871.888,1725.55C876.802,1725.27 878.085,1737.87 880.696,1737.33C883.307,1736.79 887.442,1726.51 887.556,1722.33C887.661,1718.44 882.754,1715.94 881.376,1712.28C879.981,1708.57 876.834,1700.62 879.184,1700.06C881.535,1699.5 892.054,1705.61 895.477,1708.91C898.324,1711.66 897.49,1718.56 899.726,1719.87C901.961,1721.18 908.048,1719.83 908.891,1716.76C909.882,1713.15 903.09,1700.23 905.673,1698.24C908.256,1696.24 920.61,1702.5 924.389,1704.78C926.745,1706.2 929.409,1709.46 928.35,1711.93C926.879,1715.37 919.694,1721.29 915.562,1725.41C911.685,1729.27 901.003,1733.16 903.562,1736.63C906.121,1740.09 921.827,1744.46 930.917,1746.19C939.837,1747.88 955.148,1747.74 958.102,1746.99C961.056,1746.25 948.608,1743.34 948.641,1741.7C948.673,1740.07 955.013,1738.55 958.298,1737.19C962.079,1735.62 967.785,1733.93 971.326,1732.27C974.241,1730.91 977.589,1727.45 979.544,1727.25C981.264,1727.07 981.591,1730.14 983.06,1731.06C984.606,1732.03 987.74,1734.62 988.819,1733.07C989.898,1731.53 987.539,1724.41 989.534,1721.78C991.53,1719.15 996.958,1718.6 1000.79,1717.31C1004.76,1715.98 1010.18,1715.86 1013.33,1713.8C1016.38,1711.81 1016.43,1706.47 1019.65,1704.96C1022.87,1703.46 1028.87,1704.77 1032.64,1704.77C1035.85,1704.77 1039.78,1705.16 1042.26,1704.98C1044.09,1704.84 1046.6,1704.91 1047.57,1703.67C1048.54,1702.43 1046.64,1698.61 1048.09,1697.54C1049.55,1696.47 1053.69,1696.34 1056.28,1697.25C1058.91,1698.17 1062.01,1702.41 1063.93,1703.08C1065.29,1703.55 1068.03,1702.14 1067.79,1701.27C1067.56,1700.4 1064.04,1698.91 1062.53,1697.85C1061.21,1696.93 1057.61,1696.07 1058.7,1694.93C1060.4,1693.16 1068.6,1689.72 1072.71,1687.2C1076.39,1684.96 1079.58,1680.66 1083.35,1679.87C1087.13,1679.09 1092.71,1683.14 1095.36,1682.49C1097.86,1681.88 1097.42,1677.72 1099.26,1675.96C1101.28,1674.04 1104.35,1671.43 1107.48,1670.94C1110.61,1670.46 1116.06,1671.05 1118.05,1673.06C1120.04,1675.07 1118.71,1680.4 1119.42,1683.01C1119.97,1685.06 1121.14,1688.87 1122.26,1688.74C1123.38,1688.61 1124.55,1682.96 1126.16,1682.21C1127.77,1681.46 1130,1683.55 1131.92,1684.22C1134.08,1684.98 1137.18,1687.64 1139.12,1686.74C1141.05,1685.84 1143.73,1680.46 1143.51,1678.8C1143.28,1677.14 1139.28,1676.27 1137.75,1676.79C1136.22,1677.31 1135.22,1682.48 1134.34,1681.91C1133.46,1681.34 1131.91,1675.01 1132.48,1673.37C1133.05,1671.73 1136,1672.45 1137.78,1672.07C1140.11,1671.57 1143.52,1669.98 1146.46,1670.36C1150.06,1670.83 1156.62,1672.86 1159.41,1674.89C1161.74,1676.58 1162.01,1682.11 1163.21,1682.53C1164.41,1682.95 1165.72,1679.2 1166.61,1677.41C1167.5,1675.63 1166.6,1672.21 1168.58,1671.78C1170.91,1671.28 1176.83,1673.61 1180.59,1674.4C1184.11,1675.14 1189.11,1675.36 1191.16,1676.52C1192.67,1677.38 1192.7,1680.32 1192.89,1681.37C1192.98,1681.88 1192.66,1682.57 1192.28,1682.78C1191.9,1682.99 1191.18,1682.6 1190.63,1682.65C1189.23,1682.76 1185.5,1682.69 1183.89,1683.45C1182.45,1684.12 1180.9,1685.83 1180.97,1687.16C1181.04,1688.51 1182.81,1690.44 1184.31,1691.49C1185.83,1692.54 1188.22,1694.17 1190.07,1693.5C1191.92,1692.83 1194.8,1689.18 1195.41,1687.47C1195.91,1686.07 1193.9,1684.22 1193.72,1683.28C1193.62,1682.78 1194.17,1682.36 1194.33,1681.87C1194.54,1681.23 1194.32,1679.95 1194.99,1679.43C1196.79,1678.04 1202.48,1674.16 1205.13,1673.51C1207.1,1673.03 1210.19,1673.7 1210.89,1675.52C1211.6,1677.35 1208.36,1682 1209.38,1684.47C1210.41,1686.93 1215.28,1689.16 1217.04,1690.3C1217.89,1690.85 1220.18,1692.27 1219.92,1691.31C1219.45,1689.57 1214.93,1682.46 1214.23,1679.85C1213.84,1678.4 1214.42,1676.23 1215.7,1675.63C1216.99,1675.03 1220.01,1676.97 1221.96,1676.23C1224.13,1675.41 1227.04,1672.48 1228.73,1670.71C1230.15,1669.22 1231.66,1665.42 1232.14,1665.59C1232.62,1665.75 1230.58,1670.83 1231.61,1671.72C1232.65,1672.61 1237.46,1672.71 1238.36,1670.92C1239.25,1669.12 1235.61,1662.59 1236.99,1660.97C1238.36,1659.34 1243.56,1661.42 1246.61,1661.17C1249.55,1660.93 1252.34,1659.18 1255.28,1659.47C1258.41,1659.77 1266.55,1659.03 1265.36,1662.99C1264.17,1666.95 1264.43,1667.49 1261.95,1668.12C1259.48,1668.74 1253.29,1671.74 1260.97,1670.93C1268.65,1670.12 1272.31,1673.84 1275.4,1671.24C1278.49,1668.64 1275.32,1665.81 1280.25,1666.62C1285.18,1667.43 1283.36,1665.13 1286.01,1668.63C1288.65,1672.13 1288.69,1674.45 1290.33,1670.14C1291.96,1665.83 1296.16,1662.71 1298.58,1660.4C1300.39,1658.68 1302.46,1657.02 1304.87,1656.28C1307.28,1655.55 1312.73,1655.35 1313.05,1655.98C1313.37,1656.62 1308.78,1658.62 1306.76,1660.1C1304.59,1661.71 1299.99,1664.84 1299.99,1665.62C1299.98,1666.41 1304.65,1665.68 1306.73,1664.82C1310.19,1663.4 1317.12,1658.2 1320.74,1657.09C1323.2,1656.34 1326.26,1658.24 1328.43,1658.2C1330.26,1658.18 1332.2,1657.42 1333.73,1656.9C1335.08,1656.44 1336.72,1654.52 1337.6,1655.09C1338.47,1655.66 1338.77,1658.66 1339,1660.32C1339.21,1661.88 1337.54,1664.31 1338.96,1665.04C1340.56,1665.87 1347.78,1666.02 1348.59,1665.25C1349.39,1664.48 1344.84,1662.1 1343.81,1660.42C1342.86,1658.88 1341.18,1656.51 1342.41,1655.2C1343.7,1653.81 1348.35,1652.47 1351.57,1652.09C1354.94,1651.69 1359.43,1652.73 1362.63,1652.8C1365.36,1652.86 1368.56,1653.55 1370.82,1652.5C1373.07,1651.44 1373.66,1647.44 1376.15,1646.47C1378.65,1645.5 1383.21,1647.1 1385.78,1646.68C1387.89,1646.34 1389.58,1644.74 1391.57,1643.97C1394.06,1643 1397.6,1641.63 1400.74,1640.86C1404.27,1639.99 1409.04,1640.31 1412.78,1638.76C1416.56,1637.18 1420.29,1631.91 1423.42,1631.42C1426.46,1630.95 1433.94,1631.81 1431.57,1635.85C1429.19,1639.89 1424.7,1642.4 1422.37,1643.68C1420.98,1644.45 1419.13,1643.33 1417.56,1643.58C1414.99,1644 1409.77,1644.28 1406.95,1646.19C1404.13,1648.1 1403.13,1653.27 1400.63,1655.03C1398.24,1656.71 1394.8,1655.97 1391.95,1656.73C1388.98,1657.53 1385.7,1658.48 1382.79,1659.84C1379.25,1661.5 1374.65,1664.63 1370.71,1666.67C1366.92,1668.63 1361.53,1671.35 1359.12,1672.09C1358.16,1672.38 1357.19,1670.76 1356.24,1671.08C1354.71,1671.6 1351.17,1674.05 1349.95,1675.2C1349.23,1675.89 1349.92,1677.67 1348.97,1678.01C1347.12,1678.68 1341.11,1678.95 1338.86,1679.21C1337.73,1679.35 1336.42,1679 1335.49,1679.61C1334.44,1680.3 1333.88,1682.43 1332.57,1683.33C1330.8,1684.55 1322.6,1686.42 1324.85,1686.94C1327.09,1687.47 1341.2,1687.14 1346.02,1686.45C1348.85,1686.05 1353.09,1683.48 1353.75,1682.84ZM1266.29,1844.86C1276.07,1843.56 1251.13,1838.88 1248.62,1843.41C1246.11,1847.95 1233.44,1861.41 1243.7,1857.48C1253.96,1853.55 1263.6,1845.21 1266.29,1844.86ZM1362.3,1824.75C1362.98,1807.47 1345.7,1825.88 1339.16,1830.87C1332.62,1835.85 1324.52,1843.75 1337.65,1839.81C1350.78,1835.87 1362.19,1827.57 1362.3,1824.75ZM713.777,1812.73C713.129,1816.09 709.04,1817.4 706.472,1824.38C703.903,1831.36 707.257,1838.66 700.606,1836.54C693.956,1834.42 692.7,1838.84 692.951,1830.7C693.203,1822.57 694.082,1818.08 698.817,1818.55C703.552,1819.02 705.849,1817.44 708.474,1814.03C711.1,1810.62 714.425,1809.36 713.777,1812.73ZM1308.7,1816.33C1313.56,1807.25 1296.01,1817.05 1292.56,1820.89C1289.12,1824.73 1281.99,1826.4 1290.6,1826.51C1299.21,1826.62 1307.45,1818.66 1308.7,1816.33ZM773.232,1776.68C763.99,1773.6 766.072,1772.98 756.832,1782C747.592,1791.02 756.673,1788.4 744.716,1793.55C732.759,1798.7 715.126,1805.69 725.858,1805.9C736.59,1806.11 737.882,1801.49 745.137,1801.59C752.392,1801.69 748.16,1803.98 758.165,1796.67C768.171,1789.36 775.183,1785.84 776.076,1782.41C776.969,1778.98 775.501,1777.43 773.232,1776.68ZM880.212,1752.58C881.987,1760.47 892.043,1753.74 888.119,1762.32C884.194,1770.89 891.898,1774.9 881.987,1775.23C872.075,1775.57 862.34,1788.61 867.062,1776.33C871.785,1764.06 878.436,1744.7 880.212,1752.58ZM1443.92,1720.68C1454.88,1720.57 1421.93,1736.54 1429.91,1737.64C1437.89,1738.74 1445.99,1738.2 1439.92,1741.38C1433.84,1744.56 1436.76,1736.23 1427.38,1744.89C1418,1753.54 1426.5,1751.27 1414.32,1754.53C1402.13,1757.79 1408.19,1760.32 1398.37,1763.16C1388.55,1766.01 1369.19,1774.72 1371.4,1766.36C1373.61,1758 1368.7,1757.93 1387.42,1748.28C1406.13,1738.63 1437.38,1720.75 1443.92,1720.68ZM1272.73,1706.61C1280.48,1702.04 1266.25,1705.17 1259.25,1708.21C1252.24,1711.25 1230.31,1720.88 1236.63,1722.06C1242.96,1723.24 1235.28,1727.58 1250.01,1720.77C1264.74,1713.96 1271.73,1707.2 1272.73,1706.61ZM1317.61,1689.15C1304.53,1689.48 1305.4,1689.65 1296.4,1694.37C1287.4,1699.08 1271.88,1705.51 1283.34,1704.01C1294.8,1702.5 1330.69,1688.82 1317.61,1689.15ZM694.485,1687.66C681.304,1686.12 671.7,1687.24 678.282,1692.42C684.865,1697.59 690.12,1702.49 693.947,1698.45C697.773,1694.41 695.644,1687.8 694.485,1687.66ZM1513.74,1650.37C1521.54,1652.52 1512.9,1652.65 1504.08,1654.88C1495.26,1657.12 1490.19,1653.16 1489.12,1660.71C1488.06,1668.25 1496.24,1669.63 1485.68,1670.55C1475.12,1671.48 1479.51,1672.48 1472.23,1667.43C1464.95,1662.38 1454.3,1657.17 1466.05,1657.38C1477.8,1657.58 1477.65,1662.41 1481.47,1654.87C1485.29,1647.33 1480.52,1642.85 1487.79,1646.03C1495.05,1649.21 1498.24,1650.77 1500.29,1647.25C1502.34,1643.72 1511.85,1649.85 1513.74,1650.37ZM1573.98,1641C1573.99,1640.75 1573.83,1640.61 1573.54,1640.54C1573.69,1640.7 1573.84,1640.86 1573.98,1641C1573.96,1641.34 1573.66,1641.86 1572.98,1642.66C1569.96,1646.24 1564.79,1648.44 1571.01,1648.29C1577.24,1648.14 1579.18,1651.22 1579.19,1647.99C1579.21,1644.76 1577.88,1644.35 1582.11,1644.28C1586.34,1644.2 1593.97,1645.47 1585.97,1642.47C1578.28,1639.58 1577.64,1644.67 1573.98,1641ZM729.945,1646.31C735.431,1644.29 735.462,1648.72 743.922,1643.3C752.381,1637.89 757.461,1633.65 751.683,1634.97C745.905,1636.28 747.649,1635.29 741.078,1637.57C734.507,1639.86 729.406,1646.51 729.945,1646.31ZM1417.49,1611.29C1395.4,1612.19 1376.5,1620.06 1357.24,1626.62C1337.98,1633.18 1260.27,1649.93 1287.65,1640.6C1315.04,1631.28 1305.58,1631.24 1329.25,1622.58C1352.91,1613.91 1360.26,1609.77 1375.48,1608.09C1390.7,1606.41 1425.38,1610.96 1417.49,1611.29ZM760.495,1631.73C763.773,1630.37 766.49,1627.45 767.398,1625.28C768.305,1623.11 767.403,1621.68 763.446,1623.29C755.53,1626.52 758.568,1632.53 760.495,1631.73ZM1550.14,1596.36C1576.09,1589.02 1526.62,1604.46 1499.82,1611.33C1473.01,1618.2 1416.18,1631.56 1440.76,1623.25C1465.33,1614.94 1496.97,1603.8 1482.94,1603.52C1468.92,1603.24 1486.03,1598.04 1503.44,1595.36C1520.86,1592.68 1547.62,1597.07 1550.14,1596.36ZM777.811,1615.68C780.231,1612.73 785.587,1610.59 779.287,1611.47C772.986,1612.34 768.843,1612.72 771.038,1614.9C773.233,1617.07 775.392,1618.64 777.811,1615.68ZM835.65,1582.23C830.784,1579.6 826.98,1579.4 828.101,1582.75C829.221,1586.1 828.61,1587.07 831.436,1587.07C834.263,1587.08 840.516,1584.87 835.65,1582.23ZM1612.23,1570.18C1587.66,1574.13 1589.68,1573.99 1568.98,1576.13C1548.27,1578.27 1487.57,1587.42 1515.25,1578.41C1542.93,1569.41 1540.55,1568.1 1572.01,1561.86C1603.46,1555.63 1618.73,1569.13 1612.23,1570.18ZM858.198,1547.49C864.079,1545.51 853.85,1541.01 851.563,1534.12C849.275,1527.24 854.918,1518.48 848.263,1525.08C841.607,1531.67 842.364,1523.89 842.397,1537.23C842.43,1550.57 857.292,1547.8 858.198,1547.49ZM1623.23,1332.55C1624.11,1331.9 1624.8,1329.01 1623.73,1329.31C1618.06,1330.9 1570.03,1340.81 1589.2,1342.08C1597.23,1342.62 1610.86,1336.2 1616.53,1334.61C1618.78,1333.98 1622.03,1333.44 1623.23,1332.55ZM1505.07,1241.64C1493.2,1251.06 1489.76,1248.65 1475.08,1253.26C1466.69,1255.88 1434.17,1273.29 1441.87,1258.44C1444.77,1252.86 1465.16,1248.36 1485.3,1237.88C1502.69,1228.85 1511.03,1236.9 1505.07,1241.64ZM1695.05,1214.91C1670.5,1225.47 1691.32,1225.97 1663.93,1230.87C1636.55,1235.77 1669.58,1231.43 1627.97,1240.4C1586.37,1249.38 1541.22,1260.08 1563.98,1248.02C1586.73,1235.97 1584.35,1241.56 1608.8,1230.54C1633.26,1219.53 1625.4,1221.7 1650.8,1212.07C1676.2,1202.45 1719.6,1204.36 1695.05,1214.91ZM1545.74,1224.28C1525.1,1230.59 1514.98,1239.31 1519.29,1232.4C1523.6,1225.5 1522.72,1226.13 1534.29,1221.86C1545.85,1217.58 1566.37,1217.98 1545.74,1224.28ZM1676.65,1165.86C1708.1,1165.77 1663.73,1176.95 1625.94,1190.76C1588.15,1204.56 1543.94,1223.83 1557.92,1214.33C1571.9,1204.84 1563.66,1211.47 1595.6,1194.36C1627.54,1177.24 1637.04,1169.87 1653.02,1165.49C1669,1161.11 1672.69,1165.87 1676.65,1165.86Z" style="fill:rgb(255,0,0);"/>
    </g>
    <g id="T08" transform="matrix(0.60344,0,0,1.19727,213.442,-1513.58)">
        <path d="M1562.73,1656.91C1559.11,1655.78 1560.49,1645.18 1562.68,1643.41C1564.87,1641.65 1572.24,1645.18 1575.87,1646.32C1578.87,1647.27 1586.63,1648.48 1584.45,1650.24C1582.26,1652.01 1566.36,1658.05 1562.73,1656.91ZM1701.12,1583.26C1706.75,1586.72 1734.98,1587.46 1752,1598.34C1764.86,1606.57 1782.09,1614.5 1795.44,1612.87C1811.81,1610.87 1833.74,1623.8 1846.93,1626.32C1855.99,1628.06 1861.63,1622.51 1874.57,1627.98C1897.89,1637.85 1902.1,1641.14 1922.63,1639.57C1943.16,1637.99 1942.66,1629.78 1948.32,1637.82C1953.98,1645.87 1962.2,1647.8 1966.34,1645.75C1975.38,1641.28 2017.73,1639.5 1994.79,1634.87C1971.85,1630.23 1948.83,1619.65 1928.36,1621.75C1907.89,1623.85 1917.41,1631.94 1898.85,1623.52C1880.29,1615.1 1890.62,1612.32 1859.15,1609.83C1827.67,1607.34 1825.52,1605.7 1815.83,1604.56C1810.89,1603.97 1805.1,1605.78 1801,1602.97C1796.37,1599.79 1793.3,1590.33 1788.07,1585.52C1782.83,1580.7 1776.02,1575.11 1769.6,1574.1C1763.17,1573.09 1756.43,1578.98 1749.53,1579.45C1740.96,1580.03 1726.29,1576.96 1718.23,1577.59C1712.24,1578.06 1696,1580.11 1701.12,1583.26ZM1503.37,1637.05C1506.55,1637.64 1516.55,1637.72 1518.51,1635.68C1520.48,1633.64 1518.36,1625.41 1515.18,1624.82C1511.99,1624.23 1501.36,1630.09 1499.39,1632.13C1497.93,1633.64 1501.29,1636.67 1503.37,1637.05ZM1424.93,1627.14C1427.36,1630.15 1445.43,1631.84 1447.02,1631.01C1448.61,1630.18 1432.23,1624.42 1434.47,1622.17C1436.71,1619.91 1460.81,1618.99 1460.47,1617.45C1460.14,1615.92 1438.38,1611.34 1432.46,1612.95C1427.29,1614.36 1422.51,1624.13 1424.93,1627.14ZM1187.14,1558.79C1186.2,1556.49 1209.34,1556.24 1212.52,1551.88C1215.7,1547.51 1204.02,1534.35 1206.21,1532.58C1208.4,1530.82 1220.19,1539.95 1225.65,1541.28C1229.98,1542.34 1235.46,1538.46 1238.99,1540.59C1242.51,1542.71 1243.66,1553.08 1246.78,1554.05C1253.43,1556.12 1259.63,1546.84 1263.98,1547.52C1268.34,1548.21 1269.25,1555.32 1272.91,1558.16C1276.69,1561.1 1281.7,1563.97 1286.71,1565.2C1291.68,1566.42 1298.25,1568.29 1307.86,1571.21C1312.46,1572.61 1317.55,1568.59 1320.76,1569.91C1324.86,1571.61 1323.58,1575.47 1326.33,1579.28C1328.48,1582.24 1334.58,1585.34 1337.82,1586.31C1345.22,1588.53 1356.51,1584.54 1364.74,1587.06C1372.96,1589.59 1380.3,1598.13 1387.19,1601.47C1393.1,1604.34 1403.3,1604.55 1406.08,1607.12C1408.53,1609.38 1407.21,1616.44 1403.9,1616.89C1398.32,1617.64 1377.35,1614.59 1372.6,1611.66C1369.01,1609.45 1379.13,1601.34 1375.42,1599.34C1370.39,1596.62 1347.82,1593.52 1342.41,1595.36C1337.67,1596.98 1346.43,1609.27 1342.95,1610.39C1339.48,1611.52 1324.06,1604.82 1321.56,1602.13C1319.26,1599.65 1330.52,1596.47 1327.97,1594.25C1324.93,1591.6 1309.15,1585.61 1303.33,1586.24C1298.15,1586.8 1295.26,1598.88 1293.07,1598.01C1287.65,1595.85 1296.05,1584.07 1293.35,1579.6C1290.65,1575.14 1281.49,1572.43 1276.88,1571.21C1268.01,1568.86 1261.99,1567.85 1257.15,1569.29C1252.65,1570.63 1254.85,1579.82 1247.83,1579.86C1244.6,1579.88 1239.25,1575.4 1237.98,1571.99C1236.71,1568.57 1242.64,1561 1240.22,1559.34C1237.79,1557.69 1229.1,1562.1 1223.43,1562.04C1214.58,1561.95 1190.26,1566.43 1187.14,1558.79ZM1614.74,1563.5C1616.95,1566.24 1631.94,1566.34 1639.79,1567.68C1647.16,1568.94 1655.4,1571.36 1661.88,1571.55C1667.54,1571.72 1681.15,1571.37 1678.67,1568.85C1676.19,1566.34 1655.68,1559.39 1647,1556.46C1640.34,1554.21 1631.93,1550.09 1626.56,1551.27C1621.18,1552.44 1612.54,1560.76 1614.74,1563.5ZM765.758,1521.98C764.053,1520.1 756.868,1520.5 758.184,1522.67C760.947,1527.21 779.207,1551.49 782.332,1549.25C785.566,1546.94 769.782,1526.41 765.758,1521.98ZM1409.69,1517.52C1410.11,1521.4 1441.4,1527.17 1453.22,1531.18C1462.47,1534.33 1471.14,1539.18 1480.6,1541.62C1490.87,1544.27 1503.78,1547.4 1514.81,1547.08C1525.75,1546.77 1537.9,1541.56 1546.8,1539.72C1553.89,1538.25 1571.88,1538.9 1568.19,1536.01C1564.51,1533.11 1538.01,1523.77 1524.66,1522.34C1512.44,1521.03 1500.19,1529.78 1488.12,1527.42C1475.79,1525.02 1463.77,1509.54 1450.69,1507.89C1437.62,1506.24 1409.27,1513.63 1409.69,1517.52ZM1126.46,1529.15C1126.95,1527.1 1140.76,1521.82 1146.73,1519.71C1151.73,1517.94 1157.06,1515.82 1162.32,1516.5C1170.74,1517.58 1195.28,1523.78 1197.27,1526.24C1199.26,1528.7 1181.75,1529.8 1174.23,1531.27C1166.9,1532.71 1159.05,1532.23 1152.14,1535.1C1143.77,1538.57 1125.67,1532.5 1126.46,1529.15ZM1330.18,1511.19C1330.69,1514.06 1359.94,1522.72 1373.2,1526.03C1385.13,1529 1410.25,1533.9 1409.74,1531.02C1409.23,1528.15 1383.39,1512.08 1370.13,1508.78C1357.18,1505.55 1329.66,1508.31 1330.18,1511.19ZM915.963,1283.92C920.461,1288.15 911.615,1302.43 913.031,1306.79C914.256,1310.57 921.702,1310.07 924.46,1310.1C928.362,1310.13 930.357,1308.95 932.275,1311.85C939.354,1322.53 950.578,1360.31 957.215,1373.02C960.485,1379.28 967.467,1382.77 972.095,1388.11C978.547,1395.55 984.165,1412.99 995.925,1417.66C1019.18,1426.9 1108.17,1440.94 1111.64,1443.57C1115.11,1446.19 1041.51,1437.8 1016.74,1433.39C998.307,1430.12 976.286,1421.31 962.984,1417.13C954.239,1414.38 942.305,1407.16 936.929,1408.34C931.554,1409.51 927.174,1419.76 930.732,1424.17C934.483,1428.82 950.209,1431.49 959.435,1436.25C974.122,1443.82 1003.39,1459.96 1018.85,1469.62C1030.57,1476.93 1040.62,1489.8 1052.22,1494.19C1063.51,1498.47 1077.31,1492.25 1088.41,1495.94C1099.52,1499.63 1121.13,1514.22 1118.84,1516.33C1116.55,1518.44 1089.61,1508.01 1074.67,1508.6C1059.36,1509.21 1042.39,1522.89 1026.95,1519.98C1011.51,1517.08 998.516,1497.88 982.045,1491.17C964.56,1484.05 935.168,1478.39 922.043,1477.24C915.399,1476.65 904.266,1479.83 903.295,1484.23C902.324,1488.62 918.039,1498.33 916.216,1503.61C914.493,1508.6 865.041,1486.62 858.81,1479.46C852.796,1472.54 883.295,1465.58 878.83,1460.61C874.364,1455.63 846.648,1456.13 832.014,1449.59C813.647,1441.37 776.956,1422.19 768.624,1411.29C762.509,1403.3 786.879,1390.25 782.025,1384.23C777.171,1378.21 749.544,1374.75 739.499,1375.17C732.44,1375.47 722.947,1379.81 721.757,1386.77C720.415,1394.63 735.984,1417.29 731.446,1422.31C726.909,1427.32 699.441,1422.38 694.534,1416.85C689.627,1411.32 697.9,1397.79 702.003,1389.15C706.523,1379.64 724.918,1366.61 721.653,1359.76C718.388,1352.91 694.433,1347.84 682.411,1348.05C670.628,1348.26 657.802,1358.41 649.522,1361.03C644.117,1362.73 636.971,1366.18 632.734,1363.73C628.498,1361.27 629.022,1350.52 624.103,1346.3C616.777,1340.02 585.497,1328.66 588.78,1326.02C592.064,1323.37 629.691,1329.15 643.805,1330.42C653.707,1331.3 663.531,1333.12 673.462,1333.6C686.145,1334.21 717.832,1337.1 719.907,1334.08C721.981,1331.05 690.621,1327.44 685.908,1315.43C681.196,1303.43 684.093,1271.74 691.631,1262.05C699.17,1252.36 717.929,1256.08 731.139,1257.29C746.735,1258.71 779.013,1272.42 785.21,1270.58C791.406,1268.75 764.054,1251.07 768.317,1246.27C772.581,1241.48 796.613,1240.55 810.791,1241.83C825.399,1243.14 843.422,1247.57 855.964,1254.17C867.934,1260.46 876.043,1276.43 886.043,1281.39C895.01,1285.84 911.465,1279.69 915.963,1283.92ZM1513.83,1490.44C1517.42,1491.25 1530.46,1493.41 1532.73,1492.03C1535,1490.65 1531.06,1482.96 1527.47,1482.15C1523.88,1481.34 1513.45,1485.77 1511.18,1487.16C1509.98,1487.89 1512.46,1490.13 1513.83,1490.44ZM1200.08,1486.05C1203.11,1488.12 1226.45,1491.87 1228.09,1490.55C1229.74,1489.23 1214.6,1478.85 1209.93,1478.1C1205.77,1477.43 1197.05,1483.97 1200.08,1486.05ZM1464.21,1481.68C1466.2,1484.14 1482.87,1486.5 1489.02,1486.06C1493.66,1485.73 1503.08,1481.5 1501.09,1479.04C1499.11,1476.57 1483.25,1470.84 1477.11,1471.29C1471.6,1471.68 1462.22,1479.22 1464.21,1481.68ZM1131.13,1457.65C1132.18,1459.52 1151.68,1464.11 1160.15,1466.77C1167.4,1469.04 1182.96,1475.46 1181.91,1473.6C1180.86,1471.74 1162.31,1458.25 1153.85,1455.59C1146.59,1453.31 1130.08,1455.79 1131.13,1457.65ZM940.797,1386.25C937.778,1386.43 938.086,1395.21 941.167,1396.79C944.247,1398.37 959.34,1397.49 959.279,1395.74C959.217,1393.98 943.815,1386.08 940.797,1386.25Z" style="fill:rgb(18,0,255);"/>
    </g>
    <g id="T02" transform="matrix(0.60344,0,0,1.19727,69.2021,-869.98)">
        <path d="M-45.375,2075.4C-42.699,2040.34 -38.512,2033.26 -61.836,2036.8C-85.16,2040.34 -85.64,2019.52 -98.873,2056.1C-112.106,2092.68 -130.551,2129.13 -98.873,2126.86C-67.196,2124.59 -48.051,2110.45 -45.375,2075.4ZM-452.786,2017.5C-435.707,2031.4 -406.6,2014.7 -423.979,2004.63C-441.357,1994.57 -442.559,1988.97 -448.67,1991.77C-454.781,1994.57 -477.03,1992.91 -465.131,2004.63C-453.232,2016.36 -455.458,2015.33 -452.786,2017.5ZM-275.829,1901.99C-266.901,1907.12 -272.261,1904.26 -288.175,1920.92C-304.09,1937.57 -298.935,1933.77 -308.752,1953.17C-318.568,1972.58 -316.484,2006.35 -321.097,1978.9C-325.711,1951.45 -316.536,1951.27 -329.328,1953.17C-342.12,1955.07 -345.404,1978.02 -345.789,1959.6C-346.174,1941.19 -348.827,1934.3 -337.558,1937.75C-326.29,1941.19 -314.483,1954.82 -325.213,1937.75C-335.942,1920.67 -328.364,1927.51 -337.558,1919.87C-346.753,1912.22 -357.057,1911.9 -341.674,1908.14C-326.29,1904.38 -324.855,1908.93 -316.982,1900.62C-309.109,1892.31 -297.005,1887.23 -308.752,1901.99C-320.498,1916.75 -330.068,1922.07 -316.982,1920.92C-303.897,1919.77 -312.396,1917.94 -300.521,1908.14C-288.646,1898.34 -277.877,1900.81 -275.829,1901.99ZM172.734,1892.6C189.365,1851.09 165.284,1821.08 123.351,1856.68C81.417,1892.28 74.683,1900.62 73.968,1930.91C73.252,1961.2 44.796,2012.13 94.544,1976.46C144.292,1940.78 168.513,1903.13 172.734,1892.6ZM-131.795,1963.11C-126.85,1944.39 -141.629,1969.01 -148.256,1963.11C-154.884,1957.2 -163.206,1948.07 -156.487,1963.11C-149.768,1978.14 -146.852,1984.13 -140.026,1977.71C-133.2,1971.29 -133.558,1969.78 -131.795,1963.11ZM-164.717,1966.04C-166.811,1944.5 -168.247,1945.98 -181.179,1953.68C-194.11,1961.39 -180.459,1962.31 -197.64,1966.04C-214.82,1969.77 -238.857,1972.11 -222.331,1976.46C-205.805,1980.81 -205.364,1970.96 -193.524,1976.46C-181.685,1981.95 -164.562,1967.64 -164.717,1966.04ZM-230.562,1972.47C-229.718,1948.52 -243.844,1944.06 -251.138,1940.92C-258.431,1937.77 -274.087,1922.1 -267.599,1937.75C-261.111,1953.39 -266.693,1936.49 -255.253,1959.6C-243.813,1982.72 -230.711,1976.7 -230.562,1972.47ZM-403.403,1908.14C-410.832,1907.17 -409.653,1894.81 -415.748,1908.14C-421.844,1921.47 -449.823,1932.3 -432.209,1933.87C-414.595,1935.45 -414.454,1941.74 -407.518,1933.87C-400.582,1926.01 -401.391,1908.4 -403.403,1908.14ZM-362.25,1901.99C-364.117,1886.45 -373.98,1869.81 -374.596,1888.84C-375.212,1907.88 -376.139,1925.44 -370.48,1919.87C-364.822,1914.3 -361.369,1909.33 -362.25,1901.99ZM-49.632,1811.94C-61.624,1837.25 -58.694,1820.97 -65.951,1843.81C-73.237,1866.74 -65.535,1881.34 -74.182,1863.11C-82.828,1844.88 -80.797,1890.22 -82.412,1843.81C-84.027,1797.4 -68.246,1784.42 -86.528,1785.91C-104.809,1787.4 -103.242,1784.17 -111.219,1792.35C-119.196,1800.52 -102.118,1803.4 -119.45,1811.64C-136.781,1819.89 -134.317,1818.88 -144.141,1830.94C-153.966,1843 -160.207,1878.72 -156.487,1850.24C-152.767,1821.76 -141.985,1803.66 -152.372,1805.21C-162.758,1806.77 -146.932,1796.16 -168.833,1805.21C-190.733,1814.27 -191.595,1800.03 -201.755,1818.08C-211.915,1836.13 -205.896,1871.23 -214.101,1850.24C-222.306,1829.26 -195.343,1822.14 -218.216,1811.64C-241.089,1801.15 -252.308,1798.97 -263.484,1805.21C-274.66,1811.45 -284.031,1815.08 -279.945,1824.51C-275.859,1833.94 -269.331,1809.45 -267.599,1824.51C-265.867,1839.57 -247.35,1843.43 -267.599,1850.24C-287.848,1857.06 -286.342,1884.4 -292.291,1856.68C-298.239,1828.95 -273.229,1829.19 -300.521,1830.94C-327.813,1832.69 -340.272,1819.57 -333.443,1837.38C-326.614,1855.18 -312.859,1867.66 -329.328,1869.54C-345.797,1871.43 -344.657,1883.9 -354.019,1869.54C-363.382,1855.18 -358.558,1862.29 -366.365,1863.11C-374.172,1863.93 -402.271,1884.78 -382.826,1863.11C-363.382,1841.44 -371.434,1873.04 -354.019,1843.81C-336.605,1814.58 -316.942,1819.22 -316.982,1798.78C-317.022,1778.34 -301.993,1765.51 -321.097,1766.61C-340.202,1767.72 -370.235,1783 -354.019,1766.61C-337.804,1750.23 -346.192,1775.01 -325.213,1747.32C-304.234,1719.62 -301.367,1706.68 -296.406,1721.58C-291.445,1736.49 -310.084,1742.15 -288.175,1740.88C-266.267,1739.61 -259.664,1709.3 -259.368,1734.45C-259.073,1759.6 -259.426,1759.26 -255.253,1766.61C-251.08,1773.97 -254.08,1779.62 -238.792,1773.05C-223.505,1766.47 -209.168,1775.13 -222.331,1760.18C-235.494,1745.23 -240.416,1756.89 -230.562,1747.32C-220.707,1737.74 -214.45,1727.79 -209.985,1740.88C-205.52,1753.98 -217.572,1771.63 -201.755,1753.75C-185.938,1735.86 -170.187,1740.79 -177.063,1728.02C-183.939,1715.25 -199.199,1704.69 -181.179,1708.72C-163.158,1712.75 -165.802,1703.44 -156.487,1708.72C-147.172,1714 -155.498,1714.43 -144.141,1715.15C-132.784,1715.87 -139.361,1731.18 -127.68,1702.28C-115.999,1673.39 -118.515,1663.77 -98.873,1666.39C-79.231,1669.02 -86.479,1678.77 -70.066,1666.39C-53.654,1654.02 -28.391,1675.13 -33.029,1653.96C-37.668,1632.78 -30.378,1634.64 -53.605,1631.52C-76.833,1628.41 -86.706,1637.27 -94.758,1619.41C-102.811,1601.54 -91.015,1598.42 -107.104,1599.36C-123.193,1600.29 -112.984,1605.04 -127.68,1605.79C-142.376,1606.54 -134.954,1604.67 -148.256,1599.36C-161.559,1594.05 -168.426,1590.3 -181.179,1599.36C-193.931,1608.42 -204.059,1599.16 -209.985,1619.41C-215.911,1639.65 -215.412,1635.63 -205.87,1637.95C-196.328,1640.28 -175.134,1651.4 -193.524,1653.96C-211.915,1656.52 -198.864,1650.03 -209.985,1666.39C-221.107,1682.76 -204.21,1674.28 -226.446,1678.83C-248.682,1683.38 -255.267,1707.32 -259.368,1689.42C-263.469,1671.51 -260.15,1671.39 -247.023,1653.96C-233.895,1636.53 -232.661,1645.88 -234.677,1631.52C-236.693,1617.16 -229.313,1616.16 -218.216,1592.92C-207.119,1569.68 -194.803,1539.69 -181.179,1531.26C-167.554,1522.83 -146.393,1524.94 -131.795,1515.45C-117.198,1505.96 -111.883,1500.64 -94.758,1496.43C-77.633,1492.22 -68.906,1487.4 -49.49,1483.56C-30.074,1479.72 -25.28,1479.05 -20.683,1457.83C-16.087,1436.62 -13.453,1428.46 -16.568,1425.67C-19.684,1422.87 -33.348,1420.85 -28.914,1412.8C-24.479,1404.75 -26.891,1397.18 -16.568,1393.5C-6.245,1389.82 -7.4,1377.34 4.008,1380.63C15.417,1383.93 22.9,1386.17 32.815,1380.63C42.73,1375.1 34.542,1374.68 53.391,1369.49C72.24,1364.3 62.195,1363.4 73.968,1369.49C85.74,1375.59 76.663,1380.29 94.544,1380.63C112.425,1380.99 123.493,1383.34 135.696,1387.07C147.9,1390.8 148.007,1403.46 156.273,1387.07C164.539,1370.68 154.803,1370.76 168.619,1369.49C182.434,1368.23 175.796,1382.05 185.08,1369.49C194.364,1356.94 195.532,1338.08 201.541,1352.41C207.549,1366.75 208.328,1347.75 218.002,1369.49C227.675,1391.23 248.05,1376.27 238.578,1369.49C229.106,1362.71 226.231,1356.09 238.578,1352.41C250.925,1348.74 252.003,1334.24 259.154,1335.34C266.305,1336.43 263.814,1309.63 267.385,1335.34C270.955,1361.04 258.099,1377.95 275.615,1369.49C293.132,1361.04 291.032,1353.3 304.422,1352.41C317.813,1351.53 309.292,1361.12 324.998,1352.41C340.705,1343.7 348.302,1351.06 349.69,1352.41C356.444,1359.01 363.924,1357.1 368.102,1356.8C367.028,1353.39 366.639,1348.28 370.266,1342.04C376.585,1331.16 386.135,1335.28 399.302,1342.04C412.333,1348.72 381.954,1384.79 370.615,1362.07C369.971,1363.89 368.909,1366.3 367.355,1369.49C355.675,1393.48 374.918,1390.58 349.69,1393.5C324.462,1396.42 343.457,1436.04 337.344,1432.1C331.231,1428.16 334.227,1384.71 320.883,1393.5C307.54,1402.3 312.167,1379.28 308.537,1406.37C304.907,1433.45 315.637,1463.6 300.307,1438.53C284.977,1413.47 285.39,1411.48 279.731,1419.23C274.071,1426.99 276.912,1438.98 263.27,1432.1C249.627,1425.22 228.571,1434.07 246.809,1451.4C265.046,1468.72 286.348,1478.42 296.192,1483.56C306.036,1488.71 308.946,1496.05 329.114,1483.56L329.156,1483.44C331.523,1476.49 334.281,1474.62 337.362,1476.18C348.37,1462.54 346.918,1445.39 353.805,1470.7C362.068,1501.06 372.954,1542.19 360.178,1515.45C351.569,1497.43 343.765,1479.41 337.362,1476.18C335.189,1478.87 332.533,1481.42 329.232,1483.49L329.114,1483.56C321.83,1505.17 329.919,1514.56 337.344,1515.45C344.769,1516.34 367.815,1527.95 345.575,1531.26C323.334,1534.56 319.312,1549.7 308.537,1531.26C297.762,1512.81 296.544,1496.93 292.076,1515.45C287.609,1533.98 274.69,1533.4 296.192,1545.74C317.693,1558.08 358.876,1520.46 337.344,1545.74C315.813,1571.01 295.245,1563.99 308.537,1576.02C321.83,1588.06 326.911,1581.33 337.344,1592.92C347.777,1604.52 370.448,1601.77 345.575,1605.79C320.702,1609.81 307.903,1614.31 320.883,1619.41C333.864,1624.5 365.433,1610.39 360.178,1625.09C354.923,1639.79 353.32,1633.77 329.114,1637.95C304.907,1642.14 312.338,1626.98 292.076,1653.96C271.815,1680.94 315.056,1701.95 283.846,1695.85C252.636,1689.75 277.834,1663.79 246.809,1678.83C215.783,1693.87 226.323,1692.54 209.771,1695.85C193.219,1699.16 210.323,1680.72 193.31,1702.28C176.297,1723.85 179.743,1729.38 168.619,1715.15C157.494,1700.92 147.282,1703.58 143.927,1708.72C140.572,1713.86 115.822,1741.13 131.581,1715.15C147.341,1689.17 155.761,1703.77 160.388,1678.83C165.015,1653.9 188.691,1636.97 139.812,1653.96C90.933,1670.94 91.686,1668.97 73.968,1678.83C56.25,1688.69 46.947,1716.75 32.815,1695.85C18.683,1674.95 24.578,1651.48 12.239,1678.83C-0.101,1706.19 15.959,1720.37 -12.453,1715.15C-40.865,1709.93 -53.157,1744.73 -53.605,1715.15C-54.053,1685.57 -41.081,1672.65 -65.951,1689.42C-90.821,1706.19 -91.177,1689.13 -102.989,1715.15C-114.8,1741.17 -130.98,1760.45 -107.104,1760.18C-83.228,1759.91 -94.623,1770.33 -86.528,1747.32C-78.432,1724.3 -79.923,1714.24 -74.182,1728.02C-68.441,1741.8 -82.245,1758.58 -65.951,1760.18C-49.657,1761.79 -52.045,1780.19 -41.26,1766.61C-30.474,1753.04 -26.241,1758.46 -16.568,1747.32C-6.895,1736.17 -5.633,1725.23 8.123,1734.45C21.88,1743.67 24.967,1755.59 32.815,1740.88C40.663,1726.18 46.612,1720.11 61.622,1721.58C76.632,1723.05 57.866,1700.37 90.429,1715.15C122.991,1729.93 132.827,1736.47 115.12,1734.45C97.414,1732.42 100.953,1720.23 82.198,1734.45C63.443,1748.67 36.621,1754.83 61.622,1760.18C86.623,1765.54 98.382,1781.44 106.89,1766.61C115.398,1751.79 135.138,1728.84 127.466,1753.75C119.794,1778.65 118.926,1790.79 102.774,1798.78C86.623,1806.77 98.155,1818.65 82.198,1805.21C66.241,1791.78 69.716,1782.92 53.391,1792.35C37.067,1801.77 70.926,1810.27 32.815,1811.64C-5.296,1813.02 6.929,1820.02 -16.568,1818.08C-40.066,1816.14 -40.531,1825.27 -49.49,1811.64C-43.323,1798.59 -46.13,1800.9 -52.24,1806.95C-58.099,1795.74 -57.414,1788.43 -65.951,1798.78C-75.634,1810.52 -88.315,1829.13 -74.182,1824.51C-67.218,1822.23 -58.171,1812.83 -52.24,1806.95C-51.454,1808.46 -50.55,1810.03 -49.49,1811.64L-49.632,1811.94ZM402.491,1818.08C394.846,1790.02 366.278,1797.92 371.392,1824.51C376.507,1851.11 360.542,1874.09 384.923,1863.11C409.304,1852.13 403.549,1821.96 402.491,1818.08ZM650.104,1753.75C654.943,1740.73 648.142,1729.79 637.758,1734.45C627.374,1739.11 611.807,1756.1 621.297,1760.18C630.787,1764.26 646.802,1762.63 650.104,1753.75ZM485.846,1657.25C469.742,1651.2 452.012,1653.56 459.579,1663.69C467.146,1673.81 465.978,1683.32 473.974,1676.55C481.971,1669.78 490.043,1658.83 485.846,1657.25ZM732.409,1637.95C736.592,1625.55 737.061,1615.56 728.294,1619.41C719.527,1623.26 698.347,1633.6 707.718,1637.95C717.089,1642.31 728.227,1650.36 732.409,1637.95ZM436.11,1555.93C426.489,1554.64 434.33,1579.3 423.765,1567.19C413.199,1555.08 423.573,1545.13 415.534,1540.27C407.495,1535.4 412.061,1522.69 403.188,1540.27C394.316,1557.85 404.679,1557.16 390.843,1567.19C377.006,1577.22 343.463,1592.06 370.266,1588.49C397.07,1584.91 411.44,1573 407.304,1588.49C403.167,1603.97 389.44,1623.5 403.188,1618.66C416.937,1613.81 411.709,1617.75 423.765,1605.79C435.82,1593.83 440.138,1556.47 436.11,1555.93ZM559.932,1550.32C558.77,1551.58 556.165,1552.89 551.581,1554.33C528.704,1561.47 484.898,1573.33 510.185,1574.96C535.472,1576.58 555.476,1604.57 563.684,1574.96C567.882,1559.81 563.678,1554.39 559.932,1550.32ZM497.135,1574.96C500.94,1554.28 484.975,1551.99 481.378,1560.76C477.782,1569.53 469.332,1572.45 477.263,1580.06C485.194,1587.66 496.507,1578.37 497.135,1574.96ZM469.033,1531.73C460.055,1539.3 454.535,1549.89 457.779,1555.93C461.022,1561.97 468.127,1588.02 459.579,1569.45C451.031,1550.88 444.27,1570.46 448.456,1540.27C452.643,1510.08 452.012,1517.85 459.579,1515.73C467.146,1513.6 478.01,1524.16 469.033,1531.73ZM701.036,1460.46C700.578,1460.08 700.964,1459.96 703.602,1464.26C708.968,1473.01 721.047,1484.38 707.718,1481.08C694.388,1477.78 692.965,1481.28 695.372,1472.11C697.779,1462.94 703.984,1453.78 695.372,1457.83C686.759,1461.88 690.312,1461.2 683.026,1457.83C675.74,1454.46 661.382,1448.48 670.68,1457.83C679.978,1467.18 683.607,1462.73 678.911,1472.11C674.214,1481.49 676.64,1499.13 670.68,1490.05C664.721,1480.96 671.97,1484.73 666.565,1472.11C661.16,1459.5 668.823,1463.1 654.219,1464.26C639.615,1465.43 641.027,1457.52 637.758,1472.11C634.489,1486.7 644.638,1481.79 633.643,1490.05C622.648,1498.31 623.734,1497.54 617.182,1490.05C610.629,1482.56 618.231,1473.55 608.951,1472.11C599.671,1470.68 596.621,1470.21 592.49,1481.08C588.36,1491.95 575.564,1507.42 584.26,1502.86C592.955,1498.31 598.336,1496.15 604.836,1490.05C611.336,1483.94 610.278,1473.22 608.951,1490.05C607.625,1506.87 605.43,1521.98 613.067,1522.16C620.704,1522.34 631.435,1516.06 621.297,1528.59C611.16,1541.13 602.401,1551.65 604.836,1560.76C607.271,1569.86 617.649,1583.86 621.297,1567.19C624.945,1550.52 624.843,1544.79 633.643,1528.59C642.443,1512.4 634.865,1511.17 645.989,1509.3C657.112,1507.42 660.288,1504.1 666.565,1502.86C672.842,1501.62 676.596,1503.55 683.026,1502.86C689.456,1502.17 692.704,1506.63 691.257,1515.73C689.81,1524.83 681.999,1538.75 687.141,1541.46C692.284,1544.17 704.67,1540.53 703.602,1535.03C702.535,1529.53 696.363,1510.46 703.602,1502.86C710.842,1495.27 714.792,1490.63 720.063,1490.05C725.335,1489.46 733.779,1479.69 736.524,1490.05C739.27,1500.4 738.654,1515.07 744.755,1515.73C750.856,1516.38 748.864,1507.8 757.101,1509.3C765.338,1510.79 764.866,1519.6 769.447,1515.73C774.027,1511.86 775.246,1481.2 781.792,1481.08C788.338,1480.96 786.255,1505.67 790.023,1509.3C793.791,1512.92 794.42,1519.25 802.369,1509.3C810.317,1499.34 809.689,1515.17 810.599,1502.86C811.51,1490.55 808.103,1490.52 806.484,1481.08C804.865,1471.64 803.044,1475.08 810.599,1470.7C818.154,1466.32 825.743,1458.14 827.06,1457.83C828.377,1457.53 823.922,1442.11 831.175,1445.16C838.429,1448.2 835.101,1441.28 839.406,1451.4C843.711,1461.52 842.532,1472.87 847.636,1464.26C852.741,1455.66 854.51,1446.11 861.462,1445.16C868.415,1444.21 872.374,1454.36 876.443,1445.16C880.512,1435.95 889.824,1437.69 880.855,1432.1C871.886,1426.5 874.099,1426.01 867.144,1419.23C860.189,1412.46 865.277,1406.66 855.867,1414.06C846.457,1421.47 856.522,1427.21 843.521,1425.67C830.521,1424.12 831.474,1430.66 822.945,1425.67C814.415,1420.67 812.962,1417.55 806.484,1432.1C800.005,1446.64 795.976,1449 790.023,1451.4C784.07,1453.8 781.024,1454.16 773.562,1451.4C766.099,1448.63 764.546,1455.37 757.101,1457.83C749.655,1460.29 747.052,1463.06 740.64,1457.83C734.228,1452.61 741.101,1456.69 732.409,1457.83C723.717,1458.97 711.324,1471.8 720.063,1457.83C728.803,1443.86 736.94,1432.14 728.294,1438.53C719.648,1444.92 723.946,1444.36 715.948,1451.4C707.951,1458.44 705.018,1450.6 703.602,1457.83C702.883,1461.51 701.508,1460.85 701.036,1460.46L701.036,1460.46ZM555.743,1544.06C556.251,1546.53 558.032,1548.25 559.932,1550.32C561.948,1548.13 559.617,1546.14 555.743,1544.06C555.296,1541.88 555.84,1539.12 558.169,1535.03C568.346,1517.13 577.416,1480.46 571.914,1477.13C553.379,1465.92 558.343,1501.23 551.581,1515.73C544.818,1530.23 529.943,1527.23 538.992,1535.03C543.08,1538.55 550.714,1541.37 555.743,1544.06ZM827.06,1545.74C838.149,1525.75 845.309,1509.78 831.175,1515.45C817.042,1521.13 816.346,1517 810.599,1531.26C804.853,1545.52 824.401,1550.53 827.06,1545.74ZM526.646,1502.86C517.765,1514.03 484.153,1516.61 502.561,1522.16C520.969,1527.71 518.787,1553.38 526.646,1531.73C534.505,1510.08 528.778,1500.18 526.646,1502.86ZM551.338,1418.36C543.25,1405.74 537.771,1404.25 522.531,1414.06C507.29,1423.88 526.25,1438.62 501.955,1434.22C477.66,1429.83 480.99,1427.14 464.917,1434.22C448.844,1441.3 452.464,1434.91 436.11,1438.53C419.757,1442.15 412.792,1431.2 407.304,1444.96C401.816,1458.73 401.889,1460.45 390.843,1464.26C379.797,1468.08 360.464,1476.95 370.266,1483.56C380.068,1490.17 392.207,1498.63 411.419,1483.56C430.631,1468.5 436.454,1471.08 452.571,1464.26C468.689,1457.45 459.272,1449.17 481.378,1451.4C503.485,1453.63 512.959,1460.22 518.416,1451.4C523.873,1442.58 554.609,1423.46 551.338,1418.36ZM966.979,1477.13C965.494,1468.36 955.408,1472.9 954.633,1477.13C953.859,1481.36 954.484,1489.09 958.748,1490C963.013,1490.9 967.385,1479.53 966.979,1477.13ZM925.826,1384.19C920.747,1378.09 923.716,1396.69 917.596,1399.93C911.476,1403.18 908.78,1407.05 909.365,1412.8C909.95,1418.55 908.518,1414.76 905.25,1425.67C901.982,1436.57 896.312,1439.7 905.25,1438.53C914.189,1437.37 922.452,1454.01 921.711,1438.53C920.97,1423.06 912.866,1427.87 917.596,1419.23C922.326,1410.6 931.454,1412.2 929.942,1406.37C928.429,1400.53 926.784,1385.34 925.826,1384.19ZM596.606,1414.06C587.034,1399.95 586.866,1401.37 576.029,1404.77C565.193,1408.16 554.216,1404.94 559.568,1416.33C564.921,1427.71 550.56,1439.04 567.799,1432.1C585.037,1425.16 599.747,1418.7 596.606,1414.06ZM645.989,1393.56C633.969,1392.01 631.958,1395.64 633.643,1401.9C635.328,1408.16 636.458,1421.67 641.873,1414.06C647.289,1406.46 658.009,1395.12 645.989,1393.56ZM900.418,1371.9C900.613,1371.36 900.635,1371.15 900.447,1371.36C900.35,1371.47 900.252,1371.57 900.153,1371.66C897.842,1369.64 896.568,1369.51 895.628,1370.39C892.602,1366.99 889.991,1361 888.789,1369.04C886.974,1381.19 888.307,1373.62 884.674,1382.97C884.477,1383.48 884.283,1384 884.092,1384.54C880.189,1388.48 878.119,1392.78 881.562,1393.55C880.238,1400.01 880.511,1404.74 884.674,1399.93C886.49,1397.84 888.669,1394.48 890.825,1390.8C898.087,1385.79 904.116,1375.73 902.708,1374.2C901.85,1373.27 901.092,1372.51 900.418,1371.9ZM872.907,1374.51C872.691,1374.7 872.423,1374.85 872.115,1374.97C870.037,1369.42 864.105,1366.22 864.097,1374.2C864.088,1385.16 858.174,1394.42 864.097,1393.5C865.323,1393.31 866.362,1392.78 867.245,1392.05C868.783,1396 870.283,1397.26 872.328,1393.67C874.551,1389.76 873.65,1380.27 872.907,1374.51ZM727.09,1370.51C726.156,1360.08 714.598,1347.66 715.948,1357.44C717.298,1367.21 706.277,1375.35 715.948,1381.77C725.62,1388.19 728.024,1380.94 727.09,1370.51ZM798.253,1369.85C804.412,1360.52 790.359,1361.22 785.908,1370.51C781.456,1379.8 776.668,1379.12 785.908,1382.82C795.147,1386.52 797.065,1371.65 798.253,1369.85ZM1008.13,1348.47C997.372,1352.84 992.016,1340.63 991.671,1353.89C991.325,1367.14 988.549,1386.44 995.786,1380.63C1003.02,1374.83 1003.41,1373.85 1008.13,1369.04C1012.86,1364.23 1011.04,1347.29 1008.13,1348.47ZM872.907,1374.51C872.719,1373.05 872.54,1371.83 872.426,1371.01C872.311,1370.18 872.261,1369.76 872.328,1369.87C873.806,1372.46 873.747,1373.78 872.907,1374.51ZM1086.32,1316.31C1076.18,1317.12 1068.1,1300.87 1065.75,1322.74C1063.39,1344.61 1061.95,1386.4 1069.86,1365.82C1077.78,1345.24 1068.42,1354.62 1078.09,1344.31C1087.77,1333.99 1096.47,1315.49 1086.32,1316.31ZM839.406,1361.34C841.856,1344.36 832.232,1340.22 825.098,1348.47C817.964,1356.72 802.606,1366.62 814.714,1369.85C826.823,1373.09 839.103,1363.43 839.406,1361.34ZM776.094,1344.37C763.683,1353.82 747.87,1353.12 752.985,1357.44C758.101,1361.76 766.564,1370.08 769.447,1363.19C772.329,1356.3 777.443,1343.34 776.094,1344.37ZM1053.4,1341.31C1045.01,1332.12 1036.86,1314.98 1036.94,1329.17C1037.01,1343.36 1040.54,1359.02 1045.17,1357.44C1049.8,1355.86 1061.79,1350.5 1053.4,1341.31ZM822.945,1297.01C829.905,1283.63 819.187,1290.81 802.369,1297.01C785.55,1303.2 786.18,1299.57 771.518,1303.44C756.855,1307.31 719.908,1321.21 728.321,1322.74C736.733,1324.27 750.708,1332.16 765.067,1329.17C779.426,1326.18 786.986,1331.06 798.253,1322.74C809.521,1314.42 822.896,1297.1 822.945,1297.01ZM386.727,1309.87C385.231,1335.19 425.045,1275.39 411.419,1277.71C397.793,1280.03 392.208,1276.43 386.727,1290.57C381.246,1304.71 386.944,1306.21 386.727,1309.87ZM691.257,1243.61C692.402,1231 690.183,1239.29 683.026,1243.61C675.869,1247.94 670.272,1253.41 666.565,1251.6C662.858,1249.79 652.34,1243.37 654.219,1251.6C656.098,1259.82 657.937,1267.62 666.565,1269.67C675.193,1271.71 681.565,1262.24 683.026,1259.58C684.487,1256.92 691.097,1245.37 691.257,1243.61ZM987.555,1154.77C984.486,1148.77 985.344,1135.77 975.209,1143.84C965.075,1151.92 962.409,1149.45 953.439,1161.91C944.468,1174.38 938.609,1166.77 929.439,1181.21C920.269,1195.66 907.509,1208.18 898.292,1206.94C889.076,1205.7 883.851,1206.57 876.443,1213.38C869.036,1220.19 872.015,1235.55 864.097,1226.24C856.18,1216.93 850.93,1204.21 848.261,1213.38C845.593,1222.55 852.691,1222.12 839.406,1232.68C826.12,1243.24 809.547,1253.19 814.714,1258.41C819.882,1263.63 836.562,1276.69 848.261,1264.84C859.961,1252.99 872.042,1250.21 880.559,1245.54C889.076,1240.87 882.176,1233.21 892.904,1239.11C903.633,1245.01 909.717,1255.99 913.481,1251.98C917.245,1247.97 928.582,1238.67 937.943,1232.68C947.304,1226.69 948.986,1228.89 953.439,1219.81C957.891,1210.73 953.279,1188.36 962.864,1194.08C972.448,1199.8 976.559,1204.48 979.325,1200.51C982.09,1196.54 980.545,1190.41 983.964,1181.21C987.384,1172.02 991.671,1161.91 991.671,1161.91C991.671,1161.91 989.617,1158.81 987.555,1154.77ZM740.64,1245.54C733.73,1239.8 731.833,1248.36 732.409,1251.98C732.985,1255.6 731.952,1262.28 736.524,1258.41C741.096,1254.54 742.211,1246.85 740.64,1245.54ZM728.294,1225.17C725.495,1233.33 721.994,1232.33 720.063,1233.12C718.133,1233.92 713.937,1236.28 720.063,1236.92C726.19,1237.56 728.607,1224.26 728.294,1225.17ZM777.677,1219.81C771.18,1223.17 763.543,1212.55 765.331,1219.81C767.12,1227.07 762.817,1235.12 769.447,1232.68C776.076,1230.24 778.94,1219.16 777.677,1219.81ZM892.904,1120.17C885.294,1116.75 887.065,1112.65 876.443,1120.17C865.822,1127.68 868.7,1134.5 859.982,1134.79C851.265,1135.07 843.542,1132.81 851.752,1143.84C859.961,1154.87 865.512,1159.18 876.443,1149.05C887.374,1138.92 900.514,1123.59 892.904,1120.17ZM1139.82,1095.88C1131.02,1086.45 1129.29,1079.64 1115.13,1095.88C1100.97,1112.12 1099.59,1111.29 1090.44,1116.88C1081.28,1122.48 1073.25,1121.48 1069.86,1129.75C1066.47,1138.02 1057.27,1147.21 1069.86,1142.62C1082.45,1138.02 1076.57,1137.7 1089.06,1136.18C1101.55,1134.67 1101.13,1137.7 1106.9,1136.18C1112.66,1134.67 1112.03,1131.46 1123.36,1123.32C1134.69,1115.17 1138.71,1129.87 1139.82,1116.88C1140.93,1103.89 1141.44,1097.62 1139.82,1095.88ZM917.596,1108.25C912.348,1101.4 908.569,1109.05 905.25,1114.97C901.931,1120.89 894.1,1127.38 901.135,1129.75C908.17,1132.12 909.528,1139.79 913.481,1129.75C917.434,1119.71 919.46,1110.68 917.596,1108.25ZM946.403,1108.25C947.437,1090.91 930.161,1103.89 929.942,1108.25C929.722,1112.61 927.616,1112 934.057,1114.97C940.498,1117.93 946.257,1110.68 946.403,1108.25ZM979.325,1086.09C970.652,1085.57 960.267,1073.02 958.748,1086.09C957.23,1099.17 947.601,1101.48 958.748,1104.02C969.896,1106.56 971.07,1112.12 975.209,1104.02C979.349,1095.92 987.997,1086.61 979.325,1086.09ZM1012.25,1078.29C1011.43,1068.99 1003.15,1072.48 995.786,1078.29C988.423,1084.1 978.558,1074.2 987.555,1086.09C996.553,1097.99 990.205,1099.39 999.901,1095.88C1009.6,1092.37 1012.44,1080.45 1012.25,1078.29ZM1505.51,922.985C1503.4,921.632 1502,923.16 1501.02,926.217C1498.93,927.565 1496.52,928.944 1493.73,930.327C1474.04,940.086 1490.34,939.072 1473.16,943.193C1455.97,947.314 1476.44,927.628 1444.35,949.626C1412.26,971.623 1413.22,973.179 1399.08,975.358C1384.94,977.537 1404.01,971.973 1378.51,988.224C1353,1004.47 1367.77,1001.37 1341.47,1007.52C1315.17,1013.67 1315.13,1010.02 1304.43,1020.39C1293.73,1030.76 1298.18,1052.84 1287.97,1033.26C1277.76,1013.67 1283.5,1000.72 1267.39,1007.52C1251.28,1014.33 1243.05,1016.04 1230.36,1033.26C1217.66,1050.47 1210.83,1056.06 1197.43,1065.42C1184.03,1074.78 1159.1,1087.82 1168.63,1091.15C1178.15,1094.49 1196.57,1102.55 1226.24,1084.72C1255.91,1066.89 1271.87,1050.04 1283.85,1052.55C1295.84,1055.07 1306.61,1067.78 1316.78,1052.55C1326.94,1037.33 1330.18,1035.1 1345.58,1033.26C1360.98,1031.41 1369.44,1044.19 1390.85,1020.39C1412.26,996.59 1417.7,1001.92 1432,994.657C1446.3,987.392 1441.87,988.947 1456.69,975.358C1471.52,961.768 1469.15,951.389 1477.27,962.492C1485.39,973.595 1496.43,964.804 1497.85,956.059C1498.85,949.876 1498.67,933.595 1501.02,926.217C1502.73,925.114 1504.22,924.032 1505.51,922.985L1505.51,922.985C1512.71,927.603 1509,926.755 1518.42,923.894C1527.84,921.033 1540,901.955 1530.77,904.595C1521.54,907.235 1518.01,903.651 1514.31,911.028C1514.31,911.028 1513.82,916.284 1505.51,922.985ZM1166.51,1046.12C1169.96,1032.55 1147.81,1034.66 1152.17,1046.12C1156.52,1057.58 1154.92,1060.7 1160.4,1058.99C1165.88,1057.27 1166.17,1047.46 1166.51,1046.12Z" style="fill:rgb(202,255,0);fill-opacity:0.99;"/>
    </g>
</svg>
