<svg width="100%" height="100%" viewBox="0 0 448 294" version="1.1" xmlns="http://www.w3.org/2000/svg" xmlns:xlink="http://www.w3.org/1999/xlink" xml:space="preserve" xmlns:serif="http://www.serif.com/" style="fill-rule:evenodd;clip-rule:evenodd;stroke-linejoin:round;stroke-miterlimit:2;">
    <g transform="matrix(1,0,0,1,-577.761,-301)">
        <g>
            <g transform="matrix(2.07123,0,0,2.07123,-694.363,-359.953)">
                <path d="M643.115,384.235C641.656,384.182 639.727,384.143 637.33,384.117C634.932,384.091 632.366,384.065 629.629,384.039C626.893,384.013 624.157,384 621.421,384L614.189,384C614.241,382.905 614.28,381.446 614.306,379.622C614.332,377.798 614.345,375.713 614.345,373.368L614.345,357.263C614.345,353.302 614.332,349.341 614.306,345.38C614.28,341.419 614.267,337.731 614.267,334.318C614.267,330.904 614.254,327.946 614.228,325.444C614.202,322.943 614.189,321.17 614.189,320.128L620.912,320.128C623.362,320.128 625.864,320.115 628.418,320.089C630.971,320.063 633.473,320.024 635.923,319.972C638.372,319.92 640.665,319.867 642.802,319.815C642.802,320.493 642.815,321.079 642.841,321.574C642.868,322.07 642.881,322.76 642.881,323.646C642.881,324.272 642.868,325.014 642.841,325.874C642.815,326.734 642.789,327.62 642.763,328.532C642.737,329.444 642.711,330.356 642.685,331.269C642.659,332.181 642.62,333.028 642.568,333.809L626.854,333.809L626.854,342.878L640.535,342.878L640.535,354.527L626.854,354.527L626.854,363.283L642.802,363.283C642.854,364.481 642.907,365.706 642.959,366.957C643.011,368.208 643.05,369.615 643.076,371.179C643.102,372.742 643.115,374.579 643.115,376.69L643.115,384.235Z" style="fill:rgb(255,0,0);fill-rule:nonzero;"/>
                <path d="M646.555,384C646.711,379.049 646.816,374.11 646.868,369.185C646.92,364.26 646.946,359.582 646.946,355.152C646.946,348.846 646.907,342.852 646.829,337.171C646.75,331.49 646.659,325.783 646.555,320.05C649.109,319.789 651.676,319.568 654.256,319.385C656.835,319.203 659.454,319.112 662.112,319.112C665.917,319.112 669.487,319.385 672.823,319.933C676.159,320.48 679.051,321.496 681.501,322.982C683.95,324.467 685.892,326.513 687.325,329.119C688.758,331.725 689.475,335.086 689.475,339.204C689.475,344.311 688.42,348.325 686.309,351.243C684.198,354.162 681.344,356.351 677.748,357.81L690.491,384L676.576,384L666.178,360.156C664.041,360.312 661.826,360.39 659.533,360.39C659.533,364.403 659.559,368.338 659.611,372.195C659.663,376.052 659.819,379.987 660.08,384L646.555,384ZM659.533,348.507C661.148,348.663 662.634,348.741 663.989,348.741C667.533,348.741 670.048,348.077 671.533,346.748C673.018,345.419 673.761,343.425 673.761,340.767C673.761,339.152 673.54,337.849 673.097,336.858C672.654,335.868 672.054,335.086 671.298,334.513C670.543,333.94 669.657,333.549 668.64,333.34C667.624,333.132 666.543,333.028 665.396,333.028C664.562,333.028 663.637,333.067 662.621,333.145C661.604,333.223 660.575,333.34 659.533,333.497L659.533,348.507Z" style="fill:rgb(255,0,0);fill-rule:nonzero;"/>
                <path d="M692.602,384C692.758,379.049 692.863,374.11 692.915,369.185C692.967,364.26 692.993,359.582 692.993,355.152C692.993,348.846 692.954,342.852 692.876,337.171C692.798,331.49 692.706,325.783 692.602,320.05C695.156,319.789 697.723,319.568 700.303,319.385C702.883,319.203 705.502,319.112 708.16,319.112C711.964,319.112 715.535,319.385 718.87,319.933C722.206,320.48 725.098,321.496 727.548,322.982C729.998,324.467 731.939,326.513 733.372,329.119C734.806,331.725 735.522,335.086 735.522,339.204C735.522,344.311 734.467,348.325 732.356,351.243C730.245,354.162 727.392,356.351 723.795,357.81L736.539,384L722.623,384L712.225,360.156C710.088,360.312 707.873,360.39 705.58,360.39C705.58,364.403 705.606,368.338 705.658,372.195C705.71,376.052 705.866,379.987 706.127,384L692.602,384ZM705.58,348.507C707.195,348.663 708.681,348.741 710.036,348.741C713.58,348.741 716.095,348.077 717.58,346.748C719.066,345.419 719.808,343.425 719.808,340.767C719.808,339.152 719.587,337.849 719.144,336.858C718.701,335.868 718.101,335.086 717.346,334.513C716.59,333.94 715.704,333.549 714.688,333.34C713.671,333.132 712.59,333.028 711.443,333.028C710.609,333.028 709.684,333.067 708.668,333.145C707.652,333.223 706.622,333.34 705.58,333.497L705.58,348.507Z" style="fill:rgb(255,0,0);fill-rule:nonzero;"/>
                <path d="M760.305,319.112C768.071,319.112 773.804,321.874 777.504,327.399C781.205,332.923 783.055,340.95 783.055,351.478C783.055,362.162 781.244,370.397 777.621,376.182C773.999,381.967 768.227,384.86 760.305,384.86C756.396,384.86 753.008,384.117 750.142,382.632C747.275,381.146 744.904,378.984 743.027,376.143C741.151,373.303 739.77,369.811 738.884,365.667C737.998,361.524 737.555,356.794 737.555,351.478C737.555,340.793 739.405,332.728 743.106,327.281C746.806,321.835 752.539,319.112 760.305,319.112ZM760.305,364.69C761.973,364.69 763.445,364.312 764.722,363.556C765.999,362.801 767.054,361.758 767.888,360.429C768.722,359.1 769.347,357.51 769.764,355.66C770.181,353.81 770.39,351.764 770.39,349.523C770.39,347.282 770.181,345.21 769.764,343.308C769.347,341.406 768.722,339.751 767.888,338.344C767.054,336.936 765.999,335.842 764.722,335.06C763.445,334.278 761.973,333.888 760.305,333.888C758.637,333.888 757.191,334.291 755.966,335.099C754.741,335.907 753.699,337.015 752.839,338.422C751.979,339.829 751.34,341.484 750.923,343.386C750.506,345.289 750.298,347.334 750.298,349.523C750.298,351.764 750.506,353.81 750.923,355.66C751.34,357.51 751.979,359.1 752.839,360.429C753.699,361.758 754.741,362.801 755.966,363.556C757.191,364.312 758.637,364.69 760.305,364.69Z" style="fill:rgb(255,0,0);fill-rule:nonzero;"/>
                <path d="M786.182,384C786.338,379.049 786.443,374.11 786.495,369.185C786.547,364.26 786.573,359.582 786.573,355.152C786.573,348.846 786.534,342.852 786.456,337.171C786.377,331.49 786.286,325.783 786.182,320.05C788.736,319.789 791.303,319.568 793.883,319.385C796.462,319.203 799.081,319.112 801.739,319.112C805.544,319.112 809.114,319.385 812.45,319.933C815.786,320.48 818.678,321.496 821.128,322.982C823.577,324.467 825.519,326.513 826.952,329.119C828.385,331.725 829.102,335.086 829.102,339.204C829.102,344.311 828.047,348.325 825.936,351.243C823.825,354.162 820.971,356.351 817.375,357.81L830.118,384L816.202,384L805.805,360.156C803.668,360.312 801.453,360.39 799.16,360.39C799.16,364.403 799.186,368.338 799.238,372.195C799.29,376.052 799.446,379.987 799.707,384L786.182,384ZM799.16,348.507C800.775,348.663 802.261,348.741 803.616,348.741C807.16,348.741 809.675,348.077 811.16,346.748C812.645,345.419 813.388,343.425 813.388,340.767C813.388,339.152 813.167,337.849 812.724,336.858C812.281,335.868 811.681,335.086 810.925,334.513C810.17,333.94 809.284,333.549 808.267,333.34C807.251,333.132 806.17,333.028 805.023,333.028C804.189,333.028 803.264,333.067 802.248,333.145C801.231,333.223 800.202,333.34 799.16,333.497L799.16,348.507Z" style="fill:rgb(255,0,0);fill-rule:nonzero;"/>
            </g>
            <g transform="matrix(1.30013,0,0,1.30013,-121.98,-168.006)">
                <path d="M733.286,478.983C733.026,484.167 732.832,489.114 732.702,493.823C732.573,498.532 732.465,503.154 732.378,507.69C732.292,512.227 732.227,516.741 732.184,521.234C732.141,525.727 732.119,530.306 732.119,534.972L739.636,534.972C739.809,536.96 739.939,538.99 740.025,541.064C740.112,543.137 740.155,545.254 740.155,547.414C740.155,550.179 740.112,552.923 740.025,555.644C739.939,558.366 739.809,561.023 739.636,563.615L732.119,563.615L732.119,585L711.123,585C711.296,581.63 711.404,578.174 711.447,574.632C711.49,571.089 711.555,567.417 711.642,563.615L677.685,563.615C677.598,560.85 677.534,558.128 677.49,555.45C677.447,552.771 677.426,550.007 677.426,547.155L677.426,540.934C677.426,538.86 677.512,536.873 677.685,534.972C678.635,532.812 679.888,530.112 681.443,526.872C682.999,523.632 684.705,520.197 686.563,516.568C688.421,512.939 690.3,509.202 692.201,505.357C694.102,501.512 695.894,497.884 697.579,494.471C699.264,491.058 700.733,487.99 701.986,485.269C703.239,482.547 704.124,480.452 704.643,478.983L733.286,478.983ZM692.978,534.972L711.771,534.972L711.771,520.392C711.771,516.979 711.75,513.998 711.706,511.449C711.663,508.9 711.642,506.589 711.642,504.515L711.642,497.776L692.978,534.972Z" style="fill:rgb(255,0,0);fill-rule:nonzero;"/>
                <path d="M781.11,477.427C786.813,477.427 791.802,478.637 796.079,481.056C800.356,483.476 803.921,486.997 806.772,491.619C809.623,496.242 811.762,501.901 813.187,508.598C814.613,515.294 815.326,522.919 815.326,531.473C815.326,549.186 812.367,562.773 806.448,572.234C800.529,581.695 791.781,586.426 780.203,586.426C774.414,586.426 769.359,585.216 765.039,582.797C760.719,580.377 757.133,576.856 754.282,572.234C751.43,567.611 749.292,561.995 747.866,555.385C746.441,548.775 745.728,541.237 745.728,532.769C745.728,514.624 748.795,500.864 754.93,491.49C761.064,482.115 769.791,477.427 781.11,477.427ZM780.592,552.987C782.838,552.987 784.804,552.318 786.489,550.979C788.174,549.639 789.599,547.782 790.766,545.406C791.932,543.029 792.796,540.265 793.358,537.111C793.919,533.957 794.2,530.566 794.2,526.937C794.2,523.394 793.919,520.111 793.358,517.087C792.796,514.063 791.954,511.427 790.83,509.181C789.707,506.934 788.303,505.163 786.618,503.867C784.933,502.571 783.011,501.923 780.851,501.923C778.604,501.923 776.617,502.571 774.889,503.867C773.161,505.163 771.692,506.934 770.482,509.181C769.273,511.427 768.366,514.106 767.761,517.216C767.156,520.327 766.853,523.697 766.853,527.326C766.853,530.868 767.156,534.195 767.761,537.305C768.366,540.416 769.251,543.137 770.418,545.47C771.584,547.803 773.01,549.639 774.695,550.979C776.379,552.318 778.345,552.987 780.592,552.987Z" style="fill:rgb(255,0,0);fill-rule:nonzero;"/>
                <path d="M875.333,478.983C875.074,484.167 874.88,489.114 874.75,493.823C874.62,498.532 874.512,503.154 874.426,507.69C874.34,512.227 874.275,516.741 874.232,521.234C874.188,525.727 874.167,530.306 874.167,534.972L881.684,534.972C881.857,536.96 881.986,538.99 882.073,541.064C882.159,543.137 882.202,545.254 882.202,547.414C882.202,550.179 882.159,552.923 882.073,555.644C881.986,558.366 881.857,561.023 881.684,563.615L874.167,563.615L874.167,585L853.171,585C853.343,581.63 853.451,578.174 853.495,574.632C853.538,571.089 853.603,567.417 853.689,563.615L819.732,563.615C819.646,560.85 819.581,558.128 819.538,555.45C819.495,552.771 819.473,550.007 819.473,547.155L819.473,540.934C819.473,538.86 819.56,536.873 819.732,534.972C820.683,532.812 821.936,530.112 823.491,526.872C825.046,523.632 826.753,520.197 828.61,516.568C830.468,512.939 832.347,509.202 834.248,505.357C836.149,501.512 837.942,497.884 839.627,494.471C841.312,491.058 842.781,487.99 844.033,485.269C845.286,482.547 846.172,480.452 846.69,478.983L875.333,478.983ZM835.026,534.972L853.819,534.972L853.819,520.392C853.819,516.979 853.797,513.998 853.754,511.449C853.711,508.9 853.689,506.589 853.689,504.515L853.689,497.776L835.026,534.972Z" style="fill:rgb(255,0,0);fill-rule:nonzero;"/>
            </g>
        </g>
    </g>
</svg>
