<?xml version="1.0" encoding="UTF-8" standalone="no"?>
<!DOCTYPE svg PUBLIC "-//W3C//DTD SVG 1.1//EN" "http://www.w3.org/Graphics/SVG/1.1/DTD/svg11.dtd">
<svg width="100%" height="100%" viewBox="0 0 448 292" version="1.1" xmlns="http://www.w3.org/2000/svg" xmlns:xlink="http://www.w3.org/1999/xlink" xml:space="preserve" xmlns:serif="http://www.serif.com/" style="fill-rule:evenodd;clip-rule:evenodd;stroke-linejoin:round;stroke-miterlimit:2;">
    <g transform="matrix(1,0,0,1,-577.761,-301)">
        <g>
            <g transform="matrix(2.07123,0,0,2.07123,-694.363,-359.953)">
                <path d="M643.115,384.235C641.656,384.182 639.727,384.143 637.33,384.117C634.932,384.091 632.366,384.065 629.629,384.039C626.893,384.013 624.157,384 621.421,384L614.189,384C614.241,382.905 614.28,381.446 614.306,379.622C614.332,377.798 614.345,375.713 614.345,373.368L614.345,357.263C614.345,353.302 614.332,349.341 614.306,345.38C614.28,341.419 614.267,337.731 614.267,334.318C614.267,330.904 614.254,327.946 614.228,325.444C614.202,322.943 614.189,321.17 614.189,320.128L620.912,320.128C623.362,320.128 625.864,320.115 628.418,320.089C630.971,320.063 633.473,320.024 635.923,319.972C638.372,319.92 640.665,319.867 642.802,319.815C642.802,320.493 642.815,321.079 642.841,321.574C642.868,322.07 642.881,322.76 642.881,323.646C642.881,324.272 642.868,325.014 642.841,325.874C642.815,326.734 642.789,327.62 642.763,328.532C642.737,329.444 642.711,330.356 642.685,331.269C642.659,332.181 642.62,333.028 642.568,333.809L626.854,333.809L626.854,342.878L640.535,342.878L640.535,354.527L626.854,354.527L626.854,363.283L642.802,363.283C642.854,364.481 642.907,365.706 642.959,366.957C643.011,368.208 643.05,369.615 643.076,371.179C643.102,372.742 643.115,374.579 643.115,376.69L643.115,384.235Z" style="fill:rgb(255,0,0);fill-rule:nonzero;"/>
                <path d="M646.555,384C646.711,379.049 646.816,374.11 646.868,369.185C646.92,364.26 646.946,359.582 646.946,355.152C646.946,348.846 646.907,342.852 646.829,337.171C646.75,331.49 646.659,325.783 646.555,320.05C649.109,319.789 651.676,319.568 654.256,319.385C656.835,319.203 659.454,319.112 662.112,319.112C665.917,319.112 669.487,319.385 672.823,319.933C676.159,320.48 679.051,321.496 681.501,322.982C683.95,324.467 685.892,326.513 687.325,329.119C688.758,331.725 689.475,335.086 689.475,339.204C689.475,344.311 688.42,348.325 686.309,351.243C684.198,354.162 681.344,356.351 677.748,357.81L690.491,384L676.576,384L666.178,360.156C664.041,360.312 661.826,360.39 659.533,360.39C659.533,364.403 659.559,368.338 659.611,372.195C659.663,376.052 659.819,379.987 660.08,384L646.555,384ZM659.533,348.507C661.148,348.663 662.634,348.741 663.989,348.741C667.533,348.741 670.048,348.077 671.533,346.748C673.018,345.419 673.761,343.425 673.761,340.767C673.761,339.152 673.54,337.849 673.097,336.858C672.654,335.868 672.054,335.086 671.298,334.513C670.543,333.94 669.657,333.549 668.64,333.34C667.624,333.132 666.543,333.028 665.396,333.028C664.562,333.028 663.637,333.067 662.621,333.145C661.604,333.223 660.575,333.34 659.533,333.497L659.533,348.507Z" style="fill:rgb(255,0,0);fill-rule:nonzero;"/>
                <path d="M692.602,384C692.758,379.049 692.863,374.11 692.915,369.185C692.967,364.26 692.993,359.582 692.993,355.152C692.993,348.846 692.954,342.852 692.876,337.171C692.798,331.49 692.706,325.783 692.602,320.05C695.156,319.789 697.723,319.568 700.303,319.385C702.883,319.203 705.502,319.112 708.16,319.112C711.964,319.112 715.535,319.385 718.87,319.933C722.206,320.48 725.098,321.496 727.548,322.982C729.998,324.467 731.939,326.513 733.372,329.119C734.806,331.725 735.522,335.086 735.522,339.204C735.522,344.311 734.467,348.325 732.356,351.243C730.245,354.162 727.392,356.351 723.795,357.81L736.539,384L722.623,384L712.225,360.156C710.088,360.312 707.873,360.39 705.58,360.39C705.58,364.403 705.606,368.338 705.658,372.195C705.71,376.052 705.866,379.987 706.127,384L692.602,384ZM705.58,348.507C707.195,348.663 708.681,348.741 710.036,348.741C713.58,348.741 716.095,348.077 717.58,346.748C719.066,345.419 719.808,343.425 719.808,340.767C719.808,339.152 719.587,337.849 719.144,336.858C718.701,335.868 718.101,335.086 717.346,334.513C716.59,333.94 715.704,333.549 714.688,333.34C713.671,333.132 712.59,333.028 711.443,333.028C710.609,333.028 709.684,333.067 708.668,333.145C707.652,333.223 706.622,333.34 705.58,333.497L705.58,348.507Z" style="fill:rgb(255,0,0);fill-rule:nonzero;"/>
                <path d="M760.305,319.112C768.071,319.112 773.804,321.874 777.504,327.399C781.205,332.923 783.055,340.95 783.055,351.478C783.055,362.162 781.244,370.397 777.621,376.182C773.999,381.967 768.227,384.86 760.305,384.86C756.396,384.86 753.008,384.117 750.142,382.632C747.275,381.146 744.904,378.984 743.027,376.143C741.151,373.303 739.77,369.811 738.884,365.667C737.998,361.524 737.555,356.794 737.555,351.478C737.555,340.793 739.405,332.728 743.106,327.281C746.806,321.835 752.539,319.112 760.305,319.112ZM760.305,364.69C761.973,364.69 763.445,364.312 764.722,363.556C765.999,362.801 767.054,361.758 767.888,360.429C768.722,359.1 769.347,357.51 769.764,355.66C770.181,353.81 770.39,351.764 770.39,349.523C770.39,347.282 770.181,345.21 769.764,343.308C769.347,341.406 768.722,339.751 767.888,338.344C767.054,336.936 765.999,335.842 764.722,335.06C763.445,334.278 761.973,333.888 760.305,333.888C758.637,333.888 757.191,334.291 755.966,335.099C754.741,335.907 753.699,337.015 752.839,338.422C751.979,339.829 751.34,341.484 750.923,343.386C750.506,345.289 750.298,347.334 750.298,349.523C750.298,351.764 750.506,353.81 750.923,355.66C751.34,357.51 751.979,359.1 752.839,360.429C753.699,361.758 754.741,362.801 755.966,363.556C757.191,364.312 758.637,364.69 760.305,364.69Z" style="fill:rgb(255,0,0);fill-rule:nonzero;"/>
                <path d="M786.182,384C786.338,379.049 786.443,374.11 786.495,369.185C786.547,364.26 786.573,359.582 786.573,355.152C786.573,348.846 786.534,342.852 786.456,337.171C786.377,331.49 786.286,325.783 786.182,320.05C788.736,319.789 791.303,319.568 793.883,319.385C796.462,319.203 799.081,319.112 801.739,319.112C805.544,319.112 809.114,319.385 812.45,319.933C815.786,320.48 818.678,321.496 821.128,322.982C823.577,324.467 825.519,326.513 826.952,329.119C828.385,331.725 829.102,335.086 829.102,339.204C829.102,344.311 828.047,348.325 825.936,351.243C823.825,354.162 820.971,356.351 817.375,357.81L830.118,384L816.202,384L805.805,360.156C803.668,360.312 801.453,360.39 799.16,360.39C799.16,364.403 799.186,368.338 799.238,372.195C799.29,376.052 799.446,379.987 799.707,384L786.182,384ZM799.16,348.507C800.775,348.663 802.261,348.741 803.616,348.741C807.16,348.741 809.675,348.077 811.16,346.748C812.645,345.419 813.388,343.425 813.388,340.767C813.388,339.152 813.167,337.849 812.724,336.858C812.281,335.868 811.681,335.086 810.925,334.513C810.17,333.94 809.284,333.549 808.267,333.34C807.251,333.132 806.17,333.028 805.023,333.028C804.189,333.028 803.264,333.067 802.248,333.145C801.231,333.223 800.202,333.34 799.16,333.497L799.16,348.507Z" style="fill:rgb(255,0,0);fill-rule:nonzero;"/>
            </g>
            <g transform="matrix(1,0,0,1,107.914,-19.2774)">
                <path d="M723.316,472.464C722.98,479.19 722.728,485.607 722.56,491.716C722.392,497.825 722.252,503.822 722.14,509.706C722.027,515.591 721.943,521.448 721.887,527.277C721.831,533.105 721.803,539.046 721.803,545.099L731.555,545.099C731.779,547.677 731.948,550.311 732.06,553.002C732.172,555.692 732.228,558.438 732.228,561.24C732.228,564.827 732.172,568.386 732.06,571.917C731.948,575.448 731.779,578.895 731.555,582.257L721.803,582.257L721.803,610L694.565,610C694.789,605.628 694.929,601.145 694.985,596.549C695.041,591.953 695.126,587.189 695.238,582.257L651.186,582.257C651.074,578.671 650.99,575.14 650.934,571.665C650.878,568.19 650.85,564.603 650.85,560.904L650.85,552.833C650.85,550.143 650.962,547.565 651.186,545.099C652.419,542.297 654.044,538.794 656.062,534.591C658.079,530.387 660.293,525.932 662.703,521.224C665.113,516.516 667.551,511.668 670.017,506.68C672.483,501.692 674.809,496.984 676.995,492.556C679.181,488.129 681.086,484.15 682.711,480.619C684.337,477.088 685.486,474.37 686.158,472.464L723.316,472.464ZM671.026,545.099L695.406,545.099L695.406,526.184C695.406,521.756 695.378,517.889 695.322,514.582C695.266,511.276 695.238,508.277 695.238,505.587L695.238,496.844L671.026,545.099Z" style="fill:rgb(255,0,0);fill-rule:nonzero;"/>
                <path d="M785.359,470.446C792.757,470.446 799.23,472.016 804.779,475.154C810.327,478.293 814.951,482.861 818.65,488.857C822.349,494.854 825.123,502.196 826.973,510.883C828.822,519.57 829.747,529.462 829.747,540.559C829.747,563.538 825.908,581.165 818.23,593.439C810.551,605.713 799.202,611.85 784.182,611.85C776.672,611.85 770.115,610.28 764.51,607.142C758.905,604.003 754.254,599.435 750.555,593.439C746.856,587.442 744.081,580.156 742.232,571.581C740.382,563.006 739.458,553.226 739.458,542.241C739.458,518.702 743.437,500.851 751.395,488.689C759.354,476.527 770.675,470.446 785.359,470.446ZM784.686,568.47C787.601,568.47 790.151,567.601 792.337,565.864C794.522,564.127 796.372,561.717 797.885,558.634C799.398,555.552 800.519,551.965 801.248,547.873C801.976,543.782 802.341,539.383 802.341,534.675C802.341,530.079 801.976,525.819 801.248,521.896C800.519,517.973 799.426,514.554 797.969,511.64C796.512,508.726 794.691,506.428 792.505,504.746C790.319,503.065 787.825,502.224 785.023,502.224C782.108,502.224 779.53,503.065 777.288,504.746C775.047,506.428 773.141,508.726 771.572,511.64C770.002,514.554 768.826,518.029 768.041,522.064C767.256,526.1 766.864,530.471 766.864,535.179C766.864,539.775 767.256,544.09 768.041,548.126C768.826,552.161 769.974,555.692 771.488,558.718C773.001,561.745 774.85,564.127 777.036,565.864C779.222,567.601 781.772,568.47 784.686,568.47Z" style="fill:rgb(255,0,0);fill-rule:nonzero;"/>
                <path d="M883.215,470.783C882.878,477.957 882.626,484.962 882.458,491.8C882.29,498.637 882.15,505.867 882.038,513.489C881.926,521.112 881.841,529.378 881.785,538.29C881.729,547.201 881.701,557.261 881.701,568.47L895.825,568.47C896.161,575.42 896.329,582.37 896.329,589.319C896.329,596.269 896.161,603.162 895.825,610L841.349,610C841.124,606.525 840.956,603.078 840.844,599.66C840.732,596.241 840.676,592.794 840.676,589.319C840.676,585.732 840.732,582.229 840.844,578.811C840.956,575.392 841.124,571.945 841.349,568.47L855.304,568.47L855.304,553.674C855.304,548.518 855.276,543.362 855.22,538.206C855.164,533.049 855.136,528.005 855.136,523.073L855.136,509.286L837.313,511.472C836.977,506.652 836.809,501.776 836.809,496.844L836.809,492.304C836.809,490.511 836.837,488.633 836.893,486.672C836.949,484.71 837.005,482.833 837.061,481.039C837.117,479.246 837.201,477.732 837.313,476.499L883.215,470.783Z" style="fill:rgb(255,0,0);fill-rule:nonzero;"/>
            </g>
        </g>
    </g>
</svg>
