<?xml version="1.0" encoding="UTF-8" standalone="no"?>
<!DOCTYPE svg PUBLIC "-//W3C//DTD SVG 1.1//EN" "http://www.w3.org/Graphics/SVG/1.1/DTD/svg11.dtd">
<svg width="100%" height="100%" viewBox="0 0 400 90" version="1.1" xmlns="http://www.w3.org/2000/svg" xmlns:xlink="http://www.w3.org/1999/xlink" xml:space="preserve" xmlns:serif="http://www.serif.com/" style="fill-rule:evenodd;clip-rule:evenodd;stroke-linejoin:round;stroke-miterlimit:2;">
    <g transform="matrix(1,0,0,1,-625.035,-1218.64)">
        <g transform="matrix(0.627818,0,0,0.627818,214.731,924.442)">
            <path d="M720.626,472.464L744.67,472.464C744.334,495.331 744.165,518.253 744.165,541.232C744.165,564.211 744.334,587.133 744.67,610L712.219,610L676.574,527.781L676.574,610L653.54,610C653.764,598.455 653.932,586.993 654.044,575.616C654.156,564.239 654.212,552.777 654.212,541.232C654.212,529.687 654.156,518.225 654.044,506.848C653.932,495.471 653.764,484.009 653.54,472.464L687.503,472.464L720.626,554.515L720.626,472.464Z" style="fill:rgb(255,0,0);fill-rule:nonzero;"/>
            <path d="M789.731,507.605C803.406,507.605 813.186,512.088 819.07,521.056C824.955,530.023 827.898,542.913 827.898,559.727C827.898,576.653 824.955,589.571 819.07,598.483C813.186,607.394 803.406,611.85 789.731,611.85C775.943,611.85 766.107,607.394 760.223,598.483C754.338,589.571 751.395,576.653 751.395,559.727C751.395,542.913 754.338,530.023 760.223,521.056C766.107,512.088 775.943,507.605 789.731,507.605ZM789.731,572.337C791.972,572.337 793.962,571.889 795.699,570.992C797.437,570.096 798.866,568.919 799.987,567.461C801.108,566.004 801.948,564.351 802.509,562.501C803.069,560.652 803.35,558.718 803.35,556.701C803.35,554.683 803.069,552.721 802.509,550.816C801.948,548.91 801.108,547.229 799.987,545.772C798.866,544.315 797.437,543.138 795.699,542.241C793.962,541.344 791.972,540.896 789.731,540.896C785.135,540.896 781.688,542.521 779.39,545.772C777.092,549.022 775.943,552.665 775.943,556.701C775.943,558.718 776.224,560.652 776.784,562.501C777.344,564.351 778.213,566.004 779.39,567.461C780.567,568.919 781.996,570.096 783.678,570.992C785.359,571.889 787.377,572.337 789.731,572.337Z" style="fill:rgb(255,0,0);fill-rule:nonzero;"/>
            <path d="M842.525,489.95L865.56,489.95L865.56,509.454L878.507,509.454L878.507,554.179L865.224,554.179L865.224,577.718C865.224,582.313 865.616,585.368 866.401,586.881C867.186,588.394 868.979,589.151 871.781,589.151C872.566,589.151 873.631,589.095 874.976,588.983C876.321,588.871 877.33,588.703 878.002,588.478C878.227,589.263 878.339,590.86 878.339,593.27L878.339,606.385C878.339,608.122 878.283,609.327 878.17,610C876.825,610.224 875.34,610.42 873.715,610.588C872.09,610.757 870.52,610.897 869.007,611.009C867.494,611.121 866.093,611.205 864.804,611.261C863.515,611.317 862.478,611.345 861.693,611.345C857.658,611.345 854.351,610.56 851.773,608.991C849.195,607.422 847.177,605.32 845.72,602.686C844.263,600.052 843.254,597.081 842.694,593.775C842.133,590.468 841.853,587.077 841.853,583.603C841.853,582.257 841.881,580.268 841.937,577.634C841.993,575 842.049,572.225 842.105,569.311C842.161,566.397 842.245,563.566 842.357,560.82C842.469,558.074 842.525,555.86 842.525,554.179L832.437,554.179L832.437,509.454L842.525,509.454L842.525,489.95Z" style="fill:rgb(255,0,0);fill-rule:nonzero;"/>
            <path d="M906.417,610C906.53,608.207 906.614,605.152 906.67,600.837C906.726,596.521 906.754,591.421 906.754,585.536L906.754,501.72C906.754,495.331 906.726,489.614 906.67,484.57C906.614,479.526 906.53,475.547 906.417,472.632C910.789,472.632 915.609,472.604 920.877,472.548C926.146,472.492 931.526,472.436 937.018,472.38C942.511,472.324 947.891,472.24 953.16,472.128C958.428,472.016 963.36,471.904 967.956,471.792C968.068,473.473 968.124,475.098 968.124,476.667L968.124,481.375C968.124,484.626 968.068,487.989 967.956,491.464C967.843,494.938 967.675,498.413 967.451,501.888L933.656,501.888L933.656,527.109L961.735,527.109L961.735,555.692L933.656,555.692C933.656,561.296 933.684,566.845 933.74,572.337C933.796,577.83 933.852,582.986 933.908,587.806C933.964,592.626 934.048,596.969 934.16,600.837C934.272,604.704 934.384,607.758 934.496,610L906.417,610Z" style="fill:rgb(255,0,0);fill-rule:nonzero;"/>
            <path d="M1009.99,507.605C1023.67,507.605 1033.44,512.088 1039.33,521.056C1045.21,530.023 1048.16,542.913 1048.16,559.727C1048.16,576.653 1045.21,589.571 1039.33,598.483C1033.44,607.394 1023.67,611.85 1009.99,611.85C996.203,611.85 986.367,607.394 980.482,598.483C974.597,589.571 971.655,576.653 971.655,559.727C971.655,542.913 974.597,530.023 980.482,521.056C986.367,512.088 996.203,507.605 1009.99,507.605ZM1009.99,572.337C1012.23,572.337 1014.22,571.889 1015.96,570.992C1017.7,570.096 1019.12,568.919 1020.25,567.461C1021.37,566.004 1022.21,564.351 1022.77,562.501C1023.33,560.652 1023.61,558.718 1023.61,556.701C1023.61,554.683 1023.33,552.721 1022.77,550.816C1022.21,548.91 1021.37,547.229 1020.25,545.772C1019.12,544.315 1017.7,543.138 1015.96,542.241C1014.22,541.344 1012.23,540.896 1009.99,540.896C1005.39,540.896 1001.95,542.521 999.649,545.772C997.351,549.022 996.203,552.665 996.203,556.701C996.203,558.718 996.483,560.652 997.043,562.501C997.604,564.351 998.472,566.004 999.649,567.461C1000.83,568.919 1002.25,570.096 1003.94,570.992C1005.62,571.889 1007.64,572.337 1009.99,572.337Z" style="fill:rgb(255,0,0);fill-rule:nonzero;"/>
            <path d="M1098.6,610L1098.6,601.089C1095.91,604.339 1092.66,606.946 1088.85,608.907C1085.04,610.869 1081.17,611.85 1077.25,611.85C1074.78,611.85 1072.4,611.485 1070.1,610.757C1067.8,610.028 1065.7,609.047 1063.79,607.814C1061.89,606.581 1060.24,605.096 1058.83,603.359C1057.43,601.621 1056.4,599.744 1055.72,597.726C1055.28,596.157 1054.91,593.887 1054.63,590.916C1054.35,587.946 1054.21,584.779 1054.21,581.417L1054.21,509.454L1078.93,509.454L1078.93,559.895C1078.93,563.258 1079.71,565.92 1081.28,567.882C1082.85,569.843 1084.98,570.824 1087.67,570.824C1089.01,570.824 1090.39,570.544 1091.79,569.983C1093.19,569.423 1094.42,568.694 1095.49,567.798C1096.55,566.901 1097.42,565.836 1098.09,564.603C1098.77,563.37 1099.1,562.081 1099.1,560.736L1099.1,509.454L1123.82,509.454C1123.71,513.153 1123.59,517.048 1123.48,521.14C1123.37,525.231 1123.26,529.322 1123.15,533.414C1123.03,537.505 1122.95,541.568 1122.89,545.604C1122.84,549.639 1122.81,553.45 1122.81,557.037L1122.81,566.621C1122.81,570.88 1122.84,575.532 1122.89,580.576C1122.95,585.62 1122.98,590.776 1122.98,596.045L1122.98,610L1098.6,610Z" style="fill:rgb(255,0,0);fill-rule:nonzero;"/>
            <path d="M1155.93,509.454L1155.93,518.534C1158.62,515.171 1161.9,512.509 1165.77,510.547C1169.64,508.585 1173.59,507.605 1177.62,507.605C1182.55,507.605 1186.93,508.95 1190.74,511.64C1194.55,514.33 1197.07,517.525 1198.3,521.224C1198.86,522.905 1199.34,525.231 1199.73,528.201C1200.12,531.172 1200.32,534.507 1200.32,538.206L1200.32,610L1175.61,610L1175.61,561.24C1175.61,556.196 1174.68,552.805 1172.83,551.068C1170.98,549.331 1168.82,548.462 1166.36,548.462C1163.11,548.462 1160.56,549.499 1158.71,551.572C1156.86,553.646 1155.93,556.308 1155.93,559.559L1155.93,610L1131.55,610C1131.55,606.301 1131.58,602.406 1131.64,598.314C1131.69,594.223 1131.72,590.132 1131.72,586.041L1131.72,552.833C1131.72,548.574 1131.69,543.922 1131.64,538.878C1131.58,533.834 1131.55,528.678 1131.55,523.41L1131.55,509.454L1155.93,509.454Z" style="fill:rgb(255,0,0);fill-rule:nonzero;"/>
            <path d="M1289.77,610L1266.74,610L1266.74,601.761C1262.7,605.012 1258.44,607.506 1253.96,609.243C1249.47,610.981 1245.1,611.85 1240.84,611.85C1235.8,611.85 1231.15,610.617 1226.89,608.15C1222.63,605.684 1218.96,602.238 1215.87,597.81C1212.79,593.382 1210.35,588.086 1208.56,581.921C1206.77,575.756 1205.87,569.031 1205.87,561.745C1205.87,554.123 1206.82,547.005 1208.73,540.391C1210.63,533.778 1213.24,528.033 1216.55,523.157C1219.85,518.281 1223.78,514.47 1228.32,511.724C1232.86,508.978 1237.76,507.605 1243.03,507.605C1247.62,507.605 1252,508.585 1256.14,510.547C1260.29,512.509 1263.82,514.947 1266.74,517.861L1266.74,468.597L1290.61,468.597L1289.77,610ZM1237.98,549.303C1237.98,553.898 1239.24,557.597 1241.77,560.4C1244.29,563.202 1247.51,564.603 1251.43,564.603C1255.69,564.603 1259.31,563.09 1262.28,560.063C1265.25,557.037 1266.74,553.17 1266.74,548.462C1266.74,546.332 1266.37,544.315 1265.64,542.409C1264.91,540.503 1263.88,538.85 1262.53,537.449C1261.19,536.048 1259.62,534.955 1257.82,534.17C1256.03,533.386 1254.12,532.993 1252.11,532.993C1248.07,532.993 1244.71,534.507 1242.02,537.533C1239.33,540.559 1237.98,544.483 1237.98,549.303Z" style="fill:rgb(255,0,0);fill-rule:nonzero;"/>
        </g>
    </g>
</svg>
