<svg width="100%" height="100%" viewBox="0 0 478 182" version="1.1" xmlns="http://www.w3.org/2000/svg" xmlns:xlink="http://www.w3.org/1999/xlink" xml:space="preserve" xmlns:serif="http://www.serif.com/" style="fill-rule:evenodd;clip-rule:evenodd;stroke-linejoin:round;stroke-miterlimit:2;">
    <g transform="matrix(1,0,0,1,-231.347,-1199.64)">
        <g transform="matrix(0.627818,0,0,0.627818,-177.269,905.442)">
            <path d="M901.878,562.417L901.878,535.179C901.878,528.005 901.85,521.896 901.794,516.852C901.738,511.808 901.71,507.156 901.71,502.897L889.268,502.897C889.155,500.319 889.043,497.797 888.931,495.331C888.819,492.865 888.763,490.343 888.763,487.765C888.763,485.186 888.819,482.608 888.931,480.03C889.043,477.452 889.155,474.93 889.268,472.464L941.054,472.464C941.166,475.042 941.222,477.592 941.222,480.114L941.222,495.331C941.222,497.797 941.166,500.319 941.054,502.897L928.78,502.897C928.556,510.407 928.415,517.805 928.359,525.091C928.303,532.377 928.275,540.503 928.275,549.471L928.275,562.417L941.054,562.417C941.166,566.453 941.222,570.432 941.222,574.355L941.222,598.146C941.222,602.126 941.166,606.077 941.054,610L889.268,610C889.155,606.077 889.043,602.126 888.931,598.146C888.819,594.167 888.763,590.216 888.763,586.293C888.763,582.257 888.819,578.278 888.931,574.355C889.043,570.432 889.155,566.453 889.268,562.417L901.878,562.417Z" style="fill:rgb(255,0,0);fill-rule:nonzero;"/>
            <path d="M973.504,509.454L973.504,518.534C976.194,515.171 979.473,512.509 983.34,510.547C987.207,508.585 991.158,507.605 995.194,507.605C1000.13,507.605 1004.5,508.95 1008.31,511.64C1012.12,514.33 1014.64,517.525 1015.88,521.224C1016.44,522.905 1016.91,525.231 1017.3,528.201C1017.7,531.172 1017.89,534.507 1017.89,538.206L1017.89,610L993.176,610L993.176,561.24C993.176,556.196 992.251,552.805 990.402,551.068C988.552,549.331 986.395,548.462 983.929,548.462C980.678,548.462 978.128,549.499 976.278,551.572C974.429,553.646 973.504,556.308 973.504,559.559L973.504,610L949.124,610C949.124,606.301 949.152,602.406 949.208,598.314C949.264,594.223 949.292,590.132 949.292,586.041L949.292,552.833C949.292,548.574 949.264,543.922 949.208,538.878C949.152,533.834 949.124,528.678 949.124,523.41L949.124,509.454L973.504,509.454Z" style="fill:rgb(255,0,0);fill-rule:nonzero;"/>
            <path d="M1034.37,489.95L1057.4,489.95L1057.4,509.454L1070.35,509.454L1070.35,554.179L1057.07,554.179L1057.07,577.718C1057.07,582.313 1057.46,585.368 1058.25,586.881C1059.03,588.394 1060.82,589.151 1063.62,589.151C1064.41,589.151 1065.47,589.095 1066.82,588.983C1068.16,588.871 1069.17,588.703 1069.85,588.478C1070.07,589.263 1070.18,590.86 1070.18,593.27L1070.18,606.385C1070.18,608.122 1070.13,609.327 1070.02,610C1068.67,610.224 1067.18,610.42 1065.56,610.588C1063.93,610.757 1062.36,610.897 1060.85,611.009C1059.34,611.121 1057.94,611.205 1056.65,611.261C1055.36,611.317 1054.32,611.345 1053.54,611.345C1049.5,611.345 1046.19,610.56 1043.62,608.991C1041.04,607.422 1039.02,605.32 1037.56,602.686C1036.11,600.052 1035.1,597.081 1034.54,593.775C1033.98,590.468 1033.7,587.077 1033.7,583.603C1033.7,582.257 1033.72,580.268 1033.78,577.634C1033.84,575 1033.89,572.225 1033.95,569.311C1034.01,566.397 1034.09,563.566 1034.2,560.82C1034.31,558.074 1034.37,555.86 1034.37,554.179L1024.28,554.179L1024.28,509.454L1034.37,509.454L1034.37,489.95Z" style="fill:rgb(255,0,0);fill-rule:nonzero;"/>
            <path d="M1111.38,557.037C1112.83,561.857 1115.24,565.78 1118.61,568.806C1121.97,571.833 1126.62,573.346 1132.56,573.346C1134.36,573.346 1136.29,573.206 1138.36,572.926C1140.44,572.646 1142.48,572.253 1144.5,571.749C1146.52,571.244 1148.42,570.684 1150.22,570.068C1152.01,569.451 1153.58,568.863 1154.92,568.302C1155.15,571.553 1155.29,575 1155.34,578.642C1155.4,582.285 1155.43,585.9 1155.43,589.487C1155.43,595.428 1155.26,600.752 1154.92,605.46C1146.18,609.72 1136.37,611.85 1125.5,611.85C1120.46,611.85 1115.36,611.289 1110.2,610.168C1105.04,609.047 1100.06,606.917 1095.24,603.779C1090.98,600.977 1087.47,597.698 1084.73,593.943C1081.98,590.188 1079.82,586.321 1078.25,582.341C1076.68,578.362 1075.62,574.467 1075.06,570.656C1074.5,566.845 1074.22,563.426 1074.22,560.4C1074.22,555.916 1074.75,551.236 1075.82,546.36C1076.88,541.484 1078.53,536.832 1080.78,532.405C1083.02,527.977 1085.88,523.914 1089.35,520.215C1092.83,516.516 1096.92,513.602 1101.62,511.472C1107.34,508.894 1113.39,507.605 1119.78,507.605C1126.51,507.605 1132.56,508.95 1137.94,511.64C1143.32,514.33 1147.69,518.029 1151.06,522.737C1154.31,527.221 1156.35,532.209 1157.19,537.701C1158.03,543.194 1158.45,549.639 1158.45,557.037L1111.38,557.037ZM1120.96,525.763C1118.61,525.763 1116.36,526.744 1114.24,528.706C1112.11,530.667 1110.7,534.114 1110.03,539.046L1132.06,539.046C1131.61,534.563 1130.29,531.228 1128.11,529.042C1125.92,526.856 1123.54,525.763 1120.96,525.763Z" style="fill:rgb(255,0,0);fill-rule:nonzero;"/>
            <path d="M1186.03,509.454L1187.21,522.233C1188.55,520.103 1190.18,518.141 1192.08,516.348C1193.99,514.554 1195.98,513.013 1198.05,511.724C1200.12,510.435 1202.2,509.426 1204.27,508.698C1206.35,507.969 1208.28,507.605 1210.07,507.605C1210.3,510.519 1210.49,513.854 1210.66,517.609C1210.83,521.364 1210.91,525.203 1210.91,529.126C1210.91,533.61 1210.83,538.037 1210.66,542.409C1210.49,546.781 1210.3,550.816 1210.07,554.515C1209.06,554.066 1207.66,553.73 1205.87,553.506C1204.08,553.282 1202.56,553.17 1201.33,553.17C1197.18,553.17 1194.13,554.151 1192.17,556.112C1190.2,558.074 1189.22,560.512 1189.22,563.426L1189.22,610L1164.51,610C1164.62,591.841 1164.7,574.607 1164.76,558.298C1164.82,541.989 1164.84,525.707 1164.84,509.454L1186.03,509.454Z" style="fill:rgb(255,0,0);fill-rule:nonzero;"/>
            <path d="M1241.85,509.454L1241.85,518.534C1244.54,515.171 1247.82,512.509 1251.69,510.547C1255.55,508.585 1259.51,507.605 1263.54,507.605C1268.47,507.605 1272.84,508.95 1276.65,511.64C1280.47,514.33 1282.99,517.525 1284.22,521.224C1284.78,522.905 1285.26,525.231 1285.65,528.201C1286.04,531.172 1286.24,534.507 1286.24,538.206L1286.24,610L1261.52,610L1261.52,561.24C1261.52,556.196 1260.6,552.805 1258.75,551.068C1256.9,549.331 1254.74,548.462 1252.28,548.462C1249.02,548.462 1246.47,549.499 1244.62,551.572C1242.78,553.646 1241.85,556.308 1241.85,559.559L1241.85,610L1217.47,610C1217.47,606.301 1217.5,602.406 1217.56,598.314C1217.61,594.223 1217.64,590.132 1217.64,586.041L1217.64,552.833C1217.64,548.574 1217.61,543.922 1217.56,538.878C1217.5,533.834 1217.47,528.678 1217.47,523.41L1217.47,509.454L1241.85,509.454Z" style="fill:rgb(255,0,0);fill-rule:nonzero;"/>
            <path d="M1375.69,610L1352.65,610L1352.65,601.761C1348.62,605.012 1344.36,607.506 1339.87,609.243C1335.39,610.981 1331.02,611.85 1326.76,611.85C1321.71,611.85 1317.06,610.617 1312.8,608.15C1308.55,605.684 1304.87,602.238 1301.79,597.81C1298.71,593.382 1296.27,588.086 1294.48,581.921C1292.68,575.756 1291.79,569.031 1291.79,561.745C1291.79,554.123 1292.74,547.005 1294.64,540.391C1296.55,533.778 1299.16,528.033 1302.46,523.157C1305.77,518.281 1309.69,514.47 1314.23,511.724C1318.77,508.978 1323.68,507.605 1328.94,507.605C1333.54,507.605 1337.91,508.585 1342.06,510.547C1346.21,512.509 1349.74,514.947 1352.65,517.861L1352.65,509.454L1376.53,509.454L1375.69,610ZM1323.9,549.303C1323.9,553.898 1325.16,557.597 1327.68,560.4C1330.21,563.202 1333.43,564.603 1337.35,564.603C1341.61,564.603 1345.23,563.09 1348.2,560.063C1351.17,557.037 1352.65,553.17 1352.65,548.462C1352.65,546.332 1352.29,544.315 1351.56,542.409C1350.83,540.503 1349.79,538.85 1348.45,537.449C1347.1,536.048 1345.54,534.955 1343.74,534.17C1341.95,533.386 1340.04,532.993 1338.03,532.993C1333.99,532.993 1330.63,534.507 1327.94,537.533C1325.25,540.559 1323.9,544.483 1323.9,549.303Z" style="fill:rgb(255,0,0);fill-rule:nonzero;"/>
            <path d="M1410.83,468.597C1410.27,484.178 1409.85,499.982 1409.57,516.012C1409.29,532.041 1409.15,549.078 1409.15,567.125L1409.15,596.969C1409.15,599.94 1409.17,602.35 1409.23,604.199C1409.29,606.049 1409.32,607.982 1409.32,610L1384.09,610C1384.43,600.136 1384.65,588.591 1384.77,575.364C1384.88,562.137 1384.93,546.781 1384.93,529.294L1384.93,509.875C1384.93,504.55 1384.91,499.702 1384.85,495.331C1384.8,490.959 1384.77,486.728 1384.77,482.636L1384.77,468.597L1410.83,468.597Z" style="fill:rgb(255,0,0);fill-rule:nonzero;"/>
            <path d="M651.858,652.604C651.858,645.43 653.231,639.517 655.978,634.866C658.724,630.214 662.199,626.515 666.402,623.769C670.606,621.022 675.257,619.117 680.358,618.052C685.458,616.987 690.362,616.455 695.069,616.455C696.415,616.455 698.124,616.511 700.198,616.623C702.271,616.735 704.457,616.903 706.755,617.127C709.053,617.351 711.407,617.66 713.817,618.052C716.227,618.444 718.497,618.977 720.626,619.649C720.85,622.564 721.019,625.282 721.131,627.804C721.243,630.326 721.299,633.212 721.299,636.463C721.299,639.714 721.243,642.824 721.131,645.795C721.019,648.765 720.85,651.595 720.626,654.285C719.73,654.173 718.581,654.005 717.179,653.781C715.778,653.557 714.321,653.389 712.808,653.277C711.295,653.165 709.781,653.052 708.268,652.94C706.755,652.828 705.326,652.772 703.981,652.772C698.6,652.772 694.677,653.613 692.211,655.294C689.745,656.976 688.512,659.274 688.512,662.188C688.512,663.869 688.904,665.467 689.689,666.98C690.474,668.493 691.511,669.922 692.8,671.267C694.089,672.612 695.546,673.901 697.171,675.134C698.797,676.367 700.45,677.544 702.131,678.665C704.821,680.571 707.54,682.673 710.286,684.97C713.032,687.268 715.526,690.015 717.768,693.209C720.01,696.404 721.859,700.103 723.316,704.306C724.774,708.51 725.502,713.358 725.502,718.85C725.502,726.024 724.269,732.077 721.803,737.009C719.337,741.941 716.171,745.948 712.304,749.031C708.436,752.113 704.121,754.355 699.357,755.756C694.593,757.157 689.857,757.858 685.149,757.858C683.02,757.858 680.414,757.718 677.331,757.437C674.249,757.157 671.138,756.765 667.999,756.26C664.861,755.756 661.89,755.14 659.088,754.411C656.286,753.682 654.044,752.814 652.363,751.805C651.914,749.787 651.55,747.714 651.27,745.584C650.99,743.454 650.85,741.1 650.85,738.522C650.85,736.729 650.934,734.543 651.102,731.965C651.27,729.387 651.466,726.752 651.69,724.062C651.914,721.372 652.167,718.794 652.447,716.328C652.727,713.862 652.979,711.788 653.203,710.107C654.436,710.779 656.23,711.536 658.584,712.377C660.938,713.217 663.488,714.03 666.234,714.815C668.98,715.599 671.755,716.272 674.557,716.832C677.359,717.393 679.825,717.673 681.955,717.673C685.542,717.673 688.232,716.916 690.025,715.403C691.819,713.89 692.716,711.844 692.716,709.266C692.716,706.464 691.707,703.97 689.689,701.784C687.671,699.598 685.149,697.441 682.123,695.311C679.096,693.181 675.818,690.911 672.287,688.501C668.756,686.091 665.477,683.261 662.451,680.01C659.424,676.76 656.902,672.921 654.885,668.493C652.867,664.065 651.858,658.769 651.858,652.604Z" style="fill:rgb(255,0,0);fill-rule:nonzero;"/>
            <path d="M765.014,703.045C766.472,707.865 768.882,711.788 772.244,714.815C775.607,717.841 780.259,719.354 786.2,719.354C787.993,719.354 789.927,719.214 792,718.934C794.074,718.654 796.12,718.262 798.137,717.757C800.155,717.253 802.061,716.692 803.854,716.076C805.647,715.459 807.217,714.871 808.562,714.31C808.786,717.561 808.926,721.008 808.982,724.651C809.038,728.294 809.066,731.909 809.066,735.496C809.066,741.436 808.898,746.761 808.562,751.469C799.819,755.728 790.011,757.858 779.138,757.858C774.094,757.858 768.994,757.297 763.837,756.176C758.681,755.055 753.693,752.926 748.873,749.787C744.614,746.985 741.111,743.706 738.365,739.951C735.618,736.196 733.461,732.329 731.891,728.35C730.322,724.371 729.257,720.475 728.697,716.664C728.136,712.853 727.856,709.434 727.856,706.408C727.856,701.924 728.389,697.244 729.453,692.368C730.518,687.493 732.172,682.841 734.414,678.413C736.655,673.986 739.514,669.922 742.988,666.223C746.463,662.524 750.555,659.61 755.262,657.48C760.979,654.902 767.032,653.613 773.421,653.613C780.147,653.613 786.2,654.958 791.58,657.648C796.96,660.338 801.332,664.037 804.695,668.745C807.945,673.229 809.991,678.217 810.832,683.709C811.672,689.202 812.093,695.647 812.093,703.045L765.014,703.045ZM774.598,671.772C772.244,671.772 770.002,672.753 767.873,674.714C765.743,676.676 764.342,680.123 763.669,685.055L785.695,685.055C785.247,680.571 783.93,677.236 781.744,675.05C779.558,672.865 777.176,671.772 774.598,671.772Z" style="fill:rgb(255,0,0);fill-rule:nonzero;"/>
            <path d="M839.667,655.462L840.844,668.241C842.189,666.111 843.815,664.15 845.72,662.356C847.626,660.563 849.615,659.021 851.689,657.732C853.763,656.443 855.836,655.434 857.91,654.706C859.984,653.977 861.917,653.613 863.711,653.613C863.935,656.527 864.131,659.862 864.299,663.617C864.467,667.372 864.551,671.211 864.551,675.134C864.551,679.618 864.467,684.046 864.299,688.417C864.131,692.789 863.935,696.824 863.711,700.523C862.702,700.075 861.301,699.738 859.507,699.514C857.714,699.29 856.201,699.178 854.968,699.178C850.82,699.178 847.766,700.159 845.804,702.12C843.843,704.082 842.862,706.52 842.862,709.434L842.862,756.008L818.146,756.008C818.258,737.849 818.342,720.615 818.398,704.306C818.454,687.997 818.482,671.716 818.482,655.462L839.667,655.462Z" style="fill:rgb(255,0,0);fill-rule:nonzero;"/>
            <path d="M943.912,655.462L921.214,756.008L889.436,756.008L866.401,655.462L891.453,655.462L901.205,708.93C901.542,710.948 902.074,712.629 902.803,713.974C903.531,715.319 904.456,715.992 905.577,715.992C907.482,715.992 908.883,713.638 909.78,708.93L918.86,655.462L943.912,655.462Z" style="fill:rgb(255,0,0);fill-rule:nonzero;"/>
            <path d="M982.247,703.045C983.704,707.865 986.114,711.788 989.477,714.815C992.84,717.841 997.492,719.354 1003.43,719.354C1005.23,719.354 1007.16,719.214 1009.23,718.934C1011.31,718.654 1013.35,718.262 1015.37,717.757C1017.39,717.253 1019.29,716.692 1021.09,716.076C1022.88,715.459 1024.45,714.871 1025.8,714.31C1026.02,717.561 1026.16,721.008 1026.21,724.651C1026.27,728.294 1026.3,731.909 1026.3,735.496C1026.3,741.436 1026.13,746.761 1025.8,751.469C1017.05,755.728 1007.24,757.858 996.371,757.858C991.327,757.858 986.226,757.297 981.07,756.176C975.914,755.055 970.926,752.926 966.106,749.787C961.847,746.985 958.344,743.706 955.598,739.951C952.851,736.196 950.694,732.329 949.124,728.35C947.555,724.371 946.49,720.475 945.93,716.664C945.369,712.853 945.089,709.434 945.089,706.408C945.089,701.924 945.621,697.244 946.686,692.368C947.751,687.493 949.404,682.841 951.646,678.413C953.888,673.986 956.746,669.922 960.221,666.223C963.696,662.524 967.787,659.61 972.495,657.48C978.212,654.902 984.265,653.613 990.654,653.613C997.38,653.613 1003.43,654.958 1008.81,657.648C1014.19,660.338 1018.57,664.037 1021.93,668.745C1025.18,673.229 1027.22,678.217 1028.06,683.709C1028.9,689.202 1029.33,695.647 1029.33,703.045L982.247,703.045ZM991.831,671.772C989.477,671.772 987.235,672.753 985.106,674.714C982.976,676.676 981.575,680.123 980.902,685.055L1002.93,685.055C1002.48,680.571 1001.16,677.236 998.977,675.05C996.791,672.865 994.409,671.772 991.831,671.772Z" style="fill:rgb(255,0,0);fill-rule:nonzero;"/>
            <path d="M1056.9,655.462L1058.08,668.241C1059.42,666.111 1061.05,664.15 1062.95,662.356C1064.86,660.563 1066.85,659.021 1068.92,657.732C1071,656.443 1073.07,655.434 1075.14,654.706C1077.22,653.977 1079.15,653.613 1080.94,653.613C1081.17,656.527 1081.36,659.862 1081.53,663.617C1081.7,667.372 1081.78,671.211 1081.78,675.134C1081.78,679.618 1081.7,684.046 1081.53,688.417C1081.36,692.789 1081.17,696.824 1080.94,700.523C1079.93,700.075 1078.53,699.738 1076.74,699.514C1074.95,699.29 1073.43,699.178 1072.2,699.178C1068.05,699.178 1065,700.159 1063.04,702.12C1061.08,704.082 1060.1,706.52 1060.1,709.434L1060.1,756.008L1035.38,756.008C1035.49,737.849 1035.58,720.615 1035.63,704.306C1035.69,687.997 1035.71,671.716 1035.71,655.462L1056.9,655.462Z" style="fill:rgb(255,0,0);fill-rule:nonzero;"/>
            <path d="M1171.91,756.513C1168.77,756.401 1164.62,756.317 1159.46,756.26C1154.31,756.204 1148.79,756.148 1142.9,756.092C1137.02,756.036 1131.13,756.008 1125.25,756.008L1109.69,756.008C1109.81,753.654 1109.89,750.516 1109.95,746.593C1110,742.669 1110.03,738.186 1110.03,733.142L1110.03,698.505C1110.03,689.987 1110,681.468 1109.95,672.949C1109.89,664.43 1109.86,656.499 1109.86,649.157C1109.86,641.815 1109.84,635.454 1109.78,630.074C1109.72,624.693 1109.69,620.882 1109.69,618.64L1124.15,618.64C1129.42,618.64 1134.8,618.612 1140.3,618.556C1145.79,618.5 1151.17,618.416 1156.44,618.304C1161.7,618.192 1166.64,618.08 1171.23,617.968C1171.23,619.425 1171.26,620.686 1171.32,621.751C1171.37,622.816 1171.4,624.301 1171.4,626.207C1171.4,627.552 1171.37,629.149 1171.32,630.999C1171.26,632.848 1171.2,634.754 1171.15,636.715C1171.09,638.677 1171.04,640.638 1170.98,642.6C1170.92,644.562 1170.84,646.383 1170.73,648.064L1136.93,648.064L1136.93,667.568L1166.36,667.568L1166.36,692.621L1136.93,692.621L1136.93,711.452L1171.23,711.452C1171.35,714.03 1171.46,716.664 1171.57,719.354C1171.68,722.045 1171.77,725.071 1171.82,728.434C1171.88,731.797 1171.91,735.748 1171.91,740.287L1171.91,756.513Z" style="fill:rgb(255,0,0);fill-rule:nonzero;"/>
            <path d="M1200.32,655.462L1201.5,668.241C1202.84,666.111 1204.47,664.15 1206.37,662.356C1208.28,660.563 1210.27,659.021 1212.34,657.732C1214.42,656.443 1216.49,655.434 1218.56,654.706C1220.64,653.977 1222.57,653.613 1224.36,653.613C1224.59,656.527 1224.79,659.862 1224.95,663.617C1225.12,667.372 1225.2,671.211 1225.2,675.134C1225.2,679.618 1225.12,684.046 1224.95,688.417C1224.79,692.789 1224.59,696.824 1224.36,700.523C1223.36,700.075 1221.95,699.738 1220.16,699.514C1218.37,699.29 1216.85,699.178 1215.62,699.178C1211.47,699.178 1208.42,700.159 1206.46,702.12C1204.5,704.082 1203.52,706.52 1203.52,709.434L1203.52,756.008L1178.8,756.008C1178.91,737.849 1179,720.615 1179.05,704.306C1179.11,687.997 1179.13,671.716 1179.13,655.462L1200.32,655.462Z" style="fill:rgb(255,0,0);fill-rule:nonzero;"/>
            <path d="M1253.12,655.462L1254.29,668.241C1255.64,666.111 1257.26,664.15 1259.17,662.356C1261.07,660.563 1263.06,659.021 1265.14,657.732C1267.21,656.443 1269.29,655.434 1271.36,654.706C1273.43,653.977 1275.37,653.613 1277.16,653.613C1277.38,656.527 1277.58,659.862 1277.75,663.617C1277.92,667.372 1278,671.211 1278,675.134C1278,679.618 1277.92,684.046 1277.75,688.417C1277.58,692.789 1277.38,696.824 1277.16,700.523C1276.15,700.075 1274.75,699.738 1272.96,699.514C1271.16,699.29 1269.65,699.178 1268.42,699.178C1264.27,699.178 1261.21,700.159 1259.25,702.12C1257.29,704.082 1256.31,706.52 1256.31,709.434L1256.31,756.008L1231.59,756.008C1231.71,737.849 1231.79,720.615 1231.85,704.306C1231.9,687.997 1231.93,671.716 1231.93,655.462L1253.12,655.462Z" style="fill:rgb(255,0,0);fill-rule:nonzero;"/>
            <path d="M1320.71,653.613C1334.38,653.613 1344.16,658.097 1350.05,667.064C1355.93,676.031 1358.87,688.922 1358.87,705.735C1358.87,722.661 1355.93,735.58 1350.05,744.491C1344.16,753.402 1334.38,757.858 1320.71,757.858C1306.92,757.858 1297.08,753.402 1291.2,744.491C1285.31,735.58 1282.37,722.661 1282.37,705.735C1282.37,688.922 1285.31,676.031 1291.2,667.064C1297.08,658.097 1306.92,653.613 1320.71,653.613ZM1320.71,718.346C1322.95,718.346 1324.94,717.897 1326.67,717.001C1328.41,716.104 1329.84,714.927 1330.96,713.47C1332.08,712.012 1332.92,710.359 1333.49,708.51C1334.05,706.66 1334.33,704.727 1334.33,702.709C1334.33,700.691 1334.05,698.73 1333.49,696.824C1332.92,694.919 1332.08,693.237 1330.96,691.78C1329.84,690.323 1328.41,689.146 1326.67,688.249C1324.94,687.352 1322.95,686.904 1320.71,686.904C1316.11,686.904 1312.66,688.529 1310.37,691.78C1308.07,695.031 1306.92,698.674 1306.92,702.709C1306.92,704.727 1307.2,706.66 1307.76,708.51C1308.32,710.359 1309.19,712.012 1310.37,713.47C1311.54,714.927 1312.97,716.104 1314.65,717.001C1316.34,717.897 1318.35,718.346 1320.71,718.346Z" style="fill:rgb(255,0,0);fill-rule:nonzero;"/>
            <path d="M1386.45,655.462L1387.62,668.241C1388.97,666.111 1390.6,664.15 1392.5,662.356C1394.41,660.563 1396.4,659.021 1398.47,657.732C1400.54,656.443 1402.62,655.434 1404.69,654.706C1406.77,653.977 1408.7,653.613 1410.49,653.613C1410.72,656.527 1410.91,659.862 1411.08,663.617C1411.25,667.372 1411.33,671.211 1411.33,675.134C1411.33,679.618 1411.25,684.046 1411.08,688.417C1410.91,692.789 1410.72,696.824 1410.49,700.523C1409.48,700.075 1408.08,699.738 1406.29,699.514C1404.5,699.29 1402.98,699.178 1401.75,699.178C1397.6,699.178 1394.55,700.159 1392.59,702.12C1390.62,704.082 1389.64,706.52 1389.64,709.434L1389.64,756.008L1364.93,756.008C1365.04,737.849 1365.12,720.615 1365.18,704.306C1365.24,687.997 1365.26,671.716 1365.26,655.462L1386.45,655.462Z" style="fill:rgb(255,0,0);fill-rule:nonzero;"/>
        </g>
    </g>
</svg>
