<svg width="100%" height="100%" viewBox="0 0 579 276" version="1.1" xmlns="http://www.w3.org/2000/svg" xmlns:xlink="http://www.w3.org/1999/xlink" xml:space="preserve" xmlns:serif="http://www.serif.com/" style="fill-rule:evenodd;clip-rule:evenodd;stroke-linejoin:round;stroke-miterlimit:2;">
    <g transform="matrix(1,0,0,1,-501.044,-328.942)">
        <g transform="matrix(0.72553,0,0,1.25026,56.0362,-291.709)">
            <g transform="matrix(1.51508,0,0,0.80578,-726.953,118.833)">
                <path d="M1100.78,472.296C1101.01,488.661 1101.34,502.813 1101.79,514.75C1102.24,526.688 1102.46,536.86 1102.46,545.267C1102.46,550.76 1102.3,556.224 1101.96,561.661C1101.62,567.097 1100.9,572.281 1099.78,577.213C1098.65,582.145 1097.06,586.713 1094.98,590.916C1092.91,595.12 1090.16,598.791 1086.74,601.929C1083.33,605.068 1079.09,607.506 1074.05,609.243C1069.01,610.981 1063.01,611.85 1056.06,611.85C1048.88,611.85 1042.75,610.925 1037.65,609.075C1032.55,607.226 1028.26,604.732 1024.79,601.593C1021.31,598.455 1018.54,594.728 1016.46,590.412C1014.39,586.097 1012.79,581.473 1011.67,576.541C1010.55,571.609 1009.82,566.509 1009.49,561.24C1009.15,555.972 1008.98,550.704 1008.98,545.435C1008.98,541.288 1009.04,536.86 1009.15,532.153C1009.26,527.445 1009.43,522.177 1009.65,516.348C1009.88,510.519 1010.13,504.018 1010.41,496.844C1010.69,489.67 1011,481.543 1011.34,472.464L1040.93,472.464C1040.59,482.552 1040.31,491.099 1040.09,498.105C1039.86,505.111 1039.67,510.967 1039.5,515.675C1039.33,520.383 1039.22,524.11 1039.16,526.856C1039.11,529.603 1039.05,531.704 1038.99,533.161C1038.94,534.619 1038.91,535.655 1038.91,536.272L1038.91,537.701C1038.91,548.574 1040.14,556.757 1042.61,562.249C1045.07,567.742 1049.5,570.488 1055.89,570.488C1062.39,570.488 1066.79,567.517 1069.09,561.577C1071.39,555.636 1072.54,546.612 1072.54,534.507L1072.54,532.573C1072.54,531.844 1072.51,530.695 1072.45,529.126C1072.4,527.557 1072.34,525.455 1072.28,522.821C1072.23,520.187 1072.12,516.656 1071.95,512.228C1071.78,507.801 1071.58,502.364 1071.36,495.919C1071.14,489.474 1070.86,481.656 1070.52,472.464L1100.78,472.296Z" style="fill:rgb(255,0,0);fill-rule:nonzero;"/>
            </g>
            <g transform="matrix(1.51508,0,0,0.80578,-726.953,118.833)">
                <path d="M1134.58,509.454L1134.58,518.534C1137.27,515.171 1140.55,512.509 1144.41,510.547C1148.28,508.585 1152.23,507.605 1156.27,507.605C1161.2,507.605 1165.57,508.95 1169.38,511.64C1173.19,514.33 1175.72,517.525 1176.95,521.224C1177.51,522.905 1177.99,525.231 1178.38,528.201C1178.77,531.172 1178.97,534.507 1178.97,538.206L1178.97,610L1154.25,610L1154.25,561.24C1154.25,556.196 1153.33,552.805 1151.48,551.068C1149.63,549.331 1147.47,548.462 1145,548.462C1141.75,548.462 1139.2,549.499 1137.35,551.572C1135.5,553.646 1134.58,556.308 1134.58,559.559L1134.58,610L1110.2,610C1110.2,606.301 1110.23,602.406 1110.28,598.314C1110.34,594.223 1110.37,590.132 1110.37,586.041L1110.37,552.833C1110.37,548.574 1110.34,543.922 1110.28,538.878C1110.23,533.834 1110.2,528.678 1110.2,523.41L1110.2,509.454L1134.58,509.454Z" style="fill:rgb(255,0,0);fill-rule:nonzero;"/>
            </g>
            <g transform="matrix(1.51508,0,0,0.80578,-726.953,118.833)">
                <path d="M1268.42,610L1245.38,610L1245.38,601.761C1241.35,605.012 1237.09,607.506 1232.6,609.243C1228.12,610.981 1223.75,611.85 1219.49,611.85C1214.44,611.85 1209.79,610.617 1205.53,608.15C1201.27,605.684 1197.6,602.238 1194.52,597.81C1191.44,593.382 1189,588.086 1187.21,581.921C1185.41,575.756 1184.52,569.031 1184.52,561.745C1184.52,554.123 1185.47,547.005 1187.37,540.391C1189.28,533.778 1191.89,528.033 1195.19,523.157C1198.5,518.281 1202.42,514.47 1206.96,511.724C1211.5,508.978 1216.41,507.605 1221.67,507.605C1226.27,507.605 1230.64,508.585 1234.79,510.547C1238.94,512.509 1242.47,514.947 1245.38,517.861L1245.38,468.597L1269.26,468.597L1268.42,610ZM1216.63,549.303C1216.63,553.898 1217.89,557.597 1220.41,560.4C1222.93,563.202 1226.16,564.603 1230.08,564.603C1234.34,564.603 1237.95,563.09 1240.93,560.063C1243.9,557.037 1245.38,553.17 1245.38,548.462C1245.38,546.332 1245.02,544.315 1244.29,542.409C1243.56,540.503 1242.52,538.85 1241.18,537.449C1239.83,536.048 1238.26,534.955 1236.47,534.17C1234.68,533.386 1232.77,532.993 1230.75,532.993C1226.72,532.993 1223.36,534.507 1220.66,537.533C1217.98,540.559 1216.63,544.483 1216.63,549.303Z" style="fill:rgb(255,0,0);fill-rule:nonzero;"/>
            </g>
            <g transform="matrix(1.51508,0,0,0.80578,-726.953,118.833)">
                <path d="M1311.8,557.037C1313.25,561.857 1315.66,565.78 1319.03,568.806C1322.39,571.833 1327.04,573.346 1332.98,573.346C1334.77,573.346 1336.71,573.206 1338.78,572.926C1340.86,572.646 1342.9,572.253 1344.92,571.749C1346.94,571.244 1348.84,570.684 1350.63,570.068C1352.43,569.451 1354,568.863 1355.34,568.302C1355.57,571.553 1355.71,575 1355.76,578.642C1355.82,582.285 1355.85,585.9 1355.85,589.487C1355.85,595.428 1355.68,600.752 1355.34,605.46C1346.6,609.72 1336.79,611.85 1325.92,611.85C1320.88,611.85 1315.78,611.289 1310.62,610.168C1305.46,609.047 1300.47,606.917 1295.65,603.779C1291.39,600.977 1287.89,597.698 1285.15,593.943C1282.4,590.188 1280.24,586.321 1278.67,582.341C1277.1,578.362 1276.04,574.467 1275.48,570.656C1274.92,566.845 1274.64,563.426 1274.64,560.4C1274.64,555.916 1275.17,551.236 1276.23,546.36C1277.3,541.484 1278.95,536.832 1281.19,532.405C1283.44,527.977 1286.3,523.914 1289.77,520.215C1293.24,516.516 1297.34,513.602 1302.04,511.472C1307.76,508.894 1313.81,507.605 1320.2,507.605C1326.93,507.605 1332.98,508.95 1338.36,511.64C1343.74,514.33 1348.11,518.029 1351.48,522.737C1354.73,527.221 1356.77,532.209 1357.61,537.701C1358.45,543.194 1358.87,549.639 1358.87,557.037L1311.8,557.037ZM1321.38,525.763C1319.03,525.763 1316.78,526.744 1314.65,528.706C1312.52,530.667 1311.12,534.114 1310.45,539.046L1332.48,539.046C1332.03,534.563 1330.71,531.228 1328.53,529.042C1326.34,526.856 1323.96,525.763 1321.38,525.763Z" style="fill:rgb(255,0,0);fill-rule:nonzero;"/>
            </g>
            <g transform="matrix(1.51508,0,0,0.80578,-726.953,118.833)">
                <path d="M1386.45,509.454L1387.62,522.233C1388.97,520.103 1390.6,518.141 1392.5,516.348C1394.41,514.554 1396.4,513.013 1398.47,511.724C1400.54,510.435 1402.62,509.426 1404.69,508.698C1406.77,507.969 1408.7,507.605 1410.49,507.605C1410.72,510.519 1410.91,513.854 1411.08,517.609C1411.25,521.364 1411.33,525.203 1411.33,529.126C1411.33,533.61 1411.25,538.037 1411.08,542.409C1410.91,546.781 1410.72,550.816 1410.49,554.515C1409.48,554.066 1408.08,553.73 1406.29,553.506C1404.5,553.282 1402.98,553.17 1401.75,553.17C1397.6,553.17 1394.55,554.151 1392.59,556.112C1390.62,558.074 1389.64,560.512 1389.64,563.426L1389.64,610L1364.93,610C1365.04,591.841 1365.12,574.607 1365.18,558.298C1365.24,541.989 1365.26,525.707 1365.26,509.454L1386.45,509.454Z" style="fill:rgb(255,0,0);fill-rule:nonzero;"/>
            </g>
            <g transform="matrix(1,0,0,0.739769,1.51323,155.815)">
                <path d="M675.229,616.455C679.265,616.455 682.767,616.707 685.738,617.211C688.708,617.716 691.483,618.416 694.061,619.313C694.061,621.219 694.089,623.236 694.145,625.366C694.201,627.496 694.229,629.794 694.229,632.26C694.229,634.726 694.201,637.332 694.145,640.078C694.089,642.824 694.061,645.374 694.061,647.728C689.801,645.038 684.701,643.693 678.76,643.693C673.156,643.693 668.476,644.73 664.721,646.803C660.966,648.877 657.939,651.539 655.641,654.79C653.344,658.041 651.718,661.599 650.765,665.467C649.813,669.334 649.336,673.005 649.336,676.48C649.336,681.187 650.065,685.615 651.522,689.762C652.979,693.91 655.025,697.525 657.659,700.607C660.293,703.69 663.376,706.128 666.907,707.921C670.437,709.715 674.277,710.611 678.424,710.611C680.329,710.611 682.767,710.331 685.738,709.771C688.708,709.21 691.483,708.145 694.061,706.576C694.061,710.499 694.089,714.591 694.145,718.85C694.201,723.109 694.229,727.257 694.229,731.292C694.229,735.552 694.201,739.699 694.145,743.734C694.089,747.77 694.061,751.805 694.061,755.84C687.784,757.185 681.394,757.858 674.893,757.858C665.029,757.858 656.202,756.232 648.412,752.982C640.621,749.731 634.008,745.051 628.571,738.942C623.135,732.833 618.988,725.435 616.129,716.748C613.271,708.061 611.842,698.337 611.842,687.577C611.842,677.264 613.187,667.764 615.877,659.077C618.567,650.39 622.574,642.88 627.899,636.547C633.223,630.214 639.837,625.282 647.739,621.751C655.641,618.22 664.805,616.455 675.229,616.455Z" style="fill:rgb(255,0,0);fill-rule:nonzero;"/>
            </g>
            <g transform="matrix(1,0,0,0.739769,1.51323,155.815)">
                <path d="M737.272,653.613C750.947,653.613 760.727,658.097 766.612,667.064C772.497,676.031 775.439,688.922 775.439,705.735C775.439,722.661 772.497,735.58 766.612,744.491C760.727,753.402 750.947,757.858 737.272,757.858C723.485,757.858 713.649,753.402 707.764,744.491C701.879,735.58 698.937,722.661 698.937,705.735C698.937,688.922 701.879,676.031 707.764,667.064C713.649,658.097 723.485,653.613 737.272,653.613ZM737.272,718.346C739.514,718.346 741.503,717.897 743.241,717.001C744.978,716.104 746.407,714.927 747.528,713.47C748.649,712.012 749.49,710.359 750.05,708.51C750.611,706.66 750.891,704.727 750.891,702.709C750.891,700.691 750.611,698.73 750.05,696.824C749.49,694.919 748.649,693.237 747.528,691.78C746.407,690.323 744.978,689.146 743.241,688.249C741.503,687.352 739.514,686.904 737.272,686.904C732.676,686.904 729.229,688.529 726.931,691.78C724.634,695.031 723.485,698.674 723.485,702.709C723.485,704.727 723.765,706.66 724.325,708.51C724.886,710.359 725.754,712.012 726.931,713.47C728.108,714.927 729.538,716.104 731.219,717.001C732.9,717.897 734.918,718.346 737.272,718.346Z" style="fill:rgb(255,0,0);fill-rule:nonzero;"/>
            </g>
            <g transform="matrix(1,0,0,0.739769,1.51323,155.815)">
                <path d="M806.04,655.462L806.04,664.542C808.73,661.179 812.009,658.517 815.876,656.555C819.743,654.594 823.694,653.613 827.729,653.613C832.661,653.613 837.033,654.958 840.844,657.648C844.655,660.338 847.177,663.533 848.41,667.232C848.971,668.913 849.447,671.239 849.839,674.21C850.232,677.18 850.428,680.515 850.428,684.214L850.428,756.008L825.712,756.008L825.712,707.249C825.712,702.204 824.787,698.814 822.938,697.076C821.088,695.339 818.93,694.47 816.464,694.47C813.214,694.47 810.664,695.507 808.814,697.581C806.965,699.654 806.04,702.317 806.04,705.567L806.04,756.008L781.66,756.008C781.66,752.309 781.688,748.414 781.744,744.323C781.8,740.231 781.828,736.14 781.828,732.049L781.828,698.842C781.828,694.582 781.8,689.93 781.744,684.886C781.688,679.842 781.66,674.686 781.66,669.418L781.66,655.462L806.04,655.462Z" style="fill:rgb(255,0,0);fill-rule:nonzero;"/>
            </g>
            <g transform="matrix(1,0,0,0.739769,1.51323,155.815)">
                <path d="M868.082,661.684C871.893,658.657 875.985,656.555 880.356,655.378C884.728,654.201 889.155,653.613 893.639,653.613C896.89,653.613 900.112,653.893 903.307,654.454C906.502,655.014 909.556,655.743 912.47,656.639C912.695,663.477 912.835,669.054 912.891,673.369C912.947,677.685 912.975,681.019 912.975,683.373C912.975,686.736 912.919,689.118 912.807,690.519C912.695,691.92 912.583,693.237 912.47,694.47C912.246,694.47 911.686,694.358 910.789,694.134C909.892,693.91 908.827,693.686 907.594,693.461C906.361,693.237 905.044,693.041 903.643,692.873C902.242,692.705 900.869,692.621 899.524,692.621C897.506,692.621 895.797,692.873 894.396,693.377C892.995,693.882 892.294,694.863 892.294,696.32C892.294,697.553 892.742,698.702 893.639,699.766C894.536,700.831 895.629,701.896 896.918,702.961C898.207,704.026 899.608,705.035 901.121,705.988C902.634,706.94 904.064,707.809 905.409,708.594C908.435,710.611 911.265,713.33 913.9,716.748C916.534,720.167 917.851,724.679 917.851,730.283C917.851,735.215 916.758,739.419 914.572,742.894C912.386,746.368 909.612,749.227 906.249,751.469C902.887,753.71 899.104,755.336 894.9,756.345C890.697,757.353 886.577,757.858 882.542,757.858C880.973,757.858 879.179,757.802 877.162,757.69C875.144,757.578 873.098,757.353 871.025,757.017C868.951,756.681 866.905,756.26 864.888,755.756C862.87,755.252 861.021,754.607 859.339,753.822C858.779,751.917 858.386,749.871 858.162,747.685C857.938,745.5 857.826,743.342 857.826,741.212C857.826,740.203 857.854,738.97 857.91,737.513C857.966,736.056 858.05,734.571 858.162,733.058C858.274,731.544 858.442,730.059 858.667,728.602C858.891,727.145 859.115,725.912 859.339,724.903C860.572,725.463 862.001,726.052 863.627,726.668C865.252,727.285 866.961,727.873 868.755,728.434C870.548,728.994 872.314,729.471 874.051,729.863C875.789,730.255 877.442,730.451 879.011,730.451C881.253,730.451 882.99,730.003 884.223,729.106C885.456,728.21 886.073,726.977 886.073,725.407C886.073,724.062 885.681,722.857 884.896,721.792C884.111,720.728 883.159,719.719 882.038,718.766C880.917,717.813 879.684,716.973 878.339,716.244C876.994,715.515 875.761,714.871 874.64,714.31C872.51,713.189 870.324,711.956 868.082,710.611C865.84,709.266 863.823,707.613 862.029,705.651C860.236,703.69 858.779,701.308 857.658,698.505C856.537,695.703 855.976,692.284 855.976,688.249C855.976,683.541 856.901,678.833 858.751,674.126C860.6,669.418 863.711,665.27 868.082,661.684Z" style="fill:rgb(255,0,0);fill-rule:nonzero;"/>
            </g>
            <g transform="matrix(1,0,0,0.739769,1.51323,155.815)">
                <path d="M931.302,635.959L954.336,635.959L954.336,655.462L967.283,655.462L967.283,700.187L954,700.187L954,723.726C954,728.322 954.393,731.376 955.177,732.889C955.962,734.403 957.755,735.159 960.558,735.159C961.342,735.159 962.407,735.103 963.752,734.991C965.097,734.879 966.106,734.711 966.779,734.487C967.003,735.271 967.115,736.869 967.115,739.279L967.115,752.393C967.115,754.131 967.059,755.336 966.947,756.008C965.602,756.232 964.116,756.429 962.491,756.597C960.866,756.765 959.297,756.905 957.783,757.017C956.27,757.129 954.869,757.213 953.58,757.269C952.291,757.325 951.254,757.353 950.469,757.353C946.434,757.353 943.127,756.569 940.549,754.999C937.971,753.43 935.954,751.328 934.496,748.694C933.039,746.06 932.03,743.09 931.47,739.783C930.909,736.476 930.629,733.086 930.629,729.611C930.629,728.266 930.657,726.276 930.713,723.642C930.769,721.008 930.825,718.234 930.881,715.319C930.937,712.405 931.022,709.574 931.134,706.828C931.246,704.082 931.302,701.868 931.302,700.187L921.214,700.187L921.214,655.462L931.302,655.462L931.302,635.959Z" style="fill:rgb(255,0,0);fill-rule:nonzero;"/>
            </g>
            <g transform="matrix(1,0,0,0.739769,1.51323,155.815)">
                <path d="M995.194,655.462L996.371,668.241C997.716,666.111 999.341,664.15 1001.25,662.356C1003.15,660.563 1005.14,659.021 1007.22,657.732C1009.29,656.443 1011.36,655.434 1013.44,654.706C1015.51,653.977 1017.44,653.613 1019.24,653.613C1019.46,656.527 1019.66,659.862 1019.83,663.617C1019.99,667.372 1020.08,671.211 1020.08,675.134C1020.08,679.618 1019.99,684.046 1019.83,688.417C1019.66,692.789 1019.46,696.824 1019.24,700.523C1018.23,700.075 1016.83,699.738 1015.03,699.514C1013.24,699.29 1011.73,699.178 1010.49,699.178C1006.35,699.178 1003.29,700.159 1001.33,702.12C999.369,704.082 998.388,706.52 998.388,709.434L998.388,756.008L973.672,756.008C973.784,737.849 973.868,720.615 973.924,704.306C973.98,687.997 974.008,671.716 974.008,655.462L995.194,655.462Z" style="fill:rgb(255,0,0);fill-rule:nonzero;"/>
            </g>
            <g transform="matrix(1,0,0,0.739769,1.51323,155.815)">
                <path d="M1070.86,756.008L1070.86,747.097C1068.16,750.348 1064.91,752.954 1061.1,754.915C1057.29,756.877 1053.42,757.858 1049.5,757.858C1047.04,757.858 1044.65,757.493 1042.36,756.765C1040.06,756.036 1037.96,755.055 1036.05,753.822C1034.14,752.589 1032.49,751.104 1031.09,749.367C1029.69,747.629 1028.65,745.752 1027.98,743.734C1027.53,742.165 1027.17,739.895 1026.89,736.925C1026.61,733.954 1026.47,730.788 1026.47,727.425L1026.47,655.462L1051.18,655.462L1051.18,705.903C1051.18,709.266 1051.97,711.928 1053.54,713.89C1055.11,715.852 1057.24,716.832 1059.93,716.832C1061.27,716.832 1062.64,716.552 1064.05,715.992C1065.45,715.431 1066.68,714.703 1067.75,713.806C1068.81,712.909 1069.68,711.844 1070.35,710.611C1071.02,709.378 1071.36,708.089 1071.36,706.744L1071.36,655.462L1096.08,655.462C1095.96,659.161 1095.85,663.057 1095.74,667.148C1095.63,671.239 1095.52,675.331 1095.4,679.422C1095.29,683.513 1095.21,687.577 1095.15,691.612C1095.1,695.647 1095.07,699.458 1095.07,703.045L1095.07,712.629C1095.07,716.888 1095.1,721.54 1095.15,726.584C1095.21,731.628 1095.24,736.785 1095.24,742.053L1095.24,756.008L1070.86,756.008Z" style="fill:rgb(255,0,0);fill-rule:nonzero;"/>
            </g>
            <g transform="matrix(1,0,0,0.739769,1.51323,155.815)">
                <path d="M1150.22,653.613C1156.83,653.613 1162.83,654.566 1168.21,656.471C1168.21,658.377 1168.24,660.422 1168.29,662.608C1168.35,664.794 1168.38,667.008 1168.38,669.25C1168.38,671.604 1168.35,673.957 1168.29,676.311C1168.24,678.665 1168.21,680.851 1168.21,682.869C1164.51,679.73 1159.97,678.161 1154.59,678.161C1151.23,678.161 1148.42,678.693 1146.18,679.758C1143.94,680.823 1142.12,682.196 1140.72,683.878C1139.32,685.559 1138.33,687.38 1137.77,689.342C1137.21,691.304 1136.93,693.181 1136.93,694.975C1136.93,697.441 1137.38,699.766 1138.28,701.952C1139.17,704.138 1140.41,706.072 1141.98,707.753C1143.55,709.434 1145.37,710.751 1147.44,711.704C1149.52,712.657 1151.73,713.133 1154.08,713.133C1156.33,713.133 1158.68,712.685 1161.14,711.788C1163.61,710.892 1165.96,709.659 1168.21,708.089C1168.21,711.788 1168.24,715.627 1168.29,719.607C1168.35,723.586 1168.38,727.593 1168.38,731.628C1168.38,735.552 1168.35,739.559 1168.29,743.65C1168.24,747.742 1168.21,751.805 1168.21,755.84C1161.93,757.185 1155.71,757.858 1149.54,757.858C1141.92,757.858 1135.14,756.653 1129.2,754.243C1123.26,751.833 1118.21,748.386 1114.07,743.902C1109.92,739.419 1106.75,733.954 1104.57,727.509C1102.38,721.064 1101.29,713.862 1101.29,705.903C1101.29,698.393 1102.3,691.416 1104.32,684.97C1106.33,678.525 1109.39,673.005 1113.48,668.409C1117.57,663.813 1122.67,660.198 1128.78,657.564C1134.89,654.93 1142.03,653.613 1150.22,653.613Z" style="fill:rgb(255,0,0);fill-rule:nonzero;"/>
            </g>
            <g transform="matrix(1,0,0,0.739769,1.51323,155.815)">
                <path d="M1184.52,635.959L1207.55,635.959L1207.55,655.462L1220.5,655.462L1220.5,700.187L1207.21,700.187L1207.21,723.726C1207.21,728.322 1207.61,731.376 1208.39,732.889C1209.18,734.403 1210.97,735.159 1213.77,735.159C1214.56,735.159 1215.62,735.103 1216.97,734.991C1218.31,734.879 1219.32,734.711 1219.99,734.487C1220.22,735.271 1220.33,736.869 1220.33,739.279L1220.33,752.393C1220.33,754.131 1220.27,755.336 1220.16,756.008C1218.82,756.232 1217.33,756.429 1215.7,756.597C1214.08,756.765 1212.51,756.905 1211,757.017C1209.48,757.129 1208.08,757.213 1206.79,757.269C1205.51,757.325 1204.47,757.353 1203.68,757.353C1199.65,757.353 1196.34,756.569 1193.76,754.999C1191.18,753.43 1189.17,751.328 1187.71,748.694C1186.25,746.06 1185.24,743.09 1184.68,739.783C1184.12,736.476 1183.84,733.086 1183.84,729.611C1183.84,728.266 1183.87,726.276 1183.93,723.642C1183.98,721.008 1184.04,718.234 1184.1,715.319C1184.15,712.405 1184.24,709.574 1184.35,706.828C1184.46,704.082 1184.52,701.868 1184.52,700.187L1174.43,700.187L1174.43,655.462L1184.52,655.462L1184.52,635.959Z" style="fill:rgb(255,0,0);fill-rule:nonzero;"/>
            </g>
            <g transform="matrix(1,0,0,0.739769,1.51323,155.815)">
                <path d="M1227.22,658.153L1251.94,658.153L1251.94,756.008L1227.22,756.008L1227.22,658.153ZM1240.17,616.455C1242.86,616.455 1245.3,616.987 1247.48,618.052C1249.67,619.117 1251.49,620.49 1252.95,622.171C1254.4,623.853 1255.53,625.73 1256.31,627.804C1257.1,629.878 1257.49,631.867 1257.49,633.773C1257.49,636.351 1257.01,638.733 1256.06,640.919C1255.11,643.104 1253.82,645.01 1252.19,646.635C1250.57,648.261 1248.72,649.55 1246.64,650.502C1244.57,651.455 1242.36,651.932 1240,651.932C1237.09,651.932 1234.51,651.455 1232.27,650.502C1230.03,649.55 1228.15,648.317 1226.63,646.803C1225.12,645.29 1224,643.525 1223.27,641.507C1222.54,639.489 1222.18,637.416 1222.18,635.286C1222.18,633.156 1222.6,630.971 1223.44,628.729C1224.28,626.487 1225.46,624.441 1226.97,622.592C1228.48,620.742 1230.36,619.257 1232.6,618.136C1234.85,617.015 1237.37,616.455 1240.17,616.455Z" style="fill:rgb(255,0,0);fill-rule:nonzero;"/>
            </g>
            <g transform="matrix(1,0,0,0.739769,1.51323,155.815)">
                <path d="M1296.66,653.613C1310.34,653.613 1320.12,658.097 1326,667.064C1331.89,676.031 1334.83,688.922 1334.83,705.735C1334.83,722.661 1331.89,735.58 1326,744.491C1320.12,753.402 1310.34,757.858 1296.66,757.858C1282.88,757.858 1273.04,753.402 1267.15,744.491C1261.27,735.58 1258.33,722.661 1258.33,705.735C1258.33,688.922 1261.27,676.031 1267.15,667.064C1273.04,658.097 1282.88,653.613 1296.66,653.613ZM1296.66,718.346C1298.9,718.346 1300.89,717.897 1302.63,717.001C1304.37,716.104 1305.8,714.927 1306.92,713.47C1308.04,712.012 1308.88,710.359 1309.44,708.51C1310,706.66 1310.28,704.727 1310.28,702.709C1310.28,700.691 1310,698.73 1309.44,696.824C1308.88,694.919 1308.04,693.237 1306.92,691.78C1305.8,690.323 1304.37,689.146 1302.63,688.249C1300.89,687.352 1298.9,686.904 1296.66,686.904C1292.07,686.904 1288.62,688.529 1286.32,691.78C1284.03,695.031 1282.88,698.674 1282.88,702.709C1282.88,704.727 1283.16,706.66 1283.72,708.51C1284.28,710.359 1285.15,712.012 1286.32,713.47C1287.5,714.927 1288.93,716.104 1290.61,717.001C1292.29,717.897 1294.31,718.346 1296.66,718.346Z" style="fill:rgb(255,0,0);fill-rule:nonzero;"/>
            </g>
            <g transform="matrix(1,0,0,0.739769,1.51323,155.815)">
                <path d="M1365.43,655.462L1365.43,664.542C1368.12,661.179 1371.4,658.517 1375.27,656.555C1379.13,654.594 1383.09,653.613 1387.12,653.613C1392.05,653.613 1396.42,654.958 1400.24,657.648C1404.05,660.338 1406.57,663.533 1407.8,667.232C1408.36,668.913 1408.84,671.239 1409.23,674.21C1409.62,677.18 1409.82,680.515 1409.82,684.214L1409.82,756.008L1385.1,756.008L1385.1,707.249C1385.1,702.204 1384.18,698.814 1382.33,697.076C1380.48,695.339 1378.32,694.47 1375.86,694.47C1372.61,694.47 1370.06,695.507 1368.2,697.581C1366.36,699.654 1365.43,702.317 1365.43,705.567L1365.43,756.008L1341.05,756.008C1341.05,752.309 1341.08,748.414 1341.13,744.323C1341.19,740.231 1341.22,736.14 1341.22,732.049L1341.22,698.842C1341.22,694.582 1341.19,689.93 1341.13,684.886C1341.08,679.842 1341.05,674.686 1341.05,669.418L1341.05,655.462L1365.43,655.462Z" style="fill:rgb(255,0,0);fill-rule:nonzero;"/>
            </g>
        </g>
    </g>
</svg>
