<svg width="100%" height="100%" viewBox="0 0 416 90" version="1.1" xmlns="http://www.w3.org/2000/svg" xmlns:xlink="http://www.w3.org/1999/xlink" xml:space="preserve" xmlns:serif="http://www.serif.com/" style="fill-rule:evenodd;clip-rule:evenodd;stroke-linejoin:round;stroke-miterlimit:2;">
    <g transform="matrix(1,0,0,1,-292.465,-1199.64)">
        <g transform="matrix(0.627818,0,0,0.627818,-177.269,905.442)">
            <path d="M748.201,610C748.313,608.207 748.397,605.152 748.453,600.837C748.509,596.521 748.537,591.421 748.537,585.536L748.537,501.72C748.537,495.331 748.509,489.614 748.453,484.57C748.397,479.526 748.313,475.547 748.201,472.632C752.572,472.632 757.392,472.604 762.66,472.548C767.929,472.492 773.309,472.436 778.802,472.38C784.294,472.324 789.674,472.24 794.943,472.128C800.211,472.016 805.143,471.904 809.739,471.792C809.851,473.473 809.907,475.098 809.907,476.667L809.907,481.375C809.907,484.626 809.851,487.989 809.739,491.464C809.627,494.938 809.459,498.413 809.234,501.888L775.439,501.888L775.439,527.109L803.518,527.109L803.518,555.692L775.439,555.692C775.439,561.296 775.467,566.845 775.523,572.337C775.579,577.83 775.635,582.986 775.691,587.806C775.747,592.626 775.831,596.969 775.943,600.837C776.055,604.704 776.167,607.758 776.28,610L748.201,610Z" style="fill:rgb(255,0,0);fill-rule:nonzero;"/>
            <path d="M851.773,507.605C865.448,507.605 875.228,512.088 881.113,521.056C886.998,530.023 889.94,542.913 889.94,559.727C889.94,576.653 886.998,589.571 881.113,598.483C875.228,607.394 865.448,611.85 851.773,611.85C837.986,611.85 828.15,607.394 822.265,598.483C816.38,589.571 813.438,576.653 813.438,559.727C813.438,542.913 816.38,530.023 822.265,521.056C828.15,512.088 837.986,507.605 851.773,507.605ZM851.773,572.337C854.015,572.337 856.004,571.889 857.742,570.992C859.479,570.096 860.908,568.919 862.029,567.461C863.15,566.004 863.991,564.351 864.551,562.501C865.112,560.652 865.392,558.718 865.392,556.701C865.392,554.683 865.112,552.721 864.551,550.816C863.991,548.91 863.15,547.229 862.029,545.772C860.908,544.315 859.479,543.138 857.742,542.241C856.004,541.344 854.015,540.896 851.773,540.896C847.177,540.896 843.73,542.521 841.433,545.772C839.135,549.022 837.986,552.665 837.986,556.701C837.986,558.718 838.266,560.652 838.826,562.501C839.387,564.351 840.256,566.004 841.433,567.461C842.61,568.919 844.039,570.096 845.72,570.992C847.401,571.889 849.419,572.337 851.773,572.337Z" style="fill:rgb(255,0,0);fill-rule:nonzero;"/>
            <path d="M917.515,509.454L918.691,522.233C920.037,520.103 921.662,518.141 923.567,516.348C925.473,514.554 927.463,513.013 929.536,511.724C931.61,510.435 933.684,509.426 935.757,508.698C937.831,507.969 939.765,507.605 941.558,507.605C941.782,510.519 941.978,513.854 942.147,517.609C942.315,521.364 942.399,525.203 942.399,529.126C942.399,533.61 942.315,538.037 942.147,542.409C941.978,546.781 941.782,550.816 941.558,554.515C940.549,554.066 939.148,553.73 937.355,553.506C935.561,553.282 934.048,553.17 932.815,553.17C928.668,553.17 925.613,554.151 923.652,556.112C921.69,558.074 920.709,560.512 920.709,563.426L920.709,610L895.993,610C896.105,591.841 896.189,574.607 896.245,558.298C896.301,541.989 896.329,525.707 896.329,509.454L917.515,509.454Z" style="fill:rgb(255,0,0);fill-rule:nonzero;"/>
            <path d="M948.62,468.597L972.495,468.597L972.495,517.861C975.522,514.947 979.081,512.509 983.172,510.547C987.263,508.585 991.607,507.605 996.203,507.605C1001.47,507.605 1006.38,508.978 1010.92,511.724C1015.45,514.47 1019.38,518.281 1022.68,523.157C1025.99,528.033 1028.6,533.778 1030.5,540.391C1032.41,547.005 1033.36,554.123 1033.36,561.745C1033.36,569.031 1032.46,575.756 1030.67,581.921C1028.88,588.086 1026.44,593.382 1023.36,597.81C1020.27,602.238 1016.6,605.684 1012.34,608.15C1008.08,610.617 1003.43,611.85 998.388,611.85C994.129,611.85 989.757,610.981 985.274,609.243C980.79,607.506 976.531,605.012 972.495,601.761L972.495,610L949.461,610L948.62,468.597ZM972.495,549.303C972.495,553.898 973.756,557.597 976.278,560.4C978.8,563.202 982.023,564.603 985.946,564.603C990.206,564.603 993.821,563.09 996.791,560.063C999.761,557.037 1001.25,553.17 1001.25,548.462C1001.25,546.332 1000.88,544.315 1000.15,542.409C999.425,540.503 998.388,538.85 997.043,537.449C995.698,536.048 994.157,534.955 992.419,534.17C990.682,533.386 988.805,532.993 986.787,532.993C982.64,532.993 979.221,534.507 976.531,537.533C973.84,540.559 972.495,544.483 972.495,549.303Z" style="fill:rgb(255,0,0);fill-rule:nonzero;"/>
            <path d="M1039.41,512.144L1064.13,512.144L1064.13,610L1039.41,610L1039.41,512.144ZM1052.36,470.446C1055.05,470.446 1057.49,470.979 1059.67,472.044C1061.86,473.109 1063.68,474.482 1065.14,476.163C1066.6,477.844 1067.72,479.722 1068.5,481.796C1069.29,483.869 1069.68,485.859 1069.68,487.765C1069.68,490.343 1069.2,492.725 1068.25,494.91C1067.3,497.096 1066.01,499.002 1064.38,500.627C1062.76,502.252 1060.91,503.541 1058.83,504.494C1056.76,505.447 1054.55,505.923 1052.19,505.923C1049.28,505.923 1046.7,505.447 1044.46,504.494C1042.22,503.541 1040.34,502.308 1038.83,500.795C1037.31,499.282 1036.19,497.516 1035.46,495.499C1034.73,493.481 1034.37,491.407 1034.37,489.278C1034.37,487.148 1034.79,484.962 1035.63,482.72C1036.47,480.479 1037.65,478.433 1039.16,476.583C1040.67,474.734 1042.55,473.249 1044.79,472.128C1047.04,471.007 1049.56,470.446 1052.36,470.446Z" style="fill:rgb(255,0,0);fill-rule:nonzero;"/>
            <path d="M1154.08,610L1131.05,610L1131.05,601.761C1127.01,605.012 1122.75,607.506 1118.27,609.243C1113.79,610.981 1109.41,611.85 1105.15,611.85C1100.11,611.85 1095.46,610.617 1091.2,608.15C1086.94,605.684 1083.27,602.238 1080.19,597.81C1077.1,593.382 1074.67,588.086 1072.87,581.921C1071.08,575.756 1070.18,569.031 1070.18,561.745C1070.18,554.123 1071.14,547.005 1073.04,540.391C1074.95,533.778 1077.55,528.033 1080.86,523.157C1084.17,518.281 1088.09,514.47 1092.63,511.724C1097.17,508.978 1102.07,507.605 1107.34,507.605C1111.94,507.605 1116.31,508.585 1120.46,510.547C1124.6,512.509 1128.13,514.947 1131.05,517.861L1131.05,468.597L1154.92,468.597L1154.08,610ZM1102.3,549.303C1102.3,553.898 1103.56,557.597 1106.08,560.4C1108.6,563.202 1111.83,564.603 1115.75,564.603C1120.01,564.603 1123.62,563.09 1126.59,560.063C1129.56,557.037 1131.05,553.17 1131.05,548.462C1131.05,546.332 1130.68,544.315 1129.95,542.409C1129.23,540.503 1128.19,538.85 1126.85,537.449C1125.5,536.048 1123.93,534.955 1122.14,534.17C1120.34,533.386 1118.44,532.993 1116.42,532.993C1112.38,532.993 1109.02,534.507 1106.33,537.533C1103.64,540.559 1102.3,544.483 1102.3,549.303Z" style="fill:rgb(255,0,0);fill-rule:nonzero;"/>
            <path d="M1244.37,610L1221.34,610L1221.34,601.761C1217.3,605.012 1213.04,607.506 1208.56,609.243C1204.08,610.981 1199.7,611.85 1195.44,611.85C1190.4,611.85 1185.75,610.617 1181.49,608.15C1177.23,605.684 1173.56,602.238 1170.48,597.81C1167.39,593.382 1164.96,588.086 1163.16,581.921C1161.37,575.756 1160.47,569.031 1160.47,561.745C1160.47,554.123 1161.42,547.005 1163.33,540.391C1165.24,533.778 1167.84,528.033 1171.15,523.157C1174.46,518.281 1178.38,514.47 1182.92,511.724C1187.46,508.978 1192.36,507.605 1197.63,507.605C1202.23,507.605 1206.6,508.585 1210.75,510.547C1214.89,512.509 1218.42,514.947 1221.34,517.861L1221.34,468.597L1245.21,468.597L1244.37,610ZM1192.59,549.303C1192.59,553.898 1193.85,557.597 1196.37,560.4C1198.89,563.202 1202.11,564.603 1206.04,564.603C1210.3,564.603 1213.91,563.09 1216.88,560.063C1219.85,557.037 1221.34,553.17 1221.34,548.462C1221.34,546.332 1220.97,544.315 1220.25,542.409C1219.52,540.503 1218.48,538.85 1217.13,537.449C1215.79,536.048 1214.22,534.955 1212.43,534.17C1210.63,533.386 1208.73,532.993 1206.71,532.993C1202.67,532.993 1199.31,534.507 1196.62,537.533C1193.93,540.559 1192.59,544.483 1192.59,549.303Z" style="fill:rgb(255,0,0);fill-rule:nonzero;"/>
            <path d="M1287.75,557.037C1289.21,561.857 1291.62,565.78 1294.98,568.806C1298.34,571.833 1303,573.346 1308.94,573.346C1310.73,573.346 1312.66,573.206 1314.74,572.926C1316.81,572.646 1318.86,572.253 1320.88,571.749C1322.89,571.244 1324.8,570.684 1326.59,570.068C1328.38,569.451 1329.95,568.863 1331.3,568.302C1331.52,571.553 1331.66,575 1331.72,578.642C1331.78,582.285 1331.8,585.9 1331.8,589.487C1331.8,595.428 1331.64,600.752 1331.3,605.46C1322.56,609.72 1312.75,611.85 1301.88,611.85C1296.83,611.85 1291.73,611.289 1286.58,610.168C1281.42,609.047 1276.43,606.917 1271.61,603.779C1267.35,600.977 1263.85,597.698 1261.1,593.943C1258.36,590.188 1256.2,586.321 1254.63,582.341C1253.06,578.362 1252,574.467 1251.43,570.656C1250.87,566.845 1250.59,563.426 1250.59,560.4C1250.59,555.916 1251.13,551.236 1252.19,546.36C1253.26,541.484 1254.91,536.832 1257.15,532.405C1259.39,527.977 1262.25,523.914 1265.73,520.215C1269.2,516.516 1273.29,513.602 1278,511.472C1283.72,508.894 1289.77,507.605 1296.16,507.605C1302.88,507.605 1308.94,508.95 1314.32,511.64C1319.7,514.33 1324.07,518.029 1327.43,522.737C1330.68,527.221 1332.73,532.209 1333.57,537.701C1334.41,543.194 1334.83,549.639 1334.83,557.037L1287.75,557.037ZM1297.34,525.763C1294.98,525.763 1292.74,526.744 1290.61,528.706C1288.48,530.667 1287.08,534.114 1286.41,539.046L1308.43,539.046C1307.98,534.563 1306.67,531.228 1304.48,529.042C1302.3,526.856 1299.91,525.763 1297.34,525.763Z" style="fill:rgb(255,0,0);fill-rule:nonzero;"/>
            <path d="M1365.43,509.454L1365.43,518.534C1368.12,515.171 1371.4,512.509 1375.27,510.547C1379.13,508.585 1383.09,507.605 1387.12,507.605C1392.05,507.605 1396.42,508.95 1400.24,511.64C1404.05,514.33 1406.57,517.525 1407.8,521.224C1408.36,522.905 1408.84,525.231 1409.23,528.201C1409.62,531.172 1409.82,534.507 1409.82,538.206L1409.82,610L1385.1,610L1385.1,561.24C1385.1,556.196 1384.18,552.805 1382.33,551.068C1380.48,549.331 1378.32,548.462 1375.86,548.462C1372.61,548.462 1370.06,549.499 1368.2,551.572C1366.36,553.646 1365.43,556.308 1365.43,559.559L1365.43,610L1341.05,610C1341.05,606.301 1341.08,602.406 1341.13,598.314C1341.19,594.223 1341.22,590.132 1341.22,586.041L1341.22,552.833C1341.22,548.574 1341.19,543.922 1341.13,538.878C1341.08,533.834 1341.05,528.678 1341.05,523.41L1341.05,509.454L1365.43,509.454Z" style="fill:rgb(255,0,0);fill-rule:nonzero;"/>
        </g>
    </g>
</svg>
