<svg width="100%" height="100%" viewBox="0 0 556 90" version="1.1" xmlns="http://www.w3.org/2000/svg" xmlns:xlink="http://www.w3.org/1999/xlink" xml:space="preserve" xmlns:serif="http://www.serif.com/" style="fill-rule:evenodd;clip-rule:evenodd;stroke-linejoin:round;stroke-miterlimit:2;">
    <g transform="matrix(1,0,0,1,-152.599,-1199.64)">
        <g transform="matrix(0.627818,0,0,0.627818,-177.269,905.442)">
            <path d="M617.222,472.296C617.446,488.661 617.783,502.813 618.231,514.75C618.679,526.688 618.904,536.86 618.904,545.267C618.904,550.76 618.735,556.224 618.399,561.661C618.063,567.097 617.334,572.281 616.213,577.213C615.092,582.145 613.495,586.713 611.421,590.916C609.348,595.12 606.601,598.791 603.183,601.929C599.764,605.068 595.532,607.506 590.488,609.243C585.444,610.981 579.447,611.85 572.498,611.85C565.324,611.85 559.187,610.925 554.087,609.075C548.987,607.226 544.699,604.732 541.224,601.593C537.749,598.455 534.975,594.728 532.902,590.412C530.828,586.097 529.231,581.473 528.11,576.541C526.989,571.609 526.26,566.509 525.924,561.24C525.588,555.972 525.419,550.704 525.419,545.435C525.419,541.288 525.475,536.86 525.588,532.153C525.7,527.445 525.868,522.177 526.092,516.348C526.316,510.519 526.568,504.018 526.849,496.844C527.129,489.67 527.437,481.543 527.773,472.464L557.365,472.464C557.029,482.552 556.749,491.099 556.525,498.105C556.301,505.111 556.104,510.967 555.936,515.675C555.768,520.383 555.656,524.11 555.6,526.856C555.544,529.603 555.488,531.704 555.432,533.161C555.376,534.619 555.348,535.655 555.348,536.272L555.348,537.701C555.348,548.574 556.581,556.757 559.047,562.249C561.513,567.742 565.94,570.488 572.33,570.488C578.831,570.488 583.23,567.517 585.528,561.577C587.826,555.636 588.975,546.612 588.975,534.507L588.975,532.573C588.975,531.844 588.947,530.695 588.891,529.126C588.835,527.557 588.779,525.455 588.723,522.821C588.667,520.187 588.555,516.656 588.387,512.228C588.219,507.801 588.022,502.364 587.798,495.919C587.574,489.474 587.294,481.656 586.958,472.464L617.222,472.296Z" style="fill:rgb(255,0,0);fill-rule:nonzero;"/>
            <path d="M651.018,509.454L651.018,518.534C653.708,515.171 656.986,512.509 660.854,510.547C664.721,508.585 668.672,507.605 672.707,507.605C677.639,507.605 682.011,508.95 685.822,511.64C689.633,514.33 692.155,517.525 693.388,521.224C693.949,522.905 694.425,525.231 694.817,528.201C695.21,531.172 695.406,534.507 695.406,538.206L695.406,610L670.69,610L670.69,561.24C670.69,556.196 669.765,552.805 667.915,551.068C666.066,549.331 663.908,548.462 661.442,548.462C658.191,548.462 655.641,549.499 653.792,551.572C651.942,553.646 651.018,556.308 651.018,559.559L651.018,610L626.638,610C626.638,606.301 626.666,602.406 626.722,598.314C626.778,594.223 626.806,590.132 626.806,586.041L626.806,552.833C626.806,548.574 626.778,543.922 626.722,538.878C626.666,533.834 626.638,528.678 626.638,523.41L626.638,509.454L651.018,509.454Z" style="fill:rgb(255,0,0);fill-rule:nonzero;"/>
            <path d="M784.855,610L761.82,610L761.82,601.761C757.785,605.012 753.525,607.506 749.041,609.243C744.558,610.981 740.186,611.85 735.927,611.85C730.883,611.85 726.231,610.617 721.971,608.15C717.712,605.684 714.041,602.238 710.958,597.81C707.876,593.382 705.438,588.086 703.644,581.921C701.851,575.756 700.954,569.031 700.954,561.745C700.954,554.123 701.907,547.005 703.813,540.391C705.718,533.778 708.324,528.033 711.631,523.157C714.938,518.281 718.861,514.47 723.401,511.724C727.94,508.978 732.844,507.605 738.113,507.605C742.708,507.605 747.08,508.585 751.227,510.547C755.375,512.509 758.905,514.947 761.82,517.861L761.82,509.454L785.695,509.454L784.855,610ZM733.068,549.303C733.068,553.898 734.329,557.597 736.851,560.4C739.374,563.202 742.596,564.603 746.519,564.603C750.779,564.603 754.394,563.09 757.364,560.063C760.335,557.037 761.82,553.17 761.82,548.462C761.82,546.332 761.456,544.315 760.727,542.409C759.998,540.503 758.961,538.85 757.616,537.449C756.271,536.048 754.702,534.955 752.909,534.17C751.115,533.386 749.21,532.993 747.192,532.993C743.157,532.993 739.794,534.507 737.104,537.533C734.414,540.559 733.068,544.483 733.068,549.303Z" style="fill:rgb(255,0,0);fill-rule:nonzero;"/>
            <path d="M837.986,610L837.986,601.089C835.296,604.339 832.045,606.946 828.234,608.907C824.423,610.869 820.556,611.85 816.632,611.85C814.166,611.85 811.784,611.485 809.487,610.757C807.189,610.028 805.087,609.047 803.181,607.814C801.276,606.581 799.623,605.096 798.221,603.359C796.82,601.621 795.783,599.744 795.111,597.726C794.663,596.157 794.298,593.887 794.018,590.916C793.738,587.946 793.598,584.779 793.598,581.417L793.598,509.454L818.314,509.454L818.314,559.895C818.314,563.258 819.098,565.92 820.668,567.882C822.237,569.843 824.367,570.824 827.057,570.824C828.402,570.824 829.775,570.544 831.176,569.983C832.577,569.423 833.81,568.694 834.875,567.798C835.94,566.901 836.809,565.836 837.481,564.603C838.154,563.37 838.49,562.081 838.49,560.736L838.49,509.454L863.206,509.454C863.094,513.153 862.982,517.048 862.87,521.14C862.758,525.231 862.646,529.322 862.534,533.414C862.422,537.505 862.338,541.568 862.282,545.604C862.226,549.639 862.198,553.45 862.198,557.037L862.198,566.621C862.198,570.88 862.226,575.532 862.282,580.576C862.338,585.62 862.366,590.776 862.366,596.045L862.366,610L837.986,610Z" style="fill:rgb(255,0,0);fill-rule:nonzero;"/>
            <path d="M879.347,489.95L902.382,489.95L902.382,509.454L915.329,509.454L915.329,554.179L902.046,554.179L902.046,577.718C902.046,582.313 902.438,585.368 903.223,586.881C904.008,588.394 905.801,589.151 908.603,589.151C909.388,589.151 910.453,589.095 911.798,588.983C913.143,588.871 914.152,588.703 914.824,588.478C915.049,589.263 915.161,590.86 915.161,593.27L915.161,606.385C915.161,608.122 915.105,609.327 914.992,610C913.647,610.224 912.162,610.42 910.537,610.588C908.912,610.757 907.342,610.897 905.829,611.009C904.316,611.121 902.915,611.205 901.626,611.261C900.337,611.317 899.3,611.345 898.515,611.345C894.48,611.345 891.173,610.56 888.595,608.991C886.017,607.422 883.999,605.32 882.542,602.686C881.085,600.052 880.076,597.081 879.516,593.775C878.955,590.468 878.675,587.077 878.675,583.603C878.675,582.257 878.703,580.268 878.759,577.634C878.815,575 878.871,572.225 878.927,569.311C878.983,566.397 879.067,563.566 879.179,560.82C879.291,558.074 879.347,555.86 879.347,554.179L869.259,554.179L869.259,509.454L879.347,509.454L879.347,489.95Z" style="fill:rgb(255,0,0);fill-rule:nonzero;"/>
            <path d="M948.115,468.597C947.779,474.874 947.499,480.338 947.275,484.99C947.051,489.642 946.882,493.902 946.77,497.769C946.658,501.636 946.574,505.223 946.518,508.529C946.462,511.836 946.434,515.171 946.434,518.534C949.124,515.171 952.375,512.509 956.186,510.547C959.997,508.585 963.864,507.605 967.787,507.605C970.253,507.605 972.635,507.969 974.933,508.698C977.231,509.426 979.333,510.407 981.238,511.64C983.144,512.873 984.797,514.358 986.198,516.096C987.6,517.833 988.636,519.711 989.309,521.728C989.757,523.297 990.122,525.567 990.402,528.538C990.682,531.508 990.822,534.731 990.822,538.206L990.822,610L966.106,610L966.106,559.559C966.106,556.196 965.293,553.534 963.668,551.572C962.043,549.611 959.885,548.63 957.195,548.63C954.393,548.63 951.898,549.527 949.713,551.32C947.527,553.114 946.434,555.299 946.434,557.878L946.434,610L921.718,610C921.942,595.092 922.054,579.147 922.054,562.165L922.054,481.88C922.054,479.077 922.026,476.667 921.97,474.65C921.914,472.632 921.886,470.615 921.886,468.597L948.115,468.597Z" style="fill:rgb(255,0,0);fill-rule:nonzero;"/>
            <path d="M1035.21,507.605C1048.88,507.605 1058.66,512.088 1064.55,521.056C1070.43,530.023 1073.38,542.913 1073.38,559.727C1073.38,576.653 1070.43,589.571 1064.55,598.483C1058.66,607.394 1048.88,611.85 1035.21,611.85C1021.42,611.85 1011.59,607.394 1005.7,598.483C999.817,589.571 996.875,576.653 996.875,559.727C996.875,542.913 999.817,530.023 1005.7,521.056C1011.59,512.088 1021.42,507.605 1035.21,507.605ZM1035.21,572.337C1037.45,572.337 1039.44,571.889 1041.18,570.992C1042.92,570.096 1044.35,568.919 1045.47,567.461C1046.59,566.004 1047.43,564.351 1047.99,562.501C1048.55,560.652 1048.83,558.718 1048.83,556.701C1048.83,554.683 1048.55,552.721 1047.99,550.816C1047.43,548.91 1046.59,547.229 1045.47,545.772C1044.35,544.315 1042.92,543.138 1041.18,542.241C1039.44,541.344 1037.45,540.896 1035.21,540.896C1030.62,540.896 1027.17,542.521 1024.87,545.772C1022.57,549.022 1021.42,552.665 1021.42,556.701C1021.42,558.718 1021.7,560.652 1022.26,562.501C1022.82,564.351 1023.69,566.004 1024.87,567.461C1026.05,568.919 1027.48,570.096 1029.16,570.992C1030.84,571.889 1032.86,572.337 1035.21,572.337Z" style="fill:rgb(255,0,0);fill-rule:nonzero;"/>
            <path d="M1100.95,509.454L1102.13,522.233C1103.47,520.103 1105.1,518.141 1107.01,516.348C1108.91,514.554 1110.9,513.013 1112.97,511.724C1115.05,510.435 1117.12,509.426 1119.19,508.698C1121.27,507.969 1123.2,507.605 1125,507.605C1125.22,510.519 1125.42,513.854 1125.58,517.609C1125.75,521.364 1125.84,525.203 1125.84,529.126C1125.84,533.61 1125.75,538.037 1125.58,542.409C1125.42,546.781 1125.22,550.816 1125,554.515C1123.99,554.066 1122.59,553.73 1120.79,553.506C1119,553.282 1117.49,553.17 1116.25,553.17C1112.11,553.17 1109.05,554.151 1107.09,556.112C1105.13,558.074 1104.15,560.512 1104.15,563.426L1104.15,610L1079.43,610C1079.54,591.841 1079.63,574.607 1079.68,558.298C1079.74,541.989 1079.77,525.707 1079.77,509.454L1100.95,509.454Z" style="fill:rgb(255,0,0);fill-rule:nonzero;"/>
            <path d="M1132.56,512.144L1157.28,512.144L1157.28,610L1132.56,610L1132.56,512.144ZM1145.51,470.446C1148.2,470.446 1150.64,470.979 1152.82,472.044C1155.01,473.109 1156.83,474.482 1158.29,476.163C1159.74,477.844 1160.87,479.722 1161.65,481.796C1162.43,483.869 1162.83,485.859 1162.83,487.765C1162.83,490.343 1162.35,492.725 1161.4,494.91C1160.44,497.096 1159.15,499.002 1157.53,500.627C1155.9,502.252 1154.06,503.541 1151.98,504.494C1149.91,505.447 1147.69,505.923 1145.34,505.923C1142.43,505.923 1139.85,505.447 1137.61,504.494C1135.36,503.541 1133.49,502.308 1131.97,500.795C1130.46,499.282 1129.34,497.516 1128.61,495.499C1127.88,493.481 1127.52,491.407 1127.52,489.278C1127.52,487.148 1127.94,484.962 1128.78,482.72C1129.62,480.479 1130.8,478.433 1132.31,476.583C1133.82,474.734 1135.7,473.249 1137.94,472.128C1140.18,471.007 1142.71,470.446 1145.51,470.446Z" style="fill:rgb(255,0,0);fill-rule:nonzero;"/>
            <path d="M1164.51,610C1163.95,607.758 1163.58,605.292 1163.41,602.602C1163.25,599.912 1163.16,597.166 1163.16,594.363C1163.16,590.888 1163.3,587.638 1163.58,584.611C1163.86,581.585 1164.28,578.558 1164.84,575.532L1200.32,543.25L1167.87,543.25C1167.53,541.008 1167.25,538.458 1167.03,535.599C1166.81,532.741 1166.69,529.687 1166.69,526.436C1166.69,523.297 1166.81,520.271 1167.03,517.357C1167.25,514.442 1167.53,511.808 1167.87,509.454L1231.43,509.454C1231.65,511.472 1231.85,513.546 1232.01,515.675C1232.18,517.805 1232.27,520.159 1232.27,522.737C1232.27,524.53 1232.21,526.66 1232.1,529.126C1231.99,531.592 1231.76,534.731 1231.43,538.542L1191.07,574.187L1231.93,574.187C1232.27,576.765 1232.55,579.595 1232.77,582.678C1233,585.76 1233.11,588.927 1233.11,592.177C1233.11,595.54 1233,598.763 1232.77,601.845C1232.55,604.928 1232.27,607.646 1231.93,610L1164.51,610Z" style="fill:rgb(255,0,0);fill-rule:nonzero;"/>
            <path d="M1274.3,557.037C1275.76,561.857 1278.17,565.78 1281.53,568.806C1284.89,571.833 1289.55,573.346 1295.49,573.346C1297.28,573.346 1299.21,573.206 1301.29,572.926C1303.36,572.646 1305.41,572.253 1307.42,571.749C1309.44,571.244 1311.35,570.684 1313.14,570.068C1314.93,569.451 1316.5,568.863 1317.85,568.302C1318.07,571.553 1318.21,575 1318.27,578.642C1318.33,582.285 1318.35,585.9 1318.35,589.487C1318.35,595.428 1318.18,600.752 1317.85,605.46C1309.11,609.72 1299.3,611.85 1288.42,611.85C1283.38,611.85 1278.28,611.289 1273.12,610.168C1267.97,609.047 1262.98,606.917 1258.16,603.779C1253.9,600.977 1250.4,597.698 1247.65,593.943C1244.9,590.188 1242.75,586.321 1241.18,582.341C1239.61,578.362 1238.54,574.467 1237.98,570.656C1237.42,566.845 1237.14,563.426 1237.14,560.4C1237.14,555.916 1237.67,551.236 1238.74,546.36C1239.81,541.484 1241.46,536.832 1243.7,532.405C1245.94,527.977 1248.8,523.914 1252.28,520.215C1255.75,516.516 1259.84,513.602 1264.55,511.472C1270.27,508.894 1276.32,507.605 1282.71,507.605C1289.43,507.605 1295.49,508.95 1300.87,511.64C1306.25,514.33 1310.62,518.029 1313.98,522.737C1317.23,527.221 1319.28,532.209 1320.12,537.701C1320.96,543.194 1321.38,549.639 1321.38,557.037L1274.3,557.037ZM1283.88,525.763C1281.53,525.763 1279.29,526.744 1277.16,528.706C1275.03,530.667 1273.63,534.114 1272.96,539.046L1294.98,539.046C1294.53,534.563 1293.22,531.228 1291.03,529.042C1288.85,526.856 1286.46,525.763 1283.88,525.763Z" style="fill:rgb(255,0,0);fill-rule:nonzero;"/>
            <path d="M1408.98,610L1385.94,610L1385.94,601.761C1381.91,605.012 1377.65,607.506 1373.16,609.243C1368.68,610.981 1364.31,611.85 1360.05,611.85C1355.01,611.85 1350.36,610.617 1346.1,608.15C1341.84,605.684 1338.16,602.238 1335.08,597.81C1332,593.382 1329.56,588.086 1327.77,581.921C1325.98,575.756 1325.08,569.031 1325.08,561.745C1325.08,554.123 1326.03,547.005 1327.94,540.391C1329.84,533.778 1332.45,528.033 1335.76,523.157C1339.06,518.281 1342.99,514.47 1347.52,511.724C1352.06,508.978 1356.97,507.605 1362.24,507.605C1366.83,507.605 1371.2,508.585 1375.35,510.547C1379.5,512.509 1383.03,514.947 1385.94,517.861L1385.94,468.597L1409.82,468.597L1408.98,610ZM1357.19,549.303C1357.19,553.898 1358.45,557.597 1360.98,560.4C1363.5,563.202 1366.72,564.603 1370.64,564.603C1374.9,564.603 1378.52,563.09 1381.49,560.063C1384.46,557.037 1385.94,553.17 1385.94,548.462C1385.94,546.332 1385.58,544.315 1384.85,542.409C1384.12,540.503 1383.09,538.85 1381.74,537.449C1380.39,536.048 1378.83,534.955 1377.03,534.17C1375.24,533.386 1373.33,532.993 1371.32,532.993C1367.28,532.993 1363.92,534.507 1361.23,537.533C1358.54,540.559 1357.19,544.483 1357.19,549.303Z" style="fill:rgb(255,0,0);fill-rule:nonzero;"/>
        </g>
    </g>
</svg>
