<svg width="100%" height="100%" viewBox="0 0 456 292" version="1.1" xmlns="http://www.w3.org/2000/svg" xmlns:xlink="http://www.w3.org/1999/xlink" xml:space="preserve" xmlns:serif="http://www.serif.com/" style="fill-rule:evenodd;clip-rule:evenodd;stroke-linejoin:round;stroke-miterlimit:2;">
    <g transform="matrix(1,0,0,1,-577.761,-301)">
        <g>
            <g transform="matrix(2.07123,0,0,2.07123,-694.363,-359.953)">
                <path d="M643.115,384.235C641.656,384.182 639.727,384.143 637.33,384.117C634.932,384.091 632.366,384.065 629.629,384.039C626.893,384.013 624.157,384 621.421,384L614.189,384C614.241,382.905 614.28,381.446 614.306,379.622C614.332,377.798 614.345,375.713 614.345,373.368L614.345,357.263C614.345,353.302 614.332,349.341 614.306,345.38C614.28,341.419 614.267,337.731 614.267,334.318C614.267,330.904 614.254,327.946 614.228,325.444C614.202,322.943 614.189,321.17 614.189,320.128L620.912,320.128C623.362,320.128 625.864,320.115 628.418,320.089C630.971,320.063 633.473,320.024 635.923,319.972C638.372,319.92 640.665,319.867 642.802,319.815C642.802,320.493 642.815,321.079 642.841,321.574C642.868,322.07 642.881,322.76 642.881,323.646C642.881,324.272 642.868,325.014 642.841,325.874C642.815,326.734 642.789,327.62 642.763,328.532C642.737,329.444 642.711,330.356 642.685,331.269C642.659,332.181 642.62,333.028 642.568,333.809L626.854,333.809L626.854,342.878L640.535,342.878L640.535,354.527L626.854,354.527L626.854,363.283L642.802,363.283C642.854,364.481 642.907,365.706 642.959,366.957C643.011,368.208 643.05,369.615 643.076,371.179C643.102,372.742 643.115,374.579 643.115,376.69L643.115,384.235Z" style="fill:rgb(255,0,0);fill-rule:nonzero;"/>
                <path d="M646.555,384C646.711,379.049 646.816,374.11 646.868,369.185C646.92,364.26 646.946,359.582 646.946,355.152C646.946,348.846 646.907,342.852 646.829,337.171C646.75,331.49 646.659,325.783 646.555,320.05C649.109,319.789 651.676,319.568 654.256,319.385C656.835,319.203 659.454,319.112 662.112,319.112C665.917,319.112 669.487,319.385 672.823,319.933C676.159,320.48 679.051,321.496 681.501,322.982C683.95,324.467 685.892,326.513 687.325,329.119C688.758,331.725 689.475,335.086 689.475,339.204C689.475,344.311 688.42,348.325 686.309,351.243C684.198,354.162 681.344,356.351 677.748,357.81L690.491,384L676.576,384L666.178,360.156C664.041,360.312 661.826,360.39 659.533,360.39C659.533,364.403 659.559,368.338 659.611,372.195C659.663,376.052 659.819,379.987 660.08,384L646.555,384ZM659.533,348.507C661.148,348.663 662.634,348.741 663.989,348.741C667.533,348.741 670.048,348.077 671.533,346.748C673.018,345.419 673.761,343.425 673.761,340.767C673.761,339.152 673.54,337.849 673.097,336.858C672.654,335.868 672.054,335.086 671.298,334.513C670.543,333.94 669.657,333.549 668.64,333.34C667.624,333.132 666.543,333.028 665.396,333.028C664.562,333.028 663.637,333.067 662.621,333.145C661.604,333.223 660.575,333.34 659.533,333.497L659.533,348.507Z" style="fill:rgb(255,0,0);fill-rule:nonzero;"/>
                <path d="M692.602,384C692.758,379.049 692.863,374.11 692.915,369.185C692.967,364.26 692.993,359.582 692.993,355.152C692.993,348.846 692.954,342.852 692.876,337.171C692.798,331.49 692.706,325.783 692.602,320.05C695.156,319.789 697.723,319.568 700.303,319.385C702.883,319.203 705.502,319.112 708.16,319.112C711.964,319.112 715.535,319.385 718.87,319.933C722.206,320.48 725.098,321.496 727.548,322.982C729.998,324.467 731.939,326.513 733.372,329.119C734.806,331.725 735.522,335.086 735.522,339.204C735.522,344.311 734.467,348.325 732.356,351.243C730.245,354.162 727.392,356.351 723.795,357.81L736.539,384L722.623,384L712.225,360.156C710.088,360.312 707.873,360.39 705.58,360.39C705.58,364.403 705.606,368.338 705.658,372.195C705.71,376.052 705.866,379.987 706.127,384L692.602,384ZM705.58,348.507C707.195,348.663 708.681,348.741 710.036,348.741C713.58,348.741 716.095,348.077 717.58,346.748C719.066,345.419 719.808,343.425 719.808,340.767C719.808,339.152 719.587,337.849 719.144,336.858C718.701,335.868 718.101,335.086 717.346,334.513C716.59,333.94 715.704,333.549 714.688,333.34C713.671,333.132 712.59,333.028 711.443,333.028C710.609,333.028 709.684,333.067 708.668,333.145C707.652,333.223 706.622,333.34 705.58,333.497L705.58,348.507Z" style="fill:rgb(255,0,0);fill-rule:nonzero;"/>
                <path d="M760.305,319.112C768.071,319.112 773.804,321.874 777.504,327.399C781.205,332.923 783.055,340.95 783.055,351.478C783.055,362.162 781.244,370.397 777.621,376.182C773.999,381.967 768.227,384.86 760.305,384.86C756.396,384.86 753.008,384.117 750.142,382.632C747.275,381.146 744.904,378.984 743.027,376.143C741.151,373.303 739.77,369.811 738.884,365.667C737.998,361.524 737.555,356.794 737.555,351.478C737.555,340.793 739.405,332.728 743.106,327.281C746.806,321.835 752.539,319.112 760.305,319.112ZM760.305,364.69C761.973,364.69 763.445,364.312 764.722,363.556C765.999,362.801 767.054,361.758 767.888,360.429C768.722,359.1 769.347,357.51 769.764,355.66C770.181,353.81 770.39,351.764 770.39,349.523C770.39,347.282 770.181,345.21 769.764,343.308C769.347,341.406 768.722,339.751 767.888,338.344C767.054,336.936 765.999,335.842 764.722,335.06C763.445,334.278 761.973,333.888 760.305,333.888C758.637,333.888 757.191,334.291 755.966,335.099C754.741,335.907 753.699,337.015 752.839,338.422C751.979,339.829 751.34,341.484 750.923,343.386C750.506,345.289 750.298,347.334 750.298,349.523C750.298,351.764 750.506,353.81 750.923,355.66C751.34,357.51 751.979,359.1 752.839,360.429C753.699,361.758 754.741,362.801 755.966,363.556C757.191,364.312 758.637,364.69 760.305,364.69Z" style="fill:rgb(255,0,0);fill-rule:nonzero;"/>
                <path d="M786.182,384C786.338,379.049 786.443,374.11 786.495,369.185C786.547,364.26 786.573,359.582 786.573,355.152C786.573,348.846 786.534,342.852 786.456,337.171C786.377,331.49 786.286,325.783 786.182,320.05C788.736,319.789 791.303,319.568 793.883,319.385C796.462,319.203 799.081,319.112 801.739,319.112C805.544,319.112 809.114,319.385 812.45,319.933C815.786,320.48 818.678,321.496 821.128,322.982C823.577,324.467 825.519,326.513 826.952,329.119C828.385,331.725 829.102,335.086 829.102,339.204C829.102,344.311 828.047,348.325 825.936,351.243C823.825,354.162 820.971,356.351 817.375,357.81L830.118,384L816.202,384L805.805,360.156C803.668,360.312 801.453,360.39 799.16,360.39C799.16,364.403 799.186,368.338 799.238,372.195C799.29,376.052 799.446,379.987 799.707,384L786.182,384ZM799.16,348.507C800.775,348.663 802.261,348.741 803.616,348.741C807.16,348.741 809.675,348.077 811.16,346.748C812.645,345.419 813.388,343.425 813.388,340.767C813.388,339.152 813.167,337.849 812.724,336.858C812.281,335.868 811.681,335.086 810.925,334.513C810.17,333.94 809.284,333.549 808.267,333.34C807.251,333.132 806.17,333.028 805.023,333.028C804.189,333.028 803.264,333.067 802.248,333.145C801.231,333.223 800.202,333.34 799.16,333.497L799.16,348.507Z" style="fill:rgb(255,0,0);fill-rule:nonzero;"/>
            </g>
            <g transform="matrix(1,0,0,1,107.914,-19.2774)">
                <path d="M677.751,504.578C677.527,506.26 677.387,508.277 677.331,510.631C677.275,512.985 677.247,514.947 677.247,516.516C677.247,519.991 677.415,523.297 677.751,526.436C680.217,525.876 682.655,525.427 685.065,525.091C687.475,524.755 689.857,524.586 692.211,524.586C698.04,524.586 703.42,525.651 708.352,527.781C713.284,529.911 717.544,532.825 721.131,536.524C724.718,540.223 727.492,544.567 729.453,549.555C731.415,554.543 732.396,559.839 732.396,565.444C732.396,571.272 731.303,576.961 729.117,582.51C726.931,588.058 723.765,593.018 719.617,597.39C715.47,601.761 710.398,605.264 704.401,607.898C698.404,610.532 691.595,611.85 683.972,611.85C681.955,611.85 679.573,611.737 676.827,611.513C674.08,611.289 671.306,610.785 668.504,610C665.702,609.215 663.039,608.122 660.517,606.721C657.995,605.32 655.95,603.499 654.38,601.257C654.156,598.23 654.016,595.484 653.96,593.018C653.904,590.552 653.876,587.694 653.876,584.443C653.876,581.08 653.904,578.278 653.96,576.036C654.016,573.795 654.156,571.385 654.38,568.806C656.958,571.497 660.209,573.626 664.132,575.196C668.056,576.765 672.259,577.55 676.743,577.55C683.02,577.55 688.008,576.12 691.707,573.262C695.406,570.404 697.255,566.621 697.255,561.913C697.255,557.205 695.378,553.562 691.623,550.984C687.868,548.406 682.683,547.117 676.07,547.117C671.586,547.117 667.495,547.705 663.796,548.882C660.097,550.059 657.071,551.769 654.717,554.01C655.053,540.447 655.221,526.884 655.221,513.321C655.221,506.708 655.193,499.87 655.137,492.809C655.081,485.747 654.941,478.965 654.717,472.464L727.184,472.464C727.408,475.266 727.576,478.013 727.688,480.703C727.8,483.393 727.856,486.139 727.856,488.941C727.856,491.856 727.8,494.714 727.688,497.516C727.576,500.319 727.408,503.177 727.184,506.091L677.751,504.578Z" style="fill:rgb(255,0,0);fill-rule:nonzero;"/>
                <path d="M783.509,470.446C790.907,470.446 797.381,472.016 802.929,475.154C808.478,478.293 813.102,482.861 816.801,488.857C820.5,494.854 823.274,502.196 825.123,510.883C826.973,519.57 827.898,529.462 827.898,540.559C827.898,563.538 824.058,581.165 816.38,593.439C808.702,605.713 797.353,611.85 782.333,611.85C774.822,611.85 768.265,610.28 762.66,607.142C757.056,604.003 752.404,599.435 748.705,593.439C745.006,587.442 742.232,580.156 740.382,571.581C738.533,563.006 737.608,553.226 737.608,542.241C737.608,518.702 741.587,500.851 749.546,488.689C757.504,476.527 768.826,470.446 783.509,470.446ZM782.837,568.47C785.751,568.47 788.301,567.601 790.487,565.864C792.673,564.127 794.522,561.717 796.036,558.634C797.549,555.552 798.67,551.965 799.398,547.873C800.127,543.782 800.491,539.383 800.491,534.675C800.491,530.079 800.127,525.819 799.398,521.896C798.67,517.973 797.577,514.554 796.12,511.64C794.663,508.726 792.841,506.428 790.655,504.746C788.47,503.065 785.975,502.224 783.173,502.224C780.259,502.224 777.681,503.065 775.439,504.746C773.197,506.428 771.292,508.726 769.722,511.64C768.153,514.554 766.976,518.029 766.191,522.064C765.407,526.1 765.014,530.471 765.014,535.179C765.014,539.775 765.407,544.09 766.191,548.126C766.976,552.161 768.125,555.692 769.638,558.718C771.151,561.745 773.001,564.127 775.187,565.864C777.372,567.601 779.923,568.47 782.837,568.47Z" style="fill:rgb(255,0,0);fill-rule:nonzero;"/>
                <path d="M880.861,470.446C888.259,470.446 894.732,472.016 900.28,475.154C905.829,478.293 910.453,482.861 914.152,488.857C917.851,494.854 920.625,502.196 922.475,510.883C924.324,519.57 925.249,529.462 925.249,540.559C925.249,563.538 921.41,581.165 913.731,593.439C906.053,605.713 894.704,611.85 879.684,611.85C872.174,611.85 865.616,610.28 860.012,607.142C854.407,604.003 849.755,599.435 846.056,593.439C842.357,587.442 839.583,580.156 837.734,571.581C835.884,563.006 834.959,553.226 834.959,542.241C834.959,518.702 838.939,500.851 846.897,488.689C854.856,476.527 866.177,470.446 880.861,470.446ZM880.188,568.47C883.103,568.47 885.653,567.601 887.838,565.864C890.024,564.127 891.874,561.717 893.387,558.634C894.9,555.552 896.021,551.965 896.75,547.873C897.478,543.782 897.843,539.383 897.843,534.675C897.843,530.079 897.478,525.819 896.75,521.896C896.021,517.973 894.928,514.554 893.471,511.64C892.014,508.726 890.192,506.428 888.007,504.746C885.821,503.065 883.327,502.224 880.524,502.224C877.61,502.224 875.032,503.065 872.79,504.746C870.548,506.428 868.643,508.726 867.073,511.64C865.504,514.554 864.327,518.029 863.543,522.064C862.758,526.1 862.366,530.471 862.366,535.179C862.366,539.775 862.758,544.09 863.543,548.126C864.327,552.161 865.476,555.692 866.989,558.718C868.503,561.745 870.352,564.127 872.538,565.864C874.724,567.601 877.274,568.47 880.188,568.47Z" style="fill:rgb(255,0,0);fill-rule:nonzero;"/>
            </g>
        </g>
    </g>
</svg>
