<svg width="100%" height="100%" viewBox="0 0 3200 80" version="1.1" xmlns="http://www.w3.org/2000/svg" xmlns:xlink="http://www.w3.org/1999/xlink" xml:space="preserve" xmlns:serif="http://www.serif.com/" style="fill-rule:evenodd;clip-rule:evenodd;stroke-linejoin:round;stroke-miterlimit:2;">
    <g id="pixel_bunner" transform="matrix(100,0,0,5,-13695.7,0)">
        <rect x="136.957" y="0" width="16" height="16" style="fill:none;"/>
        <g>
            <g transform="matrix(1,0,0,1,-0.15,7.10543e-15)">
                <g transform="matrix(0.005,0,0,0.1,137.107,-7.10543e-15)">
                    <path d="M30,80L30,70L20,70L20,80L10,80L10,150L20,150L20,160L80,160L80,150L100,150L100,80L90,80L90,70L30,70L30,80Z" style="fill:rgb(255,244,0);"/>
                </g>
                <g transform="matrix(0.005,0,0,0.1,137.107,-7.10543e-15)">
                    <path d="M40,100L40,159.677L60,159.677L60,120L70,120L70,100L40,100Z" style="fill:rgb(255,0,214);"/>
                </g>
                <g transform="matrix(0.005,0,0,0.1,137.107,-7.10543e-15)">
                    <path d="M90,60L100,60L100,40L90,40L90,30L80,30L80,20L70,20L70,10L20,10L20,70L90,70L90,60Z" style="fill:rgb(214,126,255);"/>
                </g>
                <g transform="matrix(0.00247246,0,0,0.045901,137.207,1)">
                    <rect x="0" y="0" width="20.223" height="21.786"/>
                </g>
                <g transform="matrix(0.005,0,0,0.1,137.107,-7.10543e-15)">
                    <path d="M70,10L70,20L80,20L80,10L90,10L90,0L30,0L30,10L70,10Z"/>
                </g>
                <g transform="matrix(0.00247246,0,0,0.045901,137.507,2)">
                    <rect x="0" y="0" width="20.223" height="21.786"/>
                </g>
                <g transform="matrix(0.00247246,0,0,0.045901,137.557,3)">
                    <rect x="0" y="0" width="20.223" height="21.786"/>
                </g>
                <g transform="matrix(0.00247246,0,0,0.137703,137.157,8)">
                    <rect x="0" y="0" width="20.223" height="21.786"/>
                </g>
                <g transform="matrix(0.00247246,0,0,0.137703,137.107,11)">
                    <rect x="0" y="0" width="20.223" height="21.786"/>
                </g>
                <g transform="matrix(0.00247246,0,0,0.045901,137.157,14)">
                    <rect x="0" y="0" width="20.223" height="21.786"/>
                </g>
                <g transform="matrix(0.0173072,0,0,0.045901,137.207,15)">
                    <rect x="0" y="0" width="20.223" height="21.786"/>
                </g>
                <g transform="matrix(0.00247246,0,0,0.091802,137.607,4)">
                    <rect x="0" y="0" width="20.223" height="21.786"/>
                </g>
                <g transform="matrix(0.00247246,0,0,0.137703,137.607,11)">
                    <rect x="0" y="0" width="20.223" height="21.786"/>
                </g>
                <g transform="matrix(0.00247246,0,0,0.045901,137.557,14)">
                    <rect x="0" y="0" width="20.223" height="21.786"/>
                </g>
                <g transform="matrix(0.005,0,0,0.1,137.107,-7.10543e-15)">
                    <path d="M20,60L20,80L30,80L30,90L50,90L50,70.161L60,70.161L60,90L80,90L80,80L90,80L90,110L100,110L100,60L90,60L90,50L80,50L80,40L60,40L60,60.161L50,60.161L50,40L30,40L30,50L20,50L20,20L10,20L10,60L20,60Z"/>
                </g>
                <g transform="matrix(0.00247246,0,0,0.137703,137.257,5)">
                    <rect x="0" y="0" width="20.223" height="21.786" style="fill:white;"/>
                </g>
            </g>
            <g transform="matrix(1,0,0,1,0.55,7.10543e-15)">
                <g transform="matrix(0.005,0,0,0.1,137.107,-7.10543e-15)">
                    <path d="M30,80L30,70L20,70L20,80L10,80L10,150L20,150L20,160L80,160L80,150L100,150L100,80L90,80L90,70L30,70L30,80Z" style="fill:rgb(255,244,0);"/>
                </g>
                <g transform="matrix(0.005,0,0,0.1,137.107,-7.10543e-15)">
                    <path d="M40,100L40,159.677L60,159.677L60,120L70,120L70,100L40,100Z" style="fill:rgb(255,0,214);"/>
                </g>
                <g transform="matrix(0.005,0,0,0.1,137.107,-7.10543e-15)">
                    <path d="M90,60L100,60L100,40L90,40L90,30L80,30L80,20L70,20L70,10L20,10L20,70L90,70L90,60Z" style="fill:rgb(214,126,255);"/>
                </g>
                <g transform="matrix(0.00247246,0,0,0.045901,137.207,1)">
                    <rect x="0" y="0" width="20.223" height="21.786"/>
                </g>
                <g transform="matrix(0.005,0,0,0.1,137.107,-7.10543e-15)">
                    <path d="M70,10L70,20L80,20L80,10L90,10L90,0L30,0L30,10L70,10Z"/>
                </g>
                <g transform="matrix(0.00247246,0,0,0.045901,137.507,2)">
                    <rect x="0" y="0" width="20.223" height="21.786"/>
                </g>
                <g transform="matrix(0.00247246,0,0,0.045901,137.557,3)">
                    <rect x="0" y="0" width="20.223" height="21.786"/>
                </g>
                <g transform="matrix(0.00247246,0,0,0.137703,137.157,8)">
                    <rect x="0" y="0" width="20.223" height="21.786"/>
                </g>
                <g transform="matrix(0.00247246,0,0,0.137703,137.107,11)">
                    <rect x="0" y="0" width="20.223" height="21.786"/>
                </g>
                <g transform="matrix(0.00247246,0,0,0.045901,137.157,14)">
                    <rect x="0" y="0" width="20.223" height="21.786"/>
                </g>
                <g transform="matrix(0.0173072,0,0,0.045901,137.207,15)">
                    <rect x="0" y="0" width="20.223" height="21.786"/>
                </g>
                <g transform="matrix(0.00247246,0,0,0.091802,137.607,4)">
                    <rect x="0" y="0" width="20.223" height="21.786"/>
                </g>
                <g transform="matrix(0.00247246,0,0,0.137703,137.607,11)">
                    <rect x="0" y="0" width="20.223" height="21.786"/>
                </g>
                <g transform="matrix(0.00247246,0,0,0.045901,137.557,14)">
                    <rect x="0" y="0" width="20.223" height="21.786"/>
                </g>
                <g transform="matrix(0.005,0,0,0.1,137.107,-7.10543e-15)">
                    <path d="M20,60L20,80L30,80L30,90L50,90L50,70.161L60,70.161L60,90L80,90L80,80L90,80L90,110L100,110L100,60L90,60L90,50L80,50L80,40L60,40L60,60.161L50,60.161L50,40L30,40L30,50L20,50L20,20L10,20L10,60L20,60Z"/>
                </g>
                <g transform="matrix(0.00247246,0,0,0.137703,137.257,5)">
                    <rect x="0" y="0" width="20.223" height="21.786" style="fill:white;"/>
                </g>
            </g>
            <g transform="matrix(1,0,0,1,1.25,7.10543e-15)">
                <g transform="matrix(0.005,0,0,0.1,137.107,-7.10543e-15)">
                    <path d="M30,80L30,70L20,70L20,80L10,80L10,150L20,150L20,160L80,160L80,150L100,150L100,80L90,80L90,70L30,70L30,80Z" style="fill:rgb(255,244,0);"/>
                </g>
                <g transform="matrix(0.005,0,0,0.1,137.107,-7.10543e-15)">
                    <path d="M40,100L40,159.677L60,159.677L60,120L70,120L70,100L40,100Z" style="fill:rgb(255,0,214);"/>
                </g>
                <g transform="matrix(0.005,0,0,0.1,137.107,-7.10543e-15)">
                    <path d="M90,60L100,60L100,40L90,40L90,30L80,30L80,20L70,20L70,10L20,10L20,70L90,70L90,60Z" style="fill:rgb(214,126,255);"/>
                </g>
                <g transform="matrix(0.00247246,0,0,0.045901,137.207,1)">
                    <rect x="0" y="0" width="20.223" height="21.786"/>
                </g>
                <g transform="matrix(0.005,0,0,0.1,137.107,-7.10543e-15)">
                    <path d="M70,10L70,20L80,20L80,10L90,10L90,0L30,0L30,10L70,10Z"/>
                </g>
                <g transform="matrix(0.00247246,0,0,0.045901,137.507,2)">
                    <rect x="0" y="0" width="20.223" height="21.786"/>
                </g>
                <g transform="matrix(0.00247246,0,0,0.045901,137.557,3)">
                    <rect x="0" y="0" width="20.223" height="21.786"/>
                </g>
                <g transform="matrix(0.00247246,0,0,0.137703,137.157,8)">
                    <rect x="0" y="0" width="20.223" height="21.786"/>
                </g>
                <g transform="matrix(0.00247246,0,0,0.137703,137.107,11)">
                    <rect x="0" y="0" width="20.223" height="21.786"/>
                </g>
                <g transform="matrix(0.00247246,0,0,0.045901,137.157,14)">
                    <rect x="0" y="0" width="20.223" height="21.786"/>
                </g>
                <g transform="matrix(0.0173072,0,0,0.045901,137.207,15)">
                    <rect x="0" y="0" width="20.223" height="21.786"/>
                </g>
                <g transform="matrix(0.00247246,0,0,0.091802,137.607,4)">
                    <rect x="0" y="0" width="20.223" height="21.786"/>
                </g>
                <g transform="matrix(0.00247246,0,0,0.137703,137.607,11)">
                    <rect x="0" y="0" width="20.223" height="21.786"/>
                </g>
                <g transform="matrix(0.00247246,0,0,0.045901,137.557,14)">
                    <rect x="0" y="0" width="20.223" height="21.786"/>
                </g>
                <g transform="matrix(0.005,0,0,0.1,137.107,-7.10543e-15)">
                    <path d="M20,60L20,80L30,80L30,90L50,90L50,70.161L60,70.161L60,90L80,90L80,80L90,80L90,110L100,110L100,60L90,60L90,50L80,50L80,40L60,40L60,60.161L50,60.161L50,40L30,40L30,50L20,50L20,20L10,20L10,60L20,60Z"/>
                </g>
                <g transform="matrix(0.00247246,0,0,0.137703,137.257,5)">
                    <rect x="0" y="0" width="20.223" height="21.786" style="fill:white;"/>
                </g>
            </g>
            <g transform="matrix(1,0,0,1,1.95,7.10543e-15)">
                <g transform="matrix(0.005,0,0,0.1,137.107,-7.10543e-15)">
                    <path d="M30,80L30,70L20,70L20,80L10,80L10,150L20,150L20,160L80,160L80,150L100,150L100,80L90,80L90,70L30,70L30,80Z" style="fill:rgb(255,244,0);"/>
                </g>
                <g transform="matrix(0.005,0,0,0.1,137.107,-7.10543e-15)">
                    <path d="M40,100L40,159.677L60,159.677L60,120L70,120L70,100L40,100Z" style="fill:rgb(255,0,214);"/>
                </g>
                <g transform="matrix(0.005,0,0,0.1,137.107,-7.10543e-15)">
                    <path d="M90,60L100,60L100,40L90,40L90,30L80,30L80,20L70,20L70,10L20,10L20,70L90,70L90,60Z" style="fill:rgb(214,126,255);"/>
                </g>
                <g transform="matrix(0.00247246,0,0,0.045901,137.207,1)">
                    <rect x="0" y="0" width="20.223" height="21.786"/>
                </g>
                <g transform="matrix(0.005,0,0,0.1,137.107,-7.10543e-15)">
                    <path d="M70,10L70,20L80,20L80,10L90,10L90,0L30,0L30,10L70,10Z"/>
                </g>
                <g transform="matrix(0.00247246,0,0,0.045901,137.507,2)">
                    <rect x="0" y="0" width="20.223" height="21.786"/>
                </g>
                <g transform="matrix(0.00247246,0,0,0.045901,137.557,3)">
                    <rect x="0" y="0" width="20.223" height="21.786"/>
                </g>
                <g transform="matrix(0.00247246,0,0,0.137703,137.157,8)">
                    <rect x="0" y="0" width="20.223" height="21.786"/>
                </g>
                <g transform="matrix(0.00247246,0,0,0.137703,137.107,11)">
                    <rect x="0" y="0" width="20.223" height="21.786"/>
                </g>
                <g transform="matrix(0.00247246,0,0,0.045901,137.157,14)">
                    <rect x="0" y="0" width="20.223" height="21.786"/>
                </g>
                <g transform="matrix(0.0173072,0,0,0.045901,137.207,15)">
                    <rect x="0" y="0" width="20.223" height="21.786"/>
                </g>
                <g transform="matrix(0.00247246,0,0,0.091802,137.607,4)">
                    <rect x="0" y="0" width="20.223" height="21.786"/>
                </g>
                <g transform="matrix(0.00247246,0,0,0.137703,137.607,11)">
                    <rect x="0" y="0" width="20.223" height="21.786"/>
                </g>
                <g transform="matrix(0.00247246,0,0,0.045901,137.557,14)">
                    <rect x="0" y="0" width="20.223" height="21.786"/>
                </g>
                <g transform="matrix(0.005,0,0,0.1,137.107,-7.10543e-15)">
                    <path d="M20,60L20,80L30,80L30,90L50,90L50,70.161L60,70.161L60,90L80,90L80,80L90,80L90,110L100,110L100,60L90,60L90,50L80,50L80,40L60,40L60,60.161L50,60.161L50,40L30,40L30,50L20,50L20,20L10,20L10,60L20,60Z"/>
                </g>
                <g transform="matrix(0.00247246,0,0,0.137703,137.257,5)">
                    <rect x="0" y="0" width="20.223" height="21.786" style="fill:white;"/>
                </g>
            </g>
            <g transform="matrix(1,0,0,1,2.65,7.10543e-15)">
                <g transform="matrix(0.005,0,0,0.1,137.107,-7.10543e-15)">
                    <path d="M30,80L30,70L20,70L20,80L10,80L10,150L20,150L20,160L80,160L80,150L100,150L100,80L90,80L90,70L30,70L30,80Z" style="fill:rgb(255,244,0);"/>
                </g>
                <g transform="matrix(0.005,0,0,0.1,137.107,-7.10543e-15)">
                    <path d="M40,100L40,159.677L60,159.677L60,120L70,120L70,100L40,100Z" style="fill:rgb(255,0,214);"/>
                </g>
                <g transform="matrix(0.005,0,0,0.1,137.107,-7.10543e-15)">
                    <path d="M90,60L100,60L100,40L90,40L90,30L80,30L80,20L70,20L70,10L20,10L20,70L90,70L90,60Z" style="fill:rgb(214,126,255);"/>
                </g>
                <g transform="matrix(0.00247246,0,0,0.045901,137.207,1)">
                    <rect x="0" y="0" width="20.223" height="21.786"/>
                </g>
                <g transform="matrix(0.005,0,0,0.1,137.107,-7.10543e-15)">
                    <path d="M70,10L70,20L80,20L80,10L90,10L90,0L30,0L30,10L70,10Z"/>
                </g>
                <g transform="matrix(0.00247246,0,0,0.045901,137.507,2)">
                    <rect x="0" y="0" width="20.223" height="21.786"/>
                </g>
                <g transform="matrix(0.00247246,0,0,0.045901,137.557,3)">
                    <rect x="0" y="0" width="20.223" height="21.786"/>
                </g>
                <g transform="matrix(0.00247246,0,0,0.137703,137.157,8)">
                    <rect x="0" y="0" width="20.223" height="21.786"/>
                </g>
                <g transform="matrix(0.00247246,0,0,0.137703,137.107,11)">
                    <rect x="0" y="0" width="20.223" height="21.786"/>
                </g>
                <g transform="matrix(0.00247246,0,0,0.045901,137.157,14)">
                    <rect x="0" y="0" width="20.223" height="21.786"/>
                </g>
                <g transform="matrix(0.0173072,0,0,0.045901,137.207,15)">
                    <rect x="0" y="0" width="20.223" height="21.786"/>
                </g>
                <g transform="matrix(0.00247246,0,0,0.091802,137.607,4)">
                    <rect x="0" y="0" width="20.223" height="21.786"/>
                </g>
                <g transform="matrix(0.00247246,0,0,0.137703,137.607,11)">
                    <rect x="0" y="0" width="20.223" height="21.786"/>
                </g>
                <g transform="matrix(0.00247246,0,0,0.045901,137.557,14)">
                    <rect x="0" y="0" width="20.223" height="21.786"/>
                </g>
                <g transform="matrix(0.005,0,0,0.1,137.107,-7.10543e-15)">
                    <path d="M20,60L20,80L30,80L30,90L50,90L50,70.161L60,70.161L60,90L80,90L80,80L90,80L90,110L100,110L100,60L90,60L90,50L80,50L80,40L60,40L60,60.161L50,60.161L50,40L30,40L30,50L20,50L20,20L10,20L10,60L20,60Z"/>
                </g>
                <g transform="matrix(0.00247246,0,0,0.137703,137.257,5)">
                    <rect x="0" y="0" width="20.223" height="21.786" style="fill:white;"/>
                </g>
            </g>
            <g transform="matrix(0.0025,0,0,0.075,145.607,4)">
                <g transform="matrix(2,0,0,1.33333,-3460,-53.3333)">
                    <path d="M1800,50L1740,50L1740,90L1730,90L1730,110L1740,110L1740,120L1760,120L1760,160L1790,160L1790,120L1800,120L1800,50Z" style="fill:rgb(255,18,0);"/>
                </g>
                <g transform="matrix(0.988985,0,0,0.612013,120,106.667)">
                    <rect x="0" y="0" width="20.223" height="21.786"/>
                </g>
                <g transform="matrix(0.988985,0,0,1.83604,100,120)">
                    <rect x="0" y="0" width="20.223" height="21.786"/>
                </g>
                <g transform="matrix(2,0,0,1.33333,-3460,-53.3333)">
                    <path d="M1760,50L1760,90L1770,90L1770,50L1780,50L1780,90L1790,90L1790,50L1800,50L1800,40L1750,40L1750,50L1760,50Z"/>
                </g>
                <g transform="matrix(2,0,0,1.33333,-3460,-53.3333)">
                    <path d="M1740,80L1730,80L1730,120L1750,120L1750,110L1740,110L1740,90L1750,90L1750,50L1740,50L1740,80Z"/>
                </g>
                <g transform="matrix(2,0,0,1.33333,-3460,-53.3333)">
                    <path d="M1770,110L1770,120L1780,120L1780,110L1790,110L1790,100L1760,100L1760,110L1770,110Z"/>
                </g>
                <g transform="matrix(0.988985,0,0,0.612013,40,66.6667)">
                    <rect x="0" y="0" width="20.223" height="21.786"/>
                </g>
                <g transform="matrix(2,0,0,1.33333,-3460,-53.3333)">
                    <path d="M1760,140L1760,160L1770,160L1770,130L1760,130L1760,120L1750,120L1750,140L1760,140Z"/>
                </g>
                <g transform="matrix(0.988985,0,0,4.28409,140,13.3333)">
                    <rect x="0" y="0" width="20.223" height="21.786"/>
                </g>
            </g>
            <g transform="matrix(0.0025,0,0,0.075,146.157,2)">
                <g transform="matrix(2,0,0,1.33333,-3460,-53.3333)">
                    <path d="M1800,50L1740,50L1740,90L1730,90L1730,110L1740,110L1740,120L1760,120L1760,160L1790,160L1790,120L1800,120L1800,50Z" style="fill:rgb(255,18,0);"/>
                </g>
                <g transform="matrix(0.988985,0,0,0.612013,120,106.667)">
                    <rect x="0" y="0" width="20.223" height="21.786"/>
                </g>
                <g transform="matrix(0.988985,0,0,1.83604,100,120)">
                    <rect x="0" y="0" width="20.223" height="21.786"/>
                </g>
                <g transform="matrix(2,0,0,1.33333,-3460,-53.3333)">
                    <path d="M1760,50L1760,90L1770,90L1770,50L1780,50L1780,90L1790,90L1790,50L1800,50L1800,40L1750,40L1750,50L1760,50Z"/>
                </g>
                <g transform="matrix(2,0,0,1.33333,-3460,-53.3333)">
                    <path d="M1740,80L1730,80L1730,120L1750,120L1750,110L1740,110L1740,90L1750,90L1750,50L1740,50L1740,80Z"/>
                </g>
                <g transform="matrix(2,0,0,1.33333,-3460,-53.3333)">
                    <path d="M1770,110L1770,120L1780,120L1780,110L1790,110L1790,100L1760,100L1760,110L1770,110Z"/>
                </g>
                <g transform="matrix(0.988985,0,0,0.612013,40,66.6667)">
                    <rect x="0" y="0" width="20.223" height="21.786"/>
                </g>
                <g transform="matrix(2,0,0,1.33333,-3460,-53.3333)">
                    <path d="M1760,140L1760,160L1770,160L1770,130L1760,130L1760,120L1750,120L1750,140L1760,140Z"/>
                </g>
                <g transform="matrix(0.988985,0,0,4.28409,140,13.3333)">
                    <rect x="0" y="0" width="20.223" height="21.786"/>
                </g>
            </g>
            <g transform="matrix(0.0025,0,0,0.075,146.707,4)">
                <g transform="matrix(2,0,0,1.33333,-3460,-53.3333)">
                    <path d="M1800,50L1740,50L1740,90L1730,90L1730,110L1740,110L1740,120L1760,120L1760,160L1790,160L1790,120L1800,120L1800,50Z" style="fill:rgb(255,18,0);"/>
                </g>
                <g transform="matrix(0.988985,0,0,0.612013,120,106.667)">
                    <rect x="0" y="0" width="20.223" height="21.786"/>
                </g>
                <g transform="matrix(0.988985,0,0,1.83604,100,120)">
                    <rect x="0" y="0" width="20.223" height="21.786"/>
                </g>
                <g transform="matrix(2,0,0,1.33333,-3460,-53.3333)">
                    <path d="M1760,50L1760,90L1770,90L1770,50L1780,50L1780,90L1790,90L1790,50L1800,50L1800,40L1750,40L1750,50L1760,50Z"/>
                </g>
                <g transform="matrix(2,0,0,1.33333,-3460,-53.3333)">
                    <path d="M1740,80L1730,80L1730,120L1750,120L1750,110L1740,110L1740,90L1750,90L1750,50L1740,50L1740,80Z"/>
                </g>
                <g transform="matrix(2,0,0,1.33333,-3460,-53.3333)">
                    <path d="M1770,110L1770,120L1780,120L1780,110L1790,110L1790,100L1760,100L1760,110L1770,110Z"/>
                </g>
                <g transform="matrix(0.988985,0,0,0.612013,40,66.6667)">
                    <rect x="0" y="0" width="20.223" height="21.786"/>
                </g>
                <g transform="matrix(2,0,0,1.33333,-3460,-53.3333)">
                    <path d="M1760,140L1760,160L1770,160L1770,130L1760,130L1760,120L1750,120L1750,140L1760,140Z"/>
                </g>
                <g transform="matrix(0.988985,0,0,4.28409,140,13.3333)">
                    <rect x="0" y="0" width="20.223" height="21.786"/>
                </g>
            </g>
            <g transform="matrix(0.0025,0,0,0.075,147.257,2)">
                <g transform="matrix(2,0,0,1.33333,-3460,-53.3333)">
                    <path d="M1800,50L1740,50L1740,90L1730,90L1730,110L1740,110L1740,120L1760,120L1760,160L1790,160L1790,120L1800,120L1800,50Z" style="fill:rgb(255,18,0);"/>
                </g>
                <g transform="matrix(0.988985,0,0,0.612013,120,106.667)">
                    <rect x="0" y="0" width="20.223" height="21.786"/>
                </g>
                <g transform="matrix(0.988985,0,0,1.83604,100,120)">
                    <rect x="0" y="0" width="20.223" height="21.786"/>
                </g>
                <g transform="matrix(2,0,0,1.33333,-3460,-53.3333)">
                    <path d="M1760,50L1760,90L1770,90L1770,50L1780,50L1780,90L1790,90L1790,50L1800,50L1800,40L1750,40L1750,50L1760,50Z"/>
                </g>
                <g transform="matrix(2,0,0,1.33333,-3460,-53.3333)">
                    <path d="M1740,80L1730,80L1730,120L1750,120L1750,110L1740,110L1740,90L1750,90L1750,50L1740,50L1740,80Z"/>
                </g>
                <g transform="matrix(2,0,0,1.33333,-3460,-53.3333)">
                    <path d="M1770,110L1770,120L1780,120L1780,110L1790,110L1790,100L1760,100L1760,110L1770,110Z"/>
                </g>
                <g transform="matrix(0.988985,0,0,0.612013,40,66.6667)">
                    <rect x="0" y="0" width="20.223" height="21.786"/>
                </g>
                <g transform="matrix(2,0,0,1.33333,-3460,-53.3333)">
                    <path d="M1760,140L1760,160L1770,160L1770,130L1760,130L1760,120L1750,120L1750,140L1760,140Z"/>
                </g>
                <g transform="matrix(0.988985,0,0,4.28409,140,13.3333)">
                    <rect x="0" y="0" width="20.223" height="21.786"/>
                </g>
            </g>
            <g transform="matrix(0.0025,0,0,0.075,147.807,4)">
                <g transform="matrix(2,0,0,1.33333,-3460,-53.3333)">
                    <path d="M1800,50L1740,50L1740,90L1730,90L1730,110L1740,110L1740,120L1760,120L1760,160L1790,160L1790,120L1800,120L1800,50Z" style="fill:rgb(255,18,0);"/>
                </g>
                <g transform="matrix(0.988985,0,0,0.612013,120,106.667)">
                    <rect x="0" y="0" width="20.223" height="21.786"/>
                </g>
                <g transform="matrix(0.988985,0,0,1.83604,100,120)">
                    <rect x="0" y="0" width="20.223" height="21.786"/>
                </g>
                <g transform="matrix(2,0,0,1.33333,-3460,-53.3333)">
                    <path d="M1760,50L1760,90L1770,90L1770,50L1780,50L1780,90L1790,90L1790,50L1800,50L1800,40L1750,40L1750,50L1760,50Z"/>
                </g>
                <g transform="matrix(2,0,0,1.33333,-3460,-53.3333)">
                    <path d="M1740,80L1730,80L1730,120L1750,120L1750,110L1740,110L1740,90L1750,90L1750,50L1740,50L1740,80Z"/>
                </g>
                <g transform="matrix(2,0,0,1.33333,-3460,-53.3333)">
                    <path d="M1770,110L1770,120L1780,120L1780,110L1790,110L1790,100L1760,100L1760,110L1770,110Z"/>
                </g>
                <g transform="matrix(0.988985,0,0,0.612013,40,66.6667)">
                    <rect x="0" y="0" width="20.223" height="21.786"/>
                </g>
                <g transform="matrix(2,0,0,1.33333,-3460,-53.3333)">
                    <path d="M1760,140L1760,160L1770,160L1770,130L1760,130L1760,120L1750,120L1750,140L1760,140Z"/>
                </g>
                <g transform="matrix(0.988985,0,0,4.28409,140,13.3333)">
                    <rect x="0" y="0" width="20.223" height="21.786"/>
                </g>
            </g>
            <g transform="matrix(0.0459643,0,0,0.734528,137.239,1.00794)">
                <path d="M74.603,3.395L73.561,7.887L72.102,3.344L70,3.532L72.432,10.842L72.293,16.325L74.082,15.966L74.273,10.671L75.872,3.549L74.603,3.395Z" style="fill:rgb(0,255,255);fill-rule:nonzero;"/>
                <path d="M80.805,12.089L80.805,8.417C80.805,8.417 80.996,6.709 78.738,6.675C76.48,6.64 76.427,8.417 76.427,8.417L76.236,14.599C76.236,14.599 76.149,16.12 78.408,16.154C80.666,16.188 80.805,14.565 80.805,14.565L80.805,12.994L79.103,12.994L79.068,14.275L77.921,14.309L77.921,12.055L80.805,12.089ZM78.078,8.639L79.294,8.639L79.294,10.381L78.078,10.381L78.078,8.639Z" style="fill:rgb(0,255,255);fill-rule:nonzero;"/>
                <path d="M86.19,10.33L86.19,8.109C86.19,8.109 86.312,6.64 83.584,6.64C81.187,6.64 81.17,7.904 81.17,7.904C81.17,7.904 81.187,9.817 81.205,10.415C81.205,10.996 84.523,13.626 84.523,13.626L84.505,14.48L82.838,14.48L82.838,12.892L81.17,12.652L81.17,14.873C81.17,14.873 81.187,16.239 83.689,16.239C86.19,16.239 86.242,14.651 86.242,14.651C86.242,14.651 86.294,13.387 86.242,12.96C86.225,12.652 83.098,9.749 83.098,9.749L83.098,8.451L84.262,8.451L84.245,10.364L86.19,10.33Z" style="fill:rgb(0,255,255);fill-rule:nonzero;"/>
                <path d="M88.518,13.745C87.91,13.745 87.424,14.258 87.424,14.873C87.424,15.488 87.91,16 88.518,16C89.126,16 89.612,15.488 89.612,14.873C89.612,14.258 89.126,13.745 88.518,13.745ZM87.424,13.318L89.369,13.318L89.178,3.395L87.146,3.395L87.424,13.318Z" style="fill:rgb(0,255,255);fill-rule:nonzero;"/>
                <path d="M91.853,13.745C91.245,13.745 90.759,14.258 90.759,14.873C90.759,15.488 91.245,16 91.853,16C92.461,16 92.948,15.488 92.948,14.873C92.948,14.258 92.461,13.745 91.853,13.745ZM90.759,13.318L92.705,13.318L92.513,3.395L90.481,3.395L90.759,13.318Z" style="fill:rgb(0,255,255);fill-rule:nonzero;"/>
                <path d="M95.727,3.549L95.727,5.923L98.333,5.923L98.333,15.983L99.896,15.983L99.896,5.701L102.276,5.701L102.276,3.361L95.727,3.549Z" style="fill:rgb(0,255,255);fill-rule:nonzero;"/>
                <path d="M103.197,2.815L102.624,16L104.465,16L104.847,9.049L106.028,8.997L105.855,16L107.644,16L107.991,7.631C107.991,7.631 107.818,6.692 106.254,6.692C105.351,6.692 104.847,7.238 104.847,7.238L104.986,2.712L103.197,2.815Z" style="fill:rgb(0,255,255);fill-rule:nonzero;"/>
                <path d="M109.954,6.418C110.562,6.418 111.049,5.906 111.049,5.291C111.049,4.676 110.562,4.164 109.954,4.164C109.346,4.164 108.86,4.676 108.86,5.291C108.86,5.906 109.346,6.418 109.954,6.418ZM108.339,16L110.371,16L110.806,6.845L108.86,6.845L108.339,16Z" style="fill:rgb(0,255,255);fill-rule:nonzero;"/>
                <path d="M116.417,10.33L116.417,8.109C116.417,8.109 116.538,6.64 113.811,6.64C111.414,6.64 111.396,7.904 111.396,7.904C111.396,7.904 111.414,9.817 111.431,10.415C111.431,10.996 114.749,13.626 114.749,13.626L114.732,14.48L113.064,14.48L113.064,12.892L111.396,12.652L111.396,14.873C111.396,14.873 111.414,16.239 113.915,16.239C116.417,16.239 116.469,14.651 116.469,14.651C116.469,14.651 116.521,13.387 116.469,12.96C116.451,12.652 113.324,9.749 113.324,9.749L113.324,8.451L114.488,8.451L114.471,10.364L116.417,10.33Z" style="fill:rgb(0,255,255);fill-rule:nonzero;"/>
                <path d="M120.898,6.418C121.506,6.418 121.993,5.906 121.993,5.291C121.993,4.676 121.506,4.164 120.898,4.164C120.29,4.164 119.804,4.676 119.804,5.291C119.804,5.906 120.29,6.418 120.898,6.418ZM119.283,16L121.315,16L121.75,6.845L119.804,6.845L119.283,16Z" style="fill:rgb(0,255,255);fill-rule:nonzero;"/>
                <path d="M127.361,10.33L127.361,8.109C127.361,8.109 127.482,6.64 124.755,6.64C122.358,6.64 122.34,7.904 122.34,7.904C122.34,7.904 122.358,9.817 122.375,10.415C122.375,10.996 125.693,13.626 125.693,13.626L125.676,14.48L124.008,14.48L124.008,12.892L122.34,12.652L122.34,14.873C122.34,14.873 122.358,16.239 124.859,16.239C127.361,16.239 127.413,14.651 127.413,14.651C127.413,14.651 127.465,13.387 127.413,12.96C127.395,12.652 124.268,9.749 124.268,9.749L124.268,8.451L125.432,8.451L125.415,10.364L127.361,10.33Z" style="fill:rgb(0,255,255);fill-rule:nonzero;"/>
                <path d="M135.299,3.088L131.304,3.395C131.304,3.395 130.418,3.515 130.366,4.779C130.331,6.06 130.366,9.595 130.366,9.595C130.366,9.595 130.401,10.347 131.026,10.33C131.686,10.295 133.441,10.33 133.441,10.33L133.25,14.497L130.227,14.258L130.227,16.017L134.413,16.325C134.413,16.325 135.265,16.427 135.299,15.044C135.317,13.66 135.299,8.912 135.299,8.912C135.299,8.912 135.247,8.126 134.413,8.126L132.398,8.058L132.138,5.394C132.138,5.394 135.369,5.445 135.299,5.394C135.247,5.325 135.299,3.088 135.299,3.088Z" style="fill:rgb(0,255,255);fill-rule:nonzero;"/>
                <path d="M136.237,2.815L135.664,16L137.506,16L137.888,9.049L139.069,8.997L138.895,16L140.684,16L141.032,7.631C141.032,7.631 140.858,6.692 139.295,6.692C138.391,6.692 137.888,7.238 137.888,7.238L138.027,2.712L136.237,2.815Z" style="fill:rgb(0,255,255);fill-rule:nonzero;"/>
                <path d="M141.484,15.59C141.484,15.59 141.64,16.29 143.916,16.222C146.643,16.137 146.487,15.214 146.487,15.214L146.469,6.845L144.854,6.845L144.593,13.848L143.412,13.797L143.394,6.845L141.379,6.845L141.484,15.59Z" style="fill:rgb(0,255,255);fill-rule:nonzero;"/>
                <path d="M147.286,6.811L146.851,16.017L148.866,16.017L149.144,9.066L150.326,9.014L150.326,16.017L151.941,16.017L152.219,7.648C152.219,7.648 152.219,6.709 150.656,6.709C149.752,6.709 149.249,7.255 149.249,7.255L149.249,6.709L147.286,6.811Z" style="fill:rgb(0,255,255);fill-rule:nonzero;"/>
                <path d="M157.014,8.587C157.014,8.587 157.014,6.692 154.686,6.606C152.358,6.521 152.584,8.468 152.584,8.468L152.584,14.975C152.584,14.975 152.584,16.188 154.321,16.188C156.718,16.188 156.718,15.146 156.718,15.146L156.649,12.465L155.259,12.396L155.138,14.207L154.043,14.121L154.286,8.861L155.311,8.758L155.329,10.483L156.996,10.398L157.014,8.587Z" style="fill:rgb(0,255,255);fill-rule:nonzero;"/>
                <path d="M157.934,2.815L157.361,16L159.202,16L159.585,9.049L160.766,8.997L160.592,16L162.381,16L162.729,7.631C162.729,7.631 162.555,6.692 160.992,6.692C160.088,6.692 159.585,7.238 159.585,7.238L159.724,2.712L157.934,2.815Z" style="fill:rgb(0,255,255);fill-rule:nonzero;"/>
                <path d="M167.662,12.089L167.662,8.417C167.662,8.417 167.853,6.709 165.595,6.675C163.337,6.64 163.285,8.417 163.285,8.417L163.094,14.599C163.094,14.599 163.007,16.12 165.265,16.154C167.523,16.188 167.662,14.565 167.662,14.565L167.662,12.994L165.96,12.994L165.925,14.275L164.779,14.309L164.779,12.055L167.662,12.089ZM164.935,8.639L166.151,8.639L166.151,10.381L164.935,10.381L164.935,8.639Z" style="fill:rgb(0,255,255);fill-rule:nonzero;"/>
                <path d="M172.613,12.089L172.613,8.417C172.613,8.417 172.804,6.709 170.546,6.675C168.288,6.64 168.236,8.417 168.236,8.417L168.045,14.599C168.045,14.599 167.958,16.12 170.216,16.154C172.474,16.188 172.613,14.565 172.613,14.565L172.613,12.994L170.911,12.994L170.876,14.275L169.73,14.309L169.73,12.055L172.613,12.089ZM169.886,8.639L171.102,8.639L171.102,10.381L169.886,10.381L169.886,8.639Z" style="fill:rgb(0,255,255);fill-rule:nonzero;"/>
                <path d="M174.35,13.745C173.742,13.745 173.256,14.258 173.256,14.873C173.256,15.488 173.742,16 174.35,16C174.958,16 175.445,15.488 175.445,14.873C175.445,14.258 174.958,13.745 174.35,13.745ZM173.256,13.318L175.202,13.318L175.011,3.395L172.978,3.395L173.256,13.318Z" style="fill:rgb(0,255,255);fill-rule:nonzero;"/>
                <path d="M177.686,13.745C177.078,13.745 176.591,14.258 176.591,14.873C176.591,15.488 177.078,16 177.686,16C178.294,16 178.78,15.488 178.78,14.873C178.78,14.258 178.294,13.745 177.686,13.745ZM176.591,13.318L178.537,13.318L178.346,3.395L176.313,3.395L176.591,13.318Z" style="fill:rgb(0,255,255);fill-rule:nonzero;"/>
            </g>
            <g transform="matrix(0.0516132,0,0,0.79819,136.692,12.573)">
                <path d="M226,3.041L227.136,3.041L227.812,-5.651L229.762,-1.244L230.116,-1.244L230.745,-4.162L230.899,0.046L232.035,0L231.835,-11.364L230.53,-11.364L229.609,-5.283L227.229,-10.703L226.507,-10.703L226,3.041Z" style="fill:rgb(0,255,255);fill-rule:nonzero;"/>
                <path d="M232.342,-4.423L232.342,-0.829C232.342,-0.829 232.588,0.077 233.832,0.077C234.722,0.077 235.137,-0.676 235.137,-0.676L235.137,0L236.396,0L236.381,-6.987C236.381,-6.987 236.458,-8.354 234.461,-8.385C232.465,-8.415 232.342,-6.956 232.342,-6.956L232.342,-5.544L233.847,-5.544L233.878,-6.695L234.891,-6.726L234.891,-4.392L232.342,-4.423ZM234.753,-1.628L233.678,-1.628L233.678,-3.194L234.753,-3.194L234.753,-1.628Z" style="fill:rgb(0,255,255);fill-rule:nonzero;"/>
                <path d="M239.683,-11.978L239.591,-7.509C239.591,-7.509 239.529,-8.354 238.254,-8.369C236.872,-8.385 236.872,-6.91 236.872,-6.91L236.719,-1.413C236.719,-1.413 236.627,-0.123 237.809,0.077C238.992,0.276 239.391,-0.522 239.391,-0.522L239.391,-0.015L240.973,-0.015L241.464,-11.978L239.683,-11.978ZM239.406,-1.49C239.406,-1.49 238.485,-1.566 238.393,-1.505C238.393,-1.49 238.377,-1.474 238.377,-1.49L238.393,-1.505C238.439,-1.843 238.377,-6.757 238.377,-6.757L239.544,-6.757L239.406,-1.49Z" style="fill:rgb(0,255,255);fill-rule:nonzero;"/>
                <path d="M245.748,-3.517L245.748,-6.818C245.748,-6.818 245.917,-8.354 243.921,-8.385C241.925,-8.415 241.879,-6.818 241.879,-6.818L241.71,-1.259C241.71,-1.259 241.633,0.107 243.629,0.138C245.626,0.169 245.748,-1.29 245.748,-1.29L245.748,-2.703L244.244,-2.703L244.213,-1.551L243.199,-1.52L243.199,-3.547L245.748,-3.517ZM243.337,-6.619L244.412,-6.619L244.412,-5.052L243.337,-5.052L243.337,-6.619Z" style="fill:rgb(0,255,255);fill-rule:nonzero;"/>
                <path d="M247.76,-11.364L247.806,0.046L249.112,0.154L249.142,-5.559L251.707,-5.805L251.845,-7.724L249.265,-7.279L249.25,-9.92L253.12,-10.074L253.289,-11.978L247.76,-11.364Z" style="fill:rgb(0,255,255);fill-rule:nonzero;"/>
                <path d="M254.578,-8.477C252.659,-8.6 252.674,-7.218 252.674,-7.218L252.521,-1.014C252.521,-1.014 252.567,0.107 254.517,0.246C256.452,0.399 256.498,-1.198 256.498,-1.198L256.652,-7.125C256.652,-7.125 256.513,-8.354 254.578,-8.477ZM255.101,-1.643L254.102,-1.643L254.225,-6.588L255.239,-6.588L255.101,-1.643Z" style="fill:rgb(0,255,255);fill-rule:nonzero;"/>
                <path d="M257.343,-8.262L256.959,0.015L258.74,0.015L258.986,-6.235L260.03,-6.281L260.107,-5.559L261.535,-5.559L261.704,-7.509C261.704,-7.509 261.704,-8.354 260.322,-8.354C259.523,-8.354 259.078,-7.863 259.078,-7.863L259.078,-8.354L257.343,-8.262Z" style="fill:rgb(0,255,255);fill-rule:nonzero;"/>
                <path d="M263.7,-11.195L263.7,-9.06L266.004,-9.06L266.004,-0.015L267.386,-0.015L267.386,-9.26L269.49,-9.26L269.49,-11.364L263.7,-11.195Z" style="fill:rgb(0,255,255);fill-rule:nonzero;"/>
                <path d="M270.304,-11.855L269.797,0L271.425,0L271.762,-6.25L272.807,-6.296L272.653,0L274.235,0L274.542,-7.525C274.542,-7.525 274.388,-8.369 273.006,-8.369C272.208,-8.369 271.762,-7.878 271.762,-7.878L271.885,-11.947L270.304,-11.855Z" style="fill:rgb(0,255,255);fill-rule:nonzero;"/>
                <path d="M278.903,-3.517L278.903,-6.818C278.903,-6.818 279.072,-8.354 277.076,-8.385C275.079,-8.415 275.033,-6.818 275.033,-6.818L274.864,-1.259C274.864,-1.259 274.788,0.107 276.784,0.138C278.78,0.169 278.903,-1.29 278.903,-1.29L278.903,-2.703L277.398,-2.703L277.368,-1.551L276.354,-1.52L276.354,-3.547L278.903,-3.517ZM276.492,-6.619L277.567,-6.619L277.567,-5.052L276.492,-5.052L276.492,-6.619Z" style="fill:rgb(0,255,255);fill-rule:nonzero;"/>
                <path d="M287.042,-11.993L285.983,-2.826L284.385,-7.264L284.032,-7.264L282.834,-4.714L282.051,-11.395L280.915,-11.348L281.115,0.015L282.42,0.015L284.355,-3.962L285.983,0L286.704,0L288.179,-11.993L287.042,-11.993Z" style="fill:rgb(0,255,255);fill-rule:nonzero;"/>
                <path d="M290.543,-8.477C288.624,-8.6 288.639,-7.218 288.639,-7.218L288.486,-1.014C288.486,-1.014 288.532,0.107 290.482,0.246C292.417,0.399 292.463,-1.198 292.463,-1.198L292.617,-7.125C292.617,-7.125 292.478,-8.354 290.543,-8.477ZM291.066,-1.643L290.067,-1.643L290.19,-6.588L291.204,-6.588L291.066,-1.643Z" style="fill:rgb(0,255,255);fill-rule:nonzero;"/>
                <path d="M293.308,-8.262L292.924,0.015L294.705,0.015L294.951,-6.235L295.995,-6.281L296.072,-5.559L297.5,-5.559L297.669,-7.509C297.669,-7.509 297.669,-8.354 296.287,-8.354C295.488,-8.354 295.043,-7.863 295.043,-7.863L295.043,-8.354L293.308,-8.262Z" style="fill:rgb(0,255,255);fill-rule:nonzero;"/>
                <path d="M298.498,-11.993L297.976,-0.491C297.976,-0.491 297.976,0.015 298.406,0.015C298.836,0.015 299.634,0 299.634,0L299.849,-11.993L298.498,-11.993Z" style="fill:rgb(0,255,255);fill-rule:nonzero;"/>
                <path d="M303.596,-11.978L303.504,-7.509C303.504,-7.509 303.443,-8.354 302.168,-8.369C300.786,-8.385 300.786,-6.91 300.786,-6.91L300.633,-1.413C300.633,-1.413 300.54,-0.123 301.723,0.077C302.905,0.276 303.305,-0.522 303.305,-0.522L303.305,-0.015L304.886,-0.015L305.378,-11.978L303.596,-11.978ZM303.32,-1.49C303.32,-1.49 302.399,-1.566 302.306,-1.505C302.306,-1.49 302.291,-1.474 302.291,-1.49L302.306,-1.505C302.353,-1.843 302.291,-6.757 302.291,-6.757L303.458,-6.757L303.32,-1.49Z" style="fill:rgb(0,255,255);fill-rule:nonzero;"/>
                <g transform="matrix(1,0,0,1,1.05922,-0.0627057)">
                    <path d="M306.821,-2.027C306.284,-2.027 305.854,-1.566 305.854,-1.014C305.854,-0.461 306.284,0 306.821,0C307.359,0 307.789,-0.461 307.789,-1.014C307.789,-1.566 307.359,-2.027 306.821,-2.027ZM305.854,-2.411L307.574,-2.411L307.405,-11.333L305.608,-11.333L305.854,-2.411Z" style="fill:rgb(0,255,255);fill-rule:nonzero;"/>
                </g>
                <g transform="matrix(0.995182,0.127558,-0.0753537,0.995182,2.12398,-39.5881)">
                    <path d="M309.77,-2.027C309.232,-2.027 308.802,-1.566 308.802,-1.014C308.802,-0.461 309.232,0 309.77,0C310.307,0 310.737,-0.461 310.737,-1.014C310.737,-1.566 310.307,-2.027 309.77,-2.027ZM308.802,-2.411L310.522,-2.411L310.353,-11.333L308.557,-11.333L308.802,-2.411Z" style="fill:rgb(0,255,255);fill-rule:nonzero;"/>
                </g>
            </g>
        </g>
        <g transform="matrix(1,0,0,1,16,0)">
            <g transform="matrix(1,0,0,1,-0.15,7.10543e-15)">
                <g transform="matrix(0.005,0,0,0.1,137.107,-7.10543e-15)">
                    <path d="M30,80L30,70L20,70L20,80L10,80L10,150L20,150L20,160L80,160L80,150L100,150L100,80L90,80L90,70L30,70L30,80Z" style="fill:rgb(255,244,0);"/>
                </g>
                <g transform="matrix(0.005,0,0,0.1,137.107,-7.10543e-15)">
                    <path d="M40,100L40,159.677L60,159.677L60,120L70,120L70,100L40,100Z" style="fill:rgb(255,0,214);"/>
                </g>
                <g transform="matrix(0.005,0,0,0.1,137.107,-7.10543e-15)">
                    <path d="M90,60L100,60L100,40L90,40L90,30L80,30L80,20L70,20L70,10L20,10L20,70L90,70L90,60Z" style="fill:rgb(214,126,255);"/>
                </g>
                <g transform="matrix(0.00247246,0,0,0.045901,137.207,1)">
                    <rect x="0" y="0" width="20.223" height="21.786"/>
                </g>
                <g transform="matrix(0.005,0,0,0.1,137.107,-7.10543e-15)">
                    <path d="M70,10L70,20L80,20L80,10L90,10L90,0L30,0L30,10L70,10Z"/>
                </g>
                <g transform="matrix(0.00247246,0,0,0.045901,137.507,2)">
                    <rect x="0" y="0" width="20.223" height="21.786"/>
                </g>
                <g transform="matrix(0.00247246,0,0,0.045901,137.557,3)">
                    <rect x="0" y="0" width="20.223" height="21.786"/>
                </g>
                <g transform="matrix(0.00247246,0,0,0.137703,137.157,8)">
                    <rect x="0" y="0" width="20.223" height="21.786"/>
                </g>
                <g transform="matrix(0.00247246,0,0,0.137703,137.107,11)">
                    <rect x="0" y="0" width="20.223" height="21.786"/>
                </g>
                <g transform="matrix(0.00247246,0,0,0.045901,137.157,14)">
                    <rect x="0" y="0" width="20.223" height="21.786"/>
                </g>
                <g transform="matrix(0.0173072,0,0,0.045901,137.207,15)">
                    <rect x="0" y="0" width="20.223" height="21.786"/>
                </g>
                <g transform="matrix(0.00247246,0,0,0.091802,137.607,4)">
                    <rect x="0" y="0" width="20.223" height="21.786"/>
                </g>
                <g transform="matrix(0.00247246,0,0,0.137703,137.607,11)">
                    <rect x="0" y="0" width="20.223" height="21.786"/>
                </g>
                <g transform="matrix(0.00247246,0,0,0.045901,137.557,14)">
                    <rect x="0" y="0" width="20.223" height="21.786"/>
                </g>
                <g transform="matrix(0.005,0,0,0.1,137.107,-7.10543e-15)">
                    <path d="M20,60L20,80L30,80L30,90L50,90L50,70.161L60,70.161L60,90L80,90L80,80L90,80L90,110L100,110L100,60L90,60L90,50L80,50L80,40L60,40L60,60.161L50,60.161L50,40L30,40L30,50L20,50L20,20L10,20L10,60L20,60Z"/>
                </g>
                <g transform="matrix(0.00247246,0,0,0.137703,137.257,5)">
                    <rect x="0" y="0" width="20.223" height="21.786" style="fill:white;"/>
                </g>
            </g>
            <g transform="matrix(1,0,0,1,0.55,7.10543e-15)">
                <g transform="matrix(0.005,0,0,0.1,137.107,-7.10543e-15)">
                    <path d="M30,80L30,70L20,70L20,80L10,80L10,150L20,150L20,160L80,160L80,150L100,150L100,80L90,80L90,70L30,70L30,80Z" style="fill:rgb(255,244,0);"/>
                </g>
                <g transform="matrix(0.005,0,0,0.1,137.107,-7.10543e-15)">
                    <path d="M40,100L40,159.677L60,159.677L60,120L70,120L70,100L40,100Z" style="fill:rgb(255,0,214);"/>
                </g>
                <g transform="matrix(0.005,0,0,0.1,137.107,-7.10543e-15)">
                    <path d="M90,60L100,60L100,40L90,40L90,30L80,30L80,20L70,20L70,10L20,10L20,70L90,70L90,60Z" style="fill:rgb(214,126,255);"/>
                </g>
                <g transform="matrix(0.00247246,0,0,0.045901,137.207,1)">
                    <rect x="0" y="0" width="20.223" height="21.786"/>
                </g>
                <g transform="matrix(0.005,0,0,0.1,137.107,-7.10543e-15)">
                    <path d="M70,10L70,20L80,20L80,10L90,10L90,0L30,0L30,10L70,10Z"/>
                </g>
                <g transform="matrix(0.00247246,0,0,0.045901,137.507,2)">
                    <rect x="0" y="0" width="20.223" height="21.786"/>
                </g>
                <g transform="matrix(0.00247246,0,0,0.045901,137.557,3)">
                    <rect x="0" y="0" width="20.223" height="21.786"/>
                </g>
                <g transform="matrix(0.00247246,0,0,0.137703,137.157,8)">
                    <rect x="0" y="0" width="20.223" height="21.786"/>
                </g>
                <g transform="matrix(0.00247246,0,0,0.137703,137.107,11)">
                    <rect x="0" y="0" width="20.223" height="21.786"/>
                </g>
                <g transform="matrix(0.00247246,0,0,0.045901,137.157,14)">
                    <rect x="0" y="0" width="20.223" height="21.786"/>
                </g>
                <g transform="matrix(0.0173072,0,0,0.045901,137.207,15)">
                    <rect x="0" y="0" width="20.223" height="21.786"/>
                </g>
                <g transform="matrix(0.00247246,0,0,0.091802,137.607,4)">
                    <rect x="0" y="0" width="20.223" height="21.786"/>
                </g>
                <g transform="matrix(0.00247246,0,0,0.137703,137.607,11)">
                    <rect x="0" y="0" width="20.223" height="21.786"/>
                </g>
                <g transform="matrix(0.00247246,0,0,0.045901,137.557,14)">
                    <rect x="0" y="0" width="20.223" height="21.786"/>
                </g>
                <g transform="matrix(0.005,0,0,0.1,137.107,-7.10543e-15)">
                    <path d="M20,60L20,80L30,80L30,90L50,90L50,70.161L60,70.161L60,90L80,90L80,80L90,80L90,110L100,110L100,60L90,60L90,50L80,50L80,40L60,40L60,60.161L50,60.161L50,40L30,40L30,50L20,50L20,20L10,20L10,60L20,60Z"/>
                </g>
                <g transform="matrix(0.00247246,0,0,0.137703,137.257,5)">
                    <rect x="0" y="0" width="20.223" height="21.786" style="fill:white;"/>
                </g>
            </g>
            <g transform="matrix(1,0,0,1,1.25,7.10543e-15)">
                <g transform="matrix(0.005,0,0,0.1,137.107,-7.10543e-15)">
                    <path d="M30,80L30,70L20,70L20,80L10,80L10,150L20,150L20,160L80,160L80,150L100,150L100,80L90,80L90,70L30,70L30,80Z" style="fill:rgb(255,244,0);"/>
                </g>
                <g transform="matrix(0.005,0,0,0.1,137.107,-7.10543e-15)">
                    <path d="M40,100L40,159.677L60,159.677L60,120L70,120L70,100L40,100Z" style="fill:rgb(255,0,214);"/>
                </g>
                <g transform="matrix(0.005,0,0,0.1,137.107,-7.10543e-15)">
                    <path d="M90,60L100,60L100,40L90,40L90,30L80,30L80,20L70,20L70,10L20,10L20,70L90,70L90,60Z" style="fill:rgb(214,126,255);"/>
                </g>
                <g transform="matrix(0.00247246,0,0,0.045901,137.207,1)">
                    <rect x="0" y="0" width="20.223" height="21.786"/>
                </g>
                <g transform="matrix(0.005,0,0,0.1,137.107,-7.10543e-15)">
                    <path d="M70,10L70,20L80,20L80,10L90,10L90,0L30,0L30,10L70,10Z"/>
                </g>
                <g transform="matrix(0.00247246,0,0,0.045901,137.507,2)">
                    <rect x="0" y="0" width="20.223" height="21.786"/>
                </g>
                <g transform="matrix(0.00247246,0,0,0.045901,137.557,3)">
                    <rect x="0" y="0" width="20.223" height="21.786"/>
                </g>
                <g transform="matrix(0.00247246,0,0,0.137703,137.157,8)">
                    <rect x="0" y="0" width="20.223" height="21.786"/>
                </g>
                <g transform="matrix(0.00247246,0,0,0.137703,137.107,11)">
                    <rect x="0" y="0" width="20.223" height="21.786"/>
                </g>
                <g transform="matrix(0.00247246,0,0,0.045901,137.157,14)">
                    <rect x="0" y="0" width="20.223" height="21.786"/>
                </g>
                <g transform="matrix(0.0173072,0,0,0.045901,137.207,15)">
                    <rect x="0" y="0" width="20.223" height="21.786"/>
                </g>
                <g transform="matrix(0.00247246,0,0,0.091802,137.607,4)">
                    <rect x="0" y="0" width="20.223" height="21.786"/>
                </g>
                <g transform="matrix(0.00247246,0,0,0.137703,137.607,11)">
                    <rect x="0" y="0" width="20.223" height="21.786"/>
                </g>
                <g transform="matrix(0.00247246,0,0,0.045901,137.557,14)">
                    <rect x="0" y="0" width="20.223" height="21.786"/>
                </g>
                <g transform="matrix(0.005,0,0,0.1,137.107,-7.10543e-15)">
                    <path d="M20,60L20,80L30,80L30,90L50,90L50,70.161L60,70.161L60,90L80,90L80,80L90,80L90,110L100,110L100,60L90,60L90,50L80,50L80,40L60,40L60,60.161L50,60.161L50,40L30,40L30,50L20,50L20,20L10,20L10,60L20,60Z"/>
                </g>
                <g transform="matrix(0.00247246,0,0,0.137703,137.257,5)">
                    <rect x="0" y="0" width="20.223" height="21.786" style="fill:white;"/>
                </g>
            </g>
            <g transform="matrix(1,0,0,1,1.95,7.10543e-15)">
                <g transform="matrix(0.005,0,0,0.1,137.107,-7.10543e-15)">
                    <path d="M30,80L30,70L20,70L20,80L10,80L10,150L20,150L20,160L80,160L80,150L100,150L100,80L90,80L90,70L30,70L30,80Z" style="fill:rgb(255,244,0);"/>
                </g>
                <g transform="matrix(0.005,0,0,0.1,137.107,-7.10543e-15)">
                    <path d="M40,100L40,159.677L60,159.677L60,120L70,120L70,100L40,100Z" style="fill:rgb(255,0,214);"/>
                </g>
                <g transform="matrix(0.005,0,0,0.1,137.107,-7.10543e-15)">
                    <path d="M90,60L100,60L100,40L90,40L90,30L80,30L80,20L70,20L70,10L20,10L20,70L90,70L90,60Z" style="fill:rgb(214,126,255);"/>
                </g>
                <g transform="matrix(0.00247246,0,0,0.045901,137.207,1)">
                    <rect x="0" y="0" width="20.223" height="21.786"/>
                </g>
                <g transform="matrix(0.005,0,0,0.1,137.107,-7.10543e-15)">
                    <path d="M70,10L70,20L80,20L80,10L90,10L90,0L30,0L30,10L70,10Z"/>
                </g>
                <g transform="matrix(0.00247246,0,0,0.045901,137.507,2)">
                    <rect x="0" y="0" width="20.223" height="21.786"/>
                </g>
                <g transform="matrix(0.00247246,0,0,0.045901,137.557,3)">
                    <rect x="0" y="0" width="20.223" height="21.786"/>
                </g>
                <g transform="matrix(0.00247246,0,0,0.137703,137.157,8)">
                    <rect x="0" y="0" width="20.223" height="21.786"/>
                </g>
                <g transform="matrix(0.00247246,0,0,0.137703,137.107,11)">
                    <rect x="0" y="0" width="20.223" height="21.786"/>
                </g>
                <g transform="matrix(0.00247246,0,0,0.045901,137.157,14)">
                    <rect x="0" y="0" width="20.223" height="21.786"/>
                </g>
                <g transform="matrix(0.0173072,0,0,0.045901,137.207,15)">
                    <rect x="0" y="0" width="20.223" height="21.786"/>
                </g>
                <g transform="matrix(0.00247246,0,0,0.091802,137.607,4)">
                    <rect x="0" y="0" width="20.223" height="21.786"/>
                </g>
                <g transform="matrix(0.00247246,0,0,0.137703,137.607,11)">
                    <rect x="0" y="0" width="20.223" height="21.786"/>
                </g>
                <g transform="matrix(0.00247246,0,0,0.045901,137.557,14)">
                    <rect x="0" y="0" width="20.223" height="21.786"/>
                </g>
                <g transform="matrix(0.005,0,0,0.1,137.107,-7.10543e-15)">
                    <path d="M20,60L20,80L30,80L30,90L50,90L50,70.161L60,70.161L60,90L80,90L80,80L90,80L90,110L100,110L100,60L90,60L90,50L80,50L80,40L60,40L60,60.161L50,60.161L50,40L30,40L30,50L20,50L20,20L10,20L10,60L20,60Z"/>
                </g>
                <g transform="matrix(0.00247246,0,0,0.137703,137.257,5)">
                    <rect x="0" y="0" width="20.223" height="21.786" style="fill:white;"/>
                </g>
            </g>
            <g transform="matrix(1,0,0,1,2.65,7.10543e-15)">
                <g transform="matrix(0.005,0,0,0.1,137.107,-7.10543e-15)">
                    <path d="M30,80L30,70L20,70L20,80L10,80L10,150L20,150L20,160L80,160L80,150L100,150L100,80L90,80L90,70L30,70L30,80Z" style="fill:rgb(255,244,0);"/>
                </g>
                <g transform="matrix(0.005,0,0,0.1,137.107,-7.10543e-15)">
                    <path d="M40,100L40,159.677L60,159.677L60,120L70,120L70,100L40,100Z" style="fill:rgb(255,0,214);"/>
                </g>
                <g transform="matrix(0.005,0,0,0.1,137.107,-7.10543e-15)">
                    <path d="M90,60L100,60L100,40L90,40L90,30L80,30L80,20L70,20L70,10L20,10L20,70L90,70L90,60Z" style="fill:rgb(214,126,255);"/>
                </g>
                <g transform="matrix(0.00247246,0,0,0.045901,137.207,1)">
                    <rect x="0" y="0" width="20.223" height="21.786"/>
                </g>
                <g transform="matrix(0.005,0,0,0.1,137.107,-7.10543e-15)">
                    <path d="M70,10L70,20L80,20L80,10L90,10L90,0L30,0L30,10L70,10Z"/>
                </g>
                <g transform="matrix(0.00247246,0,0,0.045901,137.507,2)">
                    <rect x="0" y="0" width="20.223" height="21.786"/>
                </g>
                <g transform="matrix(0.00247246,0,0,0.045901,137.557,3)">
                    <rect x="0" y="0" width="20.223" height="21.786"/>
                </g>
                <g transform="matrix(0.00247246,0,0,0.137703,137.157,8)">
                    <rect x="0" y="0" width="20.223" height="21.786"/>
                </g>
                <g transform="matrix(0.00247246,0,0,0.137703,137.107,11)">
                    <rect x="0" y="0" width="20.223" height="21.786"/>
                </g>
                <g transform="matrix(0.00247246,0,0,0.045901,137.157,14)">
                    <rect x="0" y="0" width="20.223" height="21.786"/>
                </g>
                <g transform="matrix(0.0173072,0,0,0.045901,137.207,15)">
                    <rect x="0" y="0" width="20.223" height="21.786"/>
                </g>
                <g transform="matrix(0.00247246,0,0,0.091802,137.607,4)">
                    <rect x="0" y="0" width="20.223" height="21.786"/>
                </g>
                <g transform="matrix(0.00247246,0,0,0.137703,137.607,11)">
                    <rect x="0" y="0" width="20.223" height="21.786"/>
                </g>
                <g transform="matrix(0.00247246,0,0,0.045901,137.557,14)">
                    <rect x="0" y="0" width="20.223" height="21.786"/>
                </g>
                <g transform="matrix(0.005,0,0,0.1,137.107,-7.10543e-15)">
                    <path d="M20,60L20,80L30,80L30,90L50,90L50,70.161L60,70.161L60,90L80,90L80,80L90,80L90,110L100,110L100,60L90,60L90,50L80,50L80,40L60,40L60,60.161L50,60.161L50,40L30,40L30,50L20,50L20,20L10,20L10,60L20,60Z"/>
                </g>
                <g transform="matrix(0.00247246,0,0,0.137703,137.257,5)">
                    <rect x="0" y="0" width="20.223" height="21.786" style="fill:white;"/>
                </g>
            </g>
            <g transform="matrix(0.0025,0,0,0.075,145.607,4)">
                <g transform="matrix(2,0,0,1.33333,-3460,-53.3333)">
                    <path d="M1800,50L1740,50L1740,90L1730,90L1730,110L1740,110L1740,120L1760,120L1760,160L1790,160L1790,120L1800,120L1800,50Z" style="fill:rgb(255,18,0);"/>
                </g>
                <g transform="matrix(0.988985,0,0,0.612013,120,106.667)">
                    <rect x="0" y="0" width="20.223" height="21.786"/>
                </g>
                <g transform="matrix(0.988985,0,0,1.83604,100,120)">
                    <rect x="0" y="0" width="20.223" height="21.786"/>
                </g>
                <g transform="matrix(2,0,0,1.33333,-3460,-53.3333)">
                    <path d="M1760,50L1760,90L1770,90L1770,50L1780,50L1780,90L1790,90L1790,50L1800,50L1800,40L1750,40L1750,50L1760,50Z"/>
                </g>
                <g transform="matrix(2,0,0,1.33333,-3460,-53.3333)">
                    <path d="M1740,80L1730,80L1730,120L1750,120L1750,110L1740,110L1740,90L1750,90L1750,50L1740,50L1740,80Z"/>
                </g>
                <g transform="matrix(2,0,0,1.33333,-3460,-53.3333)">
                    <path d="M1770,110L1770,120L1780,120L1780,110L1790,110L1790,100L1760,100L1760,110L1770,110Z"/>
                </g>
                <g transform="matrix(0.988985,0,0,0.612013,40,66.6667)">
                    <rect x="0" y="0" width="20.223" height="21.786"/>
                </g>
                <g transform="matrix(2,0,0,1.33333,-3460,-53.3333)">
                    <path d="M1760,140L1760,160L1770,160L1770,130L1760,130L1760,120L1750,120L1750,140L1760,140Z"/>
                </g>
                <g transform="matrix(0.988985,0,0,4.28409,140,13.3333)">
                    <rect x="0" y="0" width="20.223" height="21.786"/>
                </g>
            </g>
            <g transform="matrix(0.0025,0,0,0.075,146.157,2)">
                <g transform="matrix(2,0,0,1.33333,-3460,-53.3333)">
                    <path d="M1800,50L1740,50L1740,90L1730,90L1730,110L1740,110L1740,120L1760,120L1760,160L1790,160L1790,120L1800,120L1800,50Z" style="fill:rgb(255,18,0);"/>
                </g>
                <g transform="matrix(0.988985,0,0,0.612013,120,106.667)">
                    <rect x="0" y="0" width="20.223" height="21.786"/>
                </g>
                <g transform="matrix(0.988985,0,0,1.83604,100,120)">
                    <rect x="0" y="0" width="20.223" height="21.786"/>
                </g>
                <g transform="matrix(2,0,0,1.33333,-3460,-53.3333)">
                    <path d="M1760,50L1760,90L1770,90L1770,50L1780,50L1780,90L1790,90L1790,50L1800,50L1800,40L1750,40L1750,50L1760,50Z"/>
                </g>
                <g transform="matrix(2,0,0,1.33333,-3460,-53.3333)">
                    <path d="M1740,80L1730,80L1730,120L1750,120L1750,110L1740,110L1740,90L1750,90L1750,50L1740,50L1740,80Z"/>
                </g>
                <g transform="matrix(2,0,0,1.33333,-3460,-53.3333)">
                    <path d="M1770,110L1770,120L1780,120L1780,110L1790,110L1790,100L1760,100L1760,110L1770,110Z"/>
                </g>
                <g transform="matrix(0.988985,0,0,0.612013,40,66.6667)">
                    <rect x="0" y="0" width="20.223" height="21.786"/>
                </g>
                <g transform="matrix(2,0,0,1.33333,-3460,-53.3333)">
                    <path d="M1760,140L1760,160L1770,160L1770,130L1760,130L1760,120L1750,120L1750,140L1760,140Z"/>
                </g>
                <g transform="matrix(0.988985,0,0,4.28409,140,13.3333)">
                    <rect x="0" y="0" width="20.223" height="21.786"/>
                </g>
            </g>
            <g transform="matrix(0.0025,0,0,0.075,146.707,4)">
                <g transform="matrix(2,0,0,1.33333,-3460,-53.3333)">
                    <path d="M1800,50L1740,50L1740,90L1730,90L1730,110L1740,110L1740,120L1760,120L1760,160L1790,160L1790,120L1800,120L1800,50Z" style="fill:rgb(255,18,0);"/>
                </g>
                <g transform="matrix(0.988985,0,0,0.612013,120,106.667)">
                    <rect x="0" y="0" width="20.223" height="21.786"/>
                </g>
                <g transform="matrix(0.988985,0,0,1.83604,100,120)">
                    <rect x="0" y="0" width="20.223" height="21.786"/>
                </g>
                <g transform="matrix(2,0,0,1.33333,-3460,-53.3333)">
                    <path d="M1760,50L1760,90L1770,90L1770,50L1780,50L1780,90L1790,90L1790,50L1800,50L1800,40L1750,40L1750,50L1760,50Z"/>
                </g>
                <g transform="matrix(2,0,0,1.33333,-3460,-53.3333)">
                    <path d="M1740,80L1730,80L1730,120L1750,120L1750,110L1740,110L1740,90L1750,90L1750,50L1740,50L1740,80Z"/>
                </g>
                <g transform="matrix(2,0,0,1.33333,-3460,-53.3333)">
                    <path d="M1770,110L1770,120L1780,120L1780,110L1790,110L1790,100L1760,100L1760,110L1770,110Z"/>
                </g>
                <g transform="matrix(0.988985,0,0,0.612013,40,66.6667)">
                    <rect x="0" y="0" width="20.223" height="21.786"/>
                </g>
                <g transform="matrix(2,0,0,1.33333,-3460,-53.3333)">
                    <path d="M1760,140L1760,160L1770,160L1770,130L1760,130L1760,120L1750,120L1750,140L1760,140Z"/>
                </g>
                <g transform="matrix(0.988985,0,0,4.28409,140,13.3333)">
                    <rect x="0" y="0" width="20.223" height="21.786"/>
                </g>
            </g>
            <g transform="matrix(0.0025,0,0,0.075,147.257,2)">
                <g transform="matrix(2,0,0,1.33333,-3460,-53.3333)">
                    <path d="M1800,50L1740,50L1740,90L1730,90L1730,110L1740,110L1740,120L1760,120L1760,160L1790,160L1790,120L1800,120L1800,50Z" style="fill:rgb(255,18,0);"/>
                </g>
                <g transform="matrix(0.988985,0,0,0.612013,120,106.667)">
                    <rect x="0" y="0" width="20.223" height="21.786"/>
                </g>
                <g transform="matrix(0.988985,0,0,1.83604,100,120)">
                    <rect x="0" y="0" width="20.223" height="21.786"/>
                </g>
                <g transform="matrix(2,0,0,1.33333,-3460,-53.3333)">
                    <path d="M1760,50L1760,90L1770,90L1770,50L1780,50L1780,90L1790,90L1790,50L1800,50L1800,40L1750,40L1750,50L1760,50Z"/>
                </g>
                <g transform="matrix(2,0,0,1.33333,-3460,-53.3333)">
                    <path d="M1740,80L1730,80L1730,120L1750,120L1750,110L1740,110L1740,90L1750,90L1750,50L1740,50L1740,80Z"/>
                </g>
                <g transform="matrix(2,0,0,1.33333,-3460,-53.3333)">
                    <path d="M1770,110L1770,120L1780,120L1780,110L1790,110L1790,100L1760,100L1760,110L1770,110Z"/>
                </g>
                <g transform="matrix(0.988985,0,0,0.612013,40,66.6667)">
                    <rect x="0" y="0" width="20.223" height="21.786"/>
                </g>
                <g transform="matrix(2,0,0,1.33333,-3460,-53.3333)">
                    <path d="M1760,140L1760,160L1770,160L1770,130L1760,130L1760,120L1750,120L1750,140L1760,140Z"/>
                </g>
                <g transform="matrix(0.988985,0,0,4.28409,140,13.3333)">
                    <rect x="0" y="0" width="20.223" height="21.786"/>
                </g>
            </g>
            <g transform="matrix(0.0025,0,0,0.075,147.807,4)">
                <g transform="matrix(2,0,0,1.33333,-3460,-53.3333)">
                    <path d="M1800,50L1740,50L1740,90L1730,90L1730,110L1740,110L1740,120L1760,120L1760,160L1790,160L1790,120L1800,120L1800,50Z" style="fill:rgb(255,18,0);"/>
                </g>
                <g transform="matrix(0.988985,0,0,0.612013,120,106.667)">
                    <rect x="0" y="0" width="20.223" height="21.786"/>
                </g>
                <g transform="matrix(0.988985,0,0,1.83604,100,120)">
                    <rect x="0" y="0" width="20.223" height="21.786"/>
                </g>
                <g transform="matrix(2,0,0,1.33333,-3460,-53.3333)">
                    <path d="M1760,50L1760,90L1770,90L1770,50L1780,50L1780,90L1790,90L1790,50L1800,50L1800,40L1750,40L1750,50L1760,50Z"/>
                </g>
                <g transform="matrix(2,0,0,1.33333,-3460,-53.3333)">
                    <path d="M1740,80L1730,80L1730,120L1750,120L1750,110L1740,110L1740,90L1750,90L1750,50L1740,50L1740,80Z"/>
                </g>
                <g transform="matrix(2,0,0,1.33333,-3460,-53.3333)">
                    <path d="M1770,110L1770,120L1780,120L1780,110L1790,110L1790,100L1760,100L1760,110L1770,110Z"/>
                </g>
                <g transform="matrix(0.988985,0,0,0.612013,40,66.6667)">
                    <rect x="0" y="0" width="20.223" height="21.786"/>
                </g>
                <g transform="matrix(2,0,0,1.33333,-3460,-53.3333)">
                    <path d="M1760,140L1760,160L1770,160L1770,130L1760,130L1760,120L1750,120L1750,140L1760,140Z"/>
                </g>
                <g transform="matrix(0.988985,0,0,4.28409,140,13.3333)">
                    <rect x="0" y="0" width="20.223" height="21.786"/>
                </g>
            </g>
            <g transform="matrix(0.0459643,0,0,0.734528,137.239,1.00794)">
                <path d="M74.603,3.395L73.561,7.887L72.102,3.344L70,3.532L72.432,10.842L72.293,16.325L74.082,15.966L74.273,10.671L75.872,3.549L74.603,3.395Z" style="fill:rgb(0,255,255);fill-rule:nonzero;"/>
                <path d="M80.805,12.089L80.805,8.417C80.805,8.417 80.996,6.709 78.738,6.675C76.48,6.64 76.427,8.417 76.427,8.417L76.236,14.599C76.236,14.599 76.149,16.12 78.408,16.154C80.666,16.188 80.805,14.565 80.805,14.565L80.805,12.994L79.103,12.994L79.068,14.275L77.921,14.309L77.921,12.055L80.805,12.089ZM78.078,8.639L79.294,8.639L79.294,10.381L78.078,10.381L78.078,8.639Z" style="fill:rgb(0,255,255);fill-rule:nonzero;"/>
                <path d="M86.19,10.33L86.19,8.109C86.19,8.109 86.312,6.64 83.584,6.64C81.187,6.64 81.17,7.904 81.17,7.904C81.17,7.904 81.187,9.817 81.205,10.415C81.205,10.996 84.523,13.626 84.523,13.626L84.505,14.48L82.838,14.48L82.838,12.892L81.17,12.652L81.17,14.873C81.17,14.873 81.187,16.239 83.689,16.239C86.19,16.239 86.242,14.651 86.242,14.651C86.242,14.651 86.294,13.387 86.242,12.96C86.225,12.652 83.098,9.749 83.098,9.749L83.098,8.451L84.262,8.451L84.245,10.364L86.19,10.33Z" style="fill:rgb(0,255,255);fill-rule:nonzero;"/>
                <path d="M88.518,13.745C87.91,13.745 87.424,14.258 87.424,14.873C87.424,15.488 87.91,16 88.518,16C89.126,16 89.612,15.488 89.612,14.873C89.612,14.258 89.126,13.745 88.518,13.745ZM87.424,13.318L89.369,13.318L89.178,3.395L87.146,3.395L87.424,13.318Z" style="fill:rgb(0,255,255);fill-rule:nonzero;"/>
                <path d="M91.853,13.745C91.245,13.745 90.759,14.258 90.759,14.873C90.759,15.488 91.245,16 91.853,16C92.461,16 92.948,15.488 92.948,14.873C92.948,14.258 92.461,13.745 91.853,13.745ZM90.759,13.318L92.705,13.318L92.513,3.395L90.481,3.395L90.759,13.318Z" style="fill:rgb(0,255,255);fill-rule:nonzero;"/>
                <path d="M95.727,3.549L95.727,5.923L98.333,5.923L98.333,15.983L99.896,15.983L99.896,5.701L102.276,5.701L102.276,3.361L95.727,3.549Z" style="fill:rgb(0,255,255);fill-rule:nonzero;"/>
                <path d="M103.197,2.815L102.624,16L104.465,16L104.847,9.049L106.028,8.997L105.855,16L107.644,16L107.991,7.631C107.991,7.631 107.818,6.692 106.254,6.692C105.351,6.692 104.847,7.238 104.847,7.238L104.986,2.712L103.197,2.815Z" style="fill:rgb(0,255,255);fill-rule:nonzero;"/>
                <path d="M109.954,6.418C110.562,6.418 111.049,5.906 111.049,5.291C111.049,4.676 110.562,4.164 109.954,4.164C109.346,4.164 108.86,4.676 108.86,5.291C108.86,5.906 109.346,6.418 109.954,6.418ZM108.339,16L110.371,16L110.806,6.845L108.86,6.845L108.339,16Z" style="fill:rgb(0,255,255);fill-rule:nonzero;"/>
                <path d="M116.417,10.33L116.417,8.109C116.417,8.109 116.538,6.64 113.811,6.64C111.414,6.64 111.396,7.904 111.396,7.904C111.396,7.904 111.414,9.817 111.431,10.415C111.431,10.996 114.749,13.626 114.749,13.626L114.732,14.48L113.064,14.48L113.064,12.892L111.396,12.652L111.396,14.873C111.396,14.873 111.414,16.239 113.915,16.239C116.417,16.239 116.469,14.651 116.469,14.651C116.469,14.651 116.521,13.387 116.469,12.96C116.451,12.652 113.324,9.749 113.324,9.749L113.324,8.451L114.488,8.451L114.471,10.364L116.417,10.33Z" style="fill:rgb(0,255,255);fill-rule:nonzero;"/>
                <path d="M120.898,6.418C121.506,6.418 121.993,5.906 121.993,5.291C121.993,4.676 121.506,4.164 120.898,4.164C120.29,4.164 119.804,4.676 119.804,5.291C119.804,5.906 120.29,6.418 120.898,6.418ZM119.283,16L121.315,16L121.75,6.845L119.804,6.845L119.283,16Z" style="fill:rgb(0,255,255);fill-rule:nonzero;"/>
                <path d="M127.361,10.33L127.361,8.109C127.361,8.109 127.482,6.64 124.755,6.64C122.358,6.64 122.34,7.904 122.34,7.904C122.34,7.904 122.358,9.817 122.375,10.415C122.375,10.996 125.693,13.626 125.693,13.626L125.676,14.48L124.008,14.48L124.008,12.892L122.34,12.652L122.34,14.873C122.34,14.873 122.358,16.239 124.859,16.239C127.361,16.239 127.413,14.651 127.413,14.651C127.413,14.651 127.465,13.387 127.413,12.96C127.395,12.652 124.268,9.749 124.268,9.749L124.268,8.451L125.432,8.451L125.415,10.364L127.361,10.33Z" style="fill:rgb(0,255,255);fill-rule:nonzero;"/>
                <path d="M135.299,3.088L131.304,3.395C131.304,3.395 130.418,3.515 130.366,4.779C130.331,6.06 130.366,9.595 130.366,9.595C130.366,9.595 130.401,10.347 131.026,10.33C131.686,10.295 133.441,10.33 133.441,10.33L133.25,14.497L130.227,14.258L130.227,16.017L134.413,16.325C134.413,16.325 135.265,16.427 135.299,15.044C135.317,13.66 135.299,8.912 135.299,8.912C135.299,8.912 135.247,8.126 134.413,8.126L132.398,8.058L132.138,5.394C132.138,5.394 135.369,5.445 135.299,5.394C135.247,5.325 135.299,3.088 135.299,3.088Z" style="fill:rgb(0,255,255);fill-rule:nonzero;"/>
                <path d="M136.237,2.815L135.664,16L137.506,16L137.888,9.049L139.069,8.997L138.895,16L140.684,16L141.032,7.631C141.032,7.631 140.858,6.692 139.295,6.692C138.391,6.692 137.888,7.238 137.888,7.238L138.027,2.712L136.237,2.815Z" style="fill:rgb(0,255,255);fill-rule:nonzero;"/>
                <path d="M141.484,15.59C141.484,15.59 141.64,16.29 143.916,16.222C146.643,16.137 146.487,15.214 146.487,15.214L146.469,6.845L144.854,6.845L144.593,13.848L143.412,13.797L143.394,6.845L141.379,6.845L141.484,15.59Z" style="fill:rgb(0,255,255);fill-rule:nonzero;"/>
                <path d="M147.286,6.811L146.851,16.017L148.866,16.017L149.144,9.066L150.326,9.014L150.326,16.017L151.941,16.017L152.219,7.648C152.219,7.648 152.219,6.709 150.656,6.709C149.752,6.709 149.249,7.255 149.249,7.255L149.249,6.709L147.286,6.811Z" style="fill:rgb(0,255,255);fill-rule:nonzero;"/>
                <path d="M157.014,8.587C157.014,8.587 157.014,6.692 154.686,6.606C152.358,6.521 152.584,8.468 152.584,8.468L152.584,14.975C152.584,14.975 152.584,16.188 154.321,16.188C156.718,16.188 156.718,15.146 156.718,15.146L156.649,12.465L155.259,12.396L155.138,14.207L154.043,14.121L154.286,8.861L155.311,8.758L155.329,10.483L156.996,10.398L157.014,8.587Z" style="fill:rgb(0,255,255);fill-rule:nonzero;"/>
                <path d="M157.934,2.815L157.361,16L159.202,16L159.585,9.049L160.766,8.997L160.592,16L162.381,16L162.729,7.631C162.729,7.631 162.555,6.692 160.992,6.692C160.088,6.692 159.585,7.238 159.585,7.238L159.724,2.712L157.934,2.815Z" style="fill:rgb(0,255,255);fill-rule:nonzero;"/>
                <path d="M167.662,12.089L167.662,8.417C167.662,8.417 167.853,6.709 165.595,6.675C163.337,6.64 163.285,8.417 163.285,8.417L163.094,14.599C163.094,14.599 163.007,16.12 165.265,16.154C167.523,16.188 167.662,14.565 167.662,14.565L167.662,12.994L165.96,12.994L165.925,14.275L164.779,14.309L164.779,12.055L167.662,12.089ZM164.935,8.639L166.151,8.639L166.151,10.381L164.935,10.381L164.935,8.639Z" style="fill:rgb(0,255,255);fill-rule:nonzero;"/>
                <path d="M172.613,12.089L172.613,8.417C172.613,8.417 172.804,6.709 170.546,6.675C168.288,6.64 168.236,8.417 168.236,8.417L168.045,14.599C168.045,14.599 167.958,16.12 170.216,16.154C172.474,16.188 172.613,14.565 172.613,14.565L172.613,12.994L170.911,12.994L170.876,14.275L169.73,14.309L169.73,12.055L172.613,12.089ZM169.886,8.639L171.102,8.639L171.102,10.381L169.886,10.381L169.886,8.639Z" style="fill:rgb(0,255,255);fill-rule:nonzero;"/>
                <path d="M174.35,13.745C173.742,13.745 173.256,14.258 173.256,14.873C173.256,15.488 173.742,16 174.35,16C174.958,16 175.445,15.488 175.445,14.873C175.445,14.258 174.958,13.745 174.35,13.745ZM173.256,13.318L175.202,13.318L175.011,3.395L172.978,3.395L173.256,13.318Z" style="fill:rgb(0,255,255);fill-rule:nonzero;"/>
                <path d="M177.686,13.745C177.078,13.745 176.591,14.258 176.591,14.873C176.591,15.488 177.078,16 177.686,16C178.294,16 178.78,15.488 178.78,14.873C178.78,14.258 178.294,13.745 177.686,13.745ZM176.591,13.318L178.537,13.318L178.346,3.395L176.313,3.395L176.591,13.318Z" style="fill:rgb(0,255,255);fill-rule:nonzero;"/>
            </g>
            <g transform="matrix(0.0516132,0,0,0.79819,136.692,12.573)">
                <path d="M226,3.041L227.136,3.041L227.812,-5.651L229.762,-1.244L230.116,-1.244L230.745,-4.162L230.899,0.046L232.035,0L231.835,-11.364L230.53,-11.364L229.609,-5.283L227.229,-10.703L226.507,-10.703L226,3.041Z" style="fill:rgb(0,255,255);fill-rule:nonzero;"/>
                <path d="M232.342,-4.423L232.342,-0.829C232.342,-0.829 232.588,0.077 233.832,0.077C234.722,0.077 235.137,-0.676 235.137,-0.676L235.137,0L236.396,0L236.381,-6.987C236.381,-6.987 236.458,-8.354 234.461,-8.385C232.465,-8.415 232.342,-6.956 232.342,-6.956L232.342,-5.544L233.847,-5.544L233.878,-6.695L234.891,-6.726L234.891,-4.392L232.342,-4.423ZM234.753,-1.628L233.678,-1.628L233.678,-3.194L234.753,-3.194L234.753,-1.628Z" style="fill:rgb(0,255,255);fill-rule:nonzero;"/>
                <path d="M239.683,-11.978L239.591,-7.509C239.591,-7.509 239.529,-8.354 238.254,-8.369C236.872,-8.385 236.872,-6.91 236.872,-6.91L236.719,-1.413C236.719,-1.413 236.627,-0.123 237.809,0.077C238.992,0.276 239.391,-0.522 239.391,-0.522L239.391,-0.015L240.973,-0.015L241.464,-11.978L239.683,-11.978ZM239.406,-1.49C239.406,-1.49 238.485,-1.566 238.393,-1.505C238.393,-1.49 238.377,-1.474 238.377,-1.49L238.393,-1.505C238.439,-1.843 238.377,-6.757 238.377,-6.757L239.544,-6.757L239.406,-1.49Z" style="fill:rgb(0,255,255);fill-rule:nonzero;"/>
                <path d="M245.748,-3.517L245.748,-6.818C245.748,-6.818 245.917,-8.354 243.921,-8.385C241.925,-8.415 241.879,-6.818 241.879,-6.818L241.71,-1.259C241.71,-1.259 241.633,0.107 243.629,0.138C245.626,0.169 245.748,-1.29 245.748,-1.29L245.748,-2.703L244.244,-2.703L244.213,-1.551L243.199,-1.52L243.199,-3.547L245.748,-3.517ZM243.337,-6.619L244.412,-6.619L244.412,-5.052L243.337,-5.052L243.337,-6.619Z" style="fill:rgb(0,255,255);fill-rule:nonzero;"/>
                <path d="M247.76,-11.364L247.806,0.046L249.112,0.154L249.142,-5.559L251.707,-5.805L251.845,-7.724L249.265,-7.279L249.25,-9.92L253.12,-10.074L253.289,-11.978L247.76,-11.364Z" style="fill:rgb(0,255,255);fill-rule:nonzero;"/>
                <path d="M254.578,-8.477C252.659,-8.6 252.674,-7.218 252.674,-7.218L252.521,-1.014C252.521,-1.014 252.567,0.107 254.517,0.246C256.452,0.399 256.498,-1.198 256.498,-1.198L256.652,-7.125C256.652,-7.125 256.513,-8.354 254.578,-8.477ZM255.101,-1.643L254.102,-1.643L254.225,-6.588L255.239,-6.588L255.101,-1.643Z" style="fill:rgb(0,255,255);fill-rule:nonzero;"/>
                <path d="M257.343,-8.262L256.959,0.015L258.74,0.015L258.986,-6.235L260.03,-6.281L260.107,-5.559L261.535,-5.559L261.704,-7.509C261.704,-7.509 261.704,-8.354 260.322,-8.354C259.523,-8.354 259.078,-7.863 259.078,-7.863L259.078,-8.354L257.343,-8.262Z" style="fill:rgb(0,255,255);fill-rule:nonzero;"/>
                <path d="M263.7,-11.195L263.7,-9.06L266.004,-9.06L266.004,-0.015L267.386,-0.015L267.386,-9.26L269.49,-9.26L269.49,-11.364L263.7,-11.195Z" style="fill:rgb(0,255,255);fill-rule:nonzero;"/>
                <path d="M270.304,-11.855L269.797,0L271.425,0L271.762,-6.25L272.807,-6.296L272.653,0L274.235,0L274.542,-7.525C274.542,-7.525 274.388,-8.369 273.006,-8.369C272.208,-8.369 271.762,-7.878 271.762,-7.878L271.885,-11.947L270.304,-11.855Z" style="fill:rgb(0,255,255);fill-rule:nonzero;"/>
                <path d="M278.903,-3.517L278.903,-6.818C278.903,-6.818 279.072,-8.354 277.076,-8.385C275.079,-8.415 275.033,-6.818 275.033,-6.818L274.864,-1.259C274.864,-1.259 274.788,0.107 276.784,0.138C278.78,0.169 278.903,-1.29 278.903,-1.29L278.903,-2.703L277.398,-2.703L277.368,-1.551L276.354,-1.52L276.354,-3.547L278.903,-3.517ZM276.492,-6.619L277.567,-6.619L277.567,-5.052L276.492,-5.052L276.492,-6.619Z" style="fill:rgb(0,255,255);fill-rule:nonzero;"/>
                <path d="M287.042,-11.993L285.983,-2.826L284.385,-7.264L284.032,-7.264L282.834,-4.714L282.051,-11.395L280.915,-11.348L281.115,0.015L282.42,0.015L284.355,-3.962L285.983,0L286.704,0L288.179,-11.993L287.042,-11.993Z" style="fill:rgb(0,255,255);fill-rule:nonzero;"/>
                <path d="M290.543,-8.477C288.624,-8.6 288.639,-7.218 288.639,-7.218L288.486,-1.014C288.486,-1.014 288.532,0.107 290.482,0.246C292.417,0.399 292.463,-1.198 292.463,-1.198L292.617,-7.125C292.617,-7.125 292.478,-8.354 290.543,-8.477ZM291.066,-1.643L290.067,-1.643L290.19,-6.588L291.204,-6.588L291.066,-1.643Z" style="fill:rgb(0,255,255);fill-rule:nonzero;"/>
                <path d="M293.308,-8.262L292.924,0.015L294.705,0.015L294.951,-6.235L295.995,-6.281L296.072,-5.559L297.5,-5.559L297.669,-7.509C297.669,-7.509 297.669,-8.354 296.287,-8.354C295.488,-8.354 295.043,-7.863 295.043,-7.863L295.043,-8.354L293.308,-8.262Z" style="fill:rgb(0,255,255);fill-rule:nonzero;"/>
                <path d="M298.498,-11.993L297.976,-0.491C297.976,-0.491 297.976,0.015 298.406,0.015C298.836,0.015 299.634,0 299.634,0L299.849,-11.993L298.498,-11.993Z" style="fill:rgb(0,255,255);fill-rule:nonzero;"/>
                <path d="M303.596,-11.978L303.504,-7.509C303.504,-7.509 303.443,-8.354 302.168,-8.369C300.786,-8.385 300.786,-6.91 300.786,-6.91L300.633,-1.413C300.633,-1.413 300.54,-0.123 301.723,0.077C302.905,0.276 303.305,-0.522 303.305,-0.522L303.305,-0.015L304.886,-0.015L305.378,-11.978L303.596,-11.978ZM303.32,-1.49C303.32,-1.49 302.399,-1.566 302.306,-1.505C302.306,-1.49 302.291,-1.474 302.291,-1.49L302.306,-1.505C302.353,-1.843 302.291,-6.757 302.291,-6.757L303.458,-6.757L303.32,-1.49Z" style="fill:rgb(0,255,255);fill-rule:nonzero;"/>
                <g transform="matrix(1,0,0,1,1.05922,-0.0627057)">
                    <path d="M306.821,-2.027C306.284,-2.027 305.854,-1.566 305.854,-1.014C305.854,-0.461 306.284,0 306.821,0C307.359,0 307.789,-0.461 307.789,-1.014C307.789,-1.566 307.359,-2.027 306.821,-2.027ZM305.854,-2.411L307.574,-2.411L307.405,-11.333L305.608,-11.333L305.854,-2.411Z" style="fill:rgb(0,255,255);fill-rule:nonzero;"/>
                </g>
                <g transform="matrix(0.995182,0.127558,-0.0753537,0.995182,2.12398,-39.5881)">
                    <path d="M309.77,-2.027C309.232,-2.027 308.802,-1.566 308.802,-1.014C308.802,-0.461 309.232,0 309.77,0C310.307,0 310.737,-0.461 310.737,-1.014C310.737,-1.566 310.307,-2.027 309.77,-2.027ZM308.802,-2.411L310.522,-2.411L310.353,-11.333L308.557,-11.333L308.802,-2.411Z" style="fill:rgb(0,255,255);fill-rule:nonzero;"/>
                </g>
            </g>
        </g>
    </g>
</svg>
