<svg width="100%" height="100%" viewBox="0 0 1100 600" version="1.1" xmlns="http://www.w3.org/2000/svg" xmlns:xlink="http://www.w3.org/1999/xlink" xml:space="preserve" xmlns:serif="http://www.serif.com/" style="fill-rule:evenodd;clip-rule:evenodd;stroke-linejoin:round;stroke-miterlimit:2;">
    <g id="thisis">
        <path d="M0,564.85L21.368,600L306.642,365.539L354.738,455.799L797.64,410.331L1033.51,450.667L1100,231.453L1046.53,55.954L888.965,0L777.67,144.97L456.503,37.17L267.694,87.946L216.921,212.907L268.266,299.954L0,564.85Z" style="fill:rgb(255,230,255);"/>
        <path d="M297.905,123.765L297.905,173.18L357.354,173.18L357.354,382.572L393.023,382.572L393.023,168.558L447.32,168.558L447.32,119.854L297.905,123.765Z" style="fill:rgb(25,179,230);fill-rule:nonzero;"/>
        <path d="M468.325,108.478L455.246,382.927L497.257,382.927L505.979,238.237L532.926,237.171L528.961,382.927L569.784,382.927L577.714,208.73C577.714,208.73 573.749,189.178 538.078,189.178C517.47,189.178 505.979,200.553 505.979,200.553L509.149,106.344L468.325,108.478Z" style="fill:rgb(230,76,25);fill-rule:nonzero;"/>
        <path d="M585.632,382.927L632.011,382.927L641.911,192.377L597.526,192.377L585.632,382.927ZM622.49,183.489C636.367,183.489 647.467,172.825 647.467,160.026C647.467,147.228 636.367,136.563 622.49,136.563C608.626,136.563 597.526,147.228 597.526,160.026C597.526,172.825 608.626,183.489 622.49,183.489Z" style="fill:rgb(25,230,179);fill-rule:nonzero;"/>
        <path d="M769.925,264.9L769.925,218.684C769.925,218.684 772.703,188.111 710.476,188.111C655.788,188.111 655.384,214.418 655.384,214.418C655.384,214.418 655.788,254.235 656.18,266.677C656.18,278.765 731.879,333.512 731.879,333.512L731.488,351.287L693.442,351.287L693.442,318.226L655.384,313.248L655.384,359.464C655.384,359.464 655.788,387.905 712.863,387.905C769.925,387.905 771.112,354.842 771.112,354.842C771.112,354.842 772.311,328.535 771.112,319.647C770.721,313.248 699.377,252.813 699.377,252.813L699.377,225.794L725.932,225.794L725.541,265.61L769.925,264.9Z" style="fill:rgb(230,25,76);fill-rule:nonzero;"/>
        <path d="M835.321,382.927L881.688,382.927L891.6,192.377L847.216,192.377L835.321,382.927ZM872.18,183.489C886.057,183.489 897.144,172.825 897.144,160.026C897.144,147.228 886.057,136.563 872.18,136.563C858.303,136.563 847.216,147.228 847.216,160.026C847.216,172.825 858.303,183.489 872.18,183.489Z" style="fill:rgb(76,230,25);fill-rule:nonzero;"/>
        <path d="M1019.61,264.9L1019.61,218.684C1019.61,218.684 1022.39,188.111 960.166,188.111C905.477,188.111 905.074,214.418 905.074,214.418C905.074,214.418 905.477,254.235 905.869,266.677C905.869,278.765 981.569,333.512 981.569,333.512L981.165,351.287L943.119,351.287L943.119,318.226L905.074,313.248L905.074,359.464C905.074,359.464 905.477,387.905 962.54,387.905C1019.61,387.905 1020.8,354.842 1020.8,354.842C1020.8,354.842 1021.99,328.535 1020.8,319.647C1020.41,313.248 949.067,252.813 949.067,252.813L949.067,225.794L975.621,225.794L975.23,265.61L1019.61,264.9Z" style="fill:rgb(230,25,179);fill-rule:nonzero;"/>
    </g>
	<style>#thisis{transform-origin:50% 50%;animation:zoom 2s;animation-timing-function: ease-out;animation-iteration-count: infinite;animation-delay: 0.6s;}@keyframes zoom{0% { transform: scale(0.8); }5% { transform: scale(1); }100% { transform: scale(0.8); } }</style>
</svg>
