<svg width="100%" height="100%" viewBox="0 0 1300 600" version="1.1" xmlns="http://www.w3.org/2000/svg" xmlns:xlink="http://www.w3.org/1999/xlink" xml:space="preserve" xmlns:serif="http://www.serif.com/" style="fill-rule:evenodd;clip-rule:evenodd;stroke-linejoin:round;stroke-miterlimit:2;">
    <g id="shun">
        <path d="M1260.99,172.669L1013.79,230.082L865.93,183.832L413.437,229.669L229.26,0L36.667,143.159L-0,555.186L569.096,600L1300,541.518L1260.99,172.669Z" style="fill:rgb(255,255,230);"/>
        <path d="M198.965,240.349L107.004,246.838C107.004,246.838 86.614,249.362 85.414,276.042C84.615,303.082 85.414,377.712 85.414,377.712C85.414,377.712 86.213,393.575 100.607,393.214C115.8,392.493 156.182,393.214 156.182,393.214L151.784,481.183L82.216,476.136L82.216,513.271L178.576,519.76C178.576,519.76 198.164,521.924 198.965,492.72C199.365,463.518 198.965,363.291 198.965,363.291C198.965,363.291 197.764,346.706 178.576,346.706L132.193,345.264L126.196,289.021C126.196,289.021 200.566,290.102 198.965,289.021C197.764,287.579 198.965,240.349 198.965,240.349Z" style="fill:rgb(179,230,25);fill-rule:nonzero;"/>
        <path d="M225.736,234.581L212.539,512.911L254.918,512.911L263.711,366.175L290.905,365.092L286.902,512.911L328.08,512.911L336.086,336.251C336.086,336.251 332.083,316.422 296.096,316.422C275.307,316.422 263.711,327.958 263.711,327.958L266.914,232.417L225.736,234.581Z" style="fill:rgb(25,76,230);fill-rule:nonzero;"/>
        <path d="M351.643,503.827C351.643,503.827 355.233,518.608 407.618,517.166C470.386,515.364 466.783,495.895 466.783,495.895L466.383,319.235L429.208,319.235L423.204,467.052L396.023,465.971L395.623,319.235L349.241,319.235L351.643,503.827Z" style="fill:rgb(230,179,25);fill-rule:nonzero;"/>
        <path d="M489.06,318.946L479.066,513.271L525.434,513.271L531.839,366.535L559.02,365.453L559.02,513.271L596.208,513.271L602.599,336.611C602.599,336.611 602.599,316.782 566.625,316.782C545.836,316.782 534.241,328.319 534.241,328.319L534.241,316.782L489.06,318.946Z" style="fill:rgb(25,179,230);fill-rule:nonzero;"/>
        <path d="M716.807,356.829C716.807,356.829 716.807,316.811 663.234,315.008C609.66,313.205 614.864,354.306 614.864,354.306L614.864,491.668C614.864,491.668 614.864,517.265 654.841,517.265C710.015,517.265 710.015,495.273 710.015,495.273L708.414,438.67L676.43,437.228L673.628,475.444L648.449,473.641L654.04,362.598L677.631,360.434L678.031,396.849L716.407,395.046L716.807,356.829Z" style="fill:rgb(230,76,25);fill-rule:nonzero;"/>
        <path d="M736.711,234.581L723.514,512.911L765.906,512.911L774.699,366.175L801.88,365.092L797.89,512.911L839.067,512.911L847.06,336.251C847.06,336.251 843.07,316.422 807.083,316.422C786.294,316.422 774.699,327.958 774.699,327.958L777.901,232.417L736.711,234.581Z" style="fill:rgb(25,230,230);fill-rule:nonzero;"/>
        <path d="M960.612,430.349L960.612,352.835C960.612,352.835 965.002,316.782 913.03,316.06C861.057,315.339 859.856,352.835 859.856,352.835L855.466,483.347C855.466,483.347 853.465,515.434 905.437,516.155C957.41,516.876 960.612,482.626 960.612,482.626L960.612,449.457L921.423,449.457L920.635,476.497L894.242,477.218L894.242,429.628L960.612,430.349ZM897.845,357.521L925.826,357.521L925.826,394.296L897.845,394.296L897.845,357.521Z" style="fill:rgb(230,25,76);fill-rule:nonzero;"/>
        <path d="M1081.01,430.349L1081.01,352.835C1081.01,352.835 1085.4,316.782 1033.43,316.06C981.459,315.339 980.258,352.835 980.258,352.835L975.855,483.347C975.855,483.347 973.853,515.434 1025.84,516.155C1077.81,516.876 1081.01,482.626 1081.01,482.626L1081.01,449.457L1041.82,449.457L1041.02,476.497L1014.64,477.218L1014.64,429.628L1081.01,430.349ZM1018.23,357.521L1046.23,357.521L1046.23,394.296L1018.23,394.296L1018.23,357.521Z" style="fill:rgb(25,230,179);fill-rule:nonzero;"/>
        <path d="M1126.17,465.32C1112.17,465.32 1100.98,476.136 1100.98,489.115C1100.98,502.095 1112.17,512.911 1126.17,512.911C1140.17,512.911 1151.36,502.095 1151.36,489.115C1151.36,476.136 1140.17,465.32 1126.17,465.32ZM1100.98,456.307L1145.76,456.307L1141.37,246.838L1094.59,246.838L1100.98,456.307Z" style="fill:rgb(230,25,179);fill-rule:nonzero;"/>
        <path d="M1192.59,465.32C1178.6,465.32 1167.4,476.136 1167.4,489.115C1167.4,502.095 1178.6,512.911 1192.59,512.911C1206.59,512.911 1217.78,502.095 1217.78,489.115C1217.78,476.136 1206.59,465.32 1192.59,465.32ZM1167.4,456.307L1212.18,456.307L1207.79,246.838L1161.01,246.838L1167.4,456.307Z" style="fill:rgb(25,230,76);fill-rule:nonzero;"/>
    </g>
	<style>#shun{transform-origin:50% 50%;animation:zoom 2s;animation-timing-function: ease-out;animation-iteration-count: infinite;animation-delay: 1.2s;}@keyframes zoom{0% { transform: scale(0.8); }5% { transform: scale(1); }100% { transform: scale(0.8); } }</style>
</svg>
