<svg width="100%" height="100%" viewBox="0 0 1100 600" version="1.1" xmlns="http://www.w3.org/2000/svg" xmlns:xlink="http://www.w3.org/1999/xlink" xml:space="preserve" xmlns:serif="http://www.serif.com/" style="fill-rule:evenodd;clip-rule:evenodd;stroke-linejoin:round;stroke-miterlimit:2;">
    <g id="yes">
        <path d="M366.234,369.285L521.656,419.945L555.023,339.771L1077.11,600L1100,569.332L579.051,272.093L607.587,163.509L501.98,51.478L27.221,-0L0,182.556L51.495,403.16L215.34,405.821L366.234,369.285Z" style="fill:rgb(230,255,255);"/>
        <path d="M193.435,73.918L169.427,168.807L135.813,72.835L87.4,76.805L143.415,231.225L140.214,347.039L181.431,339.462L185.825,227.616L222.639,77.165L193.435,73.918Z" style="fill:rgb(230,25,179);fill-rule:nonzero;"/>
        <path d="M326.747,239.185L326.747,161.614C326.747,161.614 331.152,125.535 279.141,124.813C227.117,124.092 225.917,161.614 225.917,161.614L221.523,292.221C221.523,292.221 219.519,324.331 271.531,325.054C323.554,325.775 326.747,291.5 326.747,291.5L326.747,258.306L287.531,258.306L286.739,285.366L260.331,286.087L260.331,238.462L326.747,239.185ZM263.932,166.304L291.937,166.304L291.937,203.105L263.932,203.105L263.932,166.304Z" style="fill:rgb(76,230,25);fill-rule:nonzero;"/>
        <path d="M459.171,201.481L459.171,154.579C459.171,154.579 461.968,123.551 399.153,123.551C343.936,123.551 343.54,150.249 343.54,150.249C343.54,150.249 343.936,190.658 344.344,203.286C344.344,215.553 420.759,271.115 420.759,271.115L420.363,289.155L381.952,289.155L381.952,255.601L343.54,250.549L343.54,297.453C343.54,297.453 343.936,326.317 401.554,326.317C459.171,326.317 460.371,292.763 460.371,292.763C460.371,292.763 461.571,266.065 460.371,257.045C459.975,250.549 387.953,189.216 387.953,189.216L387.953,161.795L414.757,161.795L414.361,202.204L459.171,201.481Z" style="fill:rgb(230,25,76);fill-rule:nonzero;"/>
        <path d="M512.79,359.871L529.595,300.7L488.375,304.669L481.173,359.871L512.79,359.871Z" style="fill:rgb(179,230,25);fill-rule:nonzero;"/>
    </g><style>#yes{transform-origin:50% 50%;animation:zoom 2s;animation-timing-function: ease-out;animation-iteration-count: infinite;}@keyframes zoom{0% { transform: scale(0.8); }5% { transform: scale(1); }100% { transform: scale(0.8); } }</style>
</svg>
