<svg width="100%" height="100%" viewBox="0 0 1477 1920" version="1.1" xmlns="http://www.w3.org/2000/svg" xmlns:xlink="http://www.w3.org/1999/xlink" xml:space="preserve" xmlns:serif="http://www.serif.com/" style="fill-rule:evenodd;clip-rule:evenodd;stroke-linejoin:round;stroke-miterlimit:2;">
    <path d="M295.4,686.49C393.965,859.001 546.434,1003.33 664.65,1092.92C678.38,1103.33 679.315,1136.43 644.713,1118.04C495.196,1038.56 331.388,964.296 206.78,745.323L295.4,686.49Z" style="fill:rgb(253,241,255);"/>
    <path d="M450.288,1066.23L445.991,743.216L291.83,926.289L450.288,1066.23ZM408.163,976.841L336.172,909.376C336.172,909.376 425.814,812.611 425.814,812.611L408.163,976.841Z" style="fill:rgb(255,101,175);"/>
    <path d="M32.034,428.621L87.652,412.052L80.3,382.241L154.065,373.548L153.053,353.67L220.645,354.829C214.496,407.568 248.83,462.164 260.065,535.366C267.549,512.105 300.866,483.488 335.439,473.042L377.076,535.366C377.076,535.366 323.842,551.417 312.62,591.491C300.407,635.108 314.421,673.349 314.421,673.349L205.782,742.932C205.782,742.932 138.276,655.266 107.426,612.378C57.602,543.11 32.034,428.621 32.034,428.621Z" style="fill:rgb(255,242,218);"/>
    <path d="M1173.47,671.095C1089.28,920.096 927.046,1032.75 866.607,1069.64C836.88,1087.78 846.813,1120.71 858.636,1115.44C929.43,1083.89 1156.93,957.731 1269.64,741.582L1173.47,671.095Z" style="fill:rgb(253,241,255);"/>
    <path d="M1058.34,1078.54L1269.64,952.912L1078.37,698.098L1058.34,1078.54ZM1090.04,1024.9L1101.89,776.353C1103.7,778.952 1199.04,927.448 1210.82,942.926L1090.04,1024.9Z" style="fill:rgb(255,132,123);"/>
    <path d="M1456.66,414.062L1396.15,392.464L1405.11,368.138L1333.08,351.1L1332.94,336.175L1264.89,335.629C1261.93,387.808 1237.06,472.139 1222.93,509.798C1207.33,485.271 1166.57,472.361 1141.11,459.263L1101.89,517.985C1101.89,517.985 1135.94,528.879 1167.25,567.268C1201.73,609.554 1177.52,672.757 1177.52,672.757L1272.99,735.102C1272.99,735.102 1332.32,680.401 1383.8,594.133C1421.44,531.062 1456.66,414.062 1456.66,414.062Z" style="fill:rgb(255,242,218);"/>
    <path d="M590.8,1920C598.479,1629.18 643.864,1127.61 645.261,970.567L830.379,985.336C843.078,1197.26 874.917,1650 886.2,1920L590.8,1920Z" style="fill:rgb(253,241,255);"/>
    <path d="M841.258,1667.15L782.885,1568.18C782.885,1568.18 867.548,1502.54 867.548,1502.54C873.964,1497.56 874.813,1490.04 869.597,1484.37L801.24,1410.13C801.24,1410.13 932.138,1270.95 932.138,1270.95L897.886,1255.38L760.045,1402.6C755.82,1407.49 755.946,1413.73 760.367,1418.53L827.083,1490.99C827.083,1490.99 744.361,1555.13 744.361,1555.13C738.883,1559.37 737.383,1565.57 740.537,1570.91L804.099,1678.69L841.258,1667.15Z" style="fill:rgb(96,101,255);"/>
    <path d="M557.259,1412.56L635.591,1443.7C642.595,1446.48 651.089,1445.61 656.911,1441.5L775.821,1357.56C778.577,1355.61 780.531,1353.08 781.436,1350.27L839.372,1170.71L802.724,1163.59L746.176,1338.85C746.176,1338.85 641.171,1412.97 641.171,1412.97C641.171,1412.97 574.482,1386.45 574.482,1386.45L557.259,1412.56Z" style="fill:rgb(130,255,123);"/>
    <path d="M681.412,1627.16L681.023,1627.16L553.966,1627.41L646.394,1826.43L547.804,1853.7L554.015,1893.42L695.416,1849.58C700.304,1848.23 604.772,1661.94 604.772,1661.94L772.476,1679.69L528.074,1462.15L516.95,1505.03L681.412,1627.16Z" style="fill:rgb(255,132,123);"/>
    <path d="M557.259,1188.83L594.275,1304.45L730.857,1299.33L730.422,1227.4L557.259,1188.83Z" style="fill:rgb(255,222,0);"/>
    <path d="M857.333,1034.01C940.428,980.222 1088.51,867.153 1155.95,667.671C1157.35,663.542 1165.65,635.706 1165.43,622.991C1165.18,608.666 1162.09,592.627 1151.25,579.331C1124.35,546.35 1095.47,536.536 1095.47,536.536C1089.52,534.629 1084.81,530.184 1082.72,524.492C1080.63,518.8 1081.39,512.498 1084.78,507.419L1123.99,448.698C1129.72,440.119 1141.35,437.214 1150.7,442.025C1166.26,450.031 1187.41,458.02 1205.29,468.486C1208.24,470.212 1211.1,472.006 1213.86,473.873C1226.98,432.787 1242.34,374.134 1244.59,334.56C1245.18,324.13 1254.19,315.991 1265.06,316.078L1333.11,316.625C1344.11,316.713 1353.03,325.195 1353.27,335.741L1409.96,349.153C1415.54,350.472 1420.28,353.998 1423,358.859C1425.73,363.72 1426.19,369.463 1424.28,374.668C1424.28,374.668 1422,380.838 1422,380.838L1463.73,395.732C1473.72,399.296 1479.15,409.664 1476.19,419.5C1476.19,419.5 1439.99,539.272 1401.44,603.865C1354.02,683.317 1287.35,745.093 1286.83,746.088C1186.26,938.97 965.705,1070.95 862.776,1123.03C866.407,1295.85 920.558,1917.77 923.125,1920L886.2,1920C888.894,1919.64 840.054,1382.38 827.12,1240.62L738.204,1150.75L649.88,1240.62C619.89,1717.48 590.8,1920 590.8,1920L553.875,1920C553.875,1920 581.146,1663.24 598.185,1447.38C609.892,1299.08 615.754,1191.02 612.955,1122.46C503.693,1064.51 284.649,941.941 190.166,760.743C189.647,759.747 122.976,697.972 75.56,618.52C37.012,553.927 0.806,434.155 0.806,434.155C-2.155,424.319 3.28,413.951 13.266,410.387L54.997,395.493C54.997,395.493 52.725,389.323 52.725,389.323C50.807,384.118 51.269,378.375 53.996,373.514C56.723,368.653 61.46,365.127 67.038,363.807L123.731,350.396C123.969,339.85 132.886,331.368 143.89,331.279L211.944,330.733C222.809,330.646 231.824,338.785 232.415,349.215C234.661,388.789 250.016,447.442 263.141,488.527C265.898,486.661 268.761,484.866 271.71,483.141C289.593,472.675 310.74,464.686 326.302,456.68C335.652,451.869 347.277,454.773 353.006,463.352L392.22,522.074C395.612,527.153 396.373,533.454 394.282,539.147C392.191,544.839 387.483,549.284 381.526,551.19C381.526,551.19 352.65,561.005 325.754,593.985C314.91,607.281 311.819,623.321 311.57,637.646C311.349,650.361 319.653,678.196 321.049,682.325C383.013,865.594 536.502,972.516 621.64,1030.93C622.353,1009.11 622.822,988.918 622.985,970.567C623.081,959.773 632.257,951.098 643.483,951.187L833.515,954.744C844.228,954.828 853.037,962.89 853.653,973.173C854.845,993.061 856.075,1013.36 857.333,1034.01ZM827.12,1190.44C826.416,1177.64 815.414,1015.08 814.142,993.695C814.142,993.695 663.381,990.449 663.381,990.449C663.002,1010.76 651.366,1170.12 649.88,1202.21L727.743,1115.19C734.402,1110.2 743.799,1110.39 750.231,1115.66L827.12,1190.44ZM620,1074.44C534.868,1016.45 362.043,903.293 292.596,715.54L230.22,756.274C236.078,767.075 242.228,777.641 248.631,787.97C329.331,918.136 519.706,1040.98 620.34,1100.31C620.59,1094.69 619.771,1079.9 620,1074.44ZM860.849,1091.53C957.932,1036.97 1141.96,912.689 1228.37,773.315C1234.77,762.986 1240.92,752.421 1246.78,741.619L1184.4,700.886C1108.97,904.836 939.236,1024.78 859.954,1076.91L860.849,1091.53ZM164.865,370.215L193.555,369.985C199.315,415.893 216.057,476.016 228.917,514.067C197.813,533.022 182.435,573.369 195.175,613.752L234.095,602.395C225.97,576.642 240.77,543.696 264.179,537.366C264.179,537.366 288.959,518.307 300.923,512.115C310.058,507.387 319.633,503.167 328.571,499.143C328.571,499.143 345.757,524.878 345.757,524.878C331.354,533.273 312.091,547.371 293.75,569.86C277.004,590.394 271.29,614.876 270.905,636.999C270.617,653.571 273.311,668.664 275.902,679.176C275.902,679.176 206.698,724.369 206.697,724.369C187.483,704.599 147.164,659.926 110.837,599.055C82.905,552.251 56.419,474.985 45.331,440.651L67.79,432.635C77.804,461.336 93.689,499.881 104.23,525.006L141.948,510.373C129.118,479.791 107.919,428.563 100.491,402.033L100.485,402.034C100.356,401.549 100.2,401.068 100.023,400.588C100.023,400.588 98.561,396.618 98.561,396.618L126.941,389.904C134.855,430.378 152.599,470.939 162.955,499.405L201.345,486.488C190.465,456.582 170.228,412.478 164.865,370.215ZM1312.13,355.561L1283.44,355.33C1277.68,401.238 1260.94,461.361 1248.08,499.412C1279.19,518.367 1294.57,558.714 1281.83,599.097L1242.9,587.741C1251.03,561.987 1236.23,529.041 1212.82,522.712C1212.82,522.712 1188.04,503.652 1176.08,497.46C1166.94,492.732 1157.37,488.513 1148.43,484.488C1148.43,484.488 1131.24,510.223 1131.24,510.223C1145.65,518.618 1164.91,532.717 1183.25,555.206C1200,575.74 1205.71,600.221 1206.1,622.345C1206.38,638.916 1203.69,654.009 1201.1,664.521C1201.1,664.521 1270.3,709.714 1270.3,709.714C1289.52,689.945 1329.84,645.271 1366.16,584.4C1394.1,537.596 1420.58,460.331 1431.67,425.996L1409.21,417.981C1399.2,446.682 1383.31,485.227 1372.77,510.352L1335.05,495.718C1347.88,465.136 1369.08,413.908 1376.51,387.378L1376.52,387.38C1376.64,386.895 1376.8,386.413 1376.98,385.934C1376.98,385.934 1378.44,381.963 1378.44,381.963L1350.06,375.25C1342.14,415.723 1324.4,456.284 1314.05,484.75L1275.65,471.834C1286.54,441.928 1306.77,397.824 1312.13,355.561Z"/>
    <path d="M572.456,641.748C572.456,641.748 579.7,588.286 572.057,476.219L907.844,502.516C896.979,570.975 909.113,598.37 909.113,598.37C909.113,598.37 990.524,609.912 995.364,671.446C999.361,722.261 917.275,765.963 917.275,765.963C939.094,841.892 967.819,915.638 977.167,937.222C977.167,937.222 943.103,1120.08 745.987,1128.08C583.857,1134.66 504.692,936.157 504.692,936.157C522.2,893.37 539.683,816.434 557.259,764.805C557.259,764.805 483.813,731.184 489.706,687.265C499.901,611.295 572.456,641.748 572.456,641.748Z" style="fill:rgb(255,242,218);"/>
    <path d="M679.225,763.41C676.108,767.827 712.125,1127.8 712.125,1127.8L759.707,1128.25C759.707,1128.25 810.112,763.716 806.662,760.788C801.393,756.315 680.799,761.181 679.225,763.41Z" style="fill:rgb(229,112,118);"/>
    <path d="M755.81,28.487C755.81,28.487 577.196,97.319 529.808,249.708C487.185,386.777 560.095,488.069 600.651,526.639C615.945,541.185 742.873,558.231 742.873,558.231L886.442,516.256C886.442,516.256 983.519,456.732 977.722,347.827C968.395,172.614 816.105,180.233 764.203,136.628C722.617,101.69 755.81,28.487 755.81,28.487Z" style="fill:rgb(189,189,189);"/>
    <path d="M829.565,60.856C738.531,137.938 680.965,215.343 722.946,328.976L837.589,363.953L819.202,507.896L1053.25,445.931L1038.62,246.642L829.565,60.856Z" style="fill:rgb(196,123,255);"/>
    <path d="M561.841,519.679C562.401,571.955 561.535,608.721 561.535,608.721C561.535,608.721 491.687,603.783 473.369,679.152C452.578,764.696 538.492,778.567 538.492,778.567C532.868,830.049 505.066,890.114 484.723,930.044C482.589,934.234 482.844,939.195 484.433,943.604C484.433,943.604 503.663,1029.74 562.034,1087.38C602.502,1127.34 667.138,1159.56 738.5,1156.66C950.615,1148.05 993.121,940.231 993.121,940.231C994.117,936.214 993.764,931.996 992.112,928.183C983.523,908.35 958.625,846.426 937.916,778.567C937.916,778.567 1020.46,749.208 1005.99,654.222C994.284,577.39 916.408,590.134 916.408,590.134C914.514,562.713 914.876,549.049 917.945,527.49C947.712,495.57 1002.48,430.358 998.03,346.832C991.873,231.146 928.977,187.956 867.391,161.496C832.21,146.381 797.157,138.353 777.582,121.907C765.771,111.984 763.342,97.403 763.615,83.852C764.114,59.093 783.575,0 783.575,0C783.575,0 555.987,83.455 505.717,244.105C460.661,388.087 517.073,472.16 561.841,519.679ZM689.702,767.736C716.331,760.381 767.58,762.465 791.46,767.934C784.38,833.131 754.604,1055.11 745.733,1116.91C745.733,1116.91 731.115,1116.78 731.115,1116.78C725.302,1060.71 690.105,774.017 689.702,767.736ZM589.302,544.636C595.918,649.719 585.841,723.341 569.217,800.721C558.185,852.067 538.266,897.087 523.129,933.644C530.559,951.53 549.068,1018.53 591.17,1060.1C615.412,1084.04 653.35,1106.09 690.917,1114.6C685.326,1063.7 658.893,821.7 655.454,764.775C654.911,755.796 655.222,750.171 655.543,748.666C656.305,745.098 657.779,742.816 658.616,741.678L658.792,741.44C660.225,739.495 662.929,736.314 668.613,734.281C670.34,733.663 677.801,733.255 688.693,731.579C716.008,727.378 767.55,726.58 793.727,729.675C801.261,730.565 806.76,730.914 809.362,731.694C813.278,732.87 815.857,734.567 817.52,735.919C819.524,737.549 822.672,740.51 824.057,746.125C824.409,747.555 824.808,753.524 823.879,763.159C818.558,818.363 792.31,1052.19 785.641,1111.47C908.459,1081.19 943.435,964.527 951.878,937.05C941.685,913.798 920.913,848.719 909.34,802.993C891.559,732.736 879.058,636.016 882.538,554.092C850.262,561.983 775.278,571.128 738.5,571.798C692.66,572.633 611.561,553.567 589.302,544.636ZM916.408,626.444C918.944,664.295 921.286,707.134 928.409,734.875C928.409,734.875 980.293,714.419 973.548,664.014C967.831,621.284 916.408,626.444 916.408,626.444ZM556.927,645.644C556.927,645.644 513.162,639.189 507.029,684.02C499.614,738.226 546.283,734.259 546.283,734.259C552.804,699.727 555.28,682.144 556.927,645.644ZM688.464,86.484C637.17,120.051 574.114,175.488 549.292,255.312C509.938,381.865 576.369,475.647 614.204,512.021C616.113,512.723 630.654,517.998 642.94,520.885C677.966,529.115 726.551,536.194 741.281,538.26L799.063,521.365L839.081,291.459L666.744,264.544C666.744,264.544 633.652,167.205 688.464,86.484ZM723.401,95.961C699.152,144.849 679.124,164.762 697.448,229.534L887.833,259.389L838.916,509.713L877.615,498.398C890.887,489.485 962.127,437.384 957.413,348.823C952.379,254.253 901.149,218.827 850.804,197.196C811.361,180.25 772.771,169.789 750.824,151.35C733.089,136.45 725.294,116.38 723.401,95.961Z"/>
    <path d="M562.502,562.463L553.854,545.949C553.854,545.949 644.476,351.118 666.512,350.259C676.237,349.881 723.55,462.397 739.024,497.952C763.644,441.842 812.35,350.004 817.064,350.259C820.817,350.463 922.553,542.259 922.553,542.259C922.553,542.259 831.942,722.137 828.174,722.182C823.611,722.237 755.6,645.281 738.204,608.721C723.184,638.584 648.589,726.875 648.589,726.875L586.736,608.747C572.574,584.327 561.535,564.413 561.535,564.413C561.535,564.413 561.87,563.735 562.502,562.463Z"/>
    <path d="M663.009,410.813L692.116,464.914L655.246,544.472L687.704,624.967L655.246,667.798L598.405,545.949L663.009,410.813Z" style="fill:white;"/>
    <rect x="0" y="0" width="454.462" height="590.769" style="fill:none;"/>
</svg>
